<svg xmlns:xlink="http://www.w3.org/1999/xlink" xmlns="http://www.w3.org/2000/svg" version="1.1" viewBox="0 0 1024 1024" height="1024px" width="1024px">
    <title>666</title>
    <defs>
        <radialGradient id="radialGradient-1" gradientTransform="translate(0.500000,0.196690),scale(0.939735,1.000000),rotate(90.000000),translate(-0.500000,-0.196690)" r="93.9392347%" fy="19.6689915%" fx="50%" cy="19.6689915%" cx="50%">
            <stop offset="0%" stop-color="#FFE476"></stop>
            <stop offset="41.3872668%" stop-color="#FCEC6C"></stop>
            <stop offset="100%" stop-color="#FFB02F"></stop>
        </radialGradient>
        <path id="path-2" d="M422.860526,15.7386953 C543.045502,9.94613351 646.448484,71.0305154 695.252161,169.837746 C814.878242,229.356016 901.551708,366.177465 882.801304,525.107769 C870.382242,630.372983 825.664767,708.777681 755.94998,761.387281 C709.148435,802.208227 637.11526,831.03645 517.849854,842.888265 C238.3427,870.663857 16.9816436,769.864609 0.821620894,517.576832 C-7.14599909,393.18758 43.4225884,309.314402 126.973967,256.24301 C157.596783,101.230433 269.83599,23.1140271 422.860526,15.7386953 Z"></path>
        <filter id="filter-3" filterUnits="objectBoundingBox" height="117.3%" width="116.3%" y="-8.7%" x="-8.1%">
            <feGaussianBlur result="shadowBlurInner1" in="SourceAlpha" stdDeviation="64"></feGaussianBlur>
            <feOffset result="shadowOffsetInner1" in="shadowBlurInner1" dy="16" dx="0"></feOffset>
            <feComposite result="shadowInnerInner1" k3="1" k2="-1" operator="arithmetic" in2="SourceAlpha" in="shadowOffsetInner1"></feComposite>
            <feColorMatrix in="shadowInnerInner1" type="matrix" values="0 0 0 0 0.968627451   0 0 0 0 0.68627451   0 0 0 0 0.270588235  0 0 0 0.501145583 0"></feColorMatrix>
        </filter>
        <path id="path-4" d="M289.742881,515.553802 C297.948255,515.553802 304.710996,521.73074 305.635237,529.688159 L305.742881,531.554097 C305.742881,548.480784 327.632949,560.938164 374.771902,565.816843 L383.621593,566.619671 L393.032219,567.251323 L403.008268,567.707645 L413.554224,567.984483 C415.359625,568.015436 417.188959,568.038736 419.04232,568.054299 L430.325768,568.054016 L441.204158,567.866172 C446.502512,567.725919 451.590094,567.516676 456.469112,567.240712 L465.949714,566.600497 C467.483685,566.479192 468.994645,566.350642 470.482676,566.214931 L479.136375,565.315404 C522.432331,560.230815 543.850927,548.426088 545.82708,532.406646 L545.957708,530.843304 C546.350268,522.015472 553.824873,515.177333 562.652705,515.569893 C571.480537,515.962453 578.318676,523.437057 577.926116,532.264889 C576.154164,572.112286 538.297471,592.864765 468.207651,598.485466 L457.975963,599.185913 C452.750898,599.485097 447.362314,599.70804 441.811615,599.856187 L430.494479,600.053934 L418.953762,600.053934 L407.827367,599.862983 L397.12352,599.478697 L386.84491,598.898585 C380.134847,598.446016 373.710068,597.861237 367.574158,597.14093 L358.587393,595.958407 C303.04902,587.82008 273.742881,567.300522 273.742881,531.554097 C273.742881,522.717541 280.906325,515.553802 289.742881,515.553802 Z"></path>
        <filter id="filter-5" filterUnits="objectBoundingBox" height="118.9%" width="105.3%" y="-9.5%" x="-2.6%">
            <feGaussianBlur result="shadowBlurInner1" in="SourceAlpha" stdDeviation="8"></feGaussianBlur>
            <feOffset result="shadowOffsetInner1" in="shadowBlurInner1" dy="0" dx="0"></feOffset>
            <feComposite result="shadowInnerInner1" k3="1" k2="-1" operator="arithmetic" in2="SourceAlpha" in="shadowOffsetInner1"></feComposite>
            <feColorMatrix in="shadowInnerInner1" type="matrix" values="0 0 0 0 0.661258421   0 0 0 0 0.0872254633   0 0 0 0 0.00982776113  0 0 0 1 0"></feColorMatrix>
        </filter>
        <linearGradient id="linearGradient-6" y2="113.608226%" x2="50%" y1="19.6689915%" x1="50%">
            <stop offset="0%" stop-color="#FFE992"></stop>
            <stop offset="41.5154304%" stop-color="#FFF185"></stop>
            <stop offset="100%" stop-color="#FFB02F"></stop>
        </linearGradient>
        <path id="path-7" d="M561.512472,714.729119 C438.093247,702.036926 380.017585,706.853068 387.285487,729.177543 C398.18734,762.664256 580.368779,837.681518 580.368779,837.681518 C580.368779,837.681518 706.749832,895.892135 769.374916,848.821839 C832,801.751543 908.238074,747.168458 868.402614,654.153338 C828.567154,561.138219 817.442446,554.109587 817.442446,515.553802 C817.442446,476.998017 807.480475,430.946194 777.6,430.946194 C747.719525,430.946194 741.75771,535.772441 740.626076,549.561857 C739.494441,563.351273 624.759478,522.290877 580.368779,601.154452 C550.77498,653.730168 544.489544,691.588391 561.512472,714.729119 Z"></path>
        <filter id="filter-8" filterUnits="objectBoundingBox" height="140.3%" width="135.7%" y="-20.2%" x="-24.4%">
            <feOffset result="shadowOffsetOuter1" in="SourceAlpha" dy="0" dx="-32"></feOffset>
            <feGaussianBlur result="shadowBlurOuter1" in="shadowOffsetOuter1" stdDeviation="24"></feGaussianBlur>
            <feColorMatrix in="shadowBlurOuter1" type="matrix" values="0 0 0 0 0.696364251   0 0 0 0 0.548689709   0 0 0 0 0.14785881  0 0 0 0.684966401 0"></feColorMatrix>
        </filter>
        <filter id="filter-9" filterUnits="objectBoundingBox" height="133.0%" width="129.2%" y="-16.5%" x="-21.1%">
            <feGaussianBlur result="shadowBlurInner1" in="SourceAlpha" stdDeviation="24"></feGaussianBlur>
            <feOffset result="shadowOffsetInner1" in="shadowBlurInner1" dy="0" dx="0"></feOffset>
            <feComposite result="shadowInnerInner1" k3="1" k2="-1" operator="arithmetic" in2="SourceAlpha" in="shadowOffsetInner1"></feComposite>
            <feColorMatrix in="shadowInnerInner1" type="matrix" values="0 0 0 0 0.989893374   0 0 0 0 0.520045047   0 0 0 0 0.018873497  0 0 0 1 0"></feColorMatrix>
        </filter>
        <filter id="filter-10" filterUnits="objectBoundingBox" height="357.1%" width="263.6%" y="-128.6%" x="-81.8%">
            <feGaussianBlur in="SourceGraphic" stdDeviation="48"></feGaussianBlur>
        </filter>
        <filter id="filter-11" filterUnits="objectBoundingBox" height="357.1%" width="263.6%" y="-128.6%" x="-81.8%">
            <feGaussianBlur in="SourceGraphic" stdDeviation="48"></feGaussianBlur>
        </filter>
        <linearGradient id="linearGradient-12" y2="100%" x2="50%" y1="0%" x1="50%">
            <stop offset="0%" stop-color="#FFFFFF"></stop>
            <stop offset="100%" stop-color="#FFEDBE"></stop>
        </linearGradient>
        <path id="path-13" d="M0,0.495406088 L304,0.495406088 C286.297834,85.7725663 235.631168,128.411146 152,128.411146 C68.3688322,128.411146 17.7021656,85.7725663 0,0.495406088 Z"></path>
        <filter id="filter-14" filterUnits="objectBoundingBox" height="212.6%" width="147.4%" y="-56.3%" x="-23.7%">
            <feOffset result="shadowOffsetOuter1" in="SourceAlpha" dy="0" dx="0"></feOffset>
            <feGaussianBlur result="shadowBlurOuter1" in="shadowOffsetOuter1" stdDeviation="24"></feGaussianBlur>
            <feColorMatrix in="shadowBlurOuter1" type="matrix" values="0 0 0 0 0.888848346   0 0 0 0 0.591702642   0 0 0 0 0.178785883  0 0 0 1 0"></feColorMatrix>
        </filter>
        <path id="path-15" d="M0,0 L304,0 C286.297834,85.2771602 235.631168,127.91574 152,127.91574 C68.3688322,127.91574 17.7021656,85.2771602 0,0 Z"></path>
        <filter id="filter-16" filterUnits="objectBoundingBox" height="212.6%" width="147.4%" y="-56.3%" x="-23.7%">
            <feOffset result="shadowOffsetOuter1" in="SourceAlpha" dy="0" dx="0"></feOffset>
            <feGaussianBlur result="shadowBlurOuter1" in="shadowOffsetOuter1" stdDeviation="24"></feGaussianBlur>
            <feColorMatrix in="shadowBlurOuter1" type="matrix" values="0 0 0 0 0.888848346   0 0 0 0 0.591702642   0 0 0 0 0.178785883  0 0 0 1 0"></feColorMatrix>
        </filter>
    </defs>
    <g fill-rule="evenodd" fill="none" stroke-width="1" stroke="none" id="上传尺寸">
        <g id="666">
            <rect height="1024" width="1024" y="0" x="0" id="矩形备份-3"></rect>
            <g transform="translate(64.000000, 64.640000)" id="默认">
                <g id="形状结合">
                    <use xlink:href="#path-2" fill-rule="evenodd" fill="url(#radialGradient-1)"></use>
                    <use xlink:href="#path-2" filter="url(#filter-3)" fill-opacity="1" fill="black"></use>
                </g>
                <g fill-rule="nonzero" id="路径-126">
                    <use xlink:href="#path-4" fill="#ED1F2A"></use>
                    <use xlink:href="#path-4" filter="url(#filter-5)" fill-opacity="1" fill="black"></use>
                </g>
                <g id="路径-127">
                    <use xlink:href="#path-7" filter="url(#filter-8)" fill-opacity="1" fill="black"></use>
                    <use xlink:href="#path-7" fill-rule="evenodd" fill="url(#linearGradient-6)"></use>
                    <use xlink:href="#path-7" filter="url(#filter-9)" fill-opacity="1" fill="black"></use>
                </g>
                <g fill-rule="nonzero" fill="#F93A48" transform="translate(444.800000, 0.000000)" id="666">
                    <path id="形状" d="M59.84,79.68 C62.1866667,78.6133333 64.1066667,77.9733333 65.6,77.76 C67.0933333,77.5466667 68.5866667,77.44 70.08,77.44 C81.1733333,77.44 91.0933333,79.3066667 99.84,83.04 C108.586667,86.7733333 116,92 122.08,98.72 C128.16,105.44 132.8,113.493333 136,122.88 C139.2,132.266667 140.8,142.506667 140.8,153.6 C140.8,162.986667 139.2,172.213333 136,181.28 C132.8,190.346667 128.16,198.453333 122.08,205.6 C116,212.746667 108.533333,218.56 99.68,223.04 C90.8266667,227.52 80.8533333,229.76 69.76,229.76 C58.4533333,229.76 48.48,227.68 39.84,223.52 C31.2,219.36 23.9466667,213.76 18.08,206.72 C12.2133333,199.68 7.73333333,191.573333 4.64,182.4 C1.54666667,173.226667 0,163.626667 0,153.6 C0,142.933333 1.17333333,132 3.52,120.8 C5.86666667,109.6 9.17333333,98.56 13.44,87.68 C17.7066667,76.8 22.88,66.4 28.96,56.48 C35.04,46.56 41.92,37.44 49.6,29.12 C59.2,18.88 67.2,11.4666667 73.6,6.88 C80,2.29333333 84.9066667,0 88.32,0 C91.52,0 94.4533333,0.746666667 97.12,2.24 C99.7866667,3.73333333 102.08,5.65333333 104,8 C106.773333,11.4133333 108.213333,15.0933333 108.32,19.04 C108.426667,22.9866667 106.56,26.4533333 102.72,29.44 C94.1866667,35.6266667 86.5066667,42.4 79.68,49.76 C72.8533333,57.12 66.24,67.0933333 59.84,79.68 Z M69.76,193.92 C74.88,193.92 79.4133333,192.746667 83.36,190.4 C87.3066667,188.053333 90.6666667,185.013333 93.44,181.28 C96.2133333,177.546667 98.3466667,173.28 99.84,168.48 C101.333333,163.68 102.08,158.72 102.08,153.6 C102.08,140.586667 99.3066667,130.613333 93.76,123.68 C88.2133333,116.746667 80.32,113.28 70.08,113.28 C59.84,113.28 52.0533333,116.746667 46.72,123.68 C41.3866667,130.613333 38.72,140.586667 38.72,153.6 C38.72,158.72 39.4133333,163.68 40.8,168.48 C42.1866667,173.28 44.2133333,177.546667 46.88,181.28 C49.5466667,185.013333 52.8,188.053333 56.64,190.4 C60.48,192.746667 64.8533333,193.92 69.76,193.92 Z"></path>
                    <path id="形状" d="M226.24,79.68 C228.586667,78.6133333 230.506667,77.9733333 232,77.76 C233.493333,77.5466667 234.986667,77.44 236.48,77.44 C247.573333,77.44 257.493333,79.3066667 266.24,83.04 C274.986667,86.7733333 282.4,92 288.48,98.72 C294.56,105.44 299.2,113.493333 302.4,122.88 C305.6,132.266667 307.2,142.506667 307.2,153.6 C307.2,162.986667 305.6,172.213333 302.4,181.28 C299.2,190.346667 294.56,198.453333 288.48,205.6 C282.4,212.746667 274.933333,218.56 266.08,223.04 C257.226667,227.52 247.253333,229.76 236.16,229.76 C224.853333,229.76 214.88,227.68 206.24,223.52 C197.6,219.36 190.346667,213.76 184.48,206.72 C178.613333,199.68 174.133333,191.573333 171.04,182.4 C167.946667,173.226667 166.4,163.626667 166.4,153.6 C166.4,142.933333 167.573333,132 169.92,120.8 C172.266667,109.6 175.573333,98.56 179.84,87.68 C184.106667,76.8 189.28,66.4 195.36,56.48 C201.44,46.56 208.32,37.44 216,29.12 C225.6,18.88 233.6,11.4666667 240,6.88 C246.4,2.29333333 251.306667,0 254.72,0 C257.92,0 260.853333,0.746666667 263.52,2.24 C266.186667,3.73333333 268.48,5.65333333 270.4,8 C273.173333,11.4133333 274.613333,15.0933333 274.72,19.04 C274.826667,22.9866667 272.96,26.4533333 269.12,29.44 C260.586667,35.6266667 252.906667,42.4 246.08,49.76 C239.253333,57.12 232.64,67.0933333 226.24,79.68 Z M236.16,193.92 C241.28,193.92 245.813333,192.746667 249.76,190.4 C253.706667,188.053333 257.066667,185.013333 259.84,181.28 C262.613333,177.546667 264.746667,173.28 266.24,168.48 C267.733333,163.68 268.48,158.72 268.48,153.6 C268.48,140.586667 265.706667,130.613333 260.16,123.68 C254.613333,116.746667 246.72,113.28 236.48,113.28 C226.24,113.28 218.453333,116.746667 213.12,123.68 C207.786667,130.613333 205.12,140.586667 205.12,153.6 C205.12,158.72 205.813333,163.68 207.2,168.48 C208.586667,173.28 210.613333,177.546667 213.28,181.28 C215.946667,185.013333 219.2,188.053333 223.04,190.4 C226.88,192.746667 231.253333,193.92 236.16,193.92 Z"></path>
                    <path id="形状" d="M392.64,79.68 C394.986667,78.6133333 396.906667,77.9733333 398.4,77.76 C399.893333,77.5466667 401.386667,77.44 402.88,77.44 C413.973333,77.44 423.893333,79.3066667 432.64,83.04 C441.386667,86.7733333 448.8,92 454.88,98.72 C460.96,105.44 465.6,113.493333 468.8,122.88 C472,132.266667 473.6,142.506667 473.6,153.6 C473.6,162.986667 472,172.213333 468.8,181.28 C465.6,190.346667 460.96,198.453333 454.88,205.6 C448.8,212.746667 441.333333,218.56 432.48,223.04 C423.626667,227.52 413.653333,229.76 402.56,229.76 C391.253333,229.76 381.28,227.68 372.64,223.52 C364,219.36 356.746667,213.76 350.88,206.72 C345.013333,199.68 340.533333,191.573333 337.44,182.4 C334.346667,173.226667 332.8,163.626667 332.8,153.6 C332.8,142.933333 333.973333,132 336.32,120.8 C338.666667,109.6 341.973333,98.56 346.24,87.68 C350.506667,76.8 355.68,66.4 361.76,56.48 C367.84,46.56 374.72,37.44 382.4,29.12 C392,18.88 400,11.4666667 406.4,6.88 C412.8,2.29333333 417.706667,0 421.12,0 C424.32,0 427.253333,0.746666667 429.92,2.24 C432.586667,3.73333333 434.88,5.65333333 436.8,8 C439.573333,11.4133333 441.013333,15.0933333 441.12,19.04 C441.226667,22.9866667 439.36,26.4533333 435.52,29.44 C426.986667,35.6266667 419.306667,42.4 412.48,49.76 C405.653333,57.12 399.04,67.0933333 392.64,79.68 Z M402.56,193.92 C407.68,193.92 412.213333,192.746667 416.16,190.4 C420.106667,188.053333 423.466667,185.013333 426.24,181.28 C429.013333,177.546667 431.146667,173.28 432.64,168.48 C434.133333,163.68 434.88,158.72 434.88,153.6 C434.88,140.586667 432.106667,130.613333 426.56,123.68 C421.013333,116.746667 413.12,113.28 402.88,113.28 C392.64,113.28 384.853333,116.746667 379.52,123.68 C374.186667,130.613333 371.52,140.586667 371.52,153.6 C371.52,158.72 372.213333,163.68 373.6,168.48 C374.986667,173.28 377.013333,177.546667 379.68,181.28 C382.346667,185.013333 385.6,188.053333 389.44,190.4 C393.28,192.746667 397.653333,193.92 402.56,193.92 Z"></path>
                </g>
                <ellipse ry="56" rx="88" cy="479.36" cx="680" filter="url(#filter-10)" fill="#FF5EA4" fill-opacity="0.8" id="椭圆形"></ellipse>
                <ellipse ry="56" rx="88" cy="479.36" cx="216" filter="url(#filter-11)" fill="#FF5EA4" fill-opacity="0.8" id="椭圆形备份-6"></ellipse>
                <g transform="translate(80.000000, 351.588854)" id="编组-28">
                    <g id="路径-67">
                        <use xlink:href="#path-13" filter="url(#filter-14)" fill-opacity="1" fill="black"></use>
                        <use xlink:href="#path-13" fill-rule="evenodd" fill="url(#linearGradient-12)"></use>
                    </g>
                    <path fill="#930027" id="形状结合" d="M291.082453,0.000523013804 C294.432257,0.00362670158 297.522363,0.0126741327 300.391995,0.0301336652 C300.528054,1.85503557 300.596534,3.69937748 300.596534,5.55979841 C300.596534,46.3170557 267.730184,79.3573409 227.187485,79.3573409 C186.644787,79.3573409 153.778436,46.3170557 153.778436,5.55979841 C153.778436,3.945054 153.830024,2.3424224 153.931634,0.753478363 C177.991182,0.669742104 201.210399,0.0948002827 225.750401,0.0948002827 L225.750401,0.0948002827 L229.45104,0.0942372851 C253.397768,0.0869699083 271.224223,0.011607338 285.035079,0.00059846709 Z"></path>
                </g>
                <g transform="translate(464.000000, 352.084260)" id="编组-28备份">
                    <g id="路径-67">
                        <use xlink:href="#path-15" filter="url(#filter-16)" fill-opacity="1" fill="black"></use>
                        <use xlink:href="#path-15" fill-rule="evenodd" fill="url(#linearGradient-12)"></use>
                    </g>
                    <path fill="#930027" id="形状结合" d="M290.944305,0.0743496763 C294.543754,0.076853979 297.846401,0.0859076468 300.899485,0.104483342 C301.035558,1.92976548 301.104024,3.77391893 301.104024,5.63414808 C301.104024,46.3914054 268.237673,79.4316906 227.694975,79.4316906 C187.152276,79.4316906 154.285925,46.3914054 154.285925,5.63414808 C154.285925,3.8690192 154.34757,2.11836436 154.468813,0.384240562 C178.528992,0.464383413 201.862366,0.169149959 226.25789,0.169149959 L226.25789,0.169149959 L228.735614,0.168897158 C229.145017,0.168813751 229.552652,0.168710137 229.958529,0.168586961 L232.372773,0.167618322 C255.508102,0.156085362 272.797812,0.0830848452 286.241365,0.0744444766 Z"></path>
                </g>
            </g>
        </g>
    </g>
</svg>