<svg xmlns:xlink="http://www.w3.org/1999/xlink" xmlns="http://www.w3.org/2000/svg" version="1.1" viewBox="0 0 1024 1024" height="1024px" width="1024px">
    <title>苦涩</title>
    <defs>
        <radialGradient id="radialGradient-1" gradientTransform="translate(0.500000,0.196690),scale(0.912281,1.000000),rotate(90.000000),translate(-0.500000,-0.196690)" r="93.9392347%" fy="19.6689915%" fx="50%" cy="19.6689915%" cx="50%">
            <stop offset="0%" stop-color="#FFE476"></stop>
            <stop offset="41.3872668%" stop-color="#FCEC6C"></stop>
            <stop offset="100%" stop-color="#FFB02F"></stop>
        </radialGradient>
        <path id="path-2" d="M422.860526,0.378695283 C542.065472,-5.36663195 644.761001,54.6787561 694.047405,152.068162 C826.943351,211.197291 934.794668,352.582382 907.841115,509.747769 C887.627441,627.613119 823.200132,713.730518 728.885037,766.375369 C682.431467,796.437155 616.2001,817.754861 517.849854,827.528265 C238.3427,855.303857 16.9816436,754.504609 0.821620894,502.216832 C-7.14599909,377.82758 43.4225884,293.954402 126.973967,240.88301 C157.596783,85.8704329 269.83599,7.75402708 422.860526,0.378695283 Z"></path>
        <filter id="filter-3" filterUnits="objectBoundingBox" height="117.3%" width="115.8%" y="-8.7%" x="-7.9%">
            <feGaussianBlur result="shadowBlurInner1" in="SourceAlpha" stdDeviation="64"></feGaussianBlur>
            <feOffset result="shadowOffsetInner1" in="shadowBlurInner1" dy="16" dx="0"></feOffset>
            <feComposite result="shadowInnerInner1" k3="1" k2="-1" operator="arithmetic" in2="SourceAlpha" in="shadowOffsetInner1"></feComposite>
            <feColorMatrix in="shadowInnerInner1" type="matrix" values="0 0 0 0 0.968627451   0 0 0 0 0.68627451   0 0 0 0 0.270588235  0 0 0 0.501145583 0"></feColorMatrix>
        </filter>
        <filter id="filter-4" filterUnits="objectBoundingBox" height="357.1%" width="263.6%" y="-128.6%" x="-81.8%">
            <feGaussianBlur in="SourceGraphic" stdDeviation="48"></feGaussianBlur>
        </filter>
        <path id="path-5" d="M304,544 C312.205373,544 318.968115,550.176938 319.892356,558.134357 L320,560.000295 C320,576.926982 341.890067,589.384362 389.02902,594.263041 L397.878711,595.065869 L407.289338,595.697521 L417.265386,596.153843 L427.811343,596.430681 C429.616744,596.461633 431.446078,596.484934 433.299439,596.500497 L444.582887,596.500214 L455.461277,596.31237 C460.759631,596.172117 465.847213,595.962874 470.726231,595.68691 L480.206833,595.046695 C481.740803,594.92539 483.251764,594.79684 484.739795,594.661129 L493.393494,593.761602 C536.68945,588.677013 558.108046,576.872286 560.084199,560.852844 L560.214827,559.289502 C560.607387,550.46167 568.081991,543.623531 576.909823,544.016091 C585.737655,544.408651 592.575794,551.883255 592.183234,560.711087 C590.411282,600.558484 552.55459,621.310963 482.46477,626.931664 L472.233082,627.632111 C467.008017,627.931295 461.619433,628.154238 456.068734,628.302385 L444.751598,628.500132 L433.210881,628.500132 L422.084486,628.309181 L411.380639,627.924895 L401.102029,627.344783 C394.391966,626.892214 387.967187,626.307435 381.831277,625.587128 L372.844512,624.404605 C317.306139,616.266278 288,595.74672 288,560.000295 C288,551.163739 295.163444,544 304,544 Z"></path>
        <filter id="filter-6" filterUnits="objectBoundingBox" height="118.9%" width="105.3%" y="-9.5%" x="-2.6%">
            <feGaussianBlur result="shadowBlurInner1" in="SourceAlpha" stdDeviation="8"></feGaussianBlur>
            <feOffset result="shadowOffsetInner1" in="shadowBlurInner1" dy="0" dx="0"></feOffset>
            <feComposite result="shadowInnerInner1" k3="1" k2="-1" operator="arithmetic" in2="SourceAlpha" in="shadowOffsetInner1"></feComposite>
            <feColorMatrix in="shadowInnerInner1" type="matrix" values="0 0 0 0 0.661258421   0 0 0 0 0.0872254633   0 0 0 0 0.00982776113  0 0 0 1 0"></feColorMatrix>
        </filter>
        <filter id="filter-7" filterUnits="objectBoundingBox" height="357.1%" width="263.6%" y="-128.6%" x="-81.8%">
            <feGaussianBlur in="SourceGraphic" stdDeviation="48"></feGaussianBlur>
        </filter>
        <linearGradient id="linearGradient-8" y2="100%" x2="50%" y1="0%" x1="50%">
            <stop offset="0%" stop-color="#FFFFFF"></stop>
            <stop offset="100%" stop-color="#FFEDBE"></stop>
        </linearGradient>
        <path id="path-9" d="M136,160 C211.110726,160 272,145.997461 272,80 C272,14.002539 211.110726,0 136,0 C60.889274,0 0,14.002539 0,80 C0,145.997461 60.889274,160 136,160 Z"></path>
        <filter id="filter-10" filterUnits="objectBoundingBox" height="220.0%" width="170.6%" y="-60.0%" x="-35.3%">
            <feOffset result="shadowOffsetOuter1" in="SourceAlpha" dy="0" dx="0"></feOffset>
            <feGaussianBlur result="shadowBlurOuter1" in="shadowOffsetOuter1" stdDeviation="32"></feGaussianBlur>
            <feColorMatrix in="shadowBlurOuter1" type="matrix" values="0 0 0 0 0.888848346   0 0 0 0 0.591702642   0 0 0 0 0.178785883  0 0 0 1 0"></feColorMatrix>
        </filter>
        <filter id="filter-11" filterUnits="objectBoundingBox" height="200.0%" width="158.8%" y="-50.0%" x="-29.4%">
            <feGaussianBlur result="shadowBlurInner1" in="SourceAlpha" stdDeviation="16"></feGaussianBlur>
            <feOffset result="shadowOffsetInner1" in="shadowBlurInner1" dy="0" dx="0"></feOffset>
            <feComposite result="shadowInnerInner1" k3="1" k2="-1" operator="arithmetic" in2="SourceAlpha" in="shadowOffsetInner1"></feComposite>
            <feColorMatrix in="shadowInnerInner1" type="matrix" values="0 0 0 0 1   0 0 0 0 0.880587925   0 0 0 0 0.537254902  0 0 0 0.500726446 0"></feColorMatrix>
        </filter>
        <circle r="56" cy="58" cx="56" id="path-12"></circle>
        <filter id="filter-13" filterUnits="objectBoundingBox" height="128.6%" width="128.6%" y="-14.3%" x="-14.3%">
            <feGaussianBlur result="shadowBlurInner1" in="SourceAlpha" stdDeviation="16"></feGaussianBlur>
            <feOffset result="shadowOffsetInner1" in="shadowBlurInner1" dy="0" dx="0"></feOffset>
            <feComposite result="shadowInnerInner1" k3="1" k2="-1" operator="arithmetic" in2="SourceAlpha" in="shadowOffsetInner1"></feComposite>
            <feColorMatrix in="shadowInnerInner1" type="matrix" values="0 0 0 0 0.322660142   0 0 0 0 0   0 0 0 0 0.0976114716  0 0 0 1 0"></feColorMatrix>
        </filter>
        <path id="path-14" d="M136,160 C211.110726,160 272,145.997461 272,80 C272,14.002539 211.110726,0 136,0 C60.889274,0 0,14.002539 0,80 C0,145.997461 60.889274,160 136,160 Z"></path>
        <filter id="filter-15" filterUnits="objectBoundingBox" height="220.0%" width="170.6%" y="-60.0%" x="-35.3%">
            <feOffset result="shadowOffsetOuter1" in="SourceAlpha" dy="0" dx="0"></feOffset>
            <feGaussianBlur result="shadowBlurOuter1" in="shadowOffsetOuter1" stdDeviation="32"></feGaussianBlur>
            <feColorMatrix in="shadowBlurOuter1" type="matrix" values="0 0 0 0 0.888848346   0 0 0 0 0.591702642   0 0 0 0 0.178785883  0 0 0 1 0"></feColorMatrix>
        </filter>
        <filter id="filter-16" filterUnits="objectBoundingBox" height="200.0%" width="158.8%" y="-50.0%" x="-29.4%">
            <feGaussianBlur result="shadowBlurInner1" in="SourceAlpha" stdDeviation="16"></feGaussianBlur>
            <feOffset result="shadowOffsetInner1" in="shadowBlurInner1" dy="0" dx="0"></feOffset>
            <feComposite result="shadowInnerInner1" k3="1" k2="-1" operator="arithmetic" in2="SourceAlpha" in="shadowOffsetInner1"></feComposite>
            <feColorMatrix in="shadowInnerInner1" type="matrix" values="0 0 0 0 1   0 0 0 0 0.880587925   0 0 0 0 0.537254902  0 0 0 0.500726446 0"></feColorMatrix>
        </filter>
        <circle r="56" cy="56" cx="56" id="path-17"></circle>
        <filter id="filter-18" filterUnits="objectBoundingBox" height="128.6%" width="128.6%" y="-14.3%" x="-14.3%">
            <feGaussianBlur result="shadowBlurInner1" in="SourceAlpha" stdDeviation="16"></feGaussianBlur>
            <feOffset result="shadowOffsetInner1" in="shadowBlurInner1" dy="0" dx="0"></feOffset>
            <feComposite result="shadowInnerInner1" k3="1" k2="-1" operator="arithmetic" in2="SourceAlpha" in="shadowOffsetInner1"></feComposite>
            <feColorMatrix in="shadowInnerInner1" type="matrix" values="0 0 0 0 0.322660142   0 0 0 0 0   0 0 0 0 0.0976114716  0 0 0 1 0"></feColorMatrix>
        </filter>
        <linearGradient id="linearGradient-19" y2="66.0819342%" x2="50%" y1="-1.42108547e-12%" x1="50%">
            <stop offset="0%" stop-color="#277DFF"></stop>
            <stop offset="100%" stop-color="#D4E5FF"></stop>
        </linearGradient>
        <path id="path-20" d="M642,552.383633 L642,912.402461 C656.296053,909.579161 666.099721,907.487997 671.411007,906.128968 C689.253047,901.563623 698,898.073421 698,898.073421 C698,898.073421 698,782.098963 698,550.150047 C685.737443,551.383674 676.404109,552.128203 670,552.383633 C663.595891,552.639064 654.262557,552.639064 642,552.383633 Z"></path>
        <filter id="filter-21" filterUnits="objectBoundingBox" height="144.2%" width="385.7%" y="-22.1%" x="-171.4%">
            <feOffset result="shadowOffsetOuter1" in="SourceAlpha" dy="0" dx="-16"></feOffset>
            <feGaussianBlur result="shadowBlurOuter1" in="shadowOffsetOuter1" stdDeviation="24"></feGaussianBlur>
            <feColorMatrix in="shadowBlurOuter1" type="matrix" values="0 0 0 0 0.878115889   0 0 0 0 0.702527   0 0 0 0 0.225928589  0 0 0 1 0"></feColorMatrix>
        </filter>
        <linearGradient id="linearGradient-22" y2="66.0819342%" x2="50%" y1="-1.42108547e-12%" x1="50%">
            <stop offset="0%" stop-color="#277DFF"></stop>
            <stop offset="100%" stop-color="#D4E5FF"></stop>
        </linearGradient>
        <path id="path-23" d="M290,552.383633 L290,901.44401 C303.882207,905.596207 313.505919,908.335237 318.871134,909.6611 C336.417631,913.997228 346,915.282849 346,915.282849 C346,915.282849 346,793.571915 346,550.150047 C333.737443,551.383674 324.404109,552.128203 318,552.383633 C311.595891,552.639064 302.262557,552.639064 290,552.383633 Z"></path>
        <filter id="filter-24" filterUnits="objectBoundingBox" height="143.8%" width="385.7%" y="-21.9%" x="-171.4%">
            <feOffset result="shadowOffsetOuter1" in="SourceAlpha" dy="0" dx="-16"></feOffset>
            <feGaussianBlur result="shadowBlurOuter1" in="shadowOffsetOuter1" stdDeviation="24"></feGaussianBlur>
            <feColorMatrix in="shadowBlurOuter1" type="matrix" values="0 0 0 0 0.878115889   0 0 0 0 0.702527   0 0 0 0 0.225928589  0 0 0 1 0"></feColorMatrix>
        </filter>
    </defs>
    <g fill-rule="evenodd" fill="none" stroke-width="1" stroke="none" id="上传尺寸">
        <g id="苦涩">
            <rect height="1024" width="1024" y="0" x="0" id="矩形备份-3"></rect>
            <g transform="translate(48.000000, 96.000000)" id="默认">
                <g id="形状结合">
                    <use xlink:href="#path-2" fill-rule="evenodd" fill="url(#radialGradient-1)"></use>
                    <use xlink:href="#path-2" filter="url(#filter-3)" fill-opacity="1" fill="black"></use>
                </g>
                <ellipse ry="56" rx="88" cy="464" cx="696" filter="url(#filter-4)" fill="#FF5EA4" fill-opacity="0.8" id="椭圆形"></ellipse>
                <g fill-rule="nonzero" id="路径-126">
                    <use xlink:href="#path-5" fill="#ED1F2A"></use>
                    <use xlink:href="#path-5" filter="url(#filter-6)" fill-opacity="1" fill="black"></use>
                </g>
                <ellipse ry="56" rx="88" cy="464" cx="216" filter="url(#filter-7)" fill="#FF5EA4" fill-opacity="0.8" id="椭圆形备份-6"></ellipse>
            </g>
            <g transform="translate(184.000000, 392.383633)" id="编组-2备份-2">
                <g id="椭圆形">
                    <use xlink:href="#path-9" filter="url(#filter-10)" fill-opacity="1" fill="black"></use>
                    <use xlink:href="#path-9" fill-rule="evenodd" fill="url(#linearGradient-8)"></use>
                    <use xlink:href="#path-9" filter="url(#filter-11)" fill-opacity="1" fill="black"></use>
                </g>
                <g transform="translate(80.000000, 30.000000)" id="编组-8">
                    <g id="椭圆形">
                        <use xlink:href="#path-12" fill-rule="evenodd" fill="#930027"></use>
                        <use xlink:href="#path-12" filter="url(#filter-13)" fill-opacity="1" fill="black"></use>
                    </g>
                    <circle r="28" cy="42" cx="56" fill="#301502" id="椭圆形"></circle>
                    <circle r="21" cy="21" cx="77" fill="#FFFFFF" id="椭圆形"></circle>
                    <circle r="14" cy="56" cx="42" fill="#FFFFFF" id="椭圆形备份-5"></circle>
                </g>
            </g>
            <g transform="translate(536.000000, 392.383633)" id="编组-2备份-4">
                <g id="椭圆形">
                    <use xlink:href="#path-14" filter="url(#filter-15)" fill-opacity="1" fill="black"></use>
                    <use xlink:href="#path-14" fill-rule="evenodd" fill="url(#linearGradient-8)"></use>
                    <use xlink:href="#path-14" filter="url(#filter-16)" fill-opacity="1" fill="black"></use>
                </g>
                <g transform="translate(80.000000, 32.000000)" id="编组-8">
                    <g id="椭圆形">
                        <use xlink:href="#path-17" fill-rule="evenodd" fill="#930027"></use>
                        <use xlink:href="#path-17" filter="url(#filter-18)" fill-opacity="1" fill="black"></use>
                    </g>
                    <circle r="28" cy="56" cx="56" fill="#301502" id="椭圆形"></circle>
                    <circle r="21" cy="35" cx="77" fill="#FFFFFF" id="椭圆形"></circle>
                    <circle r="14" cy="70" cx="42" fill="#FFFFFF" id="椭圆形备份-5"></circle>
                </g>
            </g>
            <g id="路径-132">
                <use xlink:href="#path-20" filter="url(#filter-21)" fill-opacity="1" fill="black"></use>
                <use xlink:href="#path-20" fill-rule="evenodd" fill="url(#linearGradient-19)"></use>
            </g>
            <g id="路径-132备份">
                <use xlink:href="#path-23" filter="url(#filter-24)" fill-opacity="1" fill="black"></use>
                <use xlink:href="#path-23" fill-rule="evenodd" fill="url(#linearGradient-22)"></use>
            </g>
        </g>
    </g>
</svg>