<svg xmlns:xlink="http://www.w3.org/1999/xlink" xmlns="http://www.w3.org/2000/svg" version="1.1" viewBox="0 0 1024 1024" height="1024px" width="1024px">
    <title>无语</title>
    <defs>
        <radialGradient id="radialGradient-1" gradientTransform="translate(0.500000,0.196690),scale(0.912281,1.000000),rotate(90.000000),translate(-0.500000,-0.196690)" r="93.9392347%" fy="19.6689915%" fx="50%" cy="19.6689915%" cx="50%">
            <stop offset="0%" stop-color="#FFE476"></stop>
            <stop offset="41.3872668%" stop-color="#FCEC6C"></stop>
            <stop offset="100%" stop-color="#FFB02F"></stop>
        </radialGradient>
        <path id="path-2" d="M422.860526,0.378695283 C542.065472,-5.36663195 644.761001,54.6787561 694.047405,152.068162 C826.943351,211.197291 934.794668,352.582382 907.841115,509.747769 C887.627441,627.613119 823.200132,713.730518 728.885037,766.375369 C682.431467,796.437155 616.2001,817.754861 517.849854,827.528265 C238.3427,855.303857 16.9816436,754.504609 0.821620894,502.216832 C-7.14599909,377.82758 43.4225884,293.954402 126.973967,240.88301 C157.596783,85.8704329 269.83599,7.75402708 422.860526,0.378695283 Z"></path>
        <filter id="filter-4" filterUnits="objectBoundingBox" height="117.3%" width="115.8%" y="-8.7%" x="-7.9%">
            <feGaussianBlur result="shadowBlurInner1" in="SourceAlpha" stdDeviation="64"></feGaussianBlur>
            <feOffset result="shadowOffsetInner1" in="shadowBlurInner1" dy="16" dx="0"></feOffset>
            <feComposite result="shadowInnerInner1" k3="1" k2="-1" operator="arithmetic" in2="SourceAlpha" in="shadowOffsetInner1"></feComposite>
            <feColorMatrix in="shadowInnerInner1" type="matrix" values="0 0 0 0 0.968627451   0 0 0 0 0.68627451   0 0 0 0 0.270588235  0 0 0 0.501145583 0"></feColorMatrix>
        </filter>
        <filter id="filter-5" filterUnits="objectBoundingBox" height="280.0%" width="263.6%" y="-90.0%" x="-81.8%">
            <feGaussianBlur in="SourceGraphic" stdDeviation="48"></feGaussianBlur>
        </filter>
        <filter id="filter-6" filterUnits="objectBoundingBox" height="280.0%" width="263.6%" y="-90.0%" x="-81.8%">
            <feGaussianBlur in="SourceGraphic" stdDeviation="48"></feGaussianBlur>
        </filter>
        <path id="path-7" d="M504.579828,617.543556 C508.755495,624.310801 516.818851,625.798635 522.621587,620.871186 C528.440958,615.761012 529.722587,606.526033 525.558953,599.705547 C490.166579,542.335948 422.866353,551.646909 387.272395,598.857641 C382.528078,605.190295 382.993157,614.519501 388.33791,620.231257 C390.866849,622.877527 394.274707,624.231677 397.740478,623.96747 C401.206249,623.703264 404.41571,621.844655 406.595652,618.839412 C432.326398,584.715219 480.231372,578.07596 504.579828,617.559555 L504.579828,617.543556 Z"></path>
        <filter id="filter-8" filterUnits="objectBoundingBox" height="125.0%" width="111.1%" y="-12.5%" x="-5.6%">
            <feGaussianBlur result="shadowBlurInner1" in="SourceAlpha" stdDeviation="8"></feGaussianBlur>
            <feOffset result="shadowOffsetInner1" in="shadowBlurInner1" dy="0" dx="0"></feOffset>
            <feComposite result="shadowInnerInner1" k3="1" k2="-1" operator="arithmetic" in2="SourceAlpha" in="shadowOffsetInner1"></feComposite>
            <feColorMatrix in="shadowInnerInner1" type="matrix" values="0 0 0 0 0.661258421   0 0 0 0 0.0872254633   0 0 0 0 0.00982776113  0 0 0 1 0"></feColorMatrix>
        </filter>
        <path id="path-9" d="M324.8,464 C304.475921,464 288,446.09139 288,424 C288,401.90861 304.475921,384 324.8,384 C345.124079,384 361.6,401.90861 361.6,424 C361.6,446.09139 345.124079,464 324.8,464 Z M619.2,464 C598.875921,464 582.4,446.09139 582.4,424 C582.4,401.90861 598.875921,384 619.2,384 C639.524079,384 656,401.90861 656,424 C656,446.09139 639.524079,464 619.2,464 L619.2,464 Z"></path>
        <filter id="filter-10" filterUnits="objectBoundingBox" height="180.0%" width="117.4%" y="-40.0%" x="-8.7%">
            <feGaussianBlur result="shadowBlurInner1" in="SourceAlpha" stdDeviation="16"></feGaussianBlur>
            <feOffset result="shadowOffsetInner1" in="shadowBlurInner1" dy="32" dx="0"></feOffset>
            <feComposite result="shadowInnerInner1" k3="1" k2="-1" operator="arithmetic" in2="SourceAlpha" in="shadowOffsetInner1"></feComposite>
            <feColorMatrix in="shadowInnerInner1" type="matrix" values="0 0 0 0 0.188235294   0 0 0 0 0.0823529412   0 0 0 0 0.00784313725  0 0 0 0.80111673 0"></feColorMatrix>
        </filter>
    </defs>
    <g fill-rule="evenodd" fill="none" stroke-width="1" stroke="none" id="上传尺寸">
        <g id="无语">
            <rect height="1024" width="1024" y="0" x="0" id="矩形备份-7"></rect>
            <g transform="translate(64.000000, 80.000000)" id="路径-86-+-路径-86备份-蒙版">
                <mask fill="white" id="mask-3">
                    <use xlink:href="#path-2"></use>
                </mask>
                <g id="蒙版">
                    <use xlink:href="#path-2" fill-rule="evenodd" fill="url(#radialGradient-1)"></use>
                    <use xlink:href="#path-2" filter="url(#filter-4)" fill-opacity="1" fill="black"></use>
                </g>
                <ellipse ry="80" rx="88" cy="528" cx="750.530858" mask="url(#mask-3)" filter="url(#filter-5)" fill="#FF5EA4" fill-opacity="0.8" id="椭圆形"></ellipse>
                <ellipse ry="80" rx="88" cy="544" cx="158.530858" mask="url(#mask-3)" filter="url(#filter-6)" fill="#FF5EA4" fill-opacity="0.8" id="椭圆形备份-6"></ellipse>
                <g mask="url(#mask-3)" fill-rule="nonzero" id="路径">
                    <use xlink:href="#path-7" fill="#ED1F2A"></use>
                    <use xlink:href="#path-7" filter="url(#filter-8)" fill-opacity="1" fill="black"></use>
                </g>
                <g mask="url(#mask-3)" fill-rule="nonzero" id="形状">
                    <use xlink:href="#path-9" fill="#833B0A"></use>
                    <use xlink:href="#path-9" filter="url(#filter-10)" fill-opacity="1" fill="black"></use>
                </g>
                <path mask="url(#mask-3)" fill-rule="nonzero" fill="#833B0A" id="形状" d="M366.545455,384 L206.545454,384 C198.512222,384 192,391.163444 192,400 C192,408.836556 198.512222,416 206.545454,416 L366.545455,416 C374.578687,416 381.090909,408.836556 381.090909,400 C381.090909,391.163444 374.578687,384 366.545455,384 Z M657.454546,384 L497.454545,384 C489.421313,384 482.909091,391.163444 482.909091,400 C482.909091,408.836556 489.421313,416 497.454545,416 L657.454546,416 C665.487778,416 672,408.836556 672,400 C672,391.163444 665.487778,384 657.454546,384 L657.454546,384 Z"></path>
                <path mask="url(#mask-3)" fill-rule="nonzero" fill="#A05400" id="形状" d="M325.512004,274.190511 C324.740972,277.310465 322.856655,279.969844 320.274606,281.582167 C317.692558,283.194489 314.624869,283.627318 311.748068,282.7852 C276.440578,272.520222 215.55012,294.542088 179.000883,332.601968 C176.111922,335.61462 171.959625,336.727832 168.108123,335.522269 C164.25662,334.316706 161.291047,330.975522 160.328506,326.757307 C159.365965,322.539093 160.552689,318.084696 163.44165,315.072045 C205.28701,271.482373 274.016928,246.638854 317.58278,259.30386 C320.457827,260.139791 322.908612,262.179754 324.395723,264.97476 C325.882834,267.769765 326.284388,271.090733 325.512004,274.206727 L325.512004,274.190511 Z M578.663712,272.941849 C579.636366,279.572623 585.382099,284.094781 591.500079,283.044663 C636.382481,275.325659 689.717735,295.369124 715.97394,331.369522 C719.81606,336.640168 726.872591,337.536819 731.735144,333.372247 C736.597697,329.207675 737.424922,321.55892 733.582803,316.288274 C702.075356,273.087796 640.571505,249.979432 587.984291,259.028181 C581.866921,260.082466 577.694903,266.310413 578.663712,272.941849 Z"></path>
            </g>
        </g>
    </g>
</svg>