<svg xmlns:xlink="http://www.w3.org/1999/xlink" xmlns="http://www.w3.org/2000/svg" version="1.1" viewBox="0 0 1024 1024" height="1024px" width="1024px">
    <title>翻白眼</title>
    <defs>
        <radialGradient id="radialGradient-1" gradientTransform="translate(0.500000,0.196690),scale(0.912281,1.000000),rotate(90.000000),translate(-0.500000,-0.196690)" r="93.9392347%" fy="19.6689915%" fx="50%" cy="19.6689915%" cx="50%">
            <stop offset="0%" stop-color="#FFE476"></stop>
            <stop offset="41.3872668%" stop-color="#FCEC6C"></stop>
            <stop offset="100%" stop-color="#FFB02F"></stop>
        </radialGradient>
        <path id="path-2" d="M422.860526,0.378695283 C542.065472,-5.36663195 644.761001,54.6787561 694.047405,152.068162 C826.943351,211.197291 934.794668,352.582382 907.841115,509.747769 C887.627441,627.613119 823.200132,713.730518 728.885037,766.375369 C682.431467,796.437155 616.2001,817.754861 517.849854,827.528265 C238.3427,855.303857 16.9816436,754.504609 0.821620894,502.216832 C-7.14599909,377.82758 43.4225884,293.954402 126.973967,240.88301 C157.596783,85.8704329 269.83599,7.75402708 422.860526,0.378695283 Z"></path>
        <filter id="filter-3" filterUnits="objectBoundingBox" height="117.3%" width="115.8%" y="-8.7%" x="-7.9%">
            <feGaussianBlur result="shadowBlurInner1" in="SourceAlpha" stdDeviation="64"></feGaussianBlur>
            <feOffset result="shadowOffsetInner1" in="shadowBlurInner1" dy="16" dx="0"></feOffset>
            <feComposite result="shadowInnerInner1" k3="1" k2="-1" operator="arithmetic" in2="SourceAlpha" in="shadowOffsetInner1"></feComposite>
            <feColorMatrix in="shadowInnerInner1" type="matrix" values="0 0 0 0 0.968627451   0 0 0 0 0.68627451   0 0 0 0 0.270588235  0 0 0 0.501145583 0"></feColorMatrix>
        </filter>
        <filter id="filter-4" filterUnits="objectBoundingBox" height="280.0%" width="263.6%" y="-90.0%" x="-81.8%">
            <feGaussianBlur in="SourceGraphic" stdDeviation="48"></feGaussianBlur>
        </filter>
        <filter id="filter-5" filterUnits="objectBoundingBox" height="280.0%" width="263.6%" y="-90.0%" x="-81.8%">
            <feGaussianBlur in="SourceGraphic" stdDeviation="48"></feGaussianBlur>
        </filter>
        <path id="path-6" d="M543.697224,560 C552.53378,560 559.697224,567.163444 559.697224,576 C559.697224,584.205373 553.520581,590.968115 545.563162,591.892356 L543.697224,592 L390.530858,592 C381.694302,592 374.530858,584.836556 374.530858,576 C374.530858,567.794627 380.707501,561.031885 388.66492,560.107644 L390.530858,560 L543.697224,560 Z"></path>
        <filter id="filter-7" filterUnits="objectBoundingBox" height="150.0%" width="108.6%" y="-25.0%" x="-4.3%">
            <feGaussianBlur result="shadowBlurInner1" in="SourceAlpha" stdDeviation="8"></feGaussianBlur>
            <feOffset result="shadowOffsetInner1" in="shadowBlurInner1" dy="0" dx="0"></feOffset>
            <feComposite result="shadowInnerInner1" k3="1" k2="-1" operator="arithmetic" in2="SourceAlpha" in="shadowOffsetInner1"></feComposite>
            <feColorMatrix in="shadowInnerInner1" type="matrix" values="0 0 0 0 0.661258421   0 0 0 0 0.0872254633   0 0 0 0 0.00982776113  0 0 0 1 0"></feColorMatrix>
        </filter>
        <linearGradient id="linearGradient-8" y2="100%" x2="50%" y1="0%" x1="50%">
            <stop offset="0%" stop-color="#FFFFFF"></stop>
            <stop offset="100%" stop-color="#FFEDBE"></stop>
        </linearGradient>
        <path id="path-9" d="M25.2564826,232.119037 L36.9459401,230.02205 L36.9459401,230.02205 L60.7594949,225.904359 L60.7594949,225.904359 L83.5284577,222.128432 L83.5284577,222.128432 L112.183793,217.630304 L112.183793,217.630304 L132.339062,214.662645 L132.339062,214.662645 L151.298614,212.046025 L151.298614,212.046025 L169.017112,209.783224 L169.017112,209.783224 L180.11758,208.472631 L180.11758,208.472631 L190.632886,207.321352 L190.632886,207.321352 L200.549595,206.330211 L200.549595,206.330211 L209.854275,205.500033 L209.854275,205.500033 L218.533492,204.831643 L218.533492,204.831643 L226.573812,204.325863 L226.573812,204.325863 L233.961804,203.98352 L233.961804,203.98352 L240.684032,203.805437 L240.684032,203.805437 L246.727064,203.792439 L246.727064,203.792439 L251.242018,203.881181 L251.242018,203.881181 L255.465956,203.865969 L255.465956,203.865969 L266.791636,203.527904 C274.912971,203.198644 281.496986,196.832677 282.099471,188.727029 L282.501281,182.868002 C282.567621,181.826557 282.633638,180.75264 282.699321,179.646252 C282.926108,175.826177 282.860018,171.630762 282.487939,167.145628 L281.89373,161.629882 C274.961282,108.953932 228.987542,24.2318035 125.549227,27.7562906 C86.351808,29.0918769 56.0449992,49.4794048 40.8083664,63.9708417 L37.3167464,67.4564282 L37.3167464,67.4564282 L34.4745071,70.6097191 L34.4745071,70.6097191 L32.3031056,73.3440893 L32.3031056,73.3440893 C1.85439863,114.901268 -7.06873659,162.06571 5.53369992,214.837416 L6.98469585,220.508065 C9.13492395,228.536807 17.0745795,233.582133 25.2564826,232.119037 Z"></path>
        <filter id="filter-10" filterUnits="objectBoundingBox" height="193.8%" width="167.9%" y="-46.9%" x="-33.9%">
            <feOffset result="shadowOffsetOuter1" in="SourceAlpha" dy="0" dx="0"></feOffset>
            <feGaussianBlur result="shadowBlurOuter1" in="shadowOffsetOuter1" stdDeviation="32"></feGaussianBlur>
            <feColorMatrix in="shadowBlurOuter1" type="matrix" values="0 0 0 0 0.888848346   0 0 0 0 0.591702642   0 0 0 0 0.178785883  0 0 0 1 0"></feColorMatrix>
        </filter>
        <path id="path-11" d="M114.295393,33.0697209 C146.431175,20.1176523 175.897838,18.6614025 201.801347,24.2237595 C202.726442,27.0089514 203.370927,30.0229634 203.713077,33.2783049 C206.945928,64.0368244 189.830206,86.9522203 152.070265,99.7395981 C117.626688,111.403891 75.4729471,94.5238208 65.8804398,68.1236481 C77.474301,54.7644711 93.4412057,41.4748331 114.295393,33.0697209 Z"></path>
        <filter id="filter-12" filterUnits="objectBoundingBox" height="138.9%" width="123.2%" y="-19.4%" x="-11.6%">
            <feGaussianBlur result="shadowBlurInner1" in="SourceAlpha" stdDeviation="16"></feGaussianBlur>
            <feOffset result="shadowOffsetInner1" in="shadowBlurInner1" dy="0" dx="0"></feOffset>
            <feComposite result="shadowInnerInner1" k3="1" k2="-1" operator="arithmetic" in2="SourceAlpha" in="shadowOffsetInner1"></feComposite>
            <feColorMatrix in="shadowInnerInner1" type="matrix" values="0 0 0 0 0.322660142   0 0 0 0 0   0 0 0 0 0.0976114716  0 0 0 1 0"></feColorMatrix>
        </filter>
        <linearGradient id="linearGradient-13" y2="100%" x2="50%" y1="0%" x1="50%">
            <stop offset="0%" stop-color="#FFFFFF"></stop>
            <stop offset="100%" stop-color="#FFEDBE"></stop>
        </linearGradient>
        <path id="path-14" d="M255.476065,232.344327 L235.869919,228.150174 L235.869919,228.150174 L212.553562,223.32943 L212.553562,223.32943 L190.284304,218.888151 L190.284304,218.888151 L176.042181,216.140267 L176.042181,216.140267 L162.298927,213.564266 L162.298927,213.564266 L142.648728,210.025374 L142.648728,210.025374 L124.196337,206.880489 L124.196337,206.880489 L106.986967,204.133975 L106.986967,204.133975 L91.0658312,201.790194 L91.0658312,201.790194 L81.1897532,200.453569 L81.1897532,200.453569 L71.9197145,199.299169 L71.9197145,199.299169 L63.2691113,198.328285 L63.2691113,198.328285 L55.25134,197.542211 L55.25134,197.542211 L47.8797971,196.942239 C46.7058032,196.857824 45.5592936,196.781217 44.4405476,196.712445 L38.0634652,196.39405 L38.0634652,196.39405 L28.6225963,196.17332 L28.6225963,196.17332 L23.9244339,195.939758 L23.9244339,195.939758 L15.0872093,195.323363 L15.0872093,195.323363 L15.0858648,195.341155 C6.98096747,194.728666 0.623132538,188.136798 0.303897942,180.015062 L0.0213275229,170.918881 L0.0213275229,170.918881 C-1.15462841,122.715543 46.2177354,16.5820856 162.376574,24.6059065 C201.503503,27.3086494 231.080335,48.7414502 245.801942,63.7558101 L249.16979,67.361129 C250.187198,68.5086271 251.098375,69.5969992 251.90025,70.6116917 L253.9749,73.4201771 L253.9749,73.4201771 C282.954734,116.014684 290.226418,163.461808 275.789953,215.761548 L274.141938,221.378104 C271.712821,229.326914 263.601923,234.092076 255.476065,232.344327 Z"></path>
        <filter id="filter-15" filterUnits="objectBoundingBox" height="192.1%" width="167.8%" y="-46.0%" x="-33.9%">
            <feOffset result="shadowOffsetOuter1" in="SourceAlpha" dy="0" dx="0"></feOffset>
            <feGaussianBlur result="shadowBlurOuter1" in="shadowOffsetOuter1" stdDeviation="32"></feGaussianBlur>
            <feColorMatrix in="shadowBlurOuter1" type="matrix" values="0 0 0 0 0.888848346   0 0 0 0 0.591702642   0 0 0 0 0.178785883  0 0 0 1 0"></feColorMatrix>
        </filter>
        <path id="path-16" d="M120.084993,31.4750772 C155.315264,17.2757998 187.337624,16.8928977 214.974101,24.4272274 C215.333228,26.0569675 215.607782,27.7517793 215.793377,29.5175995 C219.026228,60.276119 201.910505,83.191515 164.150564,95.9788927 C128.198128,108.15416 83.8452167,89.2294169 76.8909341,60.8402189 C87.9109784,49.4835325 102.200817,38.6831502 120.084993,31.4750772 Z"></path>
        <filter id="filter-17" filterUnits="objectBoundingBox" height="139.9%" width="123.0%" y="-20.0%" x="-11.5%">
            <feGaussianBlur result="shadowBlurInner1" in="SourceAlpha" stdDeviation="16"></feGaussianBlur>
            <feOffset result="shadowOffsetInner1" in="shadowBlurInner1" dy="0" dx="0"></feOffset>
            <feComposite result="shadowInnerInner1" k3="1" k2="-1" operator="arithmetic" in2="SourceAlpha" in="shadowOffsetInner1"></feComposite>
            <feColorMatrix in="shadowInnerInner1" type="matrix" values="0 0 0 0 0.322660142   0 0 0 0 0   0 0 0 0 0.0976114716  0 0 0 1 0"></feColorMatrix>
        </filter>
    </defs>
    <g fill-rule="evenodd" fill="none" stroke-width="1" stroke="none" id="上传尺寸">
        <g id="翻白眼">
            <rect height="1024" width="1024" y="0" x="0" id="矩形备份-7"></rect>
            <g transform="translate(57.469142, 96.000000)" id="默认">
                <g id="形状结合">
                    <use xlink:href="#path-2" fill-rule="evenodd" fill="url(#radialGradient-1)"></use>
                    <use xlink:href="#path-2" filter="url(#filter-3)" fill-opacity="1" fill="black"></use>
                </g>
                <ellipse ry="80" rx="88" cy="448" cx="686.530858" filter="url(#filter-4)" fill="#FF5EA4" fill-opacity="0.8" id="椭圆形"></ellipse>
                <ellipse ry="80" rx="88" cy="448" cx="206.530858" filter="url(#filter-5)" fill="#FF5EA4" fill-opacity="0.8" id="椭圆形备份-6"></ellipse>
                <g fill-rule="nonzero" id="路径-143">
                    <use xlink:href="#path-6" fill="#ED1F2A"></use>
                    <use xlink:href="#path-6" filter="url(#filter-7)" fill-opacity="1" fill="black"></use>
                </g>
                <g transform="translate(135.191237, 216.622110)" id="编组-21">
                    <g id="路径-47">
                        <use xlink:href="#path-9" filter="url(#filter-10)" fill-opacity="1" fill="black"></use>
                        <use xlink:href="#path-9" fill-rule="evenodd" fill="url(#linearGradient-8)"></use>
                    </g>
                    <g transform="translate(134.989290, 62.324838) rotate(20.000000) translate(-134.989290, -62.324838)" id="形状结合">
                        <use xlink:href="#path-11" fill-rule="evenodd" fill="#930027"></use>
                        <use xlink:href="#path-11" filter="url(#filter-12)" fill-opacity="1" fill="black"></use>
                    </g>
                </g>
                <g transform="translate(503.597658, 207.203461)" id="编组-20备份">
                    <g id="路径-47">
                        <use xlink:href="#path-14" filter="url(#filter-15)" fill-opacity="1" fill="black"></use>
                        <use xlink:href="#path-14" fill-rule="evenodd" fill="url(#linearGradient-13)"></use>
                    </g>
                    <g transform="translate(146.534687, 59.647163) scale(-1, 1) rotate(18.000000) translate(-146.534687, -59.647163)" id="形状结合">
                        <use xlink:href="#path-16" fill-rule="evenodd" fill="#930027"></use>
                        <use xlink:href="#path-16" filter="url(#filter-17)" fill-opacity="1" fill="black"></use>
                    </g>
                </g>
            </g>
        </g>
    </g>
</svg>