<svg xmlns:xlink="http://www.w3.org/1999/xlink" xmlns="http://www.w3.org/2000/svg" version="1.1" viewBox="0 0 1024 1030" height="1030px" width="1024px">
    <title>嘿哈</title>
    <defs>
        <linearGradient id="linearGradient-1" y2="113.608226%" x2="50%" y1="19.6689915%" x1="50%">
            <stop offset="0%" stop-color="#FFE992"></stop>
            <stop offset="41.5154304%" stop-color="#FFF185"></stop>
            <stop offset="100%" stop-color="#FFB02F"></stop>
        </linearGradient>
        <path id="path-2" d="M873.30005,286.808636 L860.236252,302.358549 L860.236252,302.358549 L847.590666,317.629207 L847.590666,317.629207 L835.363292,332.62061 C833.360247,335.095906 831.374628,337.559566 829.406434,340.011591 L817.806378,354.584111 L817.806378,354.584111 L806.624533,368.877377 C804.795743,371.236317 802.984379,373.583621 801.19044,375.919289 L790.635914,389.793673 L790.635914,389.793673 L780.499599,403.388802 L780.499599,403.388802 L770.781496,416.704676 C769.196663,418.900717 767.629256,421.085122 766.079274,423.257892 L756.988489,436.154883 L756.988489,436.154883 L748.315916,448.77262 L748.315916,448.77262 L740.061555,461.111102 C738.720679,463.144245 737.397228,465.165751 736.091203,467.175623 L728.46416,479.095222 C724.755191,484.985208 721.203052,490.770474 717.807742,496.451019 L711.226228,507.672481 C677.240052,566.775602 661.097583,613.963849 662.798821,649.237223 C662.909107,651.523894 663.0508,653.766527 663.223528,655.964565 L663.834446,662.424332 L663.834446,662.424332 L664.629344,668.613179 C666.253947,679.709012 668.794887,689.422097 672.190366,697.659689 L674.126821,702.006034 C689.617016,734.197601 719.854545,740.291461 760.320033,713.505279 L765.655773,709.824407 C773.745273,704.021728 782.218775,696.94912 791.042431,688.555787 L796.976372,682.764012 L796.976372,682.764012 L803.011833,676.577566 C804.02608,675.513416 805.044463,674.432683 806.066938,673.335296 L812.250502,666.550573 L812.250502,666.550573 L818.530015,659.362818 C820.638929,656.899356 822.763464,654.368164 824.903248,651.768686 L831.367973,643.764833 L831.367973,643.764833 L837.921961,635.347913 L837.921961,635.347913 L844.562983,626.514584 L844.562983,626.514584 L851.623837,616.806924 L851.623837,616.806924 L858.973744,606.439872 L858.973744,606.439872 L866.227649,595.951984 L866.227649,595.951984 L873.377377,585.357395 L873.377377,585.357395 L883.888753,569.296366 L883.888753,569.296366 L890.742274,558.496866 L890.742274,558.496866 L897.463006,547.640137 C898.571609,545.826699 899.674337,544.011465 900.771023,542.194729 L907.277246,531.278663 C908.349075,529.457101 909.41452,527.634628 910.47341,525.811537 L916.746732,514.867936 L916.746732,514.867936 L922.854568,503.923648 L922.854568,503.923648 L928.788744,492.992809 L928.788744,492.992809 L934.541085,482.089553 C935.484202,480.275427 936.419402,478.46304 937.346514,476.652686 L942.810777,465.817308 L942.810777,465.817308 L948.072769,455.044853 C948.932457,453.255472 949.783377,451.469302 950.625359,449.686638 L955.568618,439.035068 L955.568618,439.035068 L960.28917,428.481758 L960.28917,428.481758 L964.778842,418.040842 C965.507426,416.310841 966.22605,414.586112 966.934543,412.86695 L971.062566,402.62113 C971.729853,400.925412 972.38667,399.235849 973.032844,397.552737 L976.780826,387.533817 L976.780826,387.533817 L980.265229,377.683833 C983.056802,369.54983 985.5653,361.606525 987.769434,353.89073 L990.266938,344.743336 L990.266938,344.743336 L992.464078,335.828487 C1002.68524,291.859158 1001.33623,257.14031 983.818928,239.623006 L963.620209,219.455779 L963.620209,219.455779 L948.393075,204.538212 L948.393075,204.538212 L935.971035,192.734877 L935.971035,192.734877 L926.619028,184.150322 L926.619028,184.150322 L920.404861,178.623342 L920.404861,178.623342 L914.230368,173.295806 L914.230368,173.295806 L908.115496,168.204228 L908.115496,168.204228 L902.08019,163.385121 L902.08019,163.385121 L896.144397,158.874998 C894.184601,157.427178 892.244715,156.036941 890.328062,154.710373 L884.651132,150.927758 C865.049106,138.399727 848.375148,133.562082 838.477605,143.459625 C827.570109,154.367121 828.471544,178.009713 841.18191,214.387401 L844.200822,222.680963 L844.200822,222.680963 L847.608505,231.393787 L847.608505,231.393787 L851.404959,240.525874 C852.070099,242.082827 852.751438,243.657249 853.448976,245.249141 L857.828587,255.010121 L857.828587,255.010121 L862.59697,265.190364 L862.59697,265.190364 L867.754124,275.789869 C869.537971,279.392914 871.386612,283.065837 873.30005,286.808636 Z"></path>
        <filter id="filter-3" filterUnits="objectBoundingBox" height="129.7%" width="152.3%" y="-14.9%" x="-35.7%">
            <feOffset result="shadowOffsetOuter1" in="SourceAlpha" dy="0" dx="-32"></feOffset>
            <feGaussianBlur result="shadowBlurOuter1" in="shadowOffsetOuter1" stdDeviation="24"></feGaussianBlur>
            <feColorMatrix in="shadowBlurOuter1" type="matrix" values="0 0 0 0 0.696364251   0 0 0 0 0.548689709   0 0 0 0 0.14785881  0 0 0 0.40110512 0"></feColorMatrix>
        </filter>
        <filter id="filter-4" filterUnits="objectBoundingBox" height="124.3%" width="142.8%" y="-12.2%" x="-30.9%">
            <feGaussianBlur result="shadowBlurInner1" in="SourceAlpha" stdDeviation="24"></feGaussianBlur>
            <feOffset result="shadowOffsetInner1" in="shadowBlurInner1" dy="0" dx="0"></feOffset>
            <feComposite result="shadowInnerInner1" k3="1" k2="-1" operator="arithmetic" in2="SourceAlpha" in="shadowOffsetInner1"></feComposite>
            <feColorMatrix in="shadowInnerInner1" type="matrix" values="0 0 0 0 0.989893374   0 0 0 0 0.520045047   0 0 0 0 0.018873497  0 0 0 1 0"></feColorMatrix>
        </filter>
        <radialGradient id="radialGradient-5" gradientTransform="translate(0.500000,0.196690),scale(0.912281,1.000000),rotate(90.000000),translate(-0.500000,-0.196690)" r="93.9392347%" fy="19.6689915%" fx="50%" cy="19.6689915%" cx="50%">
            <stop offset="0%" stop-color="#FFE476"></stop>
            <stop offset="41.3872668%" stop-color="#FCEC6C"></stop>
            <stop offset="100%" stop-color="#FFB02F"></stop>
        </radialGradient>
        <path id="path-6" d="M470.860526,96.3786953 C590.065472,90.6333681 692.761001,150.678756 742.047405,248.068162 C874.943351,307.197291 982.794668,448.582382 955.841115,605.747769 C935.627441,723.613119 871.200132,809.730518 776.885037,862.375369 C730.431467,892.437155 664.2001,913.754861 565.849854,923.528265 C286.3427,951.303857 64.9816436,850.504609 48.8216209,598.216832 C40.8540009,473.82758 91.4225884,389.954402 174.973967,336.88301 C205.596783,181.870433 317.83599,103.754027 470.860526,96.3786953 Z"></path>
        <filter id="filter-7" filterUnits="objectBoundingBox" height="117.3%" width="115.8%" y="-8.7%" x="-7.9%">
            <feGaussianBlur result="shadowBlurInner1" in="SourceAlpha" stdDeviation="64"></feGaussianBlur>
            <feOffset result="shadowOffsetInner1" in="shadowBlurInner1" dy="16" dx="0"></feOffset>
            <feComposite result="shadowInnerInner1" k3="1" k2="-1" operator="arithmetic" in2="SourceAlpha" in="shadowOffsetInner1"></feComposite>
            <feColorMatrix in="shadowInnerInner1" type="matrix" values="0 0 0 0 0.968627451   0 0 0 0 0.68627451   0 0 0 0 0.270588235  0 0 0 0.501145583 0"></feColorMatrix>
        </filter>
        <linearGradient id="linearGradient-8" y2="113.608226%" x2="50%" y1="19.6689915%" x1="50%">
            <stop offset="0%" stop-color="#FFE992"></stop>
            <stop offset="41.5154304%" stop-color="#FFF185"></stop>
            <stop offset="100%" stop-color="#FFB02F"></stop>
        </linearGradient>
        <path id="path-9" d="M809.614784,708.473183 C563.385472,729.018641 413.512744,768.761323 359.996603,827.701229 C279.72239,916.111088 330.236191,982.622823 526.692064,951.553732 C723.147937,920.484641 933.376566,836.075207 933.376566,758.175222 C933.376566,680.275236 934.72928,568.649554 894.783188,568.649554 C868.15246,568.649554 839.762992,615.25743 809.614784,708.473183 Z"></path>
        <filter id="filter-10" filterUnits="objectBoundingBox" height="145.1%" width="128.9%" y="-22.5%" x="-19.7%">
            <feOffset result="shadowOffsetOuter1" in="SourceAlpha" dy="0" dx="-32"></feOffset>
            <feGaussianBlur result="shadowBlurOuter1" in="shadowOffsetOuter1" stdDeviation="24"></feGaussianBlur>
            <feColorMatrix in="shadowBlurOuter1" type="matrix" values="0 0 0 0 0.696364251   0 0 0 0 0.548689709   0 0 0 0 0.14785881  0 0 0 0.684966401 0"></feColorMatrix>
        </filter>
        <filter id="filter-11" filterUnits="objectBoundingBox" height="136.9%" width="123.6%" y="-18.4%" x="-17.1%">
            <feGaussianBlur result="shadowBlurInner1" in="SourceAlpha" stdDeviation="24"></feGaussianBlur>
            <feOffset result="shadowOffsetInner1" in="shadowBlurInner1" dy="0" dx="0"></feOffset>
            <feComposite result="shadowInnerInner1" k3="1" k2="-1" operator="arithmetic" in2="SourceAlpha" in="shadowOffsetInner1"></feComposite>
            <feColorMatrix in="shadowInnerInner1" type="matrix" values="0 0 0 0 0.989893374   0 0 0 0 0.520045047   0 0 0 0 0.018873497  0 0 0 1 0"></feColorMatrix>
        </filter>
        <path id="path-12" d="M508.312125,583.29398 C514.423644,583.29398 519.558865,587.887126 520.237839,593.960812 C524.020139,627.794969 539.184201,642.852217 555.441845,642.852217 L561.985294,642.759527 C594.340306,641.772761 604.582603,632.465143 611.578381,593.960812 C612.763108,587.440147 619.009563,583.114514 625.530228,584.299241 C632.050893,585.483968 636.376526,591.730423 635.191799,598.251088 C625.51725,651.499213 603.902668,666.852217 555.441845,666.852217 C530.441535,666.852217 509.054254,650.092152 500.925272,620.931884 L500.428513,618.99603 L499.764903,620.6098 C487.230893,649.246607 468.848669,665.627604 435.988913,666.782859 L432,666.852217 C387.787563,666.852217 364.835694,641.390592 367.058427,595.525088 C367.379229,588.90544 373.005575,583.799215 379.625223,584.120017 C386.244871,584.440818 391.351095,590.067164 391.030294,596.686812 C389.45708,629.149664 401.808971,642.852217 432,642.852217 C463.367989,642.852217 476.357411,626.579804 483.418401,592.836167 C484.465454,587.832422 488.540839,584.106247 493.486264,583.411049 L495.164002,583.29398 L508.312125,583.29398 Z"></path>
        <filter id="filter-13" filterUnits="objectBoundingBox" height="119.1%" width="106.0%" y="-9.6%" x="-3.0%">
            <feGaussianBlur result="shadowBlurInner1" in="SourceAlpha" stdDeviation="8"></feGaussianBlur>
            <feOffset result="shadowOffsetInner1" in="shadowBlurInner1" dy="0" dx="0"></feOffset>
            <feComposite result="shadowInnerInner1" k3="1" k2="-1" operator="arithmetic" in2="SourceAlpha" in="shadowOffsetInner1"></feComposite>
            <feColorMatrix in="shadowInnerInner1" type="matrix" values="0 0 0 0 0.661258421   0 0 0 0 0.0872254633   0 0 0 0 0.00982776113  0 0 0 1 0"></feColorMatrix>
        </filter>
        <filter id="filter-14" filterUnits="objectBoundingBox" height="280.0%" width="263.6%" y="-90.0%" x="-81.8%">
            <feGaussianBlur in="SourceGraphic" stdDeviation="48"></feGaussianBlur>
        </filter>
        <filter id="filter-15" filterUnits="objectBoundingBox" height="280.0%" width="263.6%" y="-90.0%" x="-81.8%">
            <feGaussianBlur in="SourceGraphic" stdDeviation="48"></feGaussianBlur>
        </filter>
        <linearGradient id="linearGradient-16" y2="100%" x2="50%" y1="0%" x1="50%">
            <stop offset="0%" stop-color="#FFFFFF"></stop>
            <stop offset="100%" stop-color="#FFEDBE"></stop>
        </linearGradient>
        <circle r="120" cy="120" cx="120" id="path-17"></circle>
        <filter id="filter-18" filterUnits="objectBoundingBox" height="180.0%" width="180.0%" y="-40.0%" x="-40.0%">
            <feOffset result="shadowOffsetOuter1" in="SourceAlpha" dy="0" dx="0"></feOffset>
            <feGaussianBlur result="shadowBlurOuter1" in="shadowOffsetOuter1" stdDeviation="32"></feGaussianBlur>
            <feColorMatrix in="shadowBlurOuter1" type="matrix" values="0 0 0 0 0.888848346   0 0 0 0 0.591702642   0 0 0 0 0.178785883  0 0 0 1 0"></feColorMatrix>
        </filter>
        <filter id="filter-19" filterUnits="objectBoundingBox" height="166.7%" width="166.7%" y="-33.3%" x="-33.3%">
            <feGaussianBlur result="shadowBlurInner1" in="SourceAlpha" stdDeviation="16"></feGaussianBlur>
            <feOffset result="shadowOffsetInner1" in="shadowBlurInner1" dy="0" dx="0"></feOffset>
            <feComposite result="shadowInnerInner1" k3="1" k2="-1" operator="arithmetic" in2="SourceAlpha" in="shadowOffsetInner1"></feComposite>
            <feColorMatrix in="shadowInnerInner1" type="matrix" values="0 0 0 0 1   0 0 0 0 0.880587925   0 0 0 0 0.537254902  0 0 0 0.500726446 0"></feColorMatrix>
        </filter>
        <path id="path-20" d="M170.877428,215.616367 C201.805374,215.616367 226.877364,190.544312 226.877364,159.616367 C226.877364,128.688421 201.805374,103.616367 170.877428,103.616367 C139.949482,103.616367 114.877364,128.688421 114.877364,159.616367 C114.877364,190.544312 139.949482,215.616367 170.877428,215.616367 Z"></path>
        <filter id="filter-21" filterUnits="objectBoundingBox" height="128.6%" width="128.6%" y="-14.3%" x="-14.3%">
            <feGaussianBlur result="shadowBlurInner1" in="SourceAlpha" stdDeviation="16"></feGaussianBlur>
            <feOffset result="shadowOffsetInner1" in="shadowBlurInner1" dy="0" dx="0"></feOffset>
            <feComposite result="shadowInnerInner1" k3="1" k2="-1" operator="arithmetic" in2="SourceAlpha" in="shadowOffsetInner1"></feComposite>
            <feColorMatrix in="shadowInnerInner1" type="matrix" values="0 0 0 0 0.322660142   0 0 0 0 0   0 0 0 0 0.0976114716  0 0 0 1 0"></feColorMatrix>
        </filter>
        <circle r="120" cy="120" cx="120" id="path-22"></circle>
        <filter id="filter-23" filterUnits="objectBoundingBox" height="180.0%" width="180.0%" y="-40.0%" x="-40.0%">
            <feOffset result="shadowOffsetOuter1" in="SourceAlpha" dy="0" dx="0"></feOffset>
            <feGaussianBlur result="shadowBlurOuter1" in="shadowOffsetOuter1" stdDeviation="32"></feGaussianBlur>
            <feColorMatrix in="shadowBlurOuter1" type="matrix" values="0 0 0 0 0.888848346   0 0 0 0 0.591702642   0 0 0 0 0.178785883  0 0 0 1 0"></feColorMatrix>
        </filter>
        <filter id="filter-24" filterUnits="objectBoundingBox" height="166.7%" width="166.7%" y="-33.3%" x="-33.3%">
            <feGaussianBlur result="shadowBlurInner1" in="SourceAlpha" stdDeviation="16"></feGaussianBlur>
            <feOffset result="shadowOffsetInner1" in="shadowBlurInner1" dy="0" dx="0"></feOffset>
            <feComposite result="shadowInnerInner1" k3="1" k2="-1" operator="arithmetic" in2="SourceAlpha" in="shadowOffsetInner1"></feComposite>
            <feColorMatrix in="shadowInnerInner1" type="matrix" values="0 0 0 0 1   0 0 0 0 0.880587925   0 0 0 0 0.537254902  0 0 0 0.500726446 0"></feColorMatrix>
        </filter>
        <path id="path-25" d="M169.983705,215.616367 C200.911651,215.616367 225.983705,190.544312 225.983705,159.616367 C225.983705,128.688421 200.911651,103.616367 169.983705,103.616367 C139.055759,103.616367 113.983705,128.688421 113.983705,159.616367 C113.983705,190.544312 139.055759,215.616367 169.983705,215.616367 Z"></path>
        <filter id="filter-26" filterUnits="objectBoundingBox" height="128.6%" width="128.6%" y="-14.3%" x="-14.3%">
            <feGaussianBlur result="shadowBlurInner1" in="SourceAlpha" stdDeviation="16"></feGaussianBlur>
            <feOffset result="shadowOffsetInner1" in="shadowBlurInner1" dy="0" dx="0"></feOffset>
            <feComposite result="shadowInnerInner1" k3="1" k2="-1" operator="arithmetic" in2="SourceAlpha" in="shadowOffsetInner1"></feComposite>
            <feColorMatrix in="shadowInnerInner1" type="matrix" values="0 0 0 0 0.322660142   0 0 0 0 0   0 0 0 0 0.0976114716  0 0 0 1 0"></feColorMatrix>
        </filter>
    </defs>
    <g fill-rule="evenodd" fill="none" stroke-width="1" stroke="none" id="上传尺寸">
        <g id="嘿哈">
            <g id="默认">
                <rect height="1024" width="1024" y="0" x="0" id="矩形备份"></rect>
                <g id="路径-134">
                    <use xlink:href="#path-2" filter="url(#filter-3)" fill-opacity="1" fill="black"></use>
                    <use xlink:href="#path-2" fill-rule="evenodd" fill="url(#linearGradient-1)"></use>
                    <use xlink:href="#path-2" filter="url(#filter-4)" fill-opacity="1" fill="black"></use>
                </g>
                <g id="形状结合">
                    <use xlink:href="#path-6" fill-rule="evenodd" fill="url(#radialGradient-5)"></use>
                    <use xlink:href="#path-6" filter="url(#filter-7)" fill-opacity="1" fill="black"></use>
                </g>
                <g transform="translate(628.429031, 763.980074) rotate(4.000000) translate(-628.429031, -763.980074)" id="路径-134">
                    <use xlink:href="#path-9" filter="url(#filter-10)" fill-opacity="1" fill="black"></use>
                    <use xlink:href="#path-9" fill-rule="evenodd" fill="url(#linearGradient-8)"></use>
                    <use xlink:href="#path-9" filter="url(#filter-11)" fill-opacity="1" fill="black"></use>
                </g>
                <g fill-rule="nonzero" id="路径-133">
                    <use xlink:href="#path-12" fill="#ED1F2A"></use>
                    <use xlink:href="#path-12" filter="url(#filter-13)" fill-opacity="1" fill="black"></use>
                </g>
                <ellipse ry="80" rx="88" cy="584" cx="744" filter="url(#filter-14)" fill="#FF5EA4" fill-opacity="0.8" id="椭圆形"></ellipse>
                <ellipse ry="80" rx="88" cy="584" cx="264" filter="url(#filter-15)" fill="#FF5EA4" fill-opacity="0.8" id="椭圆形备份-6"></ellipse>
            </g>
            <g transform="translate(208.000000, 352.383633)" id="编组-2备份-2">
                <g id="椭圆形">
                    <use xlink:href="#path-17" filter="url(#filter-18)" fill-opacity="1" fill="black"></use>
                    <use xlink:href="#path-17" fill-rule="evenodd" fill="url(#linearGradient-16)"></use>
                    <use xlink:href="#path-17" filter="url(#filter-19)" fill-opacity="1" fill="black"></use>
                </g>
                <g id="椭圆形">
                    <use xlink:href="#path-20" fill-rule="evenodd" fill="#930027"></use>
                    <use xlink:href="#path-20" filter="url(#filter-21)" fill-opacity="1" fill="black"></use>
                </g>
            </g>
            <g transform="translate(560.000000, 352.383633)" id="编组-2备份-21">
                <g id="椭圆形">
                    <use xlink:href="#path-22" filter="url(#filter-23)" fill-opacity="1" fill="black"></use>
                    <use xlink:href="#path-22" fill-rule="evenodd" fill="url(#linearGradient-16)"></use>
                    <use xlink:href="#path-22" filter="url(#filter-24)" fill-opacity="1" fill="black"></use>
                </g>
                <g id="椭圆形">
                    <use xlink:href="#path-25" fill-rule="evenodd" fill="#930027"></use>
                    <use xlink:href="#path-25" filter="url(#filter-26)" fill-opacity="1" fill="black"></use>
                </g>
            </g>
        </g>
    </g>
</svg>