<?xml version="1.0" standalone="no"?><!DOCTYPE svg PUBLIC "-//W3C//DTD SVG 1.1//EN" "http://www.w3.org/Graphics/SVG/1.1/DTD/svg11.dtd"><svg height="1024" node-id="1" sillyvg="true" template-height="1024" template-width="1056" version="1.1" viewBox="0 0 1056 1024" width="1056" xmlns="http://www.w3.org/2000/svg" xmlns:xlink="http://www.w3.org/1999/xlink"><defs node-id="93"><radialGradient cx="0.5" cy="0.19668992" fx="0.5" fy="0.19668992" gradientTransform="matrix(0 1 -0.912281 0 0.67943655 -0.30331)" gradientUnits="objectBoundingBox" id="radialGradient-1" node-id="5" r="0.9393923" rev="2" spreadMethod="pad"><stop offset="0" stop-color="#ffe476"></stop><stop offset="0.41387266" stop-color="#fcec6c"></stop><stop offset="1" stop-color="#ffb02f"></stop></radialGradient><linearGradient gradientUnits="objectBoundingBox" id="linearGradient-4" node-id="15" spreadMethod="pad" x1="0.5" x2="0.5" y1="0" y2="1"><stop offset="0" stop-color="#ffffff"></stop><stop offset="1" stop-color="#ffedbe"></stop></linearGradient><filter height="1.173" id="filter-3" node-id="10" width="1.158" x="-0.079" y="-0.087"><feGaussianBlur color-interpolation-filters="linearRGB" in="SourceAlpha" result="shadowBlurInner1" stdDeviation="64 64"></feGaussianBlur><feOffset color-interpolation-filters="linearRGB" dx="0" dy="16" in="shadowBlurInner1" result="shadowOffsetInner1"></feOffset><feComposite color-interpolation-filters="linearRGB" in="shadowOffsetInner1" in2="SourceAlpha" k1="0" k2="-1" k3="1" k4="0" operator="arithmetic" result="shadowInnerInner1"></feComposite><feColorMatrix color-interpolation-filters="linearRGB" in="shadowInnerInner1" result="result4" type="matrix" values="0 0 0 0 0.968627451 0 0 0 0 0.68627451 0 0 0 0 0.270588235 0 0 0 0.501145583 0"></feColorMatrix></filter><filter height="1.87" id="filter-6" node-id="19" width="1.87" x="-0.348" y="-0.435"><feOffset color-interpolation-filters="linearRGB" dx="32" dy="0" in="SourceAlpha" result="shadowOffsetOuter1"></feOffset><feGaussianBlur color-interpolation-filters="linearRGB" in="shadowOffsetOuter1" result="shadowBlurOuter1" stdDeviation="48 48"></feGaussianBlur><feColorMatrix color-interpolation-filters="linearRGB" in="shadowBlurOuter1" result="result3" type="matrix" values="0 0 0 0 0.888848346 0 0 0 0 0.591702642 0 0 0 0 0.178785883 0 0 0 1 0"></feColorMatrix></filter><filter height="1.696" id="filter-7" node-id="23" width="1.696" x="-0.261" y="-0.348"><feGaussianBlur color-interpolation-filters="linearRGB" in="SourceAlpha" result="shadowBlurInner1" stdDeviation="32 32"></feGaussianBlur><feOffset color-interpolation-filters="linearRGB" dx="0" dy="0" in="shadowBlurInner1" result="shadowOffsetInner1"></feOffset><feComposite color-interpolation-filters="linearRGB" in="shadowOffsetInner1" in2="SourceAlpha" k1="0" k2="-1" k3="1" k4="0" operator="arithmetic" result="shadowInnerInner1"></feComposite><feColorMatrix color-interpolation-filters="linearRGB" in="shadowInnerInner1" result="result4" type="matrix" values="0 0 0 0 1 0 0 0 0 0.880587925 0 0 0 0 0.537254902 0 0 0 0.500726446 0"></feColorMatrix></filter><filter height="1.696" id="filter-9" node-id="29" width="1.696" x="-0.348" y="-0.348"><feGaussianBlur color-interpolation-filters="linearRGB" in="SourceAlpha" result="shadowBlurInner1" stdDeviation="32 32"></feGaussianBlur><feOffset color-interpolation-filters="linearRGB" dx="0" dy="0" in="shadowBlurInner1" result="shadowOffsetInner1"></feOffset><feComposite color-interpolation-filters="linearRGB" in="shadowOffsetInner1" in2="SourceAlpha" k1="0" k2="-1" k3="1" k4="0" operator="arithmetic" result="shadowInnerInner1"></feComposite><feColorMatrix color-interpolation-filters="linearRGB" in="shadowInnerInner1" result="result4" type="matrix" values="0 0 0 0 0.322660142 0 0 0 0 0 0 0 0 0 0.0976114716 0 0 0 1 0"></feColorMatrix></filter><filter height="1.87" id="filter-11" node-id="35" width="1.87" x="-0.522" y="-0.435"><feOffset color-interpolation-filters="linearRGB" dx="-32" dy="0" in="SourceAlpha" result="shadowOffsetOuter1"></feOffset><feGaussianBlur color-interpolation-filters="linearRGB" in="shadowOffsetOuter1" result="shadowBlurOuter1" stdDeviation="48 48"></feGaussianBlur><feColorMatrix color-interpolation-filters="linearRGB" in="shadowBlurOuter1" result="result3" type="matrix" values="0 0 0 0 0.888848346 0 0 0 0 0.591702642 0 0 0 0 0.178785883 0 0 0 1 0"></feColorMatrix></filter><filter height="1.696" id="filter-12" node-id="39" width="1.696" x="-0.435" y="-0.348"><feGaussianBlur color-interpolation-filters="linearRGB" in="SourceAlpha" result="shadowBlurInner1" stdDeviation="32 32"></feGaussianBlur><feOffset color-interpolation-filters="linearRGB" dx="0" dy="0" in="shadowBlurInner1" result="shadowOffsetInner1"></feOffset><feComposite color-interpolation-filters="linearRGB" in="shadowOffsetInner1" in2="SourceAlpha" k1="0" k2="-1" k3="1" k4="0" operator="arithmetic" result="shadowInnerInner1"></feComposite><feColorMatrix color-interpolation-filters="linearRGB" in="shadowInnerInner1" result="result4" type="matrix" values="0 0 0 0 1 0 0 0 0 0.880587925 0 0 0 0 0.537254902 0 0 0 0.500726446 0"></feColorMatrix></filter><filter height="1.696" id="filter-14" node-id="45" width="1.696" x="-0.348" y="-0.348"><feGaussianBlur color-interpolation-filters="linearRGB" in="SourceAlpha" result="shadowBlurInner1" stdDeviation="32 32"></feGaussianBlur><feOffset color-interpolation-filters="linearRGB" dx="0" dy="0" in="shadowBlurInner1" result="shadowOffsetInner1"></feOffset><feComposite color-interpolation-filters="linearRGB" in="shadowOffsetInner1" in2="SourceAlpha" k1="0" k2="-1" k3="1" k4="0" operator="arithmetic" result="shadowInnerInner1"></feComposite><feColorMatrix color-interpolation-filters="linearRGB" in="shadowInnerInner1" result="result4" type="matrix" values="0 0 0 0 0.322660142 0 0 0 0 0 0 0 0 0 0.0976114716 0 0 0 1 0"></feColorMatrix></filter><filter height="1.25" id="filter-16" node-id="51" width="1.25" x="-0.125" y="-0.125"><feGaussianBlur color-interpolation-filters="linearRGB" in="SourceAlpha" result="shadowBlurInner1" stdDeviation="8 8"></feGaussianBlur><feOffset color-interpolation-filters="linearRGB" dx="0" dy="0" in="shadowBlurInner1" result="shadowOffsetInner1"></feOffset><feComposite color-interpolation-filters="linearRGB" in="shadowOffsetInner1" in2="SourceAlpha" k1="0" k2="-1" k3="1" k4="0" operator="arithmetic" result="shadowInnerInner1"></feComposite><feColorMatrix color-interpolation-filters="linearRGB" in="shadowInnerInner1" result="result4" type="matrix" values="0 0 0 0 0.661258421 0 0 0 0 0.0872254633 0 0 0 0 0.00982776113 0 0 0 1 0"></feColorMatrix></filter><filter height="2.8" id="filter-17" node-id="56" width="2.636" x="-0.818" y="-0.9"><feGaussianBlur color-interpolation-filters="linearRGB" in="SourceGraphic" result="result1" stdDeviation="48 48"></feGaussianBlur></filter><filter height="2.8" id="filter-18" node-id="58" width="2.636" x="-0.818" y="-0.9"><feGaussianBlur color-interpolation-filters="linearRGB" in="SourceGraphic" result="result1" stdDeviation="48 48"></feGaussianBlur></filter></defs><g node-id="284"><path d="M 16.00 0.00 L 1040.00 0.00 L 1040.00 1024.00 L 16.00 1024.00 Z" fill="none" group-id="1" id="矩形备份-7" node-id="62" stroke="none" target-height="1024" target-width="1024" target-x="16" target-y="0"></path><g node-id="285"><g node-id="287"><g node-id="293"><path d="M 496.33 96.38 L 510.74 96.01 L 524.85 96.26 L 538.68 97.12 L 552.25 98.56 L 565.58 100.60 L 578.92 103.25 L 591.92 106.45 L 604.61 110.18 L 616.99 114.44 L 629.09 119.24 L 641.02 124.62 L 652.57 130.48 L 663.76 136.81 L 674.59 143.63 L 685.10 150.95 L 695.27 158.75 L 705.01 166.99 L 714.35 175.66 L 723.29 184.77 L 731.83 194.34 L 739.90 204.28 L 747.49 214.61 L 754.63 225.35 L 761.30 236.49 L 767.52 248.07 L 778.83 253.33 L 789.99 258.98 L 801.01 265.01 L 811.88 271.43 L 822.62 278.25 L 835.69 287.24 L 848.40 296.74 L 860.74 306.77 L 872.73 317.34 L 882.01 326.15 L 890.97 335.23 L 899.60 344.59 L 907.93 354.24 L 915.94 364.18 L 923.61 374.40 L 930.88 384.85 L 937.75 395.53 L 944.23 406.44 L 950.32 417.61 L 955.99 428.99 L 961.18 440.56 L 965.91 452.32 L 970.16 464.28 L 973.96 476.45 L 977.23 488.74 L 979.97 501.18 L 982.16 513.79 L 983.82 526.58 L 984.93 539.55 L 985.45 552.48 L 985.35 565.54 L 984.64 578.77 L 983.30 592.16 L 981.31 605.75 L 978.49 620.58 L 975.24 634.95 L 971.57 648.88 L 967.48 662.38 L 962.98 675.47 L 958.08 688.17 L 952.63 700.86 L 946.79 713.16 L 940.57 725.06 L 933.97 736.57 L 926.98 747.73 L 919.62 758.52 L 911.80 769.08 L 903.62 779.28 L 895.08 789.13 L 886.18 798.64 L 876.91 807.81 L 867.26 816.64 L 857.32 825.09 L 847.04 833.20 L 836.42 840.98 L 825.43 848.44 L 814.08 855.57 L 802.35 862.38 L 793.63 867.78 L 784.29 873.07 L 774.29 878.22 L 763.61 883.24 L 752.96 887.78 L 741.55 892.19 L 729.34 896.45 L 716.30 900.56 L 703.42 904.20 L 689.65 907.67 L 674.94 910.97 L 659.25 914.08 L 643.85 916.75 L 627.42 919.23 L 609.93 921.49 L 591.32 923.53 L 570.17 925.39 L 549.42 926.75 L 529.07 927.61 L 509.11 927.98 L 489.52 927.87 L 469.66 927.26 L 450.28 926.15 L 431.37 924.54 L 412.91 922.45 L 394.89 919.89 L 376.69 916.75 L 359.04 913.11 L 341.91 908.98 L 325.29 904.39 L 309.16 899.32 L 295.66 894.59 L 282.57 889.51 L 269.88 884.11 L 257.57 878.37 L 245.63 872.30 L 234.05 865.90 L 222.58 859.00 L 211.53 851.76 L 200.89 844.18 L 190.64 836.25 L 180.77 827.97 L 171.29 819.34 L 162.14 810.30 L 153.42 800.89 L 145.11 791.11 L 137.21 780.93 L 129.70 770.36 L 122.59 759.39 L 116.03 748.22 L 109.90 736.64 L 104.20 724.62 L 98.92 712.15 L 94.08 699.21 L 89.68 685.77 L 85.93 672.48 L 82.63 658.70 L 79.81 644.41 L 77.46 629.58 L 75.62 614.19 L 74.29 598.22 L 73.61 583.09 L 73.50 568.57 L 73.93 554.63 L 74.88 541.24 L 76.33 528.37 L 78.37 515.28 L 80.89 502.70 L 83.87 490.60 L 87.31 478.97 L 91.19 467.78 L 95.65 456.62 L 100.53 445.89 L 105.82 435.54 L 111.52 425.58 L 117.65 415.98 L 124.24 406.63 L 131.21 397.62 L 138.56 388.93 L 146.32 380.56 L 154.47 372.50 L 162.93 364.81 L 171.75 357.41 L 180.93 350.29 L 190.49 343.45 L 200.44 336.88 L 203.37 323.41 L 206.66 310.46 L 210.31 298.03 L 214.30 286.10 L 218.63 274.63 L 223.29 263.62 L 228.28 253.05 L 233.85 242.41 L 239.73 232.20 L 245.91 222.43 L 252.41 213.08 L 259.21 204.13 L 266.32 195.57 L 273.75 187.38 L 282.93 178.18 L 292.49 169.49 L 302.45 161.29 L 312.83 153.58 L 323.64 146.34 L 334.89 139.58 L 346.34 133.40 L 358.18 127.67 L 370.43 122.40 L 383.09 117.59 L 396.18 113.23 L 409.74 109.34 L 423.17 106.05 L 436.98 103.20 L 451.19 100.79 L 465.81 98.85 L 480.85 97.37 L 496.33 96.38 Z" fill="url(#radialGradient-1)" fill-rule="evenodd" group-id="1,2,4,10" node-id="201" stroke="none" target-height="831.9669" target-width="911.9464" target-x="73.50026" target-y="96.01346"></path></g><path d="M 496.33 96.38 L 510.74 96.01 L 524.85 96.26 L 538.68 97.12 L 552.25 98.56 L 565.58 100.60 L 578.92 103.25 L 591.92 106.45 L 604.61 110.18 L 616.99 114.44 L 629.09 119.24 L 641.02 124.62 L 652.57 130.48 L 663.76 136.81 L 674.59 143.63 L 685.10 150.95 L 695.27 158.75 L 705.01 166.99 L 714.35 175.66 L 723.29 184.77 L 731.83 194.34 L 739.90 204.28 L 747.49 214.61 L 754.63 225.35 L 761.30 236.49 L 767.52 248.07 L 778.83 253.33 L 789.99 258.98 L 801.01 265.01 L 811.88 271.43 L 822.62 278.25 L 835.69 287.24 L 848.40 296.74 L 860.74 306.77 L 872.73 317.34 L 882.01 326.15 L 890.97 335.23 L 899.60 344.59 L 907.93 354.24 L 915.94 364.18 L 923.61 374.40 L 930.88 384.85 L 937.75 395.53 L 944.23 406.44 L 950.32 417.61 L 955.99 428.99 L 961.18 440.56 L 965.91 452.32 L 970.16 464.28 L 973.96 476.45 L 977.23 488.74 L 979.97 501.18 L 982.16 513.79 L 983.82 526.58 L 984.93 539.55 L 985.45 552.48 L 985.35 565.54 L 984.64 578.77 L 983.30 592.16 L 981.31 605.75 L 978.49 620.58 L 975.24 634.95 L 971.57 648.88 L 967.48 662.38 L 962.98 675.47 L 958.08 688.17 L 952.63 700.86 L 946.79 713.16 L 940.57 725.06 L 933.97 736.57 L 926.98 747.73 L 919.62 758.52 L 911.80 769.08 L 903.62 779.28 L 895.08 789.13 L 886.18 798.64 L 876.91 807.81 L 867.26 816.64 L 857.32 825.09 L 847.04 833.20 L 836.42 840.98 L 825.43 848.44 L 814.08 855.57 L 802.35 862.38 L 793.63 867.78 L 784.29 873.07 L 774.29 878.22 L 763.61 883.24 L 752.96 887.78 L 741.55 892.19 L 729.34 896.45 L 716.30 900.56 L 703.42 904.20 L 689.65 907.67 L 674.94 910.97 L 659.25 914.08 L 643.85 916.75 L 627.42 919.23 L 609.93 921.49 L 591.32 923.53 L 570.17 925.39 L 549.42 926.75 L 529.07 927.61 L 509.11 927.98 L 489.52 927.87 L 469.66 927.26 L 450.28 926.15 L 431.37 924.54 L 412.91 922.45 L 394.89 919.89 L 376.69 916.75 L 359.04 913.11 L 341.91 908.98 L 325.29 904.39 L 309.16 899.32 L 295.66 894.59 L 282.57 889.51 L 269.88 884.11 L 257.57 878.37 L 245.63 872.30 L 234.05 865.90 L 222.58 859.00 L 211.53 851.76 L 200.89 844.18 L 190.64 836.25 L 180.77 827.97 L 171.29 819.34 L 162.14 810.30 L 153.42 800.89 L 145.11 791.11 L 137.21 780.93 L 129.70 770.36 L 122.59 759.39 L 116.03 748.22 L 109.90 736.64 L 104.20 724.62 L 98.92 712.15 L 94.08 699.21 L 89.68 685.77 L 85.93 672.48 L 82.63 658.70 L 79.81 644.41 L 77.46 629.58 L 75.62 614.19 L 74.29 598.22 L 73.61 583.09 L 73.50 568.57 L 73.93 554.63 L 74.88 541.24 L 76.33 528.37 L 78.37 515.28 L 80.89 502.70 L 83.87 490.60 L 87.31 478.97 L 91.19 467.78 L 95.65 456.62 L 100.53 445.89 L 105.82 435.54 L 111.52 425.58 L 117.65 415.98 L 124.24 406.63 L 131.21 397.62 L 138.56 388.93 L 146.32 380.56 L 154.47 372.50 L 162.93 364.81 L 171.75 357.41 L 180.93 350.29 L 190.49 343.45 L 200.44 336.88 L 203.37 323.41 L 206.66 310.46 L 210.31 298.03 L 214.30 286.10 L 218.63 274.63 L 223.29 263.62 L 228.28 253.05 L 233.85 242.41 L 239.73 232.20 L 245.91 222.43 L 252.41 213.08 L 259.21 204.13 L 266.32 195.57 L 273.75 187.38 L 282.93 178.18 L 292.49 169.49 L 302.45 161.29 L 312.83 153.58 L 323.64 146.34 L 334.89 139.58 L 346.34 133.40 L 358.18 127.67 L 370.43 122.40 L 383.09 117.59 L 396.18 113.23 L 409.74 109.34 L 423.17 106.05 L 436.98 103.20 L 451.19 100.79 L 465.81 98.85 L 480.85 97.37 L 496.33 96.38 Z" fill="#000000" fill-rule="evenodd" filter="url(#filter-3)" group-id="1,2,4,11" node-id="206" stroke="none" target-height="831.9669" target-width="911.9464" target-x="73.50026" target-y="96.01346"></path></g><g node-id="288"><g node-id="295"><g node-id="301"><path d="M 496.00 408.00 L 495.71 418.21 L 494.90 428.20 L 493.58 437.96 L 491.75 447.53 L 489.43 456.91 L 486.59 466.22 L 483.32 475.26 L 479.61 484.04 L 475.46 492.57 L 470.88 500.87 L 465.86 508.94 L 460.48 516.69 L 454.73 524.13 L 448.61 531.27 L 442.11 538.11 L 435.27 544.61 L 428.13 550.73 L 420.69 556.48 L 412.94 561.86 L 404.87 566.88 L 396.57 571.46 L 388.04 575.61 L 379.26 579.32 L 370.22 582.59 L 360.91 585.43 L 351.53 587.75 L 341.96 589.58 L 332.20 590.90 L 322.21 591.71 L 312.00 592.00 L 301.79 591.71 L 291.80 590.90 L 282.04 589.58 L 272.47 587.75 L 263.09 585.43 L 253.78 582.59 L 244.74 579.32 L 235.96 575.61 L 227.43 571.46 L 219.13 566.88 L 211.06 561.86 L 203.31 556.48 L 195.87 550.73 L 188.73 544.61 L 181.89 538.11 L 175.39 531.27 L 169.27 524.13 L 163.52 516.69 L 158.14 508.94 L 153.12 500.87 L 148.54 492.57 L 144.39 484.04 L 140.68 475.26 L 137.41 466.22 L 134.57 456.91 L 132.25 447.53 L 130.42 437.96 L 129.10 428.20 L 128.29 418.21 L 128.00 408.00 L 128.29 397.79 L 129.10 387.80 L 130.42 378.04 L 132.25 368.47 L 134.57 359.09 L 137.41 349.78 L 140.68 340.74 L 144.39 331.96 L 148.54 323.43 L 153.12 315.13 L 158.14 307.06 L 163.52 299.31 L 169.27 291.87 L 175.39 284.73 L 181.89 277.89 L 188.73 271.39 L 195.87 265.27 L 203.31 259.52 L 211.06 254.14 L 219.13 249.12 L 227.43 244.54 L 235.96 240.39 L 244.74 236.68 L 253.78 233.41 L 263.09 230.57 L 272.47 228.25 L 282.04 226.42 L 291.80 225.10 L 301.79 224.29 L 312.00 224.00 L 322.21 224.29 L 332.20 225.10 L 341.96 226.42 L 351.53 228.25 L 360.91 230.57 L 370.22 233.41 L 379.26 236.68 L 388.04 240.39 L 396.57 244.54 L 404.87 249.12 L 412.94 254.14 L 420.69 259.52 L 428.13 265.27 L 435.27 271.39 L 442.11 277.89 L 448.61 284.73 L 454.73 291.87 L 460.48 299.31 L 465.86 307.06 L 470.88 315.13 L 475.46 323.43 L 479.61 331.96 L 483.32 340.74 L 486.59 349.78 L 489.43 359.09 L 491.75 368.47 L 493.58 378.04 L 494.90 387.80 L 495.71 397.79 L 496.00 408.00 Z" fill="#000000" fill-rule="evenodd" filter="url(#filter-6)" group-id="1,2,5,12,18" node-id="214" stroke="none" target-height="368" target-width="368" target-x="128" target-y="224"></path></g><g node-id="302"><path d="M 496.00 408.00 L 495.71 418.21 L 494.90 428.20 L 493.58 437.96 L 491.75 447.53 L 489.43 456.91 L 486.59 466.22 L 483.32 475.26 L 479.61 484.04 L 475.46 492.57 L 470.88 500.87 L 465.86 508.94 L 460.48 516.69 L 454.73 524.13 L 448.61 531.27 L 442.11 538.11 L 435.27 544.61 L 428.13 550.73 L 420.69 556.48 L 412.94 561.86 L 404.87 566.88 L 396.57 571.46 L 388.04 575.61 L 379.26 579.32 L 370.22 582.59 L 360.91 585.43 L 351.53 587.75 L 341.96 589.58 L 332.20 590.90 L 322.21 591.71 L 312.00 592.00 L 301.79 591.71 L 291.80 590.90 L 282.04 589.58 L 272.47 587.75 L 263.09 585.43 L 253.78 582.59 L 244.74 579.32 L 235.96 575.61 L 227.43 571.46 L 219.13 566.88 L 211.06 561.86 L 203.31 556.48 L 195.87 550.73 L 188.73 544.61 L 181.89 538.11 L 175.39 531.27 L 169.27 524.13 L 163.52 516.69 L 158.14 508.94 L 153.12 500.87 L 148.54 492.57 L 144.39 484.04 L 140.68 475.26 L 137.41 466.22 L 134.57 456.91 L 132.25 447.53 L 130.42 437.96 L 129.10 428.20 L 128.29 418.21 L 128.00 408.00 L 128.29 397.79 L 129.10 387.80 L 130.42 378.04 L 132.25 368.47 L 134.57 359.09 L 137.41 349.78 L 140.68 340.74 L 144.39 331.96 L 148.54 323.43 L 153.12 315.13 L 158.14 307.06 L 163.52 299.31 L 169.27 291.87 L 175.39 284.73 L 181.89 277.89 L 188.73 271.39 L 195.87 265.27 L 203.31 259.52 L 211.06 254.14 L 219.13 249.12 L 227.43 244.54 L 235.96 240.39 L 244.74 236.68 L 253.78 233.41 L 263.09 230.57 L 272.47 228.25 L 282.04 226.42 L 291.80 225.10 L 301.79 224.29 L 312.00 224.00 L 322.21 224.29 L 332.20 225.10 L 341.96 226.42 L 351.53 228.25 L 360.91 230.57 L 370.22 233.41 L 379.26 236.68 L 388.04 240.39 L 396.57 244.54 L 404.87 249.12 L 412.94 254.14 L 420.69 259.52 L 428.13 265.27 L 435.27 271.39 L 442.11 277.89 L 448.61 284.73 L 454.73 291.87 L 460.48 299.31 L 465.86 307.06 L 470.88 315.13 L 475.46 323.43 L 479.61 331.96 L 483.32 340.74 L 486.59 349.78 L 489.43 359.09 L 491.75 368.47 L 493.58 378.04 L 494.90 387.80 L 495.71 397.79 L 496.00 408.00 Z" fill="url(#linearGradient-4)" fill-rule="evenodd" group-id="1,2,5,12,19" node-id="219" stroke="none" target-height="368" target-width="368" target-x="128" target-y="224"></path></g><path d="M 496.00 408.00 L 495.71 418.21 L 494.90 428.20 L 493.58 437.96 L 491.75 447.53 L 489.43 456.91 L 486.59 466.22 L 483.32 475.26 L 479.61 484.04 L 475.46 492.57 L 470.88 500.87 L 465.86 508.94 L 460.48 516.69 L 454.73 524.13 L 448.61 531.27 L 442.11 538.11 L 435.27 544.61 L 428.13 550.73 L 420.69 556.48 L 412.94 561.86 L 404.87 566.88 L 396.57 571.46 L 388.04 575.61 L 379.26 579.32 L 370.22 582.59 L 360.91 585.43 L 351.53 587.75 L 341.96 589.58 L 332.20 590.90 L 322.21 591.71 L 312.00 592.00 L 301.79 591.71 L 291.80 590.90 L 282.04 589.58 L 272.47 587.75 L 263.09 585.43 L 253.78 582.59 L 244.74 579.32 L 235.96 575.61 L 227.43 571.46 L 219.13 566.88 L 211.06 561.86 L 203.31 556.48 L 195.87 550.73 L 188.73 544.61 L 181.89 538.11 L 175.39 531.27 L 169.27 524.13 L 163.52 516.69 L 158.14 508.94 L 153.12 500.87 L 148.54 492.57 L 144.39 484.04 L 140.68 475.26 L 137.41 466.22 L 134.57 456.91 L 132.25 447.53 L 130.42 437.96 L 129.10 428.20 L 128.29 418.21 L 128.00 408.00 L 128.29 397.79 L 129.10 387.80 L 130.42 378.04 L 132.25 368.47 L 134.57 359.09 L 137.41 349.78 L 140.68 340.74 L 144.39 331.96 L 148.54 323.43 L 153.12 315.13 L 158.14 307.06 L 163.52 299.31 L 169.27 291.87 L 175.39 284.73 L 181.89 277.89 L 188.73 271.39 L 195.87 265.27 L 203.31 259.52 L 211.06 254.14 L 219.13 249.12 L 227.43 244.54 L 235.96 240.39 L 244.74 236.68 L 253.78 233.41 L 263.09 230.57 L 272.47 228.25 L 282.04 226.42 L 291.80 225.10 L 301.79 224.29 L 312.00 224.00 L 322.21 224.29 L 332.20 225.10 L 341.96 226.42 L 351.53 228.25 L 360.91 230.57 L 370.22 233.41 L 379.26 236.68 L 388.04 240.39 L 396.57 244.54 L 404.87 249.12 L 412.94 254.14 L 420.69 259.52 L 428.13 265.27 L 435.27 271.39 L 442.11 277.89 L 448.61 284.73 L 454.73 291.87 L 460.48 299.31 L 465.86 307.06 L 470.88 315.13 L 475.46 323.43 L 479.61 331.96 L 483.32 340.74 L 486.59 349.78 L 489.43 359.09 L 491.75 368.47 L 493.58 378.04 L 494.90 387.80 L 495.71 397.79 L 496.00 408.00 Z" fill="#000000" fill-rule="evenodd" filter="url(#filter-7)" group-id="1,2,5,12,20" node-id="224" stroke="none" target-height="368" target-width="368" target-x="128" target-y="224"></path></g><g node-id="296"><g node-id="304"><path d="M 358.40 414.80 L 358.14 419.58 L 357.45 424.14 L 356.33 428.50 L 354.79 432.71 L 352.83 436.76 L 350.54 440.53 L 347.91 444.05 L 344.93 447.33 L 341.65 450.31 L 338.13 452.94 L 334.36 455.23 L 330.31 457.19 L 326.10 458.73 L 321.74 459.85 L 317.18 460.54 L 312.40 460.80 L 307.62 460.54 L 303.06 459.85 L 298.70 458.73 L 294.49 457.19 L 290.44 455.23 L 286.67 452.94 L 283.15 450.31 L 279.87 447.33 L 276.89 444.05 L 274.26 440.53 L 271.97 436.76 L 270.01 432.71 L 268.47 428.50 L 267.35 424.14 L 266.66 419.58 L 266.40 414.80 L 266.66 410.02 L 267.35 405.46 L 268.47 401.10 L 270.01 396.89 L 271.97 392.84 L 274.26 389.07 L 276.89 385.55 L 279.87 382.27 L 283.15 379.29 L 286.67 376.66 L 290.44 374.37 L 294.49 372.41 L 298.70 370.87 L 303.06 369.75 L 307.62 369.06 L 312.40 368.80 L 317.18 369.06 L 321.74 369.75 L 326.10 370.87 L 330.31 372.41 L 334.36 374.37 L 338.13 376.66 L 341.65 379.29 L 344.93 382.27 L 347.91 385.55 L 350.54 389.07 L 352.83 392.84 L 354.79 396.89 L 356.33 401.10 L 357.45 405.46 L 358.14 410.02 L 358.40 414.80 Z" fill="#930027" fill-rule="evenodd" group-id="1,2,5,13,21" node-id="231" stroke="none" target-height="92" target-width="92" target-x="266.4" target-y="368.8"></path></g><path d="M 358.40 414.80 L 358.14 419.58 L 357.45 424.14 L 356.33 428.50 L 354.79 432.71 L 352.83 436.76 L 350.54 440.53 L 347.91 444.05 L 344.93 447.33 L 341.65 450.31 L 338.13 452.94 L 334.36 455.23 L 330.31 457.19 L 326.10 458.73 L 321.74 459.85 L 317.18 460.54 L 312.40 460.80 L 307.62 460.54 L 303.06 459.85 L 298.70 458.73 L 294.49 457.19 L 290.44 455.23 L 286.67 452.94 L 283.15 450.31 L 279.87 447.33 L 276.89 444.05 L 274.26 440.53 L 271.97 436.76 L 270.01 432.71 L 268.47 428.50 L 267.35 424.14 L 266.66 419.58 L 266.40 414.80 L 266.66 410.02 L 267.35 405.46 L 268.47 401.10 L 270.01 396.89 L 271.97 392.84 L 274.26 389.07 L 276.89 385.55 L 279.87 382.27 L 283.15 379.29 L 286.67 376.66 L 290.44 374.37 L 294.49 372.41 L 298.70 370.87 L 303.06 369.75 L 307.62 369.06 L 312.40 368.80 L 317.18 369.06 L 321.74 369.75 L 326.10 370.87 L 330.31 372.41 L 334.36 374.37 L 338.13 376.66 L 341.65 379.29 L 344.93 382.27 L 347.91 385.55 L 350.54 389.07 L 352.83 392.84 L 354.79 396.89 L 356.33 401.10 L 357.45 405.46 L 358.14 410.02 L 358.40 414.80 Z" fill="#000000" fill-rule="evenodd" filter="url(#filter-9)" group-id="1,2,5,13,22" node-id="236" stroke="none" target-height="92" target-width="92" target-x="266.4" target-y="368.8"></path></g><path d="M 340.00 414.80 L 339.74 418.59 L 339.01 422.16 L 337.83 425.54 L 336.22 428.75 L 334.25 431.66 L 331.92 434.32 L 329.26 436.65 L 326.35 438.62 L 323.14 440.23 L 319.76 441.41 L 316.19 442.14 L 312.40 442.40 L 308.61 442.14 L 305.04 441.41 L 301.66 440.23 L 298.45 438.62 L 295.54 436.65 L 292.88 434.32 L 290.55 431.66 L 288.58 428.75 L 286.97 425.54 L 285.79 422.16 L 285.06 418.59 L 284.80 414.80 L 285.06 411.01 L 285.79 407.44 L 286.97 404.06 L 288.58 400.85 L 290.55 397.94 L 292.88 395.28 L 295.54 392.95 L 298.45 390.98 L 301.66 389.37 L 305.04 388.19 L 308.61 387.46 L 312.40 387.20 L 316.19 387.46 L 319.76 388.19 L 323.14 389.37 L 326.35 390.98 L 329.26 392.95 L 331.92 395.28 L 334.25 397.94 L 336.22 400.85 L 337.83 404.06 L 339.01 407.44 L 339.74 411.01 L 340.00 414.80 Z" fill="#301502" fill-rule="evenodd" group-id="1,2,5" id="椭圆形" node-id="75" stroke="none" target-height="55.19998" target-width="55.200012" target-x="284.8" target-y="387.2"></path></g><g node-id="289"><g node-id="297"><g node-id="306"><path d="M 896.00 408.00 L 895.71 418.21 L 894.90 428.20 L 893.58 437.96 L 891.75 447.53 L 889.43 456.91 L 886.59 466.22 L 883.32 475.26 L 879.61 484.04 L 875.46 492.57 L 870.88 500.87 L 865.86 508.94 L 860.48 516.69 L 854.73 524.13 L 848.61 531.27 L 842.11 538.11 L 835.27 544.61 L 828.13 550.73 L 820.69 556.48 L 812.94 561.86 L 804.87 566.88 L 796.57 571.46 L 788.04 575.61 L 779.26 579.32 L 770.22 582.59 L 760.91 585.43 L 751.53 587.75 L 741.96 589.58 L 732.20 590.90 L 722.21 591.71 L 712.00 592.00 L 701.79 591.71 L 691.80 590.90 L 682.04 589.58 L 672.47 587.75 L 663.09 585.43 L 653.78 582.59 L 644.74 579.32 L 635.96 575.61 L 627.43 571.46 L 619.13 566.88 L 611.06 561.86 L 603.31 556.48 L 595.87 550.73 L 588.73 544.61 L 581.89 538.11 L 575.39 531.27 L 569.27 524.13 L 563.52 516.69 L 558.14 508.94 L 553.12 500.87 L 548.54 492.57 L 544.39 484.04 L 540.68 475.26 L 537.41 466.22 L 534.57 456.91 L 532.25 447.53 L 530.42 437.96 L 529.10 428.20 L 528.29 418.21 L 528.00 408.00 L 528.29 397.79 L 529.10 387.80 L 530.42 378.04 L 532.25 368.47 L 534.57 359.09 L 537.41 349.78 L 540.68 340.74 L 544.39 331.96 L 548.54 323.43 L 553.12 315.13 L 558.14 307.06 L 563.52 299.31 L 569.27 291.87 L 575.39 284.73 L 581.89 277.89 L 588.73 271.39 L 595.87 265.27 L 603.31 259.52 L 611.06 254.14 L 619.13 249.12 L 627.43 244.54 L 635.96 240.39 L 644.74 236.68 L 653.78 233.41 L 663.09 230.57 L 672.47 228.25 L 682.04 226.42 L 691.80 225.10 L 701.79 224.29 L 712.00 224.00 L 722.21 224.29 L 732.20 225.10 L 741.96 226.42 L 751.53 228.25 L 760.91 230.57 L 770.22 233.41 L 779.26 236.68 L 788.04 240.39 L 796.57 244.54 L 804.87 249.12 L 812.94 254.14 L 820.69 259.52 L 828.13 265.27 L 835.27 271.39 L 842.11 277.89 L 848.61 284.73 L 854.73 291.87 L 860.48 299.31 L 865.86 307.06 L 870.88 315.13 L 875.46 323.43 L 879.61 331.96 L 883.32 340.74 L 886.59 349.78 L 889.43 359.09 L 891.75 368.47 L 893.58 378.04 L 894.90 387.80 L 895.71 397.79 L 896.00 408.00 Z" fill="#000000" fill-rule="evenodd" filter="url(#filter-11)" group-id="1,2,6,14,23" node-id="246" stroke="none" target-height="368" target-width="368" target-x="528" target-y="224"></path></g><g node-id="307"><path d="M 896.00 408.00 L 895.71 418.21 L 894.90 428.20 L 893.58 437.96 L 891.75 447.53 L 889.43 456.91 L 886.59 466.22 L 883.32 475.26 L 879.61 484.04 L 875.46 492.57 L 870.88 500.87 L 865.86 508.94 L 860.48 516.69 L 854.73 524.13 L 848.61 531.27 L 842.11 538.11 L 835.27 544.61 L 828.13 550.73 L 820.69 556.48 L 812.94 561.86 L 804.87 566.88 L 796.57 571.46 L 788.04 575.61 L 779.26 579.32 L 770.22 582.59 L 760.91 585.43 L 751.53 587.75 L 741.96 589.58 L 732.20 590.90 L 722.21 591.71 L 712.00 592.00 L 701.79 591.71 L 691.80 590.90 L 682.04 589.58 L 672.47 587.75 L 663.09 585.43 L 653.78 582.59 L 644.74 579.32 L 635.96 575.61 L 627.43 571.46 L 619.13 566.88 L 611.06 561.86 L 603.31 556.48 L 595.87 550.73 L 588.73 544.61 L 581.89 538.11 L 575.39 531.27 L 569.27 524.13 L 563.52 516.69 L 558.14 508.94 L 553.12 500.87 L 548.54 492.57 L 544.39 484.04 L 540.68 475.26 L 537.41 466.22 L 534.57 456.91 L 532.25 447.53 L 530.42 437.96 L 529.10 428.20 L 528.29 418.21 L 528.00 408.00 L 528.29 397.79 L 529.10 387.80 L 530.42 378.04 L 532.25 368.47 L 534.57 359.09 L 537.41 349.78 L 540.68 340.74 L 544.39 331.96 L 548.54 323.43 L 553.12 315.13 L 558.14 307.06 L 563.52 299.31 L 569.27 291.87 L 575.39 284.73 L 581.89 277.89 L 588.73 271.39 L 595.87 265.27 L 603.31 259.52 L 611.06 254.14 L 619.13 249.12 L 627.43 244.54 L 635.96 240.39 L 644.74 236.68 L 653.78 233.41 L 663.09 230.57 L 672.47 228.25 L 682.04 226.42 L 691.80 225.10 L 701.79 224.29 L 712.00 224.00 L 722.21 224.29 L 732.20 225.10 L 741.96 226.42 L 751.53 228.25 L 760.91 230.57 L 770.22 233.41 L 779.26 236.68 L 788.04 240.39 L 796.57 244.54 L 804.87 249.12 L 812.94 254.14 L 820.69 259.52 L 828.13 265.27 L 835.27 271.39 L 842.11 277.89 L 848.61 284.73 L 854.73 291.87 L 860.48 299.31 L 865.86 307.06 L 870.88 315.13 L 875.46 323.43 L 879.61 331.96 L 883.32 340.74 L 886.59 349.78 L 889.43 359.09 L 891.75 368.47 L 893.58 378.04 L 894.90 387.80 L 895.71 397.79 L 896.00 408.00 Z" fill="url(#linearGradient-4)" fill-rule="evenodd" group-id="1,2,6,14,24" node-id="251" stroke="none" target-height="368" target-width="368" target-x="528" target-y="224"></path></g><path d="M 896.00 408.00 L 895.71 418.21 L 894.90 428.20 L 893.58 437.96 L 891.75 447.53 L 889.43 456.91 L 886.59 466.22 L 883.32 475.26 L 879.61 484.04 L 875.46 492.57 L 870.88 500.87 L 865.86 508.94 L 860.48 516.69 L 854.73 524.13 L 848.61 531.27 L 842.11 538.11 L 835.27 544.61 L 828.13 550.73 L 820.69 556.48 L 812.94 561.86 L 804.87 566.88 L 796.57 571.46 L 788.04 575.61 L 779.26 579.32 L 770.22 582.59 L 760.91 585.43 L 751.53 587.75 L 741.96 589.58 L 732.20 590.90 L 722.21 591.71 L 712.00 592.00 L 701.79 591.71 L 691.80 590.90 L 682.04 589.58 L 672.47 587.75 L 663.09 585.43 L 653.78 582.59 L 644.74 579.32 L 635.96 575.61 L 627.43 571.46 L 619.13 566.88 L 611.06 561.86 L 603.31 556.48 L 595.87 550.73 L 588.73 544.61 L 581.89 538.11 L 575.39 531.27 L 569.27 524.13 L 563.52 516.69 L 558.14 508.94 L 553.12 500.87 L 548.54 492.57 L 544.39 484.04 L 540.68 475.26 L 537.41 466.22 L 534.57 456.91 L 532.25 447.53 L 530.42 437.96 L 529.10 428.20 L 528.29 418.21 L 528.00 408.00 L 528.29 397.79 L 529.10 387.80 L 530.42 378.04 L 532.25 368.47 L 534.57 359.09 L 537.41 349.78 L 540.68 340.74 L 544.39 331.96 L 548.54 323.43 L 553.12 315.13 L 558.14 307.06 L 563.52 299.31 L 569.27 291.87 L 575.39 284.73 L 581.89 277.89 L 588.73 271.39 L 595.87 265.27 L 603.31 259.52 L 611.06 254.14 L 619.13 249.12 L 627.43 244.54 L 635.96 240.39 L 644.74 236.68 L 653.78 233.41 L 663.09 230.57 L 672.47 228.25 L 682.04 226.42 L 691.80 225.10 L 701.79 224.29 L 712.00 224.00 L 722.21 224.29 L 732.20 225.10 L 741.96 226.42 L 751.53 228.25 L 760.91 230.57 L 770.22 233.41 L 779.26 236.68 L 788.04 240.39 L 796.57 244.54 L 804.87 249.12 L 812.94 254.14 L 820.69 259.52 L 828.13 265.27 L 835.27 271.39 L 842.11 277.89 L 848.61 284.73 L 854.73 291.87 L 860.48 299.31 L 865.86 307.06 L 870.88 315.13 L 875.46 323.43 L 879.61 331.96 L 883.32 340.74 L 886.59 349.78 L 889.43 359.09 L 891.75 368.47 L 893.58 378.04 L 894.90 387.80 L 895.71 397.79 L 896.00 408.00 Z" fill="#000000" fill-rule="evenodd" filter="url(#filter-12)" group-id="1,2,6,14,25" node-id="256" stroke="none" target-height="368" target-width="368" target-x="528" target-y="224"></path></g><g node-id="298"><g node-id="309"><path d="M 758.40 414.80 L 758.14 419.58 L 757.45 424.14 L 756.33 428.50 L 754.79 432.71 L 752.83 436.76 L 750.54 440.53 L 747.91 444.05 L 744.93 447.33 L 741.65 450.31 L 738.13 452.94 L 734.36 455.23 L 730.31 457.19 L 726.10 458.73 L 721.74 459.85 L 717.18 460.54 L 712.40 460.80 L 707.62 460.54 L 703.06 459.85 L 698.70 458.73 L 694.49 457.19 L 690.44 455.23 L 686.67 452.94 L 683.15 450.31 L 679.87 447.33 L 676.89 444.05 L 674.26 440.53 L 671.97 436.76 L 670.01 432.71 L 668.47 428.50 L 667.35 424.14 L 666.66 419.58 L 666.40 414.80 L 666.66 410.02 L 667.35 405.46 L 668.47 401.10 L 670.01 396.89 L 671.97 392.84 L 674.26 389.07 L 676.89 385.55 L 679.87 382.27 L 683.15 379.29 L 686.67 376.66 L 690.44 374.37 L 694.49 372.41 L 698.70 370.87 L 703.06 369.75 L 707.62 369.06 L 712.40 368.80 L 717.18 369.06 L 721.74 369.75 L 726.10 370.87 L 730.31 372.41 L 734.36 374.37 L 738.13 376.66 L 741.65 379.29 L 744.93 382.27 L 747.91 385.55 L 750.54 389.07 L 752.83 392.84 L 754.79 396.89 L 756.33 401.10 L 757.45 405.46 L 758.14 410.02 L 758.40 414.80 Z" fill="#930027" fill-rule="evenodd" group-id="1,2,6,15,26" node-id="263" stroke="none" target-height="92" target-width="92" target-x="666.4" target-y="368.8"></path></g><path d="M 758.40 414.80 L 758.14 419.58 L 757.45 424.14 L 756.33 428.50 L 754.79 432.71 L 752.83 436.76 L 750.54 440.53 L 747.91 444.05 L 744.93 447.33 L 741.65 450.31 L 738.13 452.94 L 734.36 455.23 L 730.31 457.19 L 726.10 458.73 L 721.74 459.85 L 717.18 460.54 L 712.40 460.80 L 707.62 460.54 L 703.06 459.85 L 698.70 458.73 L 694.49 457.19 L 690.44 455.23 L 686.67 452.94 L 683.15 450.31 L 679.87 447.33 L 676.89 444.05 L 674.26 440.53 L 671.97 436.76 L 670.01 432.71 L 668.47 428.50 L 667.35 424.14 L 666.66 419.58 L 666.40 414.80 L 666.66 410.02 L 667.35 405.46 L 668.47 401.10 L 670.01 396.89 L 671.97 392.84 L 674.26 389.07 L 676.89 385.55 L 679.87 382.27 L 683.15 379.29 L 686.67 376.66 L 690.44 374.37 L 694.49 372.41 L 698.70 370.87 L 703.06 369.75 L 707.62 369.06 L 712.40 368.80 L 717.18 369.06 L 721.74 369.75 L 726.10 370.87 L 730.31 372.41 L 734.36 374.37 L 738.13 376.66 L 741.65 379.29 L 744.93 382.27 L 747.91 385.55 L 750.54 389.07 L 752.83 392.84 L 754.79 396.89 L 756.33 401.10 L 757.45 405.46 L 758.14 410.02 L 758.40 414.80 Z" fill="#000000" fill-rule="evenodd" filter="url(#filter-14)" group-id="1,2,6,15,27" node-id="268" stroke="none" target-height="92" target-width="92" target-x="666.4" target-y="368.8"></path></g><path d="M 740.00 414.80 L 739.74 418.59 L 739.01 422.16 L 737.83 425.54 L 736.22 428.75 L 734.25 431.66 L 731.92 434.32 L 729.26 436.65 L 726.35 438.62 L 723.14 440.23 L 719.76 441.41 L 716.19 442.14 L 712.40 442.40 L 708.61 442.14 L 705.04 441.41 L 701.66 440.23 L 698.45 438.62 L 695.54 436.65 L 692.88 434.32 L 690.55 431.66 L 688.58 428.75 L 686.97 425.54 L 685.79 422.16 L 685.06 418.59 L 684.80 414.80 L 685.06 411.01 L 685.79 407.44 L 686.97 404.06 L 688.58 400.85 L 690.55 397.94 L 692.88 395.28 L 695.54 392.95 L 698.45 390.98 L 701.66 389.37 L 705.04 388.19 L 708.61 387.46 L 712.40 387.20 L 716.19 387.46 L 719.76 388.19 L 723.14 389.37 L 726.35 390.98 L 729.26 392.95 L 731.92 395.28 L 734.25 397.94 L 736.22 400.85 L 737.83 404.06 L 739.01 407.44 L 739.74 411.01 L 740.00 414.80 Z" fill="#301502" fill-rule="evenodd" group-id="1,2,6" id="椭圆形" node-id="84" stroke="none" target-height="55.19998" target-width="55.200012" target-x="684.8" target-y="387.2"></path></g><g node-id="290"><g node-id="299"><path d="M 528.00 672.00 L 528.00 672.00 L 532.40 672.30 L 536.53 673.15 L 540.46 674.51 L 544.17 676.38 L 547.55 678.66 L 550.63 681.37 L 553.34 684.45 L 555.62 687.83 L 557.49 691.54 L 558.85 695.47 L 559.70 699.60 L 560.00 704.00 L 560.00 704.00 L 559.70 708.40 L 558.85 712.53 L 557.49 716.46 L 555.62 720.17 L 553.34 723.55 L 550.63 726.63 L 547.55 729.34 L 544.17 731.62 L 540.46 733.49 L 536.53 734.85 L 532.40 735.70 L 528.00 736.00 L 528.00 736.00 L 523.60 735.70 L 519.47 734.85 L 515.54 733.49 L 511.83 731.62 L 508.45 729.34 L 505.37 726.63 L 502.66 723.55 L 500.38 720.17 L 498.51 716.46 L 497.15 712.53 L 496.30 708.40 L 496.00 704.00 L 496.00 704.00 L 496.30 699.60 L 497.15 695.47 L 498.51 691.54 L 500.38 687.83 L 502.66 684.45 L 505.37 681.37 L 508.45 678.66 L 511.83 676.38 L 515.54 674.51 L 519.47 673.15 L 523.60 672.30 L 528.00 672.00 Z" fill="#ed1f2a" fill-rule="evenodd" group-id="1,2,7,16" node-id="277" stroke="none" target-height="64" target-width="64" target-x="496" target-y="672"></path></g><path d="M 528.00 672.00 L 528.00 672.00 L 532.40 672.30 L 536.53 673.15 L 540.46 674.51 L 544.17 676.38 L 547.55 678.66 L 550.63 681.37 L 553.34 684.45 L 555.62 687.83 L 557.49 691.54 L 558.85 695.47 L 559.70 699.60 L 560.00 704.00 L 560.00 704.00 L 559.70 708.40 L 558.85 712.53 L 557.49 716.46 L 555.62 720.17 L 553.34 723.55 L 550.63 726.63 L 547.55 729.34 L 544.17 731.62 L 540.46 733.49 L 536.53 734.85 L 532.40 735.70 L 528.00 736.00 L 528.00 736.00 L 523.60 735.70 L 519.47 734.85 L 515.54 733.49 L 511.83 731.62 L 508.45 729.34 L 505.37 726.63 L 502.66 723.55 L 500.38 720.17 L 498.51 716.46 L 497.15 712.53 L 496.30 708.40 L 496.00 704.00 L 496.00 704.00 L 496.30 699.60 L 497.15 695.47 L 498.51 691.54 L 500.38 687.83 L 502.66 684.45 L 505.37 681.37 L 508.45 678.66 L 511.83 676.38 L 515.54 674.51 L 519.47 673.15 L 523.60 672.30 L 528.00 672.00 Z" fill="#000000" fill-rule="evenodd" filter="url(#filter-16)" group-id="1,2,7,17" node-id="282" stroke="none" target-height="64" target-width="64" target-x="496" target-y="672"></path></g><g node-id="291"><path d="M 912.00 624.00 L 911.69 630.63 L 910.84 637.04 L 909.44 643.25 L 907.51 649.29 L 905.07 655.15 L 902.18 660.76 L 898.84 666.12 L 895.02 671.25 L 890.82 676.06 L 886.26 680.54 L 881.31 684.71 L 875.97 688.56 L 870.38 692.00 L 864.50 695.04 L 858.32 697.68 L 851.81 699.92 L 845.20 701.67 L 838.38 702.94 L 831.32 703.72 L 824.00 704.00 L 816.68 703.72 L 809.62 702.94 L 802.80 701.67 L 796.19 699.92 L 789.68 697.68 L 783.50 695.04 L 777.62 692.00 L 772.03 688.56 L 766.69 684.71 L 761.74 680.54 L 757.18 676.06 L 752.98 671.25 L 749.16 666.12 L 745.82 660.76 L 742.93 655.15 L 740.49 649.29 L 738.56 643.25 L 737.16 637.04 L 736.31 630.63 L 736.00 624.00 L 736.31 617.37 L 737.16 610.96 L 738.56 604.75 L 740.49 598.71 L 742.93 592.85 L 745.82 587.24 L 749.16 581.88 L 752.98 576.75 L 757.18 571.94 L 761.74 567.46 L 766.69 563.29 L 772.03 559.44 L 777.62 556.00 L 783.50 552.96 L 789.68 550.32 L 796.19 548.08 L 802.80 546.33 L 809.62 545.06 L 816.68 544.28 L 824.00 544.00 L 831.32 544.28 L 838.38 545.06 L 845.20 546.33 L 851.81 548.08 L 858.32 550.32 L 864.50 552.96 L 870.38 556.00 L 875.97 559.44 L 881.31 563.29 L 886.26 567.46 L 890.82 571.94 L 895.02 576.75 L 898.84 581.88 L 902.18 587.24 L 905.07 592.85 L 907.51 598.71 L 909.44 604.75 L 910.84 610.96 L 911.69 617.37 L 912.00 624.00 Z" fill="#ff5ea4" fill-opacity="0.8" fill-rule="evenodd" filter="url(#filter-17)" group-id="1,2,8" id="椭圆形" node-id="88" stroke="none" target-height="160" target-width="176" target-x="736" target-y="544"></path></g><path d="M 320.00 640.00 L 319.69 646.63 L 318.84 653.04 L 317.44 659.25 L 315.51 665.29 L 313.07 671.15 L 310.18 676.76 L 306.84 682.12 L 303.02 687.25 L 298.82 692.06 L 294.26 696.54 L 289.31 700.71 L 283.97 704.56 L 278.38 708.00 L 272.50 711.04 L 266.32 713.68 L 259.81 715.92 L 253.20 717.67 L 246.38 718.94 L 239.32 719.72 L 232.00 720.00 L 224.68 719.72 L 217.62 718.94 L 210.80 717.67 L 204.19 715.92 L 197.68 713.68 L 191.50 711.04 L 185.62 708.00 L 180.03 704.56 L 174.69 700.71 L 169.74 696.54 L 165.18 692.06 L 160.98 687.25 L 157.16 682.12 L 153.82 676.76 L 150.93 671.15 L 148.49 665.29 L 146.56 659.25 L 145.16 653.04 L 144.31 646.63 L 144.00 640.00 L 144.31 633.37 L 145.16 626.96 L 146.56 620.75 L 148.49 614.71 L 150.93 608.85 L 153.82 603.24 L 157.16 597.88 L 160.98 592.75 L 165.18 587.94 L 169.74 583.46 L 174.69 579.29 L 180.03 575.44 L 185.62 572.00 L 191.50 568.96 L 197.68 566.32 L 204.19 564.08 L 210.80 562.33 L 217.62 561.06 L 224.68 560.28 L 232.00 560.00 L 239.32 560.28 L 246.38 561.06 L 253.20 562.33 L 259.81 564.08 L 266.32 566.32 L 272.50 568.96 L 278.38 572.00 L 283.97 575.44 L 289.31 579.29 L 294.26 583.46 L 298.82 587.94 L 303.02 592.75 L 306.84 597.88 L 310.18 603.24 L 313.07 608.85 L 315.51 614.71 L 317.44 620.75 L 318.84 626.96 L 319.69 633.37 L 320.00 640.00 Z" fill="#ff5ea4" fill-opacity="0.8" fill-rule="evenodd" filter="url(#filter-18)" group-id="1,2,9" id="椭圆形备份-6" node-id="89" stroke="none" target-height="160" target-width="176" target-x="144" target-y="560"></path></g><path d="M 907.86 344.32 L 904.06 345.20 L 900.57 346.53 L 897.34 348.30 L 894.37 350.49 L 891.76 353.00 L 889.46 355.86 L 887.55 358.98 L 886.05 362.32 L 884.95 365.91 L 884.32 369.60 L 884.17 373.41 L 884.53 377.37 L 885.42 381.25 L 886.73 384.83 L 888.47 388.15 L 890.62 391.22 L 893.08 393.93 L 895.87 396.31 L 898.93 398.32 L 902.20 399.90 L 905.70 401.06 L 909.31 401.75 L 913.05 401.94 L 916.93 401.60 L 920.73 400.72 L 924.22 399.39 L 927.45 397.62 L 930.41 395.43 L 933.03 392.92 L 935.33 390.06 L 937.24 386.94 L 938.74 383.60 L 939.84 380.01 L 940.47 376.32 L 940.61 372.51 L 940.26 368.55 L 939.37 364.67 L 938.06 361.09 L 936.32 357.77 L 934.17 354.70 L 931.71 351.99 L 928.92 349.61 L 925.85 347.60 L 922.59 346.02 L 919.09 344.85 L 915.47 344.17 L 911.74 343.98 L 907.86 344.32 Z M 852.47 40.57 L 845.43 41.96 L 838.66 43.79 L 832.13 46.07 L 825.84 48.80 L 819.73 51.97 L 813.91 55.51 L 808.36 59.42 L 803.07 63.72 L 798.07 68.35 L 793.39 73.29 L 789.03 78.53 L 784.97 84.09 L 781.28 89.89 L 777.95 95.91 L 774.98 102.17 L 772.37 108.69 L 770.18 115.34 L 768.41 122.14 L 767.05 129.12 L 766.10 136.29 L 765.62 143.47 L 765.60 150.74 L 766.05 158.14 L 766.98 165.66 L 767.69 168.84 L 768.69 171.71 L 769.97 174.30 L 771.53 176.64 L 773.39 178.77 L 775.45 180.58 L 777.72 182.07 L 780.22 183.27 L 782.85 184.10 L 785.62 184.58 L 788.57 184.69 L 791.74 184.41 L 794.84 183.70 L 797.62 182.68 L 800.11 181.37 L 802.35 179.76 L 804.36 177.85 L 806.06 175.73 L 807.46 173.38 L 808.57 170.77 L 809.33 168.07 L 809.74 165.21 L 809.81 162.17 L 809.50 158.92 L 808.86 153.54 L 808.64 148.28 L 808.81 143.13 L 809.37 138.07 L 810.32 133.03 L 811.60 128.19 L 813.22 123.51 L 815.18 118.98 L 817.47 114.60 L 820.04 110.47 L 822.90 106.57 L 826.04 102.91 L 829.46 99.49 L 833.10 96.39 L 836.98 93.60 L 841.10 91.10 L 845.40 88.96 L 849.88 87.20 L 854.57 85.81 L 859.47 84.80 L 864.45 84.24 L 869.34 84.12 L 874.15 84.41 L 878.90 85.11 L 883.59 86.21 L 888.14 87.67 L 892.56 89.50 L 896.87 91.69 L 900.99 94.21 L 904.90 97.03 L 908.63 100.16 L 912.16 103.62 L 915.42 107.32 L 918.41 111.27 L 921.13 115.48 L 923.58 119.98 L 925.68 124.62 L 927.44 129.47 L 928.85 134.54 L 929.91 139.85 L 930.33 144.98 L 930.33 149.68 L 929.95 154.00 L 929.13 158.24 L 927.85 162.42 L 926.08 166.54 L 923.92 170.48 L 921.14 174.67 L 917.68 179.14 L 911.83 185.71 L 904.12 193.44 L 893.34 203.58 L 887.57 209.20 L 882.64 214.37 L 878.47 219.11 L 874.57 224.09 L 871.38 228.83 L 868.85 233.36 L 866.77 238.11 L 865.26 242.91 L 864.31 247.79 L 863.90 252.75 L 864.01 258.08 L 864.67 263.83 L 873.23 317.84 L 873.93 321.03 L 874.93 323.90 L 876.21 326.49 L 877.77 328.83 L 879.63 330.96 L 881.69 332.76 L 883.96 334.26 L 886.46 335.45 L 889.09 336.29 L 891.86 336.77 L 894.82 336.88 L 897.98 336.59 L 900.68 335.94 L 903.19 334.94 L 905.56 333.58 L 907.78 331.86 L 910.40 329.17 L 912.63 326.08 L 914.48 322.54 L 915.83 318.77 L 916.65 314.85 L 916.95 310.72 L 908.29 255.47 L 908.21 254.04 L 908.44 252.45 L 909.06 250.68 L 910.57 248.02 L 913.32 244.50 L 916.19 241.43 L 919.80 237.93 L 924.20 233.94 L 926.72 231.75 L 935.17 224.11 L 942.56 216.76 L 948.98 209.69 L 953.53 204.09 L 957.54 198.49 L 961.06 192.87 L 964.10 187.24 L 966.73 181.38 L 968.92 175.32 L 970.67 169.03 L 971.96 162.49 L 972.76 155.96 L 973.14 148.98 L 973.05 141.53 L 972.48 133.57 L 971.04 126.07 L 969.18 118.85 L 966.90 111.89 L 964.22 105.18 L 961.10 98.61 L 957.64 92.36 L 953.85 86.41 L 949.71 80.74 L 945.21 75.32 L 940.45 70.26 L 935.42 65.54 L 930.12 61.16 L 924.54 57.11 L 918.77 53.46 L 912.79 50.21 L 906.61 47.33 L 900.25 44.88 L 893.76 42.87 L 887.13 41.30 L 880.34 40.17 L 873.51 39.52 L 866.60 39.37 L 859.59 39.71 L 852.47 40.57 Z" fill="#750020" fill-rule="nonzero" group-id="1,3" id="形状结合" node-id="91" stroke="none" target-height="362.5689" target-width="207.54077" target-x="765.5965" target-y="39.367752"></path></g></svg>