<svg xmlns:xlink="http://www.w3.org/1999/xlink" xmlns="http://www.w3.org/2000/svg" version="1.1" viewBox="0 0 1024 1024" height="1024px" width="1024px">
    <title>叹气</title>
    <defs>
        <radialGradient id="radialGradient-1" gradientTransform="translate(0.500000,0.196690),scale(0.912281,1.000000),rotate(90.000000),translate(-0.500000,-0.196690)" r="93.9392347%" fy="19.6689915%" fx="50%" cy="19.6689915%" cx="50%">
            <stop offset="0%" stop-color="#FFE476"></stop>
            <stop offset="41.3872668%" stop-color="#FCEC6C"></stop>
            <stop offset="100%" stop-color="#FFB02F"></stop>
        </radialGradient>
        <path id="path-2" d="M422.860526,0.378695283 C542.065472,-5.36663195 644.761001,54.6787561 694.047405,152.068162 C826.943351,211.197291 934.794668,352.582382 907.841115,509.747769 C887.627441,627.613119 823.200132,713.730518 728.885037,766.375369 C682.431467,796.437155 616.2001,817.754861 517.849854,827.528265 C238.3427,855.303857 16.9816436,754.504609 0.821620894,502.216832 C-7.14599909,377.82758 43.4225884,293.954402 126.973967,240.88301 C157.596783,85.8704329 269.83599,7.75402708 422.860526,0.378695283 Z"></path>
        <filter id="filter-4" filterUnits="objectBoundingBox" height="117.3%" width="115.8%" y="-8.7%" x="-7.9%">
            <feGaussianBlur result="shadowBlurInner1" in="SourceAlpha" stdDeviation="64"></feGaussianBlur>
            <feOffset result="shadowOffsetInner1" in="shadowBlurInner1" dy="16" dx="0"></feOffset>
            <feComposite result="shadowInnerInner1" k3="1" k2="-1" operator="arithmetic" in2="SourceAlpha" in="shadowOffsetInner1"></feComposite>
            <feColorMatrix in="shadowInnerInner1" type="matrix" values="0 0 0 0 0.968627451   0 0 0 0 0.68627451   0 0 0 0 0.270588235  0 0 0 0.501145583 0"></feColorMatrix>
        </filter>
        <path id="path-5" d="M300.096364,613.364696 C364.209769,602.742791 409.500442,607.119719 435.968382,626.495481 C475.670292,655.559123 456.022123,557.439834 385.240603,549.425587 C338.052923,544.082756 309.67151,565.395793 300.096364,613.364696 Z"></path>
        <filter id="filter-6" filterUnits="objectBoundingBox" height="119.2%" width="110.2%" y="-9.6%" x="-5.1%">
            <feGaussianBlur result="shadowBlurInner1" in="SourceAlpha" stdDeviation="8"></feGaussianBlur>
            <feOffset result="shadowOffsetInner1" in="shadowBlurInner1" dy="0" dx="0"></feOffset>
            <feComposite result="shadowInnerInner1" k3="1" k2="-1" operator="arithmetic" in2="SourceAlpha" in="shadowOffsetInner1"></feComposite>
            <feColorMatrix in="shadowInnerInner1" type="matrix" values="0 0 0 0 0.661258421   0 0 0 0 0.0872254633   0 0 0 0 0.00982776113  0 0 0 1 0"></feColorMatrix>
        </filter>
        <circle r="56" cy="456" cx="254.530858" id="path-7"></circle>
        <filter id="filter-8" filterUnits="objectBoundingBox" height="157.1%" width="157.1%" y="-28.6%" x="-28.6%">
            <feGaussianBlur result="shadowBlurInner1" in="SourceAlpha" stdDeviation="16"></feGaussianBlur>
            <feOffset result="shadowOffsetInner1" in="shadowBlurInner1" dy="32" dx="0"></feOffset>
            <feComposite result="shadowInnerInner1" k3="1" k2="-1" operator="arithmetic" in2="SourceAlpha" in="shadowOffsetInner1"></feComposite>
            <feColorMatrix in="shadowInnerInner1" type="matrix" values="0 0 0 0 0.188235294   0 0 0 0 0.0823529412   0 0 0 0 0.00784313725  0 0 0 0.80111673 0"></feColorMatrix>
        </filter>
        <circle r="56" cy="456" cx="526.530858" id="path-9"></circle>
        <filter id="filter-10" filterUnits="objectBoundingBox" height="157.1%" width="157.1%" y="-28.6%" x="-28.6%">
            <feGaussianBlur result="shadowBlurInner1" in="SourceAlpha" stdDeviation="16"></feGaussianBlur>
            <feOffset result="shadowOffsetInner1" in="shadowBlurInner1" dy="32" dx="0"></feOffset>
            <feComposite result="shadowInnerInner1" k3="1" k2="-1" operator="arithmetic" in2="SourceAlpha" in="shadowOffsetInner1"></feComposite>
            <feColorMatrix in="shadowInnerInner1" type="matrix" values="0 0 0 0 0.188235294   0 0 0 0 0.0823529412   0 0 0 0 0.00784313725  0 0 0 0.80111673 0"></feColorMatrix>
        </filter>
        <filter id="filter-11" filterUnits="objectBoundingBox" height="280.0%" width="263.6%" y="-90.0%" x="-81.8%">
            <feGaussianBlur in="SourceGraphic" stdDeviation="48"></feGaussianBlur>
        </filter>
        <filter id="filter-12" filterUnits="objectBoundingBox" height="280.0%" width="263.6%" y="-90.0%" x="-81.8%">
            <feGaussianBlur in="SourceGraphic" stdDeviation="48"></feGaussianBlur>
        </filter>
        <radialGradient id="radialGradient-13" gradientTransform="translate(0.433590,0.588309),scale(1.000000,0.562662),rotate(92.127203),translate(-0.433590,-0.588309)" r="133.245588%" fy="58.8309205%" fx="43.3589845%" cy="58.8309205%" cx="43.3589845%">
            <stop offset="0%" stop-color="#FFFFFF"></stop>
            <stop offset="100%" stop-color="#D8E2EC"></stop>
        </radialGradient>
        <path id="path-14" d="M238.632045,3.58562691 C240.476551,6.29529471 240.529646,9.84323591 238.767048,12.6068838 L168.730109,122.417891 C169.863377,122.349879 171.005487,122.315393 172.155498,122.315393 C203.84845,122.315393 229.540664,148.506834 229.540664,180.815614 C229.540664,213.124394 203.84845,239.315835 172.155498,239.315835 C140.462546,239.315835 114.770332,213.124394 114.770332,180.815614 C114.770332,157.511255 128.137356,137.389597 147.481683,127.98395 L105.399289,84.3619021 L227.242194,1.42188172 C230.984917,-1.12583708 236.084327,-0.157095354 238.632045,3.58562691 Z"></path>
        <filter id="filter-15" filterUnits="objectBoundingBox" height="120.1%" width="135.6%" y="-10.0%" x="-17.8%">
            <feGaussianBlur result="shadowBlurInner1" in="SourceAlpha" stdDeviation="16"></feGaussianBlur>
            <feOffset result="shadowOffsetInner1" in="shadowBlurInner1" dy="-16" dx="0"></feOffset>
            <feComposite result="shadowInnerInner1" k3="1" k2="-1" operator="arithmetic" in2="SourceAlpha" in="shadowOffsetInner1"></feComposite>
            <feColorMatrix in="shadowInnerInner1" type="matrix" values="0 0 0 0 0.690694669   0 0 0 0 0.844547837   0 0 0 0 1  0 0 0 0.990685096 0"></feColorMatrix>
        </filter>
        <radialGradient id="radialGradient-16" gradientTransform="translate(0.433590,0.588309),scale(1.000000,0.770738),rotate(92.912687),translate(-0.433590,-0.588309)" r="97.3319437%" fy="58.8309205%" fx="43.3589845%" cy="58.8309205%" cx="43.3589845%">
            <stop offset="0%" stop-color="#FFFFFF"></stop>
            <stop offset="100%" stop-color="#D8E2EC"></stop>
        </radialGradient>
        <path id="path-17" d="M57.385166,22.0293002 C87.4409278,22.0293002 112.099909,45.5846461 114.567365,75.5742534 C152.520589,86.4189776 180.353379,121.946616 180.353379,164.101265 C180.353379,214.872205 139.9799,256.030184 90.1766895,256.030184 C40.3734791,256.030184 0,214.872205 0,164.101265 C0,146.948326 4.60832252,130.892633 12.6316859,117.150653 C4.72951519,107.12756 0,94.3915917 0,80.5295211 C0,48.2207412 25.692214,22.0293002 57.385166,22.0293002 Z"></path>
        <filter id="filter-18" filterUnits="objectBoundingBox" height="120.5%" width="126.6%" y="-10.3%" x="-13.3%">
            <feGaussianBlur result="shadowBlurInner1" in="SourceAlpha" stdDeviation="16"></feGaussianBlur>
            <feOffset result="shadowOffsetInner1" in="shadowBlurInner1" dy="-16" dx="0"></feOffset>
            <feComposite result="shadowInnerInner1" k3="1" k2="-1" operator="arithmetic" in2="SourceAlpha" in="shadowOffsetInner1"></feComposite>
            <feColorMatrix in="shadowInnerInner1" type="matrix" values="0 0 0 0 0.690694669   0 0 0 0 0.844547837   0 0 0 0 1  0 0 0 0.990685096 0"></feColorMatrix>
        </filter>
    </defs>
    <g fill-rule="evenodd" fill="none" stroke-width="1" stroke="none" id="上传尺寸">
        <g id="叹气">
            <rect height="1024" width="1024" y="0" x="0" id="矩形备份-7"></rect>
            <g transform="translate(64.000000, 80.000000)" id="路径-86-+-路径-86备份-蒙版">
                <mask fill="white" id="mask-3">
                    <use xlink:href="#path-2"></use>
                </mask>
                <g id="蒙版">
                    <use xlink:href="#path-2" fill-rule="evenodd" fill="url(#radialGradient-1)"></use>
                    <use xlink:href="#path-2" filter="url(#filter-4)" fill-opacity="1" fill="black"></use>
                </g>
                <g mask="url(#mask-3)" id="路径-131">
                    <use xlink:href="#path-5" fill-rule="evenodd" fill="#ED1F2A"></use>
                    <use xlink:href="#path-5" filter="url(#filter-6)" fill-opacity="1" fill="black"></use>
                </g>
                <g mask="url(#mask-3)" id="椭圆形备份-16">
                    <use xlink:href="#path-7" fill-rule="evenodd" fill="#833B0A"></use>
                    <use xlink:href="#path-7" filter="url(#filter-8)" fill-opacity="1" fill="black"></use>
                </g>
                <g mask="url(#mask-3)" id="椭圆形备份-20">
                    <use xlink:href="#path-9" fill-rule="evenodd" fill="#833B0A"></use>
                    <use xlink:href="#path-9" filter="url(#filter-10)" fill-opacity="1" fill="black"></use>
                </g>
                <path mask="url(#mask-3)" fill-rule="nonzero" fill="#A05400" id="路径-85" d="M321.208015,256.258328 C327.864608,257.669264 331.686787,262.687892 330.864666,268.926242 C323.981188,321.158884 310.530858,336.75226 277.822636,356.599732 C253.267213,371.500055 194.884243,371.243258 158.743901,362.751716 C153.040915,361.411742 149.486878,355.628274 150.805737,349.833979 C152.124596,344.039685 157.703858,340.64262 163.519911,341.76872 C205.175176,349.833979 240.142483,343.056112 261.713446,329.512626 C284.916302,314.944545 290.102659,308.107305 305.540981,264.639578 C307.350429,259.544944 314.551423,254.847393 321.208015,256.258328 Z"></path>
                <path mask="url(#mask-3)" fill-rule="nonzero" fill="#A05400" id="路径" d="M432.297944,256.258328 C425.641352,257.669264 421.819172,262.687892 422.641293,268.926242 C429.524772,321.158884 442.975102,336.75226 475.683323,356.599732 C500.238746,371.500055 558.621716,371.243258 594.762058,362.751716 C600.465044,361.411742 604.019081,355.628274 602.700223,349.833979 C601.381364,344.039685 595.802102,340.64262 589.986048,341.76872 C548.330783,349.833979 513.363477,343.056112 491.792513,329.512626 L487.239722,326.594298 C473.577888,317.610082 466.812806,310.631085 458.994443,293.181423 L456.481201,287.308396 L456.481201,287.308396 L453.8423,280.651952 L453.8423,280.651952 L451.022104,273.124782 L451.022104,273.124782 L447.964979,264.639578 L447.964979,264.639578 C446.15553,259.544944 438.954537,254.847393 432.297944,256.258328 Z"></path>
                <ellipse ry="80" rx="88" cy="528" cx="750.530858" mask="url(#mask-3)" filter="url(#filter-11)" fill="#FF5EA4" fill-opacity="0.8" id="椭圆形"></ellipse>
                <ellipse ry="80" rx="88" cy="544" cx="158.530858" mask="url(#mask-3)" filter="url(#filter-12)" fill="#FF5EA4" fill-opacity="0.8" id="椭圆形备份-6"></ellipse>
            </g>
            <g transform="translate(192.000000, 703.969816)" id="编组-12">
                <g id="形状结合">
                    <use xlink:href="#path-14" fill-rule="evenodd" fill="url(#radialGradient-13)"></use>
                    <use xlink:href="#path-14" filter="url(#filter-15)" fill-opacity="1" fill="black"></use>
                </g>
                <g id="椭圆形-2">
                    <use xlink:href="#path-17" fill-rule="evenodd" fill="url(#radialGradient-16)"></use>
                    <use xlink:href="#path-17" filter="url(#filter-18)" fill-opacity="1" fill="black"></use>
                </g>
            </g>
        </g>
    </g>
</svg>