<?xml version="1.0" standalone="no"?><!DOCTYPE svg PUBLIC "-//W3C//DTD SVG 1.1//EN" "http://www.w3.org/Graphics/SVG/1.1/DTD/svg11.dtd"><svg height="1024" node-id="1" sillyvg="true" template-height="1024" template-width="1024" version="1.1" viewBox="0 0 1024 1024" width="1024" xmlns="http://www.w3.org/2000/svg" xmlns:xlink="http://www.w3.org/1999/xlink"><defs node-id="74"><radialGradient cx="0.5" cy="0.19668992" fx="0.5" fy="0.19668992" gradientTransform="matrix(0 1 -0.912281 0 0.67943655 -0.30331)" gradientUnits="objectBoundingBox" id="radialGradient-1" node-id="5" r="0.9393923" rev="1" spreadMethod="pad"><stop offset="0" stop-color="#ffe476"></stop><stop offset="0.41387266" stop-color="#fcec6c"></stop><stop offset="1" stop-color="#ffb02f"></stop></radialGradient><filter height="1.173" id="filter-4" node-id="10" width="1.158" x="-0.079" y="-0.087"><feGaussianBlur color-interpolation-filters="linearRGB" in="SourceAlpha" result="shadowBlurInner1" stdDeviation="64 64"></feGaussianBlur><feOffset color-interpolation-filters="linearRGB" dx="0" dy="16" in="shadowBlurInner1" result="shadowOffsetInner1"></feOffset><feComposite color-interpolation-filters="linearRGB" in="shadowOffsetInner1" in2="SourceAlpha" k1="0" k2="-1" k3="1" k4="0" operator="arithmetic" result="shadowInnerInner1"></feComposite><feColorMatrix color-interpolation-filters="linearRGB" in="shadowInnerInner1" result="result4" type="matrix" values="0 0 0 0 0.968627451 0 0 0 0 0.68627451 0 0 0 0 0.270588235 0 0 0 0.501145583 0"></feColorMatrix></filter><filter height="1.571" id="filter-6" node-id="16" width="1.571" x="-0.286" y="-0.286"><feGaussianBlur color-interpolation-filters="linearRGB" in="SourceAlpha" result="shadowBlurInner1" stdDeviation="16 16"></feGaussianBlur><feOffset color-interpolation-filters="linearRGB" dx="0" dy="32" in="shadowBlurInner1" result="shadowOffsetInner1"></feOffset><feComposite color-interpolation-filters="linearRGB" in="shadowOffsetInner1" in2="SourceAlpha" k1="0" k2="-1" k3="1" k4="0" operator="arithmetic" result="shadowInnerInner1"></feComposite><feColorMatrix color-interpolation-filters="linearRGB" in="shadowInnerInner1" result="result4" type="matrix" values="0 0 0 0 0.188235294 0 0 0 0 0.0823529412 0 0 0 0 0.00784313725 0 0 0 0.80111673 0"></feColorMatrix></filter><filter height="1.571" id="filter-8" node-id="22" width="1.571" x="-0.286" y="-0.286"><feGaussianBlur color-interpolation-filters="linearRGB" in="SourceAlpha" result="shadowBlurInner1" stdDeviation="16 16"></feGaussianBlur><feOffset color-interpolation-filters="linearRGB" dx="0" dy="32" in="shadowBlurInner1" result="shadowOffsetInner1"></feOffset><feComposite color-interpolation-filters="linearRGB" in="shadowOffsetInner1" in2="SourceAlpha" k1="0" k2="-1" k3="1" k4="0" operator="arithmetic" result="shadowInnerInner1"></feComposite><feColorMatrix color-interpolation-filters="linearRGB" in="shadowInnerInner1" result="result4" type="matrix" values="0 0 0 0 0.188235294 0 0 0 0 0.0823529412 0 0 0 0 0.00784313725 0 0 0 0.80111673 0"></feColorMatrix></filter><filter height="2.8" id="filter-9" node-id="27" width="2.636" x="-0.818" y="-0.9"><feGaussianBlur color-interpolation-filters="linearRGB" in="SourceGraphic" result="result1" stdDeviation="48 48"></feGaussianBlur></filter><filter height="1.238" id="filter-11" node-id="30" width="1.25" x="-0.125" y="-0.119"><feGaussianBlur color-interpolation-filters="linearRGB" in="SourceAlpha" result="shadowBlurInner1" stdDeviation="40 40"></feGaussianBlur><feOffset color-interpolation-filters="linearRGB" dx="0" dy="0" in="shadowBlurInner1" result="shadowOffsetInner1"></feOffset><feComposite color-interpolation-filters="linearRGB" in="shadowOffsetInner1" in2="SourceAlpha" k1="0" k2="-1" k3="1" k4="0" operator="arithmetic" result="shadowInnerInner1"></feComposite><feColorMatrix color-interpolation-filters="linearRGB" in="shadowInnerInner1" result="result4" type="matrix" values="0 0 0 0 0.661258421 0 0 0 0 0.0872254633 0 0 0 0 0.00982776113 0 0 0 1 0"></feColorMatrix></filter><filter height="2.8" id="filter-12" node-id="35" width="2.636" x="-0.818" y="-0.9"><feGaussianBlur color-interpolation-filters="linearRGB" in="SourceGraphic" result="result1" stdDeviation="48 48"></feGaussianBlur></filter><filter height="2.5" id="filter-14" node-id="38" width="2.5" x="-0.75" y="-0.75"><feOffset color-interpolation-filters="linearRGB" dx="0" dy="0" in="SourceAlpha" result="shadowOffsetOuter1"></feOffset><feGaussianBlur color-interpolation-filters="linearRGB" in="shadowOffsetOuter1" result="shadowBlurOuter1" stdDeviation="16 16"></feGaussianBlur><feColorMatrix color-interpolation-filters="linearRGB" in="shadowBlurOuter1" result="result3" type="matrix" values="0 0 0 0 1 0 0 0 0 0.948503655 0 0 0 0 0.566824862 0 0 0 1 0"></feColorMatrix></filter><filter height="3" id="filter-15" node-id="42" width="3" x="-1" y="-1"><feGaussianBlur color-interpolation-filters="linearRGB" in="SourceAlpha" result="shadowBlurInner1" stdDeviation="24 24"></feGaussianBlur><feOffset color-interpolation-filters="linearRGB" dx="0" dy="16" in="shadowBlurInner1" result="shadowOffsetInner1"></feOffset><feComposite color-interpolation-filters="linearRGB" in="shadowOffsetInner1" in2="SourceAlpha" k1="0" k2="-1" k3="1" k4="0" operator="arithmetic" result="shadowInnerInner1"></feComposite><feColorMatrix color-interpolation-filters="linearRGB" in="shadowInnerInner1" result="result4" type="matrix" values="0 0 0 0 0.389055335 0 0 0 0 0.164926276 0 0 0 0 0.00720582671 0 0 0 1 0"></feColorMatrix></filter><clipPath id="mask-3_16" node-id="51"><path d="M 486.86 80.38 L 501.27 80.01 L 515.38 80.26 L 529.21 81.12 L 542.78 82.56 L 556.11 84.60 L 569.45 87.25 L 582.45 90.45 L 595.14 94.18 L 607.52 98.44 L 619.62 103.24 L 631.55 108.62 L 643.10 114.48 L 654.29 120.81 L 665.13 127.63 L 675.63 134.95 L 685.80 142.75 L 695.54 150.99 L 704.88 159.66 L 713.82 168.77 L 722.36 178.34 L 730.43 188.28 L 738.02 198.61 L 745.16 209.35 L 751.83 220.49 L 758.05 232.07 L 769.36 237.33 L 780.52 242.98 L 791.54 249.01 L 802.41 255.43 L 813.15 262.25 L 826.23 271.24 L 838.93 280.74 L 851.27 290.77 L 863.26 301.34 L 872.54 310.15 L 881.50 319.23 L 890.13 328.59 L 898.46 338.24 L 906.47 348.18 L 914.14 358.40 L 921.41 368.85 L 928.28 379.53 L 934.76 390.44 L 940.86 401.61 L 946.52 412.99 L 951.71 424.56 L 956.44 436.32 L 960.70 448.28 L 964.49 460.45 L 967.77 472.74 L 970.50 485.18 L 972.70 497.79 L 974.35 510.58 L 975.46 523.55 L 975.98 536.48 L 975.88 549.54 L 975.17 562.77 L 973.83 576.16 L 971.84 589.75 L 969.02 604.58 L 965.77 618.95 L 962.10 632.88 L 958.01 646.38 L 953.51 659.47 L 948.61 672.17 L 943.16 684.86 L 937.32 697.16 L 931.10 709.06 L 924.50 720.57 L 917.52 731.73 L 910.15 742.52 L 902.33 753.08 L 894.15 763.28 L 885.61 773.13 L 876.71 782.64 L 867.44 791.81 L 857.79 800.64 L 847.85 809.09 L 837.58 817.20 L 826.95 824.98 L 815.96 832.44 L 804.61 839.57 L 792.88 846.38 L 784.16 851.78 L 774.82 857.07 L 764.83 862.22 L 754.14 867.24 L 743.49 871.78 L 732.08 876.19 L 719.87 880.45 L 706.83 884.56 L 693.95 888.20 L 680.18 891.67 L 665.47 894.97 L 649.78 898.08 L 634.38 900.75 L 617.95 903.23 L 600.46 905.49 L 581.85 907.53 L 560.70 909.39 L 539.95 910.75 L 519.60 911.61 L 499.64 911.98 L 480.05 911.87 L 460.19 911.26 L 440.81 910.15 L 421.90 908.54 L 403.44 906.45 L 385.42 903.89 L 367.22 900.75 L 349.57 897.11 L 332.44 892.98 L 315.82 888.39 L 299.69 883.32 L 286.19 878.59 L 273.10 873.51 L 260.41 868.11 L 248.10 862.37 L 236.16 856.30 L 224.58 849.90 L 213.11 843.00 L 202.06 835.76 L 191.42 828.18 L 181.17 820.25 L 171.30 811.97 L 161.82 803.34 L 152.67 794.30 L 143.95 784.89 L 135.64 775.11 L 127.74 764.93 L 120.23 754.36 L 113.12 743.39 L 106.56 732.22 L 100.43 720.64 L 94.73 708.62 L 89.45 696.15 L 84.61 683.21 L 80.21 669.77 L 76.46 656.48 L 73.16 642.70 L 70.34 628.41 L 67.99 613.58 L 66.15 598.19 L 64.82 582.22 L 64.14 567.09 L 64.03 552.57 L 64.46 538.63 L 65.41 525.24 L 66.86 512.37 L 68.90 499.28 L 71.42 486.70 L 74.40 474.60 L 77.84 462.97 L 81.72 451.78 L 86.18 440.62 L 91.06 429.89 L 96.35 419.54 L 102.05 409.58 L 108.18 399.98 L 114.77 390.63 L 121.74 381.62 L 129.10 372.93 L 136.85 364.56 L 145.01 356.50 L 153.46 348.81 L 162.28 341.41 L 171.46 334.29 L 181.02 327.45 L 190.97 320.88 L 193.90 307.41 L 197.19 294.46 L 200.84 282.03 L 204.83 270.10 L 209.16 258.63 L 213.83 247.62 L 218.81 237.05 L 224.38 226.41 L 230.26 216.20 L 236.44 206.43 L 242.94 197.08 L 249.74 188.13 L 256.85 179.57 L 264.28 171.38 L 273.46 162.18 L 283.02 153.49 L 292.99 145.29 L 303.37 137.58 L 314.17 130.34 L 325.42 123.58 L 336.87 117.40 L 348.72 111.67 L 360.96 106.40 L 373.62 101.59 L 386.72 97.23 L 400.27 93.34 L 413.70 90.05 L 427.52 87.20 L 441.72 84.79 L 456.34 82.85 L 471.38 81.37 L 486.86 80.38 Z" fill="#000000" fill-rule="evenodd" node-id="153" stroke="none" target-height="831.9669" target-width="911.9464" target-x="64.03111" target-y="80.01346"></path></clipPath><clipPath id="mask-3_15" node-id="51"><path d="M 486.86 80.38 L 501.27 80.01 L 515.38 80.26 L 529.21 81.12 L 542.78 82.56 L 556.11 84.60 L 569.45 87.25 L 582.45 90.45 L 595.14 94.18 L 607.52 98.44 L 619.62 103.24 L 631.55 108.62 L 643.10 114.48 L 654.29 120.81 L 665.13 127.63 L 675.63 134.95 L 685.80 142.75 L 695.54 150.99 L 704.88 159.66 L 713.82 168.77 L 722.36 178.34 L 730.43 188.28 L 738.02 198.61 L 745.16 209.35 L 751.83 220.49 L 758.05 232.07 L 769.36 237.33 L 780.52 242.98 L 791.54 249.01 L 802.41 255.43 L 813.15 262.25 L 826.23 271.24 L 838.93 280.74 L 851.27 290.77 L 863.26 301.34 L 872.54 310.15 L 881.50 319.23 L 890.13 328.59 L 898.46 338.24 L 906.47 348.18 L 914.14 358.40 L 921.41 368.85 L 928.28 379.53 L 934.76 390.44 L 940.86 401.61 L 946.52 412.99 L 951.71 424.56 L 956.44 436.32 L 960.70 448.28 L 964.49 460.45 L 967.77 472.74 L 970.50 485.18 L 972.70 497.79 L 974.35 510.58 L 975.46 523.55 L 975.98 536.48 L 975.88 549.54 L 975.17 562.77 L 973.83 576.16 L 971.84 589.75 L 969.02 604.58 L 965.77 618.95 L 962.10 632.88 L 958.01 646.38 L 953.51 659.47 L 948.61 672.17 L 943.16 684.86 L 937.32 697.16 L 931.10 709.06 L 924.50 720.57 L 917.52 731.73 L 910.15 742.52 L 902.33 753.08 L 894.15 763.28 L 885.61 773.13 L 876.71 782.64 L 867.44 791.81 L 857.79 800.64 L 847.85 809.09 L 837.58 817.20 L 826.95 824.98 L 815.96 832.44 L 804.61 839.57 L 792.88 846.38 L 784.16 851.78 L 774.82 857.07 L 764.83 862.22 L 754.14 867.24 L 743.49 871.78 L 732.08 876.19 L 719.87 880.45 L 706.83 884.56 L 693.95 888.20 L 680.18 891.67 L 665.47 894.97 L 649.78 898.08 L 634.38 900.75 L 617.95 903.23 L 600.46 905.49 L 581.85 907.53 L 560.70 909.39 L 539.95 910.75 L 519.60 911.61 L 499.64 911.98 L 480.05 911.87 L 460.19 911.26 L 440.81 910.15 L 421.90 908.54 L 403.44 906.45 L 385.42 903.89 L 367.22 900.75 L 349.57 897.11 L 332.44 892.98 L 315.82 888.39 L 299.69 883.32 L 286.19 878.59 L 273.10 873.51 L 260.41 868.11 L 248.10 862.37 L 236.16 856.30 L 224.58 849.90 L 213.11 843.00 L 202.06 835.76 L 191.42 828.18 L 181.17 820.25 L 171.30 811.97 L 161.82 803.34 L 152.67 794.30 L 143.95 784.89 L 135.64 775.11 L 127.74 764.93 L 120.23 754.36 L 113.12 743.39 L 106.56 732.22 L 100.43 720.64 L 94.73 708.62 L 89.45 696.15 L 84.61 683.21 L 80.21 669.77 L 76.46 656.48 L 73.16 642.70 L 70.34 628.41 L 67.99 613.58 L 66.15 598.19 L 64.82 582.22 L 64.14 567.09 L 64.03 552.57 L 64.46 538.63 L 65.41 525.24 L 66.86 512.37 L 68.90 499.28 L 71.42 486.70 L 74.40 474.60 L 77.84 462.97 L 81.72 451.78 L 86.18 440.62 L 91.06 429.89 L 96.35 419.54 L 102.05 409.58 L 108.18 399.98 L 114.77 390.63 L 121.74 381.62 L 129.10 372.93 L 136.85 364.56 L 145.01 356.50 L 153.46 348.81 L 162.28 341.41 L 171.46 334.29 L 181.02 327.45 L 190.97 320.88 L 193.90 307.41 L 197.19 294.46 L 200.84 282.03 L 204.83 270.10 L 209.16 258.63 L 213.83 247.62 L 218.81 237.05 L 224.38 226.41 L 230.26 216.20 L 236.44 206.43 L 242.94 197.08 L 249.74 188.13 L 256.85 179.57 L 264.28 171.38 L 273.46 162.18 L 283.02 153.49 L 292.99 145.29 L 303.37 137.58 L 314.17 130.34 L 325.42 123.58 L 336.87 117.40 L 348.72 111.67 L 360.96 106.40 L 373.62 101.59 L 386.72 97.23 L 400.27 93.34 L 413.70 90.05 L 427.52 87.20 L 441.72 84.79 L 456.34 82.85 L 471.38 81.37 L 486.86 80.38 Z" fill="#000000" fill-rule="evenodd" node-id="153" stroke="none" target-height="831.9669" target-width="911.9464" target-x="64.03111" target-y="80.01346"></path></clipPath><clipPath id="mask-3_14" node-id="51"><path d="M 486.86 80.38 L 501.27 80.01 L 515.38 80.26 L 529.21 81.12 L 542.78 82.56 L 556.11 84.60 L 569.45 87.25 L 582.45 90.45 L 595.14 94.18 L 607.52 98.44 L 619.62 103.24 L 631.55 108.62 L 643.10 114.48 L 654.29 120.81 L 665.13 127.63 L 675.63 134.95 L 685.80 142.75 L 695.54 150.99 L 704.88 159.66 L 713.82 168.77 L 722.36 178.34 L 730.43 188.28 L 738.02 198.61 L 745.16 209.35 L 751.83 220.49 L 758.05 232.07 L 769.36 237.33 L 780.52 242.98 L 791.54 249.01 L 802.41 255.43 L 813.15 262.25 L 826.23 271.24 L 838.93 280.74 L 851.27 290.77 L 863.26 301.34 L 872.54 310.15 L 881.50 319.23 L 890.13 328.59 L 898.46 338.24 L 906.47 348.18 L 914.14 358.40 L 921.41 368.85 L 928.28 379.53 L 934.76 390.44 L 940.86 401.61 L 946.52 412.99 L 951.71 424.56 L 956.44 436.32 L 960.70 448.28 L 964.49 460.45 L 967.77 472.74 L 970.50 485.18 L 972.70 497.79 L 974.35 510.58 L 975.46 523.55 L 975.98 536.48 L 975.88 549.54 L 975.17 562.77 L 973.83 576.16 L 971.84 589.75 L 969.02 604.58 L 965.77 618.95 L 962.10 632.88 L 958.01 646.38 L 953.51 659.47 L 948.61 672.17 L 943.16 684.86 L 937.32 697.16 L 931.10 709.06 L 924.50 720.57 L 917.52 731.73 L 910.15 742.52 L 902.33 753.08 L 894.15 763.28 L 885.61 773.13 L 876.71 782.64 L 867.44 791.81 L 857.79 800.64 L 847.85 809.09 L 837.58 817.20 L 826.95 824.98 L 815.96 832.44 L 804.61 839.57 L 792.88 846.38 L 784.16 851.78 L 774.82 857.07 L 764.83 862.22 L 754.14 867.24 L 743.49 871.78 L 732.08 876.19 L 719.87 880.45 L 706.83 884.56 L 693.95 888.20 L 680.18 891.67 L 665.47 894.97 L 649.78 898.08 L 634.38 900.75 L 617.95 903.23 L 600.46 905.49 L 581.85 907.53 L 560.70 909.39 L 539.95 910.75 L 519.60 911.61 L 499.64 911.98 L 480.05 911.87 L 460.19 911.26 L 440.81 910.15 L 421.90 908.54 L 403.44 906.45 L 385.42 903.89 L 367.22 900.75 L 349.57 897.11 L 332.44 892.98 L 315.82 888.39 L 299.69 883.32 L 286.19 878.59 L 273.10 873.51 L 260.41 868.11 L 248.10 862.37 L 236.16 856.30 L 224.58 849.90 L 213.11 843.00 L 202.06 835.76 L 191.42 828.18 L 181.17 820.25 L 171.30 811.97 L 161.82 803.34 L 152.67 794.30 L 143.95 784.89 L 135.64 775.11 L 127.74 764.93 L 120.23 754.36 L 113.12 743.39 L 106.56 732.22 L 100.43 720.64 L 94.73 708.62 L 89.45 696.15 L 84.61 683.21 L 80.21 669.77 L 76.46 656.48 L 73.16 642.70 L 70.34 628.41 L 67.99 613.58 L 66.15 598.19 L 64.82 582.22 L 64.14 567.09 L 64.03 552.57 L 64.46 538.63 L 65.41 525.24 L 66.86 512.37 L 68.90 499.28 L 71.42 486.70 L 74.40 474.60 L 77.84 462.97 L 81.72 451.78 L 86.18 440.62 L 91.06 429.89 L 96.35 419.54 L 102.05 409.58 L 108.18 399.98 L 114.77 390.63 L 121.74 381.62 L 129.10 372.93 L 136.85 364.56 L 145.01 356.50 L 153.46 348.81 L 162.28 341.41 L 171.46 334.29 L 181.02 327.45 L 190.97 320.88 L 193.90 307.41 L 197.19 294.46 L 200.84 282.03 L 204.83 270.10 L 209.16 258.63 L 213.83 247.62 L 218.81 237.05 L 224.38 226.41 L 230.26 216.20 L 236.44 206.43 L 242.94 197.08 L 249.74 188.13 L 256.85 179.57 L 264.28 171.38 L 273.46 162.18 L 283.02 153.49 L 292.99 145.29 L 303.37 137.58 L 314.17 130.34 L 325.42 123.58 L 336.87 117.40 L 348.72 111.67 L 360.96 106.40 L 373.62 101.59 L 386.72 97.23 L 400.27 93.34 L 413.70 90.05 L 427.52 87.20 L 441.72 84.79 L 456.34 82.85 L 471.38 81.37 L 486.86 80.38 Z" fill="#000000" fill-rule="evenodd" node-id="153" stroke="none" target-height="831.9669" target-width="911.9464" target-x="64.03111" target-y="80.01346"></path></clipPath><clipPath id="mask-3_13" node-id="51"><path d="M 486.86 80.38 L 501.27 80.01 L 515.38 80.26 L 529.21 81.12 L 542.78 82.56 L 556.11 84.60 L 569.45 87.25 L 582.45 90.45 L 595.14 94.18 L 607.52 98.44 L 619.62 103.24 L 631.55 108.62 L 643.10 114.48 L 654.29 120.81 L 665.13 127.63 L 675.63 134.95 L 685.80 142.75 L 695.54 150.99 L 704.88 159.66 L 713.82 168.77 L 722.36 178.34 L 730.43 188.28 L 738.02 198.61 L 745.16 209.35 L 751.83 220.49 L 758.05 232.07 L 769.36 237.33 L 780.52 242.98 L 791.54 249.01 L 802.41 255.43 L 813.15 262.25 L 826.23 271.24 L 838.93 280.74 L 851.27 290.77 L 863.26 301.34 L 872.54 310.15 L 881.50 319.23 L 890.13 328.59 L 898.46 338.24 L 906.47 348.18 L 914.14 358.40 L 921.41 368.85 L 928.28 379.53 L 934.76 390.44 L 940.86 401.61 L 946.52 412.99 L 951.71 424.56 L 956.44 436.32 L 960.70 448.28 L 964.49 460.45 L 967.77 472.74 L 970.50 485.18 L 972.70 497.79 L 974.35 510.58 L 975.46 523.55 L 975.98 536.48 L 975.88 549.54 L 975.17 562.77 L 973.83 576.16 L 971.84 589.75 L 969.02 604.58 L 965.77 618.95 L 962.10 632.88 L 958.01 646.38 L 953.51 659.47 L 948.61 672.17 L 943.16 684.86 L 937.32 697.16 L 931.10 709.06 L 924.50 720.57 L 917.52 731.73 L 910.15 742.52 L 902.33 753.08 L 894.15 763.28 L 885.61 773.13 L 876.71 782.64 L 867.44 791.81 L 857.79 800.64 L 847.85 809.09 L 837.58 817.20 L 826.95 824.98 L 815.96 832.44 L 804.61 839.57 L 792.88 846.38 L 784.16 851.78 L 774.82 857.07 L 764.83 862.22 L 754.14 867.24 L 743.49 871.78 L 732.08 876.19 L 719.87 880.45 L 706.83 884.56 L 693.95 888.20 L 680.18 891.67 L 665.47 894.97 L 649.78 898.08 L 634.38 900.75 L 617.95 903.23 L 600.46 905.49 L 581.85 907.53 L 560.70 909.39 L 539.95 910.75 L 519.60 911.61 L 499.64 911.98 L 480.05 911.87 L 460.19 911.26 L 440.81 910.15 L 421.90 908.54 L 403.44 906.45 L 385.42 903.89 L 367.22 900.75 L 349.57 897.11 L 332.44 892.98 L 315.82 888.39 L 299.69 883.32 L 286.19 878.59 L 273.10 873.51 L 260.41 868.11 L 248.10 862.37 L 236.16 856.30 L 224.58 849.90 L 213.11 843.00 L 202.06 835.76 L 191.42 828.18 L 181.17 820.25 L 171.30 811.97 L 161.82 803.34 L 152.67 794.30 L 143.95 784.89 L 135.64 775.11 L 127.74 764.93 L 120.23 754.36 L 113.12 743.39 L 106.56 732.22 L 100.43 720.64 L 94.73 708.62 L 89.45 696.15 L 84.61 683.21 L 80.21 669.77 L 76.46 656.48 L 73.16 642.70 L 70.34 628.41 L 67.99 613.58 L 66.15 598.19 L 64.82 582.22 L 64.14 567.09 L 64.03 552.57 L 64.46 538.63 L 65.41 525.24 L 66.86 512.37 L 68.90 499.28 L 71.42 486.70 L 74.40 474.60 L 77.84 462.97 L 81.72 451.78 L 86.18 440.62 L 91.06 429.89 L 96.35 419.54 L 102.05 409.58 L 108.18 399.98 L 114.77 390.63 L 121.74 381.62 L 129.10 372.93 L 136.85 364.56 L 145.01 356.50 L 153.46 348.81 L 162.28 341.41 L 171.46 334.29 L 181.02 327.45 L 190.97 320.88 L 193.90 307.41 L 197.19 294.46 L 200.84 282.03 L 204.83 270.10 L 209.16 258.63 L 213.83 247.62 L 218.81 237.05 L 224.38 226.41 L 230.26 216.20 L 236.44 206.43 L 242.94 197.08 L 249.74 188.13 L 256.85 179.57 L 264.28 171.38 L 273.46 162.18 L 283.02 153.49 L 292.99 145.29 L 303.37 137.58 L 314.17 130.34 L 325.42 123.58 L 336.87 117.40 L 348.72 111.67 L 360.96 106.40 L 373.62 101.59 L 386.72 97.23 L 400.27 93.34 L 413.70 90.05 L 427.52 87.20 L 441.72 84.79 L 456.34 82.85 L 471.38 81.37 L 486.86 80.38 Z" fill="#000000" fill-rule="evenodd" node-id="153" stroke="none" target-height="831.9669" target-width="911.9464" target-x="64.03111" target-y="80.01346"></path></clipPath><clipPath id="mask-3_12" node-id="51"><path d="M 486.86 80.38 L 501.27 80.01 L 515.38 80.26 L 529.21 81.12 L 542.78 82.56 L 556.11 84.60 L 569.45 87.25 L 582.45 90.45 L 595.14 94.18 L 607.52 98.44 L 619.62 103.24 L 631.55 108.62 L 643.10 114.48 L 654.29 120.81 L 665.13 127.63 L 675.63 134.95 L 685.80 142.75 L 695.54 150.99 L 704.88 159.66 L 713.82 168.77 L 722.36 178.34 L 730.43 188.28 L 738.02 198.61 L 745.16 209.35 L 751.83 220.49 L 758.05 232.07 L 769.36 237.33 L 780.52 242.98 L 791.54 249.01 L 802.41 255.43 L 813.15 262.25 L 826.23 271.24 L 838.93 280.74 L 851.27 290.77 L 863.26 301.34 L 872.54 310.15 L 881.50 319.23 L 890.13 328.59 L 898.46 338.24 L 906.47 348.18 L 914.14 358.40 L 921.41 368.85 L 928.28 379.53 L 934.76 390.44 L 940.86 401.61 L 946.52 412.99 L 951.71 424.56 L 956.44 436.32 L 960.70 448.28 L 964.49 460.45 L 967.77 472.74 L 970.50 485.18 L 972.70 497.79 L 974.35 510.58 L 975.46 523.55 L 975.98 536.48 L 975.88 549.54 L 975.17 562.77 L 973.83 576.16 L 971.84 589.75 L 969.02 604.58 L 965.77 618.95 L 962.10 632.88 L 958.01 646.38 L 953.51 659.47 L 948.61 672.17 L 943.16 684.86 L 937.32 697.16 L 931.10 709.06 L 924.50 720.57 L 917.52 731.73 L 910.15 742.52 L 902.33 753.08 L 894.15 763.28 L 885.61 773.13 L 876.71 782.64 L 867.44 791.81 L 857.79 800.64 L 847.85 809.09 L 837.58 817.20 L 826.95 824.98 L 815.96 832.44 L 804.61 839.57 L 792.88 846.38 L 784.16 851.78 L 774.82 857.07 L 764.83 862.22 L 754.14 867.24 L 743.49 871.78 L 732.08 876.19 L 719.87 880.45 L 706.83 884.56 L 693.95 888.20 L 680.18 891.67 L 665.47 894.97 L 649.78 898.08 L 634.38 900.75 L 617.95 903.23 L 600.46 905.49 L 581.85 907.53 L 560.70 909.39 L 539.95 910.75 L 519.60 911.61 L 499.64 911.98 L 480.05 911.87 L 460.19 911.26 L 440.81 910.15 L 421.90 908.54 L 403.44 906.45 L 385.42 903.89 L 367.22 900.75 L 349.57 897.11 L 332.44 892.98 L 315.82 888.39 L 299.69 883.32 L 286.19 878.59 L 273.10 873.51 L 260.41 868.11 L 248.10 862.37 L 236.16 856.30 L 224.58 849.90 L 213.11 843.00 L 202.06 835.76 L 191.42 828.18 L 181.17 820.25 L 171.30 811.97 L 161.82 803.34 L 152.67 794.30 L 143.95 784.89 L 135.64 775.11 L 127.74 764.93 L 120.23 754.36 L 113.12 743.39 L 106.56 732.22 L 100.43 720.64 L 94.73 708.62 L 89.45 696.15 L 84.61 683.21 L 80.21 669.77 L 76.46 656.48 L 73.16 642.70 L 70.34 628.41 L 67.99 613.58 L 66.15 598.19 L 64.82 582.22 L 64.14 567.09 L 64.03 552.57 L 64.46 538.63 L 65.41 525.24 L 66.86 512.37 L 68.90 499.28 L 71.42 486.70 L 74.40 474.60 L 77.84 462.97 L 81.72 451.78 L 86.18 440.62 L 91.06 429.89 L 96.35 419.54 L 102.05 409.58 L 108.18 399.98 L 114.77 390.63 L 121.74 381.62 L 129.10 372.93 L 136.85 364.56 L 145.01 356.50 L 153.46 348.81 L 162.28 341.41 L 171.46 334.29 L 181.02 327.45 L 190.97 320.88 L 193.90 307.41 L 197.19 294.46 L 200.84 282.03 L 204.83 270.10 L 209.16 258.63 L 213.83 247.62 L 218.81 237.05 L 224.38 226.41 L 230.26 216.20 L 236.44 206.43 L 242.94 197.08 L 249.74 188.13 L 256.85 179.57 L 264.28 171.38 L 273.46 162.18 L 283.02 153.49 L 292.99 145.29 L 303.37 137.58 L 314.17 130.34 L 325.42 123.58 L 336.87 117.40 L 348.72 111.67 L 360.96 106.40 L 373.62 101.59 L 386.72 97.23 L 400.27 93.34 L 413.70 90.05 L 427.52 87.20 L 441.72 84.79 L 456.34 82.85 L 471.38 81.37 L 486.86 80.38 Z" fill="#000000" fill-rule="evenodd" node-id="153" stroke="none" target-height="831.9669" target-width="911.9464" target-x="64.03111" target-y="80.01346"></path></clipPath><clipPath id="mask-3_11" node-id="51"><path d="M 486.86 80.38 L 501.27 80.01 L 515.38 80.26 L 529.21 81.12 L 542.78 82.56 L 556.11 84.60 L 569.45 87.25 L 582.45 90.45 L 595.14 94.18 L 607.52 98.44 L 619.62 103.24 L 631.55 108.62 L 643.10 114.48 L 654.29 120.81 L 665.13 127.63 L 675.63 134.95 L 685.80 142.75 L 695.54 150.99 L 704.88 159.66 L 713.82 168.77 L 722.36 178.34 L 730.43 188.28 L 738.02 198.61 L 745.16 209.35 L 751.83 220.49 L 758.05 232.07 L 769.36 237.33 L 780.52 242.98 L 791.54 249.01 L 802.41 255.43 L 813.15 262.25 L 826.23 271.24 L 838.93 280.74 L 851.27 290.77 L 863.26 301.34 L 872.54 310.15 L 881.50 319.23 L 890.13 328.59 L 898.46 338.24 L 906.47 348.18 L 914.14 358.40 L 921.41 368.85 L 928.28 379.53 L 934.76 390.44 L 940.86 401.61 L 946.52 412.99 L 951.71 424.56 L 956.44 436.32 L 960.70 448.28 L 964.49 460.45 L 967.77 472.74 L 970.50 485.18 L 972.70 497.79 L 974.35 510.58 L 975.46 523.55 L 975.98 536.48 L 975.88 549.54 L 975.17 562.77 L 973.83 576.16 L 971.84 589.75 L 969.02 604.58 L 965.77 618.95 L 962.10 632.88 L 958.01 646.38 L 953.51 659.47 L 948.61 672.17 L 943.16 684.86 L 937.32 697.16 L 931.10 709.06 L 924.50 720.57 L 917.52 731.73 L 910.15 742.52 L 902.33 753.08 L 894.15 763.28 L 885.61 773.13 L 876.71 782.64 L 867.44 791.81 L 857.79 800.64 L 847.85 809.09 L 837.58 817.20 L 826.95 824.98 L 815.96 832.44 L 804.61 839.57 L 792.88 846.38 L 784.16 851.78 L 774.82 857.07 L 764.83 862.22 L 754.14 867.24 L 743.49 871.78 L 732.08 876.19 L 719.87 880.45 L 706.83 884.56 L 693.95 888.20 L 680.18 891.67 L 665.47 894.97 L 649.78 898.08 L 634.38 900.75 L 617.95 903.23 L 600.46 905.49 L 581.85 907.53 L 560.70 909.39 L 539.95 910.75 L 519.60 911.61 L 499.64 911.98 L 480.05 911.87 L 460.19 911.26 L 440.81 910.15 L 421.90 908.54 L 403.44 906.45 L 385.42 903.89 L 367.22 900.75 L 349.57 897.11 L 332.44 892.98 L 315.82 888.39 L 299.69 883.32 L 286.19 878.59 L 273.10 873.51 L 260.41 868.11 L 248.10 862.37 L 236.16 856.30 L 224.58 849.90 L 213.11 843.00 L 202.06 835.76 L 191.42 828.18 L 181.17 820.25 L 171.30 811.97 L 161.82 803.34 L 152.67 794.30 L 143.95 784.89 L 135.64 775.11 L 127.74 764.93 L 120.23 754.36 L 113.12 743.39 L 106.56 732.22 L 100.43 720.64 L 94.73 708.62 L 89.45 696.15 L 84.61 683.21 L 80.21 669.77 L 76.46 656.48 L 73.16 642.70 L 70.34 628.41 L 67.99 613.58 L 66.15 598.19 L 64.82 582.22 L 64.14 567.09 L 64.03 552.57 L 64.46 538.63 L 65.41 525.24 L 66.86 512.37 L 68.90 499.28 L 71.42 486.70 L 74.40 474.60 L 77.84 462.97 L 81.72 451.78 L 86.18 440.62 L 91.06 429.89 L 96.35 419.54 L 102.05 409.58 L 108.18 399.98 L 114.77 390.63 L 121.74 381.62 L 129.10 372.93 L 136.85 364.56 L 145.01 356.50 L 153.46 348.81 L 162.28 341.41 L 171.46 334.29 L 181.02 327.45 L 190.97 320.88 L 193.90 307.41 L 197.19 294.46 L 200.84 282.03 L 204.83 270.10 L 209.16 258.63 L 213.83 247.62 L 218.81 237.05 L 224.38 226.41 L 230.26 216.20 L 236.44 206.43 L 242.94 197.08 L 249.74 188.13 L 256.85 179.57 L 264.28 171.38 L 273.46 162.18 L 283.02 153.49 L 292.99 145.29 L 303.37 137.58 L 314.17 130.34 L 325.42 123.58 L 336.87 117.40 L 348.72 111.67 L 360.96 106.40 L 373.62 101.59 L 386.72 97.23 L 400.27 93.34 L 413.70 90.05 L 427.52 87.20 L 441.72 84.79 L 456.34 82.85 L 471.38 81.37 L 486.86 80.38 Z" fill="#000000" fill-rule="evenodd" node-id="153" stroke="none" target-height="831.9669" target-width="911.9464" target-x="64.03111" target-y="80.01346"></path></clipPath><clipPath id="mask-3_10" node-id="51"><path d="M 486.86 80.38 L 501.27 80.01 L 515.38 80.26 L 529.21 81.12 L 542.78 82.56 L 556.11 84.60 L 569.45 87.25 L 582.45 90.45 L 595.14 94.18 L 607.52 98.44 L 619.62 103.24 L 631.55 108.62 L 643.10 114.48 L 654.29 120.81 L 665.13 127.63 L 675.63 134.95 L 685.80 142.75 L 695.54 150.99 L 704.88 159.66 L 713.82 168.77 L 722.36 178.34 L 730.43 188.28 L 738.02 198.61 L 745.16 209.35 L 751.83 220.49 L 758.05 232.07 L 769.36 237.33 L 780.52 242.98 L 791.54 249.01 L 802.41 255.43 L 813.15 262.25 L 826.23 271.24 L 838.93 280.74 L 851.27 290.77 L 863.26 301.34 L 872.54 310.15 L 881.50 319.23 L 890.13 328.59 L 898.46 338.24 L 906.47 348.18 L 914.14 358.40 L 921.41 368.85 L 928.28 379.53 L 934.76 390.44 L 940.86 401.61 L 946.52 412.99 L 951.71 424.56 L 956.44 436.32 L 960.70 448.28 L 964.49 460.45 L 967.77 472.74 L 970.50 485.18 L 972.70 497.79 L 974.35 510.58 L 975.46 523.55 L 975.98 536.48 L 975.88 549.54 L 975.17 562.77 L 973.83 576.16 L 971.84 589.75 L 969.02 604.58 L 965.77 618.95 L 962.10 632.88 L 958.01 646.38 L 953.51 659.47 L 948.61 672.17 L 943.16 684.86 L 937.32 697.16 L 931.10 709.06 L 924.50 720.57 L 917.52 731.73 L 910.15 742.52 L 902.33 753.08 L 894.15 763.28 L 885.61 773.13 L 876.71 782.64 L 867.44 791.81 L 857.79 800.64 L 847.85 809.09 L 837.58 817.20 L 826.95 824.98 L 815.96 832.44 L 804.61 839.57 L 792.88 846.38 L 784.16 851.78 L 774.82 857.07 L 764.83 862.22 L 754.14 867.24 L 743.49 871.78 L 732.08 876.19 L 719.87 880.45 L 706.83 884.56 L 693.95 888.20 L 680.18 891.67 L 665.47 894.97 L 649.78 898.08 L 634.38 900.75 L 617.95 903.23 L 600.46 905.49 L 581.85 907.53 L 560.70 909.39 L 539.95 910.75 L 519.60 911.61 L 499.64 911.98 L 480.05 911.87 L 460.19 911.26 L 440.81 910.15 L 421.90 908.54 L 403.44 906.45 L 385.42 903.89 L 367.22 900.75 L 349.57 897.11 L 332.44 892.98 L 315.82 888.39 L 299.69 883.32 L 286.19 878.59 L 273.10 873.51 L 260.41 868.11 L 248.10 862.37 L 236.16 856.30 L 224.58 849.90 L 213.11 843.00 L 202.06 835.76 L 191.42 828.18 L 181.17 820.25 L 171.30 811.97 L 161.82 803.34 L 152.67 794.30 L 143.95 784.89 L 135.64 775.11 L 127.74 764.93 L 120.23 754.36 L 113.12 743.39 L 106.56 732.22 L 100.43 720.64 L 94.73 708.62 L 89.45 696.15 L 84.61 683.21 L 80.21 669.77 L 76.46 656.48 L 73.16 642.70 L 70.34 628.41 L 67.99 613.58 L 66.15 598.19 L 64.82 582.22 L 64.14 567.09 L 64.03 552.57 L 64.46 538.63 L 65.41 525.24 L 66.86 512.37 L 68.90 499.28 L 71.42 486.70 L 74.40 474.60 L 77.84 462.97 L 81.72 451.78 L 86.18 440.62 L 91.06 429.89 L 96.35 419.54 L 102.05 409.58 L 108.18 399.98 L 114.77 390.63 L 121.74 381.62 L 129.10 372.93 L 136.85 364.56 L 145.01 356.50 L 153.46 348.81 L 162.28 341.41 L 171.46 334.29 L 181.02 327.45 L 190.97 320.88 L 193.90 307.41 L 197.19 294.46 L 200.84 282.03 L 204.83 270.10 L 209.16 258.63 L 213.83 247.62 L 218.81 237.05 L 224.38 226.41 L 230.26 216.20 L 236.44 206.43 L 242.94 197.08 L 249.74 188.13 L 256.85 179.57 L 264.28 171.38 L 273.46 162.18 L 283.02 153.49 L 292.99 145.29 L 303.37 137.58 L 314.17 130.34 L 325.42 123.58 L 336.87 117.40 L 348.72 111.67 L 360.96 106.40 L 373.62 101.59 L 386.72 97.23 L 400.27 93.34 L 413.70 90.05 L 427.52 87.20 L 441.72 84.79 L 456.34 82.85 L 471.38 81.37 L 486.86 80.38 Z" fill="#000000" fill-rule="evenodd" node-id="153" stroke="none" target-height="831.9669" target-width="911.9464" target-x="64.03111" target-y="80.01346"></path></clipPath><clipPath id="mask-3_9" node-id="51"><path d="M 486.86 80.38 L 501.27 80.01 L 515.38 80.26 L 529.21 81.12 L 542.78 82.56 L 556.11 84.60 L 569.45 87.25 L 582.45 90.45 L 595.14 94.18 L 607.52 98.44 L 619.62 103.24 L 631.55 108.62 L 643.10 114.48 L 654.29 120.81 L 665.13 127.63 L 675.63 134.95 L 685.80 142.75 L 695.54 150.99 L 704.88 159.66 L 713.82 168.77 L 722.36 178.34 L 730.43 188.28 L 738.02 198.61 L 745.16 209.35 L 751.83 220.49 L 758.05 232.07 L 769.36 237.33 L 780.52 242.98 L 791.54 249.01 L 802.41 255.43 L 813.15 262.25 L 826.23 271.24 L 838.93 280.74 L 851.27 290.77 L 863.26 301.34 L 872.54 310.15 L 881.50 319.23 L 890.13 328.59 L 898.46 338.24 L 906.47 348.18 L 914.14 358.40 L 921.41 368.85 L 928.28 379.53 L 934.76 390.44 L 940.86 401.61 L 946.52 412.99 L 951.71 424.56 L 956.44 436.32 L 960.70 448.28 L 964.49 460.45 L 967.77 472.74 L 970.50 485.18 L 972.70 497.79 L 974.35 510.58 L 975.46 523.55 L 975.98 536.48 L 975.88 549.54 L 975.17 562.77 L 973.83 576.16 L 971.84 589.75 L 969.02 604.58 L 965.77 618.95 L 962.10 632.88 L 958.01 646.38 L 953.51 659.47 L 948.61 672.17 L 943.16 684.86 L 937.32 697.16 L 931.10 709.06 L 924.50 720.57 L 917.52 731.73 L 910.15 742.52 L 902.33 753.08 L 894.15 763.28 L 885.61 773.13 L 876.71 782.64 L 867.44 791.81 L 857.79 800.64 L 847.85 809.09 L 837.58 817.20 L 826.95 824.98 L 815.96 832.44 L 804.61 839.57 L 792.88 846.38 L 784.16 851.78 L 774.82 857.07 L 764.83 862.22 L 754.14 867.24 L 743.49 871.78 L 732.08 876.19 L 719.87 880.45 L 706.83 884.56 L 693.95 888.20 L 680.18 891.67 L 665.47 894.97 L 649.78 898.08 L 634.38 900.75 L 617.95 903.23 L 600.46 905.49 L 581.85 907.53 L 560.70 909.39 L 539.95 910.75 L 519.60 911.61 L 499.64 911.98 L 480.05 911.87 L 460.19 911.26 L 440.81 910.15 L 421.90 908.54 L 403.44 906.45 L 385.42 903.89 L 367.22 900.75 L 349.57 897.11 L 332.44 892.98 L 315.82 888.39 L 299.69 883.32 L 286.19 878.59 L 273.10 873.51 L 260.41 868.11 L 248.10 862.37 L 236.16 856.30 L 224.58 849.90 L 213.11 843.00 L 202.06 835.76 L 191.42 828.18 L 181.17 820.25 L 171.30 811.97 L 161.82 803.34 L 152.67 794.30 L 143.95 784.89 L 135.64 775.11 L 127.74 764.93 L 120.23 754.36 L 113.12 743.39 L 106.56 732.22 L 100.43 720.64 L 94.73 708.62 L 89.45 696.15 L 84.61 683.21 L 80.21 669.77 L 76.46 656.48 L 73.16 642.70 L 70.34 628.41 L 67.99 613.58 L 66.15 598.19 L 64.82 582.22 L 64.14 567.09 L 64.03 552.57 L 64.46 538.63 L 65.41 525.24 L 66.86 512.37 L 68.90 499.28 L 71.42 486.70 L 74.40 474.60 L 77.84 462.97 L 81.72 451.78 L 86.18 440.62 L 91.06 429.89 L 96.35 419.54 L 102.05 409.58 L 108.18 399.98 L 114.77 390.63 L 121.74 381.62 L 129.10 372.93 L 136.85 364.56 L 145.01 356.50 L 153.46 348.81 L 162.28 341.41 L 171.46 334.29 L 181.02 327.45 L 190.97 320.88 L 193.90 307.41 L 197.19 294.46 L 200.84 282.03 L 204.83 270.10 L 209.16 258.63 L 213.83 247.62 L 218.81 237.05 L 224.38 226.41 L 230.26 216.20 L 236.44 206.43 L 242.94 197.08 L 249.74 188.13 L 256.85 179.57 L 264.28 171.38 L 273.46 162.18 L 283.02 153.49 L 292.99 145.29 L 303.37 137.58 L 314.17 130.34 L 325.42 123.58 L 336.87 117.40 L 348.72 111.67 L 360.96 106.40 L 373.62 101.59 L 386.72 97.23 L 400.27 93.34 L 413.70 90.05 L 427.52 87.20 L 441.72 84.79 L 456.34 82.85 L 471.38 81.37 L 486.86 80.38 Z" fill="#000000" fill-rule="evenodd" node-id="153" stroke="none" target-height="831.9669" target-width="911.9464" target-x="64.03111" target-y="80.01346"></path></clipPath><clipPath id="mask-3" node-id="51"><path d="M 422.86 0.38 C 542.07 -5.37 644.76 54.68 694.05 152.07 C 826.94 211.20 934.79 352.58 907.84 509.75 C 887.63 627.61 823.20 713.73 728.89 766.38 C 682.43 796.44 616.20 817.75 517.85 827.53 C 238.34 855.30 16.98 754.50 0.82 502.22 C -7.15 377.83 43.42 293.95 126.97 240.88 C 157.60 85.87 269.84 7.75 422.86 0.38 Z" fill="#000000" fill-rule="evenodd" node-id="153" stroke="none" target-height="860.6705" target-width="941.9407" target-x="-7.145999" target-y="-5.366632"></path></clipPath></defs><g node-id="241"><path d="M 0.00 0.00 L 1024.00 0.00 L 1024.00 1024.00 L 0.00 1024.00 Z" fill="none" group-id="1" id="矩形备份-7" node-id="49" stroke="none" target-height="1024" target-width="1024" target-x="0" target-y="0"></path><g node-id="242"><g node-id="243"><g node-id="252"><path d="M 486.86 80.38 L 501.27 80.01 L 515.38 80.26 L 529.21 81.12 L 542.78 82.56 L 556.11 84.60 L 569.45 87.25 L 582.45 90.45 L 595.14 94.18 L 607.52 98.44 L 619.62 103.24 L 631.55 108.62 L 643.10 114.48 L 654.29 120.81 L 665.13 127.63 L 675.63 134.95 L 685.80 142.75 L 695.54 150.99 L 704.88 159.66 L 713.82 168.77 L 722.36 178.34 L 730.43 188.28 L 738.02 198.61 L 745.16 209.35 L 751.83 220.49 L 758.05 232.07 L 769.36 237.33 L 780.52 242.98 L 791.54 249.01 L 802.41 255.43 L 813.15 262.25 L 826.23 271.24 L 838.93 280.74 L 851.27 290.77 L 863.26 301.34 L 872.54 310.15 L 881.50 319.23 L 890.13 328.59 L 898.46 338.24 L 906.47 348.18 L 914.14 358.40 L 921.41 368.85 L 928.28 379.53 L 934.76 390.44 L 940.86 401.61 L 946.52 412.99 L 951.71 424.56 L 956.44 436.32 L 960.70 448.28 L 964.49 460.45 L 967.77 472.74 L 970.50 485.18 L 972.70 497.79 L 974.35 510.58 L 975.46 523.55 L 975.98 536.48 L 975.88 549.54 L 975.17 562.77 L 973.83 576.16 L 971.84 589.75 L 969.02 604.58 L 965.77 618.95 L 962.10 632.88 L 958.01 646.38 L 953.51 659.47 L 948.61 672.17 L 943.16 684.86 L 937.32 697.16 L 931.10 709.06 L 924.50 720.57 L 917.52 731.73 L 910.15 742.52 L 902.33 753.08 L 894.15 763.28 L 885.61 773.13 L 876.71 782.64 L 867.44 791.81 L 857.79 800.64 L 847.85 809.09 L 837.58 817.20 L 826.95 824.98 L 815.96 832.44 L 804.61 839.57 L 792.88 846.38 L 784.16 851.78 L 774.82 857.07 L 764.83 862.22 L 754.14 867.24 L 743.49 871.78 L 732.08 876.19 L 719.87 880.45 L 706.83 884.56 L 693.95 888.20 L 680.18 891.67 L 665.47 894.97 L 649.78 898.08 L 634.38 900.75 L 617.95 903.23 L 600.46 905.49 L 581.85 907.53 L 560.70 909.39 L 539.95 910.75 L 519.60 911.61 L 499.64 911.98 L 480.05 911.87 L 460.19 911.26 L 440.81 910.15 L 421.90 908.54 L 403.44 906.45 L 385.42 903.89 L 367.22 900.75 L 349.57 897.11 L 332.44 892.98 L 315.82 888.39 L 299.69 883.32 L 286.19 878.59 L 273.10 873.51 L 260.41 868.11 L 248.10 862.37 L 236.16 856.30 L 224.58 849.90 L 213.11 843.00 L 202.06 835.76 L 191.42 828.18 L 181.17 820.25 L 171.30 811.97 L 161.82 803.34 L 152.67 794.30 L 143.95 784.89 L 135.64 775.11 L 127.74 764.93 L 120.23 754.36 L 113.12 743.39 L 106.56 732.22 L 100.43 720.64 L 94.73 708.62 L 89.45 696.15 L 84.61 683.21 L 80.21 669.77 L 76.46 656.48 L 73.16 642.70 L 70.34 628.41 L 67.99 613.58 L 66.15 598.19 L 64.82 582.22 L 64.14 567.09 L 64.03 552.57 L 64.46 538.63 L 65.41 525.24 L 66.86 512.37 L 68.90 499.28 L 71.42 486.70 L 74.40 474.60 L 77.84 462.97 L 81.72 451.78 L 86.18 440.62 L 91.06 429.89 L 96.35 419.54 L 102.05 409.58 L 108.18 399.98 L 114.77 390.63 L 121.74 381.62 L 129.10 372.93 L 136.85 364.56 L 145.01 356.50 L 153.46 348.81 L 162.28 341.41 L 171.46 334.29 L 181.02 327.45 L 190.97 320.88 L 193.90 307.41 L 197.19 294.46 L 200.84 282.03 L 204.83 270.10 L 209.16 258.63 L 213.83 247.62 L 218.81 237.05 L 224.38 226.41 L 230.26 216.20 L 236.44 206.43 L 242.94 197.08 L 249.74 188.13 L 256.85 179.57 L 264.28 171.38 L 273.46 162.18 L 283.02 153.49 L 292.99 145.29 L 303.37 137.58 L 314.17 130.34 L 325.42 123.58 L 336.87 117.40 L 348.72 111.67 L 360.96 106.40 L 373.62 101.59 L 386.72 97.23 L 400.27 93.34 L 413.70 90.05 L 427.52 87.20 L 441.72 84.79 L 456.34 82.85 L 471.38 81.37 L 486.86 80.38 Z" fill="url(#radialGradient-1)" fill-rule="evenodd" group-id="1,2,3,12" node-id="165" stroke="none" target-height="831.9669" target-width="911.9464" target-x="64.03111" target-y="80.01346"></path></g><path d="M 486.86 80.38 L 501.27 80.01 L 515.38 80.26 L 529.21 81.12 L 542.78 82.56 L 556.11 84.60 L 569.45 87.25 L 582.45 90.45 L 595.14 94.18 L 607.52 98.44 L 619.62 103.24 L 631.55 108.62 L 643.10 114.48 L 654.29 120.81 L 665.13 127.63 L 675.63 134.95 L 685.80 142.75 L 695.54 150.99 L 704.88 159.66 L 713.82 168.77 L 722.36 178.34 L 730.43 188.28 L 738.02 198.61 L 745.16 209.35 L 751.83 220.49 L 758.05 232.07 L 769.36 237.33 L 780.52 242.98 L 791.54 249.01 L 802.41 255.43 L 813.15 262.25 L 826.23 271.24 L 838.93 280.74 L 851.27 290.77 L 863.26 301.34 L 872.54 310.15 L 881.50 319.23 L 890.13 328.59 L 898.46 338.24 L 906.47 348.18 L 914.14 358.40 L 921.41 368.85 L 928.28 379.53 L 934.76 390.44 L 940.86 401.61 L 946.52 412.99 L 951.71 424.56 L 956.44 436.32 L 960.70 448.28 L 964.49 460.45 L 967.77 472.74 L 970.50 485.18 L 972.70 497.79 L 974.35 510.58 L 975.46 523.55 L 975.98 536.48 L 975.88 549.54 L 975.17 562.77 L 973.83 576.16 L 971.84 589.75 L 969.02 604.58 L 965.77 618.95 L 962.10 632.88 L 958.01 646.38 L 953.51 659.47 L 948.61 672.17 L 943.16 684.86 L 937.32 697.16 L 931.10 709.06 L 924.50 720.57 L 917.52 731.73 L 910.15 742.52 L 902.33 753.08 L 894.15 763.28 L 885.61 773.13 L 876.71 782.64 L 867.44 791.81 L 857.79 800.64 L 847.85 809.09 L 837.58 817.20 L 826.95 824.98 L 815.96 832.44 L 804.61 839.57 L 792.88 846.38 L 784.16 851.78 L 774.82 857.07 L 764.83 862.22 L 754.14 867.24 L 743.49 871.78 L 732.08 876.19 L 719.87 880.45 L 706.83 884.56 L 693.95 888.20 L 680.18 891.67 L 665.47 894.97 L 649.78 898.08 L 634.38 900.75 L 617.95 903.23 L 600.46 905.49 L 581.85 907.53 L 560.70 909.39 L 539.95 910.75 L 519.60 911.61 L 499.64 911.98 L 480.05 911.87 L 460.19 911.26 L 440.81 910.15 L 421.90 908.54 L 403.44 906.45 L 385.42 903.89 L 367.22 900.75 L 349.57 897.11 L 332.44 892.98 L 315.82 888.39 L 299.69 883.32 L 286.19 878.59 L 273.10 873.51 L 260.41 868.11 L 248.10 862.37 L 236.16 856.30 L 224.58 849.90 L 213.11 843.00 L 202.06 835.76 L 191.42 828.18 L 181.17 820.25 L 171.30 811.97 L 161.82 803.34 L 152.67 794.30 L 143.95 784.89 L 135.64 775.11 L 127.74 764.93 L 120.23 754.36 L 113.12 743.39 L 106.56 732.22 L 100.43 720.64 L 94.73 708.62 L 89.45 696.15 L 84.61 683.21 L 80.21 669.77 L 76.46 656.48 L 73.16 642.70 L 70.34 628.41 L 67.99 613.58 L 66.15 598.19 L 64.82 582.22 L 64.14 567.09 L 64.03 552.57 L 64.46 538.63 L 65.41 525.24 L 66.86 512.37 L 68.90 499.28 L 71.42 486.70 L 74.40 474.60 L 77.84 462.97 L 81.72 451.78 L 86.18 440.62 L 91.06 429.89 L 96.35 419.54 L 102.05 409.58 L 108.18 399.98 L 114.77 390.63 L 121.74 381.62 L 129.10 372.93 L 136.85 364.56 L 145.01 356.50 L 153.46 348.81 L 162.28 341.41 L 171.46 334.29 L 181.02 327.45 L 190.97 320.88 L 193.90 307.41 L 197.19 294.46 L 200.84 282.03 L 204.83 270.10 L 209.16 258.63 L 213.83 247.62 L 218.81 237.05 L 224.38 226.41 L 230.26 216.20 L 236.44 206.43 L 242.94 197.08 L 249.74 188.13 L 256.85 179.57 L 264.28 171.38 L 273.46 162.18 L 283.02 153.49 L 292.99 145.29 L 303.37 137.58 L 314.17 130.34 L 325.42 123.58 L 336.87 117.40 L 348.72 111.67 L 360.96 106.40 L 373.62 101.59 L 386.72 97.23 L 400.27 93.34 L 413.70 90.05 L 427.52 87.20 L 441.72 84.79 L 456.34 82.85 L 471.38 81.37 L 486.86 80.38 Z" fill="#000000" fill-rule="evenodd" filter="url(#filter-4)" group-id="1,2,3,13" node-id="170" stroke="none" target-height="831.9669" target-width="911.9464" target-x="64.03111" target-y="80.01346"></path></g><g node-id="244"><g clip-path="url(#mask-3_9)" group-id="1,2,4" id="椭圆形备份-16" node-id="56"><path d="M 374.53 440.00 L 374.33 444.65 L 373.79 449.14 L 372.90 453.48 L 371.68 457.70 L 369.53 463.16 L 366.88 468.27 L 363.73 473.07 L 360.09 477.53 L 356.06 481.56 L 351.60 485.20 L 346.80 488.35 L 341.69 491.00 L 336.23 493.15 L 332.02 494.37 L 327.67 495.26 L 323.18 495.80 L 318.53 496.00 L 313.88 495.80 L 309.39 495.26 L 305.05 494.37 L 300.83 493.15 L 295.38 491.00 L 290.26 488.35 L 285.46 485.20 L 281.00 481.56 L 276.97 477.53 L 273.34 473.07 L 270.18 468.27 L 267.53 463.16 L 265.39 457.70 L 264.16 453.48 L 263.27 449.14 L 262.73 444.65 L 262.53 440.00 L 262.73 435.35 L 263.27 430.86 L 264.16 426.52 L 265.39 422.30 L 267.53 416.84 L 270.18 411.73 L 273.34 406.93 L 276.97 402.47 L 281.00 398.44 L 285.46 394.80 L 290.26 391.65 L 295.38 389.00 L 300.83 386.85 L 305.05 385.63 L 309.39 384.74 L 313.88 384.20 L 318.53 384.00 L 323.18 384.20 L 327.67 384.74 L 332.02 385.63 L 336.23 386.85 L 341.69 389.00 L 346.80 391.65 L 351.60 394.80 L 356.06 398.44 L 360.09 402.47 L 363.73 406.93 L 366.88 411.73 L 369.53 416.84 L 371.68 422.30 L 372.90 426.52 L 373.79 430.86 L 374.33 435.35 L 374.53 440.00 Z" fill="#833b0a" fill-rule="evenodd" group-id="1,2,4,14" node-id="177" stroke="none" target-height="112" target-width="112" target-x="262.53085" target-y="384"></path><path d="M 374.53 440.00 L 374.33 444.65 L 373.79 449.14 L 372.90 453.48 L 371.68 457.70 L 369.53 463.16 L 366.88 468.27 L 363.73 473.07 L 360.09 477.53 L 356.06 481.56 L 351.60 485.20 L 346.80 488.35 L 341.69 491.00 L 336.23 493.15 L 332.02 494.37 L 327.67 495.26 L 323.18 495.80 L 318.53 496.00 L 313.88 495.80 L 309.39 495.26 L 305.05 494.37 L 300.83 493.15 L 295.38 491.00 L 290.26 488.35 L 285.46 485.20 L 281.00 481.56 L 276.97 477.53 L 273.34 473.07 L 270.18 468.27 L 267.53 463.16 L 265.39 457.70 L 264.16 453.48 L 263.27 449.14 L 262.73 444.65 L 262.53 440.00 L 262.73 435.35 L 263.27 430.86 L 264.16 426.52 L 265.39 422.30 L 267.53 416.84 L 270.18 411.73 L 273.34 406.93 L 276.97 402.47 L 281.00 398.44 L 285.46 394.80 L 290.26 391.65 L 295.38 389.00 L 300.83 386.85 L 305.05 385.63 L 309.39 384.74 L 313.88 384.20 L 318.53 384.00 L 323.18 384.20 L 327.67 384.74 L 332.02 385.63 L 336.23 386.85 L 341.69 389.00 L 346.80 391.65 L 351.60 394.80 L 356.06 398.44 L 360.09 402.47 L 363.73 406.93 L 366.88 411.73 L 369.53 416.84 L 371.68 422.30 L 372.90 426.52 L 373.79 430.86 L 374.33 435.35 L 374.53 440.00 Z" fill="#000000" fill-rule="evenodd" filter="url(#filter-6)" group-id="1,2,4,15" node-id="182" stroke="none" target-height="112" target-width="112" target-x="262.53085" target-y="384"></path></g></g><g node-id="245"><g clip-path="url(#mask-3_10)" group-id="1,2,5" id="椭圆形备份-20" node-id="59"><path d="M 646.53 440.00 L 646.33 444.65 L 645.79 449.14 L 644.90 453.48 L 643.68 457.70 L 641.53 463.16 L 638.88 468.27 L 635.73 473.07 L 632.09 477.53 L 628.06 481.56 L 623.60 485.20 L 618.80 488.35 L 613.69 491.00 L 608.23 493.15 L 604.02 494.37 L 599.67 495.26 L 595.18 495.80 L 590.53 496.00 L 585.88 495.80 L 581.39 495.26 L 577.05 494.37 L 572.83 493.15 L 567.38 491.00 L 562.26 488.35 L 557.46 485.20 L 553.00 481.56 L 548.97 477.53 L 545.34 473.07 L 542.18 468.27 L 539.53 463.16 L 537.39 457.70 L 536.16 453.48 L 535.27 449.14 L 534.73 444.65 L 534.53 440.00 L 534.73 435.35 L 535.27 430.86 L 536.16 426.52 L 537.39 422.30 L 539.53 416.84 L 542.18 411.73 L 545.34 406.93 L 548.97 402.47 L 553.00 398.44 L 557.46 394.80 L 562.26 391.65 L 567.38 389.00 L 572.83 386.85 L 577.05 385.63 L 581.39 384.74 L 585.88 384.20 L 590.53 384.00 L 595.18 384.20 L 599.67 384.74 L 604.02 385.63 L 608.23 386.85 L 613.69 389.00 L 618.80 391.65 L 623.60 394.80 L 628.06 398.44 L 632.09 402.47 L 635.73 406.93 L 638.88 411.73 L 641.53 416.84 L 643.68 422.30 L 644.90 426.52 L 645.79 430.86 L 646.33 435.35 L 646.53 440.00 Z" fill="#833b0a" fill-rule="evenodd" group-id="1,2,5,16" node-id="189" stroke="none" target-height="112" target-width="112" target-x="534.5309" target-y="384"></path><path d="M 646.53 440.00 L 646.33 444.65 L 645.79 449.14 L 644.90 453.48 L 643.68 457.70 L 641.53 463.16 L 638.88 468.27 L 635.73 473.07 L 632.09 477.53 L 628.06 481.56 L 623.60 485.20 L 618.80 488.35 L 613.69 491.00 L 608.23 493.15 L 604.02 494.37 L 599.67 495.26 L 595.18 495.80 L 590.53 496.00 L 585.88 495.80 L 581.39 495.26 L 577.05 494.37 L 572.83 493.15 L 567.38 491.00 L 562.26 488.35 L 557.46 485.20 L 553.00 481.56 L 548.97 477.53 L 545.34 473.07 L 542.18 468.27 L 539.53 463.16 L 537.39 457.70 L 536.16 453.48 L 535.27 449.14 L 534.73 444.65 L 534.53 440.00 L 534.73 435.35 L 535.27 430.86 L 536.16 426.52 L 537.39 422.30 L 539.53 416.84 L 542.18 411.73 L 545.34 406.93 L 548.97 402.47 L 553.00 398.44 L 557.46 394.80 L 562.26 391.65 L 567.38 389.00 L 572.83 386.85 L 577.05 385.63 L 581.39 384.74 L 585.88 384.20 L 590.53 384.00 L 595.18 384.20 L 599.67 384.74 L 604.02 385.63 L 608.23 386.85 L 613.69 389.00 L 618.80 391.65 L 623.60 394.80 L 628.06 398.44 L 632.09 402.47 L 635.73 406.93 L 638.88 411.73 L 641.53 416.84 L 643.68 422.30 L 644.90 426.52 L 645.79 430.86 L 646.33 435.35 L 646.53 440.00 Z" fill="#000000" fill-rule="evenodd" filter="url(#filter-8)" group-id="1,2,5,17" node-id="194" stroke="none" target-height="112" target-width="112" target-x="534.5309" target-y="384"></path></g></g><g node-id="246"><g clip-path="url(#mask-3_11)" group-id="1,2,6" node-id="198"><path d="M 362.80 272.14 L 364.50 272.74 L 365.83 273.60 L 366.86 274.72 L 367.58 276.06 L 367.95 277.58 L 367.94 279.35 L 366.89 286.72 L 365.71 292.91 L 364.43 298.07 L 362.80 303.13 L 360.97 307.47 L 358.98 311.17 L 356.63 314.65 L 353.96 317.86 L 350.96 320.81 L 345.92 324.91 L 339.72 329.18 L 336.99 330.70 L 333.76 332.07 L 329.96 333.26 L 324.03 334.57 L 317.32 335.47 L 310.40 335.92 L 303.21 335.98 L 296.03 335.65 L 289.09 334.98 L 282.34 333.96 L 276.37 332.68 L 274.94 332.09 L 273.78 331.19 L 272.86 329.96 L 272.25 328.54 L 272.01 327.01 L 272.15 325.34 L 272.70 323.77 L 273.53 322.53 L 274.63 321.57 L 275.94 320.92 L 277.35 320.65 L 278.91 320.75 L 286.35 321.99 L 293.29 322.63 L 299.75 322.70 L 306.21 322.24 L 312.09 321.35 L 317.43 320.03 L 322.64 318.23 L 327.19 316.15 L 331.15 313.79 L 334.68 311.34 L 337.53 309.14 L 340.09 306.83 L 342.33 304.34 L 344.31 301.58 L 346.27 298.18 L 348.07 294.38 L 350.07 289.44 L 354.47 276.91 L 355.16 275.52 L 356.27 274.21 L 357.66 273.14 L 359.28 272.38 L 361.02 272.02 L 362.80 272.14 Z" fill="#a05400" fill-rule="nonzero" group-id="1,2,6" id="路径-85" node-id="62" stroke="none" target-height="63.957794" target-width="95.93643" target-x="272.01245" target-y="272.01782"></path></g></g><g node-id="247"><g clip-path="url(#mask-3_12)" group-id="1,2,7" node-id="202"><path d="M 533.20 272.14 L 531.50 272.74 L 530.17 273.60 L 529.14 274.72 L 528.42 276.06 L 528.05 277.58 L 528.06 279.35 L 529.11 286.72 L 530.29 292.91 L 531.57 298.07 L 533.20 303.13 L 535.03 307.47 L 537.02 311.17 L 539.37 314.65 L 542.04 317.86 L 545.04 320.81 L 550.08 324.91 L 556.28 329.18 L 559.01 330.70 L 562.24 332.07 L 566.04 333.26 L 571.97 334.57 L 578.68 335.47 L 585.60 335.92 L 592.79 335.98 L 599.97 335.65 L 606.91 334.98 L 613.66 333.96 L 619.63 332.68 L 621.06 332.09 L 622.22 331.19 L 623.14 329.96 L 623.75 328.54 L 623.99 327.01 L 623.85 325.34 L 623.30 323.77 L 622.47 322.53 L 621.37 321.57 L 620.06 320.92 L 618.65 320.65 L 617.09 320.75 L 609.65 321.99 L 602.71 322.63 L 596.25 322.70 L 589.79 322.24 L 583.91 321.35 L 578.57 320.03 L 573.36 318.23 L 568.81 316.15 L 564.85 313.79 L 562.43 312.13 L 559.00 309.57 L 556.22 307.14 L 553.77 304.46 L 551.53 301.33 L 549.53 297.79 L 547.40 293.13 L 546.06 289.80 L 546.06 289.80 L 544.66 286.01 L 544.66 286.01 L 543.16 281.73 L 543.16 281.73 L 541.53 276.91 L 541.53 276.91 L 540.84 275.52 L 539.73 274.21 L 538.34 273.14 L 536.72 272.38 L 534.98 272.02 L 533.20 272.14 Z" fill="#a05400" fill-rule="nonzero" group-id="1,2,7" id="路径" node-id="63" stroke="none" target-height="63.957794" target-width="95.9364" target-x="528.05115" target-y="272.01782"></path></g></g><g node-id="248"><g clip-path="url(#mask-3_13)" group-id="1,2,8" node-id="206"><path d="M 902.53 608.00 L 902.22 614.63 L 901.37 621.04 L 899.98 627.25 L 898.04 633.29 L 895.60 639.15 L 892.71 644.76 L 889.37 650.12 L 885.55 655.25 L 881.35 660.06 L 876.79 664.54 L 871.85 668.71 L 866.50 672.56 L 860.91 676.00 L 855.03 679.04 L 848.85 681.68 L 842.35 683.92 L 835.73 685.67 L 828.91 686.94 L 821.85 687.72 L 814.53 688.00 L 807.21 687.72 L 800.15 686.94 L 793.33 685.67 L 786.72 683.92 L 780.21 681.68 L 774.03 679.04 L 768.15 676.00 L 762.56 672.56 L 757.22 668.71 L 752.27 664.54 L 747.71 660.06 L 743.51 655.25 L 739.69 650.12 L 736.35 644.76 L 733.46 639.15 L 731.02 633.29 L 729.09 627.25 L 727.69 621.04 L 726.84 614.63 L 726.53 608.00 L 726.84 601.37 L 727.69 594.96 L 729.09 588.75 L 731.02 582.71 L 733.46 576.85 L 736.35 571.24 L 739.69 565.88 L 743.51 560.75 L 747.71 555.94 L 752.27 551.46 L 757.22 547.29 L 762.56 543.44 L 768.15 540.00 L 774.03 536.96 L 780.21 534.32 L 786.72 532.08 L 793.33 530.33 L 800.15 529.06 L 807.21 528.28 L 814.53 528.00 L 821.85 528.28 L 828.91 529.06 L 835.73 530.33 L 842.35 532.08 L 848.85 534.32 L 855.03 536.96 L 860.91 540.00 L 866.50 543.44 L 871.85 547.29 L 876.79 551.46 L 881.35 555.94 L 885.55 560.75 L 889.37 565.88 L 892.71 571.24 L 895.60 576.85 L 898.04 582.71 L 899.98 588.75 L 901.37 594.96 L 902.22 601.37 L 902.53 608.00 Z" fill="#ff5ea4" fill-opacity="0.8" fill-rule="evenodd" filter="url(#filter-9)" group-id="1,2,8" id="椭圆形" node-id="64" stroke="none" target-height="160" target-width="176" target-x="726.5309" target-y="528"></path></g></g><g node-id="249"><g clip-path="url(#mask-3_14)" group-id="1,2,9" id="路径" node-id="65"><path d="M 562.42 639.39 L 567.60 658.19 L 573.29 677.97 L 576.71 689.37 L 583.00 709.51 L 587.05 721.78 L 591.22 733.81 L 594.04 741.54 L 596.85 748.94 L 598.26 752.48 L 601.07 759.21 L 603.82 765.34 L 606.61 770.98 L 609.16 775.56 L 611.82 779.63 L 614.12 782.41 L 618.64 787.91 L 623.41 793.12 L 628.43 798.05 L 633.71 802.71 L 639.23 807.08 L 644.95 811.13 L 650.88 814.88 L 657.03 818.32 L 663.34 821.42 L 669.82 824.19 L 676.46 826.61 L 683.27 828.70 L 690.80 830.38 L 698.27 831.47 L 705.71 831.97 L 713.13 831.89 L 720.54 831.25 L 727.80 830.08 L 734.92 828.37 L 741.93 826.12 L 748.75 823.35 L 755.31 820.10 L 761.63 816.35 L 767.73 812.09 L 773.47 807.39 L 778.85 802.24 L 783.88 796.62 L 788.58 790.51 L 791.06 786.84 L 876.02 650.67 L 877.59 647.93 L 878.75 645.15 L 879.53 642.31 L 879.93 639.39 L 879.90 635.46 L 879.25 631.69 L 877.96 628.03 L 876.59 625.45 L 874.91 623.10 L 872.89 620.95 L 870.51 619.00 L 867.87 617.46 L 865.17 616.35 L 862.37 615.64 L 859.50 615.32 L 856.65 615.37 L 853.79 615.80 L 851.01 616.58 L 848.35 617.69 L 845.80 619.16 L 843.45 620.93 L 841.33 623.01 L 839.42 625.43 L 805.62 664.78 L 804.72 665.83 L 804.27 666.10 L 803.94 666.01 L 803.78 665.46 L 804.05 663.60 L 844.55 566.00 L 845.66 563.13 L 846.37 560.23 L 846.69 557.28 L 846.64 554.31 L 846.23 551.43 L 845.47 548.60 L 844.36 545.89 L 842.94 543.38 L 841.18 541.04 L 839.14 538.96 L 836.80 537.17 L 834.14 535.67 L 831.43 534.63 L 828.75 533.97 L 826.05 533.67 L 823.32 533.74 L 819.73 534.35 L 816.33 535.50 L 813.08 537.20 L 810.13 539.39 L 807.56 542.02 L 805.36 545.13 L 760.97 628.96 L 760.32 629.88 L 759.81 629.90 L 759.48 629.43 L 759.56 628.36 L 788.47 524.03 L 789.06 520.99 L 789.24 518.06 L 789.04 515.20 L 788.46 512.39 L 787.13 508.80 L 785.26 505.56 L 782.82 502.61 L 780.68 500.69 L 778.31 499.08 L 775.68 497.77 L 772.76 496.75 L 769.72 496.17 L 766.79 496.00 L 763.93 496.21 L 761.12 496.81 L 757.53 498.14 L 754.29 500.03 L 751.35 502.48 L 749.44 504.62 L 747.84 506.99 L 746.54 509.63 L 745.53 512.55 L 710.25 615.80 L 709.55 617.26 L 708.94 617.84 L 708.28 617.94 L 707.67 617.52 L 707.25 616.72 L 707.00 615.40 L 713.21 524.22 L 713.44 521.15 L 713.29 518.19 L 712.75 515.29 L 711.85 512.48 L 710.64 509.85 L 709.10 507.38 L 707.27 505.13 L 705.19 503.15 L 702.85 501.43 L 700.30 500.04 L 697.55 499.02 L 694.57 498.36 L 691.50 498.18 L 688.57 498.40 L 685.76 498.99 L 683.03 499.97 L 680.43 501.30 L 678.07 502.90 L 675.91 504.80 L 673.95 507.02 L 672.28 509.44 L 670.95 512.07 L 669.93 514.92 L 669.24 518.02 L 652.33 632.24 L 650.68 644.11 L 650.02 647.98 L 649.24 651.65 L 648.28 655.13 L 647.20 657.98 L 646.29 659.73 L 645.35 661.00 L 644.37 661.90 L 642.80 662.98 L 641.16 663.92 L 639.41 664.57 L 637.57 664.90 L 635.68 664.92 L 633.26 664.28 L 631.00 663.04 L 628.85 661.10 L 627.09 658.76 L 625.62 655.93 L 624.46 652.51 L 622.87 646.13 L 621.04 639.81 L 617.27 628.36 L 615.45 622.04 L 613.88 615.65 L 612.23 612.06 L 610.11 608.79 L 607.49 605.81 L 604.48 603.20 L 601.20 601.02 L 597.62 599.26 L 593.84 597.98 L 590.01 597.25 L 586.10 597.05 L 583.17 597.29 L 580.32 597.88 L 577.53 598.85 L 574.77 600.20 L 571.31 602.49 L 568.39 604.93 L 565.96 607.53 L 563.97 610.30 L 562.41 613.25 L 561.24 616.40 L 560.37 620.31 L 560.01 624.51 L 560.20 629.05 L 560.98 633.99 L 562.42 639.39 L 562.42 639.39 Z" fill="#ed1f2a" fill-rule="nonzero" group-id="1,2,9,18" node-id="213" stroke="none" target-height="335.9651" target-width="319.92004" target-x="560.011" target-y="496.00128"></path><path d="M 562.42 639.39 L 567.60 658.19 L 573.29 677.97 L 576.71 689.37 L 583.00 709.51 L 587.05 721.78 L 591.22 733.81 L 594.04 741.54 L 596.85 748.94 L 598.26 752.48 L 601.07 759.21 L 603.82 765.34 L 606.61 770.98 L 609.16 775.56 L 611.82 779.63 L 614.12 782.41 L 618.64 787.91 L 623.41 793.12 L 628.43 798.05 L 633.71 802.71 L 639.23 807.08 L 644.95 811.13 L 650.88 814.88 L 657.03 818.32 L 663.34 821.42 L 669.82 824.19 L 676.46 826.61 L 683.27 828.70 L 690.80 830.38 L 698.27 831.47 L 705.71 831.97 L 713.13 831.89 L 720.54 831.25 L 727.80 830.08 L 734.92 828.37 L 741.93 826.12 L 748.75 823.35 L 755.31 820.10 L 761.63 816.35 L 767.73 812.09 L 773.47 807.39 L 778.85 802.24 L 783.88 796.62 L 788.58 790.51 L 791.06 786.84 L 876.02 650.67 L 877.59 647.93 L 878.75 645.15 L 879.53 642.31 L 879.93 639.39 L 879.90 635.46 L 879.25 631.69 L 877.96 628.03 L 876.59 625.45 L 874.91 623.10 L 872.89 620.95 L 870.51 619.00 L 867.87 617.46 L 865.17 616.35 L 862.37 615.64 L 859.50 615.32 L 856.65 615.37 L 853.79 615.80 L 851.01 616.58 L 848.35 617.69 L 845.80 619.16 L 843.45 620.93 L 841.33 623.01 L 839.42 625.43 L 805.62 664.78 L 804.72 665.83 L 804.27 666.10 L 803.94 666.01 L 803.78 665.46 L 804.05 663.60 L 844.55 566.00 L 845.66 563.13 L 846.37 560.23 L 846.69 557.28 L 846.64 554.31 L 846.23 551.43 L 845.47 548.60 L 844.36 545.89 L 842.94 543.38 L 841.18 541.04 L 839.14 538.96 L 836.80 537.17 L 834.14 535.67 L 831.43 534.63 L 828.75 533.97 L 826.05 533.67 L 823.32 533.74 L 819.73 534.35 L 816.33 535.50 L 813.08 537.20 L 810.13 539.39 L 807.56 542.02 L 805.36 545.13 L 760.97 628.96 L 760.32 629.88 L 759.81 629.90 L 759.48 629.43 L 759.56 628.36 L 788.47 524.03 L 789.06 520.99 L 789.24 518.06 L 789.04 515.20 L 788.46 512.39 L 787.13 508.80 L 785.26 505.56 L 782.82 502.61 L 780.68 500.69 L 778.31 499.08 L 775.68 497.77 L 772.76 496.75 L 769.72 496.17 L 766.79 496.00 L 763.93 496.21 L 761.12 496.81 L 757.53 498.14 L 754.29 500.03 L 751.35 502.48 L 749.44 504.62 L 747.84 506.99 L 746.54 509.63 L 745.53 512.55 L 710.25 615.80 L 709.55 617.26 L 708.94 617.84 L 708.28 617.94 L 707.67 617.52 L 707.25 616.72 L 707.00 615.40 L 713.21 524.22 L 713.44 521.15 L 713.29 518.19 L 712.75 515.29 L 711.85 512.48 L 710.64 509.85 L 709.10 507.38 L 707.27 505.13 L 705.19 503.15 L 702.85 501.43 L 700.30 500.04 L 697.55 499.02 L 694.57 498.36 L 691.50 498.18 L 688.57 498.40 L 685.76 498.99 L 683.03 499.97 L 680.43 501.30 L 678.07 502.90 L 675.91 504.80 L 673.95 507.02 L 672.28 509.44 L 670.95 512.07 L 669.93 514.92 L 669.24 518.02 L 652.33 632.24 L 650.68 644.11 L 650.02 647.98 L 649.24 651.65 L 648.28 655.13 L 647.20 657.98 L 646.29 659.73 L 645.35 661.00 L 644.37 661.90 L 642.80 662.98 L 641.16 663.92 L 639.41 664.57 L 637.57 664.90 L 635.68 664.92 L 633.26 664.28 L 631.00 663.04 L 628.85 661.10 L 627.09 658.76 L 625.62 655.93 L 624.46 652.51 L 622.87 646.13 L 621.04 639.81 L 617.27 628.36 L 615.45 622.04 L 613.88 615.65 L 612.23 612.06 L 610.11 608.79 L 607.49 605.81 L 604.48 603.20 L 601.20 601.02 L 597.62 599.26 L 593.84 597.98 L 590.01 597.25 L 586.10 597.05 L 583.17 597.29 L 580.32 597.88 L 577.53 598.85 L 574.77 600.20 L 571.31 602.49 L 568.39 604.93 L 565.96 607.53 L 563.97 610.30 L 562.41 613.25 L 561.24 616.40 L 560.37 620.31 L 560.01 624.51 L 560.20 629.05 L 560.98 633.99 L 562.42 639.39 L 562.42 639.39 Z" fill="#000000" fill-rule="nonzero" filter="url(#filter-11)" group-id="1,2,9,19" node-id="218" stroke="none" target-height="335.9651" target-width="319.92004" target-x="560.011" target-y="496.00128"></path></g></g><g node-id="250"><g clip-path="url(#mask-3_15)" group-id="1,2,10" node-id="222"><path d="M 310.53 624.00 L 310.22 630.63 L 309.37 637.04 L 307.98 643.25 L 306.04 649.29 L 303.60 655.15 L 300.71 660.76 L 297.37 666.12 L 293.55 671.25 L 289.35 676.06 L 284.79 680.54 L 279.85 684.71 L 274.50 688.56 L 268.91 692.00 L 263.03 695.04 L 256.85 697.68 L 250.35 699.92 L 243.73 701.67 L 236.91 702.94 L 229.85 703.72 L 222.53 704.00 L 215.21 703.72 L 208.15 702.94 L 201.33 701.67 L 194.72 699.92 L 188.21 697.68 L 182.03 695.04 L 176.15 692.00 L 170.56 688.56 L 165.22 684.71 L 160.27 680.54 L 155.71 676.06 L 151.51 671.25 L 147.69 666.12 L 144.35 660.76 L 141.46 655.15 L 139.02 649.29 L 137.09 643.25 L 135.69 637.04 L 134.84 630.63 L 134.53 624.00 L 134.84 617.37 L 135.69 610.96 L 137.09 604.75 L 139.02 598.71 L 141.46 592.85 L 144.35 587.24 L 147.69 581.88 L 151.51 576.75 L 155.71 571.94 L 160.27 567.46 L 165.22 563.29 L 170.56 559.44 L 176.15 556.00 L 182.03 552.96 L 188.21 550.32 L 194.72 548.08 L 201.33 546.33 L 208.15 545.06 L 215.21 544.28 L 222.53 544.00 L 229.85 544.28 L 236.91 545.06 L 243.73 546.33 L 250.35 548.08 L 256.85 550.32 L 263.03 552.96 L 268.91 556.00 L 274.50 559.44 L 279.85 563.29 L 284.79 567.46 L 289.35 571.94 L 293.55 576.75 L 297.37 581.88 L 300.71 587.24 L 303.60 592.85 L 306.04 598.71 L 307.98 604.75 L 309.37 610.96 L 310.22 617.37 L 310.53 624.00 Z" fill="#ff5ea4" fill-opacity="0.8" fill-rule="evenodd" filter="url(#filter-12)" group-id="1,2,10" id="椭圆形备份-6" node-id="68" stroke="none" target-height="160" target-width="176" target-x="134.53085" target-y="544"></path></g></g><g clip-path="url(#mask-3_16)" group-id="1,2,11" id="椭圆形" node-id="69"><path d="M 432.00 752.00 L 436.72 751.80 L 440.83 751.29 L 444.38 750.51 L 447.46 749.49 L 450.50 748.08 L 453.12 746.47 L 455.38 744.65 L 457.30 742.63 L 459.48 739.57 L 461.21 736.19 L 462.49 732.46 L 463.33 728.57 L 463.84 724.43 L 464.00 720.00 L 463.65 715.62 L 462.69 711.48 L 461.15 707.54 L 459.08 703.84 L 456.61 700.45 L 453.72 697.37 L 450.50 694.64 L 447.07 692.37 L 443.44 690.51 L 439.61 689.12 L 435.81 688.29 L 432.00 688.00 L 428.19 688.29 L 424.39 689.12 L 420.56 690.51 L 416.93 692.37 L 413.50 694.64 L 410.28 697.37 L 407.39 700.45 L 404.92 703.84 L 402.85 707.54 L 401.31 711.48 L 400.35 715.62 L 400.00 720.00 L 400.16 724.43 L 400.67 728.57 L 401.51 732.46 L 402.79 736.19 L 404.52 739.57 L 406.70 742.63 L 408.62 744.65 L 410.88 746.47 L 413.50 748.08 L 416.54 749.49 L 419.62 750.51 L 423.17 751.29 L 427.28 751.80 L 432.00 752.00 Z" fill="#000000" fill-rule="evenodd" filter="url(#filter-14)" group-id="1,2,11,20" node-id="229" stroke="none" target-height="64" target-width="64" target-x="400" target-y="688"></path><path d="M 432.00 752.00 L 436.72 751.80 L 440.83 751.29 L 444.38 750.51 L 447.46 749.49 L 450.50 748.08 L 453.12 746.47 L 455.38 744.65 L 457.30 742.63 L 459.48 739.57 L 461.21 736.19 L 462.49 732.46 L 463.33 728.57 L 463.84 724.43 L 464.00 720.00 L 463.65 715.62 L 462.69 711.48 L 461.15 707.54 L 459.08 703.84 L 456.61 700.45 L 453.72 697.37 L 450.50 694.64 L 447.07 692.37 L 443.44 690.51 L 439.61 689.12 L 435.81 688.29 L 432.00 688.00 L 428.19 688.29 L 424.39 689.12 L 420.56 690.51 L 416.93 692.37 L 413.50 694.64 L 410.28 697.37 L 407.39 700.45 L 404.92 703.84 L 402.85 707.54 L 401.31 711.48 L 400.35 715.62 L 400.00 720.00 L 400.16 724.43 L 400.67 728.57 L 401.51 732.46 L 402.79 736.19 L 404.52 739.57 L 406.70 742.63 L 408.62 744.65 L 410.88 746.47 L 413.50 748.08 L 416.54 749.49 L 419.62 750.51 L 423.17 751.29 L 427.28 751.80 L 432.00 752.00 Z" fill="#a05400" fill-rule="evenodd" group-id="1,2,11,21" node-id="234" stroke="none" target-height="64" target-width="64" target-x="400" target-y="688"></path><path d="M 432.00 752.00 L 436.72 751.80 L 440.83 751.29 L 444.38 750.51 L 447.46 749.49 L 450.50 748.08 L 453.12 746.47 L 455.38 744.65 L 457.30 742.63 L 459.48 739.57 L 461.21 736.19 L 462.49 732.46 L 463.33 728.57 L 463.84 724.43 L 464.00 720.00 L 463.65 715.62 L 462.69 711.48 L 461.15 707.54 L 459.08 703.84 L 456.61 700.45 L 453.72 697.37 L 450.50 694.64 L 447.07 692.37 L 443.44 690.51 L 439.61 689.12 L 435.81 688.29 L 432.00 688.00 L 428.19 688.29 L 424.39 689.12 L 420.56 690.51 L 416.93 692.37 L 413.50 694.64 L 410.28 697.37 L 407.39 700.45 L 404.92 703.84 L 402.85 707.54 L 401.31 711.48 L 400.35 715.62 L 400.00 720.00 L 400.16 724.43 L 400.67 728.57 L 401.51 732.46 L 402.79 736.19 L 404.52 739.57 L 406.70 742.63 L 408.62 744.65 L 410.88 746.47 L 413.50 748.08 L 416.54 749.49 L 419.62 750.51 L 423.17 751.29 L 427.28 751.80 L 432.00 752.00 Z" fill="#000000" fill-rule="evenodd" filter="url(#filter-15)" group-id="1,2,11,22" node-id="239" stroke="none" target-height="64" target-width="64" target-x="400" target-y="688"></path></g></g></g></svg>