<?xml version="1.0" standalone="no"?><!DOCTYPE svg PUBLIC "-//W3C//DTD SVG 1.1//EN" "http://www.w3.org/Graphics/SVG/1.1/DTD/svg11.dtd"><svg height="1047" node-id="1" sillyvg="true" template-height="1047" template-width="1157" version="1.1" viewBox="0 0 1157 1047" width="1157" xmlns="http://www.w3.org/2000/svg" xmlns:xlink="http://www.w3.org/1999/xlink"><defs node-id="189"><radialGradient cx="0.5" cy="0.19668992" fx="0.5" fy="0.19668992" gradientTransform="matrix(0 1 -0.912281 0 0.67943655 -0.30331)" gradientUnits="objectBoundingBox" id="radialGradient-1" node-id="5" r="0.9393923" rev="7" spreadMethod="pad"><stop offset="0" stop-color="#ffe476"></stop><stop offset="0.41387266" stop-color="#fcec6c"></stop><stop offset="1" stop-color="#ffb02f"></stop></radialGradient><linearGradient gradientUnits="objectBoundingBox" id="linearGradient-13" node-id="37" spreadMethod="pad" x1="0.5" x2="0.5" y1="0.1186253" y2="1"><stop offset="0" stop-color="#ff8b9f"></stop><stop offset="1" stop-color="#ff5166"></stop></linearGradient><linearGradient gradientUnits="objectBoundingBox" id="linearGradient-17" node-id="53" spreadMethod="pad" x1="0.5" x2="0.5" y1="0.19668992" y2="1.1360823"><stop offset="0" stop-color="#ffe992"></stop><stop offset="0.4151543" stop-color="#fff185"></stop><stop offset="1" stop-color="#ffb02f"></stop></linearGradient><linearGradient gradientUnits="objectBoundingBox" id="linearGradient-20" node-id="63" spreadMethod="pad" x1="0.5" x2="0.5" y1="0.19668992" y2="1.1360823"><stop offset="0" stop-color="#ffe992"></stop><stop offset="0.4151543" stop-color="#fff185"></stop><stop offset="1" stop-color="#ffb02f"></stop></linearGradient><linearGradient gradientUnits="objectBoundingBox" id="linearGradient-23" node-id="73" spreadMethod="pad" x1="0.5" x2="0.5" y1="0.19668992" y2="1.1360823"><stop offset="0" stop-color="#ffe992"></stop><stop offset="0.4151543" stop-color="#fff185"></stop><stop offset="1" stop-color="#ffb02f"></stop></linearGradient><linearGradient gradientUnits="objectBoundingBox" id="linearGradient-26" node-id="83" spreadMethod="pad" x1="0.5" x2="0.5" y1="0.19668992" y2="1.1360823"><stop offset="0" stop-color="#ffe992"></stop><stop offset="0.4151543" stop-color="#fff185"></stop><stop offset="1" stop-color="#ffb02f"></stop></linearGradient><linearGradient gradientUnits="objectBoundingBox" id="linearGradient-34" node-id="112" spreadMethod="pad" x1="0.5" x2="0.5" y1="0.19668992" y2="1.1360823"><stop offset="0" stop-color="#ffe992"></stop><stop offset="0.4151543" stop-color="#fff185"></stop><stop offset="1" stop-color="#ffb02f"></stop></linearGradient><filter height="1.173" id="filter-4" node-id="10" width="1.158" x="-0.079" y="-0.087"><feGaussianBlur color-interpolation-filters="linearRGB" in="SourceAlpha" result="shadowBlurInner1" stdDeviation="64 64"></feGaussianBlur><feOffset color-interpolation-filters="linearRGB" dx="0" dy="16" in="shadowBlurInner1" result="shadowOffsetInner1"></feOffset><feComposite color-interpolation-filters="linearRGB" in="shadowOffsetInner1" in2="SourceAlpha" k1="0" k2="-1" k3="1" k4="0" operator="arithmetic" result="shadowInnerInner1"></feComposite><feColorMatrix color-interpolation-filters="linearRGB" in="shadowInnerInner1" result="result4" type="matrix" values="0 0 0 0 0.968627451 0 0 0 0 0.68627451 0 0 0 0 0.270588235 0 0 0 0.501145583 0"></feColorMatrix></filter><filter height="1.571" id="filter-6" node-id="16" width="1.571" x="-0.286" y="-0.286"><feGaussianBlur color-interpolation-filters="linearRGB" in="SourceAlpha" result="shadowBlurInner1" stdDeviation="16 16"></feGaussianBlur><feOffset color-interpolation-filters="linearRGB" dx="0" dy="32" in="shadowBlurInner1" result="shadowOffsetInner1"></feOffset><feComposite color-interpolation-filters="linearRGB" in="shadowOffsetInner1" in2="SourceAlpha" k1="0" k2="-1" k3="1" k4="0" operator="arithmetic" result="shadowInnerInner1"></feComposite><feColorMatrix color-interpolation-filters="linearRGB" in="shadowInnerInner1" result="result4" type="matrix" values="0 0 0 0 0.188235294 0 0 0 0 0.0823529412 0 0 0 0 0.00784313725 0 0 0 0.80111673 0"></feColorMatrix></filter><filter height="1.571" id="filter-8" node-id="22" width="1.571" x="-0.286" y="-0.286"><feGaussianBlur color-interpolation-filters="linearRGB" in="SourceAlpha" result="shadowBlurInner1" stdDeviation="16 16"></feGaussianBlur><feOffset color-interpolation-filters="linearRGB" dx="0" dy="32" in="shadowBlurInner1" result="shadowOffsetInner1"></feOffset><feComposite color-interpolation-filters="linearRGB" in="shadowOffsetInner1" in2="SourceAlpha" k1="0" k2="-1" k3="1" k4="0" operator="arithmetic" result="shadowInnerInner1"></feComposite><feColorMatrix color-interpolation-filters="linearRGB" in="shadowInnerInner1" result="result4" type="matrix" values="0 0 0 0 0.188235294 0 0 0 0 0.0823529412 0 0 0 0 0.00784313725 0 0 0 0.80111673 0"></feColorMatrix></filter><filter height="2.8" id="filter-9" node-id="27" width="2.636" x="-0.818" y="-0.9"><feGaussianBlur color-interpolation-filters="linearRGB" in="SourceGraphic" result="result1" stdDeviation="48 48"></feGaussianBlur></filter><filter height="2.8" id="filter-10" node-id="29" width="2.636" x="-0.818" y="-0.9"><feGaussianBlur color-interpolation-filters="linearRGB" in="SourceGraphic" result="result1" stdDeviation="48 48"></feGaussianBlur></filter><filter height="1.169" id="filter-12" node-id="32" width="1.079" x="-0.04" y="-0.085"><feGaussianBlur color-interpolation-filters="linearRGB" in="SourceAlpha" result="shadowBlurInner1" stdDeviation="16 16"></feGaussianBlur><feOffset color-interpolation-filters="linearRGB" dx="0" dy="0" in="shadowBlurInner1" result="shadowOffsetInner1"></feOffset><feComposite color-interpolation-filters="linearRGB" in="shadowOffsetInner1" in2="SourceAlpha" k1="0" k2="-1" k3="1" k4="0" operator="arithmetic" result="shadowInnerInner1"></feComposite><feColorMatrix color-interpolation-filters="linearRGB" in="shadowInnerInner1" result="result4" type="matrix" values="0 0 0 0 0.661258421 0 0 0 0 0.0872254633 0 0 0 0 0.00982776113 0 0 0 1 0"></feColorMatrix></filter><filter height="1.085" id="filter-15" node-id="41" width="1.04" x="-0.02" y="-0.042"><feGaussianBlur color-interpolation-filters="linearRGB" in="SourceAlpha" result="shadowBlurInner1" stdDeviation="8 8"></feGaussianBlur><feOffset color-interpolation-filters="linearRGB" dx="0" dy="0" in="shadowBlurInner1" result="shadowOffsetInner1"></feOffset><feComposite color-interpolation-filters="linearRGB" in="shadowOffsetInner1" in2="SourceAlpha" k1="0" k2="-1" k3="1" k4="0" operator="arithmetic" result="shadowInnerInner1"></feComposite><feColorMatrix color-interpolation-filters="linearRGB" in="shadowInnerInner1" result="result4" type="matrix" values="0 0 0 0 0.661258421 0 0 0 0 0.0872254633 0 0 0 0 0.00982776113 0 0 0 1 0"></feColorMatrix></filter><filter height="1.722" id="filter-16" node-id="46" width="1.755" x="-0.378" y="-0.361"><feOffset color-interpolation-filters="linearRGB" dx="16" dy="0" in="SourceAlpha" result="shadowOffsetOuter1"></feOffset><feGaussianBlur color-interpolation-filters="linearRGB" in="shadowOffsetOuter1" result="shadowBlurOuter1" stdDeviation="24 24"></feGaussianBlur><feColorMatrix color-interpolation-filters="linearRGB" in="shadowBlurOuter1" result="shadowMatrixOuter1" type="matrix" values="0 0 0 0 0.696364251 0 0 0 0 0.548689709 0 0 0 0 0.14785881 0 0 0 0.684966401 0"></feColorMatrix><feMerge color-interpolation-filters="linearRGB" result="result4"><feMergeNode in="shadowMatrixOuter1"></feMergeNode><feMergeNode in="SourceGraphic"></feMergeNode></feMerge></filter><filter height="1.159" id="filter-19" node-id="58" width="1.167" x="-0.083" y="-0.08"><feGaussianBlur color-interpolation-filters="linearRGB" in="SourceAlpha" result="shadowBlurInner1" stdDeviation="24 24"></feGaussianBlur><feOffset color-interpolation-filters="linearRGB" dx="0" dy="0" in="shadowBlurInner1" result="shadowOffsetInner1"></feOffset><feComposite color-interpolation-filters="linearRGB" in="shadowOffsetInner1" in2="SourceAlpha" k1="0" k2="-1" k3="1" k4="0" operator="arithmetic" result="shadowInnerInner1"></feComposite><feColorMatrix color-interpolation-filters="linearRGB" in="shadowInnerInner1" result="result4" type="matrix" values="0 0 0 0 0.989893374 0 0 0 0 0.520045047 0 0 0 0 0.018873497 0 0 0 1 0"></feColorMatrix></filter><filter height="1.455" id="filter-22" node-id="68" width="1.563" x="-0.282" y="-0.228"><feGaussianBlur color-interpolation-filters="linearRGB" in="SourceAlpha" result="shadowBlurInner1" stdDeviation="24 24"></feGaussianBlur><feOffset color-interpolation-filters="linearRGB" dx="0" dy="0" in="shadowBlurInner1" result="shadowOffsetInner1"></feOffset><feComposite color-interpolation-filters="linearRGB" in="shadowOffsetInner1" in2="SourceAlpha" k1="0" k2="-1" k3="1" k4="0" operator="arithmetic" result="shadowInnerInner1"></feComposite><feColorMatrix color-interpolation-filters="linearRGB" in="shadowInnerInner1" result="result4" type="matrix" values="0 0 0 0 0.989893374 0 0 0 0 0.520045047 0 0 0 0 0.018873497 0 0 0 1 0"></feColorMatrix></filter><filter height="1.468" id="filter-25" node-id="78" width="1.621" x="-0.31" y="-0.234"><feGaussianBlur color-interpolation-filters="linearRGB" in="SourceAlpha" result="shadowBlurInner1" stdDeviation="24 24"></feGaussianBlur><feOffset color-interpolation-filters="linearRGB" dx="0" dy="0" in="shadowBlurInner1" result="shadowOffsetInner1"></feOffset><feComposite color-interpolation-filters="linearRGB" in="shadowOffsetInner1" in2="SourceAlpha" k1="0" k2="-1" k3="1" k4="0" operator="arithmetic" result="shadowInnerInner1"></feComposite><feColorMatrix color-interpolation-filters="linearRGB" in="shadowInnerInner1" result="result4" type="matrix" values="0 0 0 0 0.989893374 0 0 0 0 0.520045047 0 0 0 0 0.018873497 0 0 0 1 0"></feColorMatrix></filter><filter height="1.276" id="filter-28" node-id="88" width="1.299" x="-0.15" y="-0.138"><feGaussianBlur color-interpolation-filters="linearRGB" in="SourceAlpha" result="shadowBlurInner1" stdDeviation="24 24"></feGaussianBlur><feOffset color-interpolation-filters="linearRGB" dx="0" dy="0" in="shadowBlurInner1" result="shadowOffsetInner1"></feOffset><feComposite color-interpolation-filters="linearRGB" in="shadowOffsetInner1" in2="SourceAlpha" k1="0" k2="-1" k3="1" k4="0" operator="arithmetic" result="shadowInnerInner1"></feComposite><feColorMatrix color-interpolation-filters="linearRGB" in="shadowInnerInner1" result="result4" type="matrix" values="0 0 0 0 0.989893374 0 0 0 0 0.520045047 0 0 0 0 0.018873497 0 0 0 1 0"></feColorMatrix></filter><filter height="1.898" id="filter-29" node-id="93" width="1.94" x="-0.47" y="-0.449"><feOffset color-interpolation-filters="linearRGB" dx="-32" dy="0" in="SourceAlpha" result="shadowOffsetOuter1"></feOffset><feGaussianBlur color-interpolation-filters="linearRGB" in="shadowOffsetOuter1" result="shadowBlurOuter1" stdDeviation="24 24"></feGaussianBlur><feColorMatrix color-interpolation-filters="linearRGB" in="shadowBlurOuter1" result="shadowMatrixOuter1" type="matrix" values="0 0 0 0 0.696364251 0 0 0 0 0.548689709 0 0 0 0 0.14785881 0 0 0 0.684966401 0"></feColorMatrix><feMerge color-interpolation-filters="linearRGB" result="result4"><feMergeNode in="shadowMatrixOuter1"></feMergeNode><feMergeNode in="SourceGraphic"></feMergeNode></feMerge></filter><filter height="1.159" id="filter-31" node-id="101" width="1.167" x="-0.083" y="-0.08"><feGaussianBlur color-interpolation-filters="linearRGB" in="SourceAlpha" result="shadowBlurInner1" stdDeviation="24 24"></feGaussianBlur><feOffset color-interpolation-filters="linearRGB" dx="0" dy="0" in="shadowBlurInner1" result="shadowOffsetInner1"></feOffset><feComposite color-interpolation-filters="linearRGB" in="shadowOffsetInner1" in2="SourceAlpha" k1="0" k2="-1" k3="1" k4="0" operator="arithmetic" result="shadowInnerInner1"></feComposite><feColorMatrix color-interpolation-filters="linearRGB" in="shadowInnerInner1" result="result4" type="matrix" values="0 0 0 0 0.989893374 0 0 0 0 0.520045047 0 0 0 0 0.018873497 0 0 0 1 0"></feColorMatrix></filter><filter height="1.455" id="filter-33" node-id="107" width="1.563" x="-0.282" y="-0.228"><feGaussianBlur color-interpolation-filters="linearRGB" in="SourceAlpha" result="shadowBlurInner1" stdDeviation="24 24"></feGaussianBlur><feOffset color-interpolation-filters="linearRGB" dx="0" dy="0" in="shadowBlurInner1" result="shadowOffsetInner1"></feOffset><feComposite color-interpolation-filters="linearRGB" in="shadowOffsetInner1" in2="SourceAlpha" k1="0" k2="-1" k3="1" k4="0" operator="arithmetic" result="shadowInnerInner1"></feComposite><feColorMatrix color-interpolation-filters="linearRGB" in="shadowInnerInner1" result="result4" type="matrix" values="0 0 0 0 0.989893374 0 0 0 0 0.520045047 0 0 0 0 0.018873497 0 0 0 1 0"></feColorMatrix></filter><filter height="1.468" id="filter-36" node-id="117" width="1.621" x="-0.31" y="-0.234"><feGaussianBlur color-interpolation-filters="linearRGB" in="SourceAlpha" result="shadowBlurInner1" stdDeviation="24 24"></feGaussianBlur><feOffset color-interpolation-filters="linearRGB" dx="0" dy="0" in="shadowBlurInner1" result="shadowOffsetInner1"></feOffset><feComposite color-interpolation-filters="linearRGB" in="shadowOffsetInner1" in2="SourceAlpha" k1="0" k2="-1" k3="1" k4="0" operator="arithmetic" result="shadowInnerInner1"></feComposite><feColorMatrix color-interpolation-filters="linearRGB" in="shadowInnerInner1" result="result4" type="matrix" values="0 0 0 0 0.989893374 0 0 0 0 0.520045047 0 0 0 0 0.018873497 0 0 0 1 0"></feColorMatrix></filter><filter height="1.276" id="filter-38" node-id="123" width="1.299" x="-0.149" y="-0.138"><feGaussianBlur color-interpolation-filters="linearRGB" in="SourceAlpha" result="shadowBlurInner1" stdDeviation="24 24"></feGaussianBlur><feOffset color-interpolation-filters="linearRGB" dx="0" dy="0" in="shadowBlurInner1" result="shadowOffsetInner1"></feOffset><feComposite color-interpolation-filters="linearRGB" in="shadowOffsetInner1" in2="SourceAlpha" k1="0" k2="-1" k3="1" k4="0" operator="arithmetic" result="shadowInnerInner1"></feComposite><feColorMatrix color-interpolation-filters="linearRGB" in="shadowInnerInner1" result="result4" type="matrix" values="0 0 0 0 0.989893374 0 0 0 0 0.520045047 0 0 0 0 0.018873497 0 0 0 1 0"></feColorMatrix></filter><clipPath id="mask-3_10" node-id="132"><path d="M 533.86 96.38 L 548.27 96.01 L 562.38 96.26 L 576.21 97.12 L 589.78 98.56 L 603.11 100.60 L 616.45 103.25 L 629.45 106.45 L 642.14 110.18 L 654.52 114.44 L 666.62 119.24 L 678.55 124.62 L 690.10 130.48 L 701.29 136.81 L 712.13 143.63 L 722.63 150.95 L 732.80 158.75 L 742.54 166.99 L 751.88 175.66 L 760.82 184.77 L 769.36 194.34 L 777.43 204.28 L 785.02 214.61 L 792.16 225.35 L 798.83 236.49 L 805.05 248.07 L 816.36 253.33 L 827.52 258.98 L 838.54 265.01 L 849.41 271.43 L 860.15 278.25 L 873.23 287.24 L 885.93 296.74 L 898.27 306.77 L 910.26 317.34 L 919.54 326.15 L 928.50 335.23 L 937.13 344.59 L 945.46 354.24 L 953.47 364.18 L 961.14 374.40 L 968.41 384.85 L 975.28 395.53 L 981.76 406.44 L 987.86 417.61 L 993.52 428.99 L 998.71 440.56 L 1003.44 452.32 L 1007.70 464.28 L 1011.49 476.45 L 1014.77 488.74 L 1017.50 501.18 L 1019.70 513.79 L 1021.35 526.58 L 1022.46 539.55 L 1022.98 552.48 L 1022.88 565.54 L 1022.17 578.77 L 1020.83 592.16 L 1018.84 605.75 L 1016.02 620.58 L 1012.77 634.95 L 1009.10 648.88 L 1005.01 662.38 L 1000.51 675.47 L 995.61 688.17 L 990.16 700.86 L 984.32 713.16 L 978.10 725.06 L 971.50 736.57 L 964.52 747.73 L 957.15 758.52 L 949.33 769.08 L 941.15 779.28 L 932.61 789.13 L 923.71 798.64 L 914.44 807.81 L 904.79 816.64 L 894.85 825.09 L 884.58 833.20 L 873.95 840.98 L 862.96 848.44 L 851.61 855.57 L 839.88 862.38 L 831.16 867.78 L 821.82 873.07 L 811.83 878.22 L 801.14 883.24 L 790.49 887.78 L 779.08 892.19 L 766.87 896.45 L 753.83 900.56 L 740.95 904.20 L 727.18 907.67 L 712.47 910.97 L 696.78 914.08 L 681.38 916.75 L 664.95 919.23 L 647.46 921.49 L 628.85 923.53 L 607.70 925.39 L 586.95 926.75 L 566.60 927.61 L 546.64 927.98 L 527.05 927.87 L 507.19 927.26 L 487.81 926.15 L 468.90 924.54 L 450.44 922.45 L 432.42 919.89 L 414.22 916.75 L 396.57 913.11 L 379.44 908.98 L 362.82 904.39 L 346.69 899.32 L 333.19 894.59 L 320.10 889.51 L 307.41 884.11 L 295.10 878.37 L 283.16 872.30 L 271.58 865.90 L 260.11 859.00 L 249.06 851.76 L 238.42 844.18 L 228.17 836.25 L 218.30 827.97 L 208.82 819.34 L 199.67 810.30 L 190.95 800.89 L 182.64 791.11 L 174.74 780.93 L 167.23 770.36 L 160.12 759.39 L 153.56 748.22 L 147.43 736.64 L 141.73 724.62 L 136.45 712.15 L 131.61 699.21 L 127.21 685.77 L 123.46 672.48 L 120.16 658.70 L 117.34 644.41 L 114.99 629.58 L 113.15 614.19 L 111.82 598.22 L 111.14 583.09 L 111.03 568.57 L 111.46 554.63 L 112.41 541.24 L 113.86 528.37 L 115.90 515.28 L 118.42 502.70 L 121.40 490.60 L 124.84 478.97 L 128.72 467.78 L 133.18 456.62 L 138.06 445.89 L 143.35 435.54 L 149.05 425.58 L 155.18 415.98 L 161.77 406.63 L 168.74 397.62 L 176.10 388.93 L 183.85 380.56 L 192.01 372.50 L 200.46 364.81 L 209.28 357.41 L 218.46 350.29 L 228.02 343.45 L 237.97 336.88 L 240.90 323.41 L 244.19 310.46 L 247.84 298.03 L 251.83 286.10 L 256.16 274.63 L 260.83 263.62 L 265.81 253.05 L 271.38 242.41 L 277.26 232.20 L 283.44 222.43 L 289.94 213.08 L 296.74 204.13 L 303.85 195.57 L 311.28 187.38 L 320.46 178.18 L 330.02 169.49 L 339.99 161.29 L 350.37 153.58 L 361.17 146.34 L 372.42 139.58 L 383.87 133.40 L 395.72 127.67 L 407.96 122.40 L 420.62 117.59 L 433.72 113.23 L 447.27 109.34 L 460.70 106.05 L 474.52 103.20 L 488.72 100.79 L 503.34 98.85 L 518.38 97.37 L 533.86 96.38 Z" fill="#000000" fill-rule="evenodd" node-id="416" stroke="none" target-height="831.9669" target-width="911.9464" target-x="111.03111" target-y="96.01346"></path></clipPath><clipPath id="mask-3_9" node-id="132"><path d="M 533.86 96.38 L 548.27 96.01 L 562.38 96.26 L 576.21 97.12 L 589.78 98.56 L 603.11 100.60 L 616.45 103.25 L 629.45 106.45 L 642.14 110.18 L 654.52 114.44 L 666.62 119.24 L 678.55 124.62 L 690.10 130.48 L 701.29 136.81 L 712.13 143.63 L 722.63 150.95 L 732.80 158.75 L 742.54 166.99 L 751.88 175.66 L 760.82 184.77 L 769.36 194.34 L 777.43 204.28 L 785.02 214.61 L 792.16 225.35 L 798.83 236.49 L 805.05 248.07 L 816.36 253.33 L 827.52 258.98 L 838.54 265.01 L 849.41 271.43 L 860.15 278.25 L 873.23 287.24 L 885.93 296.74 L 898.27 306.77 L 910.26 317.34 L 919.54 326.15 L 928.50 335.23 L 937.13 344.59 L 945.46 354.24 L 953.47 364.18 L 961.14 374.40 L 968.41 384.85 L 975.28 395.53 L 981.76 406.44 L 987.86 417.61 L 993.52 428.99 L 998.71 440.56 L 1003.44 452.32 L 1007.70 464.28 L 1011.49 476.45 L 1014.77 488.74 L 1017.50 501.18 L 1019.70 513.79 L 1021.35 526.58 L 1022.46 539.55 L 1022.98 552.48 L 1022.88 565.54 L 1022.17 578.77 L 1020.83 592.16 L 1018.84 605.75 L 1016.02 620.58 L 1012.77 634.95 L 1009.10 648.88 L 1005.01 662.38 L 1000.51 675.47 L 995.61 688.17 L 990.16 700.86 L 984.32 713.16 L 978.10 725.06 L 971.50 736.57 L 964.52 747.73 L 957.15 758.52 L 949.33 769.08 L 941.15 779.28 L 932.61 789.13 L 923.71 798.64 L 914.44 807.81 L 904.79 816.64 L 894.85 825.09 L 884.58 833.20 L 873.95 840.98 L 862.96 848.44 L 851.61 855.57 L 839.88 862.38 L 831.16 867.78 L 821.82 873.07 L 811.83 878.22 L 801.14 883.24 L 790.49 887.78 L 779.08 892.19 L 766.87 896.45 L 753.83 900.56 L 740.95 904.20 L 727.18 907.67 L 712.47 910.97 L 696.78 914.08 L 681.38 916.75 L 664.95 919.23 L 647.46 921.49 L 628.85 923.53 L 607.70 925.39 L 586.95 926.75 L 566.60 927.61 L 546.64 927.98 L 527.05 927.87 L 507.19 927.26 L 487.81 926.15 L 468.90 924.54 L 450.44 922.45 L 432.42 919.89 L 414.22 916.75 L 396.57 913.11 L 379.44 908.98 L 362.82 904.39 L 346.69 899.32 L 333.19 894.59 L 320.10 889.51 L 307.41 884.11 L 295.10 878.37 L 283.16 872.30 L 271.58 865.90 L 260.11 859.00 L 249.06 851.76 L 238.42 844.18 L 228.17 836.25 L 218.30 827.97 L 208.82 819.34 L 199.67 810.30 L 190.95 800.89 L 182.64 791.11 L 174.74 780.93 L 167.23 770.36 L 160.12 759.39 L 153.56 748.22 L 147.43 736.64 L 141.73 724.62 L 136.45 712.15 L 131.61 699.21 L 127.21 685.77 L 123.46 672.48 L 120.16 658.70 L 117.34 644.41 L 114.99 629.58 L 113.15 614.19 L 111.82 598.22 L 111.14 583.09 L 111.03 568.57 L 111.46 554.63 L 112.41 541.24 L 113.86 528.37 L 115.90 515.28 L 118.42 502.70 L 121.40 490.60 L 124.84 478.97 L 128.72 467.78 L 133.18 456.62 L 138.06 445.89 L 143.35 435.54 L 149.05 425.58 L 155.18 415.98 L 161.77 406.63 L 168.74 397.62 L 176.10 388.93 L 183.85 380.56 L 192.01 372.50 L 200.46 364.81 L 209.28 357.41 L 218.46 350.29 L 228.02 343.45 L 237.97 336.88 L 240.90 323.41 L 244.19 310.46 L 247.84 298.03 L 251.83 286.10 L 256.16 274.63 L 260.83 263.62 L 265.81 253.05 L 271.38 242.41 L 277.26 232.20 L 283.44 222.43 L 289.94 213.08 L 296.74 204.13 L 303.85 195.57 L 311.28 187.38 L 320.46 178.18 L 330.02 169.49 L 339.99 161.29 L 350.37 153.58 L 361.17 146.34 L 372.42 139.58 L 383.87 133.40 L 395.72 127.67 L 407.96 122.40 L 420.62 117.59 L 433.72 113.23 L 447.27 109.34 L 460.70 106.05 L 474.52 103.20 L 488.72 100.79 L 503.34 98.85 L 518.38 97.37 L 533.86 96.38 Z" fill="#000000" fill-rule="evenodd" node-id="416" stroke="none" target-height="831.9669" target-width="911.9464" target-x="111.03111" target-y="96.01346"></path></clipPath><clipPath id="mask-3_8" node-id="132"><path d="M 533.86 96.38 L 548.27 96.01 L 562.38 96.26 L 576.21 97.12 L 589.78 98.56 L 603.11 100.60 L 616.45 103.25 L 629.45 106.45 L 642.14 110.18 L 654.52 114.44 L 666.62 119.24 L 678.55 124.62 L 690.10 130.48 L 701.29 136.81 L 712.13 143.63 L 722.63 150.95 L 732.80 158.75 L 742.54 166.99 L 751.88 175.66 L 760.82 184.77 L 769.36 194.34 L 777.43 204.28 L 785.02 214.61 L 792.16 225.35 L 798.83 236.49 L 805.05 248.07 L 816.36 253.33 L 827.52 258.98 L 838.54 265.01 L 849.41 271.43 L 860.15 278.25 L 873.23 287.24 L 885.93 296.74 L 898.27 306.77 L 910.26 317.34 L 919.54 326.15 L 928.50 335.23 L 937.13 344.59 L 945.46 354.24 L 953.47 364.18 L 961.14 374.40 L 968.41 384.85 L 975.28 395.53 L 981.76 406.44 L 987.86 417.61 L 993.52 428.99 L 998.71 440.56 L 1003.44 452.32 L 1007.70 464.28 L 1011.49 476.45 L 1014.77 488.74 L 1017.50 501.18 L 1019.70 513.79 L 1021.35 526.58 L 1022.46 539.55 L 1022.98 552.48 L 1022.88 565.54 L 1022.17 578.77 L 1020.83 592.16 L 1018.84 605.75 L 1016.02 620.58 L 1012.77 634.95 L 1009.10 648.88 L 1005.01 662.38 L 1000.51 675.47 L 995.61 688.17 L 990.16 700.86 L 984.32 713.16 L 978.10 725.06 L 971.50 736.57 L 964.52 747.73 L 957.15 758.52 L 949.33 769.08 L 941.15 779.28 L 932.61 789.13 L 923.71 798.64 L 914.44 807.81 L 904.79 816.64 L 894.85 825.09 L 884.58 833.20 L 873.95 840.98 L 862.96 848.44 L 851.61 855.57 L 839.88 862.38 L 831.16 867.78 L 821.82 873.07 L 811.83 878.22 L 801.14 883.24 L 790.49 887.78 L 779.08 892.19 L 766.87 896.45 L 753.83 900.56 L 740.95 904.20 L 727.18 907.67 L 712.47 910.97 L 696.78 914.08 L 681.38 916.75 L 664.95 919.23 L 647.46 921.49 L 628.85 923.53 L 607.70 925.39 L 586.95 926.75 L 566.60 927.61 L 546.64 927.98 L 527.05 927.87 L 507.19 927.26 L 487.81 926.15 L 468.90 924.54 L 450.44 922.45 L 432.42 919.89 L 414.22 916.75 L 396.57 913.11 L 379.44 908.98 L 362.82 904.39 L 346.69 899.32 L 333.19 894.59 L 320.10 889.51 L 307.41 884.11 L 295.10 878.37 L 283.16 872.30 L 271.58 865.90 L 260.11 859.00 L 249.06 851.76 L 238.42 844.18 L 228.17 836.25 L 218.30 827.97 L 208.82 819.34 L 199.67 810.30 L 190.95 800.89 L 182.64 791.11 L 174.74 780.93 L 167.23 770.36 L 160.12 759.39 L 153.56 748.22 L 147.43 736.64 L 141.73 724.62 L 136.45 712.15 L 131.61 699.21 L 127.21 685.77 L 123.46 672.48 L 120.16 658.70 L 117.34 644.41 L 114.99 629.58 L 113.15 614.19 L 111.82 598.22 L 111.14 583.09 L 111.03 568.57 L 111.46 554.63 L 112.41 541.24 L 113.86 528.37 L 115.90 515.28 L 118.42 502.70 L 121.40 490.60 L 124.84 478.97 L 128.72 467.78 L 133.18 456.62 L 138.06 445.89 L 143.35 435.54 L 149.05 425.58 L 155.18 415.98 L 161.77 406.63 L 168.74 397.62 L 176.10 388.93 L 183.85 380.56 L 192.01 372.50 L 200.46 364.81 L 209.28 357.41 L 218.46 350.29 L 228.02 343.45 L 237.97 336.88 L 240.90 323.41 L 244.19 310.46 L 247.84 298.03 L 251.83 286.10 L 256.16 274.63 L 260.83 263.62 L 265.81 253.05 L 271.38 242.41 L 277.26 232.20 L 283.44 222.43 L 289.94 213.08 L 296.74 204.13 L 303.85 195.57 L 311.28 187.38 L 320.46 178.18 L 330.02 169.49 L 339.99 161.29 L 350.37 153.58 L 361.17 146.34 L 372.42 139.58 L 383.87 133.40 L 395.72 127.67 L 407.96 122.40 L 420.62 117.59 L 433.72 113.23 L 447.27 109.34 L 460.70 106.05 L 474.52 103.20 L 488.72 100.79 L 503.34 98.85 L 518.38 97.37 L 533.86 96.38 Z" fill="#000000" fill-rule="evenodd" node-id="416" stroke="none" target-height="831.9669" target-width="911.9464" target-x="111.03111" target-y="96.01346"></path></clipPath><clipPath id="mask-3_7" node-id="132"><path d="M 559.97 86.10 L 574.36 86.74 L 588.42 87.97 L 602.16 89.79 L 615.60 92.18 L 628.75 95.14 L 641.87 98.72 L 654.62 102.81 L 667.02 107.42 L 679.08 112.54 L 690.81 118.17 L 702.33 124.36 L 713.44 131.01 L 724.16 138.11 L 734.50 145.67 L 744.47 153.70 L 754.07 162.20 L 763.22 171.09 L 771.93 180.39 L 780.20 190.11 L 788.06 200.25 L 795.41 210.73 L 802.27 221.57 L 808.64 232.77 L 814.52 244.35 L 819.91 256.34 L 830.83 262.38 L 841.57 268.79 L 852.14 275.57 L 862.54 282.74 L 872.77 290.29 L 885.19 300.16 L 897.20 310.53 L 908.82 321.40 L 920.04 332.78 L 928.68 342.21 L 936.98 351.89 L 944.94 361.83 L 952.57 372.04 L 959.88 382.52 L 966.81 393.25 L 973.34 404.18 L 979.45 415.31 L 985.15 426.65 L 990.45 438.21 L 995.31 449.97 L 999.68 461.87 L 1003.57 473.93 L 1006.98 486.16 L 1009.92 498.56 L 1012.33 511.05 L 1014.19 523.65 L 1015.50 536.38 L 1016.26 549.25 L 1016.46 562.27 L 1016.08 575.20 L 1015.07 588.23 L 1013.44 601.37 L 1011.16 614.64 L 1008.23 628.06 L 1004.38 642.66 L 1000.14 656.77 L 995.50 670.41 L 990.48 683.59 L 985.09 696.34 L 979.31 708.66 L 972.99 720.94 L 966.30 732.80 L 959.27 744.23 L 951.88 755.26 L 944.14 765.90 L 936.04 776.15 L 927.50 786.14 L 918.63 795.75 L 909.42 804.98 L 899.88 813.84 L 889.99 822.34 L 879.75 830.48 L 869.25 838.21 L 858.43 845.59 L 847.28 852.61 L 835.81 859.28 L 823.99 865.60 L 811.81 871.58 L 802.74 876.36 L 793.05 880.98 L 782.72 885.43 L 771.71 889.69 L 760.77 893.48 L 749.08 897.08 L 736.60 900.48 L 723.30 903.67 L 710.20 906.40 L 696.22 908.90 L 681.32 911.16 L 665.45 913.17 L 649.90 914.76 L 633.34 916.09 L 615.73 917.13 L 597.03 917.86 L 575.80 918.25 L 555.01 918.15 L 534.65 917.59 L 514.70 916.57 L 495.17 915.09 L 475.40 913.10 L 456.14 910.63 L 437.39 907.71 L 419.12 904.34 L 401.33 900.53 L 383.39 896.12 L 366.04 891.26 L 349.24 885.95 L 332.98 880.21 L 317.24 874.03 L 304.11 868.37 L 291.40 862.39 L 279.12 856.11 L 267.24 849.53 L 255.75 842.64 L 244.65 835.45 L 233.69 827.77 L 223.17 819.78 L 213.08 811.47 L 203.41 802.84 L 194.15 793.90 L 185.28 784.62 L 176.79 774.97 L 168.75 764.97 L 161.14 754.63 L 153.97 743.93 L 147.21 732.87 L 140.89 721.42 L 135.12 709.83 L 129.82 697.85 L 124.97 685.46 L 120.57 672.65 L 116.65 659.40 L 113.20 645.69 L 110.38 632.17 L 108.05 618.19 L 106.23 603.74 L 104.93 588.78 L 104.16 573.30 L 103.95 557.27 L 104.33 542.14 L 105.23 527.65 L 106.63 513.77 L 108.51 500.47 L 110.86 487.74 L 113.80 474.82 L 117.19 462.45 L 121.01 450.59 L 125.25 439.23 L 129.91 428.33 L 135.13 417.52 L 140.75 407.14 L 146.75 397.19 L 153.13 387.65 L 159.91 378.50 L 167.14 369.64 L 174.72 361.13 L 182.67 352.98 L 190.98 345.17 L 199.68 337.70 L 208.66 330.62 L 217.97 323.85 L 227.63 317.39 L 237.64 311.23 L 248.02 305.38 L 251.88 292.14 L 256.07 279.46 L 260.58 267.31 L 265.39 255.68 L 270.51 244.55 L 275.93 233.89 L 281.64 223.69 L 287.94 213.46 L 294.51 203.69 L 301.37 194.38 L 308.50 185.50 L 315.91 177.04 L 323.60 169.00 L 331.58 161.36 L 341.38 152.82 L 351.52 144.81 L 362.04 137.33 L 372.93 130.36 L 384.21 123.89 L 395.91 117.93 L 407.76 112.57 L 419.97 107.68 L 432.56 103.28 L 445.52 99.36 L 458.89 95.92 L 472.68 92.99 L 486.31 90.64 L 500.29 88.76 L 514.63 87.35 L 529.35 86.44 L 544.45 86.01 L 559.97 86.10 Z" fill="#000000" fill-rule="evenodd" node-id="416" stroke="none" target-height="832.2334" target-width="912.5118" target-x="103.94917" target-y="86.012215"></path></clipPath><clipPath id="mask-3_6" node-id="132"><path d="M 557.98 104.98 L 572.38 105.62 L 586.44 106.85 L 600.18 108.67 L 613.61 111.06 L 626.77 114.02 L 639.89 117.60 L 652.64 121.69 L 665.03 126.30 L 677.09 131.42 L 688.82 137.05 L 700.35 143.25 L 711.46 149.89 L 722.18 156.99 L 732.52 164.56 L 742.48 172.58 L 752.08 181.08 L 761.23 189.97 L 769.94 199.27 L 778.22 208.99 L 786.08 219.13 L 793.43 229.61 L 800.29 240.45 L 806.65 251.65 L 812.53 263.23 L 817.93 275.22 L 828.85 281.26 L 839.59 287.67 L 850.15 294.45 L 860.55 301.62 L 870.79 309.17 L 883.21 319.05 L 895.22 329.41 L 906.83 340.28 L 918.06 351.66 L 926.70 361.09 L 935.00 370.77 L 942.96 380.72 L 950.59 390.92 L 957.89 401.40 L 964.83 412.13 L 971.35 423.06 L 977.46 434.19 L 983.16 445.53 L 988.46 457.09 L 993.32 468.85 L 997.69 480.75 L 1001.59 492.81 L 1005.00 505.04 L 1007.94 517.44 L 1010.35 529.93 L 1012.21 542.53 L 1013.52 555.26 L 1014.27 568.13 L 1014.48 581.16 L 1014.09 594.08 L 1013.09 607.11 L 1011.45 620.25 L 1009.18 633.53 L 1006.25 646.94 L 1002.40 661.54 L 998.15 675.65 L 993.52 689.29 L 988.50 702.47 L 983.10 715.22 L 977.33 727.54 L 971.00 739.82 L 964.32 751.68 L 957.28 763.11 L 949.89 774.14 L 942.15 784.78 L 934.05 795.04 L 925.51 805.03 L 916.64 814.63 L 907.44 823.86 L 897.90 832.72 L 888.01 841.22 L 877.77 849.36 L 867.26 857.09 L 856.44 864.47 L 845.30 871.49 L 833.82 878.16 L 822.00 884.49 L 809.83 890.46 L 800.75 895.25 L 791.06 899.86 L 780.73 904.31 L 769.73 908.57 L 758.78 912.36 L 747.09 915.96 L 734.62 919.36 L 721.32 922.55 L 708.22 925.28 L 694.24 927.78 L 679.34 930.05 L 663.47 932.05 L 647.91 933.65 L 631.35 934.97 L 613.75 936.01 L 595.04 936.74 L 573.81 937.13 L 553.02 937.03 L 532.66 936.47 L 512.72 935.45 L 493.18 933.97 L 473.41 931.98 L 454.16 929.51 L 435.41 926.59 L 417.14 923.22 L 399.34 919.41 L 381.41 915.01 L 364.05 910.14 L 347.26 904.84 L 331.00 899.09 L 315.26 892.91 L 302.12 887.25 L 289.42 881.27 L 277.13 874.99 L 265.25 868.41 L 253.77 861.52 L 242.66 854.33 L 231.70 846.65 L 221.18 838.66 L 211.09 830.35 L 201.42 821.73 L 192.16 812.78 L 183.30 803.51 L 174.81 793.85 L 166.77 783.86 L 159.16 773.51 L 151.98 762.82 L 145.23 751.75 L 138.90 740.30 L 133.14 728.71 L 127.83 716.73 L 122.98 704.34 L 118.59 691.53 L 114.66 678.28 L 111.21 664.57 L 108.39 651.05 L 106.06 637.07 L 104.24 622.62 L 102.94 607.66 L 102.18 592.18 L 101.96 576.16 L 102.34 561.02 L 103.24 546.53 L 104.64 532.65 L 106.53 519.35 L 108.87 506.62 L 111.82 493.71 L 115.21 481.33 L 119.03 469.47 L 123.27 458.11 L 127.92 447.21 L 133.15 436.40 L 138.76 426.03 L 144.76 416.08 L 151.15 406.53 L 157.93 397.38 L 165.15 388.52 L 172.74 380.01 L 180.68 371.86 L 189.00 364.05 L 197.70 356.58 L 206.67 349.50 L 215.98 342.73 L 225.64 336.27 L 235.66 330.11 L 246.04 324.26 L 249.90 311.02 L 254.09 298.34 L 258.59 286.19 L 263.41 274.56 L 268.53 263.43 L 273.95 252.77 L 279.66 242.58 L 285.96 232.34 L 292.53 222.57 L 299.38 213.26 L 306.51 204.38 L 313.92 195.92 L 321.62 187.88 L 329.60 180.24 L 339.39 171.70 L 349.54 163.69 L 360.05 156.21 L 370.94 149.24 L 382.23 142.77 L 393.92 136.81 L 405.78 131.45 L 417.99 126.56 L 430.57 122.16 L 443.54 118.24 L 456.91 114.81 L 470.69 111.87 L 484.33 109.52 L 498.31 107.64 L 512.65 106.24 L 527.36 105.32 L 542.47 104.89 L 557.98 104.98 Z" fill="#000000" fill-rule="evenodd" node-id="416" stroke="none" target-height="832.2334" target-width="912.5118" target-x="101.96466" target-y="104.89354"></path></clipPath><clipPath id="mask-3" node-id="132"><path d="M 422.86 0.38 C 542.07 -5.37 644.76 54.68 694.05 152.07 C 826.94 211.20 934.79 352.58 907.84 509.75 C 887.63 627.61 823.20 713.73 728.89 766.38 C 682.43 796.44 616.20 817.75 517.85 827.53 C 238.34 855.30 16.98 754.50 0.82 502.22 C -7.15 377.83 43.42 293.95 126.97 240.88 C 157.60 85.87 269.84 7.75 422.86 0.38 Z" fill="#000000" fill-rule="evenodd" node-id="416" stroke="none" target-height="860.6705" target-width="941.9407" target-x="-7.145999" target-y="-5.366632"></path></clipPath></defs><g node-id="633"><path d="M 47.00 0.00 L 1071.00 0.00 L 1071.00 1024.00 L 47.00 1024.00 Z" fill="none" group-id="1" id="矩形备份-7" node-id="130" stroke="none" target-height="1024" target-width="1024" target-x="47" target-y="0"></path><g node-id="634"><g node-id="637"><g node-id="651"><path d="M 533.86 96.38 L 548.27 96.01 L 562.38 96.26 L 576.21 97.12 L 589.78 98.56 L 603.11 100.60 L 616.45 103.25 L 629.45 106.45 L 642.14 110.18 L 654.52 114.44 L 666.62 119.24 L 678.55 124.62 L 690.10 130.48 L 701.29 136.81 L 712.13 143.63 L 722.63 150.95 L 732.80 158.75 L 742.54 166.99 L 751.88 175.66 L 760.82 184.77 L 769.36 194.34 L 777.43 204.28 L 785.02 214.61 L 792.16 225.35 L 798.83 236.49 L 805.05 248.07 L 816.36 253.33 L 827.52 258.98 L 838.54 265.01 L 849.41 271.43 L 860.15 278.25 L 873.23 287.24 L 885.93 296.74 L 898.27 306.77 L 910.26 317.34 L 919.54 326.15 L 928.50 335.23 L 937.13 344.59 L 945.46 354.24 L 953.47 364.18 L 961.14 374.40 L 968.41 384.85 L 975.28 395.53 L 981.76 406.44 L 987.86 417.61 L 993.52 428.99 L 998.71 440.56 L 1003.44 452.32 L 1007.70 464.28 L 1011.49 476.45 L 1014.77 488.74 L 1017.50 501.18 L 1019.70 513.79 L 1021.35 526.58 L 1022.46 539.55 L 1022.98 552.48 L 1022.88 565.54 L 1022.17 578.77 L 1020.83 592.16 L 1018.84 605.75 L 1016.02 620.58 L 1012.77 634.95 L 1009.10 648.88 L 1005.01 662.38 L 1000.51 675.47 L 995.61 688.17 L 990.16 700.86 L 984.32 713.16 L 978.10 725.06 L 971.50 736.57 L 964.52 747.73 L 957.15 758.52 L 949.33 769.08 L 941.15 779.28 L 932.61 789.13 L 923.71 798.64 L 914.44 807.81 L 904.79 816.64 L 894.85 825.09 L 884.58 833.20 L 873.95 840.98 L 862.96 848.44 L 851.61 855.57 L 839.88 862.38 L 831.16 867.78 L 821.82 873.07 L 811.83 878.22 L 801.14 883.24 L 790.49 887.78 L 779.08 892.19 L 766.87 896.45 L 753.83 900.56 L 740.95 904.20 L 727.18 907.67 L 712.47 910.97 L 696.78 914.08 L 681.38 916.75 L 664.95 919.23 L 647.46 921.49 L 628.85 923.53 L 607.70 925.39 L 586.95 926.75 L 566.60 927.61 L 546.64 927.98 L 527.05 927.87 L 507.19 927.26 L 487.81 926.15 L 468.90 924.54 L 450.44 922.45 L 432.42 919.89 L 414.22 916.75 L 396.57 913.11 L 379.44 908.98 L 362.82 904.39 L 346.69 899.32 L 333.19 894.59 L 320.10 889.51 L 307.41 884.11 L 295.10 878.37 L 283.16 872.30 L 271.58 865.90 L 260.11 859.00 L 249.06 851.76 L 238.42 844.18 L 228.17 836.25 L 218.30 827.97 L 208.82 819.34 L 199.67 810.30 L 190.95 800.89 L 182.64 791.11 L 174.74 780.93 L 167.23 770.36 L 160.12 759.39 L 153.56 748.22 L 147.43 736.64 L 141.73 724.62 L 136.45 712.15 L 131.61 699.21 L 127.21 685.77 L 123.46 672.48 L 120.16 658.70 L 117.34 644.41 L 114.99 629.58 L 113.15 614.19 L 111.82 598.22 L 111.14 583.09 L 111.03 568.57 L 111.46 554.63 L 112.41 541.24 L 113.86 528.37 L 115.90 515.28 L 118.42 502.70 L 121.40 490.60 L 124.84 478.97 L 128.72 467.78 L 133.18 456.62 L 138.06 445.89 L 143.35 435.54 L 149.05 425.58 L 155.18 415.98 L 161.77 406.63 L 168.74 397.62 L 176.10 388.93 L 183.85 380.56 L 192.01 372.50 L 200.46 364.81 L 209.28 357.41 L 218.46 350.29 L 228.02 343.45 L 237.97 336.88 L 240.90 323.41 L 244.19 310.46 L 247.84 298.03 L 251.83 286.10 L 256.16 274.63 L 260.83 263.62 L 265.81 253.05 L 271.38 242.41 L 277.26 232.20 L 283.44 222.43 L 289.94 213.08 L 296.74 204.13 L 303.85 195.57 L 311.28 187.38 L 320.46 178.18 L 330.02 169.49 L 339.99 161.29 L 350.37 153.58 L 361.17 146.34 L 372.42 139.58 L 383.87 133.40 L 395.72 127.67 L 407.96 122.40 L 420.62 117.59 L 433.72 113.23 L 447.27 109.34 L 460.70 106.05 L 474.52 103.20 L 488.72 100.79 L 503.34 98.85 L 518.38 97.37 L 533.86 96.38 Z" fill="url(#radialGradient-1)" fill-rule="evenodd" group-id="1,2,5,19" node-id="428" stroke="none" target-height="831.9669" target-width="911.9464" target-x="111.03111" target-y="96.01346"></path></g><path d="M 533.86 96.38 L 548.27 96.01 L 562.38 96.26 L 576.21 97.12 L 589.78 98.56 L 603.11 100.60 L 616.45 103.25 L 629.45 106.45 L 642.14 110.18 L 654.52 114.44 L 666.62 119.24 L 678.55 124.62 L 690.10 130.48 L 701.29 136.81 L 712.13 143.63 L 722.63 150.95 L 732.80 158.75 L 742.54 166.99 L 751.88 175.66 L 760.82 184.77 L 769.36 194.34 L 777.43 204.28 L 785.02 214.61 L 792.16 225.35 L 798.83 236.49 L 805.05 248.07 L 816.36 253.33 L 827.52 258.98 L 838.54 265.01 L 849.41 271.43 L 860.15 278.25 L 873.23 287.24 L 885.93 296.74 L 898.27 306.77 L 910.26 317.34 L 919.54 326.15 L 928.50 335.23 L 937.13 344.59 L 945.46 354.24 L 953.47 364.18 L 961.14 374.40 L 968.41 384.85 L 975.28 395.53 L 981.76 406.44 L 987.86 417.61 L 993.52 428.99 L 998.71 440.56 L 1003.44 452.32 L 1007.70 464.28 L 1011.49 476.45 L 1014.77 488.74 L 1017.50 501.18 L 1019.70 513.79 L 1021.35 526.58 L 1022.46 539.55 L 1022.98 552.48 L 1022.88 565.54 L 1022.17 578.77 L 1020.83 592.16 L 1018.84 605.75 L 1016.02 620.58 L 1012.77 634.95 L 1009.10 648.88 L 1005.01 662.38 L 1000.51 675.47 L 995.61 688.17 L 990.16 700.86 L 984.32 713.16 L 978.10 725.06 L 971.50 736.57 L 964.52 747.73 L 957.15 758.52 L 949.33 769.08 L 941.15 779.28 L 932.61 789.13 L 923.71 798.64 L 914.44 807.81 L 904.79 816.64 L 894.85 825.09 L 884.58 833.20 L 873.95 840.98 L 862.96 848.44 L 851.61 855.57 L 839.88 862.38 L 831.16 867.78 L 821.82 873.07 L 811.83 878.22 L 801.14 883.24 L 790.49 887.78 L 779.08 892.19 L 766.87 896.45 L 753.83 900.56 L 740.95 904.20 L 727.18 907.67 L 712.47 910.97 L 696.78 914.08 L 681.38 916.75 L 664.95 919.23 L 647.46 921.49 L 628.85 923.53 L 607.70 925.39 L 586.95 926.75 L 566.60 927.61 L 546.64 927.98 L 527.05 927.87 L 507.19 927.26 L 487.81 926.15 L 468.90 924.54 L 450.44 922.45 L 432.42 919.89 L 414.22 916.75 L 396.57 913.11 L 379.44 908.98 L 362.82 904.39 L 346.69 899.32 L 333.19 894.59 L 320.10 889.51 L 307.41 884.11 L 295.10 878.37 L 283.16 872.30 L 271.58 865.90 L 260.11 859.00 L 249.06 851.76 L 238.42 844.18 L 228.17 836.25 L 218.30 827.97 L 208.82 819.34 L 199.67 810.30 L 190.95 800.89 L 182.64 791.11 L 174.74 780.93 L 167.23 770.36 L 160.12 759.39 L 153.56 748.22 L 147.43 736.64 L 141.73 724.62 L 136.45 712.15 L 131.61 699.21 L 127.21 685.77 L 123.46 672.48 L 120.16 658.70 L 117.34 644.41 L 114.99 629.58 L 113.15 614.19 L 111.82 598.22 L 111.14 583.09 L 111.03 568.57 L 111.46 554.63 L 112.41 541.24 L 113.86 528.37 L 115.90 515.28 L 118.42 502.70 L 121.40 490.60 L 124.84 478.97 L 128.72 467.78 L 133.18 456.62 L 138.06 445.89 L 143.35 435.54 L 149.05 425.58 L 155.18 415.98 L 161.77 406.63 L 168.74 397.62 L 176.10 388.93 L 183.85 380.56 L 192.01 372.50 L 200.46 364.81 L 209.28 357.41 L 218.46 350.29 L 228.02 343.45 L 237.97 336.88 L 240.90 323.41 L 244.19 310.46 L 247.84 298.03 L 251.83 286.10 L 256.16 274.63 L 260.83 263.62 L 265.81 253.05 L 271.38 242.41 L 277.26 232.20 L 283.44 222.43 L 289.94 213.08 L 296.74 204.13 L 303.85 195.57 L 311.28 187.38 L 320.46 178.18 L 330.02 169.49 L 339.99 161.29 L 350.37 153.58 L 361.17 146.34 L 372.42 139.58 L 383.87 133.40 L 395.72 127.67 L 407.96 122.40 L 420.62 117.59 L 433.72 113.23 L 447.27 109.34 L 460.70 106.05 L 474.52 103.20 L 488.72 100.79 L 503.34 98.85 L 518.38 97.37 L 533.86 96.38 Z" fill="#000000" fill-rule="evenodd" filter="url(#filter-4)" group-id="1,2,5,20" node-id="433" stroke="none" target-height="831.9669" target-width="911.9464" target-x="111.03111" target-y="96.01346"></path></g><g node-id="638"><g clip-path="url(#mask-3_6)" group-id="1,2,6" id="椭圆形备份-16" node-id="137"><path d="M 478.63 449.96 L 478.11 454.59 L 477.25 459.03 L 476.06 463.30 L 474.54 467.42 L 472.02 472.71 L 469.03 477.63 L 465.54 482.20 L 461.61 486.39 L 457.30 490.13 L 452.60 493.45 L 447.59 496.26 L 442.30 498.54 L 436.71 500.30 L 432.42 501.23 L 428.03 501.81 L 423.51 502.04 L 418.86 501.92 L 414.23 501.40 L 409.79 500.54 L 405.52 499.35 L 401.40 497.83 L 396.11 495.31 L 391.19 492.32 L 386.62 488.83 L 382.43 484.90 L 378.68 480.59 L 375.37 475.89 L 372.56 470.88 L 370.27 465.60 L 368.51 460.00 L 367.58 455.71 L 367.00 451.32 L 366.77 446.80 L 366.90 442.15 L 367.42 437.52 L 368.28 433.08 L 369.46 428.81 L 370.98 424.69 L 373.50 419.40 L 376.50 414.48 L 379.99 409.91 L 383.92 405.72 L 388.22 401.97 L 392.92 398.66 L 397.93 395.85 L 403.22 393.56 L 408.81 391.80 L 413.10 390.87 L 417.50 390.29 L 422.02 390.06 L 426.67 390.19 L 431.30 390.71 L 435.74 391.57 L 440.01 392.76 L 444.13 394.27 L 449.42 396.79 L 454.34 399.79 L 458.91 403.28 L 463.10 407.21 L 466.84 411.51 L 470.16 416.21 L 472.97 421.22 L 475.25 426.51 L 477.01 432.10 L 477.94 436.39 L 478.52 440.79 L 478.75 445.31 L 478.63 449.96 Z" fill="#833b0a" fill-rule="evenodd" group-id="1,2,6,21" node-id="440" stroke="none" target-height="111.98309" target-width="111.98306" target-x="366.7715" target-y="390.06177"></path><path d="M 478.63 449.96 L 478.11 454.59 L 477.25 459.03 L 476.06 463.30 L 474.54 467.42 L 472.02 472.71 L 469.03 477.63 L 465.54 482.20 L 461.61 486.39 L 457.30 490.13 L 452.60 493.45 L 447.59 496.26 L 442.30 498.54 L 436.71 500.30 L 432.42 501.23 L 428.03 501.81 L 423.51 502.04 L 418.86 501.92 L 414.23 501.40 L 409.79 500.54 L 405.52 499.35 L 401.40 497.83 L 396.11 495.31 L 391.19 492.32 L 386.62 488.83 L 382.43 484.90 L 378.68 480.59 L 375.37 475.89 L 372.56 470.88 L 370.27 465.60 L 368.51 460.00 L 367.58 455.71 L 367.00 451.32 L 366.77 446.80 L 366.90 442.15 L 367.42 437.52 L 368.28 433.08 L 369.46 428.81 L 370.98 424.69 L 373.50 419.40 L 376.50 414.48 L 379.99 409.91 L 383.92 405.72 L 388.22 401.97 L 392.92 398.66 L 397.93 395.85 L 403.22 393.56 L 408.81 391.80 L 413.10 390.87 L 417.50 390.29 L 422.02 390.06 L 426.67 390.19 L 431.30 390.71 L 435.74 391.57 L 440.01 392.76 L 444.13 394.27 L 449.42 396.79 L 454.34 399.79 L 458.91 403.28 L 463.10 407.21 L 466.84 411.51 L 470.16 416.21 L 472.97 421.22 L 475.25 426.51 L 477.01 432.10 L 477.94 436.39 L 478.52 440.79 L 478.75 445.31 L 478.63 449.96 Z" fill="#000000" fill-rule="evenodd" filter="url(#filter-6)" group-id="1,2,6,22" node-id="445" stroke="none" target-height="111.98309" target-width="111.98306" target-x="366.7715" target-y="390.06177"></path></g></g><g node-id="639"><g clip-path="url(#mask-3_7)" group-id="1,2,7" id="椭圆形备份-20" node-id="140"><path d="M 749.96 468.93 L 749.44 473.56 L 748.59 478.00 L 747.40 482.27 L 745.88 486.39 L 743.36 491.68 L 740.36 496.60 L 736.88 501.17 L 732.95 505.36 L 728.64 509.11 L 723.94 512.42 L 718.93 515.23 L 713.64 517.52 L 708.05 519.28 L 703.76 520.21 L 699.36 520.79 L 694.85 521.02 L 690.19 520.89 L 685.57 520.37 L 681.13 519.51 L 676.86 518.33 L 672.74 516.81 L 667.44 514.29 L 662.53 511.29 L 657.96 507.81 L 653.76 503.87 L 650.02 499.57 L 646.71 494.87 L 643.89 489.86 L 641.61 484.57 L 639.85 478.98 L 638.92 474.69 L 638.34 470.29 L 638.11 465.77 L 638.24 461.12 L 638.76 456.50 L 639.61 452.05 L 640.80 447.78 L 642.32 443.66 L 644.84 438.37 L 647.84 433.45 L 651.32 428.88 L 655.26 424.69 L 659.56 420.95 L 664.26 417.63 L 669.27 414.82 L 674.56 412.54 L 680.15 410.78 L 684.44 409.85 L 688.84 409.27 L 693.35 409.04 L 698.01 409.16 L 702.63 409.68 L 707.07 410.54 L 711.35 411.73 L 715.46 413.25 L 720.76 415.77 L 725.67 418.76 L 730.25 422.25 L 734.44 426.18 L 738.18 430.49 L 741.49 435.19 L 744.31 440.20 L 746.59 445.49 L 748.35 451.08 L 749.28 455.37 L 749.86 459.76 L 750.09 464.28 L 749.96 468.93 Z" fill="#833b0a" fill-rule="evenodd" group-id="1,2,7,23" node-id="452" stroke="none" target-height="111.98309" target-width="111.98309" target-x="638.10895" target-y="409.03552"></path><path d="M 749.96 468.93 L 749.44 473.56 L 748.59 478.00 L 747.40 482.27 L 745.88 486.39 L 743.36 491.68 L 740.36 496.60 L 736.88 501.17 L 732.95 505.36 L 728.64 509.11 L 723.94 512.42 L 718.93 515.23 L 713.64 517.52 L 708.05 519.28 L 703.76 520.21 L 699.36 520.79 L 694.85 521.02 L 690.19 520.89 L 685.57 520.37 L 681.13 519.51 L 676.86 518.33 L 672.74 516.81 L 667.44 514.29 L 662.53 511.29 L 657.96 507.81 L 653.76 503.87 L 650.02 499.57 L 646.71 494.87 L 643.89 489.86 L 641.61 484.57 L 639.85 478.98 L 638.92 474.69 L 638.34 470.29 L 638.11 465.77 L 638.24 461.12 L 638.76 456.50 L 639.61 452.05 L 640.80 447.78 L 642.32 443.66 L 644.84 438.37 L 647.84 433.45 L 651.32 428.88 L 655.26 424.69 L 659.56 420.95 L 664.26 417.63 L 669.27 414.82 L 674.56 412.54 L 680.15 410.78 L 684.44 409.85 L 688.84 409.27 L 693.35 409.04 L 698.01 409.16 L 702.63 409.68 L 707.07 410.54 L 711.35 411.73 L 715.46 413.25 L 720.76 415.77 L 725.67 418.76 L 730.25 422.25 L 734.44 426.18 L 738.18 430.49 L 741.49 435.19 L 744.31 440.20 L 746.59 445.49 L 748.35 451.08 L 749.28 455.37 L 749.86 459.76 L 750.09 464.28 L 749.96 468.93 Z" fill="#000000" fill-rule="evenodd" filter="url(#filter-8)" group-id="1,2,7,24" node-id="457" stroke="none" target-height="111.98309" target-width="111.98309" target-x="638.10895" target-y="409.03552"></path></g></g><g node-id="640"><g clip-path="url(#mask-3_8)" group-id="1,2,8" node-id="461"><path d="M 949.53 624.00 L 949.22 630.63 L 948.37 637.04 L 946.98 643.25 L 945.04 649.29 L 942.60 655.15 L 939.71 660.76 L 936.37 666.12 L 932.55 671.25 L 928.35 676.06 L 923.79 680.54 L 918.85 684.71 L 913.50 688.56 L 907.91 692.00 L 902.03 695.04 L 895.85 697.68 L 889.35 699.92 L 882.73 701.67 L 875.91 702.94 L 868.85 703.72 L 861.53 704.00 L 854.21 703.72 L 847.15 702.94 L 840.33 701.67 L 833.72 699.92 L 827.21 697.68 L 821.03 695.04 L 815.15 692.00 L 809.56 688.56 L 804.22 684.71 L 799.27 680.54 L 794.71 676.06 L 790.51 671.25 L 786.69 666.12 L 783.35 660.76 L 780.46 655.15 L 778.02 649.29 L 776.09 643.25 L 774.69 637.04 L 773.84 630.63 L 773.53 624.00 L 773.84 617.37 L 774.69 610.96 L 776.09 604.75 L 778.02 598.71 L 780.46 592.85 L 783.35 587.24 L 786.69 581.88 L 790.51 576.75 L 794.71 571.94 L 799.27 567.46 L 804.22 563.29 L 809.56 559.44 L 815.15 556.00 L 821.03 552.96 L 827.21 550.32 L 833.72 548.08 L 840.33 546.33 L 847.15 545.06 L 854.21 544.28 L 861.53 544.00 L 868.85 544.28 L 875.91 545.06 L 882.73 546.33 L 889.35 548.08 L 895.85 550.32 L 902.03 552.96 L 907.91 556.00 L 913.50 559.44 L 918.85 563.29 L 923.79 567.46 L 928.35 571.94 L 932.55 576.75 L 936.37 581.88 L 939.71 587.24 L 942.60 592.85 L 945.04 598.71 L 946.98 604.75 L 948.37 610.96 L 949.22 617.37 L 949.53 624.00 Z" fill="#ff5ea4" fill-opacity="0.8" fill-rule="evenodd" filter="url(#filter-9)" group-id="1,2,8" id="椭圆形" node-id="143" stroke="none" target-height="160" target-width="176" target-x="773.5309" target-y="544"></path></g></g><g node-id="641"><g clip-path="url(#mask-3_9)" group-id="1,2,9" node-id="465"><path d="M 357.53 640.00 L 357.22 646.63 L 356.37 653.04 L 354.98 659.25 L 353.04 665.29 L 350.60 671.15 L 347.71 676.76 L 344.37 682.12 L 340.55 687.25 L 336.35 692.06 L 331.79 696.54 L 326.85 700.71 L 321.50 704.56 L 315.91 708.00 L 310.03 711.04 L 303.85 713.68 L 297.35 715.92 L 290.73 717.67 L 283.91 718.94 L 276.85 719.72 L 269.53 720.00 L 262.21 719.72 L 255.15 718.94 L 248.33 717.67 L 241.72 715.92 L 235.21 713.68 L 229.03 711.04 L 223.15 708.00 L 217.56 704.56 L 212.22 700.71 L 207.27 696.54 L 202.71 692.06 L 198.51 687.25 L 194.69 682.12 L 191.35 676.76 L 188.46 671.15 L 186.02 665.29 L 184.09 659.25 L 182.69 653.04 L 181.84 646.63 L 181.53 640.00 L 181.84 633.37 L 182.69 626.96 L 184.09 620.75 L 186.02 614.71 L 188.46 608.85 L 191.35 603.24 L 194.69 597.88 L 198.51 592.75 L 202.71 587.94 L 207.27 583.46 L 212.22 579.29 L 217.56 575.44 L 223.15 572.00 L 229.03 568.96 L 235.21 566.32 L 241.72 564.08 L 248.33 562.33 L 255.15 561.06 L 262.21 560.28 L 269.53 560.00 L 276.85 560.28 L 283.91 561.06 L 290.73 562.33 L 297.35 564.08 L 303.85 566.32 L 310.03 568.96 L 315.91 572.00 L 321.50 575.44 L 326.85 579.29 L 331.79 583.46 L 336.35 587.94 L 340.55 592.75 L 344.37 597.88 L 347.71 603.24 L 350.60 608.85 L 353.04 614.71 L 354.98 620.75 L 356.37 626.96 L 357.22 633.37 L 357.53 640.00 Z" fill="#ff5ea4" fill-opacity="0.8" fill-rule="evenodd" filter="url(#filter-10)" group-id="1,2,9" id="椭圆形备份-6" node-id="144" stroke="none" target-height="160" target-width="176" target-x="181.53085" target-y="560"></path></g></g><g clip-path="url(#mask-3_10)" group-id="1,2,10" node-id="470"><path d="M 360.95 563.91 L 360.12 564.13 L 359.31 564.85 L 358.48 566.29 L 357.65 568.84 L 357.04 572.16 L 356.62 576.64 L 356.49 582.53 L 356.70 588.36 L 357.27 595.11 L 358.27 602.88 L 359.60 610.56 L 361.42 618.85 L 363.78 627.81 L 366.52 636.63 L 369.86 645.77 L 373.82 655.24 L 378.25 664.48 L 383.36 673.75 L 389.19 683.06 L 393.90 689.78 L 399.04 696.37 L 404.63 702.84 L 410.68 709.19 L 417.01 715.16 L 423.84 720.87 L 431.20 726.34 L 439.10 731.55 L 447.84 736.65 L 456.63 741.30 L 465.49 745.53 L 474.40 749.32 L 483.40 752.70 L 494.88 756.44 L 506.33 759.56 L 517.75 762.07 L 529.16 764.00 L 540.71 765.39 L 552.08 766.23 L 563.29 766.54 L 574.34 766.31 L 585.44 765.57 L 596.22 764.34 L 606.69 762.65 L 616.86 760.49 L 627.00 757.82 L 636.66 754.74 L 645.87 751.27 L 654.65 747.41 L 663.28 743.01 L 671.31 738.30 L 678.75 733.26 L 685.65 727.92 L 693.17 721.27 L 700.39 714.17 L 707.33 706.62 L 713.92 698.75 L 720.12 690.71 L 725.93 682.50 L 731.44 674.07 L 736.46 665.78 L 741.00 657.62 L 745.27 649.29 L 748.95 641.43 L 752.08 634.03 L 754.93 626.48 L 757.12 619.76 L 758.72 613.80 L 759.93 607.70 L 760.46 602.83 L 760.44 598.97 L 759.99 596.05 L 759.19 593.97 L 758.13 592.53 L 756.80 591.60 L 755.04 591.18 L 752.01 591.15 L 747.12 591.76 L 739.41 593.22 L 728.32 595.58 L 716.09 598.15 L 700.61 601.14 L 684.02 603.89 L 664.25 606.52 L 650.70 607.92 L 635.81 609.03 L 619.48 609.82 L 603.19 610.14 L 585.56 609.92 L 566.52 609.13 L 552.44 608.15 L 537.61 606.74 L 522.02 604.87 L 505.62 602.52 L 489.62 599.81 L 472.87 596.52 L 455.35 592.62 L 437.02 588.08 L 419.16 583.18 L 400.55 577.54 L 381.16 571.13 L 360.95 563.91 Z" fill="#ed1f2a" fill-rule="evenodd" group-id="1,2,10,25,50,52" node-id="475" stroke="none" target-height="202.62329" target-width="403.9644" target-x="356.49478" target-y="563.91437"></path><path d="M 360.95 563.91 L 360.12 564.13 L 359.31 564.85 L 358.48 566.29 L 357.65 568.84 L 357.04 572.16 L 356.62 576.64 L 356.49 582.53 L 356.70 588.36 L 357.27 595.11 L 358.27 602.88 L 359.60 610.56 L 361.42 618.85 L 363.78 627.81 L 366.52 636.63 L 369.86 645.77 L 373.82 655.24 L 378.25 664.48 L 383.36 673.75 L 389.19 683.06 L 393.90 689.78 L 399.04 696.37 L 404.63 702.84 L 410.68 709.19 L 417.01 715.16 L 423.84 720.87 L 431.20 726.34 L 439.10 731.55 L 447.84 736.65 L 456.63 741.30 L 465.49 745.53 L 474.40 749.32 L 483.40 752.70 L 494.88 756.44 L 506.33 759.56 L 517.75 762.07 L 529.16 764.00 L 540.71 765.39 L 552.08 766.23 L 563.29 766.54 L 574.34 766.31 L 585.44 765.57 L 596.22 764.34 L 606.69 762.65 L 616.86 760.49 L 627.00 757.82 L 636.66 754.74 L 645.87 751.27 L 654.65 747.41 L 663.28 743.01 L 671.31 738.30 L 678.75 733.26 L 685.65 727.92 L 693.17 721.27 L 700.39 714.17 L 707.33 706.62 L 713.92 698.75 L 720.12 690.71 L 725.93 682.50 L 731.44 674.07 L 736.46 665.78 L 741.00 657.62 L 745.27 649.29 L 748.95 641.43 L 752.08 634.03 L 754.93 626.48 L 757.12 619.76 L 758.72 613.80 L 759.93 607.70 L 760.46 602.83 L 760.44 598.97 L 759.99 596.05 L 759.19 593.97 L 758.13 592.53 L 756.80 591.60 L 755.04 591.18 L 752.01 591.15 L 747.12 591.76 L 739.41 593.22 L 728.32 595.58 L 716.09 598.15 L 700.61 601.14 L 684.02 603.89 L 664.25 606.52 L 650.70 607.92 L 635.81 609.03 L 619.48 609.82 L 603.19 610.14 L 585.56 609.92 L 566.52 609.13 L 552.44 608.15 L 537.61 606.74 L 522.02 604.87 L 505.62 602.52 L 489.62 599.81 L 472.87 596.52 L 455.35 592.62 L 437.02 588.08 L 419.16 583.18 L 400.55 577.54 L 381.16 571.13 L 360.95 563.91 Z" fill="#000000" fill-rule="evenodd" filter="url(#filter-12)" group-id="1,2,10,25,50,53" node-id="480" stroke="none" target-height="202.62329" target-width="403.9644" target-x="356.49478" target-y="563.91437"></path><path d="M 561.09 694.76 L 568.77 695.53 L 576.20 696.70 L 583.38 698.26 L 590.34 700.21 L 597.23 702.58 L 603.80 705.27 L 610.07 708.28 L 616.07 711.62 L 621.90 715.33 L 627.35 719.29 L 632.46 723.50 L 637.24 727.97 L 641.74 732.76 L 645.82 737.74 L 649.50 742.90 L 652.79 748.27 L 644.80 751.70 L 636.46 754.81 L 627.74 757.60 L 618.65 760.06 L 609.52 762.10 L 600.14 763.77 L 590.49 765.06 L 580.57 765.96 L 570.68 766.45 L 560.64 766.51 L 550.45 766.14 L 540.09 765.34 L 529.82 764.10 L 519.51 762.40 L 509.15 760.22 L 498.73 757.56 L 488.48 754.45 L 478.28 750.82 L 468.12 746.67 L 458.00 741.99 L 461.80 736.38 L 466.04 731.05 L 470.74 726.00 L 475.91 721.21 L 481.38 716.82 L 487.22 712.77 L 493.44 709.06 L 500.06 705.69 L 506.84 702.77 L 513.91 700.27 L 521.27 698.18 L 528.95 696.51 L 536.67 695.33 L 544.59 694.64 L 552.72 694.45 L 561.09 694.76 Z" fill="url(#linearGradient-13)" fill-rule="evenodd" group-id="1,2,10,25" id="形状结合" node-id="150" stroke="none" target-height="72.06116" target-width="194.7974" target-x="457.99722" target-y="694.44604"></path><path d="M 364.32 560.57 L 363.49 560.79 L 362.68 561.50 L 361.85 562.95 L 361.03 565.50 L 360.41 568.82 L 360.00 573.29 L 359.87 579.18 L 360.07 585.02 L 360.64 591.77 L 361.64 599.54 L 362.97 607.21 L 364.79 615.51 L 367.15 624.47 L 369.89 633.29 L 373.23 642.42 L 377.19 651.89 L 381.62 661.13 L 386.73 670.40 L 392.56 679.71 L 397.27 686.43 L 402.41 693.03 L 408.00 699.50 L 414.05 705.85 L 420.38 711.81 L 427.21 717.53 L 434.57 722.99 L 442.47 728.21 L 451.21 733.30 L 460.01 737.96 L 468.86 742.18 L 477.78 745.98 L 486.77 749.36 L 498.25 753.09 L 509.70 756.21 L 521.13 758.73 L 532.54 760.66 L 544.08 762.05 L 555.45 762.89 L 566.66 763.19 L 577.71 762.97 L 588.82 762.22 L 599.59 761.00 L 610.06 759.31 L 620.23 757.15 L 630.37 754.48 L 640.03 751.40 L 649.24 747.92 L 658.02 744.06 L 666.66 739.67 L 674.68 734.95 L 682.12 729.92 L 689.02 724.57 L 696.54 717.92 L 703.76 710.83 L 710.70 703.27 L 717.29 695.40 L 723.49 687.37 L 729.30 679.15 L 734.81 670.72 L 739.83 662.43 L 744.38 654.27 L 748.64 645.94 L 752.32 638.09 L 755.46 630.69 L 758.30 623.13 L 760.49 616.41 L 762.09 610.45 L 763.30 604.36 L 763.83 599.48 L 763.81 595.62 L 763.36 592.70 L 762.57 590.63 L 761.50 589.19 L 760.18 588.25 L 758.42 587.83 L 755.38 587.80 L 750.50 588.42 L 742.78 589.87 L 731.69 592.23 L 719.46 594.81 L 703.98 597.79 L 687.39 600.55 L 667.63 603.18 L 654.07 604.58 L 639.18 605.69 L 622.85 606.48 L 606.56 606.80 L 588.93 606.58 L 569.89 605.78 L 555.81 604.81 L 540.98 603.40 L 525.39 601.53 L 509.00 599.17 L 492.99 596.47 L 476.24 593.18 L 458.72 589.28 L 440.39 584.74 L 422.53 579.84 L 403.92 574.20 L 384.53 567.79 L 364.32 560.57 Z" fill="#000000" fill-rule="evenodd" filter="url(#filter-15)" group-id="1,2,10,25,51,54" node-id="488" stroke="none" target-height="202.62329" target-width="403.96445" target-x="359.86636" target-y="560.57007"></path><path d="M 751.39 595.55 L 753.05 595.34 L 754.33 595.59 L 755.06 596.13 L 755.54 596.95 L 755.84 598.25 L 755.97 600.41 L 755.76 605.20 L 755.83 606.74 L 755.97 608.30 L 755.91 608.92 L 755.74 609.19 L 744.94 615.16 L 733.88 620.71 L 722.55 625.82 L 710.94 630.50 L 699.17 634.72 L 687.21 638.51 L 675.04 641.88 L 662.65 644.81 L 650.18 647.29 L 637.58 649.34 L 624.84 650.97 L 611.95 652.16 L 599.05 652.91 L 586.08 653.23 L 573.04 653.12 L 559.93 652.57 L 546.92 651.61 L 533.92 650.22 L 520.91 648.40 L 507.91 646.15 L 495.00 643.48 L 482.16 640.39 L 469.41 636.88 L 456.72 632.93 L 444.17 628.57 L 431.78 623.79 L 419.53 618.58 L 407.42 612.94 L 395.52 606.90 L 383.84 600.43 L 372.36 593.54 L 361.09 586.22 L 360.85 585.84 L 360.75 585.00 L 360.87 582.85 L 360.96 580.55 L 360.91 576.80 L 361.09 573.49 L 361.33 572.14 L 361.63 571.37 L 362.35 569.78 L 362.74 568.15 L 390.16 577.19 L 415.48 585.14 L 432.21 590.11 L 448.25 594.60 L 463.64 598.63 L 479.11 602.35 L 494.19 605.62 L 508.90 608.43 L 523.67 610.86 L 538.36 612.83 L 552.97 614.36 L 567.62 615.44 L 582.48 616.07 L 597.56 616.23 L 612.63 615.92 L 628.23 615.13 L 644.36 613.84 L 660.43 612.11 L 677.32 609.84 L 695.07 607.01 L 712.72 603.79 L 731.48 599.99 L 751.39 595.55 Z" fill="#ffffff" fill-rule="nonzero" group-id="1,2,10,25" id="路径-11" node-id="153" stroke="#b51006" stroke-linecap="butt" stroke-width="8" target-height="85.07678" target-width="395.22095" target-x="360.74988" target-y="568.15063"></path></g></g><g node-id="635"><g node-id="643"><g node-id="658"><path d="M 361.62 631.09 L 360.36 632.27 L 306.18 685.64 L 318.91 606.75 L 319.39 601.70 L 319.22 596.81 L 318.44 592.05 L 317.07 587.42 L 315.18 583.06 L 312.76 578.93 L 309.86 575.12 L 306.55 571.71 L 302.78 568.66 L 298.68 566.09 L 294.24 564.04 L 289.41 562.50 L 287.72 562.12 L 280.39 560.70 L 276.53 560.17 L 272.78 560.00 L 269.10 560.19 L 265.50 560.74 L 260.80 561.99 L 256.39 563.78 L 252.22 566.12 L 248.38 568.96 L 244.95 572.24 L 241.91 576.00 L 239.96 579.06 L 238.32 582.32 L 236.98 585.81 L 235.94 589.56 L 235.58 591.26 L 219.58 690.34 L 218.02 690.25 L 205.42 689.74 L 193.84 689.78 L 183.20 690.34 L 173.43 691.36 L 164.47 692.82 L 156.66 694.58 L 149.49 696.70 L 142.94 699.15 L 136.94 701.92 L 131.47 705.00 L 126.47 708.37 L 121.70 712.28 L 117.41 716.54 L 113.59 721.18 L 110.21 726.22 L 107.28 731.69 L 104.78 737.62 L 102.00 745.92 L 99.70 754.09 L 97.88 762.16 L 96.52 770.14 L 95.57 778.25 L 95.08 786.13 L 95.03 793.81 L 95.41 801.29 L 96.23 808.80 L 97.48 815.99 L 99.12 822.87 L 101.17 829.48 L 103.69 835.97 L 106.59 842.06 L 109.86 847.77 L 113.52 853.12 L 116.76 857.05 L 118.29 858.65 L 121.08 861.33 L 124.58 864.33 L 126.63 865.92 L 131.55 869.48 L 137.08 873.18 L 143.36 877.09 L 148.59 880.23 L 154.42 883.62 L 163.07 888.56 L 180.68 898.44 L 188.57 902.96 L 193.55 905.54 L 198.73 907.68 L 204.13 909.39 L 209.79 910.66 L 215.50 911.50 L 221.34 911.93 L 227.31 911.97 L 233.44 911.59 L 239.50 910.83 L 245.56 909.70 L 251.65 908.20 L 257.76 906.31 L 265.71 903.27 L 273.45 899.63 L 281.01 895.38 L 286.47 891.82 L 291.68 887.97 L 296.67 883.83 L 301.43 879.37 L 305.90 874.63 L 310.03 869.64 L 313.81 864.38 L 317.26 858.85 L 323.96 846.71 L 329.32 836.03 L 332.53 828.93 L 335.25 822.24 L 337.51 815.93 L 339.47 809.52 L 341.07 803.22 L 342.31 797.03 L 343.23 790.78 L 343.87 784.37 L 344.22 777.78 L 344.31 773.17 L 344.27 767.59 L 420.03 692.97 L 422.64 690.10 L 424.89 687.11 L 426.78 683.97 L 428.34 680.69 L 429.91 676.10 L 430.88 671.43 L 431.26 666.65 L 431.04 661.86 L 430.23 657.13 L 428.82 652.46 L 426.85 647.99 L 424.27 643.75 L 421.07 639.70 L 419.86 638.43 L 414.53 633.18 L 410.68 629.83 L 406.60 627.09 L 402.27 624.92 L 397.70 623.29 L 393.07 622.24 L 388.33 621.75 L 383.57 621.85 L 378.89 622.52 L 374.27 623.78 L 369.84 625.61 L 365.63 628.03 L 361.62 631.09 L 361.62 631.09 Z" fill="url(#linearGradient-17)" fill-rule="nonzero" group-id="1,3,11,26" node-id="500" stroke="none" target-height="351.96704" target-width="336.22968" target-x="95.03008" target-y="560.0006"></path></g><g node-id="659"><path d="M 361.62 631.09 L 360.36 632.27 L 306.18 685.64 L 318.91 606.75 L 319.39 601.70 L 319.22 596.81 L 318.44 592.05 L 317.07 587.42 L 315.18 583.06 L 312.76 578.93 L 309.86 575.12 L 306.55 571.71 L 302.78 568.66 L 298.68 566.09 L 294.24 564.04 L 289.41 562.50 L 287.72 562.12 L 280.39 560.70 L 276.53 560.17 L 272.78 560.00 L 269.10 560.19 L 265.50 560.74 L 260.80 561.99 L 256.39 563.78 L 252.22 566.12 L 248.38 568.96 L 244.95 572.24 L 241.91 576.00 L 239.96 579.06 L 238.32 582.32 L 236.98 585.81 L 235.94 589.56 L 235.58 591.26 L 219.58 690.34 L 218.02 690.25 L 205.42 689.74 L 193.84 689.78 L 183.20 690.34 L 173.43 691.36 L 164.47 692.82 L 156.66 694.58 L 149.49 696.70 L 142.94 699.15 L 136.94 701.92 L 131.47 705.00 L 126.47 708.37 L 121.70 712.28 L 117.41 716.54 L 113.59 721.18 L 110.21 726.22 L 107.28 731.69 L 104.78 737.62 L 102.00 745.92 L 99.70 754.09 L 97.88 762.16 L 96.52 770.14 L 95.57 778.25 L 95.08 786.13 L 95.03 793.81 L 95.41 801.29 L 96.23 808.80 L 97.48 815.99 L 99.12 822.87 L 101.17 829.48 L 103.69 835.97 L 106.59 842.06 L 109.86 847.77 L 113.52 853.12 L 116.76 857.05 L 118.29 858.65 L 121.08 861.33 L 124.58 864.33 L 126.63 865.92 L 131.55 869.48 L 137.08 873.18 L 143.36 877.09 L 148.59 880.23 L 154.42 883.62 L 163.07 888.56 L 180.68 898.44 L 188.57 902.96 L 193.55 905.54 L 198.73 907.68 L 204.13 909.39 L 209.79 910.66 L 215.50 911.50 L 221.34 911.93 L 227.31 911.97 L 233.44 911.59 L 239.50 910.83 L 245.56 909.70 L 251.65 908.20 L 257.76 906.31 L 265.71 903.27 L 273.45 899.63 L 281.01 895.38 L 286.47 891.82 L 291.68 887.97 L 296.67 883.83 L 301.43 879.37 L 305.90 874.63 L 310.03 869.64 L 313.81 864.38 L 317.26 858.85 L 323.96 846.71 L 329.32 836.03 L 332.53 828.93 L 335.25 822.24 L 337.51 815.93 L 339.47 809.52 L 341.07 803.22 L 342.31 797.03 L 343.23 790.78 L 343.87 784.37 L 344.22 777.78 L 344.31 773.17 L 344.27 767.59 L 420.03 692.97 L 422.64 690.10 L 424.89 687.11 L 426.78 683.97 L 428.34 680.69 L 429.91 676.10 L 430.88 671.43 L 431.26 666.65 L 431.04 661.86 L 430.23 657.13 L 428.82 652.46 L 426.85 647.99 L 424.27 643.75 L 421.07 639.70 L 419.86 638.43 L 414.53 633.18 L 410.68 629.83 L 406.60 627.09 L 402.27 624.92 L 397.70 623.29 L 393.07 622.24 L 388.33 621.75 L 383.57 621.85 L 378.89 622.52 L 374.27 623.78 L 369.84 625.61 L 365.63 628.03 L 361.62 631.09 L 361.62 631.09 Z" fill="#000000" fill-rule="nonzero" filter="url(#filter-19)" group-id="1,3,11,27" node-id="505" stroke="none" target-height="351.96704" target-width="336.22968" target-x="95.03008" target-y="560.0006"></path></g><path d="M 361.62 631.09 L 360.36 632.27 L 306.18 685.64 L 318.91 606.75 L 319.39 601.70 L 319.22 596.81 L 318.44 592.05 L 317.07 587.42 L 315.18 583.06 L 312.76 578.93 L 309.86 575.12 L 306.55 571.71 L 302.78 568.66 L 298.68 566.09 L 294.24 564.04 L 289.41 562.50 L 287.72 562.12 L 280.39 560.70 L 276.53 560.17 L 272.78 560.00 L 269.10 560.19 L 265.50 560.74 L 260.80 561.99 L 256.39 563.78 L 252.22 566.12 L 248.38 568.96 L 244.95 572.24 L 241.91 576.00 L 239.96 579.06 L 238.32 582.32 L 236.98 585.81 L 235.94 589.56 L 235.58 591.26 L 219.58 690.34 L 218.02 690.25 L 205.42 689.74 L 193.84 689.78 L 183.20 690.34 L 173.43 691.36 L 164.47 692.82 L 156.66 694.58 L 149.49 696.70 L 142.94 699.15 L 136.94 701.92 L 131.47 705.00 L 126.47 708.37 L 121.70 712.28 L 117.41 716.54 L 113.59 721.18 L 110.21 726.22 L 107.28 731.69 L 104.78 737.62 L 102.00 745.92 L 99.70 754.09 L 97.88 762.16 L 96.52 770.14 L 95.57 778.25 L 95.08 786.13 L 95.03 793.81 L 95.41 801.29 L 96.23 808.80 L 97.48 815.99 L 99.12 822.87 L 101.17 829.48 L 103.69 835.97 L 106.59 842.06 L 109.86 847.77 L 113.52 853.12 L 116.76 857.05 L 118.29 858.65 L 121.08 861.33 L 124.58 864.33 L 126.63 865.92 L 131.55 869.48 L 137.08 873.18 L 143.36 877.09 L 148.59 880.23 L 154.42 883.62 L 163.07 888.56 L 180.68 898.44 L 188.57 902.96 L 193.55 905.54 L 198.73 907.68 L 204.13 909.39 L 209.79 910.66 L 215.50 911.50 L 221.34 911.93 L 227.31 911.97 L 233.44 911.59 L 239.50 910.83 L 245.56 909.70 L 251.65 908.20 L 257.76 906.31 L 265.71 903.27 L 273.45 899.63 L 281.01 895.38 L 286.47 891.82 L 291.68 887.97 L 296.67 883.83 L 301.43 879.37 L 305.90 874.63 L 310.03 869.64 L 313.81 864.38 L 317.26 858.85 L 323.96 846.71 L 329.32 836.03 L 332.53 828.93 L 335.25 822.24 L 337.51 815.93 L 339.47 809.52 L 341.07 803.22 L 342.31 797.03 L 343.23 790.78 L 343.87 784.37 L 344.22 777.78 L 344.31 773.17 L 344.27 767.59 L 420.03 692.97 L 422.64 690.10 L 424.89 687.11 L 426.78 683.97 L 428.34 680.69 L 429.91 676.10 L 430.88 671.43 L 431.26 666.65 L 431.04 661.86 L 430.23 657.13 L 428.82 652.46 L 426.85 647.99 L 424.27 643.75 L 421.07 639.70 L 419.86 638.43 L 414.53 633.18 L 410.68 629.83 L 406.60 627.09 L 402.27 624.92 L 397.70 623.29 L 393.07 622.24 L 388.33 621.75 L 383.57 621.85 L 378.89 622.52 L 374.27 623.78 L 369.84 625.61 L 365.63 628.03 L 361.62 631.09 L 361.62 631.09 Z" fill="none" group-id="1,3,11,28" node-id="510" stroke="#efaa2e" stroke-linecap="butt" stroke-width="8" target-height="351.96704" target-width="336.22968" target-x="95.03008" target-y="560.0006"></path></g><g node-id="644"><g node-id="661"><path d="M 225.40 663.01 L 218.54 659.89 L 214.84 658.45 L 211.16 657.43 L 207.49 656.80 L 203.82 656.56 L 198.91 656.81 L 194.15 657.69 L 189.51 659.19 L 185.10 661.26 L 180.98 663.89 L 177.12 667.09 L 174.52 669.79 L 172.16 672.76 L 170.04 676.03 L 168.16 679.60 L 167.46 681.22 L 151.07 722.28 L 149.44 727.18 L 148.38 732.07 L 147.88 737.00 L 147.91 741.94 L 148.48 746.73 L 149.57 751.38 L 151.19 755.86 L 153.29 760.02 L 155.89 763.90 L 158.16 766.56 L 160.69 768.97 L 163.50 771.13 L 166.60 773.04 L 168.11 773.81 L 174.40 776.65 L 177.85 777.99 L 181.30 778.92 L 184.76 779.46 L 188.25 779.62 L 192.90 779.28 L 197.45 778.34 L 201.93 776.81 L 206.21 774.74 L 210.26 772.16 L 214.09 769.04 L 217.56 765.51 L 220.65 761.56 L 223.37 757.14 L 224.18 755.54 L 243.20 715.73 L 244.75 712.01 L 245.92 708.30 L 246.71 704.58 L 247.15 700.83 L 247.19 695.80 L 246.62 690.92 L 245.46 686.15 L 243.72 681.57 L 241.43 677.29 L 238.57 673.28 L 236.11 670.53 L 233.36 668.04 L 230.31 665.78 L 226.93 663.77 L 225.40 663.01 L 225.40 663.01 Z" fill="url(#linearGradient-20)" fill-rule="nonzero" group-id="1,3,12,29" node-id="517" stroke="none" target-height="123.05463" target-width="99.30971" target-x="147.87543" target-y="656.5615"></path></g><g node-id="662"><path d="M 225.40 663.01 L 218.54 659.89 L 214.84 658.45 L 211.16 657.43 L 207.49 656.80 L 203.82 656.56 L 198.91 656.81 L 194.15 657.69 L 189.51 659.19 L 185.10 661.26 L 180.98 663.89 L 177.12 667.09 L 174.52 669.79 L 172.16 672.76 L 170.04 676.03 L 168.16 679.60 L 167.46 681.22 L 151.07 722.28 L 149.44 727.18 L 148.38 732.07 L 147.88 737.00 L 147.91 741.94 L 148.48 746.73 L 149.57 751.38 L 151.19 755.86 L 153.29 760.02 L 155.89 763.90 L 158.16 766.56 L 160.69 768.97 L 163.50 771.13 L 166.60 773.04 L 168.11 773.81 L 174.40 776.65 L 177.85 777.99 L 181.30 778.92 L 184.76 779.46 L 188.25 779.62 L 192.90 779.28 L 197.45 778.34 L 201.93 776.81 L 206.21 774.74 L 210.26 772.16 L 214.09 769.04 L 217.56 765.51 L 220.65 761.56 L 223.37 757.14 L 224.18 755.54 L 243.20 715.73 L 244.75 712.01 L 245.92 708.30 L 246.71 704.58 L 247.15 700.83 L 247.19 695.80 L 246.62 690.92 L 245.46 686.15 L 243.72 681.57 L 241.43 677.29 L 238.57 673.28 L 236.11 670.53 L 233.36 668.04 L 230.31 665.78 L 226.93 663.77 L 225.40 663.01 L 225.40 663.01 Z" fill="#000000" fill-rule="nonzero" filter="url(#filter-22)" group-id="1,3,12,30" node-id="522" stroke="none" target-height="123.05463" target-width="99.30971" target-x="147.87543" target-y="656.5615"></path></g><path d="M 225.40 663.01 L 218.54 659.89 L 214.84 658.45 L 211.16 657.43 L 207.49 656.80 L 203.82 656.56 L 198.91 656.81 L 194.15 657.69 L 189.51 659.19 L 185.10 661.26 L 180.98 663.89 L 177.12 667.09 L 174.52 669.79 L 172.16 672.76 L 170.04 676.03 L 168.16 679.60 L 167.46 681.22 L 151.07 722.28 L 149.44 727.18 L 148.38 732.07 L 147.88 737.00 L 147.91 741.94 L 148.48 746.73 L 149.57 751.38 L 151.19 755.86 L 153.29 760.02 L 155.89 763.90 L 158.16 766.56 L 160.69 768.97 L 163.50 771.13 L 166.60 773.04 L 168.11 773.81 L 174.40 776.65 L 177.85 777.99 L 181.30 778.92 L 184.76 779.46 L 188.25 779.62 L 192.90 779.28 L 197.45 778.34 L 201.93 776.81 L 206.21 774.74 L 210.26 772.16 L 214.09 769.04 L 217.56 765.51 L 220.65 761.56 L 223.37 757.14 L 224.18 755.54 L 243.20 715.73 L 244.75 712.01 L 245.92 708.30 L 246.71 704.58 L 247.15 700.83 L 247.19 695.80 L 246.62 690.92 L 245.46 686.15 L 243.72 681.57 L 241.43 677.29 L 238.57 673.28 L 236.11 670.53 L 233.36 668.04 L 230.31 665.78 L 226.93 663.77 L 225.40 663.01 L 225.40 663.01 Z" fill="none" group-id="1,3,12,31" node-id="527" stroke="#efaa2e" stroke-linecap="butt" stroke-width="8" target-height="123.05463" target-width="99.30971" target-x="147.87543" target-y="656.5615"></path></g><g node-id="645"><g node-id="664"><path d="M 166.81 661.05 L 165.19 660.51 L 158.04 658.22 L 154.44 657.25 L 150.85 656.66 L 147.24 656.44 L 143.59 656.58 L 139.98 657.09 L 136.47 657.96 L 133.04 659.20 L 129.67 660.80 L 126.49 662.75 L 123.58 664.96 L 120.93 667.44 L 118.52 670.20 L 116.39 673.18 L 114.59 676.34 L 113.11 679.69 L 111.94 683.25 L 111.52 684.94 L 102.55 725.73 L 101.78 730.55 L 101.55 735.31 L 101.86 740.02 L 102.67 744.68 L 103.95 749.11 L 105.71 753.37 L 107.93 757.40 L 110.55 761.07 L 113.59 764.42 L 117.01 767.36 L 120.79 769.83 L 124.96 771.83 L 126.58 772.43 L 133.17 774.51 L 136.71 775.41 L 140.19 775.92 L 143.62 776.05 L 147.03 775.81 L 151.51 774.96 L 155.81 773.55 L 159.95 771.56 L 163.82 769.07 L 167.38 766.11 L 170.66 762.65 L 173.50 758.83 L 175.91 754.62 L 177.87 749.99 L 178.45 748.25 L 190.17 708.35 L 191.28 703.41 L 191.74 698.55 L 191.59 693.75 L 190.85 688.99 L 189.56 684.45 L 187.72 680.08 L 185.37 675.97 L 182.55 672.19 L 179.23 668.73 L 175.52 665.70 L 171.40 663.15 L 166.81 661.05 L 166.81 661.05 Z" fill="url(#linearGradient-23)" fill-rule="nonzero" group-id="1,3,13,32" node-id="534" stroke="none" target-height="119.61603" target-width="90.190956" target-x="101.55283" target-y="656.4358"></path></g><g node-id="665"><path d="M 166.81 661.05 L 165.19 660.51 L 158.04 658.22 L 154.44 657.25 L 150.85 656.66 L 147.24 656.44 L 143.59 656.58 L 139.98 657.09 L 136.47 657.96 L 133.04 659.20 L 129.67 660.80 L 126.49 662.75 L 123.58 664.96 L 120.93 667.44 L 118.52 670.20 L 116.39 673.18 L 114.59 676.34 L 113.11 679.69 L 111.94 683.25 L 111.52 684.94 L 102.55 725.73 L 101.78 730.55 L 101.55 735.31 L 101.86 740.02 L 102.67 744.68 L 103.95 749.11 L 105.71 753.37 L 107.93 757.40 L 110.55 761.07 L 113.59 764.42 L 117.01 767.36 L 120.79 769.83 L 124.96 771.83 L 126.58 772.43 L 133.17 774.51 L 136.71 775.41 L 140.19 775.92 L 143.62 776.05 L 147.03 775.81 L 151.51 774.96 L 155.81 773.55 L 159.95 771.56 L 163.82 769.07 L 167.38 766.11 L 170.66 762.65 L 173.50 758.83 L 175.91 754.62 L 177.87 749.99 L 178.45 748.25 L 190.17 708.35 L 191.28 703.41 L 191.74 698.55 L 191.59 693.75 L 190.85 688.99 L 189.56 684.45 L 187.72 680.08 L 185.37 675.97 L 182.55 672.19 L 179.23 668.73 L 175.52 665.70 L 171.40 663.15 L 166.81 661.05 L 166.81 661.05 Z" fill="#000000" fill-rule="nonzero" filter="url(#filter-25)" group-id="1,3,13,33" node-id="539" stroke="none" target-height="119.61603" target-width="90.190956" target-x="101.55283" target-y="656.4358"></path></g><path d="M 166.81 661.05 L 165.19 660.51 L 158.04 658.22 L 154.44 657.25 L 150.85 656.66 L 147.24 656.44 L 143.59 656.58 L 139.98 657.09 L 136.47 657.96 L 133.04 659.20 L 129.67 660.80 L 126.49 662.75 L 123.58 664.96 L 120.93 667.44 L 118.52 670.20 L 116.39 673.18 L 114.59 676.34 L 113.11 679.69 L 111.94 683.25 L 111.52 684.94 L 102.55 725.73 L 101.78 730.55 L 101.55 735.31 L 101.86 740.02 L 102.67 744.68 L 103.95 749.11 L 105.71 753.37 L 107.93 757.40 L 110.55 761.07 L 113.59 764.42 L 117.01 767.36 L 120.79 769.83 L 124.96 771.83 L 126.58 772.43 L 133.17 774.51 L 136.71 775.41 L 140.19 775.92 L 143.62 776.05 L 147.03 775.81 L 151.51 774.96 L 155.81 773.55 L 159.95 771.56 L 163.82 769.07 L 167.38 766.11 L 170.66 762.65 L 173.50 758.83 L 175.91 754.62 L 177.87 749.99 L 178.45 748.25 L 190.17 708.35 L 191.28 703.41 L 191.74 698.55 L 191.59 693.75 L 190.85 688.99 L 189.56 684.45 L 187.72 680.08 L 185.37 675.97 L 182.55 672.19 L 179.23 668.73 L 175.52 665.70 L 171.40 663.15 L 166.81 661.05 L 166.81 661.05 Z" fill="none" group-id="1,3,13,34" node-id="544" stroke="#efaa2e" stroke-linecap="butt" stroke-width="8" target-height="119.61603" target-width="90.190956" target-x="101.55283" target-y="656.4358"></path></g><g node-id="646"><g node-id="667"><path d="M 321.94 738.88 L 320.14 737.88 L 315.94 735.79 L 312.74 734.34 L 309.01 732.71 L 304.99 731.08 L 298.54 728.54 L 289.14 725.04 L 284.28 723.31 L 276.84 720.76 L 271.80 719.09 L 266.83 717.49 L 257.12 714.54 L 248.09 712.15 L 239.91 710.53 L 232.49 709.59 L 225.77 709.27 L 220.20 709.49 L 215.06 710.19 L 210.29 711.34 L 205.86 712.92 L 201.73 714.93 L 197.88 717.39 L 194.23 720.37 L 190.79 723.90 L 187.53 728.05 L 184.46 732.85 L 182.15 737.48 L 180.54 741.90 L 179.56 746.16 L 179.17 750.29 L 179.33 754.48 L 180.04 758.53 L 181.30 762.48 L 183.14 766.36 L 185.41 769.96 L 188.20 773.46 L 191.56 776.87 L 195.54 780.19 L 198.04 782.00 L 202.01 784.56 L 204.64 786.12 L 210.08 789.17 L 210.44 789.04 L 202.70 792.43 L 196.13 795.70 L 190.61 798.84 L 185.33 802.38 L 181.04 805.89 L 177.62 809.37 L 173.96 813.88 L 170.75 818.43 L 167.94 823.01 L 165.53 827.64 L 163.44 832.49 L 161.79 837.27 L 160.56 842.01 L 159.73 846.73 L 159.30 851.52 L 159.31 856.20 L 159.75 860.77 L 160.61 865.25 L 161.90 869.63 L 163.65 873.84 L 165.86 877.91 L 168.56 881.86 L 171.60 885.47 L 175.16 888.89 L 179.27 892.12 L 183.98 895.18 L 192.50 899.83 L 200.69 903.63 L 208.56 906.66 L 216.16 908.95 L 223.50 910.56 L 230.62 911.52 L 237.54 911.86 L 243.72 911.64 L 249.83 910.90 L 255.89 909.65 L 261.91 907.86 L 267.92 905.53 L 273.93 902.63 L 279.96 899.13 L 286.03 895.00 L 292.11 890.17 L 297.97 884.81 L 303.62 878.90 L 309.06 872.39 L 314.29 865.27 L 319.32 857.49 L 323.73 849.81 L 327.99 841.54 L 332.10 832.63 L 336.06 823.06 L 339.84 812.79 L 343.44 801.77 L 344.91 796.28 L 345.90 791.01 L 346.44 785.95 L 346.56 781.06 L 346.27 776.34 L 345.55 771.57 L 344.44 767.05 L 342.95 762.75 L 341.07 758.65 L 338.81 754.74 L 336.18 751.08 L 333.20 747.67 L 329.85 744.50 L 326.11 741.57 L 321.94 738.88 L 321.94 738.88 Z" fill="url(#linearGradient-26)" fill-rule="nonzero" group-id="1,3,14,35" node-id="551" stroke="none" target-height="202.59082" target-width="187.25975" target-x="159.30147" target-y="709.27374"></path></g><g node-id="668"><path d="M 321.94 738.88 L 320.14 737.88 L 315.94 735.79 L 312.74 734.34 L 309.01 732.71 L 304.99 731.08 L 298.54 728.54 L 289.14 725.04 L 284.28 723.31 L 276.84 720.76 L 271.80 719.09 L 266.83 717.49 L 257.12 714.54 L 248.09 712.15 L 239.91 710.53 L 232.49 709.59 L 225.77 709.27 L 220.20 709.49 L 215.06 710.19 L 210.29 711.34 L 205.86 712.92 L 201.73 714.93 L 197.88 717.39 L 194.23 720.37 L 190.79 723.90 L 187.53 728.05 L 184.46 732.85 L 182.15 737.48 L 180.54 741.90 L 179.56 746.16 L 179.17 750.29 L 179.33 754.48 L 180.04 758.53 L 181.30 762.48 L 183.14 766.36 L 185.41 769.96 L 188.20 773.46 L 191.56 776.87 L 195.54 780.19 L 198.04 782.00 L 202.01 784.56 L 204.64 786.12 L 210.08 789.17 L 210.44 789.04 L 202.70 792.43 L 196.13 795.70 L 190.61 798.84 L 185.33 802.38 L 181.04 805.89 L 177.62 809.37 L 173.96 813.88 L 170.75 818.43 L 167.94 823.01 L 165.53 827.64 L 163.44 832.49 L 161.79 837.27 L 160.56 842.01 L 159.73 846.73 L 159.30 851.52 L 159.31 856.20 L 159.75 860.77 L 160.61 865.25 L 161.90 869.63 L 163.65 873.84 L 165.86 877.91 L 168.56 881.86 L 171.60 885.47 L 175.16 888.89 L 179.27 892.12 L 183.98 895.18 L 192.50 899.83 L 200.69 903.63 L 208.56 906.66 L 216.16 908.95 L 223.50 910.56 L 230.62 911.52 L 237.54 911.86 L 243.72 911.64 L 249.83 910.90 L 255.89 909.65 L 261.91 907.86 L 267.92 905.53 L 273.93 902.63 L 279.96 899.13 L 286.03 895.00 L 292.11 890.17 L 297.97 884.81 L 303.62 878.90 L 309.06 872.39 L 314.29 865.27 L 319.32 857.49 L 323.73 849.81 L 327.99 841.54 L 332.10 832.63 L 336.06 823.06 L 339.84 812.79 L 343.44 801.77 L 344.91 796.28 L 345.90 791.01 L 346.44 785.95 L 346.56 781.06 L 346.27 776.34 L 345.55 771.57 L 344.44 767.05 L 342.95 762.75 L 341.07 758.65 L 338.81 754.74 L 336.18 751.08 L 333.20 747.67 L 329.85 744.50 L 326.11 741.57 L 321.94 738.88 L 321.94 738.88 Z" fill="#000000" fill-rule="nonzero" filter="url(#filter-28)" group-id="1,3,14,36" node-id="556" stroke="none" target-height="202.59082" target-width="187.25975" target-x="159.30147" target-y="709.27374"></path></g><path d="M 321.94 738.88 L 320.14 737.88 L 315.94 735.79 L 312.74 734.34 L 309.01 732.71 L 304.99 731.08 L 298.54 728.54 L 289.14 725.04 L 284.28 723.31 L 276.84 720.76 L 271.80 719.09 L 266.83 717.49 L 257.12 714.54 L 248.09 712.15 L 239.91 710.53 L 232.49 709.59 L 225.77 709.27 L 220.20 709.49 L 215.06 710.19 L 210.29 711.34 L 205.86 712.92 L 201.73 714.93 L 197.88 717.39 L 194.23 720.37 L 190.79 723.90 L 187.53 728.05 L 184.46 732.85 L 182.15 737.48 L 180.54 741.90 L 179.56 746.16 L 179.17 750.29 L 179.33 754.48 L 180.04 758.53 L 181.30 762.48 L 183.14 766.36 L 185.41 769.96 L 188.20 773.46 L 191.56 776.87 L 195.54 780.19 L 198.04 782.00 L 202.01 784.56 L 204.64 786.12 L 210.08 789.17 L 210.44 789.04 L 202.70 792.43 L 196.13 795.70 L 190.61 798.84 L 185.33 802.38 L 181.04 805.89 L 177.62 809.37 L 173.96 813.88 L 170.75 818.43 L 167.94 823.01 L 165.53 827.64 L 163.44 832.49 L 161.79 837.27 L 160.56 842.01 L 159.73 846.73 L 159.30 851.52 L 159.31 856.20 L 159.75 860.77 L 160.61 865.25 L 161.90 869.63 L 163.65 873.84 L 165.86 877.91 L 168.56 881.86 L 171.60 885.47 L 175.16 888.89 L 179.27 892.12 L 183.98 895.18 L 192.50 899.83 L 200.69 903.63 L 208.56 906.66 L 216.16 908.95 L 223.50 910.56 L 230.62 911.52 L 237.54 911.86 L 243.72 911.64 L 249.83 910.90 L 255.89 909.65 L 261.91 907.86 L 267.92 905.53 L 273.93 902.63 L 279.96 899.13 L 286.03 895.00 L 292.11 890.17 L 297.97 884.81 L 303.62 878.90 L 309.06 872.39 L 314.29 865.27 L 319.32 857.49 L 323.73 849.81 L 327.99 841.54 L 332.10 832.63 L 336.06 823.06 L 339.84 812.79 L 343.44 801.77 L 344.91 796.28 L 345.90 791.01 L 346.44 785.95 L 346.56 781.06 L 346.27 776.34 L 345.55 771.57 L 344.44 767.05 L 342.95 762.75 L 341.07 758.65 L 338.81 754.74 L 336.18 751.08 L 333.20 747.67 L 329.85 744.50 L 326.11 741.57 L 321.94 738.88 L 321.94 738.88 Z" fill="none" group-id="1,3,14,37" node-id="561" stroke="#efaa2e" stroke-linecap="butt" stroke-width="8" target-height="202.59082" target-width="187.25975" target-x="159.30147" target-y="709.27374"></path></g></g><g node-id="636"><g node-id="647"><g node-id="670"><path d="M 772.38 647.09 L 773.64 648.27 L 827.82 701.64 L 815.09 622.75 L 814.61 617.70 L 814.78 612.81 L 815.56 608.05 L 816.93 603.42 L 818.82 599.06 L 821.24 594.93 L 824.14 591.12 L 827.45 587.71 L 831.22 584.66 L 835.32 582.09 L 839.76 580.04 L 844.59 578.50 L 846.28 578.12 L 853.61 576.70 L 857.47 576.17 L 861.22 576.00 L 864.90 576.19 L 868.50 576.74 L 873.20 577.99 L 877.61 579.78 L 881.78 582.12 L 885.62 584.96 L 889.05 588.24 L 892.09 592.00 L 894.04 595.06 L 895.68 598.32 L 897.02 601.81 L 898.06 605.56 L 898.42 607.26 L 914.42 706.34 L 915.98 706.25 L 928.58 705.74 L 940.16 705.78 L 950.80 706.34 L 960.57 707.36 L 969.52 708.82 L 977.35 710.58 L 984.51 712.70 L 991.06 715.15 L 997.06 717.92 L 1002.53 721.00 L 1007.53 724.37 L 1012.30 728.28 L 1016.59 732.54 L 1020.41 737.18 L 1023.79 742.22 L 1026.72 747.69 L 1029.22 753.62 L 1032.00 761.92 L 1034.30 770.09 L 1036.12 778.16 L 1037.48 786.14 L 1038.43 794.25 L 1038.92 802.13 L 1038.97 809.81 L 1038.59 817.29 L 1037.77 824.80 L 1036.52 831.99 L 1034.88 838.87 L 1032.83 845.48 L 1030.31 851.97 L 1027.41 858.06 L 1024.14 863.77 L 1020.48 869.12 L 1017.24 873.05 L 1015.71 874.65 L 1012.93 877.33 L 1009.42 880.33 L 1007.37 881.92 L 1002.45 885.48 L 996.92 889.18 L 990.64 893.09 L 985.41 896.23 L 979.58 899.62 L 970.93 904.56 L 953.32 914.44 L 945.43 918.96 L 940.45 921.54 L 935.27 923.68 L 929.87 925.39 L 924.21 926.66 L 918.50 927.50 L 912.66 927.93 L 906.69 927.97 L 900.56 927.59 L 894.50 926.83 L 888.44 925.70 L 882.35 924.20 L 876.24 922.31 L 868.29 919.27 L 860.55 915.63 L 852.99 911.38 L 847.53 907.82 L 842.32 903.97 L 837.33 899.83 L 832.57 895.37 L 828.10 890.63 L 823.97 885.64 L 820.19 880.38 L 816.74 874.85 L 810.04 862.71 L 804.68 852.03 L 801.47 844.93 L 798.75 838.24 L 796.49 831.93 L 794.53 825.52 L 792.93 819.22 L 791.69 813.03 L 790.77 806.78 L 790.13 800.37 L 789.78 793.78 L 789.69 789.17 L 789.73 783.59 L 713.97 708.97 L 711.36 706.10 L 709.11 703.11 L 707.22 699.97 L 705.66 696.69 L 704.09 692.10 L 703.12 687.43 L 702.74 682.65 L 702.96 677.86 L 703.77 673.13 L 705.18 668.46 L 707.15 663.99 L 709.73 659.75 L 712.93 655.70 L 714.14 654.43 L 719.47 649.18 L 723.32 645.83 L 727.40 643.09 L 731.73 640.92 L 736.30 639.29 L 740.93 638.24 L 745.67 637.75 L 750.43 637.85 L 755.11 638.52 L 759.73 639.78 L 764.16 641.61 L 768.37 644.03 L 772.38 647.09 L 772.38 647.09 Z" fill="url(#linearGradient-17)" fill-rule="nonzero" group-id="1,4,15,38" node-id="570" stroke="none" target-height="351.96704" target-width="336.22974" target-x="702.74023" target-y="576.0006"></path></g><g node-id="671"><path d="M 772.38 647.09 L 773.64 648.27 L 827.82 701.64 L 815.09 622.75 L 814.61 617.70 L 814.78 612.81 L 815.56 608.05 L 816.93 603.42 L 818.82 599.06 L 821.24 594.93 L 824.14 591.12 L 827.45 587.71 L 831.22 584.66 L 835.32 582.09 L 839.76 580.04 L 844.59 578.50 L 846.28 578.12 L 853.61 576.70 L 857.47 576.17 L 861.22 576.00 L 864.90 576.19 L 868.50 576.74 L 873.20 577.99 L 877.61 579.78 L 881.78 582.12 L 885.62 584.96 L 889.05 588.24 L 892.09 592.00 L 894.04 595.06 L 895.68 598.32 L 897.02 601.81 L 898.06 605.56 L 898.42 607.26 L 914.42 706.34 L 915.98 706.25 L 928.58 705.74 L 940.16 705.78 L 950.80 706.34 L 960.57 707.36 L 969.52 708.82 L 977.35 710.58 L 984.51 712.70 L 991.06 715.15 L 997.06 717.92 L 1002.53 721.00 L 1007.53 724.37 L 1012.30 728.28 L 1016.59 732.54 L 1020.41 737.18 L 1023.79 742.22 L 1026.72 747.69 L 1029.22 753.62 L 1032.00 761.92 L 1034.30 770.09 L 1036.12 778.16 L 1037.48 786.14 L 1038.43 794.25 L 1038.92 802.13 L 1038.97 809.81 L 1038.59 817.29 L 1037.77 824.80 L 1036.52 831.99 L 1034.88 838.87 L 1032.83 845.48 L 1030.31 851.97 L 1027.41 858.06 L 1024.14 863.77 L 1020.48 869.12 L 1017.24 873.05 L 1015.71 874.65 L 1012.93 877.33 L 1009.42 880.33 L 1007.37 881.92 L 1002.45 885.48 L 996.92 889.18 L 990.64 893.09 L 985.41 896.23 L 979.58 899.62 L 970.93 904.56 L 953.32 914.44 L 945.43 918.96 L 940.45 921.54 L 935.27 923.68 L 929.87 925.39 L 924.21 926.66 L 918.50 927.50 L 912.66 927.93 L 906.69 927.97 L 900.56 927.59 L 894.50 926.83 L 888.44 925.70 L 882.35 924.20 L 876.24 922.31 L 868.29 919.27 L 860.55 915.63 L 852.99 911.38 L 847.53 907.82 L 842.32 903.97 L 837.33 899.83 L 832.57 895.37 L 828.10 890.63 L 823.97 885.64 L 820.19 880.38 L 816.74 874.85 L 810.04 862.71 L 804.68 852.03 L 801.47 844.93 L 798.75 838.24 L 796.49 831.93 L 794.53 825.52 L 792.93 819.22 L 791.69 813.03 L 790.77 806.78 L 790.13 800.37 L 789.78 793.78 L 789.69 789.17 L 789.73 783.59 L 713.97 708.97 L 711.36 706.10 L 709.11 703.11 L 707.22 699.97 L 705.66 696.69 L 704.09 692.10 L 703.12 687.43 L 702.74 682.65 L 702.96 677.86 L 703.77 673.13 L 705.18 668.46 L 707.15 663.99 L 709.73 659.75 L 712.93 655.70 L 714.14 654.43 L 719.47 649.18 L 723.32 645.83 L 727.40 643.09 L 731.73 640.92 L 736.30 639.29 L 740.93 638.24 L 745.67 637.75 L 750.43 637.85 L 755.11 638.52 L 759.73 639.78 L 764.16 641.61 L 768.37 644.03 L 772.38 647.09 L 772.38 647.09 Z" fill="#000000" fill-rule="nonzero" filter="url(#filter-31)" group-id="1,4,15,39" node-id="575" stroke="none" target-height="351.96704" target-width="336.22974" target-x="702.74023" target-y="576.0006"></path></g><path d="M 772.38 647.09 L 773.64 648.27 L 827.82 701.64 L 815.09 622.75 L 814.61 617.70 L 814.78 612.81 L 815.56 608.05 L 816.93 603.42 L 818.82 599.06 L 821.24 594.93 L 824.14 591.12 L 827.45 587.71 L 831.22 584.66 L 835.32 582.09 L 839.76 580.04 L 844.59 578.50 L 846.28 578.12 L 853.61 576.70 L 857.47 576.17 L 861.22 576.00 L 864.90 576.19 L 868.50 576.74 L 873.20 577.99 L 877.61 579.78 L 881.78 582.12 L 885.62 584.96 L 889.05 588.24 L 892.09 592.00 L 894.04 595.06 L 895.68 598.32 L 897.02 601.81 L 898.06 605.56 L 898.42 607.26 L 914.42 706.34 L 915.98 706.25 L 928.58 705.74 L 940.16 705.78 L 950.80 706.34 L 960.57 707.36 L 969.52 708.82 L 977.35 710.58 L 984.51 712.70 L 991.06 715.15 L 997.06 717.92 L 1002.53 721.00 L 1007.53 724.37 L 1012.30 728.28 L 1016.59 732.54 L 1020.41 737.18 L 1023.79 742.22 L 1026.72 747.69 L 1029.22 753.62 L 1032.00 761.92 L 1034.30 770.09 L 1036.12 778.16 L 1037.48 786.14 L 1038.43 794.25 L 1038.92 802.13 L 1038.97 809.81 L 1038.59 817.29 L 1037.77 824.80 L 1036.52 831.99 L 1034.88 838.87 L 1032.83 845.48 L 1030.31 851.97 L 1027.41 858.06 L 1024.14 863.77 L 1020.48 869.12 L 1017.24 873.05 L 1015.71 874.65 L 1012.93 877.33 L 1009.42 880.33 L 1007.37 881.92 L 1002.45 885.48 L 996.92 889.18 L 990.64 893.09 L 985.41 896.23 L 979.58 899.62 L 970.93 904.56 L 953.32 914.44 L 945.43 918.96 L 940.45 921.54 L 935.27 923.68 L 929.87 925.39 L 924.21 926.66 L 918.50 927.50 L 912.66 927.93 L 906.69 927.97 L 900.56 927.59 L 894.50 926.83 L 888.44 925.70 L 882.35 924.20 L 876.24 922.31 L 868.29 919.27 L 860.55 915.63 L 852.99 911.38 L 847.53 907.82 L 842.32 903.97 L 837.33 899.83 L 832.57 895.37 L 828.10 890.63 L 823.97 885.64 L 820.19 880.38 L 816.74 874.85 L 810.04 862.71 L 804.68 852.03 L 801.47 844.93 L 798.75 838.24 L 796.49 831.93 L 794.53 825.52 L 792.93 819.22 L 791.69 813.03 L 790.77 806.78 L 790.13 800.37 L 789.78 793.78 L 789.69 789.17 L 789.73 783.59 L 713.97 708.97 L 711.36 706.10 L 709.11 703.11 L 707.22 699.97 L 705.66 696.69 L 704.09 692.10 L 703.12 687.43 L 702.74 682.65 L 702.96 677.86 L 703.77 673.13 L 705.18 668.46 L 707.15 663.99 L 709.73 659.75 L 712.93 655.70 L 714.14 654.43 L 719.47 649.18 L 723.32 645.83 L 727.40 643.09 L 731.73 640.92 L 736.30 639.29 L 740.93 638.24 L 745.67 637.75 L 750.43 637.85 L 755.11 638.52 L 759.73 639.78 L 764.16 641.61 L 768.37 644.03 L 772.38 647.09 L 772.38 647.09 Z" fill="none" group-id="1,4,15,40" node-id="580" stroke="#efaa2e" stroke-linecap="butt" stroke-width="8" target-height="351.96704" target-width="336.22974" target-x="702.74023" target-y="576.0006"></path></g><g node-id="648"><g node-id="673"><path d="M 908.60 679.01 L 915.46 675.89 L 919.16 674.45 L 922.84 673.43 L 926.51 672.80 L 930.18 672.56 L 935.10 672.81 L 939.85 673.69 L 944.49 675.19 L 948.90 677.26 L 953.02 679.89 L 956.88 683.09 L 959.48 685.79 L 961.84 688.76 L 963.96 692.03 L 965.84 695.60 L 966.54 697.22 L 982.93 738.28 L 984.56 743.18 L 985.62 748.07 L 986.12 753.00 L 986.09 757.94 L 985.52 762.73 L 984.43 767.38 L 982.81 771.86 L 980.71 776.02 L 978.11 779.90 L 975.84 782.56 L 973.31 784.97 L 970.50 787.13 L 967.40 789.04 L 965.89 789.81 L 959.60 792.65 L 956.15 793.99 L 952.70 794.92 L 949.24 795.46 L 945.75 795.62 L 941.10 795.28 L 936.55 794.34 L 932.07 792.81 L 927.79 790.74 L 923.74 788.16 L 919.91 785.04 L 916.44 781.51 L 913.35 777.56 L 910.63 773.14 L 909.82 771.54 L 890.80 731.73 L 889.25 728.01 L 888.08 724.30 L 887.29 720.58 L 886.85 716.83 L 886.81 711.80 L 887.38 706.92 L 888.54 702.15 L 890.28 697.57 L 892.57 693.29 L 895.43 689.28 L 897.89 686.53 L 900.64 684.04 L 903.69 681.78 L 907.07 679.77 L 908.60 679.01 L 908.60 679.01 Z" fill="url(#linearGradient-20)" fill-rule="nonzero" group-id="1,4,16,41" node-id="587" stroke="none" target-height="123.05463" target-width="99.30975" target-x="886.8149" target-y="672.5615"></path></g><g node-id="674"><path d="M 908.60 679.01 L 915.46 675.89 L 919.16 674.45 L 922.84 673.43 L 926.51 672.80 L 930.18 672.56 L 935.10 672.81 L 939.85 673.69 L 944.49 675.19 L 948.90 677.26 L 953.02 679.89 L 956.88 683.09 L 959.48 685.79 L 961.84 688.76 L 963.96 692.03 L 965.84 695.60 L 966.54 697.22 L 982.93 738.28 L 984.56 743.18 L 985.62 748.07 L 986.12 753.00 L 986.09 757.94 L 985.52 762.73 L 984.43 767.38 L 982.81 771.86 L 980.71 776.02 L 978.11 779.90 L 975.84 782.56 L 973.31 784.97 L 970.50 787.13 L 967.40 789.04 L 965.89 789.81 L 959.60 792.65 L 956.15 793.99 L 952.70 794.92 L 949.24 795.46 L 945.75 795.62 L 941.10 795.28 L 936.55 794.34 L 932.07 792.81 L 927.79 790.74 L 923.74 788.16 L 919.91 785.04 L 916.44 781.51 L 913.35 777.56 L 910.63 773.14 L 909.82 771.54 L 890.80 731.73 L 889.25 728.01 L 888.08 724.30 L 887.29 720.58 L 886.85 716.83 L 886.81 711.80 L 887.38 706.92 L 888.54 702.15 L 890.28 697.57 L 892.57 693.29 L 895.43 689.28 L 897.89 686.53 L 900.64 684.04 L 903.69 681.78 L 907.07 679.77 L 908.60 679.01 L 908.60 679.01 Z" fill="#000000" fill-rule="nonzero" filter="url(#filter-33)" group-id="1,4,16,42" node-id="592" stroke="none" target-height="123.05463" target-width="99.30975" target-x="886.8149" target-y="672.5615"></path></g><path d="M 908.60 679.01 L 915.46 675.89 L 919.16 674.45 L 922.84 673.43 L 926.51 672.80 L 930.18 672.56 L 935.10 672.81 L 939.85 673.69 L 944.49 675.19 L 948.90 677.26 L 953.02 679.89 L 956.88 683.09 L 959.48 685.79 L 961.84 688.76 L 963.96 692.03 L 965.84 695.60 L 966.54 697.22 L 982.93 738.28 L 984.56 743.18 L 985.62 748.07 L 986.12 753.00 L 986.09 757.94 L 985.52 762.73 L 984.43 767.38 L 982.81 771.86 L 980.71 776.02 L 978.11 779.90 L 975.84 782.56 L 973.31 784.97 L 970.50 787.13 L 967.40 789.04 L 965.89 789.81 L 959.60 792.65 L 956.15 793.99 L 952.70 794.92 L 949.24 795.46 L 945.75 795.62 L 941.10 795.28 L 936.55 794.34 L 932.07 792.81 L 927.79 790.74 L 923.74 788.16 L 919.91 785.04 L 916.44 781.51 L 913.35 777.56 L 910.63 773.14 L 909.82 771.54 L 890.80 731.73 L 889.25 728.01 L 888.08 724.30 L 887.29 720.58 L 886.85 716.83 L 886.81 711.80 L 887.38 706.92 L 888.54 702.15 L 890.28 697.57 L 892.57 693.29 L 895.43 689.28 L 897.89 686.53 L 900.64 684.04 L 903.69 681.78 L 907.07 679.77 L 908.60 679.01 L 908.60 679.01 Z" fill="none" group-id="1,4,16,43" node-id="597" stroke="#efaa2e" stroke-linecap="butt" stroke-width="8" target-height="123.05463" target-width="99.30975" target-x="886.8149" target-y="672.5615"></path></g><g node-id="649"><g node-id="676"><path d="M 967.19 677.05 L 968.81 676.51 L 975.96 674.22 L 979.56 673.25 L 983.15 672.66 L 986.76 672.44 L 990.41 672.58 L 994.02 673.09 L 997.53 673.96 L 1000.96 675.20 L 1004.33 676.80 L 1007.51 678.75 L 1010.42 680.96 L 1013.07 683.44 L 1015.48 686.20 L 1017.61 689.18 L 1019.41 692.34 L 1020.89 695.69 L 1022.06 699.25 L 1022.48 700.94 L 1031.45 741.73 L 1032.22 746.55 L 1032.45 751.31 L 1032.14 756.02 L 1031.33 760.68 L 1030.05 765.11 L 1028.29 769.37 L 1026.07 773.40 L 1023.45 777.07 L 1020.41 780.42 L 1016.99 783.36 L 1013.21 785.83 L 1009.04 787.83 L 1007.42 788.43 L 1000.83 790.51 L 997.29 791.41 L 993.81 791.92 L 990.38 792.05 L 986.97 791.81 L 982.49 790.96 L 978.19 789.55 L 974.05 787.56 L 970.18 785.07 L 966.62 782.11 L 963.34 778.65 L 960.50 774.83 L 958.09 770.62 L 956.13 765.99 L 955.55 764.25 L 943.83 724.35 L 942.72 719.41 L 942.26 714.55 L 942.41 709.75 L 943.15 704.99 L 944.44 700.45 L 946.28 696.08 L 948.63 691.97 L 951.45 688.19 L 954.77 684.73 L 958.48 681.70 L 962.60 679.15 L 967.19 677.05 L 967.19 677.05 Z" fill="url(#linearGradient-34)" fill-rule="nonzero" group-id="1,4,17,44" node-id="604" stroke="none" target-height="119.61603" target-width="90.19104" target-x="942.2562" target-y="672.4358"></path></g><g node-id="677"><path d="M 967.19 677.05 L 968.81 676.51 L 975.96 674.22 L 979.56 673.25 L 983.15 672.66 L 986.76 672.44 L 990.41 672.58 L 994.02 673.09 L 997.53 673.96 L 1000.96 675.20 L 1004.33 676.80 L 1007.51 678.75 L 1010.42 680.96 L 1013.07 683.44 L 1015.48 686.20 L 1017.61 689.18 L 1019.41 692.34 L 1020.89 695.69 L 1022.06 699.25 L 1022.48 700.94 L 1031.45 741.73 L 1032.22 746.55 L 1032.45 751.31 L 1032.14 756.02 L 1031.33 760.68 L 1030.05 765.11 L 1028.29 769.37 L 1026.07 773.40 L 1023.45 777.07 L 1020.41 780.42 L 1016.99 783.36 L 1013.21 785.83 L 1009.04 787.83 L 1007.42 788.43 L 1000.83 790.51 L 997.29 791.41 L 993.81 791.92 L 990.38 792.05 L 986.97 791.81 L 982.49 790.96 L 978.19 789.55 L 974.05 787.56 L 970.18 785.07 L 966.62 782.11 L 963.34 778.65 L 960.50 774.83 L 958.09 770.62 L 956.13 765.99 L 955.55 764.25 L 943.83 724.35 L 942.72 719.41 L 942.26 714.55 L 942.41 709.75 L 943.15 704.99 L 944.44 700.45 L 946.28 696.08 L 948.63 691.97 L 951.45 688.19 L 954.77 684.73 L 958.48 681.70 L 962.60 679.15 L 967.19 677.05 L 967.19 677.05 Z" fill="#000000" fill-rule="nonzero" filter="url(#filter-36)" group-id="1,4,17,45" node-id="609" stroke="none" target-height="119.61603" target-width="90.19104" target-x="942.2562" target-y="672.4358"></path></g><path d="M 967.19 677.05 L 968.81 676.51 L 975.96 674.22 L 979.56 673.25 L 983.15 672.66 L 986.76 672.44 L 990.41 672.58 L 994.02 673.09 L 997.53 673.96 L 1000.96 675.20 L 1004.33 676.80 L 1007.51 678.75 L 1010.42 680.96 L 1013.07 683.44 L 1015.48 686.20 L 1017.61 689.18 L 1019.41 692.34 L 1020.89 695.69 L 1022.06 699.25 L 1022.48 700.94 L 1031.45 741.73 L 1032.22 746.55 L 1032.45 751.31 L 1032.14 756.02 L 1031.33 760.68 L 1030.05 765.11 L 1028.29 769.37 L 1026.07 773.40 L 1023.45 777.07 L 1020.41 780.42 L 1016.99 783.36 L 1013.21 785.83 L 1009.04 787.83 L 1007.42 788.43 L 1000.83 790.51 L 997.29 791.41 L 993.81 791.92 L 990.38 792.05 L 986.97 791.81 L 982.49 790.96 L 978.19 789.55 L 974.05 787.56 L 970.18 785.07 L 966.62 782.11 L 963.34 778.65 L 960.50 774.83 L 958.09 770.62 L 956.13 765.99 L 955.55 764.25 L 943.83 724.35 L 942.72 719.41 L 942.26 714.55 L 942.41 709.75 L 943.15 704.99 L 944.44 700.45 L 946.28 696.08 L 948.63 691.97 L 951.45 688.19 L 954.77 684.73 L 958.48 681.70 L 962.60 679.15 L 967.19 677.05 L 967.19 677.05 Z" fill="none" group-id="1,4,17,46" node-id="614" stroke="#efaa2e" stroke-linecap="butt" stroke-width="8" target-height="119.61603" target-width="90.19104" target-x="942.2562" target-y="672.4358"></path></g><g node-id="650"><g node-id="679"><path d="M 812.06 754.88 L 813.86 753.88 L 818.06 751.79 L 821.26 750.34 L 824.99 748.71 L 829.01 747.08 L 835.46 744.54 L 844.86 741.04 L 849.72 739.31 L 857.16 736.76 L 867.17 733.49 L 876.88 730.54 L 885.91 728.15 L 894.09 726.53 L 901.51 725.59 L 908.23 725.27 L 913.80 725.49 L 918.94 726.19 L 923.71 727.34 L 928.14 728.92 L 932.27 730.93 L 936.12 733.39 L 939.77 736.37 L 943.21 739.90 L 946.47 744.05 L 949.54 748.85 L 951.85 753.48 L 953.46 757.90 L 954.44 762.16 L 954.83 766.29 L 954.67 770.48 L 953.96 774.53 L 952.70 778.48 L 950.86 782.36 L 948.59 785.96 L 945.80 789.46 L 942.44 792.87 L 938.46 796.19 L 935.96 798.00 L 932.01 800.56 L 929.36 802.12 L 923.92 805.17 L 923.56 805.04 L 931.30 808.43 L 937.87 811.70 L 943.39 814.84 L 948.67 818.38 L 952.96 821.89 L 956.38 825.37 L 960.04 829.88 L 963.25 834.43 L 966.06 839.01 L 968.47 843.64 L 970.56 848.49 L 972.21 853.27 L 973.44 858.01 L 974.27 862.73 L 974.70 867.52 L 974.69 872.20 L 974.25 876.77 L 973.39 881.25 L 972.10 885.63 L 970.35 889.84 L 968.14 893.91 L 965.44 897.86 L 962.40 901.47 L 958.84 904.89 L 954.73 908.12 L 950.02 911.18 L 941.50 915.83 L 933.31 919.63 L 925.44 922.66 L 917.84 924.95 L 910.50 926.56 L 903.38 927.52 L 896.46 927.86 L 890.28 927.64 L 884.17 926.90 L 878.11 925.65 L 872.09 923.86 L 866.08 921.53 L 860.07 918.63 L 854.04 915.13 L 847.97 911.00 L 841.89 906.17 L 836.03 900.81 L 830.38 894.90 L 824.94 888.39 L 819.71 881.27 L 814.68 873.49 L 810.27 865.81 L 806.01 857.54 L 801.90 848.63 L 797.94 839.06 L 794.16 828.79 L 790.56 817.77 L 789.09 812.28 L 788.10 807.01 L 787.56 801.95 L 787.44 797.06 L 787.73 792.34 L 788.45 787.57 L 789.56 783.05 L 791.05 778.75 L 792.93 774.65 L 795.19 770.74 L 797.82 767.08 L 800.80 763.67 L 804.15 760.50 L 807.89 757.57 L 812.06 754.88 L 812.06 754.88 Z" fill="url(#linearGradient-26)" fill-rule="nonzero" group-id="1,4,18,47" node-id="621" stroke="none" target-height="202.59082" target-width="187.25977" target-x="787.4388" target-y="725.27374"></path></g><g node-id="680"><path d="M 812.06 754.88 L 813.86 753.88 L 818.06 751.79 L 821.26 750.34 L 824.99 748.71 L 829.01 747.08 L 835.46 744.54 L 844.86 741.04 L 849.72 739.31 L 857.16 736.76 L 867.17 733.49 L 876.88 730.54 L 885.91 728.15 L 894.09 726.53 L 901.51 725.59 L 908.23 725.27 L 913.80 725.49 L 918.94 726.19 L 923.71 727.34 L 928.14 728.92 L 932.27 730.93 L 936.12 733.39 L 939.77 736.37 L 943.21 739.90 L 946.47 744.05 L 949.54 748.85 L 951.85 753.48 L 953.46 757.90 L 954.44 762.16 L 954.83 766.29 L 954.67 770.48 L 953.96 774.53 L 952.70 778.48 L 950.86 782.36 L 948.59 785.96 L 945.80 789.46 L 942.44 792.87 L 938.46 796.19 L 935.96 798.00 L 932.01 800.56 L 929.36 802.12 L 923.92 805.17 L 923.56 805.04 L 931.30 808.43 L 937.87 811.70 L 943.39 814.84 L 948.67 818.38 L 952.96 821.89 L 956.38 825.37 L 960.04 829.88 L 963.25 834.43 L 966.06 839.01 L 968.47 843.64 L 970.56 848.49 L 972.21 853.27 L 973.44 858.01 L 974.27 862.73 L 974.70 867.52 L 974.69 872.20 L 974.25 876.77 L 973.39 881.25 L 972.10 885.63 L 970.35 889.84 L 968.14 893.91 L 965.44 897.86 L 962.40 901.47 L 958.84 904.89 L 954.73 908.12 L 950.02 911.18 L 941.50 915.83 L 933.31 919.63 L 925.44 922.66 L 917.84 924.95 L 910.50 926.56 L 903.38 927.52 L 896.46 927.86 L 890.28 927.64 L 884.17 926.90 L 878.11 925.65 L 872.09 923.86 L 866.08 921.53 L 860.07 918.63 L 854.04 915.13 L 847.97 911.00 L 841.89 906.17 L 836.03 900.81 L 830.38 894.90 L 824.94 888.39 L 819.71 881.27 L 814.68 873.49 L 810.27 865.81 L 806.01 857.54 L 801.90 848.63 L 797.94 839.06 L 794.16 828.79 L 790.56 817.77 L 789.09 812.28 L 788.10 807.01 L 787.56 801.95 L 787.44 797.06 L 787.73 792.34 L 788.45 787.57 L 789.56 783.05 L 791.05 778.75 L 792.93 774.65 L 795.19 770.74 L 797.82 767.08 L 800.80 763.67 L 804.15 760.50 L 807.89 757.57 L 812.06 754.88 L 812.06 754.88 Z" fill="#000000" fill-rule="nonzero" filter="url(#filter-38)" group-id="1,4,18,48" node-id="626" stroke="none" target-height="202.59082" target-width="187.25977" target-x="787.4388" target-y="725.27374"></path></g><path d="M 812.06 754.88 L 813.86 753.88 L 818.06 751.79 L 821.26 750.34 L 824.99 748.71 L 829.01 747.08 L 835.46 744.54 L 844.86 741.04 L 849.72 739.31 L 857.16 736.76 L 867.17 733.49 L 876.88 730.54 L 885.91 728.15 L 894.09 726.53 L 901.51 725.59 L 908.23 725.27 L 913.80 725.49 L 918.94 726.19 L 923.71 727.34 L 928.14 728.92 L 932.27 730.93 L 936.12 733.39 L 939.77 736.37 L 943.21 739.90 L 946.47 744.05 L 949.54 748.85 L 951.85 753.48 L 953.46 757.90 L 954.44 762.16 L 954.83 766.29 L 954.67 770.48 L 953.96 774.53 L 952.70 778.48 L 950.86 782.36 L 948.59 785.96 L 945.80 789.46 L 942.44 792.87 L 938.46 796.19 L 935.96 798.00 L 932.01 800.56 L 929.36 802.12 L 923.92 805.17 L 923.56 805.04 L 931.30 808.43 L 937.87 811.70 L 943.39 814.84 L 948.67 818.38 L 952.96 821.89 L 956.38 825.37 L 960.04 829.88 L 963.25 834.43 L 966.06 839.01 L 968.47 843.64 L 970.56 848.49 L 972.21 853.27 L 973.44 858.01 L 974.27 862.73 L 974.70 867.52 L 974.69 872.20 L 974.25 876.77 L 973.39 881.25 L 972.10 885.63 L 970.35 889.84 L 968.14 893.91 L 965.44 897.86 L 962.40 901.47 L 958.84 904.89 L 954.73 908.12 L 950.02 911.18 L 941.50 915.83 L 933.31 919.63 L 925.44 922.66 L 917.84 924.95 L 910.50 926.56 L 903.38 927.52 L 896.46 927.86 L 890.28 927.64 L 884.17 926.90 L 878.11 925.65 L 872.09 923.86 L 866.08 921.53 L 860.07 918.63 L 854.04 915.13 L 847.97 911.00 L 841.89 906.17 L 836.03 900.81 L 830.38 894.90 L 824.94 888.39 L 819.71 881.27 L 814.68 873.49 L 810.27 865.81 L 806.01 857.54 L 801.90 848.63 L 797.94 839.06 L 794.16 828.79 L 790.56 817.77 L 789.09 812.28 L 788.10 807.01 L 787.56 801.95 L 787.44 797.06 L 787.73 792.34 L 788.45 787.57 L 789.56 783.05 L 791.05 778.75 L 792.93 774.65 L 795.19 770.74 L 797.82 767.08 L 800.80 763.67 L 804.15 760.50 L 807.89 757.57 L 812.06 754.88 L 812.06 754.88 Z" fill="none" group-id="1,4,18,49" node-id="631" stroke="#efaa2e" stroke-linecap="butt" stroke-width="8" target-height="202.59082" target-width="187.25977" target-x="787.4388" target-y="725.27374"></path></g></g></g></svg>