<?xml version="1.0" standalone="no"?><!DOCTYPE svg PUBLIC "-//W3C//DTD SVG 1.1//EN" "http://www.w3.org/Graphics/SVG/1.1/DTD/svg11.dtd"><svg height="1024" node-id="1" sillyvg="true" template-height="1024" template-width="1024" version="1.1" viewBox="0 0 1024 1024" width="1024" xmlns="http://www.w3.org/2000/svg" xmlns:xlink="http://www.w3.org/1999/xlink"><defs node-id="118"><radialGradient cx="0.5" cy="0.19668992" fx="0.5" fy="0.19668992" gradientTransform="matrix(0 1 -0.912281 0 0.67943655 -0.30331)" gradientUnits="objectBoundingBox" id="radialGradient-1" node-id="5" r="0.9393923" rev="3" spreadMethod="pad"><stop offset="0" stop-color="#ffe476"></stop><stop offset="0.41387266" stop-color="#fcec6c"></stop><stop offset="1" stop-color="#ffb02f"></stop></radialGradient><linearGradient gradientUnits="objectBoundingBox" id="linearGradient-6" node-id="19" spreadMethod="pad" x1="0.5" x2="0.5" y1="0" y2="1"><stop offset="0" stop-color="#ffffff"></stop><stop offset="1" stop-color="#ffedbe"></stop></linearGradient><linearGradient gradientUnits="objectBoundingBox" id="linearGradient-20" node-id="64" spreadMethod="pad" x1="0.5" x2="0.5" y1="0.1186253" y2="1"><stop offset="0" stop-color="#ff8b9f"></stop><stop offset="1" stop-color="#ff5166"></stop></linearGradient><filter height="1.173" id="filter-3" node-id="10" width="1.158" x="-0.079" y="-0.087"><feGaussianBlur color-interpolation-filters="linearRGB" in="SourceAlpha" result="shadowBlurInner1" stdDeviation="64 64"></feGaussianBlur><feOffset color-interpolation-filters="linearRGB" dx="0" dy="16" in="shadowBlurInner1" result="shadowOffsetInner1"></feOffset><feComposite color-interpolation-filters="linearRGB" in="shadowOffsetInner1" in2="SourceAlpha" k1="0" k2="-1" k3="1" k4="0" operator="arithmetic" result="shadowInnerInner1"></feComposite><feColorMatrix color-interpolation-filters="linearRGB" in="shadowInnerInner1" result="result4" type="matrix" values="0 0 0 0 0.968627451 0 0 0 0 0.68627451 0 0 0 0 0.270588235 0 0 0 0.501145583 0"></feColorMatrix></filter><filter height="3.571" id="filter-4" node-id="15" width="1.75" x="-0.375" y="-1.286"><feGaussianBlur color-interpolation-filters="linearRGB" in="SourceGraphic" result="result1" stdDeviation="48 48"></feGaussianBlur></filter><filter height="3.571" id="filter-5" node-id="17" width="1.783" x="-0.391" y="-1.286"><feGaussianBlur color-interpolation-filters="linearRGB" in="SourceGraphic" result="result1" stdDeviation="48 48"></feGaussianBlur></filter><filter height="2.2" id="filter-8" node-id="23" width="1.706" x="-0.353" y="-0.6"><feOffset color-interpolation-filters="linearRGB" dx="0" dy="0" in="SourceAlpha" result="shadowOffsetOuter1"></feOffset><feGaussianBlur color-interpolation-filters="linearRGB" in="shadowOffsetOuter1" result="shadowBlurOuter1" stdDeviation="32 32"></feGaussianBlur><feColorMatrix color-interpolation-filters="linearRGB" in="shadowBlurOuter1" result="result3" type="matrix" values="0 0 0 0 0.798376111 0 0 0 0 0.501400687 0 0 0 0 0.0887205532 0 0 0 1 0"></feColorMatrix></filter><filter height="2" id="filter-9" node-id="27" width="1.588" x="-0.294" y="-0.5"><feGaussianBlur color-interpolation-filters="linearRGB" in="SourceAlpha" result="shadowBlurInner1" stdDeviation="16 16"></feGaussianBlur><feOffset color-interpolation-filters="linearRGB" dx="0" dy="0" in="shadowBlurInner1" result="shadowOffsetInner1"></feOffset><feComposite color-interpolation-filters="linearRGB" in="shadowOffsetInner1" in2="SourceAlpha" k1="0" k2="-1" k3="1" k4="0" operator="arithmetic" result="shadowInnerInner1"></feComposite><feColorMatrix color-interpolation-filters="linearRGB" in="shadowInnerInner1" result="result4" type="matrix" values="0 0 0 0 1 0 0 0 0 0.880587925 0 0 0 0 0.537254902 0 0 0 0.500726446 0"></feColorMatrix></filter><filter height="1.4" id="filter-11" node-id="33" width="1.286" x="-0.143" y="-0.2"><feGaussianBlur color-interpolation-filters="linearRGB" in="SourceAlpha" result="shadowBlurInner1" stdDeviation="16 16"></feGaussianBlur><feOffset color-interpolation-filters="linearRGB" dx="0" dy="0" in="shadowBlurInner1" result="shadowOffsetInner1"></feOffset><feComposite color-interpolation-filters="linearRGB" in="shadowOffsetInner1" in2="SourceAlpha" k1="0" k2="-1" k3="1" k4="0" operator="arithmetic" result="shadowInnerInner1"></feComposite><feColorMatrix color-interpolation-filters="linearRGB" in="shadowInnerInner1" result="result4" type="matrix" values="0 0 0 0 0.322660142 0 0 0 0 0 0 0 0 0 0.0976114716 0 0 0 1 0"></feColorMatrix></filter><filter height="2.2" id="filter-13" node-id="39" width="1.706" x="-0.353" y="-0.6"><feOffset color-interpolation-filters="linearRGB" dx="0" dy="0" in="SourceAlpha" result="shadowOffsetOuter1"></feOffset><feGaussianBlur color-interpolation-filters="linearRGB" in="shadowOffsetOuter1" result="shadowBlurOuter1" stdDeviation="32 32"></feGaussianBlur><feColorMatrix color-interpolation-filters="linearRGB" in="shadowBlurOuter1" result="result3" type="matrix" values="0 0 0 0 0.798376111 0 0 0 0 0.501400687 0 0 0 0 0.0887205532 0 0 0 1 0"></feColorMatrix></filter><filter height="2" id="filter-14" node-id="43" width="1.588" x="-0.294" y="-0.5"><feGaussianBlur color-interpolation-filters="linearRGB" in="SourceAlpha" result="shadowBlurInner1" stdDeviation="16 16"></feGaussianBlur><feOffset color-interpolation-filters="linearRGB" dx="0" dy="0" in="shadowBlurInner1" result="shadowOffsetInner1"></feOffset><feComposite color-interpolation-filters="linearRGB" in="shadowOffsetInner1" in2="SourceAlpha" k1="0" k2="-1" k3="1" k4="0" operator="arithmetic" result="shadowInnerInner1"></feComposite><feColorMatrix color-interpolation-filters="linearRGB" in="shadowInnerInner1" result="result4" type="matrix" values="0 0 0 0 1 0 0 0 0 0.880587925 0 0 0 0 0.537254902 0 0 0 0.500726446 0"></feColorMatrix></filter><filter height="1.4" id="filter-16" node-id="49" width="1.286" x="-0.143" y="-0.2"><feGaussianBlur color-interpolation-filters="linearRGB" in="SourceAlpha" result="shadowBlurInner1" stdDeviation="16 16"></feGaussianBlur><feOffset color-interpolation-filters="linearRGB" dx="0" dy="0" in="shadowBlurInner1" result="shadowOffsetInner1"></feOffset><feComposite color-interpolation-filters="linearRGB" in="shadowOffsetInner1" in2="SourceAlpha" k1="0" k2="-1" k3="1" k4="0" operator="arithmetic" result="shadowInnerInner1"></feComposite><feColorMatrix color-interpolation-filters="linearRGB" in="shadowInnerInner1" result="result4" type="matrix" values="0 0 0 0 0.322660142 0 0 0 0 0 0 0 0 0 0.0976114716 0 0 0 1 0"></feColorMatrix></filter><filter height="1.6" id="filter-18" node-id="55" width="1.214" x="-0.107" y="-0.3"><feOffset color-interpolation-filters="linearRGB" dx="0" dy="0" in="SourceAlpha" result="shadowOffsetOuter1"></feOffset><feGaussianBlur color-interpolation-filters="linearRGB" in="shadowOffsetOuter1" result="shadowBlurOuter1" stdDeviation="16 16"></feGaussianBlur><feColorMatrix color-interpolation-filters="linearRGB" in="shadowBlurOuter1" result="result3" type="matrix" values="0 0 0 0 1 0 0 0 0 0.912152601 0 0 0 0 0.554255788 0 0 0 1 0"></feColorMatrix></filter><filter height="1.5" id="filter-19" node-id="59" width="1.179" x="-0.089" y="-0.25"><feGaussianBlur color-interpolation-filters="linearRGB" in="SourceAlpha" result="shadowBlurInner1" stdDeviation="8 8"></feGaussianBlur><feOffset color-interpolation-filters="linearRGB" dx="0" dy="0" in="shadowBlurInner1" result="shadowOffsetInner1"></feOffset><feComposite color-interpolation-filters="linearRGB" in="shadowOffsetInner1" in2="SourceAlpha" k1="0" k2="-1" k3="1" k4="0" operator="arithmetic" result="shadowInnerInner1"></feComposite><feColorMatrix color-interpolation-filters="linearRGB" in="shadowInnerInner1" result="result4" type="matrix" values="0 0 0 0 0.661258421 0 0 0 0 0.0872254633 0 0 0 0 0.00982776113 0 0 0 1 0"></feColorMatrix></filter><filter height="1.1" id="filter-22" node-id="68" width="1.036" x="-0.018" y="-0.05"><feGaussianBlur color-interpolation-filters="linearRGB" in="SourceAlpha" result="shadowBlurInner1" stdDeviation="8 8"></feGaussianBlur><feOffset color-interpolation-filters="linearRGB" dx="0" dy="0" in="shadowBlurInner1" result="shadowOffsetInner1"></feOffset><feComposite color-interpolation-filters="linearRGB" in="shadowOffsetInner1" in2="SourceAlpha" k1="0" k2="-1" k3="1" k4="0" operator="arithmetic" result="shadowInnerInner1"></feComposite><feColorMatrix color-interpolation-filters="linearRGB" in="shadowInnerInner1" result="result4" type="matrix" values="0 0 0 0 0.661258421 0 0 0 0 0.0872254633 0 0 0 0 0.00982776113 0 0 0 1 0"></feColorMatrix></filter></defs><g node-id="364"><path d="M 0.00 0.00 L 1024.00 0.00 L 1024.00 1024.00 L 0.00 1024.00 Z" fill="none" group-id="1" id="矩形备份-3" node-id="75" stroke="none" target-height="1024" target-width="1024" target-x="0" target-y="0"></path><g node-id="365"><g node-id="369"><g node-id="378"><path d="M 470.86 112.38 L 485.27 112.01 L 499.38 112.26 L 513.21 113.12 L 526.78 114.56 L 540.11 116.60 L 553.45 119.25 L 566.45 122.45 L 579.14 126.18 L 591.52 130.44 L 603.62 135.24 L 615.55 140.62 L 627.10 146.48 L 638.29 152.81 L 649.13 159.63 L 659.63 166.95 L 669.80 174.75 L 679.54 182.99 L 688.88 191.66 L 697.82 200.77 L 706.36 210.34 L 714.43 220.28 L 722.02 230.61 L 729.16 241.35 L 735.83 252.49 L 742.05 264.07 L 753.36 269.33 L 764.52 274.98 L 775.54 281.01 L 786.41 287.43 L 797.15 294.25 L 810.23 303.24 L 822.93 312.74 L 835.27 322.77 L 847.26 333.34 L 856.54 342.15 L 865.50 351.23 L 874.13 360.59 L 882.46 370.24 L 890.47 380.18 L 898.14 390.40 L 905.41 400.85 L 912.28 411.53 L 918.76 422.44 L 924.86 433.61 L 930.52 444.99 L 935.71 456.56 L 940.44 468.32 L 944.70 480.28 L 948.49 492.45 L 951.77 504.74 L 954.50 517.18 L 956.70 529.79 L 958.35 542.58 L 959.46 555.55 L 959.98 568.48 L 959.88 581.54 L 959.17 594.77 L 957.83 608.16 L 955.84 621.75 L 953.02 636.58 L 949.77 650.95 L 946.10 664.88 L 942.01 678.38 L 937.51 691.47 L 932.61 704.17 L 927.16 716.86 L 921.32 729.16 L 915.10 741.06 L 908.50 752.57 L 901.52 763.73 L 894.15 774.52 L 886.33 785.08 L 878.15 795.28 L 869.61 805.13 L 860.71 814.64 L 851.44 823.81 L 841.79 832.64 L 831.85 841.09 L 821.58 849.20 L 810.95 856.98 L 799.96 864.44 L 788.61 871.57 L 776.88 878.38 L 768.16 883.78 L 758.82 889.07 L 748.83 894.22 L 738.14 899.24 L 727.49 903.78 L 716.08 908.19 L 703.87 912.45 L 690.83 916.56 L 677.95 920.20 L 664.18 923.67 L 649.47 926.97 L 633.78 930.08 L 618.38 932.75 L 601.95 935.23 L 584.46 937.49 L 565.85 939.53 L 544.70 941.39 L 523.95 942.75 L 503.60 943.61 L 483.64 943.98 L 464.05 943.87 L 444.19 943.26 L 424.81 942.15 L 405.90 940.54 L 387.44 938.45 L 369.42 935.89 L 351.22 932.75 L 333.57 929.11 L 316.44 924.98 L 299.82 920.39 L 283.69 915.32 L 270.19 910.59 L 257.10 905.51 L 244.41 900.11 L 232.10 894.37 L 220.16 888.30 L 208.58 881.90 L 197.11 875.00 L 186.06 867.76 L 175.42 860.18 L 165.17 852.25 L 155.30 843.97 L 145.82 835.34 L 136.67 826.30 L 127.95 816.89 L 119.64 807.11 L 111.74 796.93 L 104.23 786.36 L 97.12 775.39 L 90.56 764.22 L 84.43 752.64 L 78.73 740.62 L 73.45 728.15 L 68.61 715.21 L 64.21 701.77 L 60.46 688.48 L 57.16 674.70 L 54.34 660.41 L 51.99 645.58 L 50.15 630.19 L 48.82 614.22 L 48.14 599.09 L 48.03 584.57 L 48.46 570.63 L 49.41 557.24 L 50.86 544.37 L 52.90 531.28 L 55.42 518.70 L 58.40 506.60 L 61.84 494.97 L 65.72 483.78 L 70.18 472.62 L 75.06 461.89 L 80.35 451.54 L 86.05 441.58 L 92.18 431.98 L 98.77 422.63 L 105.74 413.62 L 113.10 404.93 L 120.85 396.56 L 129.01 388.50 L 137.46 380.81 L 146.28 373.41 L 155.46 366.29 L 165.02 359.45 L 174.97 352.88 L 177.90 339.41 L 181.19 326.46 L 184.84 314.03 L 188.83 302.10 L 193.16 290.63 L 197.83 279.62 L 202.81 269.05 L 208.38 258.41 L 214.26 248.20 L 220.44 238.43 L 226.94 229.08 L 233.74 220.13 L 240.85 211.57 L 248.28 203.38 L 257.46 194.18 L 267.02 185.49 L 276.99 177.29 L 287.37 169.58 L 298.17 162.34 L 309.42 155.58 L 320.87 149.40 L 332.72 143.67 L 344.96 138.40 L 357.62 133.59 L 370.72 129.23 L 384.27 125.34 L 397.70 122.05 L 411.52 119.20 L 425.72 116.79 L 440.34 114.85 L 455.38 113.37 L 470.86 112.38 Z" fill="url(#radialGradient-1)" fill-rule="evenodd" group-id="1,2,6,15" node-id="250" stroke="none" target-height="831.9669" target-width="911.9464" target-x="48.031116" target-y="112.01346"></path></g><path d="M 470.86 112.38 L 485.27 112.01 L 499.38 112.26 L 513.21 113.12 L 526.78 114.56 L 540.11 116.60 L 553.45 119.25 L 566.45 122.45 L 579.14 126.18 L 591.52 130.44 L 603.62 135.24 L 615.55 140.62 L 627.10 146.48 L 638.29 152.81 L 649.13 159.63 L 659.63 166.95 L 669.80 174.75 L 679.54 182.99 L 688.88 191.66 L 697.82 200.77 L 706.36 210.34 L 714.43 220.28 L 722.02 230.61 L 729.16 241.35 L 735.83 252.49 L 742.05 264.07 L 753.36 269.33 L 764.52 274.98 L 775.54 281.01 L 786.41 287.43 L 797.15 294.25 L 810.23 303.24 L 822.93 312.74 L 835.27 322.77 L 847.26 333.34 L 856.54 342.15 L 865.50 351.23 L 874.13 360.59 L 882.46 370.24 L 890.47 380.18 L 898.14 390.40 L 905.41 400.85 L 912.28 411.53 L 918.76 422.44 L 924.86 433.61 L 930.52 444.99 L 935.71 456.56 L 940.44 468.32 L 944.70 480.28 L 948.49 492.45 L 951.77 504.74 L 954.50 517.18 L 956.70 529.79 L 958.35 542.58 L 959.46 555.55 L 959.98 568.48 L 959.88 581.54 L 959.17 594.77 L 957.83 608.16 L 955.84 621.75 L 953.02 636.58 L 949.77 650.95 L 946.10 664.88 L 942.01 678.38 L 937.51 691.47 L 932.61 704.17 L 927.16 716.86 L 921.32 729.16 L 915.10 741.06 L 908.50 752.57 L 901.52 763.73 L 894.15 774.52 L 886.33 785.08 L 878.15 795.28 L 869.61 805.13 L 860.71 814.64 L 851.44 823.81 L 841.79 832.64 L 831.85 841.09 L 821.58 849.20 L 810.95 856.98 L 799.96 864.44 L 788.61 871.57 L 776.88 878.38 L 768.16 883.78 L 758.82 889.07 L 748.83 894.22 L 738.14 899.24 L 727.49 903.78 L 716.08 908.19 L 703.87 912.45 L 690.83 916.56 L 677.95 920.20 L 664.18 923.67 L 649.47 926.97 L 633.78 930.08 L 618.38 932.75 L 601.95 935.23 L 584.46 937.49 L 565.85 939.53 L 544.70 941.39 L 523.95 942.75 L 503.60 943.61 L 483.64 943.98 L 464.05 943.87 L 444.19 943.26 L 424.81 942.15 L 405.90 940.54 L 387.44 938.45 L 369.42 935.89 L 351.22 932.75 L 333.57 929.11 L 316.44 924.98 L 299.82 920.39 L 283.69 915.32 L 270.19 910.59 L 257.10 905.51 L 244.41 900.11 L 232.10 894.37 L 220.16 888.30 L 208.58 881.90 L 197.11 875.00 L 186.06 867.76 L 175.42 860.18 L 165.17 852.25 L 155.30 843.97 L 145.82 835.34 L 136.67 826.30 L 127.95 816.89 L 119.64 807.11 L 111.74 796.93 L 104.23 786.36 L 97.12 775.39 L 90.56 764.22 L 84.43 752.64 L 78.73 740.62 L 73.45 728.15 L 68.61 715.21 L 64.21 701.77 L 60.46 688.48 L 57.16 674.70 L 54.34 660.41 L 51.99 645.58 L 50.15 630.19 L 48.82 614.22 L 48.14 599.09 L 48.03 584.57 L 48.46 570.63 L 49.41 557.24 L 50.86 544.37 L 52.90 531.28 L 55.42 518.70 L 58.40 506.60 L 61.84 494.97 L 65.72 483.78 L 70.18 472.62 L 75.06 461.89 L 80.35 451.54 L 86.05 441.58 L 92.18 431.98 L 98.77 422.63 L 105.74 413.62 L 113.10 404.93 L 120.85 396.56 L 129.01 388.50 L 137.46 380.81 L 146.28 373.41 L 155.46 366.29 L 165.02 359.45 L 174.97 352.88 L 177.90 339.41 L 181.19 326.46 L 184.84 314.03 L 188.83 302.10 L 193.16 290.63 L 197.83 279.62 L 202.81 269.05 L 208.38 258.41 L 214.26 248.20 L 220.44 238.43 L 226.94 229.08 L 233.74 220.13 L 240.85 211.57 L 248.28 203.38 L 257.46 194.18 L 267.02 185.49 L 276.99 177.29 L 287.37 169.58 L 298.17 162.34 L 309.42 155.58 L 320.87 149.40 L 332.72 143.67 L 344.96 138.40 L 357.62 133.59 L 370.72 129.23 L 384.27 125.34 L 397.70 122.05 L 411.52 119.20 L 425.72 116.79 L 440.34 114.85 L 455.38 113.37 L 470.86 112.38 Z" fill="#000000" fill-rule="evenodd" filter="url(#filter-3)" group-id="1,2,6,16" node-id="255" stroke="none" target-height="831.9669" target-width="911.9464" target-x="48.031116" target-y="112.01346"></path></g><g node-id="370"><path d="M 832.00 576.00 L 831.72 578.96 L 830.94 581.90 L 829.63 584.84 L 827.72 587.83 L 825.14 590.89 L 821.67 594.16 L 817.36 597.48 L 812.11 600.85 L 805.79 604.26 L 799.54 607.16 L 792.51 610.03 L 784.60 612.84 L 775.76 615.60 L 764.08 618.74 L 751.16 621.66 L 736.91 624.35 L 722.61 626.57 L 707.34 628.46 L 691.04 630.00 L 674.74 631.09 L 657.73 631.76 L 640.00 632.00 L 622.27 631.76 L 605.26 631.09 L 588.96 630.00 L 572.66 628.46 L 557.39 626.57 L 543.09 624.35 L 528.84 621.66 L 515.92 618.74 L 504.24 615.60 L 495.40 612.84 L 487.49 610.03 L 480.46 607.16 L 474.21 604.26 L 467.89 600.85 L 462.64 597.48 L 458.33 594.16 L 454.86 590.89 L 452.28 587.83 L 450.37 584.84 L 449.06 581.90 L 448.28 578.96 L 448.00 576.00 L 448.28 573.04 L 449.06 570.10 L 450.37 567.16 L 452.28 564.17 L 454.86 561.11 L 458.33 557.84 L 462.64 554.52 L 467.89 551.15 L 474.21 547.74 L 480.46 544.84 L 487.49 541.97 L 495.40 539.16 L 504.24 536.40 L 515.92 533.26 L 528.84 530.34 L 543.09 527.65 L 557.39 525.43 L 572.66 523.54 L 588.96 522.00 L 605.26 520.91 L 622.27 520.24 L 640.00 520.00 L 657.73 520.24 L 674.74 520.91 L 691.04 522.00 L 707.34 523.54 L 722.61 525.43 L 736.91 527.65 L 751.16 530.34 L 764.08 533.26 L 775.76 536.40 L 784.60 539.16 L 792.51 541.97 L 799.54 544.84 L 805.79 547.74 L 812.11 551.15 L 817.36 554.52 L 821.67 557.84 L 825.14 561.11 L 827.72 564.17 L 829.63 567.16 L 830.94 570.10 L 831.72 573.04 L 832.00 576.00 Z" fill="#ff5ea4" fill-opacity="0.8" fill-rule="evenodd" filter="url(#filter-4)" group-id="1,2,7" id="椭圆形" node-id="80" stroke="none" target-height="112" target-width="384" target-x="448" target-y="520"></path></g><path d="M 544.00 576.00 L 543.73 578.97 L 542.98 581.91 L 541.71 584.86 L 539.89 587.85 L 537.43 590.89 L 534.09 594.17 L 529.96 597.50 L 524.93 600.86 L 518.88 604.26 L 512.89 607.17 L 506.14 610.03 L 498.57 612.84 L 490.11 615.60 L 478.91 618.74 L 466.52 621.67 L 452.87 624.35 L 439.17 626.57 L 424.53 628.46 L 408.91 630.00 L 393.29 631.09 L 376.99 631.76 L 360.00 632.00 L 343.01 631.76 L 326.71 631.09 L 311.09 630.00 L 295.47 628.46 L 280.83 626.57 L 267.13 624.35 L 253.48 621.67 L 241.09 618.74 L 229.89 615.60 L 221.43 612.84 L 213.86 610.03 L 207.11 607.17 L 201.12 604.26 L 195.07 600.86 L 190.04 597.50 L 185.91 594.17 L 182.57 590.89 L 180.11 587.85 L 178.29 584.86 L 177.02 581.91 L 176.27 578.97 L 176.00 576.00 L 176.27 573.03 L 177.02 570.09 L 178.29 567.14 L 180.11 564.15 L 182.57 561.11 L 185.91 557.83 L 190.04 554.50 L 195.07 551.14 L 201.12 547.74 L 207.11 544.83 L 213.86 541.97 L 221.43 539.16 L 229.89 536.40 L 241.09 533.26 L 253.48 530.33 L 267.13 527.65 L 280.83 525.43 L 295.47 523.54 L 311.09 522.00 L 326.71 520.91 L 343.01 520.24 L 360.00 520.00 L 376.99 520.24 L 393.29 520.91 L 408.91 522.00 L 424.53 523.54 L 439.17 525.43 L 452.87 527.65 L 466.52 530.33 L 478.91 533.26 L 490.11 536.40 L 498.57 539.16 L 506.14 541.97 L 512.89 544.83 L 518.88 547.74 L 524.93 551.14 L 529.96 554.50 L 534.09 557.83 L 537.43 561.11 L 539.89 564.15 L 541.71 567.14 L 542.98 570.09 L 543.73 573.03 L 544.00 576.00 Z" fill="#ff5ea4" fill-opacity="0.8" fill-rule="evenodd" filter="url(#filter-5)" group-id="1,2,8" id="椭圆形备份-6" node-id="81" stroke="none" target-height="112" target-width="368" target-x="176" target-y="520"></path></g><g node-id="366"><g node-id="372"><g node-id="380"><path d="M 304.00 568.38 L 321.64 568.18 L 337.58 567.50 L 351.94 566.40 L 362.84 565.11 L 372.75 563.47 L 381.75 561.50 L 389.89 559.23 L 396.49 556.94 L 402.51 554.36 L 407.99 551.52 L 412.96 548.41 L 417.47 545.05 L 421.70 541.25 L 425.48 537.07 L 428.83 532.50 L 431.77 527.50 L 434.30 522.05 L 436.25 516.56 L 437.83 510.51 L 439.00 503.83 L 439.74 496.48 L 440.00 488.38 L 439.77 481.67 L 439.14 475.47 L 438.15 469.74 L 436.81 464.44 L 435.14 459.54 L 433.02 454.66 L 430.59 450.12 L 427.86 445.89 L 424.81 441.96 L 421.43 438.31 L 416.83 434.13 L 411.77 430.30 L 406.23 426.80 L 400.17 423.63 L 393.96 420.94 L 387.33 418.50 L 380.23 416.34 L 372.64 414.46 L 362.50 412.48 L 351.68 410.90 L 340.15 409.73 L 328.60 408.97 L 316.56 408.52 L 304.00 408.38 L 291.44 408.52 L 279.40 408.97 L 267.85 409.73 L 256.32 410.90 L 245.50 412.48 L 235.36 414.46 L 227.77 416.34 L 220.67 418.50 L 214.04 420.94 L 207.83 423.63 L 201.77 426.80 L 196.23 430.30 L 191.17 434.13 L 186.57 438.31 L 183.19 441.96 L 180.14 445.89 L 177.41 450.12 L 174.98 454.66 L 172.86 459.54 L 171.19 464.44 L 169.85 469.74 L 168.86 475.47 L 168.23 481.67 L 168.00 488.38 L 168.26 496.48 L 169.00 503.83 L 170.17 510.51 L 171.75 516.56 L 173.70 522.05 L 176.23 527.50 L 179.17 532.50 L 182.52 537.07 L 186.30 541.25 L 190.53 545.05 L 195.04 548.41 L 200.01 551.52 L 205.49 554.36 L 211.51 556.94 L 218.11 559.23 L 226.25 561.50 L 235.25 563.47 L 245.16 565.11 L 256.06 566.40 L 270.42 567.50 L 286.36 568.18 L 304.00 568.38 Z" fill="#000000" fill-rule="evenodd" filter="url(#filter-8)" group-id="1,3,9,17" node-id="272" stroke="none" target-height="160.00003" target-width="272" target-x="168" target-y="408.38364"></path></g><g node-id="381"><path d="M 304.00 568.38 L 321.64 568.18 L 337.58 567.50 L 351.94 566.40 L 362.84 565.11 L 372.75 563.47 L 381.75 561.50 L 389.89 559.23 L 396.49 556.94 L 402.51 554.36 L 407.99 551.52 L 412.96 548.41 L 417.47 545.05 L 421.70 541.25 L 425.48 537.07 L 428.83 532.50 L 431.77 527.50 L 434.30 522.05 L 436.25 516.56 L 437.83 510.51 L 439.00 503.83 L 439.74 496.48 L 440.00 488.38 L 439.77 481.67 L 439.14 475.47 L 438.15 469.74 L 436.81 464.44 L 435.14 459.54 L 433.02 454.66 L 430.59 450.12 L 427.86 445.89 L 424.81 441.96 L 421.43 438.31 L 416.83 434.13 L 411.77 430.30 L 406.23 426.80 L 400.17 423.63 L 393.96 420.94 L 387.33 418.50 L 380.23 416.34 L 372.64 414.46 L 362.50 412.48 L 351.68 410.90 L 340.15 409.73 L 328.60 408.97 L 316.56 408.52 L 304.00 408.38 L 291.44 408.52 L 279.40 408.97 L 267.85 409.73 L 256.32 410.90 L 245.50 412.48 L 235.36 414.46 L 227.77 416.34 L 220.67 418.50 L 214.04 420.94 L 207.83 423.63 L 201.77 426.80 L 196.23 430.30 L 191.17 434.13 L 186.57 438.31 L 183.19 441.96 L 180.14 445.89 L 177.41 450.12 L 174.98 454.66 L 172.86 459.54 L 171.19 464.44 L 169.85 469.74 L 168.86 475.47 L 168.23 481.67 L 168.00 488.38 L 168.26 496.48 L 169.00 503.83 L 170.17 510.51 L 171.75 516.56 L 173.70 522.05 L 176.23 527.50 L 179.17 532.50 L 182.52 537.07 L 186.30 541.25 L 190.53 545.05 L 195.04 548.41 L 200.01 551.52 L 205.49 554.36 L 211.51 556.94 L 218.11 559.23 L 226.25 561.50 L 235.25 563.47 L 245.16 565.11 L 256.06 566.40 L 270.42 567.50 L 286.36 568.18 L 304.00 568.38 Z" fill="url(#linearGradient-6)" fill-rule="evenodd" group-id="1,3,9,18" node-id="277" stroke="none" target-height="160.00003" target-width="272" target-x="168" target-y="408.38364"></path></g><path d="M 304.00 568.38 L 321.64 568.18 L 337.58 567.50 L 351.94 566.40 L 362.84 565.11 L 372.75 563.47 L 381.75 561.50 L 389.89 559.23 L 396.49 556.94 L 402.51 554.36 L 407.99 551.52 L 412.96 548.41 L 417.47 545.05 L 421.70 541.25 L 425.48 537.07 L 428.83 532.50 L 431.77 527.50 L 434.30 522.05 L 436.25 516.56 L 437.83 510.51 L 439.00 503.83 L 439.74 496.48 L 440.00 488.38 L 439.77 481.67 L 439.14 475.47 L 438.15 469.74 L 436.81 464.44 L 435.14 459.54 L 433.02 454.66 L 430.59 450.12 L 427.86 445.89 L 424.81 441.96 L 421.43 438.31 L 416.83 434.13 L 411.77 430.30 L 406.23 426.80 L 400.17 423.63 L 393.96 420.94 L 387.33 418.50 L 380.23 416.34 L 372.64 414.46 L 362.50 412.48 L 351.68 410.90 L 340.15 409.73 L 328.60 408.97 L 316.56 408.52 L 304.00 408.38 L 291.44 408.52 L 279.40 408.97 L 267.85 409.73 L 256.32 410.90 L 245.50 412.48 L 235.36 414.46 L 227.77 416.34 L 220.67 418.50 L 214.04 420.94 L 207.83 423.63 L 201.77 426.80 L 196.23 430.30 L 191.17 434.13 L 186.57 438.31 L 183.19 441.96 L 180.14 445.89 L 177.41 450.12 L 174.98 454.66 L 172.86 459.54 L 171.19 464.44 L 169.85 469.74 L 168.86 475.47 L 168.23 481.67 L 168.00 488.38 L 168.26 496.48 L 169.00 503.83 L 170.17 510.51 L 171.75 516.56 L 173.70 522.05 L 176.23 527.50 L 179.17 532.50 L 182.52 537.07 L 186.30 541.25 L 190.53 545.05 L 195.04 548.41 L 200.01 551.52 L 205.49 554.36 L 211.51 556.94 L 218.11 559.23 L 226.25 561.50 L 235.25 563.47 L 245.16 565.11 L 256.06 566.40 L 270.42 567.50 L 286.36 568.18 L 304.00 568.38 Z" fill="#000000" fill-rule="evenodd" filter="url(#filter-9)" group-id="1,3,9,19" node-id="282" stroke="none" target-height="160.00003" target-width="272" target-x="168" target-y="408.38364"></path></g><g node-id="373"><g node-id="383"><g node-id="392"><path d="M 366.00 413.12 L 358.53 411.76 L 349.28 410.55 L 337.97 409.54 L 324.31 408.80 L 308.00 408.38 L 285.10 409.01 L 282.92 414.48 L 281.32 420.24 L 280.60 424.17 L 280.15 428.22 L 280.00 432.38 L 280.20 437.03 L 280.74 441.52 L 281.63 445.87 L 282.85 450.08 L 285.00 455.54 L 287.65 460.65 L 290.80 465.46 L 294.44 469.91 L 298.47 473.95 L 302.93 477.58 L 307.73 480.74 L 312.84 483.38 L 318.30 485.53 L 322.52 486.75 L 326.86 487.64 L 331.35 488.19 L 336.00 488.38 L 340.65 488.19 L 345.14 487.64 L 349.48 486.75 L 353.70 485.53 L 359.16 483.38 L 364.27 480.74 L 369.07 477.58 L 373.53 473.95 L 377.56 469.91 L 381.20 465.46 L 384.35 460.65 L 387.00 455.54 L 389.15 450.08 L 390.37 445.87 L 391.26 441.52 L 391.80 437.03 L 392.00 432.38 L 391.73 426.19 L 391.36 423.11 L 390.83 420.18 L 388.33 419.04 L 383.90 417.53 L 376.76 415.59 L 366.00 413.12 Z" fill="#930027" fill-rule="evenodd" group-id="1,3,10,20,29" node-id="290" stroke="none" target-height="80" target-width="112" target-x="280" target-y="408.38364"></path></g><path d="M 366.00 413.12 L 358.53 411.76 L 349.28 410.55 L 337.97 409.54 L 324.31 408.80 L 308.00 408.38 L 285.10 409.01 L 282.92 414.48 L 281.32 420.24 L 280.60 424.17 L 280.15 428.22 L 280.00 432.38 L 280.20 437.03 L 280.74 441.52 L 281.63 445.87 L 282.85 450.08 L 285.00 455.54 L 287.65 460.65 L 290.80 465.46 L 294.44 469.91 L 298.47 473.95 L 302.93 477.58 L 307.73 480.74 L 312.84 483.38 L 318.30 485.53 L 322.52 486.75 L 326.86 487.64 L 331.35 488.19 L 336.00 488.38 L 340.65 488.19 L 345.14 487.64 L 349.48 486.75 L 353.70 485.53 L 359.16 483.38 L 364.27 480.74 L 369.07 477.58 L 373.53 473.95 L 377.56 469.91 L 381.20 465.46 L 384.35 460.65 L 387.00 455.54 L 389.15 450.08 L 390.37 445.87 L 391.26 441.52 L 391.80 437.03 L 392.00 432.38 L 391.73 426.19 L 391.36 423.11 L 390.83 420.18 L 388.33 419.04 L 383.90 417.53 L 376.76 415.59 L 366.00 413.12 Z" fill="#000000" fill-rule="evenodd" filter="url(#filter-11)" group-id="1,3,10,20,30" node-id="295" stroke="none" target-height="80" target-width="112" target-x="280" target-y="408.38364"></path></g><path d="M 336.00 408.89 L 326.91 408.48 L 317.73 408.48 L 308.45 408.89 L 308.10 412.79 L 308.00 416.38 L 308.27 420.23 L 309.00 423.85 L 310.20 427.28 L 311.83 430.53 L 313.83 433.49 L 316.20 436.18 L 318.89 438.55 L 321.85 440.55 L 325.10 442.18 L 328.53 443.38 L 332.15 444.12 L 336.00 444.38 L 339.85 444.12 L 343.47 443.38 L 346.90 442.18 L 350.15 440.55 L 353.11 438.55 L 355.80 436.18 L 358.17 433.49 L 360.17 430.53 L 361.80 427.28 L 363.00 423.85 L 363.73 420.23 L 364.00 416.38 L 363.71 412.57 L 354.30 410.92 L 345.06 409.69 L 336.00 408.89 Z" fill="#301502" fill-rule="evenodd" group-id="1,3,10" id="路径" node-id="91" stroke="none" target-height="35.90149" target-width="56" target-x="308" target-y="408.48215"></path><path d="M 336.00 430.38 L 335.76 432.94 L 335.12 435.28 L 334.09 437.45 L 332.70 439.41 L 331.03 441.08 L 329.07 442.47 L 326.90 443.51 L 324.56 444.15 L 322.00 444.38 L 319.44 444.15 L 317.10 443.51 L 314.93 442.47 L 312.97 441.08 L 311.30 439.41 L 309.91 437.45 L 308.88 435.28 L 308.24 432.94 L 308.00 430.38 L 308.24 427.83 L 308.88 425.49 L 309.91 423.32 L 311.30 421.35 L 312.97 419.69 L 314.93 418.30 L 317.10 417.26 L 319.44 416.62 L 322.00 416.38 L 324.56 416.62 L 326.90 417.26 L 329.07 418.30 L 331.03 419.69 L 332.70 421.35 L 334.09 423.32 L 335.12 425.49 L 335.76 427.83 L 336.00 430.38 Z" fill="#ffffff" fill-rule="evenodd" group-id="1,3,10" id="椭圆形备份-5" node-id="92" stroke="none" target-height="28" target-width="28" target-x="308" target-y="416.38364"></path></g></g><g node-id="367"><g node-id="374"><g node-id="384"><path d="M 656.00 568.38 L 668.56 568.25 L 680.60 567.80 L 692.15 567.04 L 703.68 565.87 L 714.50 564.29 L 724.64 562.31 L 732.23 560.43 L 739.33 558.27 L 745.96 555.83 L 752.17 553.13 L 758.23 549.97 L 763.77 546.47 L 768.83 542.63 L 773.43 538.46 L 776.81 534.81 L 779.86 530.88 L 782.59 526.65 L 785.02 522.11 L 787.14 517.23 L 788.81 512.32 L 790.15 507.03 L 791.14 501.30 L 791.77 495.09 L 792.00 488.38 L 791.77 481.67 L 791.14 475.47 L 790.15 469.74 L 788.81 464.44 L 787.14 459.54 L 785.02 454.66 L 782.59 450.12 L 779.86 445.89 L 776.81 441.96 L 773.43 438.31 L 768.83 434.13 L 763.77 430.30 L 758.23 426.80 L 752.17 423.63 L 745.96 420.94 L 739.33 418.50 L 732.23 416.34 L 724.64 414.46 L 714.50 412.48 L 703.68 410.90 L 692.15 409.73 L 680.60 408.97 L 668.56 408.52 L 656.00 408.38 L 643.44 408.52 L 631.40 408.97 L 619.85 409.73 L 608.32 410.90 L 597.50 412.48 L 587.36 414.46 L 579.77 416.34 L 572.67 418.50 L 566.04 420.94 L 559.83 423.63 L 553.77 426.80 L 548.23 430.30 L 543.17 434.13 L 538.57 438.31 L 535.19 441.96 L 532.14 445.89 L 529.41 450.12 L 526.98 454.66 L 524.86 459.54 L 523.19 464.44 L 521.85 469.74 L 520.86 475.47 L 520.23 481.67 L 520.00 488.38 L 520.23 495.09 L 520.86 501.30 L 521.85 507.03 L 523.19 512.32 L 524.86 517.23 L 526.98 522.11 L 529.41 526.65 L 532.14 530.88 L 535.19 534.81 L 538.57 538.46 L 543.17 542.63 L 548.23 546.47 L 553.77 549.97 L 559.83 553.13 L 566.04 555.83 L 572.67 558.27 L 579.77 560.43 L 587.36 562.31 L 597.50 564.29 L 608.32 565.87 L 619.85 567.04 L 631.40 567.80 L 643.44 568.25 L 656.00 568.38 Z" fill="#000000" fill-rule="evenodd" filter="url(#filter-13)" group-id="1,4,11,21" node-id="307" stroke="none" target-height="160.00003" target-width="272" target-x="520" target-y="408.38364"></path></g><g node-id="385"><path d="M 656.00 568.38 L 668.56 568.25 L 680.60 567.80 L 692.15 567.04 L 703.68 565.87 L 714.50 564.29 L 724.64 562.31 L 732.23 560.43 L 739.33 558.27 L 745.96 555.83 L 752.17 553.13 L 758.23 549.97 L 763.77 546.47 L 768.83 542.63 L 773.43 538.46 L 776.81 534.81 L 779.86 530.88 L 782.59 526.65 L 785.02 522.11 L 787.14 517.23 L 788.81 512.32 L 790.15 507.03 L 791.14 501.30 L 791.77 495.09 L 792.00 488.38 L 791.77 481.67 L 791.14 475.47 L 790.15 469.74 L 788.81 464.44 L 787.14 459.54 L 785.02 454.66 L 782.59 450.12 L 779.86 445.89 L 776.81 441.96 L 773.43 438.31 L 768.83 434.13 L 763.77 430.30 L 758.23 426.80 L 752.17 423.63 L 745.96 420.94 L 739.33 418.50 L 732.23 416.34 L 724.64 414.46 L 714.50 412.48 L 703.68 410.90 L 692.15 409.73 L 680.60 408.97 L 668.56 408.52 L 656.00 408.38 L 643.44 408.52 L 631.40 408.97 L 619.85 409.73 L 608.32 410.90 L 597.50 412.48 L 587.36 414.46 L 579.77 416.34 L 572.67 418.50 L 566.04 420.94 L 559.83 423.63 L 553.77 426.80 L 548.23 430.30 L 543.17 434.13 L 538.57 438.31 L 535.19 441.96 L 532.14 445.89 L 529.41 450.12 L 526.98 454.66 L 524.86 459.54 L 523.19 464.44 L 521.85 469.74 L 520.86 475.47 L 520.23 481.67 L 520.00 488.38 L 520.23 495.09 L 520.86 501.30 L 521.85 507.03 L 523.19 512.32 L 524.86 517.23 L 526.98 522.11 L 529.41 526.65 L 532.14 530.88 L 535.19 534.81 L 538.57 538.46 L 543.17 542.63 L 548.23 546.47 L 553.77 549.97 L 559.83 553.13 L 566.04 555.83 L 572.67 558.27 L 579.77 560.43 L 587.36 562.31 L 597.50 564.29 L 608.32 565.87 L 619.85 567.04 L 631.40 567.80 L 643.44 568.25 L 656.00 568.38 Z" fill="url(#linearGradient-6)" fill-rule="evenodd" group-id="1,4,11,22" node-id="312" stroke="none" target-height="160.00003" target-width="272" target-x="520" target-y="408.38364"></path></g><path d="M 656.00 568.38 L 668.56 568.25 L 680.60 567.80 L 692.15 567.04 L 703.68 565.87 L 714.50 564.29 L 724.64 562.31 L 732.23 560.43 L 739.33 558.27 L 745.96 555.83 L 752.17 553.13 L 758.23 549.97 L 763.77 546.47 L 768.83 542.63 L 773.43 538.46 L 776.81 534.81 L 779.86 530.88 L 782.59 526.65 L 785.02 522.11 L 787.14 517.23 L 788.81 512.32 L 790.15 507.03 L 791.14 501.30 L 791.77 495.09 L 792.00 488.38 L 791.77 481.67 L 791.14 475.47 L 790.15 469.74 L 788.81 464.44 L 787.14 459.54 L 785.02 454.66 L 782.59 450.12 L 779.86 445.89 L 776.81 441.96 L 773.43 438.31 L 768.83 434.13 L 763.77 430.30 L 758.23 426.80 L 752.17 423.63 L 745.96 420.94 L 739.33 418.50 L 732.23 416.34 L 724.64 414.46 L 714.50 412.48 L 703.68 410.90 L 692.15 409.73 L 680.60 408.97 L 668.56 408.52 L 656.00 408.38 L 643.44 408.52 L 631.40 408.97 L 619.85 409.73 L 608.32 410.90 L 597.50 412.48 L 587.36 414.46 L 579.77 416.34 L 572.67 418.50 L 566.04 420.94 L 559.83 423.63 L 553.77 426.80 L 548.23 430.30 L 543.17 434.13 L 538.57 438.31 L 535.19 441.96 L 532.14 445.89 L 529.41 450.12 L 526.98 454.66 L 524.86 459.54 L 523.19 464.44 L 521.85 469.74 L 520.86 475.47 L 520.23 481.67 L 520.00 488.38 L 520.23 495.09 L 520.86 501.30 L 521.85 507.03 L 523.19 512.32 L 524.86 517.23 L 526.98 522.11 L 529.41 526.65 L 532.14 530.88 L 535.19 534.81 L 538.57 538.46 L 543.17 542.63 L 548.23 546.47 L 553.77 549.97 L 559.83 553.13 L 566.04 555.83 L 572.67 558.27 L 579.77 560.43 L 587.36 562.31 L 597.50 564.29 L 608.32 565.87 L 619.85 567.04 L 631.40 567.80 L 643.44 568.25 L 656.00 568.38 Z" fill="#000000" fill-rule="evenodd" filter="url(#filter-14)" group-id="1,4,11,23" node-id="317" stroke="none" target-height="160.00003" target-width="272" target-x="520" target-y="408.38364"></path></g><g node-id="375"><g node-id="387"><g node-id="394"><path d="M 718.00 413.12 L 710.53 411.76 L 701.28 410.55 L 689.97 409.54 L 676.31 408.80 L 660.00 408.38 L 637.10 409.01 L 634.92 414.48 L 633.32 420.24 L 632.60 424.17 L 632.15 428.22 L 632.00 432.38 L 632.20 437.03 L 632.74 441.52 L 633.63 445.87 L 634.85 450.08 L 637.00 455.54 L 639.65 460.65 L 642.80 465.46 L 646.44 469.91 L 650.47 473.95 L 654.93 477.58 L 659.73 480.74 L 664.84 483.38 L 670.30 485.53 L 674.52 486.75 L 678.86 487.64 L 683.35 488.19 L 688.00 488.38 L 692.65 488.19 L 697.14 487.64 L 701.48 486.75 L 705.70 485.53 L 711.16 483.38 L 716.27 480.74 L 721.07 477.58 L 725.53 473.95 L 729.56 469.91 L 733.20 465.46 L 736.35 460.65 L 739.00 455.54 L 741.15 450.08 L 742.37 445.87 L 743.26 441.52 L 743.80 437.03 L 744.00 432.38 L 743.73 426.19 L 743.36 423.11 L 742.83 420.18 L 740.33 419.04 L 735.90 417.53 L 728.76 415.59 L 718.00 413.12 Z" fill="#930027" fill-rule="evenodd" group-id="1,4,12,24,31" node-id="325" stroke="none" target-height="80" target-width="112" target-x="632" target-y="408.38364"></path></g><path d="M 718.00 413.12 L 710.53 411.76 L 701.28 410.55 L 689.97 409.54 L 676.31 408.80 L 660.00 408.38 L 637.10 409.01 L 634.92 414.48 L 633.32 420.24 L 632.60 424.17 L 632.15 428.22 L 632.00 432.38 L 632.20 437.03 L 632.74 441.52 L 633.63 445.87 L 634.85 450.08 L 637.00 455.54 L 639.65 460.65 L 642.80 465.46 L 646.44 469.91 L 650.47 473.95 L 654.93 477.58 L 659.73 480.74 L 664.84 483.38 L 670.30 485.53 L 674.52 486.75 L 678.86 487.64 L 683.35 488.19 L 688.00 488.38 L 692.65 488.19 L 697.14 487.64 L 701.48 486.75 L 705.70 485.53 L 711.16 483.38 L 716.27 480.74 L 721.07 477.58 L 725.53 473.95 L 729.56 469.91 L 733.20 465.46 L 736.35 460.65 L 739.00 455.54 L 741.15 450.08 L 742.37 445.87 L 743.26 441.52 L 743.80 437.03 L 744.00 432.38 L 743.73 426.19 L 743.36 423.11 L 742.83 420.18 L 740.33 419.04 L 735.90 417.53 L 728.76 415.59 L 718.00 413.12 Z" fill="#000000" fill-rule="evenodd" filter="url(#filter-16)" group-id="1,4,12,24,32" node-id="330" stroke="none" target-height="80" target-width="112" target-x="632" target-y="408.38364"></path></g><path d="M 688.00 408.89 L 678.91 408.48 L 669.73 408.48 L 660.45 408.89 L 660.10 412.79 L 660.00 416.38 L 660.27 420.23 L 661.00 423.85 L 662.20 427.28 L 663.83 430.53 L 665.83 433.49 L 668.20 436.18 L 670.89 438.55 L 673.85 440.55 L 677.10 442.18 L 680.53 443.38 L 684.15 444.12 L 688.00 444.38 L 691.85 444.12 L 695.47 443.38 L 698.90 442.18 L 702.15 440.55 L 705.11 438.55 L 707.80 436.18 L 710.17 433.49 L 712.17 430.53 L 713.80 427.28 L 715.00 423.85 L 715.73 420.23 L 716.00 416.38 L 715.71 412.57 L 706.30 410.92 L 697.06 409.69 L 688.00 408.89 Z" fill="#301502" fill-rule="evenodd" group-id="1,4,12" id="路径" node-id="102" stroke="none" target-height="35.90149" target-width="56" target-x="660" target-y="408.48215"></path><path d="M 688.00 430.38 L 687.76 432.94 L 687.12 435.28 L 686.09 437.45 L 684.70 439.41 L 683.03 441.08 L 681.07 442.47 L 678.90 443.51 L 676.56 444.15 L 674.00 444.38 L 671.44 444.15 L 669.10 443.51 L 666.93 442.47 L 664.97 441.08 L 663.30 439.41 L 661.91 437.45 L 660.88 435.28 L 660.24 432.94 L 660.00 430.38 L 660.24 427.83 L 660.88 425.49 L 661.91 423.32 L 663.30 421.35 L 664.97 419.69 L 666.93 418.30 L 669.10 417.26 L 671.44 416.62 L 674.00 416.38 L 676.56 416.62 L 678.90 417.26 L 681.07 418.30 L 683.03 419.69 L 684.70 421.35 L 686.09 423.32 L 687.12 425.49 L 687.76 427.83 L 688.00 430.38 Z" fill="#ffffff" fill-rule="evenodd" group-id="1,4,12" id="椭圆形备份-5" node-id="103" stroke="none" target-height="28" target-width="28" target-x="660" target-y="416.38364"></path></g></g><path d="M 338.46 286.09 C 347.30 286.09 354.46 293.26 354.46 302.09 C 354.46 362.00 314.44 389.08 244.14 380.47 C 235.37 379.40 229.13 371.41 230.21 362.64 C 231.28 353.87 239.26 347.63 248.04 348.71 C 300.91 355.19 322.46 340.60 322.46 302.09 C 322.46 293.26 329.63 286.09 338.46 286.09 Z" fill="#a05400" fill-rule="nonzero" group-id="1" id="路径-22" node-id="104" stroke="none" target-height="102.98996" target-width="125.33182" target-x="229.13312" target-y="286.0944"></path><path d="M 562.27 252.44 C 571.11 252.70 578.05 260.07 577.79 268.90 C 576.20 323.14 604.26 342.52 672.55 328.24 L 681.12 326.32 C 685.50 325.28 690.03 324.11 694.72 322.82 C 703.24 320.47 712.05 325.47 714.40 333.99 C 716.75 342.51 711.75 351.32 703.24 353.67 C 600.49 382.02 543.30 352.92 545.81 267.96 C 546.07 259.13 553.44 252.18 562.27 252.44 Z" fill="#a05400" fill-rule="nonzero" group-id="1" id="路径-23" node-id="105" stroke="none" target-height="129.84184" target-width="173.45099" target-x="543.3031" target-y="252.17696"></path><path d="M 288.59 754.97 L 288.04 759.99 L 288.12 764.17 L 288.73 767.63 L 289.89 770.95 L 291.45 773.78 L 293.41 776.19 L 295.74 778.29 L 298.36 780.14 L 301.30 781.73 L 305.98 783.71 L 311.03 785.37 L 321.26 788.18 L 329.80 790.33 L 339.97 792.45 L 351.99 794.51 L 364.02 796.17 L 377.50 797.61 L 392.53 798.80 L 407.54 799.57 L 423.76 799.95 L 441.28 799.92 L 458.74 799.41 L 477.19 798.37 L 496.67 796.75 L 511.14 795.19 L 526.03 793.26 L 541.35 790.92 L 557.11 788.18 L 568.14 785.88 L 578.69 783.27 L 588.76 780.38 L 598.40 777.19 L 611.14 772.39 L 623.03 767.29 L 634.14 761.91 L 645.02 756.04 L 655.05 750.13 L 664.26 744.17 L 673.28 737.85 L 681.41 731.73 L 688.71 725.82 L 699.04 716.75 L 707.39 708.71 L 714.84 700.89 L 720.25 694.70 L 724.78 689.02 L 727.21 685.62 L 730.48 680.32 L 732.94 675.37 L 734.69 670.73 L 735.59 667.11 L 735.97 663.68 L 735.87 660.40 L 735.30 657.22 L 734.24 654.22 L 732.59 651.25 L 730.28 648.30 L 727.21 645.34 L 724.63 643.44 L 722.11 642.01 L 719.63 641.00 L 717.17 640.38 L 713.77 640.02 L 710.43 640.16 L 707.12 640.80 L 703.89 641.85 L 700.78 643.19 L 697.79 644.85 L 693.58 647.71 L 689.91 650.75 L 682.88 657.43 L 676.99 662.71 L 668.40 669.85 L 662.22 674.65 L 654.89 679.94 L 646.29 685.77 L 637.53 691.28 L 627.59 696.99 L 616.37 702.93 L 604.98 708.39 L 592.37 713.78 L 578.47 719.07 L 568.03 722.60 L 556.89 725.94 L 545.03 729.05 L 532.40 731.94 L 519.93 734.34 L 506.73 736.38 L 492.77 738.04 L 477.99 739.29 L 450.33 740.88 L 427.69 741.82 L 406.62 742.36 L 389.81 742.53 L 362.34 742.31 L 343.25 742.04 L 338.85 741.83 L 333.62 741.25 L 322.51 739.81 L 316.77 739.27 L 311.19 739.08 L 307.50 739.24 L 304.09 739.70 L 300.91 740.45 L 297.91 741.62 L 295.28 743.22 L 292.96 745.29 L 291.54 747.09 L 290.33 749.26 L 289.34 751.87 L 288.59 754.97 Z" fill="#000000" fill-rule="evenodd" filter="url(#filter-18)" group-id="1,5,13,25" node-id="344" stroke="none" target-height="159.93463" target-width="447.9356" target-x="288.039" target-y="640.0185"></path><path d="M 288.59 754.97 L 288.04 759.99 L 288.12 764.17 L 288.73 767.63 L 289.89 770.95 L 291.45 773.78 L 293.41 776.19 L 295.74 778.29 L 298.36 780.14 L 301.30 781.73 L 305.98 783.71 L 311.03 785.37 L 321.26 788.18 L 329.80 790.33 L 339.97 792.45 L 351.99 794.51 L 364.02 796.17 L 377.50 797.61 L 392.53 798.80 L 407.54 799.57 L 423.76 799.95 L 441.28 799.92 L 458.74 799.41 L 477.19 798.37 L 496.67 796.75 L 511.14 795.19 L 526.03 793.26 L 541.35 790.92 L 557.11 788.18 L 568.14 785.88 L 578.69 783.27 L 588.76 780.38 L 598.40 777.19 L 611.14 772.39 L 623.03 767.29 L 634.14 761.91 L 645.02 756.04 L 655.05 750.13 L 664.26 744.17 L 673.28 737.85 L 681.41 731.73 L 688.71 725.82 L 699.04 716.75 L 707.39 708.71 L 714.84 700.89 L 720.25 694.70 L 724.78 689.02 L 727.21 685.62 L 730.48 680.32 L 732.94 675.37 L 734.69 670.73 L 735.59 667.11 L 735.97 663.68 L 735.87 660.40 L 735.30 657.22 L 734.24 654.22 L 732.59 651.25 L 730.28 648.30 L 727.21 645.34 L 724.63 643.44 L 722.11 642.01 L 719.63 641.00 L 717.17 640.38 L 713.77 640.02 L 710.43 640.16 L 707.12 640.80 L 703.89 641.85 L 700.78 643.19 L 697.79 644.85 L 693.58 647.71 L 689.91 650.75 L 682.88 657.43 L 676.99 662.71 L 668.40 669.85 L 662.22 674.65 L 654.89 679.94 L 646.29 685.77 L 637.53 691.28 L 627.59 696.99 L 616.37 702.93 L 604.98 708.39 L 592.37 713.78 L 578.47 719.07 L 568.03 722.60 L 556.89 725.94 L 545.03 729.05 L 532.40 731.94 L 519.93 734.34 L 506.73 736.38 L 492.77 738.04 L 477.99 739.29 L 450.33 740.88 L 427.69 741.82 L 406.62 742.36 L 389.81 742.53 L 362.34 742.31 L 343.25 742.04 L 338.85 741.83 L 333.62 741.25 L 322.51 739.81 L 316.77 739.27 L 311.19 739.08 L 307.50 739.24 L 304.09 739.70 L 300.91 740.45 L 297.91 741.62 L 295.28 743.22 L 292.96 745.29 L 291.54 747.09 L 290.33 749.26 L 289.34 751.87 L 288.59 754.97 Z" fill="#ed1f2a" fill-rule="evenodd" group-id="1,5,13,26" node-id="349" stroke="none" target-height="159.93463" target-width="447.9356" target-x="288.039" target-y="640.0185"></path><path d="M 288.59 754.97 L 288.04 759.99 L 288.12 764.17 L 288.73 767.63 L 289.89 770.95 L 291.45 773.78 L 293.41 776.19 L 295.74 778.29 L 298.36 780.14 L 301.30 781.73 L 305.98 783.71 L 311.03 785.37 L 321.26 788.18 L 329.80 790.33 L 339.97 792.45 L 351.99 794.51 L 364.02 796.17 L 377.50 797.61 L 392.53 798.80 L 407.54 799.57 L 423.76 799.95 L 441.28 799.92 L 458.74 799.41 L 477.19 798.37 L 496.67 796.75 L 511.14 795.19 L 526.03 793.26 L 541.35 790.92 L 557.11 788.18 L 568.14 785.88 L 578.69 783.27 L 588.76 780.38 L 598.40 777.19 L 611.14 772.39 L 623.03 767.29 L 634.14 761.91 L 645.02 756.04 L 655.05 750.13 L 664.26 744.17 L 673.28 737.85 L 681.41 731.73 L 688.71 725.82 L 699.04 716.75 L 707.39 708.71 L 714.84 700.89 L 720.25 694.70 L 724.78 689.02 L 727.21 685.62 L 730.48 680.32 L 732.94 675.37 L 734.69 670.73 L 735.59 667.11 L 735.97 663.68 L 735.87 660.40 L 735.30 657.22 L 734.24 654.22 L 732.59 651.25 L 730.28 648.30 L 727.21 645.34 L 724.63 643.44 L 722.11 642.01 L 719.63 641.00 L 717.17 640.38 L 713.77 640.02 L 710.43 640.16 L 707.12 640.80 L 703.89 641.85 L 700.78 643.19 L 697.79 644.85 L 693.58 647.71 L 689.91 650.75 L 682.88 657.43 L 676.99 662.71 L 668.40 669.85 L 662.22 674.65 L 654.89 679.94 L 646.29 685.77 L 637.53 691.28 L 627.59 696.99 L 616.37 702.93 L 604.98 708.39 L 592.37 713.78 L 578.47 719.07 L 568.03 722.60 L 556.89 725.94 L 545.03 729.05 L 532.40 731.94 L 519.93 734.34 L 506.73 736.38 L 492.77 738.04 L 477.99 739.29 L 450.33 740.88 L 427.69 741.82 L 406.62 742.36 L 389.81 742.53 L 362.34 742.31 L 343.25 742.04 L 338.85 741.83 L 333.62 741.25 L 322.51 739.81 L 316.77 739.27 L 311.19 739.08 L 307.50 739.24 L 304.09 739.70 L 300.91 740.45 L 297.91 741.62 L 295.28 743.22 L 292.96 745.29 L 291.54 747.09 L 290.33 749.26 L 289.34 751.87 L 288.59 754.97 Z" fill="#000000" fill-rule="evenodd" filter="url(#filter-19)" group-id="1,5,13,27" node-id="354" stroke="none" target-height="159.93463" target-width="447.9356" target-x="288.039" target-y="640.0185"></path><path d="M 544.87 742.31 L 556.36 740.27 L 567.57 738.64 L 578.50 737.41 L 589.17 736.58 L 599.99 736.11 L 610.39 736.01 L 620.41 736.28 L 630.05 736.89 L 639.81 737.89 L 649.03 739.22 L 657.76 740.86 L 666.01 742.80 L 658.28 748.44 L 649.67 754.07 L 640.14 759.67 L 630.37 764.78 L 619.59 769.73 L 607.72 774.52 L 598.79 777.70 L 589.21 780.72 L 578.95 783.56 L 567.97 786.22 L 549.84 789.93 L 532.00 793.00 L 514.43 795.45 L 496.79 797.38 L 479.72 798.76 L 463.20 799.63 L 446.63 800.06 L 430.94 800.06 L 416.07 799.67 L 423.67 793.50 L 432.04 787.41 L 441.23 781.41 L 450.69 775.86 L 460.82 770.49 L 471.67 765.33 L 482.71 760.61 L 494.31 756.19 L 506.50 752.07 L 518.84 748.42 L 531.62 745.17 L 544.87 742.31 Z" fill="url(#linearGradient-20)" fill-rule="evenodd" group-id="1,5" id="形状结合" node-id="111" stroke="none" target-height="64.05304" target-width="249.9403" target-x="416.07373" target-y="736.0114"></path><path d="M 288.59 754.97 L 288.04 759.99 L 288.12 764.17 L 288.73 767.63 L 289.89 770.95 L 291.45 773.78 L 293.41 776.19 L 295.74 778.29 L 298.36 780.14 L 301.30 781.73 L 305.98 783.71 L 311.03 785.37 L 321.26 788.18 L 329.80 790.33 L 339.97 792.45 L 351.99 794.51 L 364.02 796.17 L 377.50 797.61 L 392.53 798.80 L 407.54 799.57 L 423.76 799.95 L 441.28 799.92 L 458.74 799.41 L 477.19 798.37 L 496.67 796.75 L 511.14 795.19 L 526.03 793.26 L 541.35 790.92 L 557.11 788.18 L 568.14 785.88 L 578.69 783.27 L 588.76 780.38 L 598.40 777.19 L 611.14 772.39 L 623.03 767.29 L 634.14 761.91 L 645.02 756.04 L 655.05 750.13 L 664.26 744.17 L 673.28 737.85 L 681.41 731.73 L 688.71 725.82 L 699.04 716.75 L 707.39 708.71 L 714.84 700.89 L 720.25 694.70 L 724.78 689.02 L 727.21 685.62 L 730.48 680.32 L 732.94 675.37 L 734.69 670.73 L 735.59 667.11 L 735.97 663.68 L 735.87 660.40 L 735.30 657.22 L 734.24 654.22 L 732.59 651.25 L 730.28 648.30 L 727.21 645.34 L 724.63 643.44 L 722.11 642.01 L 719.63 641.00 L 717.17 640.38 L 713.77 640.02 L 710.43 640.16 L 707.12 640.80 L 703.89 641.85 L 700.78 643.19 L 697.79 644.85 L 693.58 647.71 L 689.91 650.75 L 682.88 657.43 L 676.99 662.71 L 668.40 669.85 L 662.22 674.65 L 654.89 679.94 L 646.29 685.77 L 637.53 691.28 L 627.59 696.99 L 616.37 702.93 L 604.98 708.39 L 592.37 713.78 L 578.47 719.07 L 568.03 722.60 L 556.89 725.94 L 545.03 729.05 L 532.40 731.94 L 519.93 734.34 L 506.73 736.38 L 492.77 738.04 L 477.99 739.29 L 450.33 740.88 L 427.69 741.82 L 406.62 742.36 L 389.81 742.53 L 362.34 742.31 L 343.25 742.04 L 338.85 741.83 L 333.62 741.25 L 322.51 739.81 L 316.77 739.27 L 311.19 739.08 L 307.50 739.24 L 304.09 739.70 L 300.91 740.45 L 297.91 741.62 L 295.28 743.22 L 292.96 745.29 L 291.54 747.09 L 290.33 749.26 L 289.34 751.87 L 288.59 754.97 Z" fill="#000000" fill-rule="evenodd" filter="url(#filter-22)" group-id="1,5,14,28" node-id="362" stroke="none" target-height="159.93463" target-width="447.9356" target-x="288.039" target-y="640.0185"></path><path d="M 827.31 166.30 C 837.67 166.30 846.19 174.17 847.21 184.26 L 847.31 186.30 L 847.31 475.38 C 847.31 486.43 838.36 495.38 827.31 495.38 C 816.96 495.38 808.44 487.51 807.42 477.43 L 807.31 475.38 L 807.31 186.30 C 807.31 175.26 816.27 166.30 827.31 166.30 Z" fill="#804808" fill-rule="nonzero" group-id="1" id="路径-25" node-id="114" stroke="none" target-height="329.08078" target-width="40" target-x="807.3133" target-y="166.30286"></path><path d="M 891.31 278.30 C 901.67 278.30 910.19 286.17 911.21 296.26 L 911.31 298.30 L 911.31 587.38 C 911.31 598.43 902.36 607.38 891.31 607.38 C 880.96 607.38 872.44 599.51 871.42 589.43 L 871.31 587.38 L 871.31 298.30 C 871.31 287.26 880.27 278.30 891.31 278.30 Z" fill="#804808" fill-rule="nonzero" group-id="1" id="路径-25备份" node-id="115" stroke="none" target-height="329.08075" target-width="40" target-x="871.3133" target-y="278.30286"></path><path d="M 955.31 230.30 C 965.67 230.30 974.19 238.17 975.21 248.26 L 975.31 250.30 L 975.31 427.38 C 975.31 438.43 966.36 447.38 955.31 447.38 C 944.96 447.38 936.44 439.51 935.42 429.43 L 935.31 427.38 L 935.31 250.30 C 935.31 239.26 944.27 230.30 955.31 230.30 Z" fill="#804808" fill-rule="nonzero" group-id="1" id="路径-25备份-2" node-id="116" stroke="none" target-height="217.08078" target-width="40" target-x="935.3133" target-y="230.30286"></path></g></svg>