<?xml version="1.0" standalone="no"?><!DOCTYPE svg PUBLIC "-//W3C//DTD SVG 1.1//EN" "http://www.w3.org/Graphics/SVG/1.1/DTD/svg11.dtd"><svg height="1024" node-id="1" sillyvg="true" template-height="1024" template-width="1024" version="1.1" viewBox="0 0 1024 1024" width="1024" xmlns="http://www.w3.org/2000/svg" xmlns:xlink="http://www.w3.org/1999/xlink"><defs node-id="80"><radialGradient cx="0.5" cy="0.19668992" fx="0.5" fy="0.19668992" gradientTransform="matrix(0 1 -0.939735 0 0.68483648 -0.30331)" gradientUnits="objectBoundingBox" id="radialGradient-1" node-id="5" r="0.9393923" rev="4" spreadMethod="pad"><stop offset="0" stop-color="#ffe476"></stop><stop offset="0.41387266" stop-color="#fcec6c"></stop><stop offset="1" stop-color="#ffb02f"></stop></radialGradient><linearGradient gradientUnits="objectBoundingBox" id="linearGradient-4" node-id="15" spreadMethod="pad" x1="0.58340436" x2="0.12860814" y1="0.30978626" y2="0.80065745"><stop offset="0" stop-color="#ffe476" stop-opacity="0"></stop><stop offset="0.4367953" stop-color="#fdc849"></stop><stop offset="1" stop-color="#914103"></stop></linearGradient><linearGradient gradientUnits="objectBoundingBox" id="linearGradient-6" node-id="21" spreadMethod="pad" x1="0.58340436" x2="0.122147135" y1="0.28709698" y2="0.8443261"><stop offset="0" stop-color="#ffe476" stop-opacity="0"></stop><stop offset="0.4367953" stop-color="#fdc849"></stop><stop offset="1" stop-color="#ffb02f"></stop></linearGradient><linearGradient gradientUnits="objectBoundingBox" id="linearGradient-12" node-id="39" spreadMethod="pad" x1="0.5" x2="0.5" y1="0" y2="1"><stop offset="0" stop-color="#ffffff"></stop><stop offset="1" stop-color="#ffedbe"></stop></linearGradient><filter height="1.173" id="filter-3" node-id="10" width="1.163" x="-0.081" y="-0.087"><feGaussianBlur color-interpolation-filters="linearRGB" in="SourceAlpha" result="shadowBlurInner1" stdDeviation="64 64"></feGaussianBlur><feOffset color-interpolation-filters="linearRGB" dx="0" dy="16" in="shadowBlurInner1" result="shadowOffsetInner1"></feOffset><feComposite color-interpolation-filters="linearRGB" in="shadowOffsetInner1" in2="SourceAlpha" k1="0" k2="-1" k3="1" k4="0" operator="arithmetic" result="shadowInnerInner1"></feComposite><feColorMatrix color-interpolation-filters="linearRGB" in="shadowInnerInner1" result="result4" type="matrix" values="0 0 0 0 0.968627451 0 0 0 0 0.68627451 0 0 0 0 0.270588235 0 0 0 0.501145583 0"></feColorMatrix></filter><filter height="1.253" id="filter-5" node-id="19" width="1.209" x="-0.104" y="-0.126"><feGaussianBlur color-interpolation-filters="linearRGB" in="SourceGraphic" result="result1" stdDeviation="12.8 12.8"></feGaussianBlur></filter><filter height="1.857" id="filter-8" node-id="26" width="1.462" x="-0.231" y="-0.429"><feOffset color-interpolation-filters="linearRGB" dx="0" dy="0" in="SourceAlpha" result="shadowOffsetOuter1"></feOffset><feGaussianBlur color-interpolation-filters="linearRGB" in="shadowOffsetOuter1" result="shadowBlurOuter1" stdDeviation="16 16"></feGaussianBlur><feColorMatrix color-interpolation-filters="linearRGB" in="shadowBlurOuter1" result="result3" type="matrix" values="0 0 0 0 1 0 0 0 0 0.948503655 0 0 0 0 0.566824862 0 0 0 1 0"></feColorMatrix></filter><filter height="1.714" id="filter-9" node-id="30" width="1.385" x="-0.192" y="-0.357"><feGaussianBlur color-interpolation-filters="linearRGB" in="SourceAlpha" result="shadowBlurInner1" stdDeviation="8 8"></feGaussianBlur><feOffset color-interpolation-filters="linearRGB" dx="0" dy="0" in="shadowBlurInner1" result="shadowOffsetInner1"></feOffset><feComposite color-interpolation-filters="linearRGB" in="shadowOffsetInner1" in2="SourceAlpha" k1="0" k2="-1" k3="1" k4="0" operator="arithmetic" result="shadowInnerInner1"></feComposite><feColorMatrix color-interpolation-filters="linearRGB" in="shadowInnerInner1" result="result4" type="matrix" values="0 0 0 0 0.661258421 0 0 0 0 0.0872254633 0 0 0 0 0.00982776113 0 0 0 1 0"></feColorMatrix></filter><filter height="3.571" id="filter-10" node-id="35" width="2.636" x="-0.818" y="-1.286"><feGaussianBlur color-interpolation-filters="linearRGB" in="SourceGraphic" result="result1" stdDeviation="48 48"></feGaussianBlur></filter><filter height="3.571" id="filter-11" node-id="37" width="2.636" x="-0.818" y="-1.286"><feGaussianBlur color-interpolation-filters="linearRGB" in="SourceGraphic" result="result1" stdDeviation="48 48"></feGaussianBlur></filter><filter height="1.901" id="filter-14" node-id="43" width="1.393" x="-0.197" y="-0.45"><feOffset color-interpolation-filters="linearRGB" dx="0" dy="0" in="SourceAlpha" result="shadowOffsetOuter1"></feOffset><feGaussianBlur color-interpolation-filters="linearRGB" in="shadowOffsetOuter1" result="shadowBlurOuter1" stdDeviation="24 24"></feGaussianBlur><feColorMatrix color-interpolation-filters="linearRGB" in="shadowBlurOuter1" result="result3" type="matrix" values="0 0 0 0 0.888848346 0 0 0 0 0.591702642 0 0 0 0 0.178785883 0 0 0 1 0"></feColorMatrix></filter><filter height="1.901" id="filter-16" node-id="48" width="1.393" x="-0.197" y="-0.45"><feOffset color-interpolation-filters="linearRGB" dx="0" dy="0" in="SourceAlpha" result="shadowOffsetOuter1"></feOffset><feGaussianBlur color-interpolation-filters="linearRGB" in="shadowOffsetOuter1" result="shadowBlurOuter1" stdDeviation="24 24"></feGaussianBlur><feColorMatrix color-interpolation-filters="linearRGB" in="shadowBlurOuter1" result="result3" type="matrix" values="0 0 0 0 0.888848346 0 0 0 0 0.591702642 0 0 0 0 0.178785883 0 0 0 1 0"></feColorMatrix></filter></defs><g node-id="241"><path d="M 0.00 0.00 L 1024.00 0.00 L 1024.00 1024.00 L 0.00 1024.00 Z" fill="none" group-id="1" id="矩形备份-3" node-id="54" stroke="none" target-height="1024" target-width="1024" target-x="0" target-y="0"></path><g node-id="242"><g node-id="243"><g node-id="250"><path d="M 486.86 96.38 L 501.39 96.01 L 515.61 96.27 L 529.55 97.15 L 543.23 98.62 L 556.66 100.70 L 570.09 103.40 L 583.19 106.65 L 595.97 110.44 L 608.43 114.78 L 620.61 119.66 L 632.60 125.13 L 644.22 131.08 L 655.46 137.52 L 666.35 144.45 L 676.90 151.88 L 687.10 159.81 L 696.88 168.17 L 706.23 176.98 L 715.18 186.23 L 723.72 195.95 L 731.78 206.04 L 739.35 216.53 L 746.45 227.42 L 753.09 238.73 L 759.25 250.48 L 771.93 257.14 L 784.32 264.37 L 796.44 272.17 L 808.29 280.56 L 819.76 289.43 L 830.86 298.81 L 841.62 308.71 L 852.03 319.14 L 861.97 329.98 L 871.48 341.27 L 880.55 353.02 L 889.19 365.25 L 895.72 375.27 L 901.91 385.54 L 907.77 396.07 L 913.31 406.86 L 918.52 417.94 L 923.33 429.13 L 927.75 440.55 L 931.79 452.20 L 935.46 464.09 L 938.75 476.22 L 941.58 488.39 L 943.98 500.76 L 945.96 513.34 L 947.49 526.13 L 948.59 539.15 L 949.21 552.09 L 949.35 565.21 L 949.00 578.51 L 948.15 592.03 L 946.80 605.75 L 944.73 621.02 L 942.25 635.76 L 939.35 649.98 L 936.06 663.71 L 932.38 676.96 L 928.32 689.75 L 923.89 702.10 L 918.85 714.61 L 913.45 726.68 L 907.69 738.31 L 901.58 749.52 L 895.10 760.33 L 888.26 770.74 L 881.06 780.78 L 873.39 790.61 L 865.37 800.06 L 857.01 809.15 L 848.29 817.89 L 839.22 826.28 L 829.77 834.32 L 819.95 842.03 L 812.93 847.93 L 805.42 853.71 L 797.40 859.37 L 788.86 864.90 L 779.77 870.32 L 770.76 875.23 L 761.11 880.03 L 750.81 884.70 L 739.80 889.24 L 728.07 893.64 L 716.66 897.52 L 704.46 901.26 L 691.45 904.85 L 677.57 908.28 L 662.79 911.53 L 644.83 914.98 L 625.42 918.15 L 604.45 921.01 L 581.85 923.53 L 560.70 925.39 L 539.95 926.75 L 519.60 927.61 L 499.64 927.98 L 480.05 927.87 L 460.19 927.26 L 440.81 926.15 L 421.90 924.54 L 403.44 922.45 L 385.42 919.89 L 367.22 916.75 L 349.57 913.11 L 332.44 908.98 L 315.82 904.39 L 299.69 899.32 L 286.19 894.59 L 273.10 889.51 L 260.41 884.11 L 248.10 878.37 L 236.16 872.30 L 224.58 865.90 L 213.11 859.00 L 202.06 851.76 L 191.42 844.18 L 181.17 836.25 L 171.30 827.97 L 161.82 819.34 L 152.67 810.30 L 143.95 800.89 L 135.64 791.11 L 127.74 780.93 L 120.23 770.36 L 113.12 759.39 L 106.56 748.22 L 100.43 736.64 L 94.73 724.62 L 89.45 712.15 L 84.61 699.21 L 80.21 685.77 L 76.46 672.48 L 73.16 658.70 L 70.34 644.41 L 67.99 629.58 L 66.15 614.19 L 64.82 598.22 L 64.14 583.09 L 64.03 568.57 L 64.46 554.63 L 65.41 541.24 L 66.86 528.37 L 68.90 515.28 L 71.42 502.70 L 74.40 490.60 L 77.84 478.97 L 81.72 467.78 L 86.18 456.62 L 91.06 445.89 L 96.35 435.54 L 102.05 425.58 L 108.18 415.98 L 114.77 406.63 L 121.74 397.62 L 129.10 388.93 L 136.85 380.56 L 145.01 372.50 L 153.46 364.81 L 162.28 357.41 L 171.46 350.29 L 181.02 343.45 L 190.97 336.88 L 193.90 323.41 L 197.19 310.46 L 200.84 298.03 L 204.83 286.10 L 209.16 274.63 L 213.83 263.62 L 218.81 253.05 L 224.38 242.41 L 230.26 232.20 L 236.44 222.43 L 242.94 213.08 L 249.74 204.13 L 256.85 195.57 L 264.28 187.38 L 273.46 178.18 L 283.02 169.49 L 292.99 161.29 L 303.37 153.58 L 314.17 146.34 L 325.42 139.58 L 336.87 133.40 L 348.72 127.67 L 360.96 122.40 L 373.62 117.59 L 386.72 113.23 L 400.27 109.34 L 413.70 106.05 L 427.52 103.20 L 441.72 100.79 L 456.34 98.85 L 471.38 97.37 L 486.86 96.38 Z" fill="url(#radialGradient-1)" fill-rule="evenodd" group-id="1,2,3,10" node-id="176" stroke="none" target-height="831.96716" target-width="885.3205" target-x="64.03111" target-y="96.013275"></path></g><path d="M 486.86 96.38 L 501.39 96.01 L 515.61 96.27 L 529.55 97.15 L 543.23 98.62 L 556.66 100.70 L 570.09 103.40 L 583.19 106.65 L 595.97 110.44 L 608.43 114.78 L 620.61 119.66 L 632.60 125.13 L 644.22 131.08 L 655.46 137.52 L 666.35 144.45 L 676.90 151.88 L 687.10 159.81 L 696.88 168.17 L 706.23 176.98 L 715.18 186.23 L 723.72 195.95 L 731.78 206.04 L 739.35 216.53 L 746.45 227.42 L 753.09 238.73 L 759.25 250.48 L 771.93 257.14 L 784.32 264.37 L 796.44 272.17 L 808.29 280.56 L 819.76 289.43 L 830.86 298.81 L 841.62 308.71 L 852.03 319.14 L 861.97 329.98 L 871.48 341.27 L 880.55 353.02 L 889.19 365.25 L 895.72 375.27 L 901.91 385.54 L 907.77 396.07 L 913.31 406.86 L 918.52 417.94 L 923.33 429.13 L 927.75 440.55 L 931.79 452.20 L 935.46 464.09 L 938.75 476.22 L 941.58 488.39 L 943.98 500.76 L 945.96 513.34 L 947.49 526.13 L 948.59 539.15 L 949.21 552.09 L 949.35 565.21 L 949.00 578.51 L 948.15 592.03 L 946.80 605.75 L 944.73 621.02 L 942.25 635.76 L 939.35 649.98 L 936.06 663.71 L 932.38 676.96 L 928.32 689.75 L 923.89 702.10 L 918.85 714.61 L 913.45 726.68 L 907.69 738.31 L 901.58 749.52 L 895.10 760.33 L 888.26 770.74 L 881.06 780.78 L 873.39 790.61 L 865.37 800.06 L 857.01 809.15 L 848.29 817.89 L 839.22 826.28 L 829.77 834.32 L 819.95 842.03 L 812.93 847.93 L 805.42 853.71 L 797.40 859.37 L 788.86 864.90 L 779.77 870.32 L 770.76 875.23 L 761.11 880.03 L 750.81 884.70 L 739.80 889.24 L 728.07 893.64 L 716.66 897.52 L 704.46 901.26 L 691.45 904.85 L 677.57 908.28 L 662.79 911.53 L 644.83 914.98 L 625.42 918.15 L 604.45 921.01 L 581.85 923.53 L 560.70 925.39 L 539.95 926.75 L 519.60 927.61 L 499.64 927.98 L 480.05 927.87 L 460.19 927.26 L 440.81 926.15 L 421.90 924.54 L 403.44 922.45 L 385.42 919.89 L 367.22 916.75 L 349.57 913.11 L 332.44 908.98 L 315.82 904.39 L 299.69 899.32 L 286.19 894.59 L 273.10 889.51 L 260.41 884.11 L 248.10 878.37 L 236.16 872.30 L 224.58 865.90 L 213.11 859.00 L 202.06 851.76 L 191.42 844.18 L 181.17 836.25 L 171.30 827.97 L 161.82 819.34 L 152.67 810.30 L 143.95 800.89 L 135.64 791.11 L 127.74 780.93 L 120.23 770.36 L 113.12 759.39 L 106.56 748.22 L 100.43 736.64 L 94.73 724.62 L 89.45 712.15 L 84.61 699.21 L 80.21 685.77 L 76.46 672.48 L 73.16 658.70 L 70.34 644.41 L 67.99 629.58 L 66.15 614.19 L 64.82 598.22 L 64.14 583.09 L 64.03 568.57 L 64.46 554.63 L 65.41 541.24 L 66.86 528.37 L 68.90 515.28 L 71.42 502.70 L 74.40 490.60 L 77.84 478.97 L 81.72 467.78 L 86.18 456.62 L 91.06 445.89 L 96.35 435.54 L 102.05 425.58 L 108.18 415.98 L 114.77 406.63 L 121.74 397.62 L 129.10 388.93 L 136.85 380.56 L 145.01 372.50 L 153.46 364.81 L 162.28 357.41 L 171.46 350.29 L 181.02 343.45 L 190.97 336.88 L 193.90 323.41 L 197.19 310.46 L 200.84 298.03 L 204.83 286.10 L 209.16 274.63 L 213.83 263.62 L 218.81 253.05 L 224.38 242.41 L 230.26 232.20 L 236.44 222.43 L 242.94 213.08 L 249.74 204.13 L 256.85 195.57 L 264.28 187.38 L 273.46 178.18 L 283.02 169.49 L 292.99 161.29 L 303.37 153.58 L 314.17 146.34 L 325.42 139.58 L 336.87 133.40 L 348.72 127.67 L 360.96 122.40 L 373.62 117.59 L 386.72 113.23 L 400.27 109.34 L 413.70 106.05 L 427.52 103.20 L 441.72 100.79 L 456.34 98.85 L 471.38 97.37 L 486.86 96.38 Z" fill="#000000" fill-rule="evenodd" filter="url(#filter-3)" group-id="1,2,3,11" node-id="181" stroke="none" target-height="831.96716" target-width="885.3205" target-x="64.03111" target-y="96.013275"></path></g><g node-id="244"><path d="M 112.00 653.36 L 117.96 666.00 L 123.05 678.04 L 127.32 689.51 L 130.82 700.46 L 133.59 710.91 L 135.69 720.89 L 137.15 730.43 L 138.00 739.56 L 138.28 748.32 L 138.00 756.73 L 137.20 764.81 L 135.88 772.60 L 134.05 780.12 L 134.07 781.10 L 134.67 782.93 L 136.29 786.07 L 139.26 790.74 L 143.89 797.07 L 149.21 803.67 L 155.84 811.24 L 163.03 818.82 L 171.13 826.69 L 179.70 834.30 L 188.75 841.55 L 195.02 846.10 L 201.32 850.22 L 207.66 853.94 L 214.20 857.25 L 220.60 859.92 L 226.86 861.97 L 231.69 863.11 L 236.37 863.77 L 240.91 863.99 L 245.34 863.76 L 249.70 863.04 L 253.92 861.76 L 258.03 859.90 L 262.07 857.44 L 267.59 854.37 L 275.69 850.36 L 284.63 846.30 L 295.51 841.74 L 307.00 837.31 L 319.80 832.79 L 332.99 828.59 L 346.82 824.69 L 356.17 822.38 L 365.51 820.36 L 374.85 818.64 L 384.24 817.27 L 393.34 816.33 L 402.15 815.83 L 410.98 815.81 L 419.24 816.36 L 426.99 817.44 L 432.76 818.70 L 438.11 820.33 L 443.06 822.33 L 447.64 824.67 L 451.42 826.56 L 454.75 827.65 L 457.73 828.07 L 460.42 827.91 L 462.90 827.22 L 465.24 825.97 L 467.48 824.10 L 469.63 821.51 L 471.70 818.03 L 473.66 813.50 L 475.47 807.71 L 477.07 800.41 L 478.40 791.37 L 479.38 780.30 L 479.92 766.91 L 479.93 750.89 L 479.31 731.89 L 477.94 709.55 L 475.71 683.51 L 472.49 653.36 L 190.47 560.00 L 112.00 653.36 Z" fill="url(#linearGradient-4)" fill-rule="evenodd" filter="url(#filter-5)" group-id="1,2,4" id="路径-79" node-id="59" stroke="none" target-height="303.98523" target-width="367.9322" target-x="112" target-y="560"></path></g><path d="M 133.82 646.91 L 137.85 653.63 L 141.37 660.58 L 144.39 667.75 L 146.91 675.18 L 148.94 682.89 L 150.48 690.90 L 151.50 699.23 L 152.00 707.91 L 151.95 716.98 L 151.34 726.44 L 150.13 736.35 L 148.29 746.72 L 145.78 757.59 L 142.56 768.99 L 138.59 780.96 L 133.82 793.52 L 131.51 799.81 L 129.80 805.58 L 128.60 810.87 L 127.89 815.72 L 127.60 820.18 L 127.70 824.90 L 128.19 829.23 L 129.03 833.23 L 130.22 836.91 L 131.74 840.31 L 134.15 844.39 L 136.98 848.10 L 140.25 851.47 L 143.99 854.51 L 148.00 857.16 L 152.33 859.53 L 157.02 861.60 L 162.07 863.39 L 168.95 865.24 L 176.16 866.62 L 183.74 867.53 L 191.37 867.95 L 199.03 867.96 L 206.73 867.53 L 214.39 866.70 L 221.73 865.52 L 228.77 864.00 L 235.72 862.08 L 241.98 859.91 L 247.61 857.53 L 253.03 854.68 L 257.44 851.74 L 260.98 848.72 L 264.85 845.17 L 269.57 841.35 L 275.25 837.25 L 281.07 833.43 L 287.57 829.51 L 294.78 825.50 L 305.92 819.89 L 318.07 814.43 L 330.63 809.46 L 343.64 804.99 L 352.45 802.35 L 361.23 800.07 L 369.96 798.14 L 378.77 796.57 L 387.30 795.48 L 395.55 794.84 L 403.83 794.68 L 411.60 795.10 L 418.91 796.04 L 424.35 797.17 L 429.41 798.67 L 434.12 800.52 L 438.52 802.70 L 442.17 804.46 L 445.47 805.50 L 448.50 805.92 L 451.31 805.78 L 453.97 805.12 L 456.54 803.90 L 459.04 802.09 L 461.50 799.58 L 463.94 796.24 L 466.34 791.92 L 468.69 786.45 L 470.94 779.63 L 473.07 771.24 L 475.02 761.06 L 476.74 748.82 L 478.16 734.26 L 479.22 717.10 L 479.86 697.04 L 479.98 673.75 L 479.51 646.91 L 209.07 560.00 L 133.82 646.91 Z" fill="url(#linearGradient-6)" fill-rule="evenodd" group-id="1,2" id="路径-79" node-id="60" stroke="none" target-height="307.95526" target-width="352.38177" target-x="127.59703" target-y="560"></path><path d="M 201.87 791.40 L 198.82 787.90 L 196.34 784.19 L 194.42 780.24 L 193.02 776.01 L 192.21 771.66 L 192.01 767.16 L 192.42 762.45 L 193.50 757.49 L 194.76 753.76 L 196.46 749.94 L 198.66 746.04 L 201.38 742.02 L 204.68 737.88 L 208.09 734.21 L 212.06 730.51 L 216.66 726.77 L 221.93 723.00 L 227.93 719.20 L 235.32 715.13 L 243.82 711.14 L 253.55 707.25 L 264.62 703.48 L 275.42 700.40 L 287.53 697.56 L 301.05 695.00 L 316.10 692.76 L 338.48 690.19 L 356.02 688.70 L 369.48 688.06 L 379.58 688.08 L 386.93 688.60 L 392.10 689.44 L 395.59 690.50 L 397.84 691.67 L 399.17 692.91 L 399.85 694.23 L 399.98 695.72 L 399.49 697.49 L 398.18 699.70 L 395.71 702.47 L 391.68 705.96 L 385.57 710.33 L 367.88 715.49 L 352.48 720.49 L 339.16 725.33 L 327.73 729.99 L 317.99 734.48 L 309.77 738.80 L 302.91 742.94 L 297.24 746.91 L 292.63 750.72 L 288.93 754.38 L 283.42 760.32 L 276.97 766.97 L 270.14 773.57 L 262.79 780.09 L 257.67 784.23 L 252.51 788.00 L 247.29 791.41 L 241.86 794.46 L 236.56 796.84 L 231.37 798.62 L 227.35 799.53 L 223.45 799.95 L 219.66 799.90 L 215.93 799.39 L 212.35 798.36 L 208.84 796.73 L 205.36 794.43 L 201.87 791.40 Z" fill="#000000" fill-rule="evenodd" filter="url(#filter-8)" group-id="1,2,5,12" node-id="193" stroke="none" target-height="111.89514" target-width="207.97311" target-x="192.00565" target-y="688.0598"></path><path d="M 201.87 791.40 L 198.82 787.90 L 196.34 784.19 L 194.42 780.24 L 193.02 776.01 L 192.21 771.66 L 192.01 767.16 L 192.42 762.45 L 193.50 757.49 L 194.76 753.76 L 196.46 749.94 L 198.66 746.04 L 201.38 742.02 L 204.68 737.88 L 208.09 734.21 L 212.06 730.51 L 216.66 726.77 L 221.93 723.00 L 227.93 719.20 L 235.32 715.13 L 243.82 711.14 L 253.55 707.25 L 264.62 703.48 L 275.42 700.40 L 287.53 697.56 L 301.05 695.00 L 316.10 692.76 L 338.48 690.19 L 356.02 688.70 L 369.48 688.06 L 379.58 688.08 L 386.93 688.60 L 392.10 689.44 L 395.59 690.50 L 397.84 691.67 L 399.17 692.91 L 399.85 694.23 L 399.98 695.72 L 399.49 697.49 L 398.18 699.70 L 395.71 702.47 L 391.68 705.96 L 385.57 710.33 L 367.88 715.49 L 352.48 720.49 L 339.16 725.33 L 327.73 729.99 L 317.99 734.48 L 309.77 738.80 L 302.91 742.94 L 297.24 746.91 L 292.63 750.72 L 288.93 754.38 L 283.42 760.32 L 276.97 766.97 L 270.14 773.57 L 262.79 780.09 L 257.67 784.23 L 252.51 788.00 L 247.29 791.41 L 241.86 794.46 L 236.56 796.84 L 231.37 798.62 L 227.35 799.53 L 223.45 799.95 L 219.66 799.90 L 215.93 799.39 L 212.35 798.36 L 208.84 796.73 L 205.36 794.43 L 201.87 791.40 Z" fill="#ed1f2a" fill-rule="evenodd" group-id="1,2,5,13" node-id="198" stroke="none" target-height="111.89514" target-width="207.97311" target-x="192.00565" target-y="688.0598"></path><path d="M 201.87 791.40 L 198.82 787.90 L 196.34 784.19 L 194.42 780.24 L 193.02 776.01 L 192.21 771.66 L 192.01 767.16 L 192.42 762.45 L 193.50 757.49 L 194.76 753.76 L 196.46 749.94 L 198.66 746.04 L 201.38 742.02 L 204.68 737.88 L 208.09 734.21 L 212.06 730.51 L 216.66 726.77 L 221.93 723.00 L 227.93 719.20 L 235.32 715.13 L 243.82 711.14 L 253.55 707.25 L 264.62 703.48 L 275.42 700.40 L 287.53 697.56 L 301.05 695.00 L 316.10 692.76 L 338.48 690.19 L 356.02 688.70 L 369.48 688.06 L 379.58 688.08 L 386.93 688.60 L 392.10 689.44 L 395.59 690.50 L 397.84 691.67 L 399.17 692.91 L 399.85 694.23 L 399.98 695.72 L 399.49 697.49 L 398.18 699.70 L 395.71 702.47 L 391.68 705.96 L 385.57 710.33 L 367.88 715.49 L 352.48 720.49 L 339.16 725.33 L 327.73 729.99 L 317.99 734.48 L 309.77 738.80 L 302.91 742.94 L 297.24 746.91 L 292.63 750.72 L 288.93 754.38 L 283.42 760.32 L 276.97 766.97 L 270.14 773.57 L 262.79 780.09 L 257.67 784.23 L 252.51 788.00 L 247.29 791.41 L 241.86 794.46 L 236.56 796.84 L 231.37 798.62 L 227.35 799.53 L 223.45 799.95 L 219.66 799.90 L 215.93 799.39 L 212.35 798.36 L 208.84 796.73 L 205.36 794.43 L 201.87 791.40 Z" fill="#000000" fill-rule="evenodd" filter="url(#filter-9)" group-id="1,2,5,14" node-id="203" stroke="none" target-height="111.89514" target-width="207.97311" target-x="192.00565" target-y="688.0598"></path><path d="M 848.00 560.00 L 847.70 564.60 L 846.85 569.06 L 845.47 573.42 L 843.51 577.70 L 841.13 581.72 L 838.27 585.62 L 834.91 589.40 L 831.02 593.07 L 826.91 596.38 L 822.38 599.50 L 817.41 602.44 L 811.97 605.20 L 806.45 607.57 L 800.60 609.70 L 794.40 611.56 L 787.81 613.15 L 781.24 614.36 L 774.42 615.25 L 767.34 615.80 L 760.00 616.00 L 752.66 615.80 L 745.58 615.25 L 738.76 614.36 L 732.19 613.15 L 725.60 611.56 L 719.40 609.70 L 713.55 607.57 L 708.03 605.20 L 702.59 602.44 L 697.62 599.50 L 693.09 596.38 L 688.98 593.07 L 685.09 589.40 L 681.73 585.62 L 678.87 581.72 L 676.49 577.70 L 674.53 573.42 L 673.15 569.06 L 672.30 564.60 L 672.00 560.00 L 672.30 555.40 L 673.15 550.94 L 674.54 546.58 L 676.49 542.30 L 678.87 538.28 L 681.73 534.38 L 685.09 530.60 L 688.98 526.93 L 693.09 523.62 L 697.62 520.50 L 702.59 517.56 L 708.03 514.80 L 713.55 512.43 L 719.40 510.30 L 725.60 508.44 L 732.19 506.85 L 738.76 505.64 L 745.58 504.75 L 752.66 504.20 L 760.00 504.00 L 767.34 504.20 L 774.42 504.75 L 781.24 505.64 L 787.81 506.85 L 794.40 508.44 L 800.60 510.30 L 806.45 512.43 L 811.97 514.80 L 817.41 517.56 L 822.38 520.50 L 826.91 523.62 L 831.02 526.93 L 834.91 530.60 L 838.27 534.38 L 841.13 538.28 L 843.51 542.30 L 845.47 546.58 L 846.85 550.94 L 847.70 555.40 L 848.00 560.00 Z" fill="#ff5ea4" fill-opacity="0.8" fill-rule="evenodd" filter="url(#filter-10)" group-id="1,2,6" id="椭圆形" node-id="65" stroke="none" target-height="112" target-width="176" target-x="672" target-y="504"></path><path d="M 368.00 560.00 L 367.70 564.60 L 366.85 569.06 L 365.47 573.42 L 363.51 577.70 L 361.13 581.72 L 358.27 585.62 L 354.91 589.40 L 351.02 593.07 L 346.91 596.38 L 342.38 599.50 L 337.41 602.44 L 331.97 605.20 L 326.45 607.57 L 320.60 609.70 L 314.40 611.56 L 307.81 613.15 L 301.24 614.36 L 294.42 615.25 L 287.34 615.80 L 280.00 616.00 L 272.66 615.80 L 265.58 615.25 L 258.76 614.36 L 252.19 613.15 L 245.60 611.56 L 239.40 609.70 L 233.55 607.57 L 228.03 605.20 L 222.59 602.44 L 217.62 599.50 L 213.09 596.38 L 208.98 593.07 L 205.09 589.40 L 201.73 585.62 L 198.87 581.72 L 196.49 577.70 L 194.53 573.42 L 193.15 569.06 L 192.30 564.60 L 192.00 560.00 L 192.30 555.40 L 193.15 550.94 L 194.53 546.58 L 196.49 542.30 L 198.87 538.28 L 201.73 534.38 L 205.09 530.60 L 208.98 526.93 L 213.09 523.62 L 217.62 520.50 L 222.59 517.56 L 228.03 514.80 L 233.55 512.43 L 239.40 510.30 L 245.60 508.44 L 252.19 506.85 L 258.76 505.64 L 265.58 504.75 L 272.66 504.20 L 280.00 504.00 L 287.34 504.20 L 294.42 504.75 L 301.24 505.64 L 307.81 506.85 L 314.40 508.44 L 320.60 510.30 L 326.45 512.43 L 331.97 514.80 L 337.41 517.56 L 342.38 520.50 L 346.91 523.62 L 351.02 526.93 L 354.91 530.60 L 358.27 534.38 L 361.13 538.28 L 363.51 542.30 L 365.47 546.58 L 366.85 550.94 L 367.70 555.40 L 368.00 560.00 Z" fill="#ff5ea4" fill-opacity="0.8" fill-rule="evenodd" filter="url(#filter-11)" group-id="1,2,7" id="椭圆形备份-6" node-id="66" stroke="none" target-height="112" target-width="176" target-x="192" target-y="504"></path><path d="M 97.94 384.11 L 464.00 384.11 L 460.96 397.84 L 457.53 410.73 L 453.73 422.81 L 449.57 434.15 L 445.07 444.76 L 440.24 454.70 L 435.09 463.99 L 429.63 472.68 L 423.85 480.78 L 417.77 488.34 L 411.37 495.36 L 404.65 501.89 L 397.61 507.92 L 390.23 513.48 L 382.50 518.58 L 374.40 523.23 L 365.90 527.42 L 357.00 531.17 L 347.67 534.46 L 337.87 537.29 L 327.59 539.64 L 316.79 541.51 L 305.44 542.88 L 293.51 543.71 L 280.97 544.00 L 268.42 543.71 L 256.49 542.88 L 245.15 541.51 L 234.35 539.64 L 224.06 537.29 L 214.27 534.46 L 204.93 531.17 L 196.03 527.42 L 187.54 523.23 L 179.44 518.58 L 171.71 513.48 L 164.33 507.92 L 157.28 501.89 L 150.57 495.36 L 144.17 488.34 L 138.09 480.78 L 132.31 472.68 L 126.85 463.99 L 121.70 454.70 L 116.87 444.76 L 112.37 434.15 L 108.21 422.81 L 104.40 410.73 L 100.97 397.84 L 97.94 384.11 Z" fill="#000000" fill-rule="evenodd" filter="url(#filter-14)" group-id="1,2,8,15,17" node-id="219" stroke="none" target-height="159.8906" target-width="366.06277" target-x="97.93723" target-y="384.1094"></path><path d="M 97.94 384.11 L 464.00 384.11 L 460.96 397.84 L 457.53 410.73 L 453.73 422.81 L 449.57 434.15 L 445.07 444.76 L 440.24 454.70 L 435.09 463.99 L 429.63 472.68 L 423.85 480.78 L 417.77 488.34 L 411.37 495.36 L 404.65 501.89 L 397.61 507.92 L 390.23 513.48 L 382.50 518.58 L 374.40 523.23 L 365.90 527.42 L 357.00 531.17 L 347.67 534.46 L 337.87 537.29 L 327.59 539.64 L 316.79 541.51 L 305.44 542.88 L 293.51 543.71 L 280.97 544.00 L 268.42 543.71 L 256.49 542.88 L 245.15 541.51 L 234.35 539.64 L 224.06 537.29 L 214.27 534.46 L 204.93 531.17 L 196.03 527.42 L 187.54 523.23 L 179.44 518.58 L 171.71 513.48 L 164.33 507.92 L 157.28 501.89 L 150.57 495.36 L 144.17 488.34 L 138.09 480.78 L 132.31 472.68 L 126.85 463.99 L 121.70 454.70 L 116.87 444.76 L 112.37 434.15 L 108.21 422.81 L 104.40 410.73 L 100.97 397.84 L 97.94 384.11 Z" fill="url(#linearGradient-12)" fill-rule="evenodd" group-id="1,2,8,15,18" node-id="224" stroke="none" target-height="159.8906" target-width="366.06277" target-x="97.93723" target-y="384.1094"></path><path d="M 227.30 384.00 L 245.83 384.00 L 260.63 384.11 L 260.63 384.11 L 260.16 388.51 L 260.16 388.51 L 258.94 402.02 L 258.05 409.02 L 257.39 412.27 L 256.47 415.64 L 255.29 419.08 L 253.63 423.14 L 251.66 427.44 L 248.98 432.83 L 244.76 437.37 L 240.29 441.57 L 235.56 445.44 L 230.56 449.00 L 225.33 452.19 L 219.89 455.00 L 214.25 457.42 L 208.38 459.46 L 202.40 461.07 L 196.26 462.22 L 189.95 462.93 L 183.45 463.19 L 176.78 462.92 L 170.31 462.17 L 164.02 460.96 L 157.90 459.28 L 151.91 457.13 L 146.15 454.60 L 140.61 451.66 L 135.29 448.31 L 130.22 444.59 L 125.44 440.54 L 120.94 436.16 L 116.71 431.43 L 112.82 426.42 L 109.28 421.16 L 106.09 415.61 L 103.24 409.78 L 100.81 403.78 L 98.79 397.58 L 97.19 391.16 L 96.00 384.50 L 148.61 384.14 L 148.61 384.14 L 227.30 384.00 L 227.30 384.00 Z" fill="#930027" fill-rule="evenodd" group-id="1,2,8" id="路径" node-id="71" stroke="none" target-height="79.18555" target-width="164.63177" target-x="96" target-y="384"></path><path d="M 545.94 384.11 L 912.00 384.11 L 908.96 397.84 L 905.53 410.73 L 901.73 422.81 L 897.57 434.15 L 893.07 444.76 L 888.24 454.70 L 883.09 463.99 L 877.63 472.68 L 871.85 480.78 L 865.77 488.34 L 859.37 495.36 L 852.65 501.89 L 845.61 507.92 L 838.23 513.48 L 830.50 518.58 L 822.40 523.23 L 813.90 527.42 L 805.00 531.17 L 795.67 534.46 L 785.87 537.29 L 775.59 539.64 L 764.79 541.51 L 753.44 542.88 L 741.51 543.71 L 728.97 544.00 L 716.42 543.71 L 704.49 542.88 L 693.15 541.51 L 682.35 539.64 L 672.06 537.29 L 662.27 534.46 L 652.93 531.17 L 644.03 527.42 L 635.54 523.23 L 627.44 518.58 L 619.71 513.48 L 612.33 507.92 L 605.28 501.89 L 598.57 495.36 L 592.17 488.34 L 586.09 480.78 L 580.31 472.68 L 574.85 463.99 L 569.70 454.70 L 564.87 444.76 L 560.37 434.15 L 556.21 422.81 L 552.40 410.73 L 548.97 397.84 L 545.94 384.11 Z" fill="#000000" fill-rule="evenodd" filter="url(#filter-16)" group-id="1,2,9,16,19" node-id="234" stroke="none" target-height="159.8906" target-width="366.06274" target-x="545.93726" target-y="384.1094"></path><path d="M 545.94 384.11 L 912.00 384.11 L 908.96 397.84 L 905.53 410.73 L 901.73 422.81 L 897.57 434.15 L 893.07 444.76 L 888.24 454.70 L 883.09 463.99 L 877.63 472.68 L 871.85 480.78 L 865.77 488.34 L 859.37 495.36 L 852.65 501.89 L 845.61 507.92 L 838.23 513.48 L 830.50 518.58 L 822.40 523.23 L 813.90 527.42 L 805.00 531.17 L 795.67 534.46 L 785.87 537.29 L 775.59 539.64 L 764.79 541.51 L 753.44 542.88 L 741.51 543.71 L 728.97 544.00 L 716.42 543.71 L 704.49 542.88 L 693.15 541.51 L 682.35 539.64 L 672.06 537.29 L 662.27 534.46 L 652.93 531.17 L 644.03 527.42 L 635.54 523.23 L 627.44 518.58 L 619.71 513.48 L 612.33 507.92 L 605.28 501.89 L 598.57 495.36 L 592.17 488.34 L 586.09 480.78 L 580.31 472.68 L 574.85 463.99 L 569.70 454.70 L 564.87 444.76 L 560.37 434.15 L 556.21 422.81 L 552.40 410.73 L 548.97 397.84 L 545.94 384.11 Z" fill="url(#linearGradient-12)" fill-rule="evenodd" group-id="1,2,9,16,20" node-id="239" stroke="none" target-height="159.8906" target-width="366.06274" target-x="545.93726" target-y="384.1094"></path><path d="M 675.30 384.00 L 693.83 384.00 L 708.63 384.11 L 708.63 384.11 L 707.90 391.41 L 707.90 391.41 L 706.95 404.04 L 706.59 407.25 L 706.05 410.23 L 705.27 413.20 L 704.06 416.63 L 702.52 420.26 L 700.25 424.97 L 696.78 431.63 L 696.78 431.63 L 694.87 435.20 L 690.70 439.39 L 686.31 443.27 L 681.69 446.85 L 676.81 450.13 L 671.74 453.07 L 666.48 455.66 L 661.03 457.89 L 655.38 459.77 L 649.63 461.24 L 643.73 462.30 L 637.68 462.95 L 631.45 463.19 L 624.77 462.92 L 618.31 462.17 L 612.02 460.96 L 605.90 459.28 L 599.91 457.13 L 594.15 454.60 L 588.61 451.66 L 583.29 448.31 L 578.22 444.59 L 573.44 440.54 L 568.94 436.16 L 564.71 431.43 L 560.82 426.42 L 557.28 421.16 L 554.09 415.61 L 551.24 409.78 L 548.81 403.78 L 546.79 397.58 L 545.19 391.16 L 544.00 384.50 L 596.61 384.14 L 596.61 384.14 L 675.30 384.00 L 675.30 384.00 Z" fill="#930027" fill-rule="evenodd" group-id="1,2,9" id="路径" node-id="76" stroke="none" target-height="79.18555" target-width="164.63177" target-x="544" target-y="384"></path><path d="M 459.45 322.64 L 462.08 322.93 L 464.42 323.73 L 466.50 325.01 L 468.18 326.65 L 469.42 328.62 L 470.13 330.85 L 470.27 332.43 L 470.26 368.21 L 469.40 372.50 L 468.28 375.95 L 466.96 378.69 L 465.45 380.84 L 463.78 382.48 L 461.92 383.70 L 459.85 384.51 L 458.04 384.96 L 453.90 385.65 L 448.24 386.20 L 440.73 386.54 L 431.47 386.64 L 310.60 385.21 L 97.94 385.21 L 95.96 385.01 L 94.16 384.53 L 92.50 383.79 L 90.99 382.78 L 89.73 381.60 L 88.69 380.22 L 87.91 378.68 L 87.45 377.04 L 87.30 375.25 L 87.52 373.48 L 88.04 371.85 L 88.87 370.33 L 89.96 368.99 L 91.27 367.84 L 92.81 366.88 L 94.50 366.18 L 96.31 365.76 L 98.30 365.63 L 427.10 367.04 L 436.27 367.04 L 442.62 366.88 L 445.35 366.75 L 448.63 366.52 L 448.64 332.43 L 448.95 330.07 L 449.84 327.93 L 451.23 326.07 L 453.07 324.53 L 455.22 323.42 L 457.70 322.77 L 459.45 322.64 Z" fill="#90371e" fill-rule="nonzero" group-id="1,2" id="路径-78" node-id="77" stroke="none" target-height="64" target-width="382.96774" target-x="87.30212" target-y="322.6416"></path><path d="M 548.00 323.96 L 545.37 324.25 L 543.03 325.05 L 540.95 326.32 L 539.27 327.96 L 538.03 329.93 L 537.32 332.16 L 537.18 333.75 L 537.19 369.53 L 538.06 373.81 L 539.17 377.26 L 540.50 380.00 L 542.00 382.15 L 543.67 383.80 L 545.53 385.01 L 547.60 385.83 L 549.41 386.28 L 553.56 386.96 L 559.21 387.51 L 566.72 387.86 L 575.98 387.96 L 696.86 386.52 L 905.08 384.15 L 907.05 383.95 L 908.86 383.48 L 910.51 382.73 L 912.02 381.73 L 913.28 380.54 L 914.33 379.16 L 915.10 377.63 L 915.56 375.98 L 915.71 374.20 L 915.50 372.42 L 914.97 370.79 L 914.14 369.28 L 913.05 367.93 L 911.75 366.78 L 910.20 365.83 L 908.52 365.13 L 906.70 364.71 L 904.72 364.57 L 580.36 368.35 L 571.18 368.35 L 564.83 368.20 L 562.10 368.07 L 558.82 367.83 L 558.82 333.75 L 558.50 331.38 L 557.61 329.25 L 556.22 327.38 L 554.39 325.84 L 552.23 324.73 L 549.75 324.08 L 548.00 323.96 Z" fill="#90371e" fill-rule="nonzero" group-id="1,2" id="路径" node-id="78" stroke="none" target-height="64" target-width="378.52844" target-x="537.1824" target-y="323.95502"></path></g></g></svg>