<?xml version="1.0" standalone="no"?><!DOCTYPE svg PUBLIC "-//W3C//DTD SVG 1.1//EN" "http://www.w3.org/Graphics/SVG/1.1/DTD/svg11.dtd"><svg height="1024" node-id="1" sillyvg="true" template-height="1024" template-width="1024" version="1.1" viewBox="0 0 1024 1024" width="1024" xmlns="http://www.w3.org/2000/svg" xmlns:xlink="http://www.w3.org/1999/xlink"><defs node-id="156"><radialGradient cx="0.5" cy="0.19668992" fx="0.5" fy="0.19668992" gradientTransform="matrix(0 1 -0.912281 0 0.67943655 -0.30331)" gradientUnits="objectBoundingBox" id="radialGradient-1" node-id="5" r="0.9393923" rev="5" spreadMethod="pad"><stop offset="0" stop-color="#ffe476"></stop><stop offset="0.41387266" stop-color="#fcec6c"></stop><stop offset="1" stop-color="#ffb02f"></stop></radialGradient><linearGradient gradientUnits="objectBoundingBox" id="linearGradient-4" node-id="15" spreadMethod="pad" x1="0.5" x2="0.5" y1="0" y2="1"><stop offset="0" stop-color="#ffe971"></stop><stop offset="1" stop-color="#ffe058"></stop></linearGradient><linearGradient gradientUnits="objectBoundingBox" id="linearGradient-10" node-id="32" spreadMethod="pad" x1="0.5" x2="0.5" y1="0.1186253" y2="1"><stop offset="0" stop-color="#ff8b9f"></stop><stop offset="1" stop-color="#ff5166"></stop></linearGradient><radialGradient cx="0.5" cy="0" fx="0.5" fy="0" gradientUnits="objectBoundingBox" id="radialGradient-15" node-id="45" r="0.98521996" rev="2" spreadMethod="pad"><stop offset="0" stop-color="#ffe476"></stop><stop offset="0.41387266" stop-color="#fff287"></stop><stop offset="1" stop-color="#ffb02f"></stop></radialGradient><linearGradient gradientUnits="objectBoundingBox" id="linearGradient-22" node-id="69" spreadMethod="pad" x1="0.5" x2="0.5" y1="0" y2="1"><stop offset="0" stop-color="#ffffff"></stop><stop offset="1" stop-color="#ffedbe"></stop></linearGradient><filter height="1.173" id="filter-3" node-id="10" width="1.158" x="-0.079" y="-0.087"><feGaussianBlur color-interpolation-filters="linearRGB" in="SourceAlpha" result="shadowBlurInner1" stdDeviation="64 64"></feGaussianBlur><feOffset color-interpolation-filters="linearRGB" dx="0" dy="16" in="shadowBlurInner1" result="shadowOffsetInner1"></feOffset><feComposite color-interpolation-filters="linearRGB" in="shadowOffsetInner1" in2="SourceAlpha" k1="0" k2="-1" k3="1" k4="0" operator="arithmetic" result="shadowInnerInner1"></feComposite><feColorMatrix color-interpolation-filters="linearRGB" in="shadowInnerInner1" result="result4" type="matrix" values="0 0 0 0 0.968627451 0 0 0 0 0.68627451 0 0 0 0 0.270588235 0 0 0 0.501145583 0"></feColorMatrix></filter><filter height="1.786" id="filter-6" node-id="19" width="1.734" x="-0.367" y="-0.25"><feGaussianBlur color-interpolation-filters="linearRGB" in="SourceGraphic" result="result1" stdDeviation="8 8"></feGaussianBlur></filter><filter height="2.214" id="filter-7" node-id="21" width="2.135" x="-0.567" y="-0.464"><feOffset color-interpolation-filters="linearRGB" dx="0" dy="32" in="SourceAlpha" result="shadowOffsetOuter1"></feOffset><feGaussianBlur color-interpolation-filters="linearRGB" in="shadowOffsetOuter1" result="shadowBlurOuter1" stdDeviation="32 32"></feGaussianBlur><feComposite color-interpolation-filters="linearRGB" in="shadowBlurOuter1" in2="SourceAlpha" operator="out" result="shadowBlurOuter1"></feComposite><feColorMatrix color-interpolation-filters="linearRGB" in="shadowBlurOuter1" result="result4" type="matrix" values="0 0 0 0 0.890992096 0 0 0 0 0.656935012 0 0 0 0 0.200722052 0 0 0 0.693379862 0"></feColorMatrix></filter><filter height="1.093" id="filter-9" node-id="27" width="1.079" x="-0.04" y="-0.046"><feGaussianBlur color-interpolation-filters="linearRGB" in="SourceAlpha" result="shadowBlurInner1" stdDeviation="8 8"></feGaussianBlur><feOffset color-interpolation-filters="linearRGB" dx="0" dy="0" in="shadowBlurInner1" result="shadowOffsetInner1"></feOffset><feComposite color-interpolation-filters="linearRGB" in="shadowOffsetInner1" in2="SourceAlpha" k1="0" k2="-1" k3="1" k4="0" operator="arithmetic" result="shadowInnerInner1"></feComposite><feColorMatrix color-interpolation-filters="linearRGB" in="shadowInnerInner1" result="result4" type="matrix" values="0 0 0 0 0.661258421 0 0 0 0 0.0872254633 0 0 0 0 0.00982776113 0 0 0 1 0"></feColorMatrix></filter><filter height="1.093" id="filter-12" node-id="36" width="1.079" x="-0.04" y="-0.046"><feGaussianBlur color-interpolation-filters="linearRGB" in="SourceAlpha" result="shadowBlurInner1" stdDeviation="8 8"></feGaussianBlur><feOffset color-interpolation-filters="linearRGB" dx="0" dy="0" in="shadowBlurInner1" result="shadowOffsetInner1"></feOffset><feComposite color-interpolation-filters="linearRGB" in="shadowOffsetInner1" in2="SourceAlpha" k1="0" k2="-1" k3="1" k4="0" operator="arithmetic" result="shadowInnerInner1"></feComposite><feColorMatrix color-interpolation-filters="linearRGB" in="shadowInnerInner1" result="result4" type="matrix" values="0 0 0 0 0.661258421 0 0 0 0 0.0872254633 0 0 0 0 0.00982776113 0 0 0 1 0"></feColorMatrix></filter><filter height="2.8" id="filter-13" node-id="41" width="2.636" x="-0.818" y="-0.9"><feGaussianBlur color-interpolation-filters="linearRGB" in="SourceGraphic" result="result1" stdDeviation="48 48"></feGaussianBlur></filter><filter height="2.8" id="filter-14" node-id="43" width="2.636" x="-0.818" y="-0.9"><feGaussianBlur color-interpolation-filters="linearRGB" in="SourceGraphic" result="result1" stdDeviation="48 48"></feGaussianBlur></filter><filter height="1.923" id="filter-17" node-id="50" width="1.923" x="-0.462" y="-0.462"><feOffset color-interpolation-filters="linearRGB" dx="0" dy="0" in="SourceAlpha" result="shadowOffsetOuter1"></feOffset><feGaussianBlur color-interpolation-filters="linearRGB" in="shadowOffsetOuter1" result="shadowBlurOuter1" stdDeviation="32 32"></feGaussianBlur><feColorMatrix color-interpolation-filters="linearRGB" in="shadowBlurOuter1" result="result3" type="matrix" values="0 0 0 0 0.888848346 0 0 0 0 0.591702642 0 0 0 0 0.178785883 0 0 0 1 0"></feColorMatrix></filter><filter height="1.846" id="filter-18" node-id="54" width="1.846" x="-0.423" y="-0.423"><feGaussianBlur color-interpolation-filters="linearRGB" in="SourceAlpha" result="shadowBlurInner1" stdDeviation="16 16"></feGaussianBlur><feOffset color-interpolation-filters="linearRGB" dx="0" dy="16" in="shadowBlurInner1" result="shadowOffsetInner1"></feOffset><feComposite color-interpolation-filters="linearRGB" in="shadowOffsetInner1" in2="SourceAlpha" k1="0" k2="-1" k3="1" k4="0" operator="arithmetic" result="shadowInnerInner1"></feComposite><feColorMatrix color-interpolation-filters="linearRGB" in="shadowInnerInner1" result="result4" type="matrix" values="0 0 0 0 1 0 0 0 0 0.752777197 0 0 0 0 0.187696503 0 0 0 0.756594358 0"></feColorMatrix></filter><filter height="1.923" id="filter-20" node-id="60" width="1.923" x="-0.462" y="-0.462"><feOffset color-interpolation-filters="linearRGB" dx="0" dy="0" in="SourceAlpha" result="shadowOffsetOuter1"></feOffset><feGaussianBlur color-interpolation-filters="linearRGB" in="shadowOffsetOuter1" result="shadowBlurOuter1" stdDeviation="32 32"></feGaussianBlur><feColorMatrix color-interpolation-filters="linearRGB" in="shadowBlurOuter1" result="result3" type="matrix" values="0 0 0 0 0.888848346 0 0 0 0 0.591702642 0 0 0 0 0.178785883 0 0 0 1 0"></feColorMatrix></filter><filter height="1.846" id="filter-21" node-id="64" width="1.846" x="-0.423" y="-0.423"><feGaussianBlur color-interpolation-filters="linearRGB" in="SourceAlpha" result="shadowBlurInner1" stdDeviation="16 16"></feGaussianBlur><feOffset color-interpolation-filters="linearRGB" dx="0" dy="16" in="shadowBlurInner1" result="shadowOffsetInner1"></feOffset><feComposite color-interpolation-filters="linearRGB" in="shadowOffsetInner1" in2="SourceAlpha" k1="0" k2="-1" k3="1" k4="0" operator="arithmetic" result="shadowInnerInner1"></feComposite><feColorMatrix color-interpolation-filters="linearRGB" in="shadowInnerInner1" result="result4" type="matrix" values="0 0 0 0 1 0 0 0 0 0.752777197 0 0 0 0 0.187696503 0 0 0 0.756594358 0"></feColorMatrix></filter><filter height="1.8" id="filter-24" node-id="73" width="1.8" x="-0.4" y="-0.4"><feOffset color-interpolation-filters="linearRGB" dx="0" dy="0" in="SourceAlpha" result="shadowOffsetOuter1"></feOffset><feGaussianBlur color-interpolation-filters="linearRGB" in="shadowOffsetOuter1" result="shadowBlurOuter1" stdDeviation="32 32"></feGaussianBlur><feColorMatrix color-interpolation-filters="linearRGB" in="shadowBlurOuter1" result="result3" type="matrix" values="0 0 0 0 0.888848346 0 0 0 0 0.591702642 0 0 0 0 0.178785883 0 0 0 1 0"></feColorMatrix></filter><filter height="1.667" id="filter-25" node-id="77" width="1.667" x="-0.333" y="-0.333"><feGaussianBlur color-interpolation-filters="linearRGB" in="SourceAlpha" result="shadowBlurInner1" stdDeviation="16 16"></feGaussianBlur><feOffset color-interpolation-filters="linearRGB" dx="0" dy="0" in="shadowBlurInner1" result="shadowOffsetInner1"></feOffset><feComposite color-interpolation-filters="linearRGB" in="shadowOffsetInner1" in2="SourceAlpha" k1="0" k2="-1" k3="1" k4="0" operator="arithmetic" result="shadowInnerInner1"></feComposite><feColorMatrix color-interpolation-filters="linearRGB" in="shadowInnerInner1" result="result4" type="matrix" values="0 0 0 0 1 0 0 0 0 0.880587925 0 0 0 0 0.537254902 0 0 0 0.500726446 0"></feColorMatrix></filter><filter height="1.217" id="filter-27" node-id="83" width="1.217" x="-0.108" y="-0.108"><feGaussianBlur color-interpolation-filters="linearRGB" in="SourceAlpha" result="shadowBlurInner1" stdDeviation="16 16"></feGaussianBlur><feOffset color-interpolation-filters="linearRGB" dx="0" dy="0" in="shadowBlurInner1" result="shadowOffsetInner1"></feOffset><feComposite color-interpolation-filters="linearRGB" in="shadowOffsetInner1" in2="SourceAlpha" k1="0" k2="-1" k3="1" k4="0" operator="arithmetic" result="shadowInnerInner1"></feComposite><feColorMatrix color-interpolation-filters="linearRGB" in="shadowInnerInner1" result="result4" type="matrix" values="0 0 0 0 0.322660142 0 0 0 0 0 0 0 0 0 0.0976114716 0 0 0 1 0"></feColorMatrix></filter><filter height="1.8" id="filter-29" node-id="89" width="1.8" x="-0.4" y="-0.4"><feOffset color-interpolation-filters="linearRGB" dx="0" dy="0" in="SourceAlpha" result="shadowOffsetOuter1"></feOffset><feGaussianBlur color-interpolation-filters="linearRGB" in="shadowOffsetOuter1" result="shadowBlurOuter1" stdDeviation="32 32"></feGaussianBlur><feColorMatrix color-interpolation-filters="linearRGB" in="shadowBlurOuter1" result="result3" type="matrix" values="0 0 0 0 0.888848346 0 0 0 0 0.591702642 0 0 0 0 0.178785883 0 0 0 1 0"></feColorMatrix></filter><filter height="1.667" id="filter-30" node-id="93" width="1.667" x="-0.333" y="-0.333"><feGaussianBlur color-interpolation-filters="linearRGB" in="SourceAlpha" result="shadowBlurInner1" stdDeviation="16 16"></feGaussianBlur><feOffset color-interpolation-filters="linearRGB" dx="0" dy="0" in="shadowBlurInner1" result="shadowOffsetInner1"></feOffset><feComposite color-interpolation-filters="linearRGB" in="shadowOffsetInner1" in2="SourceAlpha" k1="0" k2="-1" k3="1" k4="0" operator="arithmetic" result="shadowInnerInner1"></feComposite><feColorMatrix color-interpolation-filters="linearRGB" in="shadowInnerInner1" result="result4" type="matrix" values="0 0 0 0 1 0 0 0 0 0.880587925 0 0 0 0 0.537254902 0 0 0 0.500726446 0"></feColorMatrix></filter><filter height="1.217" id="filter-32" node-id="99" width="1.217" x="-0.108" y="-0.108"><feGaussianBlur color-interpolation-filters="linearRGB" in="SourceAlpha" result="shadowBlurInner1" stdDeviation="16 16"></feGaussianBlur><feOffset color-interpolation-filters="linearRGB" dx="0" dy="0" in="shadowBlurInner1" result="shadowOffsetInner1"></feOffset><feComposite color-interpolation-filters="linearRGB" in="shadowOffsetInner1" in2="SourceAlpha" k1="0" k2="-1" k3="1" k4="0" operator="arithmetic" result="shadowInnerInner1"></feComposite><feColorMatrix color-interpolation-filters="linearRGB" in="shadowInnerInner1" result="result4" type="matrix" values="0 0 0 0 0.322660142 0 0 0 0 0 0 0 0 0 0.0976114716 0 0 0 1 0"></feColorMatrix></filter></defs><g node-id="492"><g node-id="493"><path d="M 0.00 0.00 L 1024.00 0.00 L 1024.00 1024.00 L 0.00 1024.00 Z" fill="none" group-id="1,2" id="矩形备份-4" node-id="107" stroke="none" target-height="1024" target-width="1024" target-x="0" target-y="0"></path><g node-id="498"><g node-id="512"><path d="M 486.86 80.38 C 606.07 74.63 708.76 134.68 758.05 232.07 C 890.94 291.20 998.79 432.58 971.84 589.75 C 951.63 707.61 887.20 793.73 792.89 846.38 C 746.43 876.44 680.20 897.75 581.85 907.53 C 302.34 935.30 80.98 834.50 64.82 582.22 C 56.85 457.83 107.42 373.95 190.97 320.88 C 221.60 165.87 333.84 87.75 486.86 80.38 Z" fill="url(#radialGradient-1)" fill-rule="evenodd" group-id="1,2,7,21" node-id="344" stroke="none" target-height="860.6705" target-width="941.9407" target-x="56.854" target-y="74.63337"></path></g><path d="M 486.86 80.38 C 606.07 74.63 708.76 134.68 758.05 232.07 C 890.94 291.20 998.79 432.58 971.84 589.75 C 951.63 707.61 887.20 793.73 792.89 846.38 C 746.43 876.44 680.20 897.75 581.85 907.53 C 302.34 935.30 80.98 834.50 64.82 582.22 C 56.85 457.83 107.42 373.95 190.97 320.88 C 221.60 165.87 333.84 87.75 486.86 80.38 Z" fill="#000000" fill-rule="evenodd" filter="url(#filter-3)" group-id="1,2,7,22" node-id="349" stroke="none" target-height="860.6705" target-width="941.9407" target-x="56.854" target-y="74.63337"></path></g><g node-id="499"><g node-id="514"><g node-id="527"><path d="M 406.40 671.87 L 404.03 661.79 L 402.24 652.51 L 400.99 643.96 L 400.24 636.11 L 399.99 629.52 L 400.15 623.47 L 400.70 617.90 L 401.61 612.78 L 402.85 608.05 L 404.60 603.36 L 406.78 599.09 L 409.40 595.18 L 412.47 591.63 L 416.03 588.39 L 419.83 585.67 L 424.21 583.23 L 429.24 581.08 L 434.98 579.26 L 441.53 577.78 L 447.02 577.09 L 456.88 576.48 L 472.98 576.08 L 497.50 576.04 L 532.96 576.54 L 582.18 577.78 L 588.53 578.04 L 594.46 578.75 L 600.03 579.90 L 605.27 581.48 L 610.38 583.55 L 615.09 586.02 L 619.40 588.89 L 623.36 592.15 L 626.95 595.83 L 630.12 599.87 L 632.88 604.33 L 635.25 609.23 L 637.07 614.28 L 638.44 619.74 L 639.33 625.66 L 639.71 632.09 L 639.55 638.38 L 638.83 645.12 L 637.51 652.36 L 635.52 660.16 L 633.05 668.70 L 628.31 683.54 L 625.12 692.48 L 621.13 702.73 L 616.66 713.21 L 611.39 724.32 L 607.56 731.69 L 603.41 739.03 L 598.91 746.37 L 594.11 753.50 L 588.99 760.34 L 583.55 766.90 L 577.74 773.12 L 571.61 778.81 L 565.16 783.99 L 560.06 787.52 L 554.77 790.63 L 549.29 793.35 L 543.59 795.67 L 537.75 797.52 L 531.67 798.86 L 525.33 799.69 L 518.68 800.00 L 511.33 799.72 L 504.26 798.90 L 497.45 797.54 L 490.87 795.66 L 484.49 793.24 L 478.30 790.29 L 472.27 786.79 L 466.38 782.70 L 460.63 778.01 L 455.01 772.67 L 449.52 766.64 L 444.14 759.87 L 438.89 752.32 L 433.76 743.92 L 428.77 734.60 L 423.93 724.31 L 419.26 712.96 L 414.76 700.50 L 410.47 686.83 L 406.40 671.87 Z" fill="#000000" fill-rule="evenodd" filter="url(#filter-7)" group-id="1,2,8,23,36" node-id="357" stroke="none" target-height="223.96082" target-width="239.7203" target-x="399.98752" target-y="576.0392"></path></g><path d="M 406.40 671.87 L 404.03 661.79 L 402.24 652.51 L 400.99 643.96 L 400.24 636.11 L 399.99 629.52 L 400.15 623.47 L 400.70 617.90 L 401.61 612.78 L 402.85 608.05 L 404.60 603.36 L 406.78 599.09 L 409.40 595.18 L 412.47 591.63 L 416.03 588.39 L 419.83 585.67 L 424.21 583.23 L 429.24 581.08 L 434.98 579.26 L 441.53 577.78 L 447.02 577.09 L 456.88 576.48 L 472.98 576.08 L 497.50 576.04 L 532.96 576.54 L 582.18 577.78 L 588.53 578.04 L 594.46 578.75 L 600.03 579.90 L 605.27 581.48 L 610.38 583.55 L 615.09 586.02 L 619.40 588.89 L 623.36 592.15 L 626.95 595.83 L 630.12 599.87 L 632.88 604.33 L 635.25 609.23 L 637.07 614.28 L 638.44 619.74 L 639.33 625.66 L 639.71 632.09 L 639.55 638.38 L 638.83 645.12 L 637.51 652.36 L 635.52 660.16 L 633.05 668.70 L 628.31 683.54 L 625.12 692.48 L 621.13 702.73 L 616.66 713.21 L 611.39 724.32 L 607.56 731.69 L 603.41 739.03 L 598.91 746.37 L 594.11 753.50 L 588.99 760.34 L 583.55 766.90 L 577.74 773.12 L 571.61 778.81 L 565.16 783.99 L 560.06 787.52 L 554.77 790.63 L 549.29 793.35 L 543.59 795.67 L 537.75 797.52 L 531.67 798.86 L 525.33 799.69 L 518.68 800.00 L 511.33 799.72 L 504.26 798.90 L 497.45 797.54 L 490.87 795.66 L 484.49 793.24 L 478.30 790.29 L 472.27 786.79 L 466.38 782.70 L 460.63 778.01 L 455.01 772.67 L 449.52 766.64 L 444.14 759.87 L 438.89 752.32 L 433.76 743.92 L 428.77 734.60 L 423.93 724.31 L 419.26 712.96 L 414.76 700.50 L 410.47 686.83 L 406.40 671.87 Z" fill="url(#linearGradient-4)" fill-opacity="0.4" fill-rule="evenodd" group-id="1,2,8,23,37" node-id="362" stroke="none" target-height="223.96082" target-width="239.7203" target-x="399.98752" target-y="576.0392"></path></g><g node-id="515"><g node-id="529"><path d="M 424.26 667.46 L 421.81 657.60 L 420.13 648.73 L 419.16 640.76 L 418.86 634.65 L 419.05 629.11 L 419.69 624.08 L 420.74 619.51 L 421.98 615.91 L 423.55 612.60 L 425.46 609.56 L 427.71 606.76 L 430.31 604.18 L 433.12 601.98 L 436.37 599.97 L 440.09 598.16 L 444.35 596.57 L 449.19 595.21 L 452.28 594.42 L 454.24 594.15 L 456.35 594.28 L 460.62 594.43 L 487.49 594.54 L 572.37 594.28 L 579.07 594.59 L 585.22 595.46 L 590.86 596.85 L 596.07 598.73 L 600.12 600.70 L 603.79 602.96 L 607.12 605.50 L 610.11 608.35 L 612.79 611.50 L 615.10 614.91 L 617.03 618.60 L 618.58 622.60 L 619.76 626.95 L 620.54 631.67 L 620.85 636.27 L 620.72 641.19 L 620.12 646.49 L 619.00 652.19 L 617.31 658.34 L 614.84 666.19 L 612.81 672.17 L 609.92 680.00 L 606.58 688.26 L 602.37 697.62 L 597.61 707.07 L 592.02 716.87 L 587.92 723.28 L 583.48 729.52 L 578.67 735.61 L 573.51 741.39 L 568.01 746.74 L 562.15 751.67 L 557.50 755.03 L 552.65 758.02 L 547.58 760.63 L 542.28 762.89 L 536.84 764.68 L 531.15 765.99 L 525.17 766.80 L 518.86 767.11 L 511.86 766.83 L 505.17 766.01 L 498.76 764.66 L 492.59 762.80 L 486.64 760.41 L 480.89 757.48 L 475.32 754.01 L 469.91 749.96 L 464.65 745.31 L 459.54 740.00 L 454.57 734.00 L 449.74 727.26 L 445.05 719.70 L 440.52 711.28 L 436.16 701.92 L 431.98 691.54 L 428.01 680.09 L 424.26 667.46 Z" fill="#ed1f2a" fill-rule="evenodd" group-id="1,2,8,24,38" node-id="369" stroke="none" target-height="172.95404" target-width="201.98969" target-x="418.86163" target-y="594.15466"></path></g><path d="M 424.26 667.46 L 421.81 657.60 L 420.13 648.73 L 419.16 640.76 L 418.86 634.65 L 419.05 629.11 L 419.69 624.08 L 420.74 619.51 L 421.98 615.91 L 423.55 612.60 L 425.46 609.56 L 427.71 606.76 L 430.31 604.18 L 433.12 601.98 L 436.37 599.97 L 440.09 598.16 L 444.35 596.57 L 449.19 595.21 L 452.28 594.42 L 454.24 594.15 L 456.35 594.28 L 460.62 594.43 L 487.49 594.54 L 572.37 594.28 L 579.07 594.59 L 585.22 595.46 L 590.86 596.85 L 596.07 598.73 L 600.12 600.70 L 603.79 602.96 L 607.12 605.50 L 610.11 608.35 L 612.79 611.50 L 615.10 614.91 L 617.03 618.60 L 618.58 622.60 L 619.76 626.95 L 620.54 631.67 L 620.85 636.27 L 620.72 641.19 L 620.12 646.49 L 619.00 652.19 L 617.31 658.34 L 614.84 666.19 L 612.81 672.17 L 609.92 680.00 L 606.58 688.26 L 602.37 697.62 L 597.61 707.07 L 592.02 716.87 L 587.92 723.28 L 583.48 729.52 L 578.67 735.61 L 573.51 741.39 L 568.01 746.74 L 562.15 751.67 L 557.50 755.03 L 552.65 758.02 L 547.58 760.63 L 542.28 762.89 L 536.84 764.68 L 531.15 765.99 L 525.17 766.80 L 518.86 767.11 L 511.86 766.83 L 505.17 766.01 L 498.76 764.66 L 492.59 762.80 L 486.64 760.41 L 480.89 757.48 L 475.32 754.01 L 469.91 749.96 L 464.65 745.31 L 459.54 740.00 L 454.57 734.00 L 449.74 727.26 L 445.05 719.70 L 440.52 711.28 L 436.16 701.92 L 431.98 691.54 L 428.01 680.09 L 424.26 667.46 Z" fill="#000000" fill-rule="evenodd" filter="url(#filter-9)" group-id="1,2,8,24,39" node-id="374" stroke="none" target-height="172.95404" target-width="201.98969" target-x="418.86163" target-y="594.15466"></path></g><path d="M 519.86 703.68 L 526.49 703.94 L 532.86 704.61 L 538.99 705.68 L 544.90 707.16 L 550.76 709.04 L 556.29 711.22 L 561.51 713.67 L 566.45 716.42 L 571.25 719.50 L 575.65 722.75 L 579.66 726.15 L 583.32 729.72 L 579.36 734.78 L 575.15 739.61 L 570.70 744.22 L 565.98 748.55 L 561.03 752.51 L 555.82 756.11 L 550.35 759.28 L 544.61 761.96 L 538.57 764.15 L 533.94 765.41 L 529.13 766.33 L 524.11 766.90 L 518.86 767.11 L 511.63 766.81 L 504.71 765.93 L 498.10 764.49 L 491.74 762.49 L 485.62 759.93 L 479.71 756.80 L 473.98 753.08 L 468.44 748.73 L 463.05 743.73 L 457.82 738.03 L 452.74 731.57 L 456.60 727.78 L 460.88 724.12 L 465.62 720.61 L 470.58 717.41 L 475.88 714.46 L 481.55 711.76 L 487.39 709.43 L 493.48 707.45 L 499.86 705.84 L 506.33 704.66 L 512.99 703.94 L 519.86 703.68 Z" fill="url(#linearGradient-10)" fill-rule="evenodd" group-id="1,2,8" id="路径" node-id="118" stroke="none" target-height="63.423767" target-width="130.58542" target-x="452.73947" target-y="703.68494"></path><path d="M 424.26 667.46 L 422.26 659.61 L 420.76 652.39 L 419.71 645.74 L 419.07 639.64 L 418.86 633.31 L 419.19 627.61 L 420.01 622.47 L 421.27 617.82 L 422.73 614.20 L 424.56 610.89 L 426.76 607.85 L 429.36 605.07 L 432.37 602.53 L 435.55 600.42 L 439.23 598.53 L 443.46 596.86 L 448.32 595.43 L 453.87 594.28 L 471.72 596.05 L 489.25 597.21 L 506.45 597.77 L 523.35 597.75 L 539.97 597.16 L 556.30 596.00 L 572.37 594.28 L 579.07 594.59 L 585.22 595.46 L 590.86 596.85 L 596.07 598.73 L 600.12 600.70 L 603.79 602.96 L 607.12 605.50 L 610.11 608.35 L 612.79 611.50 L 615.10 614.91 L 617.03 618.60 L 618.58 622.60 L 619.76 626.95 L 620.54 631.67 L 620.85 636.27 L 620.72 641.19 L 620.12 646.49 L 619.00 652.19 L 617.31 658.34 L 614.84 666.19 L 612.81 672.17 L 609.92 680.00 L 606.58 688.26 L 602.37 697.62 L 597.61 707.07 L 592.02 716.87 L 587.92 723.28 L 583.48 729.52 L 578.67 735.61 L 573.51 741.39 L 568.01 746.74 L 562.15 751.67 L 557.50 755.03 L 552.65 758.02 L 547.58 760.63 L 542.28 762.89 L 536.84 764.68 L 531.15 765.99 L 525.17 766.80 L 518.86 767.11 L 511.86 766.83 L 505.17 766.01 L 498.76 764.66 L 492.59 762.80 L 486.64 760.41 L 480.89 757.48 L 475.32 754.01 L 469.91 749.96 L 464.65 745.31 L 459.54 740.00 L 454.57 734.00 L 449.74 727.26 L 445.05 719.70 L 440.52 711.28 L 436.16 701.92 L 431.98 691.54 L 428.01 680.09 L 424.26 667.46 Z" fill="#000000" fill-rule="evenodd" filter="url(#filter-12)" group-id="1,2,8,25,40" node-id="382" stroke="none" target-height="172.83093" target-width="201.98975" target-x="418.86157" target-y="594.2778"></path></g><g node-id="500"><path d="M 848.00 568.00 C 848.00 612.18 808.60 648.00 760.00 648.00 C 711.40 648.00 672.00 612.18 672.00 568.00 C 672.00 523.82 711.40 488.00 760.00 488.00 C 808.60 488.00 848.00 523.82 848.00 568.00 Z" fill="#ff5ea4" fill-opacity="0.8" fill-rule="evenodd" filter="url(#filter-13)" group-id="1,2,9" id="椭圆形" node-id="121" stroke="none" target-height="160" target-width="176" target-x="672" target-y="488"></path></g><path d="M 368.00 568.00 C 368.00 612.18 328.60 648.00 280.00 648.00 C 231.40 648.00 192.00 612.18 192.00 568.00 C 192.00 523.82 231.40 488.00 280.00 488.00 C 328.60 488.00 368.00 523.82 368.00 568.00 Z" fill="#ff5ea4" fill-opacity="0.8" fill-rule="evenodd" filter="url(#filter-14)" group-id="1,2,10" id="椭圆形备份-6" node-id="122" stroke="none" target-height="160" target-width="176" target-x="192" target-y="488"></path></g><g node-id="494"><g node-id="502"><path d="M 352.00 840.00 C 352.00 897.44 305.44 944.00 248.00 944.00 C 190.56 944.00 144.00 897.44 144.00 840.00 C 144.00 782.56 190.56 736.00 248.00 736.00 C 305.44 736.00 352.00 782.56 352.00 840.00 Z" fill="#000000" fill-rule="evenodd" filter="url(#filter-17)" group-id="1,3,11" node-id="399" stroke="none" target-height="208" target-width="208" target-x="144" target-y="736"></path></g><g node-id="503"><path d="M 352.00 840.00 C 352.00 897.44 305.44 944.00 248.00 944.00 C 190.56 944.00 144.00 897.44 144.00 840.00 C 144.00 782.56 190.56 736.00 248.00 736.00 C 305.44 736.00 352.00 782.56 352.00 840.00 Z" fill="url(#radialGradient-15)" fill-rule="evenodd" group-id="1,3,12" node-id="404" stroke="none" target-height="208" target-width="208" target-x="144" target-y="736"></path></g><path d="M 352.00 840.00 C 352.00 897.44 305.44 944.00 248.00 944.00 C 190.56 944.00 144.00 897.44 144.00 840.00 C 144.00 782.56 190.56 736.00 248.00 736.00 C 305.44 736.00 352.00 782.56 352.00 840.00 Z" fill="#000000" fill-rule="evenodd" filter="url(#filter-18)" group-id="1,3,13" node-id="409" stroke="none" target-height="208" target-width="208" target-x="144" target-y="736"></path></g><g node-id="495"><g node-id="505"><path d="M 896.00 840.00 C 896.00 897.44 849.44 944.00 792.00 944.00 C 734.56 944.00 688.00 897.44 688.00 840.00 C 688.00 782.56 734.56 736.00 792.00 736.00 C 849.44 736.00 896.00 782.56 896.00 840.00 Z" fill="#000000" fill-rule="evenodd" filter="url(#filter-20)" group-id="1,4,14" node-id="416" stroke="none" target-height="208" target-width="208" target-x="688" target-y="736"></path></g><g node-id="506"><path d="M 896.00 840.00 C 896.00 897.44 849.44 944.00 792.00 944.00 C 734.56 944.00 688.00 897.44 688.00 840.00 C 688.00 782.56 734.56 736.00 792.00 736.00 C 849.44 736.00 896.00 782.56 896.00 840.00 Z" fill="url(#radialGradient-15)" fill-rule="evenodd" group-id="1,4,15" node-id="421" stroke="none" target-height="208" target-width="208" target-x="688" target-y="736"></path></g><path d="M 896.00 840.00 C 896.00 897.44 849.44 944.00 792.00 944.00 C 734.56 944.00 688.00 897.44 688.00 840.00 C 688.00 782.56 734.56 736.00 792.00 736.00 C 849.44 736.00 896.00 782.56 896.00 840.00 Z" fill="#000000" fill-rule="evenodd" filter="url(#filter-21)" group-id="1,4,16" node-id="426" stroke="none" target-height="208" target-width="208" target-x="688" target-y="736"></path></g><g node-id="496"><g node-id="508"><g node-id="517"><path d="M 800.00 456.38 L 799.71 464.69 L 798.89 472.76 L 797.56 480.62 L 795.71 488.28 L 793.35 495.84 L 790.55 503.13 L 787.31 510.16 L 783.62 516.95 L 779.49 523.50 L 774.99 529.72 L 770.11 535.63 L 764.85 541.24 L 759.25 546.50 L 753.34 551.37 L 747.12 555.87 L 740.57 560.00 L 733.78 563.69 L 726.75 566.94 L 719.46 569.74 L 711.90 572.10 L 704.23 573.94 L 696.37 575.28 L 688.30 576.09 L 680.00 576.38 L 671.70 576.09 L 663.63 575.28 L 655.77 573.94 L 648.10 572.10 L 640.54 569.74 L 633.25 566.94 L 626.22 563.69 L 619.43 560.00 L 612.88 555.87 L 606.66 551.37 L 600.75 546.50 L 595.15 541.24 L 589.89 535.63 L 585.01 529.72 L 580.51 523.50 L 576.38 516.95 L 572.69 510.16 L 569.45 503.13 L 566.65 495.84 L 564.29 488.28 L 562.44 480.62 L 561.11 472.76 L 560.29 464.69 L 560.00 456.38 L 560.29 448.08 L 561.11 440.01 L 562.44 432.15 L 564.29 424.48 L 566.65 416.92 L 569.45 409.64 L 572.69 402.61 L 576.38 395.82 L 580.51 389.27 L 585.01 383.05 L 589.89 377.14 L 595.15 371.53 L 600.75 366.27 L 606.66 361.39 L 612.88 356.90 L 619.43 352.77 L 626.22 349.07 L 633.25 345.83 L 640.54 343.03 L 648.10 340.67 L 655.77 338.82 L 663.63 337.49 L 671.70 336.67 L 680.00 336.38 L 688.30 336.67 L 696.37 337.49 L 704.23 338.82 L 711.90 340.67 L 719.46 343.03 L 726.75 345.83 L 733.78 349.07 L 740.57 352.77 L 747.12 356.90 L 753.34 361.39 L 759.25 366.27 L 764.85 371.53 L 770.11 377.14 L 774.99 383.05 L 779.49 389.27 L 783.62 395.82 L 787.31 402.61 L 790.55 409.64 L 793.36 416.92 L 795.71 424.48 L 797.56 432.15 L 798.89 440.01 L 799.71 448.08 L 800.00 456.38 Z" fill="#000000" fill-rule="evenodd" filter="url(#filter-24)" group-id="1,5,17,26" node-id="434" stroke="none" target-height="240.00003" target-width="240" target-x="560" target-y="336.38364"></path></g><g node-id="518"><path d="M 800.00 456.38 L 799.71 464.69 L 798.89 472.76 L 797.56 480.62 L 795.71 488.28 L 793.35 495.84 L 790.55 503.13 L 787.31 510.16 L 783.62 516.95 L 779.49 523.50 L 774.99 529.72 L 770.11 535.63 L 764.85 541.24 L 759.25 546.50 L 753.34 551.37 L 747.12 555.87 L 740.57 560.00 L 733.78 563.69 L 726.75 566.94 L 719.46 569.74 L 711.90 572.10 L 704.23 573.94 L 696.37 575.28 L 688.30 576.09 L 680.00 576.38 L 671.70 576.09 L 663.63 575.28 L 655.77 573.94 L 648.10 572.10 L 640.54 569.74 L 633.25 566.94 L 626.22 563.69 L 619.43 560.00 L 612.88 555.87 L 606.66 551.37 L 600.75 546.50 L 595.15 541.24 L 589.89 535.63 L 585.01 529.72 L 580.51 523.50 L 576.38 516.95 L 572.69 510.16 L 569.45 503.13 L 566.65 495.84 L 564.29 488.28 L 562.44 480.62 L 561.11 472.76 L 560.29 464.69 L 560.00 456.38 L 560.29 448.08 L 561.11 440.01 L 562.44 432.15 L 564.29 424.48 L 566.65 416.92 L 569.45 409.64 L 572.69 402.61 L 576.38 395.82 L 580.51 389.27 L 585.01 383.05 L 589.89 377.14 L 595.15 371.53 L 600.75 366.27 L 606.66 361.39 L 612.88 356.90 L 619.43 352.77 L 626.22 349.07 L 633.25 345.83 L 640.54 343.03 L 648.10 340.67 L 655.77 338.82 L 663.63 337.49 L 671.70 336.67 L 680.00 336.38 L 688.30 336.67 L 696.37 337.49 L 704.23 338.82 L 711.90 340.67 L 719.46 343.03 L 726.75 345.83 L 733.78 349.07 L 740.57 352.77 L 747.12 356.90 L 753.34 361.39 L 759.25 366.27 L 764.85 371.53 L 770.11 377.14 L 774.99 383.05 L 779.49 389.27 L 783.62 395.82 L 787.31 402.61 L 790.55 409.64 L 793.36 416.92 L 795.71 424.48 L 797.56 432.15 L 798.89 440.01 L 799.71 448.08 L 800.00 456.38 Z" fill="url(#linearGradient-22)" fill-rule="evenodd" group-id="1,5,17,27" node-id="439" stroke="none" target-height="240.00003" target-width="240" target-x="560" target-y="336.38364"></path></g><path d="M 800.00 456.38 L 799.71 464.69 L 798.89 472.76 L 797.56 480.62 L 795.71 488.28 L 793.35 495.84 L 790.55 503.13 L 787.31 510.16 L 783.62 516.95 L 779.49 523.50 L 774.99 529.72 L 770.11 535.63 L 764.85 541.24 L 759.25 546.50 L 753.34 551.37 L 747.12 555.87 L 740.57 560.00 L 733.78 563.69 L 726.75 566.94 L 719.46 569.74 L 711.90 572.10 L 704.23 573.94 L 696.37 575.28 L 688.30 576.09 L 680.00 576.38 L 671.70 576.09 L 663.63 575.28 L 655.77 573.94 L 648.10 572.10 L 640.54 569.74 L 633.25 566.94 L 626.22 563.69 L 619.43 560.00 L 612.88 555.87 L 606.66 551.37 L 600.75 546.50 L 595.15 541.24 L 589.89 535.63 L 585.01 529.72 L 580.51 523.50 L 576.38 516.95 L 572.69 510.16 L 569.45 503.13 L 566.65 495.84 L 564.29 488.28 L 562.44 480.62 L 561.11 472.76 L 560.29 464.69 L 560.00 456.38 L 560.29 448.08 L 561.11 440.01 L 562.44 432.15 L 564.29 424.48 L 566.65 416.92 L 569.45 409.64 L 572.69 402.61 L 576.38 395.82 L 580.51 389.27 L 585.01 383.05 L 589.89 377.14 L 595.15 371.53 L 600.75 366.27 L 606.66 361.39 L 612.88 356.90 L 619.43 352.77 L 626.22 349.07 L 633.25 345.83 L 640.54 343.03 L 648.10 340.67 L 655.77 338.82 L 663.63 337.49 L 671.70 336.67 L 680.00 336.38 L 688.30 336.67 L 696.37 337.49 L 704.23 338.82 L 711.90 340.67 L 719.46 343.03 L 726.75 345.83 L 733.78 349.07 L 740.57 352.77 L 747.12 356.90 L 753.34 361.39 L 759.25 366.27 L 764.85 371.53 L 770.11 377.14 L 774.99 383.05 L 779.49 389.27 L 783.62 395.82 L 787.31 402.61 L 790.55 409.64 L 793.36 416.92 L 795.71 424.48 L 797.56 432.15 L 798.89 440.01 L 799.71 448.08 L 800.00 456.38 Z" fill="#000000" fill-rule="evenodd" filter="url(#filter-25)" group-id="1,5,17,28" node-id="444" stroke="none" target-height="240.00003" target-width="240" target-x="560" target-y="336.38364"></path></g><g node-id="509"><g node-id="520"><path d="M 753.85 456.38 L 753.59 462.52 L 752.87 468.44 L 751.70 474.17 L 750.08 479.72 L 748.02 485.16 L 745.59 490.34 L 742.79 495.28 L 739.60 500.00 L 736.06 504.46 L 732.22 508.60 L 728.07 512.44 L 723.61 515.98 L 718.90 519.17 L 713.96 521.97 L 708.78 524.41 L 703.34 526.47 L 697.78 528.08 L 692.05 529.25 L 686.13 529.97 L 680.00 530.23 L 673.87 529.97 L 667.95 529.25 L 662.22 528.08 L 656.66 526.47 L 651.22 524.41 L 646.04 521.97 L 641.10 519.17 L 636.39 515.98 L 631.93 512.44 L 627.78 508.60 L 623.94 504.46 L 620.40 500.00 L 617.21 495.28 L 614.41 490.34 L 611.98 485.16 L 609.92 479.72 L 608.30 474.17 L 607.13 468.44 L 606.41 462.52 L 606.15 456.38 L 606.41 450.25 L 607.13 444.33 L 608.30 438.60 L 609.92 433.04 L 611.98 427.60 L 614.41 422.42 L 617.21 417.48 L 620.40 412.77 L 623.94 408.31 L 627.78 404.17 L 631.93 400.33 L 636.39 396.79 L 641.10 393.60 L 646.04 390.79 L 651.22 388.36 L 656.66 386.30 L 662.22 384.69 L 667.95 383.52 L 673.87 382.80 L 680.00 382.54 L 686.13 382.80 L 692.05 383.52 L 697.78 384.69 L 703.34 386.30 L 708.78 388.36 L 713.96 390.79 L 718.90 393.60 L 723.61 396.79 L 728.07 400.33 L 732.22 404.17 L 736.06 408.31 L 739.60 412.77 L 742.79 417.48 L 745.59 422.42 L 748.02 427.60 L 750.08 433.04 L 751.70 438.60 L 752.87 444.33 L 753.59 450.25 L 753.85 456.38 Z" fill="#930027" fill-rule="evenodd" group-id="1,5,18,29" node-id="451" stroke="none" target-height="147.69232" target-width="147.69232" target-x="606.1539" target-y="382.53748"></path></g><path d="M 753.85 456.38 L 753.59 462.52 L 752.87 468.44 L 751.70 474.17 L 750.08 479.72 L 748.02 485.16 L 745.59 490.34 L 742.79 495.28 L 739.60 500.00 L 736.06 504.46 L 732.22 508.60 L 728.07 512.44 L 723.61 515.98 L 718.90 519.17 L 713.96 521.97 L 708.78 524.41 L 703.34 526.47 L 697.78 528.08 L 692.05 529.25 L 686.13 529.97 L 680.00 530.23 L 673.87 529.97 L 667.95 529.25 L 662.22 528.08 L 656.66 526.47 L 651.22 524.41 L 646.04 521.97 L 641.10 519.17 L 636.39 515.98 L 631.93 512.44 L 627.78 508.60 L 623.94 504.46 L 620.40 500.00 L 617.21 495.28 L 614.41 490.34 L 611.98 485.16 L 609.92 479.72 L 608.30 474.17 L 607.13 468.44 L 606.41 462.52 L 606.15 456.38 L 606.41 450.25 L 607.13 444.33 L 608.30 438.60 L 609.92 433.04 L 611.98 427.60 L 614.41 422.42 L 617.21 417.48 L 620.40 412.77 L 623.94 408.31 L 627.78 404.17 L 631.93 400.33 L 636.39 396.79 L 641.10 393.60 L 646.04 390.79 L 651.22 388.36 L 656.66 386.30 L 662.22 384.69 L 667.95 383.52 L 673.87 382.80 L 680.00 382.54 L 686.13 382.80 L 692.05 383.52 L 697.78 384.69 L 703.34 386.30 L 708.78 388.36 L 713.96 390.79 L 718.90 393.60 L 723.61 396.79 L 728.07 400.33 L 732.22 404.17 L 736.06 408.31 L 739.60 412.77 L 742.79 417.48 L 745.59 422.42 L 748.02 427.60 L 750.08 433.04 L 751.70 438.60 L 752.87 444.33 L 753.59 450.25 L 753.85 456.38 Z" fill="#000000" fill-rule="evenodd" filter="url(#filter-27)" group-id="1,5,18,30" node-id="456" stroke="none" target-height="147.69232" target-width="147.69232" target-x="606.1539" target-y="382.53748"></path></g><path d="M 716.92 456.38 L 716.72 460.22 L 716.16 463.88 L 715.26 467.38 L 714.02 470.76 L 711.87 475.04 L 709.23 478.94 L 706.11 482.49 L 702.56 485.62 L 698.66 488.25 L 694.37 490.41 L 691.00 491.65 L 687.49 492.55 L 683.83 493.10 L 680.00 493.31 L 676.17 493.10 L 672.51 492.55 L 669.00 491.65 L 665.63 490.41 L 661.34 488.25 L 657.44 485.62 L 653.89 482.49 L 650.77 478.94 L 648.13 475.04 L 645.98 470.76 L 644.74 467.38 L 643.84 463.88 L 643.28 460.22 L 643.08 456.38 L 643.28 452.55 L 643.84 448.89 L 644.74 445.38 L 645.98 442.01 L 648.13 437.73 L 650.77 433.82 L 653.89 430.28 L 657.44 427.15 L 661.34 424.52 L 665.63 422.36 L 669.00 421.12 L 672.51 420.22 L 676.17 419.67 L 680.00 419.46 L 683.83 419.67 L 687.49 420.22 L 691.00 421.12 L 694.37 422.36 L 698.66 424.52 L 702.56 427.15 L 706.11 430.28 L 709.23 433.82 L 711.87 437.73 L 714.02 442.01 L 715.26 445.38 L 716.16 448.89 L 716.72 452.55 L 716.92 456.38 Z" fill="#301502" fill-rule="evenodd" group-id="1,5" id="椭圆形" node-id="139" stroke="none" target-height="73.84613" target-width="73.84619" target-x="643.0769" target-y="419.46057"></path><path d="M 728.00 432.38 L 727.77 435.68 L 727.14 438.78 L 726.11 441.73 L 724.71 444.51 L 723.00 447.05 L 720.97 449.35 L 718.66 451.39 L 716.13 453.10 L 713.34 454.50 L 710.40 455.52 L 707.30 456.16 L 704.00 456.38 L 700.70 456.16 L 697.60 455.52 L 694.66 454.50 L 691.87 453.10 L 689.34 451.39 L 687.03 449.35 L 685.00 447.05 L 683.29 444.51 L 681.89 441.73 L 680.86 438.78 L 680.23 435.68 L 680.00 432.38 L 680.23 429.09 L 680.86 425.98 L 681.89 423.04 L 683.29 420.26 L 685.00 417.72 L 687.03 415.41 L 689.34 413.38 L 691.87 411.67 L 694.66 410.27 L 697.60 409.24 L 700.70 408.61 L 704.00 408.38 L 707.30 408.61 L 710.40 409.24 L 713.34 410.27 L 716.13 411.67 L 718.66 413.38 L 720.97 415.41 L 723.00 417.72 L 724.71 420.26 L 726.11 423.04 L 727.14 425.98 L 727.77 429.09 L 728.00 432.38 Z" fill="#ffffff" fill-rule="evenodd" group-id="1,5" id="椭圆形" node-id="140" stroke="none" target-height="48" target-width="48" target-x="680" target-y="408.38364"></path><path d="M 670.77 488.69 L 670.53 491.22 L 669.90 493.53 L 668.88 495.68 L 667.50 497.62 L 665.85 499.27 L 663.91 500.65 L 661.77 501.67 L 659.45 502.30 L 656.92 502.54 L 654.40 502.30 L 652.08 501.67 L 649.93 500.65 L 647.99 499.27 L 646.34 497.62 L 644.97 495.68 L 643.94 493.53 L 643.31 491.22 L 643.08 488.69 L 643.31 486.16 L 643.94 483.85 L 644.97 481.70 L 646.34 479.76 L 647.99 478.11 L 649.93 476.74 L 652.08 475.71 L 654.40 475.08 L 656.92 474.85 L 659.45 475.08 L 661.77 475.71 L 663.91 476.74 L 665.85 478.11 L 667.50 479.76 L 668.88 481.70 L 669.90 483.85 L 670.53 486.16 L 670.77 488.69 Z" fill="#ffffff" fill-rule="evenodd" group-id="1,5" id="椭圆形备份-5" node-id="141" stroke="none" target-height="27.692322" target-width="27.692322" target-x="643.0769" target-y="474.84515"></path></g><g node-id="497"><g node-id="510"><g node-id="522"><path d="M 464.00 456.38 L 463.71 464.69 L 462.89 472.76 L 461.56 480.62 L 459.71 488.28 L 457.35 495.84 L 454.55 503.13 L 451.31 510.16 L 447.62 516.95 L 443.49 523.50 L 438.99 529.72 L 434.11 535.63 L 428.85 541.24 L 423.25 546.50 L 417.34 551.37 L 411.12 555.87 L 404.57 560.00 L 397.78 563.69 L 390.75 566.94 L 383.46 569.74 L 375.90 572.10 L 368.23 573.94 L 360.37 575.28 L 352.30 576.09 L 344.00 576.38 L 335.70 576.09 L 327.63 575.28 L 319.77 573.94 L 312.10 572.10 L 304.54 569.74 L 297.25 566.94 L 290.22 563.69 L 283.43 560.00 L 276.88 555.87 L 270.66 551.37 L 264.75 546.50 L 259.15 541.24 L 253.89 535.63 L 249.01 529.72 L 244.51 523.50 L 240.38 516.95 L 236.69 510.16 L 233.45 503.13 L 230.65 495.84 L 228.29 488.28 L 226.44 480.62 L 225.11 472.76 L 224.29 464.69 L 224.00 456.38 L 224.29 448.08 L 225.11 440.01 L 226.44 432.15 L 228.29 424.48 L 230.65 416.92 L 233.45 409.64 L 236.69 402.61 L 240.38 395.82 L 244.51 389.27 L 249.01 383.05 L 253.89 377.14 L 259.15 371.53 L 264.75 366.27 L 270.66 361.39 L 276.88 356.90 L 283.43 352.77 L 290.22 349.07 L 297.25 345.83 L 304.54 343.03 L 312.10 340.67 L 319.77 338.82 L 327.63 337.49 L 335.70 336.67 L 344.00 336.38 L 352.30 336.67 L 360.37 337.49 L 368.23 338.82 L 375.90 340.67 L 383.46 343.03 L 390.75 345.83 L 397.78 349.07 L 404.57 352.77 L 411.12 356.90 L 417.34 361.39 L 423.25 366.27 L 428.85 371.53 L 434.11 377.14 L 438.99 383.05 L 443.49 389.27 L 447.62 395.82 L 451.31 402.61 L 454.55 409.64 L 457.35 416.92 L 459.71 424.48 L 461.56 432.15 L 462.89 440.01 L 463.71 448.08 L 464.00 456.38 Z" fill="#000000" fill-rule="evenodd" filter="url(#filter-29)" group-id="1,6,19,31" node-id="468" stroke="none" target-height="240.00003" target-width="240" target-x="224" target-y="336.38364"></path></g><g node-id="523"><path d="M 464.00 456.38 L 463.71 464.69 L 462.89 472.76 L 461.56 480.62 L 459.71 488.28 L 457.35 495.84 L 454.55 503.13 L 451.31 510.16 L 447.62 516.95 L 443.49 523.50 L 438.99 529.72 L 434.11 535.63 L 428.85 541.24 L 423.25 546.50 L 417.34 551.37 L 411.12 555.87 L 404.57 560.00 L 397.78 563.69 L 390.75 566.94 L 383.46 569.74 L 375.90 572.10 L 368.23 573.94 L 360.37 575.28 L 352.30 576.09 L 344.00 576.38 L 335.70 576.09 L 327.63 575.28 L 319.77 573.94 L 312.10 572.10 L 304.54 569.74 L 297.25 566.94 L 290.22 563.69 L 283.43 560.00 L 276.88 555.87 L 270.66 551.37 L 264.75 546.50 L 259.15 541.24 L 253.89 535.63 L 249.01 529.72 L 244.51 523.50 L 240.38 516.95 L 236.69 510.16 L 233.45 503.13 L 230.65 495.84 L 228.29 488.28 L 226.44 480.62 L 225.11 472.76 L 224.29 464.69 L 224.00 456.38 L 224.29 448.08 L 225.11 440.01 L 226.44 432.15 L 228.29 424.48 L 230.65 416.92 L 233.45 409.64 L 236.69 402.61 L 240.38 395.82 L 244.51 389.27 L 249.01 383.05 L 253.89 377.14 L 259.15 371.53 L 264.75 366.27 L 270.66 361.39 L 276.88 356.90 L 283.43 352.77 L 290.22 349.07 L 297.25 345.83 L 304.54 343.03 L 312.10 340.67 L 319.77 338.82 L 327.63 337.49 L 335.70 336.67 L 344.00 336.38 L 352.30 336.67 L 360.37 337.49 L 368.23 338.82 L 375.90 340.67 L 383.46 343.03 L 390.75 345.83 L 397.78 349.07 L 404.57 352.77 L 411.12 356.90 L 417.34 361.39 L 423.25 366.27 L 428.85 371.53 L 434.11 377.14 L 438.99 383.05 L 443.49 389.27 L 447.62 395.82 L 451.31 402.61 L 454.55 409.64 L 457.35 416.92 L 459.71 424.48 L 461.56 432.15 L 462.89 440.01 L 463.71 448.08 L 464.00 456.38 Z" fill="url(#linearGradient-22)" fill-rule="evenodd" group-id="1,6,19,32" node-id="473" stroke="none" target-height="240.00003" target-width="240" target-x="224" target-y="336.38364"></path></g><path d="M 464.00 456.38 L 463.71 464.69 L 462.89 472.76 L 461.56 480.62 L 459.71 488.28 L 457.35 495.84 L 454.55 503.13 L 451.31 510.16 L 447.62 516.95 L 443.49 523.50 L 438.99 529.72 L 434.11 535.63 L 428.85 541.24 L 423.25 546.50 L 417.34 551.37 L 411.12 555.87 L 404.57 560.00 L 397.78 563.69 L 390.75 566.94 L 383.46 569.74 L 375.90 572.10 L 368.23 573.94 L 360.37 575.28 L 352.30 576.09 L 344.00 576.38 L 335.70 576.09 L 327.63 575.28 L 319.77 573.94 L 312.10 572.10 L 304.54 569.74 L 297.25 566.94 L 290.22 563.69 L 283.43 560.00 L 276.88 555.87 L 270.66 551.37 L 264.75 546.50 L 259.15 541.24 L 253.89 535.63 L 249.01 529.72 L 244.51 523.50 L 240.38 516.95 L 236.69 510.16 L 233.45 503.13 L 230.65 495.84 L 228.29 488.28 L 226.44 480.62 L 225.11 472.76 L 224.29 464.69 L 224.00 456.38 L 224.29 448.08 L 225.11 440.01 L 226.44 432.15 L 228.29 424.48 L 230.65 416.92 L 233.45 409.64 L 236.69 402.61 L 240.38 395.82 L 244.51 389.27 L 249.01 383.05 L 253.89 377.14 L 259.15 371.53 L 264.75 366.27 L 270.66 361.39 L 276.88 356.90 L 283.43 352.77 L 290.22 349.07 L 297.25 345.83 L 304.54 343.03 L 312.10 340.67 L 319.77 338.82 L 327.63 337.49 L 335.70 336.67 L 344.00 336.38 L 352.30 336.67 L 360.37 337.49 L 368.23 338.82 L 375.90 340.67 L 383.46 343.03 L 390.75 345.83 L 397.78 349.07 L 404.57 352.77 L 411.12 356.90 L 417.34 361.39 L 423.25 366.27 L 428.85 371.53 L 434.11 377.14 L 438.99 383.05 L 443.49 389.27 L 447.62 395.82 L 451.31 402.61 L 454.55 409.64 L 457.35 416.92 L 459.71 424.48 L 461.56 432.15 L 462.89 440.01 L 463.71 448.08 L 464.00 456.38 Z" fill="#000000" fill-rule="evenodd" filter="url(#filter-30)" group-id="1,6,19,33" node-id="478" stroke="none" target-height="240.00003" target-width="240" target-x="224" target-y="336.38364"></path></g><g node-id="511"><g node-id="525"><path d="M 417.85 456.38 L 417.59 462.52 L 416.87 468.44 L 415.70 474.17 L 414.08 479.72 L 412.02 485.16 L 409.59 490.34 L 406.79 495.28 L 403.60 500.00 L 400.06 504.46 L 396.22 508.60 L 392.07 512.44 L 387.61 515.98 L 382.90 519.17 L 377.96 521.97 L 372.78 524.41 L 367.34 526.47 L 361.78 528.08 L 356.05 529.25 L 350.13 529.97 L 344.00 530.23 L 337.87 529.97 L 331.95 529.25 L 326.22 528.08 L 320.66 526.47 L 315.22 524.41 L 310.04 521.97 L 305.10 519.17 L 300.39 515.98 L 295.93 512.44 L 291.78 508.60 L 287.94 504.46 L 284.40 500.00 L 281.21 495.28 L 278.41 490.34 L 275.98 485.16 L 273.92 479.72 L 272.30 474.17 L 271.13 468.44 L 270.41 462.52 L 270.15 456.38 L 270.41 450.25 L 271.13 444.33 L 272.30 438.60 L 273.92 433.04 L 275.98 427.60 L 278.41 422.42 L 281.21 417.48 L 284.40 412.77 L 287.94 408.31 L 291.78 404.17 L 295.93 400.33 L 300.39 396.79 L 305.10 393.60 L 310.04 390.79 L 315.22 388.36 L 320.66 386.30 L 326.22 384.69 L 331.95 383.52 L 337.87 382.80 L 344.00 382.54 L 350.13 382.80 L 356.05 383.52 L 361.78 384.69 L 367.34 386.30 L 372.78 388.36 L 377.96 390.79 L 382.90 393.60 L 387.61 396.79 L 392.07 400.33 L 396.22 404.17 L 400.06 408.31 L 403.60 412.77 L 406.79 417.48 L 409.59 422.42 L 412.02 427.60 L 414.08 433.04 L 415.70 438.60 L 416.87 444.33 L 417.59 450.25 L 417.85 456.38 Z" fill="#930027" fill-rule="evenodd" group-id="1,6,20,34" node-id="485" stroke="none" target-height="147.69232" target-width="147.69232" target-x="270.15384" target-y="382.53748"></path></g><path d="M 417.85 456.38 L 417.59 462.52 L 416.87 468.44 L 415.70 474.17 L 414.08 479.72 L 412.02 485.16 L 409.59 490.34 L 406.79 495.28 L 403.60 500.00 L 400.06 504.46 L 396.22 508.60 L 392.07 512.44 L 387.61 515.98 L 382.90 519.17 L 377.96 521.97 L 372.78 524.41 L 367.34 526.47 L 361.78 528.08 L 356.05 529.25 L 350.13 529.97 L 344.00 530.23 L 337.87 529.97 L 331.95 529.25 L 326.22 528.08 L 320.66 526.47 L 315.22 524.41 L 310.04 521.97 L 305.10 519.17 L 300.39 515.98 L 295.93 512.44 L 291.78 508.60 L 287.94 504.46 L 284.40 500.00 L 281.21 495.28 L 278.41 490.34 L 275.98 485.16 L 273.92 479.72 L 272.30 474.17 L 271.13 468.44 L 270.41 462.52 L 270.15 456.38 L 270.41 450.25 L 271.13 444.33 L 272.30 438.60 L 273.92 433.04 L 275.98 427.60 L 278.41 422.42 L 281.21 417.48 L 284.40 412.77 L 287.94 408.31 L 291.78 404.17 L 295.93 400.33 L 300.39 396.79 L 305.10 393.60 L 310.04 390.79 L 315.22 388.36 L 320.66 386.30 L 326.22 384.69 L 331.95 383.52 L 337.87 382.80 L 344.00 382.54 L 350.13 382.80 L 356.05 383.52 L 361.78 384.69 L 367.34 386.30 L 372.78 388.36 L 377.96 390.79 L 382.90 393.60 L 387.61 396.79 L 392.07 400.33 L 396.22 404.17 L 400.06 408.31 L 403.60 412.77 L 406.79 417.48 L 409.59 422.42 L 412.02 427.60 L 414.08 433.04 L 415.70 438.60 L 416.87 444.33 L 417.59 450.25 L 417.85 456.38 Z" fill="#000000" fill-rule="evenodd" filter="url(#filter-32)" group-id="1,6,20,35" node-id="490" stroke="none" target-height="147.69232" target-width="147.69232" target-x="270.15384" target-y="382.53748"></path></g><path d="M 380.92 456.38 L 380.72 460.22 L 380.16 463.88 L 379.26 467.38 L 378.02 470.76 L 375.87 475.04 L 373.23 478.94 L 370.11 482.49 L 366.56 485.62 L 362.66 488.25 L 358.37 490.41 L 355.00 491.65 L 351.49 492.55 L 347.83 493.10 L 344.00 493.31 L 340.17 493.10 L 336.51 492.55 L 333.00 491.65 L 329.63 490.41 L 325.34 488.25 L 321.44 485.62 L 317.89 482.49 L 314.77 478.94 L 312.13 475.04 L 309.98 470.76 L 308.74 467.38 L 307.84 463.88 L 307.28 460.22 L 307.08 456.38 L 307.28 452.55 L 307.84 448.89 L 308.74 445.38 L 309.98 442.01 L 312.13 437.73 L 314.77 433.82 L 317.89 430.28 L 321.44 427.15 L 325.34 424.52 L 329.63 422.36 L 333.00 421.12 L 336.51 420.22 L 340.17 419.67 L 344.00 419.46 L 347.83 419.67 L 351.49 420.22 L 355.00 421.12 L 358.37 422.36 L 362.66 424.52 L 366.56 427.15 L 370.11 430.28 L 373.23 433.82 L 375.87 437.73 L 378.02 442.01 L 379.26 445.38 L 380.16 448.89 L 380.72 452.55 L 380.92 456.38 Z" fill="#301502" fill-rule="evenodd" group-id="1,6" id="椭圆形" node-id="150" stroke="none" target-height="73.84613" target-width="73.84619" target-x="307.0769" target-y="419.46057"></path><path d="M 392.00 432.38 L 391.77 435.68 L 391.14 438.78 L 390.11 441.73 L 388.71 444.51 L 387.00 447.05 L 384.97 449.35 L 382.66 451.39 L 380.13 453.10 L 377.34 454.50 L 374.40 455.52 L 371.30 456.16 L 368.00 456.38 L 364.70 456.16 L 361.60 455.52 L 358.66 454.50 L 355.87 453.10 L 353.34 451.39 L 351.03 449.35 L 349.00 447.05 L 347.29 444.51 L 345.89 441.73 L 344.86 438.78 L 344.23 435.68 L 344.00 432.38 L 344.23 429.09 L 344.86 425.98 L 345.89 423.04 L 347.29 420.26 L 349.00 417.72 L 351.03 415.41 L 353.34 413.38 L 355.87 411.67 L 358.66 410.27 L 361.60 409.24 L 364.70 408.61 L 368.00 408.38 L 371.30 408.61 L 374.40 409.24 L 377.34 410.27 L 380.13 411.67 L 382.66 413.38 L 384.97 415.41 L 387.00 417.72 L 388.71 420.26 L 390.11 423.04 L 391.14 425.98 L 391.77 429.09 L 392.00 432.38 Z" fill="#ffffff" fill-rule="evenodd" group-id="1,6" id="椭圆形" node-id="151" stroke="none" target-height="48" target-width="48" target-x="344" target-y="408.38364"></path><path d="M 334.77 488.69 L 334.53 491.22 L 333.90 493.53 L 332.88 495.68 L 331.50 497.62 L 329.85 499.27 L 327.91 500.65 L 325.77 501.67 L 323.45 502.30 L 320.92 502.54 L 318.40 502.30 L 316.08 501.67 L 313.93 500.65 L 311.99 499.27 L 310.34 497.62 L 308.97 495.68 L 307.94 493.53 L 307.31 491.22 L 307.08 488.69 L 307.31 486.16 L 307.94 483.85 L 308.97 481.70 L 310.34 479.76 L 311.99 478.11 L 313.93 476.74 L 316.08 475.71 L 318.40 475.08 L 320.92 474.85 L 323.45 475.08 L 325.77 475.71 L 327.91 476.74 L 329.85 478.11 L 331.50 479.76 L 332.88 481.70 L 333.90 483.85 L 334.53 486.16 L 334.77 488.69 Z" fill="#ffffff" fill-rule="evenodd" group-id="1,6" id="椭圆形备份-5" node-id="152" stroke="none" target-height="27.692322" target-width="27.692322" target-x="307.0769" target-y="474.84515"></path></g><path d="M 272.99 299.68 C 310.35 272.79 351.88 272.79 395.19 299.17 C 400.85 302.62 402.65 310.00 399.20 315.66 C 395.75 321.32 388.37 323.12 382.71 319.67 C 347.34 298.13 316.23 298.13 287.01 319.16 C 281.63 323.03 274.13 321.81 270.26 316.43 C 266.39 311.05 267.61 303.55 272.99 299.68 Z" fill="#a05400" fill-rule="nonzero" group-id="1" id="路径-2" node-id="153" stroke="none" target-height="50.32733" target-width="136.25833" target-x="266.38892" target-y="272.79132"></path><path d="M 608.99 299.68 C 646.35 272.79 687.88 272.79 731.19 299.17 C 736.85 302.62 738.65 310.00 735.20 315.66 C 731.75 321.32 724.37 323.12 718.71 319.67 C 683.34 298.13 652.23 298.13 623.01 319.16 C 617.63 323.03 610.13 321.81 606.26 316.43 C 602.39 311.05 603.61 303.55 608.99 299.68 Z" fill="#a05400" fill-rule="nonzero" group-id="1" id="路径-2备份" node-id="154" stroke="none" target-height="50.32733" target-width="136.2583" target-x="602.3889" target-y="272.79132"></path></g></svg>