<?xml version="1.0" standalone="no"?><!DOCTYPE svg PUBLIC "-//W3C//DTD SVG 1.1//EN" "http://www.w3.org/Graphics/SVG/1.1/DTD/svg11.dtd"><svg height="1024" node-id="1" sillyvg="true" template-height="1024" template-width="1024" version="1.1" viewBox="0 0 1024 1024" width="1024" xmlns="http://www.w3.org/2000/svg" xmlns:xlink="http://www.w3.org/1999/xlink"><defs node-id="100"><radialGradient cx="0.5" cy="0.19668992" fx="0.5" fy="0.19668992" gradientTransform="matrix(0 1 -0.912281 0 0.67943655 -0.30331)" gradientUnits="objectBoundingBox" id="radialGradient-1" node-id="5" r="0.9393923" rev="3" spreadMethod="pad"><stop offset="0" stop-color="#ffe476"></stop><stop offset="0.41387266" stop-color="#fcec6c"></stop><stop offset="1" stop-color="#ffb02f"></stop></radialGradient><linearGradient gradientUnits="objectBoundingBox" id="linearGradient-6" node-id="19" spreadMethod="pad" x1="0.5" x2="0.5" y1="0" y2="1"><stop offset="0" stop-color="#ffffff"></stop><stop offset="1" stop-color="#ffedbe"></stop></linearGradient><linearGradient gradientUnits="objectBoundingBox" id="linearGradient-12" node-id="38" spreadMethod="pad" x1="0.5" x2="0.5" y1="0" y2="1"><stop offset="0" stop-color="#ffffff"></stop><stop offset="1" stop-color="#ffedbe"></stop></linearGradient><filter height="1.173" id="filter-3" node-id="10" width="1.158" x="-0.079" y="-0.087"><feGaussianBlur color-interpolation-filters="linearRGB" in="SourceAlpha" result="shadowBlurInner1" stdDeviation="64 64"></feGaussianBlur><feOffset color-interpolation-filters="linearRGB" dx="0" dy="16" in="shadowBlurInner1" result="shadowOffsetInner1"></feOffset><feComposite color-interpolation-filters="linearRGB" in="shadowOffsetInner1" in2="SourceAlpha" k1="0" k2="-1" k3="1" k4="0" operator="arithmetic" result="shadowInnerInner1"></feComposite><feColorMatrix color-interpolation-filters="linearRGB" in="shadowInnerInner1" result="result4" type="matrix" values="0 0 0 0 0.968627451 0 0 0 0 0.68627451 0 0 0 0 0.270588235 0 0 0 0.501145583 0"></feColorMatrix></filter><filter height="2.8" id="filter-4" node-id="15" width="2.636" x="-0.818" y="-0.9"><feGaussianBlur color-interpolation-filters="linearRGB" in="SourceGraphic" result="result1" stdDeviation="48 48"></feGaussianBlur></filter><filter height="2.8" id="filter-5" node-id="17" width="2.636" x="-0.818" y="-0.9"><feGaussianBlur color-interpolation-filters="linearRGB" in="SourceGraphic" result="result1" stdDeviation="48 48"></feGaussianBlur></filter><filter height="1.75" id="filter-8" node-id="23" width="1.923" x="-0.462" y="-0.375"><feOffset color-interpolation-filters="linearRGB" dx="0" dy="0" in="SourceAlpha" result="shadowOffsetOuter1"></feOffset><feGaussianBlur color-interpolation-filters="linearRGB" in="shadowOffsetOuter1" result="shadowBlurOuter1" stdDeviation="32 32"></feGaussianBlur><feColorMatrix color-interpolation-filters="linearRGB" in="shadowBlurOuter1" result="result3" type="matrix" values="0 0 0 0 0.888848346 0 0 0 0 0.591702642 0 0 0 0 0.178785883 0 0 0 1 0"></feColorMatrix></filter><filter height="1.625" id="filter-9" node-id="27" width="1.769" x="-0.385" y="-0.312"><feGaussianBlur color-interpolation-filters="linearRGB" in="SourceAlpha" result="shadowBlurInner1" stdDeviation="16 16"></feGaussianBlur><feOffset color-interpolation-filters="linearRGB" dx="0" dy="0" in="shadowBlurInner1" result="shadowOffsetInner1"></feOffset><feComposite color-interpolation-filters="linearRGB" in="shadowOffsetInner1" in2="SourceAlpha" k1="0" k2="-1" k3="1" k4="0" operator="arithmetic" result="shadowInnerInner1"></feComposite><feColorMatrix color-interpolation-filters="linearRGB" in="shadowInnerInner1" result="result4" type="matrix" values="0 0 0 0 1 0 0 0 0 0.880587925 0 0 0 0 0.537254902 0 0 0 0.500726446 0"></feColorMatrix></filter><filter height="1.217" id="filter-11" node-id="33" width="1.217" x="-0.108" y="-0.108"><feGaussianBlur color-interpolation-filters="linearRGB" in="SourceAlpha" result="shadowBlurInner1" stdDeviation="16 16"></feGaussianBlur><feOffset color-interpolation-filters="linearRGB" dx="0" dy="0" in="shadowBlurInner1" result="shadowOffsetInner1"></feOffset><feComposite color-interpolation-filters="linearRGB" in="shadowOffsetInner1" in2="SourceAlpha" k1="0" k2="-1" k3="1" k4="0" operator="arithmetic" result="shadowInnerInner1"></feComposite><feColorMatrix color-interpolation-filters="linearRGB" in="shadowInnerInner1" result="result4" type="matrix" values="0 0 0 0 0.322660142 0 0 0 0 0 0 0 0 0 0.0976114716 0 0 0 1 0"></feColorMatrix></filter><filter height="1.75" id="filter-14" node-id="42" width="1.857" x="-0.429" y="-0.375"><feOffset color-interpolation-filters="linearRGB" dx="0" dy="0" in="SourceAlpha" result="shadowOffsetOuter1"></feOffset><feGaussianBlur color-interpolation-filters="linearRGB" in="shadowOffsetOuter1" result="shadowBlurOuter1" stdDeviation="32 32"></feGaussianBlur><feColorMatrix color-interpolation-filters="linearRGB" in="shadowBlurOuter1" result="result3" type="matrix" values="0 0 0 0 0.888848346 0 0 0 0 0.591702642 0 0 0 0 0.178785883 0 0 0 1 0"></feColorMatrix></filter><filter height="1.625" id="filter-15" node-id="46" width="1.714" x="-0.357" y="-0.312"><feGaussianBlur color-interpolation-filters="linearRGB" in="SourceAlpha" result="shadowBlurInner1" stdDeviation="16 16"></feGaussianBlur><feOffset color-interpolation-filters="linearRGB" dx="0" dy="0" in="shadowBlurInner1" result="shadowOffsetInner1"></feOffset><feComposite color-interpolation-filters="linearRGB" in="shadowOffsetInner1" in2="SourceAlpha" k1="0" k2="-1" k3="1" k4="0" operator="arithmetic" result="shadowInnerInner1"></feComposite><feColorMatrix color-interpolation-filters="linearRGB" in="shadowInnerInner1" result="result4" type="matrix" values="0 0 0 0 1 0 0 0 0 0.880587925 0 0 0 0 0.537254902 0 0 0 0.500726446 0"></feColorMatrix></filter><filter height="1.217" id="filter-17" node-id="52" width="1.217" x="-0.108" y="-0.108"><feGaussianBlur color-interpolation-filters="linearRGB" in="SourceAlpha" result="shadowBlurInner1" stdDeviation="16 16"></feGaussianBlur><feOffset color-interpolation-filters="linearRGB" dx="0" dy="0" in="shadowBlurInner1" result="shadowOffsetInner1"></feOffset><feComposite color-interpolation-filters="linearRGB" in="shadowOffsetInner1" in2="SourceAlpha" k1="0" k2="-1" k3="1" k4="0" operator="arithmetic" result="shadowInnerInner1"></feComposite><feColorMatrix color-interpolation-filters="linearRGB" in="shadowInnerInner1" result="result4" type="matrix" values="0 0 0 0 0.322660142 0 0 0 0 0 0 0 0 0 0.0976114716 0 0 0 1 0"></feColorMatrix></filter><filter height="1.167" id="filter-19" node-id="58" width="1.048" x="-0.024" y="-0.083"><feGaussianBlur color-interpolation-filters="linearRGB" in="SourceAlpha" result="shadowBlurInner1" stdDeviation="8 8"></feGaussianBlur><feOffset color-interpolation-filters="linearRGB" dx="0" dy="0" in="shadowBlurInner1" result="shadowOffsetInner1"></feOffset><feComposite color-interpolation-filters="linearRGB" in="shadowOffsetInner1" in2="SourceAlpha" k1="0" k2="-1" k3="1" k4="0" operator="arithmetic" result="shadowInnerInner1"></feComposite><feColorMatrix color-interpolation-filters="linearRGB" in="shadowInnerInner1" result="result4" type="matrix" values="0 0 0 0 0.661258421 0 0 0 0 0.0872254633 0 0 0 0 0.00982776113 0 0 0 1 0"></feColorMatrix></filter></defs><g node-id="314"><path d="M 0.00 0.00 L 1024.00 0.00 L 1024.00 1024.00 L 0.00 1024.00 Z" fill="none" group-id="1" id="矩形" node-id="65" stroke="none" target-height="1024" target-width="1024" target-x="0" target-y="0"></path><g node-id="315"><g node-id="317"><g node-id="324"><path d="M 470.86 96.38 L 485.27 96.01 L 499.38 96.26 L 513.21 97.12 L 526.78 98.56 L 540.11 100.60 L 553.45 103.25 L 566.45 106.45 L 579.14 110.18 L 591.52 114.44 L 603.62 119.24 L 615.55 124.62 L 627.10 130.48 L 638.29 136.81 L 649.13 143.63 L 659.63 150.95 L 669.80 158.75 L 679.54 166.99 L 688.88 175.66 L 697.82 184.77 L 706.36 194.34 L 714.43 204.28 L 722.02 214.61 L 729.16 225.35 L 735.83 236.49 L 742.05 248.07 L 753.36 253.33 L 764.52 258.98 L 775.54 265.01 L 786.41 271.43 L 797.15 278.25 L 810.23 287.24 L 822.93 296.74 L 835.27 306.77 L 847.26 317.34 L 856.54 326.15 L 865.50 335.23 L 874.13 344.59 L 882.46 354.24 L 890.47 364.18 L 898.14 374.40 L 905.41 384.85 L 912.28 395.53 L 918.76 406.44 L 924.86 417.61 L 930.52 428.99 L 935.71 440.56 L 940.44 452.32 L 944.70 464.28 L 948.49 476.45 L 951.77 488.74 L 954.50 501.18 L 956.70 513.79 L 958.35 526.58 L 959.46 539.55 L 959.98 552.48 L 959.88 565.54 L 959.17 578.77 L 957.83 592.16 L 955.84 605.75 L 953.02 620.58 L 949.77 634.95 L 946.10 648.88 L 942.01 662.38 L 937.51 675.47 L 932.61 688.17 L 927.16 700.86 L 921.32 713.16 L 915.10 725.06 L 908.50 736.57 L 901.52 747.73 L 894.15 758.52 L 886.33 769.08 L 878.15 779.28 L 869.61 789.13 L 860.71 798.64 L 851.44 807.81 L 841.79 816.64 L 831.85 825.09 L 821.58 833.20 L 810.95 840.98 L 799.96 848.44 L 788.61 855.57 L 776.88 862.38 L 768.16 867.78 L 758.82 873.07 L 748.83 878.22 L 738.14 883.24 L 727.49 887.78 L 716.08 892.19 L 703.87 896.45 L 690.83 900.56 L 677.95 904.20 L 664.18 907.67 L 649.47 910.97 L 633.78 914.08 L 618.38 916.75 L 601.95 919.23 L 584.46 921.49 L 565.85 923.53 L 544.70 925.39 L 523.95 926.75 L 503.60 927.61 L 483.64 927.98 L 464.05 927.87 L 444.19 927.26 L 424.81 926.15 L 405.90 924.54 L 387.44 922.45 L 369.42 919.89 L 351.22 916.75 L 333.57 913.11 L 316.44 908.98 L 299.82 904.39 L 283.69 899.32 L 270.19 894.59 L 257.10 889.51 L 244.41 884.11 L 232.10 878.37 L 220.16 872.30 L 208.58 865.90 L 197.11 859.00 L 186.06 851.76 L 175.42 844.18 L 165.17 836.25 L 155.30 827.97 L 145.82 819.34 L 136.67 810.30 L 127.95 800.89 L 119.64 791.11 L 111.74 780.93 L 104.23 770.36 L 97.12 759.39 L 90.56 748.22 L 84.43 736.64 L 78.73 724.62 L 73.45 712.15 L 68.61 699.21 L 64.21 685.77 L 60.46 672.48 L 57.16 658.70 L 54.34 644.41 L 51.99 629.58 L 50.15 614.19 L 48.82 598.22 L 48.14 583.09 L 48.03 568.57 L 48.46 554.63 L 49.41 541.24 L 50.86 528.37 L 52.90 515.28 L 55.42 502.70 L 58.40 490.60 L 61.84 478.97 L 65.72 467.78 L 70.18 456.62 L 75.06 445.89 L 80.35 435.54 L 86.05 425.58 L 92.18 415.98 L 98.77 406.63 L 105.74 397.62 L 113.10 388.93 L 120.85 380.56 L 129.01 372.50 L 137.46 364.81 L 146.28 357.41 L 155.46 350.29 L 165.02 343.45 L 174.97 336.88 L 177.90 323.41 L 181.19 310.46 L 184.84 298.03 L 188.83 286.10 L 193.16 274.63 L 197.83 263.62 L 202.81 253.05 L 208.38 242.41 L 214.26 232.20 L 220.44 222.43 L 226.94 213.08 L 233.74 204.13 L 240.85 195.57 L 248.28 187.38 L 257.46 178.18 L 267.02 169.49 L 276.99 161.29 L 287.37 153.58 L 298.17 146.34 L 309.42 139.58 L 320.87 133.40 L 332.72 127.67 L 344.96 122.40 L 357.62 117.59 L 370.72 113.23 L 384.27 109.34 L 397.70 106.05 L 411.52 103.20 L 425.72 100.79 L 440.34 98.85 L 455.38 97.37 L 470.86 96.38 Z" fill="url(#radialGradient-1)" fill-rule="evenodd" group-id="1,2,4,11" node-id="214" stroke="none" target-height="831.9669" target-width="911.9464" target-x="48.031116" target-y="96.01346"></path></g><path d="M 470.86 96.38 L 485.27 96.01 L 499.38 96.26 L 513.21 97.12 L 526.78 98.56 L 540.11 100.60 L 553.45 103.25 L 566.45 106.45 L 579.14 110.18 L 591.52 114.44 L 603.62 119.24 L 615.55 124.62 L 627.10 130.48 L 638.29 136.81 L 649.13 143.63 L 659.63 150.95 L 669.80 158.75 L 679.54 166.99 L 688.88 175.66 L 697.82 184.77 L 706.36 194.34 L 714.43 204.28 L 722.02 214.61 L 729.16 225.35 L 735.83 236.49 L 742.05 248.07 L 753.36 253.33 L 764.52 258.98 L 775.54 265.01 L 786.41 271.43 L 797.15 278.25 L 810.23 287.24 L 822.93 296.74 L 835.27 306.77 L 847.26 317.34 L 856.54 326.15 L 865.50 335.23 L 874.13 344.59 L 882.46 354.24 L 890.47 364.18 L 898.14 374.40 L 905.41 384.85 L 912.28 395.53 L 918.76 406.44 L 924.86 417.61 L 930.52 428.99 L 935.71 440.56 L 940.44 452.32 L 944.70 464.28 L 948.49 476.45 L 951.77 488.74 L 954.50 501.18 L 956.70 513.79 L 958.35 526.58 L 959.46 539.55 L 959.98 552.48 L 959.88 565.54 L 959.17 578.77 L 957.83 592.16 L 955.84 605.75 L 953.02 620.58 L 949.77 634.95 L 946.10 648.88 L 942.01 662.38 L 937.51 675.47 L 932.61 688.17 L 927.16 700.86 L 921.32 713.16 L 915.10 725.06 L 908.50 736.57 L 901.52 747.73 L 894.15 758.52 L 886.33 769.08 L 878.15 779.28 L 869.61 789.13 L 860.71 798.64 L 851.44 807.81 L 841.79 816.64 L 831.85 825.09 L 821.58 833.20 L 810.95 840.98 L 799.96 848.44 L 788.61 855.57 L 776.88 862.38 L 768.16 867.78 L 758.82 873.07 L 748.83 878.22 L 738.14 883.24 L 727.49 887.78 L 716.08 892.19 L 703.87 896.45 L 690.83 900.56 L 677.95 904.20 L 664.18 907.67 L 649.47 910.97 L 633.78 914.08 L 618.38 916.75 L 601.95 919.23 L 584.46 921.49 L 565.85 923.53 L 544.70 925.39 L 523.95 926.75 L 503.60 927.61 L 483.64 927.98 L 464.05 927.87 L 444.19 927.26 L 424.81 926.15 L 405.90 924.54 L 387.44 922.45 L 369.42 919.89 L 351.22 916.75 L 333.57 913.11 L 316.44 908.98 L 299.82 904.39 L 283.69 899.32 L 270.19 894.59 L 257.10 889.51 L 244.41 884.11 L 232.10 878.37 L 220.16 872.30 L 208.58 865.90 L 197.11 859.00 L 186.06 851.76 L 175.42 844.18 L 165.17 836.25 L 155.30 827.97 L 145.82 819.34 L 136.67 810.30 L 127.95 800.89 L 119.64 791.11 L 111.74 780.93 L 104.23 770.36 L 97.12 759.39 L 90.56 748.22 L 84.43 736.64 L 78.73 724.62 L 73.45 712.15 L 68.61 699.21 L 64.21 685.77 L 60.46 672.48 L 57.16 658.70 L 54.34 644.41 L 51.99 629.58 L 50.15 614.19 L 48.82 598.22 L 48.14 583.09 L 48.03 568.57 L 48.46 554.63 L 49.41 541.24 L 50.86 528.37 L 52.90 515.28 L 55.42 502.70 L 58.40 490.60 L 61.84 478.97 L 65.72 467.78 L 70.18 456.62 L 75.06 445.89 L 80.35 435.54 L 86.05 425.58 L 92.18 415.98 L 98.77 406.63 L 105.74 397.62 L 113.10 388.93 L 120.85 380.56 L 129.01 372.50 L 137.46 364.81 L 146.28 357.41 L 155.46 350.29 L 165.02 343.45 L 174.97 336.88 L 177.90 323.41 L 181.19 310.46 L 184.84 298.03 L 188.83 286.10 L 193.16 274.63 L 197.83 263.62 L 202.81 253.05 L 208.38 242.41 L 214.26 232.20 L 220.44 222.43 L 226.94 213.08 L 233.74 204.13 L 240.85 195.57 L 248.28 187.38 L 257.46 178.18 L 267.02 169.49 L 276.99 161.29 L 287.37 153.58 L 298.17 146.34 L 309.42 139.58 L 320.87 133.40 L 332.72 127.67 L 344.96 122.40 L 357.62 117.59 L 370.72 113.23 L 384.27 109.34 L 397.70 106.05 L 411.52 103.20 L 425.72 100.79 L 440.34 98.85 L 455.38 97.37 L 470.86 96.38 Z" fill="#000000" fill-rule="evenodd" filter="url(#filter-3)" group-id="1,2,4,12" node-id="219" stroke="none" target-height="831.9669" target-width="911.9464" target-x="48.031116" target-y="96.01346"></path></g><g node-id="318"><path d="M 832.00 536.00 L 831.69 542.63 L 830.84 549.04 L 829.44 555.25 L 827.51 561.29 L 825.07 567.15 L 822.18 572.76 L 818.84 578.12 L 815.02 583.25 L 810.82 588.06 L 806.26 592.54 L 801.31 596.71 L 795.97 600.56 L 790.38 604.00 L 784.50 607.04 L 778.32 609.68 L 771.81 611.92 L 765.20 613.67 L 758.38 614.94 L 751.32 615.72 L 744.00 616.00 L 736.68 615.72 L 729.62 614.94 L 722.80 613.67 L 716.19 611.92 L 709.68 609.68 L 703.50 607.04 L 697.62 604.00 L 692.03 600.56 L 686.69 596.71 L 681.74 592.54 L 677.18 588.06 L 672.98 583.25 L 669.16 578.12 L 665.82 572.76 L 662.93 567.15 L 660.49 561.29 L 658.56 555.25 L 657.16 549.04 L 656.31 542.63 L 656.00 536.00 L 656.31 529.37 L 657.16 522.96 L 658.56 516.75 L 660.49 510.71 L 662.93 504.85 L 665.82 499.24 L 669.16 493.88 L 672.98 488.75 L 677.18 483.94 L 681.74 479.46 L 686.69 475.29 L 692.03 471.44 L 697.62 468.00 L 703.50 464.96 L 709.68 462.32 L 716.19 460.08 L 722.80 458.33 L 729.62 457.06 L 736.68 456.28 L 744.00 456.00 L 751.32 456.28 L 758.38 457.06 L 765.20 458.33 L 771.81 460.08 L 778.32 462.32 L 784.50 464.96 L 790.38 468.00 L 795.97 471.44 L 801.31 475.29 L 806.26 479.46 L 810.82 483.94 L 815.02 488.75 L 818.84 493.88 L 822.18 499.24 L 825.07 504.85 L 827.51 510.71 L 829.44 516.75 L 830.84 522.96 L 831.69 529.37 L 832.00 536.00 Z" fill="#ff5ea4" fill-opacity="0.8" fill-rule="evenodd" filter="url(#filter-4)" group-id="1,2,5" id="椭圆形" node-id="70" stroke="none" target-height="160" target-width="176" target-x="656" target-y="456"></path></g><g node-id="319"><path d="M 352.00 536.00 L 351.69 542.63 L 350.84 549.04 L 349.44 555.25 L 347.51 561.29 L 345.07 567.15 L 342.18 572.76 L 338.84 578.12 L 335.02 583.25 L 330.82 588.06 L 326.26 592.54 L 321.31 596.71 L 315.97 600.56 L 310.38 604.00 L 304.50 607.04 L 298.32 609.68 L 291.81 611.92 L 285.20 613.67 L 278.38 614.94 L 271.32 615.72 L 264.00 616.00 L 256.68 615.72 L 249.62 614.94 L 242.80 613.67 L 236.19 611.92 L 229.68 609.68 L 223.50 607.04 L 217.62 604.00 L 212.03 600.56 L 206.69 596.71 L 201.74 592.54 L 197.18 588.06 L 192.98 583.25 L 189.16 578.12 L 185.82 572.76 L 182.93 567.15 L 180.49 561.29 L 178.56 555.25 L 177.16 549.04 L 176.31 542.63 L 176.00 536.00 L 176.31 529.37 L 177.16 522.96 L 178.56 516.75 L 180.49 510.71 L 182.93 504.85 L 185.82 499.24 L 189.16 493.88 L 192.98 488.75 L 197.18 483.94 L 201.74 479.46 L 206.69 475.29 L 212.03 471.44 L 217.62 468.00 L 223.50 464.96 L 229.68 462.32 L 236.19 460.08 L 242.80 458.33 L 249.62 457.06 L 256.68 456.28 L 264.00 456.00 L 271.32 456.28 L 278.38 457.06 L 285.20 458.33 L 291.81 460.08 L 298.32 462.32 L 304.50 464.96 L 310.38 468.00 L 315.97 471.44 L 321.31 475.29 L 326.26 479.46 L 330.82 483.94 L 335.02 488.75 L 338.84 493.88 L 342.18 499.24 L 345.07 504.85 L 347.51 510.71 L 349.44 516.75 L 350.84 522.96 L 351.69 529.37 L 352.00 536.00 Z" fill="#ff5ea4" fill-opacity="0.8" fill-rule="evenodd" filter="url(#filter-5)" group-id="1,2,6" id="椭圆形备份-6" node-id="71" stroke="none" target-height="160" target-width="176" target-x="176" target-y="456"></path></g><g node-id="320"><g node-id="326"><g node-id="330"><path d="M 768.00 432.00 L 767.75 440.87 L 767.04 449.49 L 765.88 457.87 L 764.29 466.03 L 762.23 474.14 L 759.79 481.93 L 756.98 489.41 L 753.80 496.60 L 750.19 503.65 L 746.28 510.30 L 742.06 516.58 L 737.54 522.51 L 732.63 528.17 L 727.49 533.39 L 722.11 538.16 L 716.49 542.52 L 710.56 546.49 L 704.45 549.96 L 698.15 552.93 L 691.65 555.43 L 684.98 557.40 L 678.16 558.82 L 671.18 559.69 L 664.00 560.00 L 656.82 559.69 L 649.84 558.82 L 643.02 557.40 L 636.35 555.43 L 629.85 552.93 L 623.55 549.96 L 617.44 546.49 L 611.51 542.52 L 605.89 538.16 L 600.51 533.39 L 595.37 528.17 L 590.46 522.51 L 585.94 516.58 L 581.72 510.30 L 577.81 503.65 L 574.20 496.60 L 571.02 489.41 L 568.21 481.93 L 565.77 474.14 L 563.71 466.03 L 562.12 457.87 L 560.96 449.49 L 560.25 440.87 L 560.00 432.00 L 560.25 423.13 L 560.96 414.51 L 562.12 406.13 L 563.71 397.97 L 565.77 389.86 L 568.21 382.07 L 571.02 374.59 L 574.20 367.40 L 577.81 360.35 L 581.72 353.70 L 585.94 347.42 L 590.46 341.49 L 595.37 335.83 L 600.51 330.61 L 605.89 325.84 L 611.51 321.48 L 617.44 317.51 L 623.55 314.04 L 629.85 311.07 L 636.35 308.57 L 643.02 306.60 L 649.84 305.18 L 656.82 304.31 L 664.00 304.00 L 671.18 304.31 L 678.16 305.18 L 684.98 306.60 L 691.65 308.57 L 698.15 311.07 L 704.45 314.04 L 710.56 317.51 L 716.49 321.48 L 722.11 325.84 L 727.49 330.61 L 732.63 335.83 L 737.54 341.49 L 742.06 347.42 L 746.28 353.70 L 750.19 360.35 L 753.80 367.40 L 756.98 374.59 L 759.79 382.07 L 762.23 389.86 L 764.29 397.97 L 765.88 406.13 L 767.04 414.51 L 767.75 423.13 L 768.00 432.00 Z" fill="#000000" fill-rule="evenodd" filter="url(#filter-8)" group-id="1,2,7,13,17" node-id="235" stroke="none" target-height="256" target-width="208" target-x="560" target-y="304"></path></g><g node-id="331"><path d="M 768.00 432.00 L 767.75 440.87 L 767.04 449.49 L 765.88 457.87 L 764.29 466.03 L 762.23 474.14 L 759.79 481.93 L 756.98 489.41 L 753.80 496.60 L 750.19 503.65 L 746.28 510.30 L 742.06 516.58 L 737.54 522.51 L 732.63 528.17 L 727.49 533.39 L 722.11 538.16 L 716.49 542.52 L 710.56 546.49 L 704.45 549.96 L 698.15 552.93 L 691.65 555.43 L 684.98 557.40 L 678.16 558.82 L 671.18 559.69 L 664.00 560.00 L 656.82 559.69 L 649.84 558.82 L 643.02 557.40 L 636.35 555.43 L 629.85 552.93 L 623.55 549.96 L 617.44 546.49 L 611.51 542.52 L 605.89 538.16 L 600.51 533.39 L 595.37 528.17 L 590.46 522.51 L 585.94 516.58 L 581.72 510.30 L 577.81 503.65 L 574.20 496.60 L 571.02 489.41 L 568.21 481.93 L 565.77 474.14 L 563.71 466.03 L 562.12 457.87 L 560.96 449.49 L 560.25 440.87 L 560.00 432.00 L 560.25 423.13 L 560.96 414.51 L 562.12 406.13 L 563.71 397.97 L 565.77 389.86 L 568.21 382.07 L 571.02 374.59 L 574.20 367.40 L 577.81 360.35 L 581.72 353.70 L 585.94 347.42 L 590.46 341.49 L 595.37 335.83 L 600.51 330.61 L 605.89 325.84 L 611.51 321.48 L 617.44 317.51 L 623.55 314.04 L 629.85 311.07 L 636.35 308.57 L 643.02 306.60 L 649.84 305.18 L 656.82 304.31 L 664.00 304.00 L 671.18 304.31 L 678.16 305.18 L 684.98 306.60 L 691.65 308.57 L 698.15 311.07 L 704.45 314.04 L 710.56 317.51 L 716.49 321.48 L 722.11 325.84 L 727.49 330.61 L 732.63 335.83 L 737.54 341.49 L 742.06 347.42 L 746.28 353.70 L 750.19 360.35 L 753.80 367.40 L 756.98 374.59 L 759.79 382.07 L 762.23 389.86 L 764.29 397.97 L 765.88 406.13 L 767.04 414.51 L 767.75 423.13 L 768.00 432.00 Z" fill="url(#linearGradient-6)" fill-rule="evenodd" group-id="1,2,7,13,18" node-id="240" stroke="none" target-height="256" target-width="208" target-x="560" target-y="304"></path></g><path d="M 768.00 432.00 L 767.75 440.87 L 767.04 449.49 L 765.88 457.87 L 764.29 466.03 L 762.23 474.14 L 759.79 481.93 L 756.98 489.41 L 753.80 496.60 L 750.19 503.65 L 746.28 510.30 L 742.06 516.58 L 737.54 522.51 L 732.63 528.17 L 727.49 533.39 L 722.11 538.16 L 716.49 542.52 L 710.56 546.49 L 704.45 549.96 L 698.15 552.93 L 691.65 555.43 L 684.98 557.40 L 678.16 558.82 L 671.18 559.69 L 664.00 560.00 L 656.82 559.69 L 649.84 558.82 L 643.02 557.40 L 636.35 555.43 L 629.85 552.93 L 623.55 549.96 L 617.44 546.49 L 611.51 542.52 L 605.89 538.16 L 600.51 533.39 L 595.37 528.17 L 590.46 522.51 L 585.94 516.58 L 581.72 510.30 L 577.81 503.65 L 574.20 496.60 L 571.02 489.41 L 568.21 481.93 L 565.77 474.14 L 563.71 466.03 L 562.12 457.87 L 560.96 449.49 L 560.25 440.87 L 560.00 432.00 L 560.25 423.13 L 560.96 414.51 L 562.12 406.13 L 563.71 397.97 L 565.77 389.86 L 568.21 382.07 L 571.02 374.59 L 574.20 367.40 L 577.81 360.35 L 581.72 353.70 L 585.94 347.42 L 590.46 341.49 L 595.37 335.83 L 600.51 330.61 L 605.89 325.84 L 611.51 321.48 L 617.44 317.51 L 623.55 314.04 L 629.85 311.07 L 636.35 308.57 L 643.02 306.60 L 649.84 305.18 L 656.82 304.31 L 664.00 304.00 L 671.18 304.31 L 678.16 305.18 L 684.98 306.60 L 691.65 308.57 L 698.15 311.07 L 704.45 314.04 L 710.56 317.51 L 716.49 321.48 L 722.11 325.84 L 727.49 330.61 L 732.63 335.83 L 737.54 341.49 L 742.06 347.42 L 746.28 353.70 L 750.19 360.35 L 753.80 367.40 L 756.98 374.59 L 759.79 382.07 L 762.23 389.86 L 764.29 397.97 L 765.88 406.13 L 767.04 414.51 L 767.75 423.13 L 768.00 432.00 Z" fill="#000000" fill-rule="evenodd" filter="url(#filter-9)" group-id="1,2,7,13,19" node-id="245" stroke="none" target-height="256" target-width="208" target-x="560" target-y="304"></path></g><g node-id="327"><g node-id="333"><g node-id="338"><path d="M 673.50 554.62 L 679.63 554.36 L 685.55 553.64 L 691.28 552.48 L 696.84 550.86 L 702.28 548.80 L 707.46 546.37 L 712.40 543.56 L 717.11 540.38 L 721.57 536.83 L 725.71 532.99 L 729.55 528.85 L 733.10 524.39 L 736.28 519.68 L 739.09 514.74 L 741.52 509.56 L 743.58 504.12 L 745.20 498.56 L 746.37 492.83 L 747.08 486.91 L 747.34 480.78 L 747.08 474.64 L 746.37 468.72 L 745.20 463.00 L 743.58 457.44 L 741.52 452.00 L 739.09 446.82 L 736.28 441.88 L 733.10 437.16 L 729.55 432.70 L 725.71 428.56 L 721.57 424.72 L 717.11 421.18 L 712.40 417.99 L 707.46 415.19 L 702.28 412.75 L 696.84 410.70 L 691.28 409.08 L 685.55 407.91 L 679.63 407.19 L 673.50 406.93 L 667.37 407.19 L 661.45 407.91 L 655.72 409.08 L 650.16 410.70 L 644.72 412.75 L 639.54 415.19 L 634.60 417.99 L 629.89 421.18 L 625.42 424.72 L 621.28 428.56 L 617.44 432.70 L 613.90 437.16 L 610.71 441.88 L 607.91 446.82 L 605.48 452.00 L 603.42 457.44 L 601.80 462.99 L 600.63 468.72 L 599.91 474.64 L 599.65 480.78 L 599.91 486.91 L 600.63 492.83 L 601.80 498.56 L 603.42 504.12 L 605.48 509.56 L 607.91 514.74 L 610.71 519.68 L 613.90 524.39 L 617.44 528.85 L 621.28 532.99 L 625.42 536.83 L 629.89 540.38 L 634.60 543.56 L 639.54 546.37 L 644.72 548.80 L 650.16 550.86 L 655.72 552.48 L 661.45 553.64 L 667.37 554.36 L 673.50 554.62 Z" fill="#930027" fill-rule="evenodd" group-id="1,2,7,14,20,25" node-id="253" stroke="none" target-height="147.69229" target-width="147.69232" target-x="599.6516" target-y="406.93082"></path></g><path d="M 673.50 554.62 L 679.63 554.36 L 685.55 553.64 L 691.28 552.48 L 696.84 550.86 L 702.28 548.80 L 707.46 546.37 L 712.40 543.56 L 717.11 540.38 L 721.57 536.83 L 725.71 532.99 L 729.55 528.85 L 733.10 524.39 L 736.28 519.68 L 739.09 514.74 L 741.52 509.56 L 743.58 504.12 L 745.20 498.56 L 746.37 492.83 L 747.08 486.91 L 747.34 480.78 L 747.08 474.64 L 746.37 468.72 L 745.20 463.00 L 743.58 457.44 L 741.52 452.00 L 739.09 446.82 L 736.28 441.88 L 733.10 437.16 L 729.55 432.70 L 725.71 428.56 L 721.57 424.72 L 717.11 421.18 L 712.40 417.99 L 707.46 415.19 L 702.28 412.75 L 696.84 410.70 L 691.28 409.08 L 685.55 407.91 L 679.63 407.19 L 673.50 406.93 L 667.37 407.19 L 661.45 407.91 L 655.72 409.08 L 650.16 410.70 L 644.72 412.75 L 639.54 415.19 L 634.60 417.99 L 629.89 421.18 L 625.42 424.72 L 621.28 428.56 L 617.44 432.70 L 613.90 437.16 L 610.71 441.88 L 607.91 446.82 L 605.48 452.00 L 603.42 457.44 L 601.80 462.99 L 600.63 468.72 L 599.91 474.64 L 599.65 480.78 L 599.91 486.91 L 600.63 492.83 L 601.80 498.56 L 603.42 504.12 L 605.48 509.56 L 607.91 514.74 L 610.71 519.68 L 613.90 524.39 L 617.44 528.85 L 621.28 532.99 L 625.42 536.83 L 629.89 540.38 L 634.60 543.56 L 639.54 546.37 L 644.72 548.80 L 650.16 550.86 L 655.72 552.48 L 661.45 553.64 L 667.37 554.36 L 673.50 554.62 Z" fill="#000000" fill-rule="evenodd" filter="url(#filter-11)" group-id="1,2,7,14,20,26" node-id="258" stroke="none" target-height="147.69229" target-width="147.69232" target-x="599.6516" target-y="406.93082"></path></g><path d="M 673.50 517.70 L 677.33 517.50 L 680.99 516.94 L 684.50 516.04 L 687.87 514.80 L 692.16 512.64 L 696.06 510.01 L 699.61 506.89 L 702.73 503.34 L 705.36 499.43 L 707.52 495.15 L 708.76 491.78 L 709.66 488.27 L 710.22 484.61 L 710.42 480.78 L 710.22 476.94 L 709.66 473.28 L 708.76 469.78 L 707.52 466.40 L 705.36 462.12 L 702.73 458.22 L 699.61 454.67 L 696.06 451.54 L 692.16 448.91 L 687.87 446.76 L 684.50 445.51 L 680.99 444.61 L 677.33 444.06 L 673.50 443.85 L 669.66 444.06 L 666.00 444.61 L 662.50 445.51 L 659.13 446.76 L 654.84 448.91 L 650.94 451.54 L 647.39 454.67 L 644.26 458.22 L 641.63 462.12 L 639.48 466.40 L 638.23 469.78 L 637.34 473.28 L 636.78 476.94 L 636.57 480.78 L 636.78 484.61 L 637.34 488.27 L 638.23 491.78 L 639.48 495.15 L 641.63 499.43 L 644.26 503.34 L 647.39 506.89 L 650.94 510.01 L 654.84 512.64 L 659.13 514.80 L 662.50 516.04 L 666.00 516.94 L 669.66 517.50 L 673.50 517.70 Z" fill="#301502" fill-rule="evenodd" group-id="1,2,7,14" id="椭圆形" node-id="81" stroke="none" target-height="73.84619" target-width="73.84613" target-x="636.5747" target-y="443.85388"></path><path d="M 697.50 480.78 L 700.79 480.55 L 703.90 479.92 L 706.84 478.89 L 709.63 477.49 L 712.16 475.78 L 714.47 473.75 L 716.50 471.44 L 718.21 468.90 L 719.61 466.12 L 720.64 463.18 L 721.27 460.07 L 721.50 456.78 L 721.27 453.48 L 720.64 450.38 L 719.61 447.44 L 718.21 444.65 L 716.50 442.11 L 714.47 439.81 L 712.16 437.77 L 709.63 436.06 L 706.84 434.66 L 703.90 433.64 L 700.79 433.01 L 697.50 432.78 L 694.20 433.01 L 691.10 433.64 L 688.16 434.66 L 685.37 436.06 L 682.83 437.77 L 680.53 439.81 L 678.50 442.11 L 676.78 444.65 L 675.38 447.44 L 674.36 450.38 L 673.73 453.48 L 673.50 456.78 L 673.73 460.07 L 674.36 463.18 L 675.38 466.12 L 676.78 468.90 L 678.50 471.44 L 680.53 473.75 L 682.83 475.78 L 685.37 477.49 L 688.16 478.89 L 691.10 479.92 L 694.20 480.55 L 697.50 480.78 Z" fill="#ffffff" fill-rule="evenodd" group-id="1,2,7,14" id="椭圆形" node-id="82" stroke="none" target-height="48" target-width="48" target-x="673.49774" target-y="432.77698"></path><path d="M 650.42 526.93 L 652.95 526.70 L 655.26 526.06 L 657.41 525.04 L 659.35 523.66 L 661.00 522.02 L 662.38 520.07 L 663.40 517.93 L 664.03 515.61 L 664.27 513.08 L 664.03 510.56 L 663.40 508.24 L 662.38 506.10 L 661.00 504.15 L 659.35 502.50 L 657.41 501.13 L 655.26 500.11 L 652.95 499.47 L 650.42 499.24 L 647.89 499.47 L 645.58 500.11 L 643.43 501.13 L 641.49 502.50 L 639.84 504.15 L 638.47 506.10 L 637.44 508.24 L 636.81 510.56 L 636.57 513.08 L 636.81 515.61 L 637.44 517.93 L 638.47 520.07 L 639.84 522.02 L 641.49 523.66 L 643.43 525.04 L 645.58 526.06 L 647.89 526.70 L 650.42 526.93 Z" fill="#ffffff" fill-rule="evenodd" group-id="1,2,7,14" id="椭圆形备份-5" node-id="83" stroke="none" target-height="27.69226" target-width="27.69226" target-x="636.5747" target-y="499.23853"></path></g></g><g node-id="321"><g node-id="328"><g node-id="334"><path d="M 464.00 432.00 L 463.73 440.87 L 462.96 449.48 L 461.72 457.86 L 460.00 466.03 L 457.79 474.12 L 455.17 481.91 L 452.14 489.39 L 448.71 496.60 L 444.83 503.63 L 440.62 510.28 L 436.08 516.56 L 431.20 522.51 L 425.93 528.16 L 420.40 533.36 L 414.61 538.15 L 408.53 542.52 L 402.16 546.48 L 395.59 549.95 L 388.80 552.92 L 381.77 555.43 L 374.60 557.40 L 367.26 558.82 L 359.74 559.69 L 352.00 560.00 L 344.26 559.69 L 336.74 558.82 L 329.40 557.40 L 322.23 555.43 L 315.20 552.92 L 308.41 549.95 L 301.84 546.48 L 295.47 542.52 L 289.39 538.15 L 283.60 533.36 L 278.07 528.16 L 272.80 522.51 L 267.92 516.56 L 263.38 510.28 L 259.17 503.63 L 255.29 496.60 L 251.86 489.39 L 248.83 481.91 L 246.21 474.12 L 244.00 466.03 L 242.28 457.86 L 241.04 449.48 L 240.27 440.87 L 240.00 432.00 L 240.27 423.13 L 241.04 414.52 L 242.28 406.14 L 244.00 397.97 L 246.21 389.88 L 248.83 382.09 L 251.86 374.61 L 255.29 367.40 L 259.17 360.37 L 263.38 353.72 L 267.92 347.44 L 272.80 341.49 L 278.07 335.84 L 283.60 330.64 L 289.39 325.85 L 295.47 321.48 L 301.84 317.52 L 308.41 314.05 L 315.20 311.08 L 322.23 308.57 L 329.40 306.60 L 336.74 305.18 L 344.26 304.31 L 352.00 304.00 L 359.74 304.31 L 367.26 305.18 L 374.60 306.60 L 381.77 308.57 L 388.80 311.08 L 395.59 314.05 L 402.16 317.52 L 408.53 321.48 L 414.61 325.85 L 420.40 330.64 L 425.93 335.84 L 431.20 341.49 L 436.08 347.44 L 440.62 353.72 L 444.83 360.37 L 448.71 367.40 L 452.14 374.61 L 455.17 382.09 L 457.79 389.88 L 460.00 397.97 L 461.72 406.14 L 462.96 414.52 L 463.73 423.13 L 464.00 432.00 Z" fill="#000000" fill-rule="evenodd" filter="url(#filter-14)" group-id="1,2,8,15,21" node-id="271" stroke="none" target-height="256" target-width="224" target-x="240" target-y="304"></path></g><g node-id="335"><path d="M 464.00 432.00 L 463.73 440.87 L 462.96 449.48 L 461.72 457.86 L 460.00 466.03 L 457.79 474.12 L 455.17 481.91 L 452.14 489.39 L 448.71 496.60 L 444.83 503.63 L 440.62 510.28 L 436.08 516.56 L 431.20 522.51 L 425.93 528.16 L 420.40 533.36 L 414.61 538.15 L 408.53 542.52 L 402.16 546.48 L 395.59 549.95 L 388.80 552.92 L 381.77 555.43 L 374.60 557.40 L 367.26 558.82 L 359.74 559.69 L 352.00 560.00 L 344.26 559.69 L 336.74 558.82 L 329.40 557.40 L 322.23 555.43 L 315.20 552.92 L 308.41 549.95 L 301.84 546.48 L 295.47 542.52 L 289.39 538.15 L 283.60 533.36 L 278.07 528.16 L 272.80 522.51 L 267.92 516.56 L 263.38 510.28 L 259.17 503.63 L 255.29 496.60 L 251.86 489.39 L 248.83 481.91 L 246.21 474.12 L 244.00 466.03 L 242.28 457.86 L 241.04 449.48 L 240.27 440.87 L 240.00 432.00 L 240.27 423.13 L 241.04 414.52 L 242.28 406.14 L 244.00 397.97 L 246.21 389.88 L 248.83 382.09 L 251.86 374.61 L 255.29 367.40 L 259.17 360.37 L 263.38 353.72 L 267.92 347.44 L 272.80 341.49 L 278.07 335.84 L 283.60 330.64 L 289.39 325.85 L 295.47 321.48 L 301.84 317.52 L 308.41 314.05 L 315.20 311.08 L 322.23 308.57 L 329.40 306.60 L 336.74 305.18 L 344.26 304.31 L 352.00 304.00 L 359.74 304.31 L 367.26 305.18 L 374.60 306.60 L 381.77 308.57 L 388.80 311.08 L 395.59 314.05 L 402.16 317.52 L 408.53 321.48 L 414.61 325.85 L 420.40 330.64 L 425.93 335.84 L 431.20 341.49 L 436.08 347.44 L 440.62 353.72 L 444.83 360.37 L 448.71 367.40 L 452.14 374.61 L 455.17 382.09 L 457.79 389.88 L 460.00 397.97 L 461.72 406.14 L 462.96 414.52 L 463.73 423.13 L 464.00 432.00 Z" fill="url(#linearGradient-12)" fill-rule="evenodd" group-id="1,2,8,15,22" node-id="276" stroke="none" target-height="256" target-width="224" target-x="240" target-y="304"></path></g><path d="M 464.00 432.00 L 463.73 440.87 L 462.96 449.48 L 461.72 457.86 L 460.00 466.03 L 457.79 474.12 L 455.17 481.91 L 452.14 489.39 L 448.71 496.60 L 444.83 503.63 L 440.62 510.28 L 436.08 516.56 L 431.20 522.51 L 425.93 528.16 L 420.40 533.36 L 414.61 538.15 L 408.53 542.52 L 402.16 546.48 L 395.59 549.95 L 388.80 552.92 L 381.77 555.43 L 374.60 557.40 L 367.26 558.82 L 359.74 559.69 L 352.00 560.00 L 344.26 559.69 L 336.74 558.82 L 329.40 557.40 L 322.23 555.43 L 315.20 552.92 L 308.41 549.95 L 301.84 546.48 L 295.47 542.52 L 289.39 538.15 L 283.60 533.36 L 278.07 528.16 L 272.80 522.51 L 267.92 516.56 L 263.38 510.28 L 259.17 503.63 L 255.29 496.60 L 251.86 489.39 L 248.83 481.91 L 246.21 474.12 L 244.00 466.03 L 242.28 457.86 L 241.04 449.48 L 240.27 440.87 L 240.00 432.00 L 240.27 423.13 L 241.04 414.52 L 242.28 406.14 L 244.00 397.97 L 246.21 389.88 L 248.83 382.09 L 251.86 374.61 L 255.29 367.40 L 259.17 360.37 L 263.38 353.72 L 267.92 347.44 L 272.80 341.49 L 278.07 335.84 L 283.60 330.64 L 289.39 325.85 L 295.47 321.48 L 301.84 317.52 L 308.41 314.05 L 315.20 311.08 L 322.23 308.57 L 329.40 306.60 L 336.74 305.18 L 344.26 304.31 L 352.00 304.00 L 359.74 304.31 L 367.26 305.18 L 374.60 306.60 L 381.77 308.57 L 388.80 311.08 L 395.59 314.05 L 402.16 317.52 L 408.53 321.48 L 414.61 325.85 L 420.40 330.64 L 425.93 335.84 L 431.20 341.49 L 436.08 347.44 L 440.62 353.72 L 444.83 360.37 L 448.71 367.40 L 452.14 374.61 L 455.17 382.09 L 457.79 389.88 L 460.00 397.97 L 461.72 406.14 L 462.96 414.52 L 463.73 423.13 L 464.00 432.00 Z" fill="#000000" fill-rule="evenodd" filter="url(#filter-15)" group-id="1,2,8,15,23" node-id="281" stroke="none" target-height="256" target-width="224" target-x="240" target-y="304"></path></g><g node-id="329"><g node-id="337"><g node-id="340"><path d="M 370.11 551.14 L 376.24 550.88 L 382.16 550.16 L 387.89 548.99 L 393.45 547.37 L 398.89 545.31 L 404.07 542.88 L 409.01 540.08 L 413.72 536.89 L 418.18 533.35 L 422.33 529.51 L 426.17 525.37 L 429.71 520.90 L 432.90 516.19 L 435.70 511.25 L 438.13 506.07 L 440.19 500.63 L 441.81 495.07 L 442.98 489.34 L 443.70 483.42 L 443.96 477.29 L 443.70 471.16 L 442.98 465.24 L 441.81 459.51 L 440.19 453.95 L 438.13 448.51 L 435.70 443.33 L 432.90 438.39 L 429.71 433.68 L 426.17 429.22 L 422.33 425.07 L 418.18 421.24 L 413.72 417.69 L 409.01 414.51 L 404.07 411.70 L 398.89 409.27 L 393.45 407.21 L 387.89 405.59 L 382.16 404.42 L 376.24 403.70 L 370.11 403.44 L 363.98 403.70 L 358.06 404.42 L 352.33 405.59 L 346.77 407.21 L 341.33 409.27 L 336.15 411.70 L 331.21 414.51 L 326.50 417.69 L 322.04 421.24 L 317.89 425.07 L 314.06 429.22 L 310.51 433.68 L 307.33 438.39 L 304.52 443.33 L 302.09 448.51 L 300.03 453.95 L 298.41 459.51 L 297.24 465.24 L 296.52 471.16 L 296.26 477.29 L 296.52 483.42 L 297.24 489.34 L 298.41 495.07 L 300.03 500.63 L 302.09 506.07 L 304.52 511.25 L 307.33 516.19 L 310.51 520.90 L 314.06 525.37 L 317.89 529.51 L 322.04 533.35 L 326.50 536.89 L 331.21 540.08 L 336.15 542.88 L 341.33 545.31 L 346.77 547.37 L 352.33 548.99 L 358.06 550.16 L 363.98 550.88 L 370.11 551.14 Z" fill="#930027" fill-rule="evenodd" group-id="1,2,8,16,24,27" node-id="289" stroke="none" target-height="147.69232" target-width="147.69229" target-x="296.26492" target-y="403.445"></path></g><path d="M 370.11 551.14 L 376.24 550.88 L 382.16 550.16 L 387.89 548.99 L 393.45 547.37 L 398.89 545.31 L 404.07 542.88 L 409.01 540.08 L 413.72 536.89 L 418.18 533.35 L 422.33 529.51 L 426.17 525.37 L 429.71 520.90 L 432.90 516.19 L 435.70 511.25 L 438.13 506.07 L 440.19 500.63 L 441.81 495.07 L 442.98 489.34 L 443.70 483.42 L 443.96 477.29 L 443.70 471.16 L 442.98 465.24 L 441.81 459.51 L 440.19 453.95 L 438.13 448.51 L 435.70 443.33 L 432.90 438.39 L 429.71 433.68 L 426.17 429.22 L 422.33 425.07 L 418.18 421.24 L 413.72 417.69 L 409.01 414.51 L 404.07 411.70 L 398.89 409.27 L 393.45 407.21 L 387.89 405.59 L 382.16 404.42 L 376.24 403.70 L 370.11 403.44 L 363.98 403.70 L 358.06 404.42 L 352.33 405.59 L 346.77 407.21 L 341.33 409.27 L 336.15 411.70 L 331.21 414.51 L 326.50 417.69 L 322.04 421.24 L 317.89 425.07 L 314.06 429.22 L 310.51 433.68 L 307.33 438.39 L 304.52 443.33 L 302.09 448.51 L 300.03 453.95 L 298.41 459.51 L 297.24 465.24 L 296.52 471.16 L 296.26 477.29 L 296.52 483.42 L 297.24 489.34 L 298.41 495.07 L 300.03 500.63 L 302.09 506.07 L 304.52 511.25 L 307.33 516.19 L 310.51 520.90 L 314.06 525.37 L 317.89 529.51 L 322.04 533.35 L 326.50 536.89 L 331.21 540.08 L 336.15 542.88 L 341.33 545.31 L 346.77 547.37 L 352.33 548.99 L 358.06 550.16 L 363.98 550.88 L 370.11 551.14 Z" fill="#000000" fill-rule="evenodd" filter="url(#filter-17)" group-id="1,2,8,16,24,28" node-id="294" stroke="none" target-height="147.69232" target-width="147.69229" target-x="296.26492" target-y="403.445"></path></g><path d="M 370.11 514.21 L 373.94 514.01 L 377.60 513.45 L 381.11 512.55 L 384.48 511.31 L 388.77 509.16 L 392.67 506.53 L 396.22 503.40 L 399.35 499.85 L 401.98 495.95 L 404.13 491.66 L 405.37 488.29 L 406.27 484.78 L 406.83 481.12 L 407.03 477.29 L 406.83 473.46 L 406.27 469.80 L 405.37 466.29 L 404.13 462.92 L 401.98 458.63 L 399.35 454.73 L 396.22 451.18 L 392.67 448.06 L 388.77 445.43 L 384.48 443.27 L 381.11 442.03 L 377.60 441.13 L 373.94 440.57 L 370.11 440.37 L 366.28 440.57 L 362.62 441.13 L 359.11 442.03 L 355.74 443.27 L 351.45 445.43 L 347.55 448.06 L 344.00 451.18 L 340.88 454.73 L 338.25 458.63 L 336.09 462.92 L 334.85 466.29 L 333.95 469.80 L 333.39 473.46 L 333.19 477.29 L 333.39 481.12 L 333.95 484.78 L 334.85 488.29 L 336.09 491.66 L 338.25 495.95 L 340.88 499.85 L 344.00 503.40 L 347.55 506.53 L 351.45 509.16 L 355.74 511.31 L 359.11 512.55 L 362.62 513.45 L 366.28 514.01 L 370.11 514.21 Z" fill="#301502" fill-rule="evenodd" group-id="1,2,8,16" id="椭圆形" node-id="93" stroke="none" target-height="73.84616" target-width="73.84616" target-x="333.188" target-y="440.36807"></path><path d="M 394.11 477.29 L 397.41 477.06 L 400.51 476.43 L 403.45 475.41 L 406.24 474.00 L 408.77 472.29 L 411.08 470.26 L 413.11 467.95 L 414.82 465.42 L 416.23 462.63 L 417.25 459.69 L 417.88 456.59 L 418.11 453.29 L 417.88 449.99 L 417.25 446.89 L 416.23 443.95 L 414.82 441.16 L 413.11 438.63 L 411.08 436.32 L 408.77 434.29 L 406.24 432.58 L 403.45 431.18 L 400.51 430.15 L 397.41 429.52 L 394.11 429.29 L 390.81 429.52 L 387.71 430.15 L 384.77 431.18 L 381.98 432.58 L 379.45 434.29 L 377.14 436.32 L 375.11 438.63 L 373.40 441.16 L 372.00 443.95 L 370.97 446.89 L 370.34 449.99 L 370.11 453.29 L 370.34 456.59 L 370.97 459.69 L 372.00 462.63 L 373.40 465.42 L 375.11 467.95 L 377.14 470.26 L 379.45 472.29 L 381.98 474.00 L 384.77 475.41 L 387.71 476.43 L 390.81 477.06 L 394.11 477.29 Z" fill="#ffffff" fill-rule="evenodd" group-id="1,2,8,16" id="椭圆形" node-id="94" stroke="none" target-height="48" target-width="48" target-x="370.11108" target-y="429.29117"></path><path d="M 347.03 523.45 L 349.56 523.21 L 351.88 522.58 L 354.02 521.55 L 355.97 520.18 L 357.61 518.53 L 358.99 516.59 L 360.01 514.44 L 360.64 512.13 L 360.88 509.60 L 360.64 507.07 L 360.01 504.76 L 358.99 502.61 L 357.61 500.67 L 355.97 499.02 L 354.02 497.64 L 351.88 496.62 L 349.56 495.99 L 347.03 495.75 L 344.51 495.99 L 342.19 496.62 L 340.05 497.64 L 338.10 499.02 L 336.45 500.67 L 335.08 502.61 L 334.05 504.76 L 333.42 507.07 L 333.19 509.60 L 333.42 512.13 L 334.05 514.44 L 335.08 516.59 L 336.45 518.53 L 338.10 520.18 L 340.05 521.55 L 342.19 522.58 L 344.51 523.21 L 347.03 523.45 Z" fill="#ffffff" fill-rule="evenodd" group-id="1,2,8,16" id="椭圆形备份-5" node-id="95" stroke="none" target-height="27.692322" target-width="27.692322" target-x="333.188" target-y="495.7527"></path></g></g></g><g node-id="316"><g node-id="322"><path d="M 341.39 684.62 C 441.03 773.36 550.22 774.35 665.65 688.17 C 672.13 683.34 673.95 673.43 669.72 666.03 C 665.49 658.63 656.82 656.55 650.34 661.38 C 544.63 740.30 448.49 739.43 358.61 659.38 C 352.51 653.95 343.71 655.20 338.96 662.17 C 334.21 669.14 335.30 679.19 341.39 684.62 Z" fill="#ed1f2a" fill-rule="nonzero" group-id="1,3,9" node-id="307" stroke="none" target-height="120.396484" target-width="339.74268" target-x="334.20514" target-y="653.9487"></path></g><path d="M 341.39 684.62 C 441.03 773.36 550.22 774.35 665.65 688.17 C 672.13 683.34 673.95 673.43 669.72 666.03 C 665.49 658.63 656.82 656.55 650.34 661.38 C 544.63 740.30 448.49 739.43 358.61 659.38 C 352.51 653.95 343.71 655.20 338.96 662.17 C 334.21 669.14 335.30 679.19 341.39 684.62 Z" fill="#000000" fill-rule="nonzero" filter="url(#filter-19)" group-id="1,3,10" node-id="312" stroke="none" target-height="120.396484" target-width="339.74268" target-x="334.20514" target-y="653.9487"></path></g></g></svg>