<?xml version="1.0" standalone="no"?><!DOCTYPE svg PUBLIC "-//W3C//DTD SVG 1.1//EN" "http://www.w3.org/Graphics/SVG/1.1/DTD/svg11.dtd"><svg height="1024" node-id="1" sillyvg="true" template-height="1024" template-width="1116" version="1.1" viewBox="0 0 1116 1024" width="1116" xmlns="http://www.w3.org/2000/svg" xmlns:xlink="http://www.w3.org/1999/xlink"><defs node-id="98"><radialGradient cx="0.5" cy="0.19668992" fx="0.5" fy="0.19668992" gradientTransform="matrix(0 1 -0.912281 0 0.67943655 -0.30331)" gradientUnits="objectBoundingBox" id="radialGradient-1" node-id="5" r="0.9393923" rev="2" spreadMethod="pad"><stop offset="0" stop-color="#ffe476"></stop><stop offset="0.41387266" stop-color="#fcec6c"></stop><stop offset="1" stop-color="#ffb02f"></stop></radialGradient><linearGradient gradientUnits="objectBoundingBox" id="linearGradient-9" node-id="29" spreadMethod="pad" x1="0.5" x2="0.5" y1="0" y2="1"><stop offset="0" stop-color="#ffffff"></stop><stop offset="1" stop-color="#ffedbe"></stop></linearGradient><filter height="1.173" id="filter-3" node-id="10" width="1.158" x="-0.079" y="-0.087"><feGaussianBlur color-interpolation-filters="linearRGB" in="SourceAlpha" result="shadowBlurInner1" stdDeviation="64 64"></feGaussianBlur><feOffset color-interpolation-filters="linearRGB" dx="0" dy="16" in="shadowBlurInner1" result="shadowOffsetInner1"></feOffset><feComposite color-interpolation-filters="linearRGB" in="shadowOffsetInner1" in2="SourceAlpha" k1="0" k2="-1" k3="1" k4="0" operator="arithmetic" result="shadowInnerInner1"></feComposite><feColorMatrix color-interpolation-filters="linearRGB" in="shadowInnerInner1" result="result4" type="matrix" values="0 0 0 0 0.968627451 0 0 0 0 0.68627451 0 0 0 0 0.270588235 0 0 0 0.501145583 0"></feColorMatrix></filter><filter height="2.059" id="filter-4" node-id="15" width="1.963" x="-0.481" y="-0.529"><feGaussianBlur color-interpolation-filters="linearRGB" in="SourceGraphic" result="result1" stdDeviation="48 48"></feGaussianBlur></filter><filter height="2" id="filter-5" node-id="17" width="1.909" x="-0.455" y="-0.5"><feGaussianBlur color-interpolation-filters="linearRGB" in="SourceGraphic" result="result1" stdDeviation="48 48"></feGaussianBlur></filter><filter height="4" id="filter-7" node-id="20" width="1.571" x="-0.285" y="-1.5"><feOffset color-interpolation-filters="linearRGB" dx="0" dy="0" in="SourceAlpha" result="shadowOffsetOuter1"></feOffset><feGaussianBlur color-interpolation-filters="linearRGB" in="shadowOffsetOuter1" result="shadowBlurOuter1" stdDeviation="16 16"></feGaussianBlur><feColorMatrix color-interpolation-filters="linearRGB" in="shadowBlurOuter1" result="result3" type="matrix" values="0 0 0 0 0.925243875 0 0 0 0 0.776569168 0 0 0 0 0.170857398 0 0 0 1 0"></feColorMatrix></filter><filter height="3.5" id="filter-8" node-id="24" width="1.475" x="-0.238" y="-1.25"><feGaussianBlur color-interpolation-filters="linearRGB" in="SourceAlpha" result="shadowBlurInner1" stdDeviation="8 8"></feGaussianBlur><feOffset color-interpolation-filters="linearRGB" dx="0" dy="0" in="shadowBlurInner1" result="shadowOffsetInner1"></feOffset><feComposite color-interpolation-filters="linearRGB" in="shadowOffsetInner1" in2="SourceAlpha" k1="0" k2="-1" k3="1" k4="0" operator="arithmetic" result="shadowInnerInner1"></feComposite><feColorMatrix color-interpolation-filters="linearRGB" in="shadowInnerInner1" result="result4" type="matrix" values="0 0 0 0 0.661258421 0 0 0 0 0.0872254633 0 0 0 0 0.00982776113 0 0 0 1 0"></feColorMatrix></filter><filter height="1.8" id="filter-11" node-id="33" width="1.8" x="-0.4" y="-0.4"><feOffset color-interpolation-filters="linearRGB" dx="0" dy="0" in="SourceAlpha" result="shadowOffsetOuter1"></feOffset><feGaussianBlur color-interpolation-filters="linearRGB" in="shadowOffsetOuter1" result="shadowBlurOuter1" stdDeviation="32 32"></feGaussianBlur><feColorMatrix color-interpolation-filters="linearRGB" in="shadowBlurOuter1" result="result3" type="matrix" values="0 0 0 0 0.888848346 0 0 0 0 0.591702642 0 0 0 0 0.178785883 0 0 0 1 0"></feColorMatrix></filter><filter height="1.667" id="filter-12" node-id="37" width="1.667" x="-0.333" y="-0.333"><feGaussianBlur color-interpolation-filters="linearRGB" in="SourceAlpha" result="shadowBlurInner1" stdDeviation="16 16"></feGaussianBlur><feOffset color-interpolation-filters="linearRGB" dx="0" dy="0" in="shadowBlurInner1" result="shadowOffsetInner1"></feOffset><feComposite color-interpolation-filters="linearRGB" in="shadowOffsetInner1" in2="SourceAlpha" k1="0" k2="-1" k3="1" k4="0" operator="arithmetic" result="shadowInnerInner1"></feComposite><feColorMatrix color-interpolation-filters="linearRGB" in="shadowInnerInner1" result="result4" type="matrix" values="0 0 0 0 1 0 0 0 0 0.880587925 0 0 0 0 0.537254902 0 0 0 0.500726446 0"></feColorMatrix></filter><filter height="1.333" id="filter-14" node-id="43" width="1.333" x="-0.167" y="-0.167"><feGaussianBlur color-interpolation-filters="linearRGB" in="SourceAlpha" result="shadowBlurInner1" stdDeviation="16 16"></feGaussianBlur><feOffset color-interpolation-filters="linearRGB" dx="0" dy="0" in="shadowBlurInner1" result="shadowOffsetInner1"></feOffset><feComposite color-interpolation-filters="linearRGB" in="shadowOffsetInner1" in2="SourceAlpha" k1="0" k2="-1" k3="1" k4="0" operator="arithmetic" result="shadowInnerInner1"></feComposite><feColorMatrix color-interpolation-filters="linearRGB" in="shadowInnerInner1" result="result4" type="matrix" values="0 0 0 0 0.322660142 0 0 0 0 0 0 0 0 0 0.0976114716 0 0 0 1 0"></feColorMatrix></filter><filter height="1.8" id="filter-16" node-id="49" width="1.8" x="-0.4" y="-0.4"><feOffset color-interpolation-filters="linearRGB" dx="0" dy="0" in="SourceAlpha" result="shadowOffsetOuter1"></feOffset><feGaussianBlur color-interpolation-filters="linearRGB" in="shadowOffsetOuter1" result="shadowBlurOuter1" stdDeviation="32 32"></feGaussianBlur><feColorMatrix color-interpolation-filters="linearRGB" in="shadowBlurOuter1" result="result3" type="matrix" values="0 0 0 0 0.888848346 0 0 0 0 0.591702642 0 0 0 0 0.178785883 0 0 0 1 0"></feColorMatrix></filter><filter height="1.667" id="filter-17" node-id="53" width="1.667" x="-0.333" y="-0.333"><feGaussianBlur color-interpolation-filters="linearRGB" in="SourceAlpha" result="shadowBlurInner1" stdDeviation="16 16"></feGaussianBlur><feOffset color-interpolation-filters="linearRGB" dx="0" dy="0" in="shadowBlurInner1" result="shadowOffsetInner1"></feOffset><feComposite color-interpolation-filters="linearRGB" in="shadowOffsetInner1" in2="SourceAlpha" k1="0" k2="-1" k3="1" k4="0" operator="arithmetic" result="shadowInnerInner1"></feComposite><feColorMatrix color-interpolation-filters="linearRGB" in="shadowInnerInner1" result="result4" type="matrix" values="0 0 0 0 1 0 0 0 0 0.880587925 0 0 0 0 0.537254902 0 0 0 0.500726446 0"></feColorMatrix></filter><filter height="1.333" id="filter-19" node-id="59" width="1.333" x="-0.167" y="-0.167"><feGaussianBlur color-interpolation-filters="linearRGB" in="SourceAlpha" result="shadowBlurInner1" stdDeviation="16 16"></feGaussianBlur><feOffset color-interpolation-filters="linearRGB" dx="0" dy="0" in="shadowBlurInner1" result="shadowOffsetInner1"></feOffset><feComposite color-interpolation-filters="linearRGB" in="shadowOffsetInner1" in2="SourceAlpha" k1="0" k2="-1" k3="1" k4="0" operator="arithmetic" result="shadowInnerInner1"></feComposite><feColorMatrix color-interpolation-filters="linearRGB" in="shadowInnerInner1" result="result4" type="matrix" values="0 0 0 0 0.322660142 0 0 0 0 0 0 0 0 0 0.0976114716 0 0 0 1 0"></feColorMatrix></filter></defs><g node-id="309"><g node-id="310"><path d="M 50.00 0.00 L 1074.00 0.00 L 1074.00 1024.00 L 50.00 1024.00 Z" fill="none" group-id="1,2" id="矩形备份" node-id="67" stroke="none" target-height="1024" target-width="1024" target-x="50" target-y="0"></path><g node-id="313"><g node-id="321"><path d="M 520.86 96.38 L 535.27 96.01 L 549.38 96.26 L 563.21 97.12 L 576.78 98.56 L 590.11 100.60 L 603.45 103.25 L 616.45 106.45 L 629.14 110.18 L 641.52 114.44 L 653.62 119.24 L 665.55 124.62 L 677.10 130.48 L 688.29 136.81 L 699.13 143.63 L 709.63 150.95 L 719.80 158.75 L 729.54 166.99 L 738.88 175.66 L 747.82 184.77 L 756.36 194.34 L 764.43 204.28 L 772.02 214.61 L 779.16 225.35 L 785.83 236.49 L 792.05 248.07 L 803.36 253.33 L 814.52 258.98 L 825.54 265.01 L 836.41 271.43 L 847.15 278.25 L 860.23 287.24 L 872.93 296.74 L 885.27 306.77 L 897.26 317.34 L 906.54 326.15 L 915.50 335.23 L 924.13 344.59 L 932.46 354.24 L 940.47 364.18 L 948.14 374.40 L 955.41 384.85 L 962.28 395.53 L 968.76 406.44 L 974.86 417.61 L 980.52 428.99 L 985.71 440.56 L 990.44 452.32 L 994.70 464.28 L 998.49 476.45 L 1001.77 488.74 L 1004.50 501.18 L 1006.70 513.79 L 1008.35 526.58 L 1009.46 539.55 L 1009.98 552.48 L 1009.88 565.54 L 1009.17 578.77 L 1007.83 592.16 L 1005.84 605.75 L 1003.02 620.58 L 999.77 634.95 L 996.10 648.88 L 992.01 662.38 L 987.51 675.47 L 982.61 688.17 L 977.16 700.86 L 971.32 713.16 L 965.10 725.06 L 958.50 736.57 L 951.52 747.73 L 944.15 758.52 L 936.33 769.08 L 928.15 779.28 L 919.61 789.13 L 910.71 798.64 L 901.44 807.81 L 891.79 816.64 L 881.85 825.09 L 871.58 833.20 L 860.95 840.98 L 849.96 848.44 L 838.61 855.57 L 826.88 862.38 L 818.16 867.78 L 808.82 873.07 L 798.83 878.22 L 788.14 883.24 L 777.49 887.78 L 766.08 892.19 L 753.87 896.45 L 740.83 900.56 L 727.95 904.20 L 714.18 907.67 L 699.47 910.97 L 683.78 914.08 L 668.38 916.75 L 651.95 919.23 L 634.46 921.49 L 615.85 923.53 L 594.70 925.39 L 573.95 926.75 L 553.60 927.61 L 533.64 927.98 L 514.05 927.87 L 494.19 927.26 L 474.81 926.15 L 455.90 924.54 L 437.44 922.45 L 419.42 919.89 L 401.22 916.75 L 383.57 913.11 L 366.44 908.98 L 349.82 904.39 L 333.69 899.32 L 320.19 894.59 L 307.10 889.51 L 294.41 884.11 L 282.10 878.37 L 270.16 872.30 L 258.58 865.90 L 247.11 859.00 L 236.06 851.76 L 225.42 844.18 L 215.17 836.25 L 205.30 827.97 L 195.82 819.34 L 186.67 810.30 L 177.95 800.89 L 169.64 791.11 L 161.74 780.93 L 154.23 770.36 L 147.12 759.39 L 140.56 748.22 L 134.43 736.64 L 128.73 724.62 L 123.45 712.15 L 118.61 699.21 L 114.21 685.77 L 110.46 672.48 L 107.16 658.70 L 104.34 644.41 L 101.99 629.58 L 100.15 614.19 L 98.82 598.22 L 98.14 583.09 L 98.03 568.57 L 98.46 554.63 L 99.41 541.24 L 100.86 528.37 L 102.90 515.28 L 105.42 502.70 L 108.40 490.60 L 111.84 478.97 L 115.72 467.78 L 120.18 456.62 L 125.06 445.89 L 130.35 435.54 L 136.05 425.58 L 142.18 415.98 L 148.77 406.63 L 155.74 397.62 L 163.10 388.93 L 170.85 380.56 L 179.01 372.50 L 187.46 364.81 L 196.28 357.41 L 205.46 350.29 L 215.02 343.45 L 224.97 336.88 L 227.90 323.41 L 231.19 310.46 L 234.84 298.03 L 238.83 286.10 L 243.16 274.63 L 247.83 263.62 L 252.81 253.05 L 258.38 242.41 L 264.26 232.20 L 270.44 222.43 L 276.94 213.08 L 283.74 204.13 L 290.85 195.57 L 298.28 187.38 L 307.46 178.18 L 317.02 169.49 L 326.99 161.29 L 337.37 153.58 L 348.17 146.34 L 359.42 139.58 L 370.87 133.40 L 382.72 127.67 L 394.96 122.40 L 407.62 117.59 L 420.72 113.23 L 434.27 109.34 L 447.70 106.05 L 461.52 103.20 L 475.72 100.79 L 490.34 98.85 L 505.38 97.37 L 520.86 96.38 Z" fill="url(#radialGradient-1)" fill-rule="evenodd" group-id="1,2,5,13" node-id="214" stroke="none" target-height="831.9669" target-width="911.9465" target-x="98.03112" target-y="96.01346"></path></g><path d="M 520.86 96.38 L 535.27 96.01 L 549.38 96.26 L 563.21 97.12 L 576.78 98.56 L 590.11 100.60 L 603.45 103.25 L 616.45 106.45 L 629.14 110.18 L 641.52 114.44 L 653.62 119.24 L 665.55 124.62 L 677.10 130.48 L 688.29 136.81 L 699.13 143.63 L 709.63 150.95 L 719.80 158.75 L 729.54 166.99 L 738.88 175.66 L 747.82 184.77 L 756.36 194.34 L 764.43 204.28 L 772.02 214.61 L 779.16 225.35 L 785.83 236.49 L 792.05 248.07 L 803.36 253.33 L 814.52 258.98 L 825.54 265.01 L 836.41 271.43 L 847.15 278.25 L 860.23 287.24 L 872.93 296.74 L 885.27 306.77 L 897.26 317.34 L 906.54 326.15 L 915.50 335.23 L 924.13 344.59 L 932.46 354.24 L 940.47 364.18 L 948.14 374.40 L 955.41 384.85 L 962.28 395.53 L 968.76 406.44 L 974.86 417.61 L 980.52 428.99 L 985.71 440.56 L 990.44 452.32 L 994.70 464.28 L 998.49 476.45 L 1001.77 488.74 L 1004.50 501.18 L 1006.70 513.79 L 1008.35 526.58 L 1009.46 539.55 L 1009.98 552.48 L 1009.88 565.54 L 1009.17 578.77 L 1007.83 592.16 L 1005.84 605.75 L 1003.02 620.58 L 999.77 634.95 L 996.10 648.88 L 992.01 662.38 L 987.51 675.47 L 982.61 688.17 L 977.16 700.86 L 971.32 713.16 L 965.10 725.06 L 958.50 736.57 L 951.52 747.73 L 944.15 758.52 L 936.33 769.08 L 928.15 779.28 L 919.61 789.13 L 910.71 798.64 L 901.44 807.81 L 891.79 816.64 L 881.85 825.09 L 871.58 833.20 L 860.95 840.98 L 849.96 848.44 L 838.61 855.57 L 826.88 862.38 L 818.16 867.78 L 808.82 873.07 L 798.83 878.22 L 788.14 883.24 L 777.49 887.78 L 766.08 892.19 L 753.87 896.45 L 740.83 900.56 L 727.95 904.20 L 714.18 907.67 L 699.47 910.97 L 683.78 914.08 L 668.38 916.75 L 651.95 919.23 L 634.46 921.49 L 615.85 923.53 L 594.70 925.39 L 573.95 926.75 L 553.60 927.61 L 533.64 927.98 L 514.05 927.87 L 494.19 927.26 L 474.81 926.15 L 455.90 924.54 L 437.44 922.45 L 419.42 919.89 L 401.22 916.75 L 383.57 913.11 L 366.44 908.98 L 349.82 904.39 L 333.69 899.32 L 320.19 894.59 L 307.10 889.51 L 294.41 884.11 L 282.10 878.37 L 270.16 872.30 L 258.58 865.90 L 247.11 859.00 L 236.06 851.76 L 225.42 844.18 L 215.17 836.25 L 205.30 827.97 L 195.82 819.34 L 186.67 810.30 L 177.95 800.89 L 169.64 791.11 L 161.74 780.93 L 154.23 770.36 L 147.12 759.39 L 140.56 748.22 L 134.43 736.64 L 128.73 724.62 L 123.45 712.15 L 118.61 699.21 L 114.21 685.77 L 110.46 672.48 L 107.16 658.70 L 104.34 644.41 L 101.99 629.58 L 100.15 614.19 L 98.82 598.22 L 98.14 583.09 L 98.03 568.57 L 98.46 554.63 L 99.41 541.24 L 100.86 528.37 L 102.90 515.28 L 105.42 502.70 L 108.40 490.60 L 111.84 478.97 L 115.72 467.78 L 120.18 456.62 L 125.06 445.89 L 130.35 435.54 L 136.05 425.58 L 142.18 415.98 L 148.77 406.63 L 155.74 397.62 L 163.10 388.93 L 170.85 380.56 L 179.01 372.50 L 187.46 364.81 L 196.28 357.41 L 205.46 350.29 L 215.02 343.45 L 224.97 336.88 L 227.90 323.41 L 231.19 310.46 L 234.84 298.03 L 238.83 286.10 L 243.16 274.63 L 247.83 263.62 L 252.81 253.05 L 258.38 242.41 L 264.26 232.20 L 270.44 222.43 L 276.94 213.08 L 283.74 204.13 L 290.85 195.57 L 298.28 187.38 L 307.46 178.18 L 317.02 169.49 L 326.99 161.29 L 337.37 153.58 L 348.17 146.34 L 359.42 139.58 L 370.87 133.40 L 382.72 127.67 L 394.96 122.40 L 407.62 117.59 L 420.72 113.23 L 434.27 109.34 L 447.70 106.05 L 461.52 103.20 L 475.72 100.79 L 490.34 98.85 L 505.38 97.37 L 520.86 96.38 Z" fill="#000000" fill-rule="evenodd" filter="url(#filter-3)" group-id="1,2,5,14" node-id="219" stroke="none" target-height="831.9669" target-width="911.9465" target-x="98.03112" target-y="96.01346"></path></g><g node-id="314"><path d="M 971.60 624.00 L 971.36 631.54 L 970.71 638.91 L 969.63 646.13 L 968.15 653.21 L 966.26 660.15 L 963.33 668.69 L 959.84 676.94 L 955.79 684.92 L 951.18 692.64 L 946.05 700.03 L 940.45 707.08 L 934.37 713.78 L 927.78 720.17 L 920.82 726.11 L 913.47 731.63 L 905.70 736.73 L 897.51 741.43 L 889.07 745.60 L 880.31 749.28 L 871.22 752.46 L 861.77 755.14 L 852.22 757.23 L 842.43 758.74 L 832.36 759.67 L 822.00 760.00 L 811.64 759.67 L 801.57 758.74 L 791.78 757.23 L 782.23 755.14 L 772.78 752.46 L 763.69 749.28 L 754.93 745.60 L 746.49 741.43 L 738.30 736.73 L 730.53 731.63 L 723.18 726.11 L 716.22 720.17 L 709.63 713.78 L 703.55 707.08 L 697.95 700.03 L 692.82 692.64 L 688.21 684.92 L 684.16 676.94 L 680.67 668.70 L 677.74 660.15 L 675.85 653.21 L 674.37 646.13 L 673.29 638.91 L 672.64 631.54 L 672.40 624.00 L 672.64 616.46 L 673.29 609.09 L 674.37 601.87 L 675.85 594.79 L 677.74 587.85 L 680.67 579.30 L 684.16 571.06 L 688.21 563.08 L 692.82 555.36 L 697.95 547.97 L 703.55 540.92 L 709.63 534.22 L 716.22 527.83 L 723.18 521.89 L 730.53 516.37 L 738.30 511.27 L 746.49 506.57 L 754.93 502.40 L 763.69 498.72 L 772.78 495.54 L 782.23 492.86 L 791.78 490.77 L 801.57 489.26 L 811.64 488.33 L 822.00 488.00 L 832.36 488.33 L 842.43 489.26 L 852.22 490.77 L 861.77 492.86 L 871.22 495.54 L 880.31 498.72 L 889.07 502.40 L 897.51 506.57 L 905.70 511.27 L 913.47 516.37 L 920.82 521.89 L 927.78 527.83 L 934.37 534.22 L 940.45 540.92 L 946.05 547.97 L 951.18 555.36 L 955.79 563.08 L 959.84 571.06 L 963.33 579.30 L 966.26 587.85 L 968.15 594.79 L 969.63 601.87 L 970.71 609.09 L 971.36 616.46 L 971.60 624.00 Z" fill="#ff5ea4" fill-opacity="0.6" fill-rule="evenodd" filter="url(#filter-4)" group-id="1,2,6" id="椭圆形" node-id="71" stroke="none" target-height="272" target-width="299.19995" target-x="672.4" target-y="488"></path></g><g node-id="315"><path d="M 461.20 632.00 L 460.95 639.98 L 460.25 647.79 L 459.12 655.43 L 457.55 662.92 L 455.54 670.28 L 453.11 677.54 L 450.30 684.60 L 447.11 691.47 L 443.54 698.16 L 439.57 704.68 L 434.15 712.51 L 428.22 719.96 L 421.78 727.07 L 414.81 733.82 L 407.44 740.11 L 399.65 745.96 L 391.43 751.36 L 382.75 756.34 L 373.81 760.76 L 364.54 764.65 L 354.92 768.02 L 344.91 770.86 L 336.84 772.67 L 328.61 774.10 L 320.20 775.14 L 311.60 775.77 L 302.80 776.00 L 294.00 775.77 L 285.40 775.14 L 276.99 774.10 L 268.76 772.67 L 260.69 770.86 L 250.68 768.02 L 241.06 764.65 L 231.79 760.76 L 222.85 756.34 L 214.17 751.36 L 205.95 745.96 L 198.16 740.11 L 190.79 733.82 L 183.82 727.07 L 177.38 719.96 L 171.45 712.51 L 166.03 704.68 L 162.06 698.16 L 158.49 691.47 L 155.30 684.60 L 152.49 677.54 L 150.06 670.28 L 148.05 662.92 L 146.48 655.43 L 145.35 647.79 L 144.65 639.98 L 144.40 632.00 L 144.65 624.02 L 145.35 616.21 L 146.48 608.57 L 148.05 601.08 L 150.06 593.72 L 152.49 586.46 L 155.30 579.40 L 158.49 572.53 L 162.06 565.84 L 166.03 559.32 L 171.45 551.49 L 177.38 544.04 L 183.82 536.93 L 190.79 530.18 L 198.16 523.89 L 205.95 518.04 L 214.17 512.64 L 222.85 507.66 L 231.79 503.24 L 241.06 499.35 L 250.68 495.98 L 260.69 493.14 L 268.76 491.33 L 276.99 489.90 L 285.40 488.86 L 294.00 488.23 L 302.80 488.00 L 311.60 488.23 L 320.20 488.86 L 328.61 489.90 L 336.84 491.33 L 344.91 493.14 L 354.92 495.98 L 364.54 499.35 L 373.81 503.24 L 382.75 507.66 L 391.43 512.64 L 399.65 518.04 L 407.44 523.89 L 414.81 530.18 L 421.78 536.93 L 428.22 544.04 L 434.15 551.49 L 439.57 559.32 L 443.54 565.84 L 447.11 572.53 L 450.30 579.40 L 453.11 586.46 L 455.54 593.72 L 457.55 601.08 L 459.12 608.57 L 460.25 616.21 L 460.95 624.02 L 461.20 632.00 Z" fill="#ff5ea4" fill-opacity="0.6" fill-rule="evenodd" filter="url(#filter-5)" group-id="1,2,7" id="椭圆形备份-6" node-id="72" stroke="none" target-height="288" target-width="316.80002" target-x="144.4" target-y="488"></path></g><g node-id="316"><g node-id="323"><path d="M 498.00 704.00 L 634.26 704.00 L 637.19 704.27 L 639.86 705.00 L 642.34 706.18 L 644.59 707.77 L 646.49 709.68 L 648.08 711.92 L 649.26 714.40 L 649.99 717.08 L 650.26 720.00 L 649.99 722.92 L 649.26 725.60 L 648.08 728.08 L 646.49 730.32 L 644.59 732.23 L 642.34 733.82 L 639.86 735.00 L 637.19 735.73 L 634.26 736.00 L 498.00 736.00 L 495.08 735.73 L 492.40 735.00 L 489.92 733.82 L 487.68 732.23 L 485.77 730.32 L 484.18 728.08 L 483.00 725.60 L 482.27 722.92 L 482.00 720.00 L 482.27 717.08 L 483.00 714.40 L 484.18 711.92 L 485.77 709.68 L 487.68 707.77 L 489.92 706.18 L 492.40 705.00 L 495.08 704.27 L 498.00 704.00 Z" fill="#000000" fill-rule="evenodd" filter="url(#filter-7)" group-id="1,2,8,15" node-id="234" stroke="none" target-height="32" target-width="168.26495" target-x="482" target-y="704"></path></g><g node-id="324"><path d="M 498.00 704.00 L 634.26 704.00 L 637.19 704.27 L 639.86 705.00 L 642.34 706.18 L 644.59 707.77 L 646.49 709.68 L 648.08 711.92 L 649.26 714.40 L 649.99 717.08 L 650.26 720.00 L 649.99 722.92 L 649.26 725.60 L 648.08 728.08 L 646.49 730.32 L 644.59 732.23 L 642.34 733.82 L 639.86 735.00 L 637.19 735.73 L 634.26 736.00 L 498.00 736.00 L 495.08 735.73 L 492.40 735.00 L 489.92 733.82 L 487.68 732.23 L 485.77 730.32 L 484.18 728.08 L 483.00 725.60 L 482.27 722.92 L 482.00 720.00 L 482.27 717.08 L 483.00 714.40 L 484.18 711.92 L 485.77 709.68 L 487.68 707.77 L 489.92 706.18 L 492.40 705.00 L 495.08 704.27 L 498.00 704.00 Z" fill="#ed1f2a" fill-rule="evenodd" group-id="1,2,8,16" node-id="239" stroke="none" target-height="32" target-width="168.26495" target-x="482" target-y="704"></path></g><path d="M 498.00 704.00 L 634.26 704.00 L 637.19 704.27 L 639.86 705.00 L 642.34 706.18 L 644.59 707.77 L 646.49 709.68 L 648.08 711.92 L 649.26 714.40 L 649.99 717.08 L 650.26 720.00 L 649.99 722.92 L 649.26 725.60 L 648.08 728.08 L 646.49 730.32 L 644.59 732.23 L 642.34 733.82 L 639.86 735.00 L 637.19 735.73 L 634.26 736.00 L 498.00 736.00 L 495.08 735.73 L 492.40 735.00 L 489.92 733.82 L 487.68 732.23 L 485.77 730.32 L 484.18 728.08 L 483.00 725.60 L 482.27 722.92 L 482.00 720.00 L 482.27 717.08 L 483.00 714.40 L 484.18 711.92 L 485.77 709.68 L 487.68 707.77 L 489.92 706.18 L 492.40 705.00 L 495.08 704.27 L 498.00 704.00 Z" fill="#000000" fill-rule="evenodd" filter="url(#filter-8)" group-id="1,2,8,17" node-id="244" stroke="none" target-height="32" target-width="168.26495" target-x="482" target-y="704"></path></g></g><g node-id="311"><g node-id="317"><g node-id="326"><path d="M 850.00 504.38 L 849.71 512.69 L 848.89 520.76 L 847.56 528.62 L 845.71 536.28 L 843.35 543.84 L 840.55 551.13 L 837.31 558.16 L 833.62 564.95 L 829.49 571.50 L 824.99 577.72 L 820.11 583.63 L 814.85 589.24 L 809.25 594.50 L 803.34 599.37 L 797.12 603.87 L 790.57 608.00 L 783.78 611.69 L 776.75 614.94 L 769.46 617.74 L 761.90 620.10 L 754.23 621.94 L 746.37 623.28 L 738.30 624.09 L 730.00 624.38 L 721.70 624.09 L 713.63 623.28 L 705.77 621.94 L 698.10 620.10 L 690.54 617.74 L 683.25 614.94 L 676.22 611.69 L 669.43 608.00 L 662.88 603.87 L 656.66 599.37 L 650.75 594.50 L 645.15 589.24 L 639.89 583.63 L 635.01 577.72 L 630.51 571.50 L 626.38 564.95 L 622.69 558.16 L 619.45 551.13 L 616.65 543.84 L 614.29 536.28 L 612.44 528.62 L 611.11 520.76 L 610.29 512.69 L 610.00 504.38 L 610.29 496.08 L 611.11 488.01 L 612.44 480.15 L 614.29 472.48 L 616.65 464.92 L 619.45 457.64 L 622.69 450.61 L 626.38 443.82 L 630.51 437.27 L 635.01 431.05 L 639.89 425.14 L 645.15 419.53 L 650.75 414.27 L 656.66 409.39 L 662.88 404.90 L 669.43 400.77 L 676.22 397.07 L 683.25 393.83 L 690.54 391.03 L 698.10 388.67 L 705.77 386.82 L 713.63 385.49 L 721.70 384.67 L 730.00 384.38 L 738.30 384.67 L 746.37 385.49 L 754.23 386.82 L 761.90 388.67 L 769.46 391.03 L 776.75 393.83 L 783.78 397.07 L 790.57 400.77 L 797.12 404.90 L 803.34 409.39 L 809.25 414.27 L 814.85 419.53 L 820.11 425.14 L 824.99 431.05 L 829.49 437.27 L 833.62 443.82 L 837.31 450.61 L 840.55 457.64 L 843.36 464.92 L 845.71 472.48 L 847.56 480.15 L 848.89 488.01 L 849.71 496.08 L 850.00 504.38 Z" fill="#000000" fill-rule="evenodd" filter="url(#filter-11)" group-id="1,3,9,18" node-id="253" stroke="none" target-height="240.00003" target-width="240" target-x="610" target-y="384.38364"></path></g><g node-id="327"><path d="M 850.00 504.38 L 849.71 512.69 L 848.89 520.76 L 847.56 528.62 L 845.71 536.28 L 843.35 543.84 L 840.55 551.13 L 837.31 558.16 L 833.62 564.95 L 829.49 571.50 L 824.99 577.72 L 820.11 583.63 L 814.85 589.24 L 809.25 594.50 L 803.34 599.37 L 797.12 603.87 L 790.57 608.00 L 783.78 611.69 L 776.75 614.94 L 769.46 617.74 L 761.90 620.10 L 754.23 621.94 L 746.37 623.28 L 738.30 624.09 L 730.00 624.38 L 721.70 624.09 L 713.63 623.28 L 705.77 621.94 L 698.10 620.10 L 690.54 617.74 L 683.25 614.94 L 676.22 611.69 L 669.43 608.00 L 662.88 603.87 L 656.66 599.37 L 650.75 594.50 L 645.15 589.24 L 639.89 583.63 L 635.01 577.72 L 630.51 571.50 L 626.38 564.95 L 622.69 558.16 L 619.45 551.13 L 616.65 543.84 L 614.29 536.28 L 612.44 528.62 L 611.11 520.76 L 610.29 512.69 L 610.00 504.38 L 610.29 496.08 L 611.11 488.01 L 612.44 480.15 L 614.29 472.48 L 616.65 464.92 L 619.45 457.64 L 622.69 450.61 L 626.38 443.82 L 630.51 437.27 L 635.01 431.05 L 639.89 425.14 L 645.15 419.53 L 650.75 414.27 L 656.66 409.39 L 662.88 404.90 L 669.43 400.77 L 676.22 397.07 L 683.25 393.83 L 690.54 391.03 L 698.10 388.67 L 705.77 386.82 L 713.63 385.49 L 721.70 384.67 L 730.00 384.38 L 738.30 384.67 L 746.37 385.49 L 754.23 386.82 L 761.90 388.67 L 769.46 391.03 L 776.75 393.83 L 783.78 397.07 L 790.57 400.77 L 797.12 404.90 L 803.34 409.39 L 809.25 414.27 L 814.85 419.53 L 820.11 425.14 L 824.99 431.05 L 829.49 437.27 L 833.62 443.82 L 837.31 450.61 L 840.55 457.64 L 843.36 464.92 L 845.71 472.48 L 847.56 480.15 L 848.89 488.01 L 849.71 496.08 L 850.00 504.38 Z" fill="url(#linearGradient-9)" fill-rule="evenodd" group-id="1,3,9,19" node-id="258" stroke="none" target-height="240.00003" target-width="240" target-x="610" target-y="384.38364"></path></g><path d="M 850.00 504.38 L 849.71 512.69 L 848.89 520.76 L 847.56 528.62 L 845.71 536.28 L 843.35 543.84 L 840.55 551.13 L 837.31 558.16 L 833.62 564.95 L 829.49 571.50 L 824.99 577.72 L 820.11 583.63 L 814.85 589.24 L 809.25 594.50 L 803.34 599.37 L 797.12 603.87 L 790.57 608.00 L 783.78 611.69 L 776.75 614.94 L 769.46 617.74 L 761.90 620.10 L 754.23 621.94 L 746.37 623.28 L 738.30 624.09 L 730.00 624.38 L 721.70 624.09 L 713.63 623.28 L 705.77 621.94 L 698.10 620.10 L 690.54 617.74 L 683.25 614.94 L 676.22 611.69 L 669.43 608.00 L 662.88 603.87 L 656.66 599.37 L 650.75 594.50 L 645.15 589.24 L 639.89 583.63 L 635.01 577.72 L 630.51 571.50 L 626.38 564.95 L 622.69 558.16 L 619.45 551.13 L 616.65 543.84 L 614.29 536.28 L 612.44 528.62 L 611.11 520.76 L 610.29 512.69 L 610.00 504.38 L 610.29 496.08 L 611.11 488.01 L 612.44 480.15 L 614.29 472.48 L 616.65 464.92 L 619.45 457.64 L 622.69 450.61 L 626.38 443.82 L 630.51 437.27 L 635.01 431.05 L 639.89 425.14 L 645.15 419.53 L 650.75 414.27 L 656.66 409.39 L 662.88 404.90 L 669.43 400.77 L 676.22 397.07 L 683.25 393.83 L 690.54 391.03 L 698.10 388.67 L 705.77 386.82 L 713.63 385.49 L 721.70 384.67 L 730.00 384.38 L 738.30 384.67 L 746.37 385.49 L 754.23 386.82 L 761.90 388.67 L 769.46 391.03 L 776.75 393.83 L 783.78 397.07 L 790.57 400.77 L 797.12 404.90 L 803.34 409.39 L 809.25 414.27 L 814.85 419.53 L 820.11 425.14 L 824.99 431.05 L 829.49 437.27 L 833.62 443.82 L 837.31 450.61 L 840.55 457.64 L 843.36 464.92 L 845.71 472.48 L 847.56 480.15 L 848.89 488.01 L 849.71 496.08 L 850.00 504.38 Z" fill="#000000" fill-rule="evenodd" filter="url(#filter-12)" group-id="1,3,9,20" node-id="263" stroke="none" target-height="240.00003" target-width="240" target-x="610" target-y="384.38364"></path></g><g node-id="318"><g node-id="329"><path d="M 778.00 504.38 L 777.73 509.37 L 777.01 514.12 L 775.84 518.68 L 774.23 523.07 L 772.18 527.30 L 769.79 531.23 L 767.05 534.91 L 763.94 538.32 L 760.52 541.43 L 756.85 544.18 L 752.91 546.57 L 748.68 548.61 L 744.30 550.23 L 739.74 551.39 L 734.98 552.12 L 730.00 552.38 L 725.02 552.12 L 720.26 551.39 L 715.70 550.23 L 711.32 548.61 L 707.09 546.57 L 703.15 544.18 L 699.48 541.43 L 696.06 538.32 L 692.95 534.91 L 690.21 531.23 L 687.82 527.30 L 685.77 523.07 L 684.16 518.68 L 682.99 514.12 L 682.27 509.37 L 682.00 504.38 L 682.27 499.40 L 682.99 494.64 L 684.16 490.08 L 685.77 485.70 L 687.82 481.47 L 690.21 477.53 L 692.95 473.86 L 696.06 470.44 L 699.48 467.33 L 703.15 464.59 L 707.09 462.20 L 711.32 460.16 L 715.70 458.54 L 720.26 457.37 L 725.02 456.65 L 730.00 456.38 L 734.98 456.65 L 739.74 457.37 L 744.30 458.54 L 748.68 460.16 L 752.91 462.20 L 756.85 464.59 L 760.52 467.33 L 763.94 470.44 L 767.05 473.86 L 769.79 477.53 L 772.18 481.47 L 774.23 485.70 L 775.84 490.08 L 777.01 494.64 L 777.73 499.40 L 778.00 504.38 Z" fill="#930027" fill-rule="evenodd" group-id="1,3,10,21" node-id="270" stroke="none" target-height="96.00003" target-width="96" target-x="682" target-y="456.38364"></path></g><path d="M 778.00 504.38 L 777.73 509.37 L 777.01 514.12 L 775.84 518.68 L 774.23 523.07 L 772.18 527.30 L 769.79 531.23 L 767.05 534.91 L 763.94 538.32 L 760.52 541.43 L 756.85 544.18 L 752.91 546.57 L 748.68 548.61 L 744.30 550.23 L 739.74 551.39 L 734.98 552.12 L 730.00 552.38 L 725.02 552.12 L 720.26 551.39 L 715.70 550.23 L 711.32 548.61 L 707.09 546.57 L 703.15 544.18 L 699.48 541.43 L 696.06 538.32 L 692.95 534.91 L 690.21 531.23 L 687.82 527.30 L 685.77 523.07 L 684.16 518.68 L 682.99 514.12 L 682.27 509.37 L 682.00 504.38 L 682.27 499.40 L 682.99 494.64 L 684.16 490.08 L 685.77 485.70 L 687.82 481.47 L 690.21 477.53 L 692.95 473.86 L 696.06 470.44 L 699.48 467.33 L 703.15 464.59 L 707.09 462.20 L 711.32 460.16 L 715.70 458.54 L 720.26 457.37 L 725.02 456.65 L 730.00 456.38 L 734.98 456.65 L 739.74 457.37 L 744.30 458.54 L 748.68 460.16 L 752.91 462.20 L 756.85 464.59 L 760.52 467.33 L 763.94 470.44 L 767.05 473.86 L 769.79 477.53 L 772.18 481.47 L 774.23 485.70 L 775.84 490.08 L 777.01 494.64 L 777.73 499.40 L 778.00 504.38 Z" fill="#000000" fill-rule="evenodd" filter="url(#filter-14)" group-id="1,3,10,22" node-id="275" stroke="none" target-height="96.00003" target-width="96" target-x="682" target-y="456.38364"></path></g><path d="M 762.00 488.38 L 761.73 491.30 L 761.00 493.98 L 759.82 496.46 L 758.23 498.70 L 756.32 500.61 L 754.08 502.20 L 751.60 503.38 L 748.92 504.11 L 746.00 504.38 L 743.08 504.11 L 740.40 503.38 L 737.92 502.20 L 735.68 500.61 L 733.77 498.70 L 732.18 496.46 L 731.00 493.98 L 730.27 491.30 L 730.00 488.38 L 730.27 485.46 L 731.00 482.79 L 732.18 480.31 L 733.77 478.06 L 735.68 476.16 L 737.92 474.57 L 740.40 473.38 L 743.08 472.66 L 746.00 472.38 L 748.92 472.66 L 751.60 473.38 L 754.08 474.57 L 756.32 476.16 L 758.23 478.06 L 759.82 480.31 L 761.00 482.79 L 761.73 485.46 L 762.00 488.38 Z" fill="#ffffff" fill-rule="evenodd" group-id="1,3" id="椭圆形" node-id="85" stroke="none" target-height="32" target-width="32" target-x="730" target-y="472.38364"></path></g><g node-id="312"><g node-id="319"><g node-id="331"><path d="M 514.00 504.38 L 513.71 512.69 L 512.89 520.76 L 511.56 528.62 L 509.71 536.28 L 507.35 543.84 L 504.55 551.13 L 501.31 558.16 L 497.62 564.95 L 493.49 571.50 L 488.99 577.72 L 484.11 583.63 L 478.85 589.24 L 473.25 594.50 L 467.34 599.37 L 461.12 603.87 L 454.57 608.00 L 447.78 611.69 L 440.75 614.94 L 433.46 617.74 L 425.90 620.10 L 418.23 621.94 L 410.37 623.28 L 402.30 624.09 L 394.00 624.38 L 385.70 624.09 L 377.63 623.28 L 369.77 621.94 L 362.10 620.10 L 354.54 617.74 L 347.25 614.94 L 340.22 611.69 L 333.43 608.00 L 326.88 603.87 L 320.66 599.37 L 314.75 594.50 L 309.15 589.24 L 303.89 583.63 L 299.01 577.72 L 294.51 571.50 L 290.38 564.95 L 286.69 558.16 L 283.45 551.13 L 280.65 543.84 L 278.29 536.28 L 276.44 528.62 L 275.11 520.76 L 274.29 512.69 L 274.00 504.38 L 274.29 496.08 L 275.11 488.01 L 276.44 480.15 L 278.29 472.48 L 280.65 464.92 L 283.45 457.64 L 286.69 450.61 L 290.38 443.82 L 294.51 437.27 L 299.01 431.05 L 303.89 425.14 L 309.15 419.53 L 314.75 414.27 L 320.66 409.39 L 326.88 404.90 L 333.43 400.77 L 340.22 397.07 L 347.25 393.83 L 354.54 391.03 L 362.10 388.67 L 369.77 386.82 L 377.63 385.49 L 385.70 384.67 L 394.00 384.38 L 402.30 384.67 L 410.37 385.49 L 418.23 386.82 L 425.90 388.67 L 433.46 391.03 L 440.75 393.83 L 447.78 397.07 L 454.57 400.77 L 461.12 404.90 L 467.34 409.39 L 473.25 414.27 L 478.85 419.53 L 484.11 425.14 L 488.99 431.05 L 493.49 437.27 L 497.62 443.82 L 501.31 450.61 L 504.55 457.64 L 507.35 464.92 L 509.71 472.48 L 511.56 480.15 L 512.89 488.01 L 513.71 496.08 L 514.00 504.38 Z" fill="#000000" fill-rule="evenodd" filter="url(#filter-16)" group-id="1,4,11,23" node-id="285" stroke="none" target-height="240.00003" target-width="240" target-x="274" target-y="384.38364"></path></g><g node-id="332"><path d="M 514.00 504.38 L 513.71 512.69 L 512.89 520.76 L 511.56 528.62 L 509.71 536.28 L 507.35 543.84 L 504.55 551.13 L 501.31 558.16 L 497.62 564.95 L 493.49 571.50 L 488.99 577.72 L 484.11 583.63 L 478.85 589.24 L 473.25 594.50 L 467.34 599.37 L 461.12 603.87 L 454.57 608.00 L 447.78 611.69 L 440.75 614.94 L 433.46 617.74 L 425.90 620.10 L 418.23 621.94 L 410.37 623.28 L 402.30 624.09 L 394.00 624.38 L 385.70 624.09 L 377.63 623.28 L 369.77 621.94 L 362.10 620.10 L 354.54 617.74 L 347.25 614.94 L 340.22 611.69 L 333.43 608.00 L 326.88 603.87 L 320.66 599.37 L 314.75 594.50 L 309.15 589.24 L 303.89 583.63 L 299.01 577.72 L 294.51 571.50 L 290.38 564.95 L 286.69 558.16 L 283.45 551.13 L 280.65 543.84 L 278.29 536.28 L 276.44 528.62 L 275.11 520.76 L 274.29 512.69 L 274.00 504.38 L 274.29 496.08 L 275.11 488.01 L 276.44 480.15 L 278.29 472.48 L 280.65 464.92 L 283.45 457.64 L 286.69 450.61 L 290.38 443.82 L 294.51 437.27 L 299.01 431.05 L 303.89 425.14 L 309.15 419.53 L 314.75 414.27 L 320.66 409.39 L 326.88 404.90 L 333.43 400.77 L 340.22 397.07 L 347.25 393.83 L 354.54 391.03 L 362.10 388.67 L 369.77 386.82 L 377.63 385.49 L 385.70 384.67 L 394.00 384.38 L 402.30 384.67 L 410.37 385.49 L 418.23 386.82 L 425.90 388.67 L 433.46 391.03 L 440.75 393.83 L 447.78 397.07 L 454.57 400.77 L 461.12 404.90 L 467.34 409.39 L 473.25 414.27 L 478.85 419.53 L 484.11 425.14 L 488.99 431.05 L 493.49 437.27 L 497.62 443.82 L 501.31 450.61 L 504.55 457.64 L 507.35 464.92 L 509.71 472.48 L 511.56 480.15 L 512.89 488.01 L 513.71 496.08 L 514.00 504.38 Z" fill="url(#linearGradient-9)" fill-rule="evenodd" group-id="1,4,11,24" node-id="290" stroke="none" target-height="240.00003" target-width="240" target-x="274" target-y="384.38364"></path></g><path d="M 514.00 504.38 L 513.71 512.69 L 512.89 520.76 L 511.56 528.62 L 509.71 536.28 L 507.35 543.84 L 504.55 551.13 L 501.31 558.16 L 497.62 564.95 L 493.49 571.50 L 488.99 577.72 L 484.11 583.63 L 478.85 589.24 L 473.25 594.50 L 467.34 599.37 L 461.12 603.87 L 454.57 608.00 L 447.78 611.69 L 440.75 614.94 L 433.46 617.74 L 425.90 620.10 L 418.23 621.94 L 410.37 623.28 L 402.30 624.09 L 394.00 624.38 L 385.70 624.09 L 377.63 623.28 L 369.77 621.94 L 362.10 620.10 L 354.54 617.74 L 347.25 614.94 L 340.22 611.69 L 333.43 608.00 L 326.88 603.87 L 320.66 599.37 L 314.75 594.50 L 309.15 589.24 L 303.89 583.63 L 299.01 577.72 L 294.51 571.50 L 290.38 564.95 L 286.69 558.16 L 283.45 551.13 L 280.65 543.84 L 278.29 536.28 L 276.44 528.62 L 275.11 520.76 L 274.29 512.69 L 274.00 504.38 L 274.29 496.08 L 275.11 488.01 L 276.44 480.15 L 278.29 472.48 L 280.65 464.92 L 283.45 457.64 L 286.69 450.61 L 290.38 443.82 L 294.51 437.27 L 299.01 431.05 L 303.89 425.14 L 309.15 419.53 L 314.75 414.27 L 320.66 409.39 L 326.88 404.90 L 333.43 400.77 L 340.22 397.07 L 347.25 393.83 L 354.54 391.03 L 362.10 388.67 L 369.77 386.82 L 377.63 385.49 L 385.70 384.67 L 394.00 384.38 L 402.30 384.67 L 410.37 385.49 L 418.23 386.82 L 425.90 388.67 L 433.46 391.03 L 440.75 393.83 L 447.78 397.07 L 454.57 400.77 L 461.12 404.90 L 467.34 409.39 L 473.25 414.27 L 478.85 419.53 L 484.11 425.14 L 488.99 431.05 L 493.49 437.27 L 497.62 443.82 L 501.31 450.61 L 504.55 457.64 L 507.35 464.92 L 509.71 472.48 L 511.56 480.15 L 512.89 488.01 L 513.71 496.08 L 514.00 504.38 Z" fill="#000000" fill-rule="evenodd" filter="url(#filter-17)" group-id="1,4,11,25" node-id="295" stroke="none" target-height="240.00003" target-width="240" target-x="274" target-y="384.38364"></path></g><g node-id="320"><g node-id="334"><path d="M 442.00 504.38 L 441.73 509.37 L 441.01 514.12 L 439.84 518.68 L 438.23 523.07 L 436.18 527.30 L 433.79 531.23 L 431.05 534.91 L 427.94 538.32 L 424.52 541.43 L 420.85 544.18 L 416.91 546.57 L 412.68 548.61 L 408.30 550.23 L 403.74 551.39 L 398.98 552.12 L 394.00 552.38 L 389.02 552.12 L 384.26 551.39 L 379.70 550.23 L 375.32 548.61 L 371.09 546.57 L 367.15 544.18 L 363.48 541.43 L 360.06 538.32 L 356.95 534.91 L 354.21 531.23 L 351.82 527.30 L 349.77 523.07 L 348.16 518.68 L 346.99 514.12 L 346.27 509.37 L 346.00 504.38 L 346.27 499.40 L 346.99 494.64 L 348.16 490.08 L 349.77 485.70 L 351.82 481.47 L 354.21 477.53 L 356.95 473.86 L 360.06 470.44 L 363.48 467.33 L 367.15 464.59 L 371.09 462.20 L 375.32 460.16 L 379.70 458.54 L 384.26 457.37 L 389.02 456.65 L 394.00 456.38 L 398.98 456.65 L 403.74 457.37 L 408.30 458.54 L 412.68 460.16 L 416.91 462.20 L 420.85 464.59 L 424.52 467.33 L 427.94 470.44 L 431.05 473.86 L 433.79 477.53 L 436.18 481.47 L 438.23 485.70 L 439.84 490.08 L 441.01 494.64 L 441.73 499.40 L 442.00 504.38 Z" fill="#930027" fill-rule="evenodd" group-id="1,4,12,26" node-id="302" stroke="none" target-height="96.00003" target-width="96" target-x="346" target-y="456.38364"></path></g><path d="M 442.00 504.38 L 441.73 509.37 L 441.01 514.12 L 439.84 518.68 L 438.23 523.07 L 436.18 527.30 L 433.79 531.23 L 431.05 534.91 L 427.94 538.32 L 424.52 541.43 L 420.85 544.18 L 416.91 546.57 L 412.68 548.61 L 408.30 550.23 L 403.74 551.39 L 398.98 552.12 L 394.00 552.38 L 389.02 552.12 L 384.26 551.39 L 379.70 550.23 L 375.32 548.61 L 371.09 546.57 L 367.15 544.18 L 363.48 541.43 L 360.06 538.32 L 356.95 534.91 L 354.21 531.23 L 351.82 527.30 L 349.77 523.07 L 348.16 518.68 L 346.99 514.12 L 346.27 509.37 L 346.00 504.38 L 346.27 499.40 L 346.99 494.64 L 348.16 490.08 L 349.77 485.70 L 351.82 481.47 L 354.21 477.53 L 356.95 473.86 L 360.06 470.44 L 363.48 467.33 L 367.15 464.59 L 371.09 462.20 L 375.32 460.16 L 379.70 458.54 L 384.26 457.37 L 389.02 456.65 L 394.00 456.38 L 398.98 456.65 L 403.74 457.37 L 408.30 458.54 L 412.68 460.16 L 416.91 462.20 L 420.85 464.59 L 424.52 467.33 L 427.94 470.44 L 431.05 473.86 L 433.79 477.53 L 436.18 481.47 L 438.23 485.70 L 439.84 490.08 L 441.01 494.64 L 441.73 499.40 L 442.00 504.38 Z" fill="#000000" fill-rule="evenodd" filter="url(#filter-19)" group-id="1,4,12,27" node-id="307" stroke="none" target-height="96.00003" target-width="96" target-x="346" target-y="456.38364"></path></g><path d="M 426.00 488.38 L 425.73 491.30 L 425.00 493.98 L 423.82 496.46 L 422.23 498.70 L 420.32 500.61 L 418.08 502.20 L 415.60 503.38 L 412.92 504.11 L 410.00 504.38 L 407.08 504.11 L 404.40 503.38 L 401.92 502.20 L 399.68 500.61 L 397.77 498.70 L 396.18 496.46 L 395.00 493.98 L 394.27 491.30 L 394.00 488.38 L 394.27 485.46 L 395.00 482.79 L 396.18 480.31 L 397.77 478.06 L 399.68 476.16 L 401.92 474.57 L 404.40 473.38 L 407.08 472.66 L 410.00 472.38 L 412.92 472.66 L 415.60 473.38 L 418.08 474.57 L 420.32 476.16 L 422.23 478.06 L 423.82 480.31 L 425.00 482.79 L 425.73 485.46 L 426.00 488.38 Z" fill="#ffffff" fill-rule="evenodd" group-id="1,4" id="椭圆形" node-id="94" stroke="none" target-height="32" target-width="32" target-x="394" target-y="472.38364"></path></g><path d="M 279.83 306.91 L 287.81 300.69 L 295.86 295.07 L 304.00 290.02 L 312.23 285.54 L 320.57 281.59 L 329.02 278.16 L 337.60 275.25 L 346.32 272.85 L 355.14 270.97 L 364.11 269.59 L 373.23 268.72 L 382.54 268.35 L 392.04 268.51 L 401.74 269.20 L 411.68 270.43 L 421.87 272.23 L 424.68 273.07 L 427.15 274.32 L 429.35 275.97 L 431.23 277.97 L 432.72 280.22 L 433.83 282.73 L 434.50 285.40 L 434.69 288.17 L 434.37 291.08 L 433.53 293.89 L 432.28 296.37 L 430.63 298.56 L 428.62 300.45 L 426.38 301.94 L 423.86 303.05 L 421.20 303.72 L 418.43 303.90 L 415.51 303.59 L 405.94 301.92 L 396.67 300.86 L 387.67 300.38 L 378.93 300.45 L 370.42 301.07 L 362.13 302.23 L 354.02 303.91 L 346.02 306.15 L 338.14 308.93 L 330.38 312.28 L 322.71 316.19 L 315.13 320.71 L 307.61 325.84 L 300.17 331.62 L 297.74 333.26 L 295.21 334.40 L 292.54 335.06 L 289.80 335.26 L 287.12 335.00 L 284.46 334.28 L 281.97 333.11 L 279.71 331.51 L 277.64 329.43 L 276.00 327.00 L 274.86 324.47 L 274.20 321.80 L 274.00 319.06 L 274.26 316.38 L 274.99 313.72 L 276.15 311.24 L 277.75 308.97 L 279.83 306.91 Z" fill="#a05400" fill-rule="nonzero" group-id="1" id="路径-154" node-id="95" stroke="none" target-height="66.90622" target-width="160.68396" target-x="274.00183" target-y="268.35397"></path><path d="M 641.79 269.04 L 653.10 265.89 L 664.02 263.45 L 674.56 261.69 L 684.76 260.57 L 694.64 260.08 L 704.22 260.19 L 713.52 260.89 L 722.58 262.15 L 731.41 263.98 L 740.22 266.44 L 748.81 269.49 L 757.18 273.13 L 765.35 277.38 L 773.35 282.25 L 781.19 287.77 L 788.86 293.96 L 796.39 300.85 L 803.79 308.49 L 805.55 310.84 L 806.81 313.31 L 807.61 315.94 L 807.94 318.67 L 807.81 321.36 L 807.22 324.04 L 806.19 326.59 L 804.70 328.93 L 802.72 331.10 L 800.38 332.86 L 797.91 334.12 L 795.28 334.91 L 792.55 335.25 L 789.86 335.12 L 787.17 334.53 L 784.63 333.50 L 782.29 332.01 L 780.12 330.03 L 774.27 323.95 L 768.32 318.47 L 762.26 313.56 L 756.09 309.20 L 749.80 305.36 L 743.37 302.03 L 736.81 299.18 L 730.08 296.81 L 723.19 294.92 L 715.45 293.39 L 707.41 292.43 L 699.05 292.03 L 690.32 292.24 L 681.20 293.06 L 671.66 294.54 L 661.66 296.72 L 651.16 299.64 L 648.29 300.23 L 645.52 300.32 L 642.80 299.92 L 640.19 299.05 L 637.81 297.79 L 635.63 296.11 L 633.77 294.09 L 632.29 291.74 L 631.17 289.03 L 630.58 286.16 L 630.49 283.38 L 630.90 280.67 L 631.76 278.06 L 633.02 275.68 L 634.70 273.50 L 636.73 271.64 L 639.07 270.16 L 641.79 269.04 Z" fill="#a05400" fill-rule="nonzero" group-id="1" id="路径-155" node-id="96" stroke="none" target-height="75.168884" target-width="177.44897" target-x="630.4923" target-y="260.08148"></path></g></svg>