<?xml version="1.0" standalone="no"?><!DOCTYPE svg PUBLIC "-//W3C//DTD SVG 1.1//EN" "http://www.w3.org/Graphics/SVG/1.1/DTD/svg11.dtd"><svg height="1024" node-id="1" sillyvg="true" template-height="1024" template-width="1024" version="1.1" viewBox="0 0 1024 1024" width="1024" xmlns="http://www.w3.org/2000/svg" xmlns:xlink="http://www.w3.org/1999/xlink"><defs node-id="77"><radialGradient cx="0.5" cy="0.19668992" fx="0.5" fy="0.19668992" gradientTransform="matrix(0 1 -0.912281 0 0.67943655 -0.30331)" gradientUnits="objectBoundingBox" id="radialGradient-1" node-id="5" r="0.9393923" rev="2" spreadMethod="pad"><stop offset="0" stop-color="#ffe476"></stop><stop offset="0.41387266" stop-color="#fcec6c"></stop><stop offset="1" stop-color="#ffb02f"></stop></radialGradient><linearGradient gradientUnits="objectBoundingBox" id="linearGradient-6" node-id="21" spreadMethod="pad" x1="0.5" x2="0.5" y1="0.1186253" y2="1"><stop offset="0" stop-color="#ff8b9f"></stop><stop offset="1" stop-color="#ff5166"></stop></linearGradient><filter height="1.173" id="filter-3" node-id="10" width="1.158" x="-0.079" y="-0.087"><feGaussianBlur color-interpolation-filters="linearRGB" in="SourceAlpha" result="shadowBlurInner1" stdDeviation="64 64"></feGaussianBlur><feOffset color-interpolation-filters="linearRGB" dx="0" dy="16" in="shadowBlurInner1" result="shadowOffsetInner1"></feOffset><feComposite color-interpolation-filters="linearRGB" in="shadowOffsetInner1" in2="SourceAlpha" k1="0" k2="-1" k3="1" k4="0" operator="arithmetic" result="shadowInnerInner1"></feComposite><feColorMatrix color-interpolation-filters="linearRGB" in="shadowInnerInner1" result="result4" type="matrix" values="0 0 0 0 0.968627451 0 0 0 0 0.68627451 0 0 0 0 0.270588235 0 0 0 0.501145583 0"></feColorMatrix></filter><filter height="1.336" id="filter-5" node-id="16" width="1.442" x="-0.221" y="-0.168"><feGaussianBlur color-interpolation-filters="linearRGB" in="SourceAlpha" result="shadowBlurInner1" stdDeviation="48 48"></feGaussianBlur><feOffset color-interpolation-filters="linearRGB" dx="0" dy="0" in="shadowBlurInner1" result="shadowOffsetInner1"></feOffset><feComposite color-interpolation-filters="linearRGB" in="shadowOffsetInner1" in2="SourceAlpha" k1="0" k2="-1" k3="1" k4="0" operator="arithmetic" result="shadowInnerInner1"></feComposite><feColorMatrix color-interpolation-filters="linearRGB" in="shadowInnerInner1" result="result4" type="matrix" values="0 0 0 0 0.661258421 0 0 0 0 0.0872254633 0 0 0 0 0.00982776113 0 0 0 1 0"></feColorMatrix></filter><filter height="2.8" id="filter-7" node-id="24" width="2.636" x="-0.818" y="-0.9"><feGaussianBlur color-interpolation-filters="linearRGB" in="SourceGraphic" result="result1" stdDeviation="48 48"></feGaussianBlur></filter><filter height="2.8" id="filter-8" node-id="26" width="2.636" x="-0.818" y="-0.9"><feGaussianBlur color-interpolation-filters="linearRGB" in="SourceGraphic" result="result1" stdDeviation="48 48"></feGaussianBlur></filter><filter height="1.859" id="filter-10" node-id="29" width="1.857" x="-0.429" y="-0.429"><feOffset color-interpolation-filters="linearRGB" dx="0" dy="0" in="SourceAlpha" result="shadowOffsetOuter1"></feOffset><feGaussianBlur color-interpolation-filters="linearRGB" in="shadowOffsetOuter1" result="shadowBlurOuter1" stdDeviation="32 32"></feGaussianBlur><feColorMatrix color-interpolation-filters="linearRGB" in="shadowBlurOuter1" result="result3" type="matrix" values="0 0 0 0 0.888848346 0 0 0 0 0.591702642 0 0 0 0 0.178785883 0 0 0 1 0"></feColorMatrix></filter><filter height="1.93" id="filter-11" node-id="33" width="1.929" x="-0.464" y="-0.465"><feGaussianBlur color-interpolation-filters="linearRGB" in="SourceAlpha" result="shadowBlurInner1" stdDeviation="32 32"></feGaussianBlur><feOffset color-interpolation-filters="linearRGB" dx="0" dy="16" in="shadowBlurInner1" result="shadowOffsetInner1"></feOffset><feComposite color-interpolation-filters="linearRGB" in="shadowOffsetInner1" in2="SourceAlpha" k1="0" k2="-1" k3="1" k4="0" operator="arithmetic" result="shadowInnerInner1"></feComposite><feColorMatrix color-interpolation-filters="linearRGB" in="shadowInnerInner1" result="result4" type="matrix" values="0 0 0 0 0.188235294 0 0 0 0 0.0823529412 0 0 0 0 0.00784313725 0 0 0 0.80111673 0"></feColorMatrix></filter><filter height="1.859" id="filter-13" node-id="39" width="1.857" x="-0.429" y="-0.429"><feOffset color-interpolation-filters="linearRGB" dx="0" dy="0" in="SourceAlpha" result="shadowOffsetOuter1"></feOffset><feGaussianBlur color-interpolation-filters="linearRGB" in="shadowOffsetOuter1" result="shadowBlurOuter1" stdDeviation="32 32"></feGaussianBlur><feColorMatrix color-interpolation-filters="linearRGB" in="shadowBlurOuter1" result="result3" type="matrix" values="0 0 0 0 0.888848346 0 0 0 0 0.591702642 0 0 0 0 0.178785883 0 0 0 1 0"></feColorMatrix></filter><filter height="1.93" id="filter-14" node-id="43" width="1.929" x="-0.464" y="-0.465"><feGaussianBlur color-interpolation-filters="linearRGB" in="SourceAlpha" result="shadowBlurInner1" stdDeviation="32 32"></feGaussianBlur><feOffset color-interpolation-filters="linearRGB" dx="0" dy="16" in="shadowBlurInner1" result="shadowOffsetInner1"></feOffset><feComposite color-interpolation-filters="linearRGB" in="shadowOffsetInner1" in2="SourceAlpha" k1="0" k2="-1" k3="1" k4="0" operator="arithmetic" result="shadowInnerInner1"></feComposite><feColorMatrix color-interpolation-filters="linearRGB" in="shadowInnerInner1" result="result4" type="matrix" values="0 0 0 0 0.188235294 0 0 0 0 0.0823529412 0 0 0 0 0.00784313725 0 0 0 0.80111673 0"></feColorMatrix></filter></defs><g node-id="240"><g node-id="241"><path d="M 0.00 0.00 L 1024.00 0.00 L 1024.00 1024.00 L 0.00 1024.00 Z" fill="none" group-id="1,2" id="矩形备份-4" node-id="51" stroke="none" target-height="1024" target-width="1024" target-x="0" target-y="0"></path><g node-id="244"><g node-id="250"><path d="M 486.86 96.38 C 606.07 90.63 708.76 150.68 758.05 248.07 C 890.94 307.20 998.79 448.58 971.84 605.75 C 951.63 723.61 887.20 809.73 792.89 862.38 C 746.43 892.44 680.20 913.75 581.85 923.53 C 302.34 951.30 80.98 850.50 64.82 598.22 C 56.85 473.83 107.42 389.95 190.97 336.88 C 221.60 181.87 333.84 103.75 486.86 96.38 Z" fill="url(#radialGradient-1)" fill-rule="evenodd" group-id="1,2,5,11" node-id="165" stroke="none" target-height="860.6705" target-width="941.9407" target-x="56.854" target-y="90.63337"></path></g><path d="M 486.86 96.38 C 606.07 90.63 708.76 150.68 758.05 248.07 C 890.94 307.20 998.79 448.58 971.84 605.75 C 951.63 723.61 887.20 809.73 792.89 862.38 C 746.43 892.44 680.20 913.75 581.85 923.53 C 302.34 951.30 80.98 850.50 64.82 598.22 C 56.85 473.83 107.42 389.95 190.97 336.88 C 221.60 181.87 333.84 103.75 486.86 96.38 Z" fill="#000000" fill-rule="evenodd" filter="url(#filter-3)" group-id="1,2,5,12" node-id="170" stroke="none" target-height="860.6705" target-width="941.9407" target-x="56.854" target-y="90.63337"></path></g><g node-id="245"><g node-id="252"><g node-id="259"><path d="M 399.14 633.19 L 398.20 651.76 L 397.88 669.24 L 398.16 685.69 L 398.99 701.17 L 400.34 715.71 L 402.18 729.39 L 404.48 742.23 L 407.23 754.28 L 410.38 765.59 L 413.94 776.20 L 417.87 786.15 L 422.18 795.47 L 426.84 804.20 L 431.85 812.38 L 437.22 820.02 L 442.93 827.17 L 449.00 833.83 L 455.44 840.02 L 462.24 845.78 L 469.44 851.10 L 477.05 855.99 L 485.08 860.47 L 493.57 864.52 L 502.53 868.15 L 512.00 871.35 L 522.77 874.38 L 532.50 876.67 L 541.26 878.29 L 549.13 879.31 L 557.40 879.90 L 564.79 879.96 L 571.40 879.55 L 577.30 878.72 L 583.32 877.37 L 588.68 875.69 L 593.47 873.71 L 597.73 871.43 L 601.84 868.70 L 605.51 865.77 L 608.77 862.64 L 611.64 859.29 L 615.05 854.45 L 617.92 849.41 L 620.27 844.16 L 622.19 838.72 L 623.71 833.30 L 624.84 827.89 L 626.01 819.79 L 626.59 812.34 L 626.78 805.20 L 626.73 799.37 L 626.50 790.83 L 626.72 781.21 L 627.32 765.06 L 628.20 744.35 L 629.24 721.01 L 630.34 696.99 L 631.38 674.26 L 632.26 654.74 L 632.87 640.40 L 633.10 633.19 L 632.76 632.20 L 631.61 630.85 L 629.13 628.99 L 624.87 626.48 L 618.66 623.30 L 603.86 616.35 L 586.90 608.36 L 578.25 604.03 L 569.94 599.56 L 562.00 594.84 L 555.14 590.18 L 550.87 586.81 L 547.42 583.57 L 544.67 580.44 L 542.89 577.85 L 541.68 575.36 L 540.97 572.95 L 540.71 570.58 L 537.28 574.71 L 533.06 578.95 L 527.95 583.30 L 521.83 587.77 L 514.58 592.37 L 506.09 597.09 L 496.20 601.93 L 484.79 606.90 L 471.69 611.97 L 456.75 617.15 L 439.79 622.42 L 420.65 627.77 L 399.14 633.19 Z" fill="#ed1f2a" fill-rule="evenodd" group-id="1,2,6,13,20" node-id="178" stroke="none" target-height="309.37677" target-width="235.21274" target-x="397.8842" target-y="570.5798"></path></g><g node-id="260"><path d="M 399.14 633.19 L 398.20 651.76 L 397.88 669.24 L 398.16 685.69 L 398.99 701.17 L 400.34 715.71 L 402.18 729.39 L 404.48 742.23 L 407.23 754.28 L 410.38 765.59 L 413.94 776.20 L 417.87 786.15 L 422.18 795.47 L 426.84 804.20 L 431.85 812.38 L 437.22 820.02 L 442.93 827.17 L 449.00 833.83 L 455.44 840.02 L 462.24 845.78 L 469.44 851.10 L 477.05 855.99 L 485.08 860.47 L 493.57 864.52 L 502.53 868.15 L 512.00 871.35 L 522.77 874.38 L 532.50 876.67 L 541.26 878.29 L 549.13 879.31 L 557.40 879.90 L 564.79 879.96 L 571.40 879.55 L 577.30 878.72 L 583.32 877.37 L 588.68 875.69 L 593.47 873.71 L 597.73 871.43 L 601.84 868.70 L 605.51 865.77 L 608.77 862.64 L 611.64 859.29 L 615.05 854.45 L 617.92 849.41 L 620.27 844.16 L 622.19 838.72 L 623.71 833.30 L 624.84 827.89 L 626.01 819.79 L 626.59 812.34 L 626.78 805.20 L 626.73 799.37 L 626.50 790.83 L 626.72 781.21 L 627.32 765.06 L 628.20 744.35 L 629.24 721.01 L 630.34 696.99 L 631.38 674.26 L 632.26 654.74 L 632.87 640.40 L 633.10 633.19 L 632.76 632.20 L 631.61 630.85 L 629.13 628.99 L 624.87 626.48 L 618.66 623.30 L 603.86 616.35 L 586.90 608.36 L 578.25 604.03 L 569.94 599.56 L 562.00 594.84 L 555.14 590.18 L 550.87 586.81 L 547.42 583.57 L 544.67 580.44 L 542.89 577.85 L 541.68 575.36 L 540.97 572.95 L 540.71 570.58 L 537.28 574.71 L 533.06 578.95 L 527.95 583.30 L 521.83 587.77 L 514.58 592.37 L 506.09 597.09 L 496.20 601.93 L 484.79 606.90 L 471.69 611.97 L 456.75 617.15 L 439.79 622.42 L 420.65 627.77 L 399.14 633.19 Z" fill="#000000" fill-rule="evenodd" filter="url(#filter-5)" group-id="1,2,6,13,21" node-id="183" stroke="none" target-height="309.37677" target-width="235.21274" target-x="397.8842" target-y="570.5798"></path></g><path d="M 399.14 633.19 L 398.20 651.76 L 397.88 669.24 L 398.16 685.69 L 398.99 701.17 L 400.34 715.71 L 402.18 729.39 L 404.48 742.23 L 407.23 754.28 L 410.38 765.59 L 413.94 776.20 L 417.87 786.15 L 422.18 795.47 L 426.84 804.20 L 431.85 812.38 L 437.22 820.02 L 442.93 827.17 L 449.00 833.83 L 455.44 840.02 L 462.24 845.78 L 469.44 851.10 L 477.05 855.99 L 485.08 860.47 L 493.57 864.52 L 502.53 868.15 L 512.00 871.35 L 522.77 874.38 L 532.50 876.67 L 541.26 878.29 L 549.13 879.31 L 557.40 879.90 L 564.79 879.96 L 571.40 879.55 L 577.30 878.72 L 583.32 877.37 L 588.68 875.69 L 593.47 873.71 L 597.73 871.43 L 601.84 868.70 L 605.51 865.77 L 608.77 862.64 L 611.64 859.29 L 615.05 854.45 L 617.92 849.41 L 620.27 844.16 L 622.19 838.72 L 623.71 833.30 L 624.84 827.89 L 626.01 819.79 L 626.59 812.34 L 626.78 805.20 L 626.73 799.37 L 626.50 790.83 L 626.72 781.21 L 627.32 765.06 L 628.20 744.35 L 629.24 721.01 L 630.34 696.99 L 631.38 674.26 L 632.26 654.74 L 632.87 640.40 L 633.10 633.19 L 632.76 632.20 L 631.61 630.85 L 629.13 628.99 L 624.87 626.48 L 618.66 623.30 L 603.86 616.35 L 586.90 608.36 L 578.25 604.03 L 569.94 599.56 L 562.00 594.84 L 555.14 590.18 L 550.87 586.81 L 547.42 583.57 L 544.67 580.44 L 542.89 577.85 L 541.68 575.36 L 540.97 572.95 L 540.71 570.58 L 537.28 574.71 L 533.06 578.95 L 527.95 583.30 L 521.83 587.77 L 514.58 592.37 L 506.09 597.09 L 496.20 601.93 L 484.79 606.90 L 471.69 611.97 L 456.75 617.15 L 439.79 622.42 L 420.65 627.77 L 399.14 633.19 Z" fill="none" group-id="1,2,6,13,22" node-id="188" stroke="#d94f26" stroke-linecap="butt" stroke-width="8" target-height="309.37677" target-width="235.21274" target-x="397.8842" target-y="570.5798"></path></g><path d="M 400.78 701.44 L 407.54 698.11 L 414.45 695.20 L 421.53 692.70 L 428.79 690.60 L 436.25 688.91 L 443.76 687.65 L 451.34 686.81 L 459.00 686.39 L 466.75 686.39 L 474.62 686.82 L 482.39 687.67 L 490.15 688.95 L 497.90 690.66 L 505.66 692.82 L 513.42 695.43 L 520.97 698.43 L 528.41 701.88 L 535.76 705.79 L 543.02 710.17 L 550.20 715.03 L 557.68 720.78 L 564.64 726.81 L 571.09 733.12 L 577.07 739.70 L 582.67 746.67 L 587.75 753.82 L 592.34 761.14 L 596.43 768.66 L 600.09 776.45 L 603.22 784.30 L 605.84 792.25 L 607.96 800.30 L 609.59 808.49 L 610.69 816.65 L 611.26 824.82 L 611.32 833.00 L 610.85 841.18 L 609.83 849.25 L 608.28 857.24 L 606.18 865.16 L 603.10 867.78 L 599.68 870.21 L 595.89 872.44 L 591.70 874.49 L 587.45 876.14 L 582.74 877.54 L 577.52 878.67 L 571.75 879.50 L 566.13 879.92 L 559.91 879.98 L 553.04 879.65 L 545.47 878.88 L 538.23 877.78 L 530.27 876.19 L 521.55 874.07 L 512.00 871.35 L 502.56 868.16 L 493.62 864.54 L 485.15 860.50 L 477.14 856.05 L 469.55 851.17 L 462.37 845.87 L 455.57 840.15 L 449.15 833.98 L 443.09 827.35 L 437.38 820.25 L 432.03 812.65 L 427.02 804.52 L 422.36 795.85 L 418.06 786.59 L 414.13 776.71 L 410.57 766.19 L 407.40 754.97 L 404.65 743.02 L 402.32 730.30 L 400.46 716.77 L 399.08 702.37 Z" fill="url(#linearGradient-6)" fill-rule="evenodd" group-id="1,2,6" id="形状结合" node-id="60" stroke="none" target-height="193.59192" target-width="212.24384" target-x="399.07776" target-y="686.39075"></path><path d="M 656.00 622.60 L 644.36 622.30 L 633.45 621.44 L 623.24 620.06 L 613.67 618.17 L 604.70 615.80 L 596.30 612.98 L 588.43 609.71 L 581.04 606.01 L 574.12 601.87 L 567.63 597.30 L 561.55 592.29 L 555.86 586.83 L 550.56 580.89 L 545.62 574.46 L 541.04 567.51 L 536.83 560.00 L 531.98 567.27 L 526.77 574.06 L 521.22 580.39 L 515.30 586.27 L 509.01 591.73 L 502.33 596.77 L 495.24 601.40 L 487.73 605.63 L 479.76 609.45 L 471.31 612.87 L 462.35 615.87 L 452.85 618.44 L 442.77 620.57 L 432.08 622.23 L 420.73 623.40 L 408.69 624.05 L 395.92 624.16 L 382.37 623.68 L 368.00 622.60" fill="none" group-id="1,2,6" id="路径-151" node-id="61" stroke="#d94f26" stroke-linecap="round" stroke-width="14.686618" target-height="64.15802" target-width="288" target-x="368" target-y="560"></path></g><g node-id="246"><path d="M 848.00 584.00 C 848.00 628.18 808.60 664.00 760.00 664.00 C 711.40 664.00 672.00 628.18 672.00 584.00 C 672.00 539.82 711.40 504.00 760.00 504.00 C 808.60 504.00 848.00 539.82 848.00 584.00 Z" fill="#ff5ea4" fill-opacity="0.8" fill-rule="evenodd" filter="url(#filter-7)" group-id="1,2,7" id="椭圆形" node-id="62" stroke="none" target-height="160" target-width="176" target-x="672" target-y="504"></path></g><path d="M 368.00 584.00 C 368.00 628.18 328.60 664.00 280.00 664.00 C 231.40 664.00 192.00 628.18 192.00 584.00 C 192.00 539.82 231.40 504.00 280.00 504.00 C 328.60 504.00 368.00 539.82 368.00 584.00 Z" fill="#ff5ea4" fill-opacity="0.8" fill-rule="evenodd" filter="url(#filter-8)" group-id="1,2,8" id="椭圆形备份-6" node-id="63" stroke="none" target-height="160" target-width="176" target-x="192" target-y="504"></path></g><g node-id="242"><g node-id="248"><g node-id="253"><path d="M 448.00 448.18 L 447.73 455.92 L 446.97 463.44 L 445.72 470.76 L 444.00 477.91 L 441.80 484.95 L 439.18 491.74 L 436.16 498.29 L 432.71 504.62 L 428.86 510.72 L 424.66 516.52 L 420.11 522.02 L 415.20 527.25 L 409.96 532.15 L 404.45 536.69 L 398.64 540.89 L 392.53 544.73 L 386.19 548.17 L 379.63 551.20 L 372.83 553.81 L 365.77 556.01 L 358.62 557.73 L 351.28 558.97 L 343.75 559.73 L 336.00 560.00 L 328.25 559.73 L 320.72 558.97 L 313.38 557.73 L 306.23 556.01 L 299.17 553.81 L 292.37 551.20 L 285.81 548.17 L 279.47 544.73 L 273.36 540.89 L 267.55 536.69 L 262.04 532.15 L 256.80 527.25 L 251.89 522.02 L 247.34 516.52 L 243.14 510.72 L 239.29 504.62 L 235.84 498.29 L 232.82 491.74 L 230.20 484.95 L 228.00 477.91 L 226.28 470.76 L 225.03 463.44 L 224.27 455.92 L 224.00 448.18 L 224.27 440.44 L 225.03 432.92 L 226.28 425.60 L 228.00 418.45 L 230.20 411.41 L 232.82 404.62 L 235.84 398.07 L 239.29 391.74 L 243.14 385.64 L 247.34 379.84 L 251.89 374.33 L 256.80 369.11 L 262.04 364.21 L 267.55 359.66 L 273.36 355.47 L 279.47 351.62 L 285.81 348.18 L 292.37 345.16 L 299.17 342.55 L 306.23 340.35 L 313.38 338.63 L 320.72 337.39 L 328.25 336.63 L 336.00 336.36 L 343.75 336.63 L 351.28 337.39 L 358.62 338.63 L 365.77 340.35 L 372.83 342.55 L 379.63 345.16 L 386.19 348.18 L 392.53 351.62 L 398.64 355.47 L 404.45 359.66 L 409.96 364.21 L 415.20 369.11 L 420.11 374.33 L 424.66 379.84 L 428.86 385.64 L 432.71 391.74 L 436.16 398.07 L 439.18 404.62 L 441.80 411.41 L 444.00 418.45 L 445.72 425.60 L 446.97 432.92 L 447.73 440.44 L 448.00 448.18 Z" fill="#000000" fill-rule="evenodd" filter="url(#filter-10)" group-id="1,3,9,14" node-id="208" stroke="none" target-height="223.64252" target-width="224" target-x="224" target-y="336.35748"></path></g><g node-id="254"><path d="M 448.00 448.18 L 447.73 455.92 L 446.97 463.44 L 445.72 470.76 L 444.00 477.91 L 441.80 484.95 L 439.18 491.74 L 436.16 498.29 L 432.71 504.62 L 428.86 510.72 L 424.66 516.52 L 420.11 522.02 L 415.20 527.25 L 409.96 532.15 L 404.45 536.69 L 398.64 540.89 L 392.53 544.73 L 386.19 548.17 L 379.63 551.20 L 372.83 553.81 L 365.77 556.01 L 358.62 557.73 L 351.28 558.97 L 343.75 559.73 L 336.00 560.00 L 328.25 559.73 L 320.72 558.97 L 313.38 557.73 L 306.23 556.01 L 299.17 553.81 L 292.37 551.20 L 285.81 548.17 L 279.47 544.73 L 273.36 540.89 L 267.55 536.69 L 262.04 532.15 L 256.80 527.25 L 251.89 522.02 L 247.34 516.52 L 243.14 510.72 L 239.29 504.62 L 235.84 498.29 L 232.82 491.74 L 230.20 484.95 L 228.00 477.91 L 226.28 470.76 L 225.03 463.44 L 224.27 455.92 L 224.00 448.18 L 224.27 440.44 L 225.03 432.92 L 226.28 425.60 L 228.00 418.45 L 230.20 411.41 L 232.82 404.62 L 235.84 398.07 L 239.29 391.74 L 243.14 385.64 L 247.34 379.84 L 251.89 374.33 L 256.80 369.11 L 262.04 364.21 L 267.55 359.66 L 273.36 355.47 L 279.47 351.62 L 285.81 348.18 L 292.37 345.16 L 299.17 342.55 L 306.23 340.35 L 313.38 338.63 L 320.72 337.39 L 328.25 336.63 L 336.00 336.36 L 343.75 336.63 L 351.28 337.39 L 358.62 338.63 L 365.77 340.35 L 372.83 342.55 L 379.63 345.16 L 386.19 348.18 L 392.53 351.62 L 398.64 355.47 L 404.45 359.66 L 409.96 364.21 L 415.20 369.11 L 420.11 374.33 L 424.66 379.84 L 428.86 385.64 L 432.71 391.74 L 436.16 398.07 L 439.18 404.62 L 441.80 411.41 L 444.00 418.45 L 445.72 425.60 L 446.97 432.92 L 447.73 440.44 L 448.00 448.18 Z" fill="#833b0a" fill-rule="evenodd" group-id="1,3,9,15" node-id="213" stroke="none" target-height="223.64252" target-width="224" target-x="224" target-y="336.35748"></path></g><path d="M 448.00 448.18 L 447.73 455.92 L 446.97 463.44 L 445.72 470.76 L 444.00 477.91 L 441.80 484.95 L 439.18 491.74 L 436.16 498.29 L 432.71 504.62 L 428.86 510.72 L 424.66 516.52 L 420.11 522.02 L 415.20 527.25 L 409.96 532.15 L 404.45 536.69 L 398.64 540.89 L 392.53 544.73 L 386.19 548.17 L 379.63 551.20 L 372.83 553.81 L 365.77 556.01 L 358.62 557.73 L 351.28 558.97 L 343.75 559.73 L 336.00 560.00 L 328.25 559.73 L 320.72 558.97 L 313.38 557.73 L 306.23 556.01 L 299.17 553.81 L 292.37 551.20 L 285.81 548.17 L 279.47 544.73 L 273.36 540.89 L 267.55 536.69 L 262.04 532.15 L 256.80 527.25 L 251.89 522.02 L 247.34 516.52 L 243.14 510.72 L 239.29 504.62 L 235.84 498.29 L 232.82 491.74 L 230.20 484.95 L 228.00 477.91 L 226.28 470.76 L 225.03 463.44 L 224.27 455.92 L 224.00 448.18 L 224.27 440.44 L 225.03 432.92 L 226.28 425.60 L 228.00 418.45 L 230.20 411.41 L 232.82 404.62 L 235.84 398.07 L 239.29 391.74 L 243.14 385.64 L 247.34 379.84 L 251.89 374.33 L 256.80 369.11 L 262.04 364.21 L 267.55 359.66 L 273.36 355.47 L 279.47 351.62 L 285.81 348.18 L 292.37 345.16 L 299.17 342.55 L 306.23 340.35 L 313.38 338.63 L 320.72 337.39 L 328.25 336.63 L 336.00 336.36 L 343.75 336.63 L 351.28 337.39 L 358.62 338.63 L 365.77 340.35 L 372.83 342.55 L 379.63 345.16 L 386.19 348.18 L 392.53 351.62 L 398.64 355.47 L 404.45 359.66 L 409.96 364.21 L 415.20 369.11 L 420.11 374.33 L 424.66 379.84 L 428.86 385.64 L 432.71 391.74 L 436.16 398.07 L 439.18 404.62 L 441.80 411.41 L 444.00 418.45 L 445.72 425.60 L 446.97 432.92 L 447.73 440.44 L 448.00 448.18 Z" fill="#000000" fill-rule="evenodd" filter="url(#filter-11)" group-id="1,3,9,16" node-id="218" stroke="none" target-height="223.64252" target-width="224" target-x="224" target-y="336.35748"></path></g><path d="M 253.87 447.82 L 261.53 445.44 L 268.74 442.64 L 275.52 439.41 L 281.89 435.77 L 287.89 431.71 L 293.53 427.22 L 298.82 422.30 L 303.79 416.91 L 308.44 411.05 L 312.91 404.45 L 317.12 397.17 L 321.06 389.15 L 324.71 380.35 L 328.06 370.70 L 331.07 360.14 L 333.73 348.60 L 336.00 336.00 L 339.42 350.08 L 342.94 362.57 L 346.53 373.61 L 350.18 383.32 L 353.86 391.81 L 357.56 399.19 L 361.28 405.57 L 364.99 411.05 L 369.39 416.54 L 374.35 421.76 L 379.90 426.74 L 386.09 431.47 L 392.95 435.95 L 400.54 440.18 L 408.92 444.14 L 418.13 447.82 L 409.56 451.83 L 401.60 456.15 L 394.22 460.78 L 387.39 465.72 L 381.07 470.96 L 375.24 476.51 L 369.89 482.38 L 364.99 488.58 L 360.69 494.86 L 356.57 501.78 L 352.62 509.39 L 348.85 517.74 L 345.29 526.88 L 341.95 536.87 L 338.85 547.77 L 336.00 559.64 L 334.05 548.78 L 331.64 538.55 L 328.80 528.92 L 325.53 519.85 L 321.86 511.31 L 317.78 503.27 L 313.31 495.70 L 308.44 488.58 L 303.55 482.35 L 298.39 476.58 L 292.95 471.25 L 287.22 466.35 L 281.20 461.85 L 274.87 457.75 L 268.22 454.05 L 261.22 450.74 L 253.87 447.82 Z" fill="#ffffff" fill-rule="nonzero" group-id="1,3" id="路径" node-id="69" stroke="none" target-height="223.64252" target-width="164.26666" target-x="253.86667" target-y="336"></path></g><g node-id="243"><g node-id="249"><g node-id="256"><path d="M 832.00 448.18 L 831.73 455.92 L 830.97 463.44 L 829.72 470.76 L 828.00 477.91 L 825.80 484.95 L 823.18 491.74 L 820.16 498.29 L 816.71 504.62 L 812.86 510.72 L 808.66 516.52 L 804.11 522.02 L 799.20 527.25 L 793.96 532.15 L 788.45 536.69 L 782.64 540.89 L 776.53 544.73 L 770.19 548.17 L 763.63 551.20 L 756.83 553.81 L 749.77 556.01 L 742.62 557.73 L 735.28 558.97 L 727.75 559.73 L 720.00 560.00 L 712.25 559.73 L 704.72 558.97 L 697.38 557.73 L 690.23 556.01 L 683.17 553.81 L 676.37 551.20 L 669.81 548.17 L 663.47 544.73 L 657.36 540.89 L 651.55 536.69 L 646.04 532.15 L 640.80 527.25 L 635.89 522.02 L 631.34 516.52 L 627.14 510.72 L 623.29 504.62 L 619.84 498.29 L 616.82 491.74 L 614.20 484.95 L 612.00 477.91 L 610.28 470.76 L 609.03 463.44 L 608.27 455.92 L 608.00 448.18 L 608.27 440.44 L 609.03 432.92 L 610.28 425.60 L 612.00 418.45 L 614.20 411.41 L 616.82 404.62 L 619.84 398.07 L 623.29 391.74 L 627.14 385.64 L 631.34 379.84 L 635.89 374.33 L 640.80 369.11 L 646.04 364.21 L 651.55 359.66 L 657.36 355.47 L 663.47 351.62 L 669.81 348.18 L 676.37 345.16 L 683.17 342.55 L 690.23 340.35 L 697.38 338.63 L 704.72 337.39 L 712.25 336.63 L 720.00 336.36 L 727.75 336.63 L 735.28 337.39 L 742.62 338.63 L 749.77 340.35 L 756.83 342.55 L 763.63 345.16 L 770.19 348.18 L 776.53 351.62 L 782.64 355.47 L 788.45 359.66 L 793.96 364.21 L 799.20 369.11 L 804.11 374.33 L 808.66 379.84 L 812.86 385.64 L 816.71 391.74 L 820.16 398.07 L 823.18 404.62 L 825.80 411.41 L 828.00 418.45 L 829.72 425.60 L 830.97 432.92 L 831.73 440.44 L 832.00 448.18 Z" fill="#000000" fill-rule="evenodd" filter="url(#filter-13)" group-id="1,4,10,17" node-id="228" stroke="none" target-height="223.64252" target-width="224" target-x="608" target-y="336.35748"></path></g><g node-id="257"><path d="M 832.00 448.18 L 831.73 455.92 L 830.97 463.44 L 829.72 470.76 L 828.00 477.91 L 825.80 484.95 L 823.18 491.74 L 820.16 498.29 L 816.71 504.62 L 812.86 510.72 L 808.66 516.52 L 804.11 522.02 L 799.20 527.25 L 793.96 532.15 L 788.45 536.69 L 782.64 540.89 L 776.53 544.73 L 770.19 548.17 L 763.63 551.20 L 756.83 553.81 L 749.77 556.01 L 742.62 557.73 L 735.28 558.97 L 727.75 559.73 L 720.00 560.00 L 712.25 559.73 L 704.72 558.97 L 697.38 557.73 L 690.23 556.01 L 683.17 553.81 L 676.37 551.20 L 669.81 548.17 L 663.47 544.73 L 657.36 540.89 L 651.55 536.69 L 646.04 532.15 L 640.80 527.25 L 635.89 522.02 L 631.34 516.52 L 627.14 510.72 L 623.29 504.62 L 619.84 498.29 L 616.82 491.74 L 614.20 484.95 L 612.00 477.91 L 610.28 470.76 L 609.03 463.44 L 608.27 455.92 L 608.00 448.18 L 608.27 440.44 L 609.03 432.92 L 610.28 425.60 L 612.00 418.45 L 614.20 411.41 L 616.82 404.62 L 619.84 398.07 L 623.29 391.74 L 627.14 385.64 L 631.34 379.84 L 635.89 374.33 L 640.80 369.11 L 646.04 364.21 L 651.55 359.66 L 657.36 355.47 L 663.47 351.62 L 669.81 348.18 L 676.37 345.16 L 683.17 342.55 L 690.23 340.35 L 697.38 338.63 L 704.72 337.39 L 712.25 336.63 L 720.00 336.36 L 727.75 336.63 L 735.28 337.39 L 742.62 338.63 L 749.77 340.35 L 756.83 342.55 L 763.63 345.16 L 770.19 348.18 L 776.53 351.62 L 782.64 355.47 L 788.45 359.66 L 793.96 364.21 L 799.20 369.11 L 804.11 374.33 L 808.66 379.84 L 812.86 385.64 L 816.71 391.74 L 820.16 398.07 L 823.18 404.62 L 825.80 411.41 L 828.00 418.45 L 829.72 425.60 L 830.97 432.92 L 831.73 440.44 L 832.00 448.18 Z" fill="#833b0a" fill-rule="evenodd" group-id="1,4,10,18" node-id="233" stroke="none" target-height="223.64252" target-width="224" target-x="608" target-y="336.35748"></path></g><path d="M 832.00 448.18 L 831.73 455.92 L 830.97 463.44 L 829.72 470.76 L 828.00 477.91 L 825.80 484.95 L 823.18 491.74 L 820.16 498.29 L 816.71 504.62 L 812.86 510.72 L 808.66 516.52 L 804.11 522.02 L 799.20 527.25 L 793.96 532.15 L 788.45 536.69 L 782.64 540.89 L 776.53 544.73 L 770.19 548.17 L 763.63 551.20 L 756.83 553.81 L 749.77 556.01 L 742.62 557.73 L 735.28 558.97 L 727.75 559.73 L 720.00 560.00 L 712.25 559.73 L 704.72 558.97 L 697.38 557.73 L 690.23 556.01 L 683.17 553.81 L 676.37 551.20 L 669.81 548.17 L 663.47 544.73 L 657.36 540.89 L 651.55 536.69 L 646.04 532.15 L 640.80 527.25 L 635.89 522.02 L 631.34 516.52 L 627.14 510.72 L 623.29 504.62 L 619.84 498.29 L 616.82 491.74 L 614.20 484.95 L 612.00 477.91 L 610.28 470.76 L 609.03 463.44 L 608.27 455.92 L 608.00 448.18 L 608.27 440.44 L 609.03 432.92 L 610.28 425.60 L 612.00 418.45 L 614.20 411.41 L 616.82 404.62 L 619.84 398.07 L 623.29 391.74 L 627.14 385.64 L 631.34 379.84 L 635.89 374.33 L 640.80 369.11 L 646.04 364.21 L 651.55 359.66 L 657.36 355.47 L 663.47 351.62 L 669.81 348.18 L 676.37 345.16 L 683.17 342.55 L 690.23 340.35 L 697.38 338.63 L 704.72 337.39 L 712.25 336.63 L 720.00 336.36 L 727.75 336.63 L 735.28 337.39 L 742.62 338.63 L 749.77 340.35 L 756.83 342.55 L 763.63 345.16 L 770.19 348.18 L 776.53 351.62 L 782.64 355.47 L 788.45 359.66 L 793.96 364.21 L 799.20 369.11 L 804.11 374.33 L 808.66 379.84 L 812.86 385.64 L 816.71 391.74 L 820.16 398.07 L 823.18 404.62 L 825.80 411.41 L 828.00 418.45 L 829.72 425.60 L 830.97 432.92 L 831.73 440.44 L 832.00 448.18 Z" fill="#000000" fill-rule="evenodd" filter="url(#filter-14)" group-id="1,4,10,19" node-id="238" stroke="none" target-height="223.64252" target-width="224" target-x="608" target-y="336.35748"></path></g><path d="M 637.87 447.82 L 645.53 445.44 L 652.74 442.64 L 659.52 439.41 L 665.89 435.77 L 671.89 431.71 L 677.53 427.22 L 682.82 422.30 L 687.79 416.91 L 692.44 411.05 L 696.91 404.45 L 701.12 397.17 L 705.06 389.15 L 708.71 380.35 L 712.06 370.70 L 715.07 360.14 L 717.73 348.60 L 720.00 336.00 L 723.42 350.08 L 726.94 362.57 L 730.53 373.61 L 734.18 383.32 L 737.86 391.81 L 741.56 399.19 L 745.28 405.57 L 748.99 411.05 L 753.39 416.54 L 758.35 421.76 L 763.90 426.74 L 770.09 431.47 L 776.95 435.95 L 784.54 440.18 L 792.92 444.14 L 802.13 447.82 L 793.56 451.83 L 785.60 456.15 L 778.22 460.78 L 771.39 465.72 L 765.07 470.96 L 759.24 476.51 L 753.89 482.38 L 748.99 488.58 L 744.69 494.86 L 740.57 501.78 L 736.62 509.39 L 732.85 517.74 L 729.29 526.88 L 725.95 536.87 L 722.85 547.77 L 720.00 559.64 L 718.05 548.78 L 715.64 538.55 L 712.80 528.92 L 709.53 519.85 L 705.86 511.31 L 701.78 503.27 L 697.31 495.70 L 692.44 488.58 L 687.55 482.35 L 682.39 476.58 L 676.95 471.25 L 671.22 466.35 L 665.20 461.85 L 658.87 457.75 L 652.22 454.05 L 645.22 450.74 L 637.87 447.82 Z" fill="#ffffff" fill-rule="nonzero" group-id="1,4" id="路径" node-id="75" stroke="none" target-height="223.64252" target-width="164.26666" target-x="637.86664" target-y="336"></path></g></g></svg>