<?xml version="1.0" standalone="no"?><!DOCTYPE svg PUBLIC "-//W3C//DTD SVG 1.1//EN" "http://www.w3.org/Graphics/SVG/1.1/DTD/svg11.dtd"><svg height="1024" node-id="1" sillyvg="true" template-height="1024" template-width="1024" version="1.1" viewBox="0 0 1024 1024" width="1024" xmlns="http://www.w3.org/2000/svg" xmlns:xlink="http://www.w3.org/1999/xlink"><defs node-id="52"><radialGradient cx="0.5" cy="0.19668992" fx="0.5" fy="0.19668992" gradientTransform="matrix(0 1 -0.912281 0 0.67943655 -0.30331)" gradientUnits="objectBoundingBox" id="radialGradient-1" node-id="5" r="0.9393923" rev="2" spreadMethod="pad"><stop offset="0" stop-color="#ffe476"></stop><stop offset="0.41387266" stop-color="#fcec6c"></stop><stop offset="1" stop-color="#ffb02f"></stop></radialGradient><linearGradient gradientUnits="objectBoundingBox" id="linearGradient-4" node-id="15" spreadMethod="pad" x1="0.060048267" x2="0.95154124" y1="0.42029694" y2="0.42029694"><stop offset="0" stop-color="#eae6e1"></stop><stop offset="0.50863284" stop-color="#ffffff"></stop><stop offset="1" stop-color="#eae8e1"></stop></linearGradient><filter height="1.173" id="filter-3" node-id="10" width="1.158" x="-0.079" y="-0.087"><feGaussianBlur color-interpolation-filters="linearRGB" in="SourceAlpha" result="shadowBlurInner1" stdDeviation="64 64"></feGaussianBlur><feOffset color-interpolation-filters="linearRGB" dx="0" dy="16" in="shadowBlurInner1" result="shadowOffsetInner1"></feOffset><feComposite color-interpolation-filters="linearRGB" in="shadowOffsetInner1" in2="SourceAlpha" k1="0" k2="-1" k3="1" k4="0" operator="arithmetic" result="shadowInnerInner1"></feComposite><feColorMatrix color-interpolation-filters="linearRGB" in="shadowInnerInner1" result="result4" type="matrix" values="0 0 0 0 0.968627451 0 0 0 0 0.68627451 0 0 0 0 0.270588235 0 0 0 0.501145583 0"></feColorMatrix></filter><filter height="3.571" id="filter-7" node-id="21" width="2.636" x="-0.818" y="-1.286"><feGaussianBlur color-interpolation-filters="linearRGB" in="SourceGraphic" result="result1" stdDeviation="48 48"></feGaussianBlur></filter><filter height="3.571" id="filter-8" node-id="23" width="2.636" x="-0.818" y="-1.286"><feGaussianBlur color-interpolation-filters="linearRGB" in="SourceGraphic" result="result1" stdDeviation="48 48"></feGaussianBlur></filter></defs><g node-id="137"><path d="M 0.00 0.00 L 1024.00 0.00 L 1024.00 1024.00 L 0.00 1024.00 Z" fill="none" group-id="1" id="矩形备份-3" node-id="27" stroke="none" target-height="1024" target-width="1024" target-x="0" target-y="0"></path><g node-id="138"><g node-id="139"><g node-id="145"><path d="M 486.86 96.38 L 501.27 96.01 L 515.38 96.26 L 529.21 97.12 L 542.78 98.56 L 556.11 100.60 L 569.45 103.25 L 582.45 106.45 L 595.14 110.18 L 607.52 114.44 L 619.62 119.24 L 631.55 124.62 L 643.10 130.48 L 654.29 136.81 L 665.13 143.63 L 675.63 150.95 L 685.80 158.75 L 695.54 166.99 L 704.88 175.66 L 713.82 184.77 L 722.36 194.34 L 730.43 204.28 L 738.02 214.61 L 745.16 225.35 L 751.83 236.49 L 758.05 248.07 L 769.36 253.33 L 780.52 258.98 L 791.54 265.01 L 802.41 271.43 L 813.15 278.25 L 826.23 287.24 L 838.93 296.74 L 851.27 306.77 L 863.26 317.34 L 872.54 326.15 L 881.50 335.23 L 890.13 344.59 L 898.46 354.24 L 906.47 364.18 L 914.14 374.40 L 921.41 384.85 L 928.28 395.53 L 934.76 406.44 L 940.86 417.61 L 946.52 428.99 L 951.71 440.56 L 956.44 452.32 L 960.70 464.28 L 964.49 476.45 L 967.77 488.74 L 970.50 501.18 L 972.70 513.79 L 974.35 526.58 L 975.46 539.55 L 975.98 552.48 L 975.88 565.54 L 975.17 578.77 L 973.83 592.16 L 971.84 605.75 L 969.02 620.58 L 965.77 634.95 L 962.10 648.88 L 958.01 662.38 L 953.51 675.47 L 948.61 688.17 L 943.16 700.86 L 937.32 713.16 L 931.10 725.06 L 924.50 736.57 L 917.52 747.73 L 910.15 758.52 L 902.33 769.08 L 894.15 779.28 L 885.61 789.13 L 876.71 798.64 L 867.44 807.81 L 857.79 816.64 L 847.85 825.09 L 837.58 833.20 L 826.95 840.98 L 815.96 848.44 L 804.61 855.57 L 792.88 862.38 L 784.16 867.78 L 774.82 873.07 L 764.83 878.22 L 754.14 883.24 L 743.49 887.78 L 732.08 892.19 L 719.87 896.45 L 706.83 900.56 L 693.95 904.20 L 680.18 907.67 L 665.47 910.97 L 649.78 914.08 L 634.38 916.75 L 617.95 919.23 L 600.46 921.49 L 581.85 923.53 L 560.70 925.39 L 539.95 926.75 L 519.60 927.61 L 499.64 927.98 L 480.05 927.87 L 460.19 927.26 L 440.81 926.15 L 421.90 924.54 L 403.44 922.45 L 385.42 919.89 L 367.22 916.75 L 349.57 913.11 L 332.44 908.98 L 315.82 904.39 L 299.69 899.32 L 286.19 894.59 L 273.10 889.51 L 260.41 884.11 L 248.10 878.37 L 236.16 872.30 L 224.58 865.90 L 213.11 859.00 L 202.06 851.76 L 191.42 844.18 L 181.17 836.25 L 171.30 827.97 L 161.82 819.34 L 152.67 810.30 L 143.95 800.89 L 135.64 791.11 L 127.74 780.93 L 120.23 770.36 L 113.12 759.39 L 106.56 748.22 L 100.43 736.64 L 94.73 724.62 L 89.45 712.15 L 84.61 699.21 L 80.21 685.77 L 76.46 672.48 L 73.16 658.70 L 70.34 644.41 L 67.99 629.58 L 66.15 614.19 L 64.82 598.22 L 64.14 583.09 L 64.03 568.57 L 64.46 554.63 L 65.41 541.24 L 66.86 528.37 L 68.90 515.28 L 71.42 502.70 L 74.40 490.60 L 77.84 478.97 L 81.72 467.78 L 86.18 456.62 L 91.06 445.89 L 96.35 435.54 L 102.05 425.58 L 108.18 415.98 L 114.77 406.63 L 121.74 397.62 L 129.10 388.93 L 136.85 380.56 L 145.01 372.50 L 153.46 364.81 L 162.28 357.41 L 171.46 350.29 L 181.02 343.45 L 190.97 336.88 L 193.90 323.41 L 197.19 310.46 L 200.84 298.03 L 204.83 286.10 L 209.16 274.63 L 213.83 263.62 L 218.81 253.05 L 224.38 242.41 L 230.26 232.20 L 236.44 222.43 L 242.94 213.08 L 249.74 204.13 L 256.85 195.57 L 264.28 187.38 L 273.46 178.18 L 283.02 169.49 L 292.99 161.29 L 303.37 153.58 L 314.17 146.34 L 325.42 139.58 L 336.87 133.40 L 348.72 127.67 L 360.96 122.40 L 373.62 117.59 L 386.72 113.23 L 400.27 109.34 L 413.70 106.05 L 427.52 103.20 L 441.72 100.79 L 456.34 98.85 L 471.38 97.37 L 486.86 96.38 Z" fill="url(#radialGradient-1)" fill-rule="evenodd" group-id="1,2,3,9" node-id="96" stroke="none" target-height="831.9669" target-width="911.9464" target-x="64.03111" target-y="96.01346"></path></g><path d="M 486.86 96.38 L 501.27 96.01 L 515.38 96.26 L 529.21 97.12 L 542.78 98.56 L 556.11 100.60 L 569.45 103.25 L 582.45 106.45 L 595.14 110.18 L 607.52 114.44 L 619.62 119.24 L 631.55 124.62 L 643.10 130.48 L 654.29 136.81 L 665.13 143.63 L 675.63 150.95 L 685.80 158.75 L 695.54 166.99 L 704.88 175.66 L 713.82 184.77 L 722.36 194.34 L 730.43 204.28 L 738.02 214.61 L 745.16 225.35 L 751.83 236.49 L 758.05 248.07 L 769.36 253.33 L 780.52 258.98 L 791.54 265.01 L 802.41 271.43 L 813.15 278.25 L 826.23 287.24 L 838.93 296.74 L 851.27 306.77 L 863.26 317.34 L 872.54 326.15 L 881.50 335.23 L 890.13 344.59 L 898.46 354.24 L 906.47 364.18 L 914.14 374.40 L 921.41 384.85 L 928.28 395.53 L 934.76 406.44 L 940.86 417.61 L 946.52 428.99 L 951.71 440.56 L 956.44 452.32 L 960.70 464.28 L 964.49 476.45 L 967.77 488.74 L 970.50 501.18 L 972.70 513.79 L 974.35 526.58 L 975.46 539.55 L 975.98 552.48 L 975.88 565.54 L 975.17 578.77 L 973.83 592.16 L 971.84 605.75 L 969.02 620.58 L 965.77 634.95 L 962.10 648.88 L 958.01 662.38 L 953.51 675.47 L 948.61 688.17 L 943.16 700.86 L 937.32 713.16 L 931.10 725.06 L 924.50 736.57 L 917.52 747.73 L 910.15 758.52 L 902.33 769.08 L 894.15 779.28 L 885.61 789.13 L 876.71 798.64 L 867.44 807.81 L 857.79 816.64 L 847.85 825.09 L 837.58 833.20 L 826.95 840.98 L 815.96 848.44 L 804.61 855.57 L 792.88 862.38 L 784.16 867.78 L 774.82 873.07 L 764.83 878.22 L 754.14 883.24 L 743.49 887.78 L 732.08 892.19 L 719.87 896.45 L 706.83 900.56 L 693.95 904.20 L 680.18 907.67 L 665.47 910.97 L 649.78 914.08 L 634.38 916.75 L 617.95 919.23 L 600.46 921.49 L 581.85 923.53 L 560.70 925.39 L 539.95 926.75 L 519.60 927.61 L 499.64 927.98 L 480.05 927.87 L 460.19 927.26 L 440.81 926.15 L 421.90 924.54 L 403.44 922.45 L 385.42 919.89 L 367.22 916.75 L 349.57 913.11 L 332.44 908.98 L 315.82 904.39 L 299.69 899.32 L 286.19 894.59 L 273.10 889.51 L 260.41 884.11 L 248.10 878.37 L 236.16 872.30 L 224.58 865.90 L 213.11 859.00 L 202.06 851.76 L 191.42 844.18 L 181.17 836.25 L 171.30 827.97 L 161.82 819.34 L 152.67 810.30 L 143.95 800.89 L 135.64 791.11 L 127.74 780.93 L 120.23 770.36 L 113.12 759.39 L 106.56 748.22 L 100.43 736.64 L 94.73 724.62 L 89.45 712.15 L 84.61 699.21 L 80.21 685.77 L 76.46 672.48 L 73.16 658.70 L 70.34 644.41 L 67.99 629.58 L 66.15 614.19 L 64.82 598.22 L 64.14 583.09 L 64.03 568.57 L 64.46 554.63 L 65.41 541.24 L 66.86 528.37 L 68.90 515.28 L 71.42 502.70 L 74.40 490.60 L 77.84 478.97 L 81.72 467.78 L 86.18 456.62 L 91.06 445.89 L 96.35 435.54 L 102.05 425.58 L 108.18 415.98 L 114.77 406.63 L 121.74 397.62 L 129.10 388.93 L 136.85 380.56 L 145.01 372.50 L 153.46 364.81 L 162.28 357.41 L 171.46 350.29 L 181.02 343.45 L 190.97 336.88 L 193.90 323.41 L 197.19 310.46 L 200.84 298.03 L 204.83 286.10 L 209.16 274.63 L 213.83 263.62 L 218.81 253.05 L 224.38 242.41 L 230.26 232.20 L 236.44 222.43 L 242.94 213.08 L 249.74 204.13 L 256.85 195.57 L 264.28 187.38 L 273.46 178.18 L 283.02 169.49 L 292.99 161.29 L 303.37 153.58 L 314.17 146.34 L 325.42 139.58 L 336.87 133.40 L 348.72 127.67 L 360.96 122.40 L 373.62 117.59 L 386.72 113.23 L 400.27 109.34 L 413.70 106.05 L 427.52 103.20 L 441.72 100.79 L 456.34 98.85 L 471.38 97.37 L 486.86 96.38 Z" fill="#000000" fill-rule="evenodd" filter="url(#filter-3)" group-id="1,2,3,10" node-id="101" stroke="none" target-height="831.9669" target-width="911.9464" target-x="64.03111" target-y="96.01346"></path></g><g node-id="140"><path d="M 291.88 731.85 L 300.72 743.87 L 309.73 755.06 L 318.89 765.46 L 328.21 775.12 L 337.69 784.05 L 347.34 792.28 L 357.16 799.84 L 367.15 806.76 L 377.33 813.05 L 387.71 818.73 L 398.30 823.81 L 409.11 828.30 L 420.16 832.21 L 431.46 835.55 L 443.03 838.31 L 454.89 840.48 L 467.06 842.07 L 479.56 843.07 L 492.41 843.45 L 505.63 843.22 L 518.39 842.41 L 530.69 841.06 L 542.55 839.20 L 554.01 836.83 L 565.08 833.96 L 575.78 830.61 L 586.13 826.77 L 596.14 822.44 L 605.84 817.64 L 615.24 812.34 L 624.36 806.55 L 633.19 800.26 L 641.76 793.45 L 650.07 786.11 L 658.13 778.23 L 665.95 769.77 L 673.52 760.73 L 680.85 751.08 L 687.93 740.79 L 694.77 729.83 L 701.36 718.17 L 703.04 711.50 L 703.85 706.06 L 703.97 701.66 L 703.52 698.11 L 702.61 695.25 L 701.30 692.96 L 699.58 691.13 L 697.42 689.71 L 694.73 688.69 L 691.38 688.10 L 687.23 688.05 L 682.09 688.65 L 675.44 690.15 L 666.69 692.75 L 646.33 699.77 L 621.80 708.24 L 608.40 712.52 L 593.93 716.72 L 584.12 719.28 L 573.99 721.62 L 563.52 723.75 L 553.00 725.52 L 542.29 726.90 L 531.37 727.88 L 520.44 728.38 L 509.42 728.31 L 498.30 727.67 L 482.06 726.18 L 467.71 724.68 L 453.91 723.06 L 441.40 721.40 L 429.24 719.61 L 417.77 717.76 L 395.20 713.68 L 372.10 709.10 L 346.85 703.94 L 317.84 698.15 L 311.42 697.14 L 306.13 696.82 L 301.80 697.09 L 298.27 697.82 L 295.41 698.94 L 293.09 700.43 L 291.24 702.27 L 289.79 704.50 L 288.75 707.20 L 288.14 710.47 L 288.02 714.42 L 288.52 719.20 L 289.75 724.95 L 291.88 731.85 Z" fill="url(#linearGradient-4)" fill-rule="evenodd" group-id="1,2,4" id="路径-77" node-id="33" stroke="none" target-height="155.40643" target-width="415.9454" target-x="288.0245" target-y="688.0483"></path><path d="M 354.10 705.39 L 367.50 705.39 L 367.50 808.71 L 354.10 798.52 Z" fill="#c2ab9c" fill-rule="evenodd" group-id="1,2,4" id="矩形备份-14" node-id="34" stroke="none" target-height="103.313354" target-width="13.4010315" target-x="354.101" target-y="705.3938"></path><path d="M 447.91 722.21 L 461.31 722.21 L 461.31 848.00 L 447.91 844.77 Z" fill="#c2ab9c" fill-rule="evenodd" group-id="1,2,4" id="矩形备份-15" node-id="35" stroke="none" target-height="125.79297" target-width="13.401001" target-x="447.90808" target-y="722.20703"></path><path d="M 550.11 720.66 L 563.51 720.66 L 563.51 844.77 L 550.11 848.00 Z" fill="#c2ab9c" fill-rule="evenodd" group-id="1,2,4" id="矩形备份-16" node-id="36" stroke="none" target-height="127.33551" target-width="13.401001" target-x="550.11096" target-y="720.6645"></path><path d="M 625.51 694.95 L 638.91 694.95 L 638.91 798.52 L 625.51 808.21 Z" fill="#c2ab9c" fill-rule="evenodd" group-id="1,2,4" id="矩形备份-17" node-id="37" stroke="none" target-height="113.25775" target-width="13.401062" target-x="625.5118" target-y="694.9479"></path><path d="M 680.74 680.76 L 678.31 681.28 L 672.72 682.70 L 657.30 687.04 L 620.09 698.19 L 613.80 700.16 L 599.23 704.26 L 585.41 707.82 L 572.32 710.87 L 559.13 713.57 L 546.46 715.75 L 534.27 717.44 L 522.03 718.68 L 510.05 719.43 L 498.30 719.67 L 486.11 719.55 L 474.87 719.18 L 463.88 718.54 L 453.42 717.66 L 443.08 716.49 L 432.85 715.05 L 422.63 713.33 L 412.10 711.30 L 403.47 709.46 L 351.07 697.13 L 331.02 692.65 L 319.37 690.30 L 313.41 689.35 L 308.16 688.92 L 303.56 688.96 L 299.52 689.40 L 295.97 690.21 L 292.85 691.34 L 289.77 692.98 L 287.16 694.95 L 284.98 697.27 L 283.20 699.96 L 281.79 703.07 L 280.79 706.66 L 280.23 710.85 L 280.21 715.64 L 280.82 721.10 L 282.15 727.35 L 284.32 734.49 L 285.34 736.46 L 293.50 747.59 L 301.80 758.04 L 310.23 767.83 L 318.81 777.00 L 327.52 785.55 L 336.37 793.53 L 345.37 800.94 L 354.51 807.80 L 363.82 814.13 L 373.28 819.95 L 382.91 825.26 L 392.95 830.17 L 403.17 834.57 L 413.59 838.46 L 424.23 841.84 L 435.10 844.72 L 446.22 847.10 L 457.58 848.97 L 469.23 850.32 L 481.16 851.16 L 493.40 851.46 L 505.97 851.21 L 518.60 850.41 L 530.81 849.11 L 542.61 847.31 L 554.02 845.03 L 565.06 842.27 L 575.75 839.05 L 586.11 835.37 L 596.16 831.22 L 605.90 826.61 L 615.35 821.54 L 624.53 816.00 L 633.37 810.04 L 641.94 803.61 L 650.27 796.70 L 658.35 789.29 L 666.20 781.37 L 673.81 772.91 L 681.20 763.91 L 688.35 754.34 L 695.27 744.17 L 701.95 733.39 L 708.40 721.96 L 709.03 720.45 L 710.55 714.47 L 711.46 709.18 L 711.84 704.48 L 711.75 700.32 L 711.24 696.62 L 710.18 692.84 L 708.69 689.64 L 706.77 686.94 L 704.42 684.66 L 701.59 682.78 L 698.56 681.45 L 695.06 680.53 L 690.98 680.07 L 686.25 680.11 L 680.74 680.76 Z M 694.97 711.25 L 693.92 715.06 L 694.31 714.38 L 687.63 726.18 L 680.70 737.23 L 673.50 747.58 L 666.06 757.24 L 658.37 766.26 L 650.42 774.66 L 642.22 782.46 L 633.75 789.68 L 625.02 796.34 L 616.01 802.46 L 606.61 808.10 L 596.89 813.22 L 586.83 817.82 L 576.42 821.90 L 565.64 825.46 L 554.46 828.50 L 542.86 831.01 L 530.81 832.97 L 518.31 834.39 L 505.30 835.22 L 499.41 835.41 L 487.20 835.37 L 475.33 834.78 L 463.76 833.65 L 452.49 831.98 L 441.49 829.78 L 430.75 827.06 L 420.25 823.82 L 409.98 820.05 L 399.92 815.76 L 390.07 810.94 L 380.62 805.71 L 371.33 799.94 L 362.20 793.62 L 353.22 786.75 L 344.38 779.29 L 335.67 771.23 L 327.10 762.54 L 318.66 753.20 L 310.34 743.18 L 302.16 732.46 L 299.07 728.16 L 297.89 724.54 L 296.39 718.84 L 295.77 714.61 L 295.79 711.53 L 296.29 709.33 L 297.19 707.64 L 298.49 706.37 L 300.24 705.45 L 302.17 704.95 L 304.66 704.69 L 307.87 704.75 L 311.94 705.23 L 316.27 705.99 L 327.75 708.31 L 335.43 709.98 L 400.86 725.27 L 413.01 727.80 L 424.65 729.93 L 436.25 731.72 L 447.88 733.17 L 459.64 734.27 L 471.97 735.06 L 484.57 735.52 L 498.30 735.67 L 509.83 735.45 L 521.52 734.78 L 533.38 733.66 L 545.21 732.13 L 557.41 730.15 L 570.01 727.73 L 582.53 724.96 L 595.64 721.75 L 609.37 718.07 L 622.19 714.29 L 647.64 706.57 L 670.99 699.74 L 677.76 697.88 L 681.15 697.02 L 683.45 696.53 L 687.46 696.00 L 690.39 695.99 L 692.50 696.35 L 693.90 696.97 L 694.95 697.88 L 695.71 699.13 L 696.17 700.80 L 696.30 703.18 L 695.96 706.57 L 694.97 711.25 Z" fill="#ac361e" fill-rule="nonzero" group-id="1,2,4" id="路径-77" node-id="38" stroke="none" target-height="171.38892" target-width="431.62338" target-x="280.21396" target-y="680.0673"></path></g><path d="M 400.00 576.00 L 399.73 580.98 L 399.01 585.74 L 397.84 590.30 L 396.23 594.68 L 394.18 598.91 L 391.79 602.85 L 389.05 606.52 L 385.94 609.94 L 382.52 613.05 L 378.85 615.79 L 374.91 618.18 L 370.68 620.23 L 366.30 621.84 L 361.74 623.01 L 356.98 623.73 L 352.00 624.00 L 347.02 623.73 L 342.26 623.01 L 337.70 621.84 L 333.32 620.23 L 329.09 618.18 L 325.15 615.79 L 321.48 613.05 L 318.06 609.94 L 314.95 606.52 L 312.21 602.85 L 309.82 598.91 L 307.77 594.68 L 306.16 590.30 L 304.99 585.74 L 304.27 580.98 L 304.00 576.00 L 304.27 571.02 L 304.99 566.26 L 306.16 561.70 L 307.77 557.32 L 309.82 553.09 L 312.21 549.15 L 314.95 545.48 L 318.06 542.06 L 321.48 538.95 L 325.15 536.21 L 329.09 533.82 L 333.32 531.77 L 337.70 530.16 L 342.26 528.99 L 347.02 528.27 L 352.00 528.00 L 356.98 528.27 L 361.74 528.99 L 366.30 530.16 L 370.68 531.77 L 374.91 533.82 L 378.85 536.21 L 382.52 538.95 L 385.94 542.06 L 389.05 545.48 L 391.79 549.15 L 394.18 553.09 L 396.23 557.32 L 397.84 561.70 L 399.01 566.26 L 399.73 571.02 L 400.00 576.00 Z" fill="#5b2500" fill-rule="evenodd" group-id="1,2" id="椭圆形" node-id="39" stroke="none" target-height="96" target-width="96" target-x="304" target-y="528"></path><path d="M 704.00 576.00 L 703.73 580.98 L 703.01 585.74 L 701.84 590.30 L 700.23 594.68 L 698.18 598.91 L 695.79 602.85 L 693.05 606.52 L 689.94 609.94 L 686.52 613.05 L 682.85 615.79 L 678.91 618.18 L 674.68 620.23 L 670.30 621.84 L 665.74 623.01 L 660.98 623.73 L 656.00 624.00 L 651.02 623.73 L 646.26 623.01 L 641.70 621.84 L 637.32 620.23 L 633.09 618.18 L 629.15 615.79 L 625.48 613.05 L 622.06 609.94 L 618.95 606.52 L 616.21 602.85 L 613.82 598.91 L 611.77 594.68 L 610.16 590.30 L 608.99 585.74 L 608.27 580.98 L 608.00 576.00 L 608.27 571.02 L 608.99 566.26 L 610.16 561.70 L 611.77 557.32 L 613.82 553.09 L 616.21 549.15 L 618.95 545.48 L 622.06 542.06 L 625.48 538.95 L 629.15 536.21 L 633.09 533.82 L 637.32 531.77 L 641.70 530.16 L 646.26 528.99 L 651.02 528.27 L 656.00 528.00 L 660.98 528.27 L 665.74 528.99 L 670.30 530.16 L 674.68 531.77 L 678.91 533.82 L 682.85 536.21 L 686.52 538.95 L 689.94 542.06 L 693.05 545.48 L 695.79 549.15 L 698.18 553.09 L 700.23 557.32 L 701.84 561.70 L 703.01 566.26 L 703.73 571.02 L 704.00 576.00 Z" fill="#5b2500" fill-rule="evenodd" group-id="1,2" id="椭圆形备份-9" node-id="40" stroke="none" target-height="96" target-width="96" target-x="608" target-y="528"></path><path d="M 208.00 528.00 L 384.00 528.00 L 386.92 528.27 L 389.60 529.00 L 392.08 530.18 L 394.32 531.77 L 396.23 533.68 L 397.82 535.92 L 399.00 538.40 L 399.73 541.08 L 400.00 544.00 L 399.73 546.92 L 399.00 549.60 L 397.82 552.08 L 396.23 554.32 L 394.32 556.23 L 392.08 557.82 L 389.60 559.00 L 386.92 559.73 L 384.00 560.00 L 208.00 560.00 L 205.08 559.73 L 202.40 559.00 L 199.92 557.82 L 197.68 556.23 L 195.77 554.32 L 194.18 552.08 L 193.00 549.60 L 192.27 546.92 L 192.00 544.00 L 192.27 541.08 L 193.00 538.40 L 194.18 535.92 L 195.77 533.68 L 197.68 531.77 L 199.92 530.18 L 202.40 529.00 L 205.08 528.27 L 208.00 528.00 Z" fill="#a05400" fill-rule="evenodd" group-id="1,2,5,11" node-id="118" stroke="none" target-height="32" target-width="208" target-x="192" target-y="528"></path><path d="M 208.00 528.00 L 384.00 528.00 L 386.92 528.27 L 389.60 529.00 L 392.08 530.18 L 394.32 531.77 L 396.23 533.68 L 397.82 535.92 L 399.00 538.40 L 399.73 541.08 L 400.00 544.00 L 399.73 546.92 L 399.00 549.60 L 397.82 552.08 L 396.23 554.32 L 394.32 556.23 L 392.08 557.82 L 389.60 559.00 L 386.92 559.73 L 384.00 560.00 L 208.00 560.00 L 205.08 559.73 L 202.40 559.00 L 199.92 557.82 L 197.68 556.23 L 195.77 554.32 L 194.18 552.08 L 193.00 549.60 L 192.27 546.92 L 192.00 544.00 L 192.27 541.08 L 193.00 538.40 L 194.18 535.92 L 195.77 533.68 L 197.68 531.77 L 199.92 530.18 L 202.40 529.00 L 205.08 528.27 L 208.00 528.00 Z" fill="#723004" fill-rule="evenodd" group-id="1,2,5,12" node-id="123" stroke="none" target-height="32" target-width="208" target-x="192" target-y="528"></path><path d="M 512.00 528.00 L 688.00 528.00 L 690.92 528.27 L 693.60 529.00 L 696.08 530.18 L 698.32 531.77 L 700.23 533.68 L 701.82 535.92 L 703.00 538.40 L 703.73 541.08 L 704.00 544.00 L 704.00 544.00 L 703.73 546.92 L 703.00 549.60 L 701.82 552.08 L 700.23 554.32 L 698.32 556.23 L 696.08 557.82 L 693.60 559.00 L 690.92 559.73 L 688.00 560.00 L 512.00 560.00 L 509.08 559.73 L 506.40 559.00 L 503.92 557.82 L 501.68 556.23 L 499.77 554.32 L 498.18 552.08 L 497.00 549.60 L 496.27 546.92 L 496.00 544.00 L 496.00 544.00 L 496.27 541.08 L 497.00 538.40 L 498.18 535.92 L 499.77 533.68 L 501.68 531.77 L 503.92 530.18 L 506.40 529.00 L 509.08 528.27 L 512.00 528.00 Z" fill="#a05400" fill-rule="evenodd" group-id="1,2,6,13" node-id="130" stroke="none" target-height="32" target-width="208" target-x="496" target-y="528"></path><path d="M 512.00 528.00 L 688.00 528.00 L 690.92 528.27 L 693.60 529.00 L 696.08 530.18 L 698.32 531.77 L 700.23 533.68 L 701.82 535.92 L 703.00 538.40 L 703.73 541.08 L 704.00 544.00 L 704.00 544.00 L 703.73 546.92 L 703.00 549.60 L 701.82 552.08 L 700.23 554.32 L 698.32 556.23 L 696.08 557.82 L 693.60 559.00 L 690.92 559.73 L 688.00 560.00 L 512.00 560.00 L 509.08 559.73 L 506.40 559.00 L 503.92 557.82 L 501.68 556.23 L 499.77 554.32 L 498.18 552.08 L 497.00 549.60 L 496.27 546.92 L 496.00 544.00 L 496.00 544.00 L 496.27 541.08 L 497.00 538.40 L 498.18 535.92 L 499.77 533.68 L 501.68 531.77 L 503.92 530.18 L 506.40 529.00 L 509.08 528.27 L 512.00 528.00 Z" fill="#723004" fill-rule="evenodd" group-id="1,2,6,14" node-id="135" stroke="none" target-height="32" target-width="208" target-x="496" target-y="528"></path><path d="M 245.27 400.80 L 252.00 401.05 L 258.78 401.74 L 265.62 402.87 L 272.55 404.45 L 279.57 406.51 L 288.05 409.51 L 296.80 413.14 L 305.84 417.40 L 315.18 422.36 L 327.23 429.39 L 339.98 437.41 L 353.44 446.49 L 373.64 460.82 L 395.71 477.03 L 397.19 478.36 L 398.35 479.83 L 399.20 481.44 L 399.75 483.19 L 399.99 484.96 L 399.91 486.77 L 399.51 488.55 L 398.78 490.24 L 397.69 491.89 L 396.32 493.30 L 394.79 494.41 L 393.09 495.23 L 391.28 495.76 L 389.43 495.99 L 387.53 495.91 L 385.68 495.53 L 383.90 494.83 L 382.20 493.79 L 368.07 483.55 L 354.93 474.50 L 342.72 466.58 L 330.23 459.04 L 318.53 452.62 L 307.59 447.23 L 299.11 443.52 L 290.96 440.37 L 283.10 437.77 L 275.53 435.67 L 267.75 433.97 L 260.13 432.78 L 252.64 432.07 L 245.27 431.83 L 240.71 432.03 L 238.01 432.04 L 235.14 431.76 L 232.35 431.05 L 229.73 429.72 L 228.21 428.48 L 226.84 426.80 L 225.63 424.60 L 224.80 422.21 L 224.23 419.10 L 224.00 415.10 L 224.24 411.10 L 224.81 408.08 L 225.63 405.85 L 226.84 403.83 L 228.21 402.36 L 229.73 401.34 L 232.34 400.38 L 235.14 400.02 L 238.01 400.08 L 240.71 400.35 L 245.27 400.80 Z" fill="#9f531e" fill-rule="nonzero" group-id="1,2" id="路径-76" node-id="47" stroke="none" target-height="95.97125" target-width="175.98883" target-x="224" target-y="400.01794"></path><path d="M 604.74 359.83 L 609.28 350.21 L 614.04 341.31 L 619.00 333.08 L 624.15 325.49 L 629.50 318.49 L 635.40 311.62 L 641.40 305.38 L 647.50 299.76 L 653.72 294.71 L 660.05 290.22 L 666.79 286.05 L 673.55 282.47 L 680.34 279.44 L 687.18 276.94 L 694.07 274.96 L 701.15 273.46 L 708.19 272.49 L 715.21 272.04 L 722.22 272.10 L 729.24 272.68 L 736.18 273.77 L 743.03 275.37 L 749.82 277.49 L 756.54 280.14 L 763.23 283.33 L 769.59 286.94 L 775.80 291.07 L 781.90 295.76 L 787.87 301.01 L 793.73 306.88 L 795.28 308.81 L 796.96 311.55 L 798.36 314.63 L 799.43 318.15 L 799.87 320.60 L 799.99 323.09 L 799.81 325.65 L 799.25 328.13 L 798.23 330.57 L 796.71 333.00 L 794.80 335.15 L 792.89 336.76 L 790.96 337.90 L 788.86 338.73 L 786.83 339.19 L 784.83 339.33 L 781.89 339.01 L 779.25 338.17 L 776.89 336.88 L 775.09 335.35 L 769.33 329.61 L 763.55 324.60 L 757.72 320.25 L 751.85 316.54 L 745.92 313.42 L 739.61 310.73 L 733.34 308.67 L 727.09 307.21 L 720.83 306.32 L 714.53 306.01 L 708.23 306.26 L 701.98 307.09 L 695.77 308.49 L 689.57 310.48 L 683.36 313.09 L 677.51 316.15 L 671.75 319.79 L 666.05 324.06 L 660.42 328.99 L 654.84 334.63 L 649.84 340.42 L 644.99 346.87 L 640.29 354.01 L 635.76 361.90 L 631.38 370.59 L 624.61 384.55 L 617.88 397.42 L 611.19 409.26 L 604.57 420.13 L 597.99 430.07 L 590.68 440.26 L 583.52 449.42 L 576.49 457.63 L 569.59 464.95 L 562.83 471.44 L 555.34 477.86 L 548.08 483.38 L 541.02 488.05 L 534.14 491.94 L 527.42 495.11 L 525.49 495.73 L 523.58 495.99 L 521.68 495.91 L 519.82 495.50 L 518.09 494.80 L 516.47 493.79 L 515.04 492.53 L 513.85 491.01 L 512.89 489.21 L 512.27 487.27 L 512.01 485.35 L 512.09 483.44 L 512.50 481.57 L 513.19 479.83 L 514.19 478.20 L 515.45 476.77 L 516.96 475.57 L 518.75 474.60 L 524.33 471.89 L 530.06 468.43 L 535.98 464.13 L 542.09 458.92 L 548.42 452.69 L 554.99 445.36 L 561.81 436.79 L 568.41 427.57 L 575.22 417.07 L 582.25 405.16 L 589.52 391.74 L 597.01 376.67 L 604.74 359.83 Z" fill="#9f531e" fill-rule="nonzero" group-id="1,2" id="路径" node-id="48" stroke="none" target-height="223.95593" target-width="287.98352" target-x="512.0078" target-y="272.0361"></path><path d="M 864.00 672.00 L 863.70 676.60 L 862.85 681.06 L 861.47 685.42 L 859.51 689.70 L 857.13 693.72 L 854.27 697.62 L 850.91 701.40 L 847.02 705.07 L 842.91 708.38 L 838.38 711.50 L 833.41 714.44 L 827.97 717.20 L 822.45 719.57 L 816.60 721.70 L 810.40 723.56 L 803.81 725.15 L 797.24 726.36 L 790.42 727.25 L 783.34 727.80 L 776.00 728.00 L 768.66 727.80 L 761.58 727.25 L 754.76 726.36 L 748.19 725.15 L 741.60 723.56 L 735.40 721.70 L 729.55 719.57 L 724.03 717.20 L 718.59 714.44 L 713.62 711.50 L 709.09 708.38 L 704.98 705.07 L 701.09 701.40 L 697.73 697.62 L 694.87 693.72 L 692.49 689.70 L 690.54 685.42 L 689.15 681.06 L 688.30 676.60 L 688.00 672.00 L 688.30 667.40 L 689.15 662.94 L 690.53 658.58 L 692.49 654.30 L 694.87 650.28 L 697.73 646.38 L 701.09 642.60 L 704.98 638.93 L 709.09 635.62 L 713.62 632.50 L 718.59 629.56 L 724.03 626.80 L 729.55 624.43 L 735.40 622.30 L 741.60 620.44 L 748.19 618.85 L 754.76 617.64 L 761.58 616.75 L 768.66 616.20 L 776.00 616.00 L 783.34 616.20 L 790.42 616.75 L 797.24 617.64 L 803.81 618.85 L 810.40 620.44 L 816.60 622.30 L 822.45 624.43 L 827.97 626.80 L 833.41 629.56 L 838.38 632.50 L 842.91 635.62 L 847.02 638.93 L 850.91 642.60 L 854.27 646.38 L 857.13 650.28 L 859.51 654.30 L 861.47 658.58 L 862.85 662.94 L 863.70 667.40 L 864.00 672.00 Z" fill="#ff5ea4" fill-opacity="0.8" fill-rule="evenodd" filter="url(#filter-7)" group-id="1,2,7" id="椭圆形" node-id="49" stroke="none" target-height="112" target-width="176" target-x="688" target-y="616"></path><path d="M 384.00 672.00 L 383.70 676.60 L 382.85 681.06 L 381.47 685.42 L 379.51 689.70 L 377.13 693.72 L 374.27 697.62 L 370.91 701.40 L 367.02 705.07 L 362.91 708.38 L 358.38 711.50 L 353.41 714.44 L 347.97 717.20 L 342.45 719.57 L 336.60 721.70 L 330.40 723.56 L 323.81 725.15 L 317.24 726.36 L 310.42 727.25 L 303.34 727.80 L 296.00 728.00 L 288.66 727.80 L 281.58 727.25 L 274.76 726.36 L 268.19 725.15 L 261.60 723.56 L 255.40 721.70 L 249.55 719.57 L 244.03 717.20 L 238.59 714.44 L 233.62 711.50 L 229.09 708.38 L 224.98 705.07 L 221.09 701.40 L 217.73 697.62 L 214.87 693.72 L 212.49 689.70 L 210.53 685.42 L 209.15 681.06 L 208.30 676.60 L 208.00 672.00 L 208.30 667.40 L 209.15 662.94 L 210.53 658.58 L 212.49 654.30 L 214.87 650.28 L 217.73 646.38 L 221.09 642.60 L 224.98 638.93 L 229.09 635.62 L 233.62 632.50 L 238.59 629.56 L 244.03 626.80 L 249.55 624.43 L 255.40 622.30 L 261.60 620.44 L 268.19 618.85 L 274.76 617.64 L 281.58 616.75 L 288.66 616.20 L 296.00 616.00 L 303.34 616.20 L 310.42 616.75 L 317.24 617.64 L 323.81 618.85 L 330.40 620.44 L 336.60 622.30 L 342.45 624.43 L 347.97 626.80 L 353.41 629.56 L 358.38 632.50 L 362.91 635.62 L 367.02 638.93 L 370.91 642.60 L 374.27 646.38 L 377.13 650.28 L 379.51 654.30 L 381.47 658.58 L 382.85 662.94 L 383.70 667.40 L 384.00 672.00 Z" fill="#ff5ea4" fill-opacity="0.8" fill-rule="evenodd" filter="url(#filter-8)" group-id="1,2,8" id="椭圆形备份-6" node-id="50" stroke="none" target-height="112" target-width="176" target-x="208" target-y="616"></path></g></g></svg>