<?xml version="1.0" standalone="no"?><!DOCTYPE svg PUBLIC "-//W3C//DTD SVG 1.1//EN" "http://www.w3.org/Graphics/SVG/1.1/DTD/svg11.dtd"><svg height="1024" node-id="1" sillyvg="true" template-height="1024" template-width="1024" version="1.1" viewBox="0 0 1024 1024" width="1024" xmlns="http://www.w3.org/2000/svg" xmlns:xlink="http://www.w3.org/1999/xlink"><defs node-id="87"><radialGradient cx="0.5" cy="0.19668992" fx="0.5" fy="0.19668992" gradientTransform="matrix(0 1 -0.912281 0 0.67943655 -0.30331)" gradientUnits="objectBoundingBox" id="radialGradient-1" node-id="5" r="0.9393923" rev="2" spreadMethod="pad"><stop offset="0" stop-color="#ffe476"></stop><stop offset="0.41387266" stop-color="#fcec6c"></stop><stop offset="1" stop-color="#ffb02f"></stop></radialGradient><linearGradient gradientUnits="objectBoundingBox" id="linearGradient-9" node-id="29" spreadMethod="pad" x1="0.5" x2="0.5" y1="0" y2="1"><stop offset="0" stop-color="#ffffff"></stop><stop offset="1" stop-color="#ffedbe"></stop></linearGradient><filter height="1.173" id="filter-3" node-id="10" width="1.158" x="-0.079" y="-0.087"><feGaussianBlur color-interpolation-filters="linearRGB" in="SourceAlpha" result="shadowBlurInner1" stdDeviation="64 64"></feGaussianBlur><feOffset color-interpolation-filters="linearRGB" dx="0" dy="16" in="shadowBlurInner1" result="shadowOffsetInner1"></feOffset><feComposite color-interpolation-filters="linearRGB" in="shadowOffsetInner1" in2="SourceAlpha" k1="0" k2="-1" k3="1" k4="0" operator="arithmetic" result="shadowInnerInner1"></feComposite><feColorMatrix color-interpolation-filters="linearRGB" in="shadowInnerInner1" result="result4" type="matrix" values="0 0 0 0 0.968627451 0 0 0 0 0.68627451 0 0 0 0 0.270588235 0 0 0 0.501145583 0"></feColorMatrix></filter><filter height="2.8" id="filter-4" node-id="15" width="2.636" x="-0.818" y="-0.9"><feGaussianBlur color-interpolation-filters="linearRGB" in="SourceGraphic" result="result1" stdDeviation="48 48"></feGaussianBlur></filter><filter height="2.8" id="filter-5" node-id="17" width="2.636" x="-0.818" y="-0.9"><feGaussianBlur color-interpolation-filters="linearRGB" in="SourceGraphic" result="result1" stdDeviation="48 48"></feGaussianBlur></filter><filter height="1.462" id="filter-7" node-id="20" width="1.273" x="-0.136" y="-0.231"><feOffset color-interpolation-filters="linearRGB" dx="0" dy="0" in="SourceAlpha" result="shadowOffsetOuter1"></feOffset><feGaussianBlur color-interpolation-filters="linearRGB" in="shadowOffsetOuter1" result="shadowBlurOuter1" stdDeviation="16 16"></feGaussianBlur><feColorMatrix color-interpolation-filters="linearRGB" in="shadowBlurOuter1" result="result3" type="matrix" values="0 0 0 0 0.925243875 0 0 0 0 0.776569168 0 0 0 0 0.170857398 0 0 0 1 0"></feColorMatrix></filter><filter height="1.385" id="filter-8" node-id="24" width="1.227" x="-0.114" y="-0.192"><feGaussianBlur color-interpolation-filters="linearRGB" in="SourceAlpha" result="shadowBlurInner1" stdDeviation="8 8"></feGaussianBlur><feOffset color-interpolation-filters="linearRGB" dx="0" dy="0" in="shadowBlurInner1" result="shadowOffsetInner1"></feOffset><feComposite color-interpolation-filters="linearRGB" in="shadowOffsetInner1" in2="SourceAlpha" k1="0" k2="-1" k3="1" k4="0" operator="arithmetic" result="shadowInnerInner1"></feComposite><feColorMatrix color-interpolation-filters="linearRGB" in="shadowInnerInner1" result="result4" type="matrix" values="0 0 0 0 0.661258421 0 0 0 0 0.0872254633 0 0 0 0 0.00982776113 0 0 0 1 0"></feColorMatrix></filter><filter height="1.75" id="filter-11" node-id="33" width="1.857" x="-0.429" y="-0.375"><feOffset color-interpolation-filters="linearRGB" dx="0" dy="0" in="SourceAlpha" result="shadowOffsetOuter1"></feOffset><feGaussianBlur color-interpolation-filters="linearRGB" in="shadowOffsetOuter1" result="shadowBlurOuter1" stdDeviation="32 32"></feGaussianBlur><feColorMatrix color-interpolation-filters="linearRGB" in="shadowBlurOuter1" result="result3" type="matrix" values="0 0 0 0 0.888848346 0 0 0 0 0.591702642 0 0 0 0 0.178785883 0 0 0 1 0"></feColorMatrix></filter><filter height="1.625" id="filter-12" node-id="37" width="1.714" x="-0.357" y="-0.312"><feGaussianBlur color-interpolation-filters="linearRGB" in="SourceAlpha" result="shadowBlurInner1" stdDeviation="16 16"></feGaussianBlur><feOffset color-interpolation-filters="linearRGB" dx="0" dy="0" in="shadowBlurInner1" result="shadowOffsetInner1"></feOffset><feComposite color-interpolation-filters="linearRGB" in="shadowOffsetInner1" in2="SourceAlpha" k1="0" k2="-1" k3="1" k4="0" operator="arithmetic" result="shadowInnerInner1"></feComposite><feColorMatrix color-interpolation-filters="linearRGB" in="shadowInnerInner1" result="result4" type="matrix" values="0 0 0 0 1 0 0 0 0 0.880587925 0 0 0 0 0.537254902 0 0 0 0.500726446 0"></feColorMatrix></filter><filter height="1.75" id="filter-14" node-id="43" width="1.857" x="-0.429" y="-0.375"><feOffset color-interpolation-filters="linearRGB" dx="0" dy="0" in="SourceAlpha" result="shadowOffsetOuter1"></feOffset><feGaussianBlur color-interpolation-filters="linearRGB" in="shadowOffsetOuter1" result="shadowBlurOuter1" stdDeviation="32 32"></feGaussianBlur><feColorMatrix color-interpolation-filters="linearRGB" in="shadowBlurOuter1" result="result3" type="matrix" values="0 0 0 0 0.888848346 0 0 0 0 0.591702642 0 0 0 0 0.178785883 0 0 0 1 0"></feColorMatrix></filter><filter height="1.625" id="filter-15" node-id="47" width="1.714" x="-0.357" y="-0.312"><feGaussianBlur color-interpolation-filters="linearRGB" in="SourceAlpha" result="shadowBlurInner1" stdDeviation="16 16"></feGaussianBlur><feOffset color-interpolation-filters="linearRGB" dx="0" dy="0" in="shadowBlurInner1" result="shadowOffsetInner1"></feOffset><feComposite color-interpolation-filters="linearRGB" in="shadowOffsetInner1" in2="SourceAlpha" k1="0" k2="-1" k3="1" k4="0" operator="arithmetic" result="shadowInnerInner1"></feComposite><feColorMatrix color-interpolation-filters="linearRGB" in="shadowInnerInner1" result="result4" type="matrix" values="0 0 0 0 1 0 0 0 0 0.880587925 0 0 0 0 0.537254902 0 0 0 0.500726446 0"></feColorMatrix></filter></defs><g node-id="260"><path d="M 0.00 0.00 L 1024.00 0.00 L 1024.00 1024.00 L 0.00 1024.00 Z" fill="none" group-id="1" id="矩形备份-6" node-id="54" stroke="none" target-height="1024" target-width="1024" target-x="0" target-y="0"></path><g node-id="261"><g node-id="264"><g node-id="272"><path d="M 486.86 96.38 L 501.27 96.01 L 515.38 96.26 L 529.21 97.12 L 542.78 98.56 L 556.11 100.60 L 569.45 103.25 L 582.45 106.45 L 595.14 110.18 L 607.52 114.44 L 619.62 119.24 L 631.55 124.62 L 643.10 130.48 L 654.29 136.81 L 665.13 143.63 L 675.63 150.95 L 685.80 158.75 L 695.54 166.99 L 704.88 175.66 L 713.82 184.77 L 722.36 194.34 L 730.43 204.28 L 738.02 214.61 L 745.16 225.35 L 751.83 236.49 L 758.05 248.07 L 769.36 253.33 L 780.52 258.98 L 791.54 265.01 L 802.41 271.43 L 813.15 278.25 L 826.23 287.24 L 838.93 296.74 L 851.27 306.77 L 863.26 317.34 L 872.54 326.15 L 881.50 335.23 L 890.13 344.59 L 898.46 354.24 L 906.47 364.18 L 914.14 374.40 L 921.41 384.85 L 928.28 395.53 L 934.76 406.44 L 940.86 417.61 L 946.52 428.99 L 951.71 440.56 L 956.44 452.32 L 960.70 464.28 L 964.49 476.45 L 967.77 488.74 L 970.50 501.18 L 972.70 513.79 L 974.35 526.58 L 975.46 539.55 L 975.98 552.48 L 975.88 565.54 L 975.17 578.77 L 973.83 592.16 L 971.84 605.75 L 969.02 620.58 L 965.77 634.95 L 962.10 648.88 L 958.01 662.38 L 953.51 675.47 L 948.61 688.17 L 943.16 700.86 L 937.32 713.16 L 931.10 725.06 L 924.50 736.57 L 917.52 747.73 L 910.15 758.52 L 902.33 769.08 L 894.15 779.28 L 885.61 789.13 L 876.71 798.64 L 867.44 807.81 L 857.79 816.64 L 847.85 825.09 L 837.58 833.20 L 826.95 840.98 L 815.96 848.44 L 804.61 855.57 L 792.88 862.38 L 784.16 867.78 L 774.82 873.07 L 764.83 878.22 L 754.14 883.24 L 743.49 887.78 L 732.08 892.19 L 719.87 896.45 L 706.83 900.56 L 693.95 904.20 L 680.18 907.67 L 665.47 910.97 L 649.78 914.08 L 634.38 916.75 L 617.95 919.23 L 600.46 921.49 L 581.85 923.53 L 560.70 925.39 L 539.95 926.75 L 519.60 927.61 L 499.64 927.98 L 480.05 927.87 L 460.19 927.26 L 440.81 926.15 L 421.90 924.54 L 403.44 922.45 L 385.42 919.89 L 367.22 916.75 L 349.57 913.11 L 332.44 908.98 L 315.82 904.39 L 299.69 899.32 L 286.19 894.59 L 273.10 889.51 L 260.41 884.11 L 248.10 878.37 L 236.16 872.30 L 224.58 865.90 L 213.11 859.00 L 202.06 851.76 L 191.42 844.18 L 181.17 836.25 L 171.30 827.97 L 161.82 819.34 L 152.67 810.30 L 143.95 800.89 L 135.64 791.11 L 127.74 780.93 L 120.23 770.36 L 113.12 759.39 L 106.56 748.22 L 100.43 736.64 L 94.73 724.62 L 89.45 712.15 L 84.61 699.21 L 80.21 685.77 L 76.46 672.48 L 73.16 658.70 L 70.34 644.41 L 67.99 629.58 L 66.15 614.19 L 64.82 598.22 L 64.14 583.09 L 64.03 568.57 L 64.46 554.63 L 65.41 541.24 L 66.86 528.37 L 68.90 515.28 L 71.42 502.70 L 74.40 490.60 L 77.84 478.97 L 81.72 467.78 L 86.18 456.62 L 91.06 445.89 L 96.35 435.54 L 102.05 425.58 L 108.18 415.98 L 114.77 406.63 L 121.74 397.62 L 129.10 388.93 L 136.85 380.56 L 145.01 372.50 L 153.46 364.81 L 162.28 357.41 L 171.46 350.29 L 181.02 343.45 L 190.97 336.88 L 193.90 323.41 L 197.19 310.46 L 200.84 298.03 L 204.83 286.10 L 209.16 274.63 L 213.83 263.62 L 218.81 253.05 L 224.38 242.41 L 230.26 232.20 L 236.44 222.43 L 242.94 213.08 L 249.74 204.13 L 256.85 195.57 L 264.28 187.38 L 273.46 178.18 L 283.02 169.49 L 292.99 161.29 L 303.37 153.58 L 314.17 146.34 L 325.42 139.58 L 336.87 133.40 L 348.72 127.67 L 360.96 122.40 L 373.62 117.59 L 386.72 113.23 L 400.27 109.34 L 413.70 106.05 L 427.52 103.20 L 441.72 100.79 L 456.34 98.85 L 471.38 97.37 L 486.86 96.38 Z" fill="url(#radialGradient-1)" fill-rule="evenodd" group-id="1,2,5,13" node-id="183" stroke="none" target-height="831.9669" target-width="911.9464" target-x="64.03111" target-y="96.01346"></path></g><path d="M 486.86 96.38 L 501.27 96.01 L 515.38 96.26 L 529.21 97.12 L 542.78 98.56 L 556.11 100.60 L 569.45 103.25 L 582.45 106.45 L 595.14 110.18 L 607.52 114.44 L 619.62 119.24 L 631.55 124.62 L 643.10 130.48 L 654.29 136.81 L 665.13 143.63 L 675.63 150.95 L 685.80 158.75 L 695.54 166.99 L 704.88 175.66 L 713.82 184.77 L 722.36 194.34 L 730.43 204.28 L 738.02 214.61 L 745.16 225.35 L 751.83 236.49 L 758.05 248.07 L 769.36 253.33 L 780.52 258.98 L 791.54 265.01 L 802.41 271.43 L 813.15 278.25 L 826.23 287.24 L 838.93 296.74 L 851.27 306.77 L 863.26 317.34 L 872.54 326.15 L 881.50 335.23 L 890.13 344.59 L 898.46 354.24 L 906.47 364.18 L 914.14 374.40 L 921.41 384.85 L 928.28 395.53 L 934.76 406.44 L 940.86 417.61 L 946.52 428.99 L 951.71 440.56 L 956.44 452.32 L 960.70 464.28 L 964.49 476.45 L 967.77 488.74 L 970.50 501.18 L 972.70 513.79 L 974.35 526.58 L 975.46 539.55 L 975.98 552.48 L 975.88 565.54 L 975.17 578.77 L 973.83 592.16 L 971.84 605.75 L 969.02 620.58 L 965.77 634.95 L 962.10 648.88 L 958.01 662.38 L 953.51 675.47 L 948.61 688.17 L 943.16 700.86 L 937.32 713.16 L 931.10 725.06 L 924.50 736.57 L 917.52 747.73 L 910.15 758.52 L 902.33 769.08 L 894.15 779.28 L 885.61 789.13 L 876.71 798.64 L 867.44 807.81 L 857.79 816.64 L 847.85 825.09 L 837.58 833.20 L 826.95 840.98 L 815.96 848.44 L 804.61 855.57 L 792.88 862.38 L 784.16 867.78 L 774.82 873.07 L 764.83 878.22 L 754.14 883.24 L 743.49 887.78 L 732.08 892.19 L 719.87 896.45 L 706.83 900.56 L 693.95 904.20 L 680.18 907.67 L 665.47 910.97 L 649.78 914.08 L 634.38 916.75 L 617.95 919.23 L 600.46 921.49 L 581.85 923.53 L 560.70 925.39 L 539.95 926.75 L 519.60 927.61 L 499.64 927.98 L 480.05 927.87 L 460.19 927.26 L 440.81 926.15 L 421.90 924.54 L 403.44 922.45 L 385.42 919.89 L 367.22 916.75 L 349.57 913.11 L 332.44 908.98 L 315.82 904.39 L 299.69 899.32 L 286.19 894.59 L 273.10 889.51 L 260.41 884.11 L 248.10 878.37 L 236.16 872.30 L 224.58 865.90 L 213.11 859.00 L 202.06 851.76 L 191.42 844.18 L 181.17 836.25 L 171.30 827.97 L 161.82 819.34 L 152.67 810.30 L 143.95 800.89 L 135.64 791.11 L 127.74 780.93 L 120.23 770.36 L 113.12 759.39 L 106.56 748.22 L 100.43 736.64 L 94.73 724.62 L 89.45 712.15 L 84.61 699.21 L 80.21 685.77 L 76.46 672.48 L 73.16 658.70 L 70.34 644.41 L 67.99 629.58 L 66.15 614.19 L 64.82 598.22 L 64.14 583.09 L 64.03 568.57 L 64.46 554.63 L 65.41 541.24 L 66.86 528.37 L 68.90 515.28 L 71.42 502.70 L 74.40 490.60 L 77.84 478.97 L 81.72 467.78 L 86.18 456.62 L 91.06 445.89 L 96.35 435.54 L 102.05 425.58 L 108.18 415.98 L 114.77 406.63 L 121.74 397.62 L 129.10 388.93 L 136.85 380.56 L 145.01 372.50 L 153.46 364.81 L 162.28 357.41 L 171.46 350.29 L 181.02 343.45 L 190.97 336.88 L 193.90 323.41 L 197.19 310.46 L 200.84 298.03 L 204.83 286.10 L 209.16 274.63 L 213.83 263.62 L 218.81 253.05 L 224.38 242.41 L 230.26 232.20 L 236.44 222.43 L 242.94 213.08 L 249.74 204.13 L 256.85 195.57 L 264.28 187.38 L 273.46 178.18 L 283.02 169.49 L 292.99 161.29 L 303.37 153.58 L 314.17 146.34 L 325.42 139.58 L 336.87 133.40 L 348.72 127.67 L 360.96 122.40 L 373.62 117.59 L 386.72 113.23 L 400.27 109.34 L 413.70 106.05 L 427.52 103.20 L 441.72 100.79 L 456.34 98.85 L 471.38 97.37 L 486.86 96.38 Z" fill="#000000" fill-rule="evenodd" filter="url(#filter-3)" group-id="1,2,5,14" node-id="188" stroke="none" target-height="831.9669" target-width="911.9464" target-x="64.03111" target-y="96.01346"></path></g><g node-id="265"><path d="M 800.00 584.00 L 799.69 590.63 L 798.84 597.04 L 797.44 603.25 L 795.51 609.29 L 793.07 615.15 L 790.18 620.76 L 786.84 626.12 L 783.02 631.25 L 778.82 636.06 L 774.26 640.54 L 769.31 644.71 L 763.97 648.56 L 758.38 652.00 L 752.50 655.04 L 746.32 657.68 L 739.81 659.92 L 733.20 661.67 L 726.38 662.94 L 719.32 663.72 L 712.00 664.00 L 704.68 663.72 L 697.62 662.94 L 690.80 661.67 L 684.19 659.92 L 677.68 657.68 L 671.50 655.04 L 665.62 652.00 L 660.03 648.56 L 654.69 644.71 L 649.74 640.54 L 645.18 636.06 L 640.98 631.25 L 637.16 626.12 L 633.82 620.76 L 630.93 615.15 L 628.49 609.29 L 626.56 603.25 L 625.16 597.04 L 624.31 590.63 L 624.00 584.00 L 624.31 577.37 L 625.16 570.96 L 626.56 564.75 L 628.49 558.71 L 630.93 552.85 L 633.82 547.24 L 637.16 541.88 L 640.98 536.75 L 645.18 531.94 L 649.74 527.46 L 654.69 523.29 L 660.03 519.44 L 665.62 516.00 L 671.50 512.96 L 677.68 510.32 L 684.19 508.08 L 690.80 506.33 L 697.62 505.06 L 704.68 504.28 L 712.00 504.00 L 719.32 504.28 L 726.38 505.06 L 733.20 506.33 L 739.81 508.08 L 746.32 510.32 L 752.50 512.96 L 758.38 516.00 L 763.97 519.44 L 769.31 523.29 L 774.26 527.46 L 778.82 531.94 L 783.02 536.75 L 786.84 541.88 L 790.18 547.24 L 793.07 552.85 L 795.51 558.71 L 797.44 564.75 L 798.84 570.96 L 799.69 577.37 L 800.00 584.00 Z" fill="#ff5ea4" fill-opacity="0.8" fill-rule="evenodd" filter="url(#filter-4)" group-id="1,2,6" id="椭圆形" node-id="59" stroke="none" target-height="160" target-width="176" target-x="624" target-y="504"></path></g><g node-id="266"><path d="M 368.00 584.00 L 367.69 590.63 L 366.84 597.04 L 365.44 603.25 L 363.51 609.29 L 361.07 615.15 L 358.18 620.76 L 354.84 626.12 L 351.02 631.25 L 346.82 636.06 L 342.26 640.54 L 337.31 644.71 L 331.97 648.56 L 326.38 652.00 L 320.50 655.04 L 314.32 657.68 L 307.81 659.92 L 301.20 661.67 L 294.38 662.94 L 287.32 663.72 L 280.00 664.00 L 272.68 663.72 L 265.62 662.94 L 258.80 661.67 L 252.19 659.92 L 245.68 657.68 L 239.50 655.04 L 233.62 652.00 L 228.03 648.56 L 222.69 644.71 L 217.74 640.54 L 213.18 636.06 L 208.98 631.25 L 205.16 626.12 L 201.82 620.76 L 198.93 615.15 L 196.49 609.29 L 194.56 603.25 L 193.16 597.04 L 192.31 590.63 L 192.00 584.00 L 192.31 577.37 L 193.16 570.96 L 194.56 564.75 L 196.49 558.71 L 198.93 552.85 L 201.82 547.24 L 205.16 541.88 L 208.98 536.75 L 213.18 531.94 L 217.74 527.46 L 222.69 523.29 L 228.03 519.44 L 233.62 516.00 L 239.50 512.96 L 245.68 510.32 L 252.19 508.08 L 258.80 506.33 L 265.62 505.06 L 272.68 504.28 L 280.00 504.00 L 287.32 504.28 L 294.38 505.06 L 301.20 506.33 L 307.81 508.08 L 314.32 510.32 L 320.50 512.96 L 326.38 516.00 L 331.97 519.44 L 337.31 523.29 L 342.26 527.46 L 346.82 531.94 L 351.02 536.75 L 354.84 541.88 L 358.18 547.24 L 361.07 552.85 L 363.51 558.71 L 365.44 564.75 L 366.84 570.96 L 367.69 577.37 L 368.00 584.00 Z" fill="#ff5ea4" fill-opacity="0.8" fill-rule="evenodd" filter="url(#filter-5)" group-id="1,2,7" id="椭圆形备份-6" node-id="60" stroke="none" target-height="160" target-width="176" target-x="192" target-y="504"></path></g><g node-id="267"><g node-id="274"><path d="M 336.64 755.24 L 342.29 739.67 L 348.22 724.99 L 354.41 711.18 L 360.84 698.18 L 367.51 685.97 L 374.42 674.51 L 381.56 663.77 L 388.92 653.70 L 396.50 644.30 L 404.30 635.51 L 412.33 627.33 L 420.46 619.83 L 428.81 612.88 L 437.37 606.47 L 446.17 600.58 L 455.20 595.19 L 464.48 590.30 L 474.01 585.90 L 483.83 581.99 L 493.93 578.57 L 504.33 575.63 L 515.06 573.18 L 526.13 571.23 L 537.62 569.78 L 549.47 568.86 L 561.72 568.48 L 574.38 568.66 L 587.47 569.43 L 601.03 570.79 L 615.07 572.79 L 629.62 575.43 L 644.70 578.76 L 660.34 582.81 L 676.57 587.61 L 679.27 588.74 L 681.61 590.24 L 683.62 592.11 L 685.29 594.30 L 686.53 596.69 L 687.38 599.31 L 687.76 602.03 L 687.66 604.80 L 687.04 607.67 L 685.91 610.37 L 684.41 612.71 L 682.54 614.72 L 680.35 616.38 L 677.96 617.63 L 675.34 618.47 L 672.62 618.86 L 669.85 618.75 L 666.98 618.14 L 650.85 613.37 L 635.41 609.41 L 620.62 606.22 L 606.47 603.76 L 592.90 602.00 L 579.90 600.89 L 567.43 600.41 L 555.46 600.54 L 543.96 601.24 L 532.91 602.50 L 522.30 604.30 L 512.07 606.63 L 502.18 609.49 L 492.61 612.86 L 483.36 616.76 L 474.39 621.17 L 465.69 626.12 L 457.25 631.60 L 449.06 637.64 L 441.11 644.24 L 433.38 651.44 L 426.45 658.62 L 419.69 666.36 L 413.10 674.68 L 406.68 683.60 L 400.43 693.15 L 394.37 703.37 L 388.48 714.29 L 382.78 725.93 L 377.28 738.35 L 371.98 751.57 L 366.91 765.63 L 365.70 768.30 L 364.15 770.59 L 362.22 772.55 L 359.99 774.16 L 357.57 775.35 L 354.93 776.12 L 352.20 776.44 L 349.43 776.26 L 346.58 775.57 L 343.91 774.36 L 341.61 772.80 L 339.65 770.88 L 338.05 768.65 L 336.86 766.23 L 336.09 763.59 L 335.77 760.86 L 335.95 758.09 L 336.64 755.24 Z" fill="#000000" fill-rule="nonzero" filter="url(#filter-7)" group-id="1,2,8,15" node-id="203" stroke="none" target-height="207.95502" target-width="351.98965" target-x="335.77206" target-y="568.481"></path></g><g node-id="275"><path d="M 336.64 755.24 L 342.29 739.67 L 348.22 724.99 L 354.41 711.18 L 360.84 698.18 L 367.51 685.97 L 374.42 674.51 L 381.56 663.77 L 388.92 653.70 L 396.50 644.30 L 404.30 635.51 L 412.33 627.33 L 420.46 619.83 L 428.81 612.88 L 437.37 606.47 L 446.17 600.58 L 455.20 595.19 L 464.48 590.30 L 474.01 585.90 L 483.83 581.99 L 493.93 578.57 L 504.33 575.63 L 515.06 573.18 L 526.13 571.23 L 537.62 569.78 L 549.47 568.86 L 561.72 568.48 L 574.38 568.66 L 587.47 569.43 L 601.03 570.79 L 615.07 572.79 L 629.62 575.43 L 644.70 578.76 L 660.34 582.81 L 676.57 587.61 L 679.27 588.74 L 681.61 590.24 L 683.62 592.11 L 685.29 594.30 L 686.53 596.69 L 687.38 599.31 L 687.76 602.03 L 687.66 604.80 L 687.04 607.67 L 685.91 610.37 L 684.41 612.71 L 682.54 614.72 L 680.35 616.38 L 677.96 617.63 L 675.34 618.47 L 672.62 618.86 L 669.85 618.75 L 666.98 618.14 L 650.85 613.37 L 635.41 609.41 L 620.62 606.22 L 606.47 603.76 L 592.90 602.00 L 579.90 600.89 L 567.43 600.41 L 555.46 600.54 L 543.96 601.24 L 532.91 602.50 L 522.30 604.30 L 512.07 606.63 L 502.18 609.49 L 492.61 612.86 L 483.36 616.76 L 474.39 621.17 L 465.69 626.12 L 457.25 631.60 L 449.06 637.64 L 441.11 644.24 L 433.38 651.44 L 426.45 658.62 L 419.69 666.36 L 413.10 674.68 L 406.68 683.60 L 400.43 693.15 L 394.37 703.37 L 388.48 714.29 L 382.78 725.93 L 377.28 738.35 L 371.98 751.57 L 366.91 765.63 L 365.70 768.30 L 364.15 770.59 L 362.22 772.55 L 359.99 774.16 L 357.57 775.35 L 354.93 776.12 L 352.20 776.44 L 349.43 776.26 L 346.58 775.57 L 343.91 774.36 L 341.61 772.80 L 339.65 770.88 L 338.05 768.65 L 336.86 766.23 L 336.09 763.59 L 335.77 760.86 L 335.95 758.09 L 336.64 755.24 Z" fill="#ed1f2a" fill-rule="nonzero" group-id="1,2,8,16" node-id="208" stroke="none" target-height="207.95502" target-width="351.98965" target-x="335.77206" target-y="568.481"></path></g><path d="M 336.64 755.24 L 342.29 739.67 L 348.22 724.99 L 354.41 711.18 L 360.84 698.18 L 367.51 685.97 L 374.42 674.51 L 381.56 663.77 L 388.92 653.70 L 396.50 644.30 L 404.30 635.51 L 412.33 627.33 L 420.46 619.83 L 428.81 612.88 L 437.37 606.47 L 446.17 600.58 L 455.20 595.19 L 464.48 590.30 L 474.01 585.90 L 483.83 581.99 L 493.93 578.57 L 504.33 575.63 L 515.06 573.18 L 526.13 571.23 L 537.62 569.78 L 549.47 568.86 L 561.72 568.48 L 574.38 568.66 L 587.47 569.43 L 601.03 570.79 L 615.07 572.79 L 629.62 575.43 L 644.70 578.76 L 660.34 582.81 L 676.57 587.61 L 679.27 588.74 L 681.61 590.24 L 683.62 592.11 L 685.29 594.30 L 686.53 596.69 L 687.38 599.31 L 687.76 602.03 L 687.66 604.80 L 687.04 607.67 L 685.91 610.37 L 684.41 612.71 L 682.54 614.72 L 680.35 616.38 L 677.96 617.63 L 675.34 618.47 L 672.62 618.86 L 669.85 618.75 L 666.98 618.14 L 650.85 613.37 L 635.41 609.41 L 620.62 606.22 L 606.47 603.76 L 592.90 602.00 L 579.90 600.89 L 567.43 600.41 L 555.46 600.54 L 543.96 601.24 L 532.91 602.50 L 522.30 604.30 L 512.07 606.63 L 502.18 609.49 L 492.61 612.86 L 483.36 616.76 L 474.39 621.17 L 465.69 626.12 L 457.25 631.60 L 449.06 637.64 L 441.11 644.24 L 433.38 651.44 L 426.45 658.62 L 419.69 666.36 L 413.10 674.68 L 406.68 683.60 L 400.43 693.15 L 394.37 703.37 L 388.48 714.29 L 382.78 725.93 L 377.28 738.35 L 371.98 751.57 L 366.91 765.63 L 365.70 768.30 L 364.15 770.59 L 362.22 772.55 L 359.99 774.16 L 357.57 775.35 L 354.93 776.12 L 352.20 776.44 L 349.43 776.26 L 346.58 775.57 L 343.91 774.36 L 341.61 772.80 L 339.65 770.88 L 338.05 768.65 L 336.86 766.23 L 336.09 763.59 L 335.77 760.86 L 335.95 758.09 L 336.64 755.24 Z" fill="#000000" fill-rule="nonzero" filter="url(#filter-8)" group-id="1,2,8,17" node-id="213" stroke="none" target-height="207.95502" target-width="351.98965" target-x="335.77206" target-y="568.481"></path></g><path d="M 612.46 641.81 L 618.30 640.88 L 623.94 640.54 L 629.41 640.77 L 634.74 641.54 L 639.96 642.86 L 645.09 644.74 L 649.92 647.07 L 654.69 649.93 L 659.39 653.35 L 664.06 657.38 L 668.69 662.06 L 673.29 667.45 L 674.40 669.31 L 674.95 671.29 L 674.98 673.34 L 674.49 675.33 L 673.51 677.13 L 672.01 678.69 L 670.16 679.80 L 668.17 680.35 L 666.13 680.38 L 664.14 679.89 L 662.33 678.91 L 660.77 677.41 L 656.39 672.32 L 652.08 668.08 L 647.82 664.62 L 643.61 661.85 L 639.43 659.72 L 634.91 658.07 L 630.32 657.02 L 625.62 656.56 L 620.77 656.71 L 615.72 657.47 L 613.56 657.62 L 611.54 657.22 L 609.70 656.33 L 608.15 655.00 L 606.98 653.31 L 606.26 651.27 L 606.10 649.11 L 606.50 647.09 L 607.40 645.25 L 608.73 643.70 L 610.42 642.53 L 612.46 641.81 Z" fill="#e89b18" fill-rule="nonzero" group-id="1,2" id="路径-50" node-id="65" stroke="none" target-height="39.836792" target-width="68.87842" target-x="606.1044" target-y="640.54474"></path></g><g node-id="262"><g node-id="268"><g node-id="277"><path d="M 480.00 384.38 L 479.73 393.25 L 478.96 401.87 L 477.72 410.25 L 476.00 418.41 L 473.79 426.51 L 471.17 434.29 L 468.14 441.78 L 464.71 448.99 L 460.83 456.01 L 456.62 462.66 L 452.08 468.95 L 447.20 474.89 L 441.93 480.54 L 436.40 485.75 L 430.61 490.53 L 424.53 494.91 L 418.16 498.87 L 411.59 502.33 L 404.80 505.31 L 397.77 507.81 L 390.60 509.78 L 383.26 511.21 L 375.74 512.07 L 368.00 512.38 L 360.26 512.07 L 352.74 511.21 L 345.40 509.78 L 338.23 507.81 L 331.20 505.31 L 324.41 502.33 L 317.84 498.87 L 311.47 494.91 L 305.39 490.53 L 299.60 485.75 L 294.07 480.54 L 288.80 474.89 L 283.92 468.95 L 279.38 462.66 L 275.17 456.01 L 271.29 448.99 L 267.86 441.78 L 264.83 434.29 L 262.21 426.51 L 260.00 418.41 L 258.28 410.25 L 257.04 401.87 L 256.27 393.25 L 256.00 384.38 L 256.27 375.52 L 257.04 366.90 L 258.28 358.52 L 260.00 350.36 L 262.21 342.26 L 264.83 334.48 L 267.86 326.99 L 271.29 319.78 L 275.17 312.76 L 279.38 306.11 L 283.92 299.82 L 288.80 293.87 L 294.07 288.23 L 299.60 283.02 L 305.39 278.24 L 311.47 273.86 L 317.84 269.90 L 324.41 266.44 L 331.20 263.46 L 338.23 260.96 L 345.40 258.98 L 352.74 257.56 L 360.26 256.69 L 368.00 256.38 L 375.74 256.69 L 383.26 257.56 L 390.60 258.98 L 397.77 260.96 L 404.80 263.46 L 411.59 266.44 L 418.16 269.90 L 424.53 273.86 L 430.61 278.24 L 436.40 283.02 L 441.93 288.23 L 447.20 293.87 L 452.08 299.82 L 456.62 306.11 L 460.83 312.76 L 464.71 319.78 L 468.14 326.99 L 471.17 334.48 L 473.79 342.26 L 476.00 350.36 L 477.72 358.52 L 478.96 366.90 L 479.73 375.52 L 480.00 384.38 Z" fill="#000000" fill-rule="evenodd" filter="url(#filter-11)" group-id="1,3,9,18" node-id="223" stroke="none" target-height="256.00003" target-width="224" target-x="256" target-y="256.38364"></path></g><g node-id="278"><path d="M 480.00 384.38 L 479.73 393.25 L 478.96 401.87 L 477.72 410.25 L 476.00 418.41 L 473.79 426.51 L 471.17 434.29 L 468.14 441.78 L 464.71 448.99 L 460.83 456.01 L 456.62 462.66 L 452.08 468.95 L 447.20 474.89 L 441.93 480.54 L 436.40 485.75 L 430.61 490.53 L 424.53 494.91 L 418.16 498.87 L 411.59 502.33 L 404.80 505.31 L 397.77 507.81 L 390.60 509.78 L 383.26 511.21 L 375.74 512.07 L 368.00 512.38 L 360.26 512.07 L 352.74 511.21 L 345.40 509.78 L 338.23 507.81 L 331.20 505.31 L 324.41 502.33 L 317.84 498.87 L 311.47 494.91 L 305.39 490.53 L 299.60 485.75 L 294.07 480.54 L 288.80 474.89 L 283.92 468.95 L 279.38 462.66 L 275.17 456.01 L 271.29 448.99 L 267.86 441.78 L 264.83 434.29 L 262.21 426.51 L 260.00 418.41 L 258.28 410.25 L 257.04 401.87 L 256.27 393.25 L 256.00 384.38 L 256.27 375.52 L 257.04 366.90 L 258.28 358.52 L 260.00 350.36 L 262.21 342.26 L 264.83 334.48 L 267.86 326.99 L 271.29 319.78 L 275.17 312.76 L 279.38 306.11 L 283.92 299.82 L 288.80 293.87 L 294.07 288.23 L 299.60 283.02 L 305.39 278.24 L 311.47 273.86 L 317.84 269.90 L 324.41 266.44 L 331.20 263.46 L 338.23 260.96 L 345.40 258.98 L 352.74 257.56 L 360.26 256.69 L 368.00 256.38 L 375.74 256.69 L 383.26 257.56 L 390.60 258.98 L 397.77 260.96 L 404.80 263.46 L 411.59 266.44 L 418.16 269.90 L 424.53 273.86 L 430.61 278.24 L 436.40 283.02 L 441.93 288.23 L 447.20 293.87 L 452.08 299.82 L 456.62 306.11 L 460.83 312.76 L 464.71 319.78 L 468.14 326.99 L 471.17 334.48 L 473.79 342.26 L 476.00 350.36 L 477.72 358.52 L 478.96 366.90 L 479.73 375.52 L 480.00 384.38 Z" fill="url(#linearGradient-9)" fill-rule="evenodd" group-id="1,3,9,19" node-id="228" stroke="none" target-height="256.00003" target-width="224" target-x="256" target-y="256.38364"></path></g><path d="M 480.00 384.38 L 479.73 393.25 L 478.96 401.87 L 477.72 410.25 L 476.00 418.41 L 473.79 426.51 L 471.17 434.29 L 468.14 441.78 L 464.71 448.99 L 460.83 456.01 L 456.62 462.66 L 452.08 468.95 L 447.20 474.89 L 441.93 480.54 L 436.40 485.75 L 430.61 490.53 L 424.53 494.91 L 418.16 498.87 L 411.59 502.33 L 404.80 505.31 L 397.77 507.81 L 390.60 509.78 L 383.26 511.21 L 375.74 512.07 L 368.00 512.38 L 360.26 512.07 L 352.74 511.21 L 345.40 509.78 L 338.23 507.81 L 331.20 505.31 L 324.41 502.33 L 317.84 498.87 L 311.47 494.91 L 305.39 490.53 L 299.60 485.75 L 294.07 480.54 L 288.80 474.89 L 283.92 468.95 L 279.38 462.66 L 275.17 456.01 L 271.29 448.99 L 267.86 441.78 L 264.83 434.29 L 262.21 426.51 L 260.00 418.41 L 258.28 410.25 L 257.04 401.87 L 256.27 393.25 L 256.00 384.38 L 256.27 375.52 L 257.04 366.90 L 258.28 358.52 L 260.00 350.36 L 262.21 342.26 L 264.83 334.48 L 267.86 326.99 L 271.29 319.78 L 275.17 312.76 L 279.38 306.11 L 283.92 299.82 L 288.80 293.87 L 294.07 288.23 L 299.60 283.02 L 305.39 278.24 L 311.47 273.86 L 317.84 269.90 L 324.41 266.44 L 331.20 263.46 L 338.23 260.96 L 345.40 258.98 L 352.74 257.56 L 360.26 256.69 L 368.00 256.38 L 375.74 256.69 L 383.26 257.56 L 390.60 258.98 L 397.77 260.96 L 404.80 263.46 L 411.59 266.44 L 418.16 269.90 L 424.53 273.86 L 430.61 278.24 L 436.40 283.02 L 441.93 288.23 L 447.20 293.87 L 452.08 299.82 L 456.62 306.11 L 460.83 312.76 L 464.71 319.78 L 468.14 326.99 L 471.17 334.48 L 473.79 342.26 L 476.00 350.36 L 477.72 358.52 L 478.96 366.90 L 479.73 375.52 L 480.00 384.38 Z" fill="#000000" fill-rule="evenodd" filter="url(#filter-12)" group-id="1,3,9,20" node-id="233" stroke="none" target-height="256.00003" target-width="224" target-x="256" target-y="256.38364"></path></g><g node-id="269"><path d="M 368.00 256.38 L 375.11 256.64 L 382.04 257.38 L 388.81 258.58 L 395.45 260.26 L 401.97 262.38 L 408.30 264.92 L 414.44 267.87 L 420.42 271.24 L 426.17 274.98 L 431.70 279.08 L 437.00 283.55 L 442.10 288.40 L 446.88 293.52 L 451.40 298.95 L 455.65 304.69 L 459.64 310.77 L 459.88 314.20 L 459.96 317.67 L 459.70 323.81 L 458.98 329.73 L 457.81 335.46 L 456.19 341.02 L 454.13 346.46 L 451.70 351.64 L 448.90 356.57 L 445.71 361.29 L 442.17 365.75 L 438.33 369.89 L 434.18 373.73 L 429.72 377.27 L 425.01 380.46 L 420.07 383.27 L 414.89 385.70 L 409.45 387.76 L 403.89 389.37 L 398.16 390.54 L 392.24 391.26 L 386.11 391.52 L 379.98 391.26 L 374.06 390.54 L 368.33 389.37 L 362.77 387.76 L 357.33 385.70 L 352.15 383.27 L 347.21 380.46 L 342.50 377.27 L 338.04 373.73 L 333.89 369.89 L 330.06 365.75 L 326.51 361.29 L 323.33 356.57 L 320.52 351.64 L 318.09 346.46 L 316.03 341.02 L 314.41 335.46 L 313.24 329.73 L 312.52 323.81 L 312.26 317.67 L 312.49 311.92 L 313.13 306.35 L 314.16 300.95 L 315.59 295.70 L 317.41 290.55 L 319.57 285.62 L 322.06 280.89 L 324.89 276.36 L 328.05 272.04 L 331.47 267.99 L 335.18 264.20 L 339.17 260.66 L 346.13 258.82 L 353.23 257.49 L 360.52 256.67 L 368.00 256.38 Z" fill="#930027" fill-rule="evenodd" group-id="1,3,10" id="形状结合" node-id="72" stroke="none" target-height="135.1373" target-width="147.69229" target-x="312.26492" target-y="256.38364"></path><path d="M 386.11 354.60 L 389.94 354.39 L 393.60 353.84 L 397.11 352.94 L 400.48 351.70 L 404.77 349.54 L 408.67 346.91 L 412.22 343.78 L 415.35 340.23 L 417.98 336.33 L 420.13 332.05 L 421.37 328.67 L 422.27 325.17 L 422.83 321.51 L 423.03 317.67 L 422.83 313.84 L 422.27 310.18 L 421.37 306.68 L 420.13 303.30 L 417.98 299.02 L 415.35 295.12 L 412.22 291.57 L 408.67 288.44 L 404.77 285.81 L 400.48 283.65 L 397.11 282.41 L 393.60 281.51 L 389.94 280.96 L 386.11 280.75 L 382.28 280.96 L 378.62 281.51 L 375.11 282.41 L 371.74 283.65 L 367.45 285.81 L 363.55 288.44 L 360.00 291.57 L 356.88 295.12 L 354.25 299.02 L 352.09 303.30 L 350.85 306.68 L 349.95 310.18 L 349.39 313.84 L 349.19 317.67 L 349.39 321.51 L 349.95 325.17 L 350.85 328.67 L 352.09 332.05 L 354.25 336.33 L 356.88 340.23 L 360.00 343.78 L 363.55 346.91 L 367.45 349.54 L 371.74 351.70 L 375.11 352.94 L 378.62 353.84 L 382.28 354.39 L 386.11 354.60 Z" fill="#301502" fill-rule="evenodd" group-id="1,3,10" id="椭圆形" node-id="73" stroke="none" target-height="73.84616" target-width="73.84616" target-x="349.188" target-y="280.7517"></path><path d="M 410.11 317.67 L 413.41 317.45 L 416.51 316.82 L 419.45 315.79 L 422.24 314.39 L 424.77 312.68 L 427.08 310.65 L 429.11 308.34 L 430.82 305.80 L 432.23 303.02 L 433.25 300.07 L 433.88 296.97 L 434.11 293.67 L 433.88 290.38 L 433.25 287.27 L 432.23 284.33 L 430.82 281.55 L 429.11 279.01 L 427.08 276.70 L 424.77 274.67 L 422.24 272.96 L 419.45 271.56 L 416.51 270.53 L 413.41 269.90 L 410.11 269.67 L 406.81 269.90 L 403.71 270.53 L 400.77 271.56 L 397.98 272.96 L 395.45 274.67 L 393.14 276.70 L 391.11 279.01 L 389.40 281.55 L 388.00 284.33 L 386.97 287.27 L 386.34 290.38 L 386.11 293.67 L 386.34 296.97 L 386.97 300.07 L 388.00 303.02 L 389.40 305.80 L 391.11 308.34 L 393.14 310.65 L 395.45 312.68 L 397.98 314.39 L 400.77 315.79 L 403.71 316.82 L 406.81 317.45 L 410.11 317.67 Z" fill="#ffffff" fill-rule="evenodd" group-id="1,3,10" id="椭圆形" node-id="74" stroke="none" target-height="48" target-width="48" target-x="386.11108" target-y="269.67477"></path><path d="M 363.03 363.83 L 365.56 363.59 L 367.88 362.96 L 370.02 361.94 L 371.97 360.56 L 373.61 358.91 L 374.99 356.97 L 376.01 354.83 L 376.64 352.51 L 376.88 349.98 L 376.64 347.46 L 376.01 345.14 L 374.99 342.99 L 373.61 341.05 L 371.97 339.40 L 370.02 338.03 L 367.88 337.00 L 365.56 336.37 L 363.03 336.14 L 360.51 336.37 L 358.19 337.00 L 356.05 338.03 L 354.10 339.40 L 352.45 341.05 L 351.08 342.99 L 350.05 345.14 L 349.42 347.46 L 349.19 349.98 L 349.42 352.51 L 350.05 354.83 L 351.08 356.97 L 352.45 358.91 L 354.10 360.56 L 356.05 361.94 L 358.19 362.96 L 360.51 363.59 L 363.03 363.83 Z" fill="#ffffff" fill-rule="evenodd" group-id="1,3,10" id="椭圆形备份-5" node-id="75" stroke="none" target-height="27.692291" target-width="27.692322" target-x="349.188" target-y="336.13632"></path></g></g><g node-id="263"><g node-id="270"><g node-id="280"><path d="M 768.00 384.38 L 767.73 393.25 L 766.96 401.87 L 765.72 410.25 L 764.00 418.41 L 761.79 426.51 L 759.17 434.29 L 756.14 441.78 L 752.71 448.99 L 748.83 456.01 L 744.62 462.66 L 740.08 468.95 L 735.20 474.89 L 729.93 480.54 L 724.40 485.75 L 718.61 490.53 L 712.53 494.91 L 706.16 498.87 L 699.59 502.33 L 692.80 505.31 L 685.77 507.81 L 678.60 509.78 L 671.26 511.21 L 663.74 512.07 L 656.00 512.38 L 648.26 512.07 L 640.74 511.21 L 633.40 509.78 L 626.23 507.81 L 619.20 505.31 L 612.41 502.33 L 605.84 498.87 L 599.47 494.91 L 593.39 490.53 L 587.60 485.75 L 582.07 480.54 L 576.80 474.89 L 571.92 468.95 L 567.38 462.66 L 563.17 456.01 L 559.29 448.99 L 555.86 441.78 L 552.83 434.29 L 550.21 426.51 L 548.00 418.41 L 546.28 410.25 L 545.04 401.87 L 544.27 393.25 L 544.00 384.38 L 544.27 375.52 L 545.04 366.90 L 546.28 358.52 L 548.00 350.36 L 550.21 342.26 L 552.83 334.48 L 555.86 326.99 L 559.29 319.78 L 563.17 312.76 L 567.38 306.11 L 571.92 299.82 L 576.80 293.87 L 582.07 288.23 L 587.60 283.02 L 593.39 278.24 L 599.47 273.86 L 605.84 269.90 L 612.41 266.44 L 619.20 263.46 L 626.23 260.96 L 633.40 258.98 L 640.74 257.56 L 648.26 256.69 L 656.00 256.38 L 663.74 256.69 L 671.26 257.56 L 678.60 258.98 L 685.77 260.96 L 692.80 263.46 L 699.59 266.44 L 706.16 269.90 L 712.53 273.86 L 718.61 278.24 L 724.40 283.02 L 729.93 288.23 L 735.20 293.87 L 740.08 299.82 L 744.62 306.11 L 748.83 312.76 L 752.71 319.78 L 756.14 326.99 L 759.17 334.48 L 761.79 342.26 L 764.00 350.36 L 765.72 358.52 L 766.96 366.90 L 767.73 375.52 L 768.00 384.38 Z" fill="#000000" fill-rule="evenodd" filter="url(#filter-14)" group-id="1,4,11,21" node-id="248" stroke="none" target-height="256.00003" target-width="224" target-x="544" target-y="256.38364"></path></g><g node-id="281"><path d="M 768.00 384.38 L 767.73 393.25 L 766.96 401.87 L 765.72 410.25 L 764.00 418.41 L 761.79 426.51 L 759.17 434.29 L 756.14 441.78 L 752.71 448.99 L 748.83 456.01 L 744.62 462.66 L 740.08 468.95 L 735.20 474.89 L 729.93 480.54 L 724.40 485.75 L 718.61 490.53 L 712.53 494.91 L 706.16 498.87 L 699.59 502.33 L 692.80 505.31 L 685.77 507.81 L 678.60 509.78 L 671.26 511.21 L 663.74 512.07 L 656.00 512.38 L 648.26 512.07 L 640.74 511.21 L 633.40 509.78 L 626.23 507.81 L 619.20 505.31 L 612.41 502.33 L 605.84 498.87 L 599.47 494.91 L 593.39 490.53 L 587.60 485.75 L 582.07 480.54 L 576.80 474.89 L 571.92 468.95 L 567.38 462.66 L 563.17 456.01 L 559.29 448.99 L 555.86 441.78 L 552.83 434.29 L 550.21 426.51 L 548.00 418.41 L 546.28 410.25 L 545.04 401.87 L 544.27 393.25 L 544.00 384.38 L 544.27 375.52 L 545.04 366.90 L 546.28 358.52 L 548.00 350.36 L 550.21 342.26 L 552.83 334.48 L 555.86 326.99 L 559.29 319.78 L 563.17 312.76 L 567.38 306.11 L 571.92 299.82 L 576.80 293.87 L 582.07 288.23 L 587.60 283.02 L 593.39 278.24 L 599.47 273.86 L 605.84 269.90 L 612.41 266.44 L 619.20 263.46 L 626.23 260.96 L 633.40 258.98 L 640.74 257.56 L 648.26 256.69 L 656.00 256.38 L 663.74 256.69 L 671.26 257.56 L 678.60 258.98 L 685.77 260.96 L 692.80 263.46 L 699.59 266.44 L 706.16 269.90 L 712.53 273.86 L 718.61 278.24 L 724.40 283.02 L 729.93 288.23 L 735.20 293.87 L 740.08 299.82 L 744.62 306.11 L 748.83 312.76 L 752.71 319.78 L 756.14 326.99 L 759.17 334.48 L 761.79 342.26 L 764.00 350.36 L 765.72 358.52 L 766.96 366.90 L 767.73 375.52 L 768.00 384.38 Z" fill="url(#linearGradient-9)" fill-rule="evenodd" group-id="1,4,11,22" node-id="253" stroke="none" target-height="256.00003" target-width="224" target-x="544" target-y="256.38364"></path></g><path d="M 768.00 384.38 L 767.73 393.25 L 766.96 401.87 L 765.72 410.25 L 764.00 418.41 L 761.79 426.51 L 759.17 434.29 L 756.14 441.78 L 752.71 448.99 L 748.83 456.01 L 744.62 462.66 L 740.08 468.95 L 735.20 474.89 L 729.93 480.54 L 724.40 485.75 L 718.61 490.53 L 712.53 494.91 L 706.16 498.87 L 699.59 502.33 L 692.80 505.31 L 685.77 507.81 L 678.60 509.78 L 671.26 511.21 L 663.74 512.07 L 656.00 512.38 L 648.26 512.07 L 640.74 511.21 L 633.40 509.78 L 626.23 507.81 L 619.20 505.31 L 612.41 502.33 L 605.84 498.87 L 599.47 494.91 L 593.39 490.53 L 587.60 485.75 L 582.07 480.54 L 576.80 474.89 L 571.92 468.95 L 567.38 462.66 L 563.17 456.01 L 559.29 448.99 L 555.86 441.78 L 552.83 434.29 L 550.21 426.51 L 548.00 418.41 L 546.28 410.25 L 545.04 401.87 L 544.27 393.25 L 544.00 384.38 L 544.27 375.52 L 545.04 366.90 L 546.28 358.52 L 548.00 350.36 L 550.21 342.26 L 552.83 334.48 L 555.86 326.99 L 559.29 319.78 L 563.17 312.76 L 567.38 306.11 L 571.92 299.82 L 576.80 293.87 L 582.07 288.23 L 587.60 283.02 L 593.39 278.24 L 599.47 273.86 L 605.84 269.90 L 612.41 266.44 L 619.20 263.46 L 626.23 260.96 L 633.40 258.98 L 640.74 257.56 L 648.26 256.69 L 656.00 256.38 L 663.74 256.69 L 671.26 257.56 L 678.60 258.98 L 685.77 260.96 L 692.80 263.46 L 699.59 266.44 L 706.16 269.90 L 712.53 273.86 L 718.61 278.24 L 724.40 283.02 L 729.93 288.23 L 735.20 293.87 L 740.08 299.82 L 744.62 306.11 L 748.83 312.76 L 752.71 319.78 L 756.14 326.99 L 759.17 334.48 L 761.79 342.26 L 764.00 350.36 L 765.72 358.52 L 766.96 366.90 L 767.73 375.52 L 768.00 384.38 Z" fill="#000000" fill-rule="evenodd" filter="url(#filter-15)" group-id="1,4,11,23" node-id="258" stroke="none" target-height="256.00003" target-width="224" target-x="544" target-y="256.38364"></path></g><g node-id="271"><path d="M 656.00 256.38 L 663.11 256.64 L 670.04 257.38 L 676.81 258.58 L 683.45 260.26 L 689.97 262.38 L 696.30 264.92 L 702.44 267.87 L 708.42 271.24 L 714.17 274.98 L 719.70 279.08 L 725.00 283.55 L 730.10 288.40 L 734.88 293.52 L 739.40 298.95 L 743.65 304.69 L 747.64 310.77 L 747.88 314.20 L 747.96 317.67 L 747.70 323.81 L 746.98 329.73 L 745.81 335.46 L 744.19 341.02 L 742.13 346.46 L 739.70 351.64 L 736.90 356.57 L 733.71 361.29 L 730.17 365.75 L 726.33 369.89 L 722.18 373.73 L 717.72 377.27 L 713.01 380.46 L 708.07 383.27 L 702.89 385.70 L 697.45 387.76 L 691.89 389.37 L 686.16 390.54 L 680.24 391.26 L 674.11 391.52 L 667.98 391.26 L 662.06 390.54 L 656.33 389.37 L 650.77 387.76 L 645.33 385.70 L 640.15 383.27 L 635.21 380.46 L 630.50 377.27 L 626.04 373.73 L 621.89 369.89 L 618.06 365.75 L 614.51 361.29 L 611.33 356.57 L 608.52 351.64 L 606.09 346.46 L 604.03 341.02 L 602.41 335.46 L 601.24 329.73 L 600.52 323.81 L 600.26 317.67 L 600.49 311.92 L 601.13 306.35 L 602.16 300.95 L 603.59 295.70 L 605.41 290.55 L 607.57 285.62 L 610.06 280.89 L 612.89 276.36 L 616.05 272.04 L 619.47 267.99 L 623.18 264.20 L 627.17 260.66 L 634.13 258.82 L 641.23 257.49 L 648.52 256.67 L 656.00 256.38 Z" fill="#930027" fill-rule="evenodd" group-id="1,4,12" id="形状结合" node-id="82" stroke="none" target-height="135.1373" target-width="147.69232" target-x="600.26495" target-y="256.38364"></path><path d="M 674.11 354.60 L 677.94 354.39 L 681.60 353.84 L 685.11 352.94 L 688.48 351.70 L 692.77 349.54 L 696.67 346.91 L 700.22 343.78 L 703.35 340.23 L 705.98 336.33 L 708.13 332.05 L 709.37 328.67 L 710.27 325.17 L 710.83 321.51 L 711.03 317.67 L 710.83 313.84 L 710.27 310.18 L 709.37 306.68 L 708.13 303.30 L 705.98 299.02 L 703.35 295.12 L 700.22 291.57 L 696.67 288.44 L 692.77 285.81 L 688.48 283.65 L 685.11 282.41 L 681.60 281.51 L 677.94 280.96 L 674.11 280.75 L 670.28 280.96 L 666.62 281.51 L 663.11 282.41 L 659.74 283.65 L 655.45 285.81 L 651.55 288.44 L 648.00 291.57 L 644.88 295.12 L 642.25 299.02 L 640.09 303.30 L 638.85 306.68 L 637.95 310.18 L 637.39 313.84 L 637.19 317.67 L 637.39 321.51 L 637.95 325.17 L 638.85 328.67 L 640.09 332.05 L 642.25 336.33 L 644.88 340.23 L 648.00 343.78 L 651.55 346.91 L 655.45 349.54 L 659.74 351.70 L 663.11 352.94 L 666.62 353.84 L 670.28 354.39 L 674.11 354.60 Z" fill="#301502" fill-rule="evenodd" group-id="1,4,12" id="椭圆形" node-id="83" stroke="none" target-height="73.84616" target-width="73.84613" target-x="637.18805" target-y="280.7517"></path><path d="M 698.11 317.67 L 701.41 317.45 L 704.51 316.82 L 707.45 315.79 L 710.24 314.39 L 712.77 312.68 L 715.08 310.65 L 717.11 308.34 L 718.82 305.80 L 720.23 303.02 L 721.25 300.07 L 721.88 296.97 L 722.11 293.67 L 721.88 290.38 L 721.25 287.27 L 720.23 284.33 L 718.82 281.55 L 717.11 279.01 L 715.08 276.70 L 712.77 274.67 L 710.24 272.96 L 707.45 271.56 L 704.51 270.53 L 701.41 269.90 L 698.11 269.67 L 694.81 269.90 L 691.71 270.53 L 688.77 271.56 L 685.98 272.96 L 683.45 274.67 L 681.14 276.70 L 679.11 279.01 L 677.40 281.55 L 676.00 284.33 L 674.97 287.27 L 674.34 290.38 L 674.11 293.67 L 674.34 296.97 L 674.97 300.07 L 676.00 303.02 L 677.40 305.80 L 679.11 308.34 L 681.14 310.65 L 683.45 312.68 L 685.98 314.39 L 688.77 315.79 L 691.71 316.82 L 694.81 317.45 L 698.11 317.67 Z" fill="#ffffff" fill-rule="evenodd" group-id="1,4,12" id="椭圆形" node-id="84" stroke="none" target-height="48" target-width="48" target-x="674.1111" target-y="269.67477"></path><path d="M 651.03 363.83 L 653.56 363.59 L 655.88 362.96 L 658.02 361.94 L 659.97 360.56 L 661.61 358.91 L 662.99 356.97 L 664.01 354.83 L 664.64 352.51 L 664.88 349.98 L 664.64 347.46 L 664.01 345.14 L 662.99 342.99 L 661.61 341.05 L 659.97 339.40 L 658.02 338.03 L 655.88 337.00 L 653.56 336.37 L 651.03 336.14 L 648.51 336.37 L 646.19 337.00 L 644.05 338.03 L 642.10 339.40 L 640.45 341.05 L 639.08 342.99 L 638.05 345.14 L 637.42 347.46 L 637.19 349.98 L 637.42 352.51 L 638.05 354.83 L 639.08 356.97 L 640.45 358.91 L 642.10 360.56 L 644.05 361.94 L 646.19 362.96 L 648.51 363.59 L 651.03 363.83 Z" fill="#ffffff" fill-rule="evenodd" group-id="1,4,12" id="椭圆形备份-5" node-id="85" stroke="none" target-height="27.692291" target-width="27.692322" target-x="637.18805" target-y="336.13632"></path></g></g></g></svg>