<svg xmlns:xlink="http://www.w3.org/1999/xlink" xmlns="http://www.w3.org/2000/svg" version="1.1" viewBox="0 0 1024 1024" height="1024px" width="1024px">
    <title>惊讶</title>
    <defs>
        <radialGradient id="radialGradient-1" gradientTransform="translate(0.500000,0.196690),scale(0.912281,1.000000),rotate(90.000000),translate(-0.500000,-0.196690)" r="93.9392347%" fy="19.6689915%" fx="50%" cy="19.6689915%" cx="50%">
            <stop offset="0%" stop-color="#FFE476"></stop>
            <stop offset="41.3872668%" stop-color="#FCEC6C"></stop>
            <stop offset="100%" stop-color="#FFB02F"></stop>
        </radialGradient>
        <path id="path-2" d="M486.860526,96.3786953 C606.065472,90.6333681 708.761001,150.678756 758.047405,248.068162 C890.943351,307.197291 998.794668,448.582382 971.841115,605.747769 C951.627441,723.613119 887.200132,809.730518 792.885037,862.375369 C746.431467,892.437155 680.2001,913.754861 581.849854,923.528265 C302.3427,951.303857 80.9816436,850.504609 64.8216209,598.216832 C56.8540009,473.82758 107.422588,389.954402 190.973967,336.88301 C221.596783,181.870433 333.83599,103.754027 486.860526,96.3786953 Z"></path>
        <filter id="filter-3" filterUnits="objectBoundingBox" height="117.3%" width="115.8%" y="-8.7%" x="-7.9%">
            <feGaussianBlur result="shadowBlurInner1" in="SourceAlpha" stdDeviation="64"></feGaussianBlur>
            <feOffset result="shadowOffsetInner1" in="shadowBlurInner1" dy="16" dx="0"></feOffset>
            <feComposite result="shadowInnerInner1" k3="1" k2="-1" operator="arithmetic" in2="SourceAlpha" in="shadowOffsetInner1"></feComposite>
            <feColorMatrix in="shadowInnerInner1" type="matrix" values="0 0 0 0 0.968627451   0 0 0 0 0.68627451   0 0 0 0 0.270588235  0 0 0 0.501145583 0"></feColorMatrix>
        </filter>
        <filter id="filter-4" filterUnits="objectBoundingBox" height="280.0%" width="263.6%" y="-90.0%" x="-81.8%">
            <feGaussianBlur in="SourceGraphic" stdDeviation="48"></feGaussianBlur>
        </filter>
        <filter id="filter-5" filterUnits="objectBoundingBox" height="280.0%" width="263.6%" y="-90.0%" x="-81.8%">
            <feGaussianBlur in="SourceGraphic" stdDeviation="48"></feGaussianBlur>
        </filter>
        <path id="path-6" d="M31.7905257,28.1671983 C31.7905257,112.579683 13.7639318,154.57912 1.19479561,216.279703 C-11.3743405,277.980286 78.637369,323.491696 111.155991,242.241469 C132.835073,188.07465 123.371646,116.71656 82.76571,28.1671983 C74.1256571,9.38906609 64.8010252,0 54.7918145,0 C46.2560233,0 31.7905257,6.60492993 31.7905257,28.1671983 Z"></path>
        <filter id="filter-7" filterUnits="objectBoundingBox" height="144.8%" width="204.5%" y="-11.2%" x="-52.3%">
            <feOffset result="shadowOffsetOuter1" in="SourceAlpha" dy="32" dx="0"></feOffset>
            <feGaussianBlur result="shadowBlurOuter1" in="shadowOffsetOuter1" stdDeviation="16"></feGaussianBlur>
            <feColorMatrix in="shadowBlurOuter1" type="matrix" values="0 0 0 0 0.992130003   0 0 0 0 0.908224634   0 0 0 0 0.72790426  0 0 0 0.5 0"></feColorMatrix>
        </filter>
        <filter id="filter-8" filterUnits="objectBoundingBox" height="128.0%" width="165.3%" y="-2.8%" x="-32.7%">
            <feGaussianBlur result="shadowBlurInner1" in="SourceAlpha" stdDeviation="8"></feGaussianBlur>
            <feOffset result="shadowOffsetInner1" in="shadowBlurInner1" dy="0" dx="0"></feOffset>
            <feComposite result="shadowInnerInner1" k3="1" k2="-1" operator="arithmetic" in2="SourceAlpha" in="shadowOffsetInner1"></feComposite>
            <feColorMatrix in="shadowInnerInner1" type="matrix" values="0 0 0 0 0.661258421   0 0 0 0 0.0872254633   0 0 0 0 0.00982776113  0 0 0 1 0"></feColorMatrix>
        </filter>
        <linearGradient id="linearGradient-9" y2="100%" x2="50%" y1="11.8625297%" x1="50%">
            <stop offset="0%" stop-color="#FF8B9F"></stop>
            <stop offset="100%" stop-color="#FF5166"></stop>
        </linearGradient>
        <path id="path-10" d="M118.571562,137.108967 C125.231619,178.204406 122.759762,213.248573 111.155991,242.241469 C85.0396184,307.495194 21.8400564,290.987337 4.47797186,249.996071 C13.8092653,187.998419 60.160175,140.311172 116.836027,137.185584 Z"></path>
        <path id="path-11" d="M31.7905257,28.1671983 C31.7905257,112.579683 13.7639318,154.57912 1.19479561,216.279703 C-11.3743405,277.980286 78.637369,323.491696 111.155991,242.241469 C132.835073,188.07465 123.371646,116.71656 82.76571,28.1671983 C74.1256571,9.38906609 64.8010252,0 54.7918145,0 C46.2560233,0 31.7905257,6.60492993 31.7905257,28.1671983 Z"></path>
        <filter id="filter-12" filterUnits="objectBoundingBox" height="105.6%" width="113.1%" y="-2.8%" x="-6.5%">
            <feGaussianBlur result="shadowBlurInner1" in="SourceAlpha" stdDeviation="8"></feGaussianBlur>
            <feOffset result="shadowOffsetInner1" in="shadowBlurInner1" dy="0" dx="0"></feOffset>
            <feComposite result="shadowInnerInner1" k3="1" k2="-1" operator="arithmetic" in2="SourceAlpha" in="shadowOffsetInner1"></feComposite>
            <feColorMatrix in="shadowInnerInner1" type="matrix" values="0 0 0 0 0.661258421   0 0 0 0 0.0872254633   0 0 0 0 0.00982776113  0 0 0 1 0"></feColorMatrix>
        </filter>
        <linearGradient id="linearGradient-13" y2="100%" x2="50%" y1="0%" x1="50%">
            <stop offset="0%" stop-color="#FFFFFF"></stop>
            <stop offset="100%" stop-color="#FFEDBE"></stop>
        </linearGradient>
        <circle r="120" cy="120" cx="120" id="path-14"></circle>
        <filter id="filter-15" filterUnits="objectBoundingBox" height="180.0%" width="180.0%" y="-40.0%" x="-40.0%">
            <feOffset result="shadowOffsetOuter1" in="SourceAlpha" dy="0" dx="0"></feOffset>
            <feGaussianBlur result="shadowBlurOuter1" in="shadowOffsetOuter1" stdDeviation="32"></feGaussianBlur>
            <feColorMatrix in="shadowBlurOuter1" type="matrix" values="0 0 0 0 0.888848346   0 0 0 0 0.591702642   0 0 0 0 0.178785883  0 0 0 1 0"></feColorMatrix>
        </filter>
        <filter id="filter-16" filterUnits="objectBoundingBox" height="166.7%" width="166.7%" y="-33.3%" x="-33.3%">
            <feGaussianBlur result="shadowBlurInner1" in="SourceAlpha" stdDeviation="16"></feGaussianBlur>
            <feOffset result="shadowOffsetInner1" in="shadowBlurInner1" dy="0" dx="0"></feOffset>
            <feComposite result="shadowInnerInner1" k3="1" k2="-1" operator="arithmetic" in2="SourceAlpha" in="shadowOffsetInner1"></feComposite>
            <feColorMatrix in="shadowInnerInner1" type="matrix" values="0 0 0 0 1   0 0 0 0 0.880587925   0 0 0 0 0.537254902  0 0 0 0.500726446 0"></feColorMatrix>
        </filter>
        <circle r="56" cy="88" cx="152" id="path-17"></circle>
        <filter id="filter-18" filterUnits="objectBoundingBox" height="128.6%" width="128.6%" y="-14.3%" x="-14.3%">
            <feGaussianBlur result="shadowBlurInner1" in="SourceAlpha" stdDeviation="16"></feGaussianBlur>
            <feOffset result="shadowOffsetInner1" in="shadowBlurInner1" dy="0" dx="0"></feOffset>
            <feComposite result="shadowInnerInner1" k3="1" k2="-1" operator="arithmetic" in2="SourceAlpha" in="shadowOffsetInner1"></feComposite>
            <feColorMatrix in="shadowInnerInner1" type="matrix" values="0 0 0 0 0.322660142   0 0 0 0 0   0 0 0 0 0.0976114716  0 0 0 1 0"></feColorMatrix>
        </filter>
        <circle r="120" cy="120" cx="120" id="path-19"></circle>
        <filter id="filter-20" filterUnits="objectBoundingBox" height="180.0%" width="180.0%" y="-40.0%" x="-40.0%">
            <feOffset result="shadowOffsetOuter1" in="SourceAlpha" dy="0" dx="0"></feOffset>
            <feGaussianBlur result="shadowBlurOuter1" in="shadowOffsetOuter1" stdDeviation="32"></feGaussianBlur>
            <feColorMatrix in="shadowBlurOuter1" type="matrix" values="0 0 0 0 0.888848346   0 0 0 0 0.591702642   0 0 0 0 0.178785883  0 0 0 1 0"></feColorMatrix>
        </filter>
        <filter id="filter-21" filterUnits="objectBoundingBox" height="166.7%" width="166.7%" y="-33.3%" x="-33.3%">
            <feGaussianBlur result="shadowBlurInner1" in="SourceAlpha" stdDeviation="16"></feGaussianBlur>
            <feOffset result="shadowOffsetInner1" in="shadowBlurInner1" dy="0" dx="0"></feOffset>
            <feComposite result="shadowInnerInner1" k3="1" k2="-1" operator="arithmetic" in2="SourceAlpha" in="shadowOffsetInner1"></feComposite>
            <feColorMatrix in="shadowInnerInner1" type="matrix" values="0 0 0 0 1   0 0 0 0 0.880587925   0 0 0 0 0.537254902  0 0 0 0.500726446 0"></feColorMatrix>
        </filter>
        <circle r="56" cy="88" cx="152" id="path-22"></circle>
        <filter id="filter-23" filterUnits="objectBoundingBox" height="128.6%" width="128.6%" y="-14.3%" x="-14.3%">
            <feGaussianBlur result="shadowBlurInner1" in="SourceAlpha" stdDeviation="16"></feGaussianBlur>
            <feOffset result="shadowOffsetInner1" in="shadowBlurInner1" dy="0" dx="0"></feOffset>
            <feComposite result="shadowInnerInner1" k3="1" k2="-1" operator="arithmetic" in2="SourceAlpha" in="shadowOffsetInner1"></feComposite>
            <feColorMatrix in="shadowInnerInner1" type="matrix" values="0 0 0 0 0.322660142   0 0 0 0 0   0 0 0 0 0.0976114716  0 0 0 1 0"></feColorMatrix>
        </filter>
    </defs>
    <g fill-rule="evenodd" fill="none" stroke-width="1" stroke="none" id="上传尺寸">
        <g transform="translate(-0.000000, 0.000000)" id="惊讶">
            <g id="默认">
                <rect height="1024" width="1024" y="0" x="0" id="矩形备份-4"></rect>
                <g id="形状结合">
                    <use xlink:href="#path-2" fill-rule="evenodd" fill="url(#radialGradient-1)"></use>
                    <use xlink:href="#path-2" filter="url(#filter-3)" fill-opacity="1" fill="black"></use>
                </g>
                <ellipse ry="80" rx="88" cy="584" cx="760" filter="url(#filter-4)" fill="#FF5EA4" fill-opacity="0.8" id="椭圆形"></ellipse>
                <ellipse ry="80" rx="88" cy="584" cx="280" filter="url(#filter-5)" fill="#FF5EA4" fill-opacity="0.8" id="椭圆形备份-6"></ellipse>
                <g transform="translate(445.234290, 582.977557)" id="编组-15">
                    <g id="路径-34">
                        <use xlink:href="#path-6" filter="url(#filter-7)" fill-opacity="1" fill="black"></use>
                        <use xlink:href="#path-6" fill-rule="evenodd" fill="#ED1F2A"></use>
                        <use xlink:href="#path-6" filter="url(#filter-8)" fill-opacity="1" fill="black"></use>
                    </g>
                    <g id="形状结合">
                        <use xlink:href="#path-10" fill="#FF556F"></use>
                        <use xlink:href="#path-10" fill="url(#linearGradient-9)"></use>
                    </g>
                    <g fill-opacity="1" fill="black" id="路径-34">
                        <use xlink:href="#path-11" filter="url(#filter-12)"></use>
                    </g>
                </g>
            </g>
            <g transform="translate(224.000000, 352.383633)" id="编组-2备份-2">
                <g id="椭圆形">
                    <use xlink:href="#path-14" filter="url(#filter-15)" fill-opacity="1" fill="black"></use>
                    <use xlink:href="#path-14" fill-rule="evenodd" fill="url(#linearGradient-13)"></use>
                    <use xlink:href="#path-14" filter="url(#filter-16)" fill-opacity="1" fill="black"></use>
                </g>
                <g id="椭圆形">
                    <use xlink:href="#path-17" fill-rule="evenodd" fill="#930027"></use>
                    <use xlink:href="#path-17" filter="url(#filter-18)" fill-opacity="1" fill="black"></use>
                </g>
                <circle r="32" cy="96" cx="160" fill="#301502" id="椭圆形"></circle>
                <circle r="16" cy="64" cx="176" fill="#FFFFFF" id="椭圆形"></circle>
                <circle r="8" cy="104" cx="136" fill="#FFFFFF" id="椭圆形备份-5"></circle>
            </g>
            <g transform="translate(528.000000, 352.383633)" id="编组-2备份-8">
                <g id="椭圆形">
                    <use xlink:href="#path-19" filter="url(#filter-20)" fill-opacity="1" fill="black"></use>
                    <use xlink:href="#path-19" fill-rule="evenodd" fill="url(#linearGradient-13)"></use>
                    <use xlink:href="#path-19" filter="url(#filter-21)" fill-opacity="1" fill="black"></use>
                </g>
                <g id="椭圆形">
                    <use xlink:href="#path-22" fill-rule="evenodd" fill="#930027"></use>
                    <use xlink:href="#path-22" filter="url(#filter-23)" fill-opacity="1" fill="black"></use>
                </g>
                <circle r="32" cy="96" cx="160" fill="#301502" id="椭圆形"></circle>
                <circle r="16" cy="64" cx="176" fill="#FFFFFF" id="椭圆形"></circle>
                <circle r="8" cy="104" cx="136" fill="#FFFFFF" id="椭圆形备份-5"></circle>
            </g>
            <path fill-rule="nonzero" fill="#804808" id="路径-25备份" d="M800,192 C808.284271,192 815.098034,198.521779 815.917394,206.879209 L816,208.573782 L816,335.426218 C816,344.579665 808.836556,352 800,352 C791.715729,352 784.901966,345.478221 784.082606,337.120791 L784,335.426218 L784,208.573782 C784,199.420335 791.163444,192 800,192 Z M864,192 C872.284271,192 879.098034,198.460002 879.917394,206.738266 L880,208.416788 L880,399.583212 C880,408.649954 872.836556,416 864,416 C855.715729,416 848.901966,409.539998 848.082606,401.261734 L848,399.583212 L848,208.416788 C848,199.350046 855.163444,192 864,192 Z M928,192 C936.284271,192 943.098034,198.539133 943.917394,206.918801 L944,208.617883 L944,495.382117 C944,504.55992 936.836556,512 928,512 C919.715729,512 912.901966,505.460867 912.082606,497.081199 L912,495.382117 L912,208.617883 C912,199.44008 919.163444,192 928,192 Z"></path>
            <path fill-rule="nonzero" fill="#A05400" id="路径-32" d="M272.996829,254.750771 C275.847793,247.056607 283.98934,242.861276 291.772126,244.759429 L293.559214,245.306813 L424.428448,293.798563 C432.71447,296.868831 436.942674,306.074925 433.872405,314.360947 C431.021441,322.055111 422.879894,326.250441 415.097108,324.352289 L413.310021,323.804905 L282.440786,275.313155 C274.154764,272.242886 269.92656,263.036793 272.996829,254.750771 Z"></path>
            <path fill-rule="nonzero" fill="#A05400" id="路径-33" d="M672.436874,221.725604 C680.223876,217.548605 689.922615,220.47509 694.099614,228.262092 C697.978256,235.49288 695.731955,244.372053 689.156557,248.947954 L687.563126,249.924833 L551.516118,322.901348 C543.729116,327.078347 534.030377,324.151862 529.853377,316.36486 C525.974735,309.134073 528.221036,300.254899 534.796435,295.678998 L536.389865,294.70212 L672.436874,221.725604 Z"></path>
        </g>
    </g>
</svg>