<svg xmlns:xlink="http://www.w3.org/1999/xlink" xmlns="http://www.w3.org/2000/svg" version="1.1" viewBox="0 0 1024 1024" height="1024px" width="1024px">
    <title>白眼</title>
    <defs>
        <radialGradient id="radialGradient-1" gradientTransform="translate(0.500000,0.196690),scale(0.912281,1.000000),rotate(90.000000),translate(-0.500000,-0.196690)" r="93.9392347%" fy="19.6689915%" fx="50%" cy="19.6689915%" cx="50%">
            <stop offset="0%" stop-color="#FFE476"></stop>
            <stop offset="41.3872668%" stop-color="#FCEC6C"></stop>
            <stop offset="100%" stop-color="#FFB02F"></stop>
        </radialGradient>
        <path id="path-2" d="M422.860526,0.378695283 C542.065472,-5.36663195 644.761001,54.6787561 694.047405,152.068162 C826.943351,211.197291 934.794668,352.582382 907.841115,509.747769 C887.627441,627.613119 823.200132,713.730518 728.885037,766.375369 C682.431467,796.437155 616.2001,817.754861 517.849854,827.528265 C238.3427,855.303857 16.9816436,754.504609 0.821620894,502.216832 C-7.14599909,377.82758 43.4225884,293.954402 126.973967,240.88301 C157.596783,85.8704329 269.83599,7.75402708 422.860526,0.378695283 Z"></path>
        <filter id="filter-3" filterUnits="objectBoundingBox" height="117.3%" width="115.8%" y="-8.7%" x="-7.9%">
            <feGaussianBlur result="shadowBlurInner1" in="SourceAlpha" stdDeviation="64"></feGaussianBlur>
            <feOffset result="shadowOffsetInner1" in="shadowBlurInner1" dy="16" dx="0"></feOffset>
            <feComposite result="shadowInnerInner1" k3="1" k2="-1" operator="arithmetic" in2="SourceAlpha" in="shadowOffsetInner1"></feComposite>
            <feColorMatrix in="shadowInnerInner1" type="matrix" values="0 0 0 0 0.968627451   0 0 0 0 0.68627451   0 0 0 0 0.270588235  0 0 0 0.501145583 0"></feColorMatrix>
        </filter>
        <path id="path-4" d="M418.754688,660.292956 C421.479633,656.668445 423.511197,654.175456 424.849383,652.813989 C448.143357,629.114745 456.087938,620.315171 489.175463,610.877287 C522.262989,601.439404 540.841788,611.700256 578.408238,618.457765 C578.408238,618.457765 578.408238,618.457765 578.408238,618.457765 C580.776896,618.883843 583.042478,617.30907 583.468555,614.940412 C583.72947,613.489929 583.239566,612.005848 582.166399,610.995754 C582.123976,610.955828 582.081923,610.916339 582.040238,610.877287 C553.419731,584.065159 521.441803,574.619482 485.87559,580.509345 C452.0301,586.114252 428.922844,606.564748 416.784686,643.891744 C415.934832,646.505197 414.704186,651.076817 413.092749,657.606607 L413.091422,657.60628 C412.669099,659.32239 413.717921,661.055932 415.43403,661.478255 C416.678655,661.784548 417.985964,661.318613 418.756304,660.294171 Z"></path>
        <filter id="filter-5" filterUnits="objectBoundingBox" height="116.9%" width="108.8%" y="-8.5%" x="-4.4%">
            <feGaussianBlur result="shadowBlurInner1" in="SourceAlpha" stdDeviation="8"></feGaussianBlur>
            <feOffset result="shadowOffsetInner1" in="shadowBlurInner1" dy="0" dx="0"></feOffset>
            <feComposite result="shadowInnerInner1" k3="1" k2="-1" operator="arithmetic" in2="SourceAlpha" in="shadowOffsetInner1"></feComposite>
            <feColorMatrix in="shadowInnerInner1" type="matrix" values="0 0 0 0 0.463498765   0 0 0 0 0.0657767692   0 0 0 0 0.0121513315  0 0 0 1 0"></feColorMatrix>
        </filter>
        <filter id="filter-6" filterUnits="objectBoundingBox" height="280.0%" width="263.6%" y="-90.0%" x="-81.8%">
            <feGaussianBlur in="SourceGraphic" stdDeviation="48"></feGaussianBlur>
        </filter>
        <filter id="filter-7" filterUnits="objectBoundingBox" height="280.0%" width="263.6%" y="-90.0%" x="-81.8%">
            <feGaussianBlur in="SourceGraphic" stdDeviation="48"></feGaussianBlur>
        </filter>
        <linearGradient id="linearGradient-8" y2="100%" x2="50%" y1="0%" x1="50%">
            <stop offset="0%" stop-color="#FFFFFF"></stop>
            <stop offset="100%" stop-color="#FFEDBE"></stop>
        </linearGradient>
        <path id="path-9" d="M68.5765326,254.68378 C72.7816926,252.24075 76.2114932,250.253018 78.8659343,248.720582 C169.168954,196.587744 237.46291,162.11192 269.639705,151.430877 C273.263695,150.227898 278.659108,148.143491 285.825942,145.177654 L285.826303,145.178528 C293.320247,142.07691 297.308106,133.858716 295.107092,126.052644 C294.362994,123.4178 293.5172,120.510258 292.569035,117.33021 C278.791785,71.1227209 200.940948,-15.1773298 92.9468249,28.3488325 C47.4759155,46.6755166 25.2403,88.2243903 20.9160785,103.079402 C6.00665297,154.2978 14.8402016,203.272109 47.4167244,250.002331 L47.4170318,250.002117 C52.1784227,256.829847 61.3796022,258.866236 68.5774133,254.685296 Z"></path>
        <filter id="filter-10" filterUnits="objectBoundingBox" height="178.2%" width="167.4%" y="-39.1%" x="-33.7%">
            <feOffset result="shadowOffsetOuter1" in="SourceAlpha" dy="0" dx="0"></feOffset>
            <feGaussianBlur result="shadowBlurOuter1" in="shadowOffsetOuter1" stdDeviation="32"></feGaussianBlur>
            <feColorMatrix in="shadowBlurOuter1" type="matrix" values="0 0 0 0 0.888848346   0 0 0 0 0.591702642   0 0 0 0 0.178785883  0 0 0 1 0"></feColorMatrix>
        </filter>
        <path id="path-11" d="M103.202155,23.765175 C135.337938,10.8131064 164.8046,9.35685652 190.708109,14.9192136 C191.633205,17.7044054 192.27769,20.7184174 192.61984,23.973759 C195.85269,54.7322784 178.736968,77.6476744 140.977027,90.4350522 C106.53345,102.099345 64.3797096,85.2192749 54.7872023,58.8191022 C66.3810634,45.4599252 82.3479682,32.1702872 103.202155,23.765175 Z"></path>
        <filter id="filter-12" filterUnits="objectBoundingBox" height="138.9%" width="123.2%" y="-19.4%" x="-11.6%">
            <feGaussianBlur result="shadowBlurInner1" in="SourceAlpha" stdDeviation="16"></feGaussianBlur>
            <feOffset result="shadowOffsetInner1" in="shadowBlurInner1" dy="0" dx="0"></feOffset>
            <feComposite result="shadowInnerInner1" k3="1" k2="-1" operator="arithmetic" in2="SourceAlpha" in="shadowOffsetInner1"></feComposite>
            <feColorMatrix in="shadowInnerInner1" type="matrix" values="0 0 0 0 0.322660142   0 0 0 0 0   0 0 0 0 0.0976114716  0 0 0 1 0"></feColorMatrix>
        </filter>
        <path id="path-13" d="M97.5540606,294.036313 C101.759221,291.593283 105.189021,289.605551 107.843462,288.073115 C198.146482,235.940277 266.440438,201.464453 298.617233,190.78341 C302.241223,189.580431 307.636636,187.496023 314.80347,184.530187 L314.803831,184.531061 C322.297775,181.429443 326.285634,173.211249 324.08462,165.405177 C323.340522,162.770332 322.494728,159.862791 321.546563,156.682743 C307.769313,110.475254 229.918476,24.175203 121.924353,67.7013652 C76.4534434,86.0280494 54.217828,127.576923 49.8936065,142.431935 C34.984181,193.650332 43.8177296,242.624642 76.3942524,289.354864 L76.3945597,289.354649 C81.1559506,296.182379 90.3571302,298.218769 97.5549413,294.037829 Z"></path>
        <filter id="filter-14" filterUnits="objectBoundingBox" height="178.2%" width="167.4%" y="-39.1%" x="-33.7%">
            <feOffset result="shadowOffsetOuter1" in="SourceAlpha" dy="0" dx="0"></feOffset>
            <feGaussianBlur result="shadowBlurOuter1" in="shadowOffsetOuter1" stdDeviation="32"></feGaussianBlur>
            <feColorMatrix in="shadowBlurOuter1" type="matrix" values="0 0 0 0 0.888848346   0 0 0 0 0.591702642   0 0 0 0 0.178785883  0 0 0 1 0"></feColorMatrix>
        </filter>
        <path id="path-15" d="M148.400219,60.4638095 C183.630491,46.2645321 215.652851,45.88163 243.289327,53.4159597 C243.648455,55.0456998 243.923008,56.7405116 244.108603,58.5063318 C247.341454,89.2648513 230.225732,112.180247 192.465791,124.967625 C156.513354,137.142893 112.160443,118.218149 105.20616,89.8289513 C116.226205,78.4722648 130.516044,67.6718825 148.400219,60.4638095 Z"></path>
        <filter id="filter-16" filterUnits="objectBoundingBox" height="139.9%" width="123.0%" y="-20.0%" x="-11.5%">
            <feGaussianBlur result="shadowBlurInner1" in="SourceAlpha" stdDeviation="16"></feGaussianBlur>
            <feOffset result="shadowOffsetInner1" in="shadowBlurInner1" dy="0" dx="0"></feOffset>
            <feComposite result="shadowInnerInner1" k3="1" k2="-1" operator="arithmetic" in2="SourceAlpha" in="shadowOffsetInner1"></feComposite>
            <feColorMatrix in="shadowInnerInner1" type="matrix" values="0 0 0 0 0.322660142   0 0 0 0 0   0 0 0 0 0.0976114716  0 0 0 1 0"></feColorMatrix>
        </filter>
    </defs>
    <g fill-rule="evenodd" fill="none" stroke-width="1" stroke="none" id="上传尺寸">
        <g id="白眼">
            <rect height="1024" width="1024" y="0" x="0" id="矩形备份-7"></rect>
            <g transform="translate(57.469142, 96.000000)" id="默认">
                <g id="形状结合">
                    <use xlink:href="#path-2" fill-rule="evenodd" fill="url(#radialGradient-1)"></use>
                    <use xlink:href="#path-2" filter="url(#filter-3)" fill-opacity="1" fill="black"></use>
                </g>
                <g id="路径-48">
                    <use xlink:href="#path-4" fill-rule="evenodd" fill="#ED1F2A"></use>
                    <use xlink:href="#path-4" filter="url(#filter-5)" fill-opacity="1" fill="black"></use>
                </g>
                <ellipse ry="80" rx="88" cy="384" cx="686.530858" filter="url(#filter-6)" fill="#FF5EA4" fill-opacity="0.8" id="椭圆形"></ellipse>
                <ellipse ry="80" rx="88" cy="480" cx="206.530858" filter="url(#filter-7)" fill="#FF5EA4" fill-opacity="0.8" id="椭圆形备份-6"></ellipse>
                <g transform="translate(104.226613, 258.819016)" id="编组-21">
                    <g transform="translate(156.239456, 139.148704) rotate(7.000000) translate(-156.239456, -139.148704)" id="路径-47">
                        <use xlink:href="#path-9" filter="url(#filter-10)" fill-opacity="1" fill="black"></use>
                        <use xlink:href="#path-9" fill-rule="evenodd" fill="url(#linearGradient-8)"></use>
                    </g>
                    <g transform="translate(123.896052, 53.020292) rotate(7.000000) translate(-123.896052, -53.020292)" id="形状结合">
                        <use xlink:href="#path-11" fill-rule="evenodd" fill="#930027"></use>
                        <use xlink:href="#path-11" filter="url(#filter-12)" fill-opacity="1" fill="black"></use>
                    </g>
                </g>
                <g transform="translate(420.765349, 125.946555)" id="编组-20备份">
                    <g transform="translate(185.216984, 178.501236) scale(-1, 1) rotate(31.000000) translate(-185.216984, -178.501236)" id="路径-47">
                        <use xlink:href="#path-13" filter="url(#filter-14)" fill-opacity="1" fill="black"></use>
                        <use xlink:href="#path-13" fill-rule="evenodd" fill="url(#linearGradient-8)"></use>
                    </g>
                    <g transform="translate(174.849913, 88.635896) scale(-1, 1) rotate(31.000000) translate(-174.849913, -88.635896)" id="形状结合">
                        <use xlink:href="#path-15" fill-rule="evenodd" fill="#930027"></use>
                        <use xlink:href="#path-15" filter="url(#filter-16)" fill-opacity="1" fill="black"></use>
                    </g>
                </g>
            </g>
        </g>
    </g>
</svg>