<?xml version="1.0" standalone="no"?><!DOCTYPE svg PUBLIC "-//W3C//DTD SVG 1.1//EN" "http://www.w3.org/Graphics/SVG/1.1/DTD/svg11.dtd"><svg height="1024" node-id="1" sillyvg="true" template-height="1024" template-width="1024" version="1.1" viewBox="0 0 1024 1024" width="1024" xmlns="http://www.w3.org/2000/svg" xmlns:xlink="http://www.w3.org/1999/xlink"><defs node-id="96"><radialGradient cx="0.5" cy="0.19668992" fx="0.5" fy="0.19668992" gradientTransform="matrix(0 1 -0.912281 0 0.67943655 -0.30331)" gradientUnits="objectBoundingBox" id="radialGradient-1" node-id="5" r="0.9393923" rev="2" spreadMethod="pad"><stop offset="0" stop-color="#ffe476"></stop><stop offset="0.41387266" stop-color="#fcec6c"></stop><stop offset="1" stop-color="#ffb02f"></stop></radialGradient><linearGradient gradientUnits="objectBoundingBox" id="linearGradient-9" node-id="29" spreadMethod="pad" x1="0.5" x2="0.5" y1="0" y2="1"><stop offset="0" stop-color="#ffffff"></stop><stop offset="1" stop-color="#ffedbe"></stop></linearGradient><filter height="1.173" id="filter-3" node-id="10" width="1.158" x="-0.079" y="-0.087"><feGaussianBlur color-interpolation-filters="linearRGB" in="SourceAlpha" result="shadowBlurInner1" stdDeviation="64 64"></feGaussianBlur><feOffset color-interpolation-filters="linearRGB" dx="0" dy="16" in="shadowBlurInner1" result="shadowOffsetInner1"></feOffset><feComposite color-interpolation-filters="linearRGB" in="shadowOffsetInner1" in2="SourceAlpha" k1="0" k2="-1" k3="1" k4="0" operator="arithmetic" result="shadowInnerInner1"></feComposite><feColorMatrix color-interpolation-filters="linearRGB" in="shadowInnerInner1" result="result4" type="matrix" values="0 0 0 0 0.968627451 0 0 0 0 0.68627451 0 0 0 0 0.270588235 0 0 0 0.501145583 0"></feColorMatrix></filter><filter height="2" id="filter-5" node-id="16" width="2.2" x="-0.6" y="-0.5"><feOffset color-interpolation-filters="linearRGB" dx="0" dy="0" in="SourceAlpha" result="shadowOffsetOuter1"></feOffset><feGaussianBlur color-interpolation-filters="linearRGB" in="shadowOffsetOuter1" result="shadowBlurOuter1" stdDeviation="16 16"></feGaussianBlur><feColorMatrix color-interpolation-filters="linearRGB" in="shadowBlurOuter1" result="result3" type="matrix" values="0 0 0 0 1 0 0 0 0 0.948503655 0 0 0 0 0.566824862 0 0 0 1 0"></feColorMatrix></filter><filter height="2.333" id="filter-6" node-id="20" width="2.6" x="-0.8" y="-0.667"><feGaussianBlur color-interpolation-filters="linearRGB" in="SourceAlpha" result="shadowBlurInner1" stdDeviation="24 24"></feGaussianBlur><feOffset color-interpolation-filters="linearRGB" dx="0" dy="16" in="shadowBlurInner1" result="shadowOffsetInner1"></feOffset><feComposite color-interpolation-filters="linearRGB" in="shadowOffsetInner1" in2="SourceAlpha" k1="0" k2="-1" k3="1" k4="0" operator="arithmetic" result="shadowInnerInner1"></feComposite><feColorMatrix color-interpolation-filters="linearRGB" in="shadowInnerInner1" result="result4" type="matrix" values="0 0 0 0 0.389055335 0 0 0 0 0.164926276 0 0 0 0 0.00720582671 0 0 0 1 0"></feColorMatrix></filter><filter height="2.8" id="filter-7" node-id="25" width="2.636" x="-0.818" y="-0.9"><feGaussianBlur color-interpolation-filters="linearRGB" in="SourceGraphic" result="result1" stdDeviation="48 48"></feGaussianBlur></filter><filter height="2.8" id="filter-8" node-id="27" width="2.636" x="-0.818" y="-0.9"><feGaussianBlur color-interpolation-filters="linearRGB" in="SourceGraphic" result="result1" stdDeviation="48 48"></feGaussianBlur></filter><filter height="1.706" id="filter-11" node-id="33" width="1.706" x="-0.353" y="-0.353"><feOffset color-interpolation-filters="linearRGB" dx="0" dy="0" in="SourceAlpha" result="shadowOffsetOuter1"></feOffset><feGaussianBlur color-interpolation-filters="linearRGB" in="shadowOffsetOuter1" result="shadowBlurOuter1" stdDeviation="32 32"></feGaussianBlur><feColorMatrix color-interpolation-filters="linearRGB" in="shadowBlurOuter1" result="result3" type="matrix" values="0 0 0 0 0.888848346 0 0 0 0 0.591702642 0 0 0 0 0.178785883 0 0 0 1 0"></feColorMatrix></filter><filter height="1.588" id="filter-12" node-id="37" width="1.588" x="-0.294" y="-0.294"><feGaussianBlur color-interpolation-filters="linearRGB" in="SourceAlpha" result="shadowBlurInner1" stdDeviation="16 16"></feGaussianBlur><feOffset color-interpolation-filters="linearRGB" dx="0" dy="0" in="shadowBlurInner1" result="shadowOffsetInner1"></feOffset><feComposite color-interpolation-filters="linearRGB" in="shadowOffsetInner1" in2="SourceAlpha" k1="0" k2="-1" k3="1" k4="0" operator="arithmetic" result="shadowInnerInner1"></feComposite><feColorMatrix color-interpolation-filters="linearRGB" in="shadowInnerInner1" result="result4" type="matrix" values="0 0 0 0 1 0 0 0 0 0.880587925 0 0 0 0 0.537254902 0 0 0 0.500726446 0"></feColorMatrix></filter><filter height="1.221" id="filter-14" node-id="43" width="1.221" x="-0.11" y="-0.11"><feGaussianBlur color-interpolation-filters="linearRGB" in="SourceAlpha" result="shadowBlurInner1" stdDeviation="8 8"></feGaussianBlur><feOffset color-interpolation-filters="linearRGB" dx="0" dy="0" in="shadowBlurInner1" result="shadowOffsetInner1"></feOffset><feComposite color-interpolation-filters="linearRGB" in="shadowOffsetInner1" in2="SourceAlpha" k1="0" k2="-1" k3="1" k4="0" operator="arithmetic" result="shadowInnerInner1"></feComposite><feColorMatrix color-interpolation-filters="linearRGB" in="shadowInnerInner1" result="result4" type="matrix" values="0 0 0 0 0.322660142 0 0 0 0 0 0 0 0 0 0.0976114716 0 0 0 1 0"></feColorMatrix></filter><filter height="1.706" id="filter-16" node-id="49" width="1.706" x="-0.353" y="-0.353"><feOffset color-interpolation-filters="linearRGB" dx="0" dy="0" in="SourceAlpha" result="shadowOffsetOuter1"></feOffset><feGaussianBlur color-interpolation-filters="linearRGB" in="shadowOffsetOuter1" result="shadowBlurOuter1" stdDeviation="32 32"></feGaussianBlur><feColorMatrix color-interpolation-filters="linearRGB" in="shadowBlurOuter1" result="result3" type="matrix" values="0 0 0 0 0.888848346 0 0 0 0 0.591702642 0 0 0 0 0.178785883 0 0 0 1 0"></feColorMatrix></filter><filter height="1.588" id="filter-17" node-id="53" width="1.588" x="-0.294" y="-0.294"><feGaussianBlur color-interpolation-filters="linearRGB" in="SourceAlpha" result="shadowBlurInner1" stdDeviation="16 16"></feGaussianBlur><feOffset color-interpolation-filters="linearRGB" dx="0" dy="0" in="shadowBlurInner1" result="shadowOffsetInner1"></feOffset><feComposite color-interpolation-filters="linearRGB" in="shadowOffsetInner1" in2="SourceAlpha" k1="0" k2="-1" k3="1" k4="0" operator="arithmetic" result="shadowInnerInner1"></feComposite><feColorMatrix color-interpolation-filters="linearRGB" in="shadowInnerInner1" result="result4" type="matrix" values="0 0 0 0 1 0 0 0 0 0.880587925 0 0 0 0 0.537254902 0 0 0 0.500726446 0"></feColorMatrix></filter><filter height="1.221" id="filter-19" node-id="59" width="1.221" x="-0.11" y="-0.11"><feGaussianBlur color-interpolation-filters="linearRGB" in="SourceAlpha" result="shadowBlurInner1" stdDeviation="8 8"></feGaussianBlur><feOffset color-interpolation-filters="linearRGB" dx="0" dy="0" in="shadowBlurInner1" result="shadowOffsetInner1"></feOffset><feComposite color-interpolation-filters="linearRGB" in="shadowOffsetInner1" in2="SourceAlpha" k1="0" k2="-1" k3="1" k4="0" operator="arithmetic" result="shadowInnerInner1"></feComposite><feColorMatrix color-interpolation-filters="linearRGB" in="shadowInnerInner1" result="result4" type="matrix" values="0 0 0 0 0.322660142 0 0 0 0 0 0 0 0 0 0.0976114716 0 0 0 1 0"></feColorMatrix></filter></defs><g node-id="306"><g node-id="307"><path d="M 0.00 0.00 L 1024.00 0.00 L 1024.00 1024.00 L 0.00 1024.00 Z" fill="none" group-id="1,2" id="矩形备份-4" node-id="67" stroke="none" target-height="1024" target-width="1024" target-x="0" target-y="0"></path><g node-id="312"><g node-id="320"><path d="M 486.86 96.38 C 606.07 90.63 708.76 150.68 758.05 248.07 C 890.94 307.20 998.79 448.58 971.84 605.75 C 951.63 723.61 887.20 809.73 792.89 862.38 C 746.43 892.44 680.20 913.75 581.85 923.53 C 302.34 951.30 80.98 850.50 64.82 598.22 C 56.85 473.83 107.42 389.95 190.97 336.88 C 221.60 181.87 333.84 103.75 486.86 96.38 Z" fill="url(#radialGradient-1)" fill-rule="evenodd" group-id="1,2,7,15" node-id="212" stroke="none" target-height="860.6705" target-width="941.9407" target-x="56.854" target-y="90.63337"></path></g><path d="M 486.86 96.38 C 606.07 90.63 708.76 150.68 758.05 248.07 C 890.94 307.20 998.79 448.58 971.84 605.75 C 951.63 723.61 887.20 809.73 792.89 862.38 C 746.43 892.44 680.20 913.75 581.85 923.53 C 302.34 951.30 80.98 850.50 64.82 598.22 C 56.85 473.83 107.42 389.95 190.97 336.88 C 221.60 181.87 333.84 103.75 486.86 96.38 Z" fill="#000000" fill-rule="evenodd" filter="url(#filter-3)" group-id="1,2,7,16" node-id="217" stroke="none" target-height="860.6705" target-width="941.9407" target-x="56.854" target-y="90.63337"></path></g><g node-id="313"><g node-id="322"><path d="M 520.00 752.00 C 551.00 752.00 560.00 730.51 560.00 704.00 C 560.00 677.49 539.08 656.00 520.00 656.00 C 500.92 656.00 480.00 677.49 480.00 704.00 C 480.00 730.51 489.00 752.00 520.00 752.00 Z" fill="#000000" fill-rule="evenodd" filter="url(#filter-5)" group-id="1,2,8,17" node-id="224" stroke="none" target-height="96" target-width="80" target-x="480" target-y="656"></path></g><g node-id="323"><path d="M 520.00 752.00 C 551.00 752.00 560.00 730.51 560.00 704.00 C 560.00 677.49 539.08 656.00 520.00 656.00 C 500.92 656.00 480.00 677.49 480.00 704.00 C 480.00 730.51 489.00 752.00 520.00 752.00 Z" fill="#a05400" fill-rule="evenodd" group-id="1,2,8,18" node-id="229" stroke="none" target-height="96" target-width="80" target-x="480" target-y="656"></path></g><path d="M 520.00 752.00 C 551.00 752.00 560.00 730.51 560.00 704.00 C 560.00 677.49 539.08 656.00 520.00 656.00 C 500.92 656.00 480.00 677.49 480.00 704.00 C 480.00 730.51 489.00 752.00 520.00 752.00 Z" fill="#000000" fill-rule="evenodd" filter="url(#filter-6)" group-id="1,2,8,19" node-id="234" stroke="none" target-height="96" target-width="80" target-x="480" target-y="656"></path></g><g node-id="314"><path d="M 848.00 584.00 C 848.00 628.18 808.60 664.00 760.00 664.00 C 711.40 664.00 672.00 628.18 672.00 584.00 C 672.00 539.82 711.40 504.00 760.00 504.00 C 808.60 504.00 848.00 539.82 848.00 584.00 Z" fill="#ff5ea4" fill-opacity="0.8" fill-rule="evenodd" filter="url(#filter-7)" group-id="1,2,9" id="椭圆形" node-id="75" stroke="none" target-height="160" target-width="176" target-x="672" target-y="504"></path></g><path d="M 368.00 584.00 C 368.00 628.18 328.60 664.00 280.00 664.00 C 231.40 664.00 192.00 628.18 192.00 584.00 C 192.00 539.82 231.40 504.00 280.00 504.00 C 328.60 504.00 368.00 539.82 368.00 584.00 Z" fill="#ff5ea4" fill-opacity="0.8" fill-rule="evenodd" filter="url(#filter-8)" group-id="1,2,10" id="椭圆形备份-6" node-id="76" stroke="none" target-height="160" target-width="176" target-x="192" target-y="504"></path></g><g node-id="308"><g node-id="316"><g node-id="325"><path d="M 448.00 472.00 L 447.67 481.41 L 446.74 490.56 L 445.23 499.46 L 443.14 508.15 L 440.47 516.72 L 437.29 524.98 L 433.62 532.95 L 429.43 540.64 L 424.75 548.06 L 419.65 555.12 L 414.13 561.81 L 408.17 568.17 L 401.81 574.13 L 395.12 579.65 L 388.06 584.75 L 380.64 589.43 L 372.95 593.62 L 364.98 597.29 L 356.72 600.47 L 348.15 603.14 L 339.46 605.23 L 330.56 606.74 L 321.41 607.67 L 312.00 608.00 L 302.59 607.67 L 293.44 606.74 L 284.54 605.23 L 275.85 603.14 L 267.28 600.47 L 259.02 597.29 L 251.05 593.62 L 243.36 589.43 L 235.94 584.75 L 228.88 579.65 L 222.19 574.13 L 215.83 568.17 L 209.87 561.81 L 204.35 555.12 L 199.25 548.06 L 194.57 540.64 L 190.38 532.95 L 186.71 524.98 L 183.53 516.72 L 180.86 508.15 L 178.77 499.46 L 177.26 490.56 L 176.33 481.41 L 176.00 472.00 L 176.33 462.59 L 177.26 453.44 L 178.77 444.54 L 180.86 435.85 L 183.53 427.28 L 186.71 419.02 L 190.38 411.05 L 194.57 403.36 L 199.25 395.94 L 204.35 388.88 L 209.87 382.19 L 215.83 375.83 L 222.19 369.87 L 228.88 364.35 L 235.94 359.25 L 243.36 354.57 L 251.05 350.38 L 259.02 346.71 L 267.28 343.53 L 275.85 340.86 L 284.54 338.77 L 293.44 337.26 L 302.59 336.33 L 312.00 336.00 L 321.41 336.33 L 330.56 337.26 L 339.46 338.77 L 348.15 340.86 L 356.72 343.53 L 364.98 346.71 L 372.95 350.38 L 380.64 354.57 L 388.06 359.25 L 395.12 364.35 L 401.81 369.87 L 408.17 375.83 L 414.13 382.19 L 419.65 388.88 L 424.75 395.94 L 429.43 403.36 L 433.62 411.05 L 437.29 419.02 L 440.47 427.28 L 443.14 435.85 L 445.23 444.54 L 446.74 453.44 L 447.67 462.59 L 448.00 472.00 Z" fill="#000000" fill-rule="evenodd" filter="url(#filter-11)" group-id="1,3,11,20" node-id="251" stroke="none" target-height="272" target-width="272" target-x="176" target-y="336"></path></g><g node-id="326"><path d="M 448.00 472.00 L 447.67 481.41 L 446.74 490.56 L 445.23 499.46 L 443.14 508.15 L 440.47 516.72 L 437.29 524.98 L 433.62 532.95 L 429.43 540.64 L 424.75 548.06 L 419.65 555.12 L 414.13 561.81 L 408.17 568.17 L 401.81 574.13 L 395.12 579.65 L 388.06 584.75 L 380.64 589.43 L 372.95 593.62 L 364.98 597.29 L 356.72 600.47 L 348.15 603.14 L 339.46 605.23 L 330.56 606.74 L 321.41 607.67 L 312.00 608.00 L 302.59 607.67 L 293.44 606.74 L 284.54 605.23 L 275.85 603.14 L 267.28 600.47 L 259.02 597.29 L 251.05 593.62 L 243.36 589.43 L 235.94 584.75 L 228.88 579.65 L 222.19 574.13 L 215.83 568.17 L 209.87 561.81 L 204.35 555.12 L 199.25 548.06 L 194.57 540.64 L 190.38 532.95 L 186.71 524.98 L 183.53 516.72 L 180.86 508.15 L 178.77 499.46 L 177.26 490.56 L 176.33 481.41 L 176.00 472.00 L 176.33 462.59 L 177.26 453.44 L 178.77 444.54 L 180.86 435.85 L 183.53 427.28 L 186.71 419.02 L 190.38 411.05 L 194.57 403.36 L 199.25 395.94 L 204.35 388.88 L 209.87 382.19 L 215.83 375.83 L 222.19 369.87 L 228.88 364.35 L 235.94 359.25 L 243.36 354.57 L 251.05 350.38 L 259.02 346.71 L 267.28 343.53 L 275.85 340.86 L 284.54 338.77 L 293.44 337.26 L 302.59 336.33 L 312.00 336.00 L 321.41 336.33 L 330.56 337.26 L 339.46 338.77 L 348.15 340.86 L 356.72 343.53 L 364.98 346.71 L 372.95 350.38 L 380.64 354.57 L 388.06 359.25 L 395.12 364.35 L 401.81 369.87 L 408.17 375.83 L 414.13 382.19 L 419.65 388.88 L 424.75 395.94 L 429.43 403.36 L 433.62 411.05 L 437.29 419.02 L 440.47 427.28 L 443.14 435.85 L 445.23 444.54 L 446.74 453.44 L 447.67 462.59 L 448.00 472.00 Z" fill="url(#linearGradient-9)" fill-rule="evenodd" group-id="1,3,11,21" node-id="256" stroke="none" target-height="272" target-width="272" target-x="176" target-y="336"></path></g><path d="M 448.00 472.00 L 447.67 481.41 L 446.74 490.56 L 445.23 499.46 L 443.14 508.15 L 440.47 516.72 L 437.29 524.98 L 433.62 532.95 L 429.43 540.64 L 424.75 548.06 L 419.65 555.12 L 414.13 561.81 L 408.17 568.17 L 401.81 574.13 L 395.12 579.65 L 388.06 584.75 L 380.64 589.43 L 372.95 593.62 L 364.98 597.29 L 356.72 600.47 L 348.15 603.14 L 339.46 605.23 L 330.56 606.74 L 321.41 607.67 L 312.00 608.00 L 302.59 607.67 L 293.44 606.74 L 284.54 605.23 L 275.85 603.14 L 267.28 600.47 L 259.02 597.29 L 251.05 593.62 L 243.36 589.43 L 235.94 584.75 L 228.88 579.65 L 222.19 574.13 L 215.83 568.17 L 209.87 561.81 L 204.35 555.12 L 199.25 548.06 L 194.57 540.64 L 190.38 532.95 L 186.71 524.98 L 183.53 516.72 L 180.86 508.15 L 178.77 499.46 L 177.26 490.56 L 176.33 481.41 L 176.00 472.00 L 176.33 462.59 L 177.26 453.44 L 178.77 444.54 L 180.86 435.85 L 183.53 427.28 L 186.71 419.02 L 190.38 411.05 L 194.57 403.36 L 199.25 395.94 L 204.35 388.88 L 209.87 382.19 L 215.83 375.83 L 222.19 369.87 L 228.88 364.35 L 235.94 359.25 L 243.36 354.57 L 251.05 350.38 L 259.02 346.71 L 267.28 343.53 L 275.85 340.86 L 284.54 338.77 L 293.44 337.26 L 302.59 336.33 L 312.00 336.00 L 321.41 336.33 L 330.56 337.26 L 339.46 338.77 L 348.15 340.86 L 356.72 343.53 L 364.98 346.71 L 372.95 350.38 L 380.64 354.57 L 388.06 359.25 L 395.12 364.35 L 401.81 369.87 L 408.17 375.83 L 414.13 382.19 L 419.65 388.88 L 424.75 395.94 L 429.43 403.36 L 433.62 411.05 L 437.29 419.02 L 440.47 427.28 L 443.14 435.85 L 445.23 444.54 L 446.74 453.44 L 447.67 462.59 L 448.00 472.00 Z" fill="#000000" fill-rule="evenodd" filter="url(#filter-12)" group-id="1,3,11,22" node-id="261" stroke="none" target-height="272" target-width="272" target-x="176" target-y="336"></path></g><g node-id="317"><g node-id="328"><path d="M 357.33 481.07 L 357.13 484.83 L 356.59 488.43 L 355.70 491.87 L 354.48 495.18 L 352.37 499.39 L 349.78 503.22 L 346.71 506.71 L 343.22 509.78 L 339.39 512.37 L 335.18 514.48 L 331.87 515.70 L 328.43 516.59 L 324.83 517.13 L 321.07 517.33 L 317.30 517.13 L 313.71 516.59 L 310.26 515.70 L 306.95 514.48 L 302.74 512.37 L 298.91 509.78 L 295.42 506.71 L 292.35 503.22 L 289.77 499.39 L 287.65 495.18 L 286.43 491.87 L 285.55 488.43 L 285.00 484.83 L 284.80 481.07 L 285.00 477.30 L 285.55 473.71 L 286.43 470.26 L 287.65 466.95 L 289.77 462.74 L 292.35 458.91 L 295.42 455.42 L 298.91 452.35 L 302.74 449.77 L 306.95 447.65 L 310.26 446.43 L 313.71 445.55 L 317.30 445.00 L 321.07 444.80 L 324.83 445.00 L 328.43 445.55 L 331.87 446.43 L 335.18 447.65 L 339.39 449.77 L 343.22 452.35 L 346.71 455.42 L 349.78 458.91 L 352.37 462.74 L 354.48 466.95 L 355.70 470.26 L 356.59 473.71 L 357.13 477.30 L 357.33 481.07 Z" fill="#930027" fill-rule="evenodd" group-id="1,3,12,23" node-id="268" stroke="none" target-height="72.533325" target-width="72.533325" target-x="284.8" target-y="444.8"></path></g><path d="M 357.33 481.07 L 357.13 484.83 L 356.59 488.43 L 355.70 491.87 L 354.48 495.18 L 352.37 499.39 L 349.78 503.22 L 346.71 506.71 L 343.22 509.78 L 339.39 512.37 L 335.18 514.48 L 331.87 515.70 L 328.43 516.59 L 324.83 517.13 L 321.07 517.33 L 317.30 517.13 L 313.71 516.59 L 310.26 515.70 L 306.95 514.48 L 302.74 512.37 L 298.91 509.78 L 295.42 506.71 L 292.35 503.22 L 289.77 499.39 L 287.65 495.18 L 286.43 491.87 L 285.55 488.43 L 285.00 484.83 L 284.80 481.07 L 285.00 477.30 L 285.55 473.71 L 286.43 470.26 L 287.65 466.95 L 289.77 462.74 L 292.35 458.91 L 295.42 455.42 L 298.91 452.35 L 302.74 449.77 L 306.95 447.65 L 310.26 446.43 L 313.71 445.55 L 317.30 445.00 L 321.07 444.80 L 324.83 445.00 L 328.43 445.55 L 331.87 446.43 L 335.18 447.65 L 339.39 449.77 L 343.22 452.35 L 346.71 455.42 L 349.78 458.91 L 352.37 462.74 L 354.48 466.95 L 355.70 470.26 L 356.59 473.71 L 357.13 477.30 L 357.33 481.07 Z" fill="#000000" fill-rule="evenodd" filter="url(#filter-14)" group-id="1,3,12,24" node-id="273" stroke="none" target-height="72.533325" target-width="72.533325" target-x="284.8" target-y="444.8"></path></g></g><g node-id="309"><g node-id="318"><g node-id="330"><path d="M 848.00 472.00 L 847.67 481.41 L 846.74 490.56 L 845.23 499.46 L 843.14 508.15 L 840.47 516.72 L 837.29 524.98 L 833.62 532.95 L 829.43 540.64 L 824.75 548.06 L 819.65 555.12 L 814.13 561.81 L 808.17 568.17 L 801.81 574.13 L 795.12 579.65 L 788.06 584.75 L 780.64 589.43 L 772.95 593.62 L 764.98 597.29 L 756.72 600.47 L 748.15 603.14 L 739.46 605.23 L 730.56 606.74 L 721.41 607.67 L 712.00 608.00 L 702.59 607.67 L 693.44 606.74 L 684.54 605.23 L 675.85 603.14 L 667.28 600.47 L 659.02 597.29 L 651.05 593.62 L 643.36 589.43 L 635.94 584.75 L 628.88 579.65 L 622.19 574.13 L 615.83 568.17 L 609.87 561.81 L 604.35 555.12 L 599.25 548.06 L 594.57 540.64 L 590.38 532.95 L 586.71 524.98 L 583.53 516.72 L 580.86 508.15 L 578.77 499.46 L 577.26 490.56 L 576.33 481.41 L 576.00 472.00 L 576.33 462.59 L 577.26 453.44 L 578.77 444.54 L 580.86 435.85 L 583.53 427.28 L 586.71 419.02 L 590.38 411.05 L 594.57 403.36 L 599.25 395.94 L 604.35 388.88 L 609.87 382.19 L 615.83 375.83 L 622.19 369.87 L 628.88 364.35 L 635.94 359.25 L 643.36 354.57 L 651.05 350.38 L 659.02 346.71 L 667.28 343.53 L 675.85 340.86 L 684.54 338.77 L 693.44 337.26 L 702.59 336.33 L 712.00 336.00 L 721.41 336.33 L 730.56 337.26 L 739.46 338.77 L 748.15 340.86 L 756.72 343.53 L 764.98 346.71 L 772.95 350.38 L 780.64 354.57 L 788.06 359.25 L 795.12 364.35 L 801.81 369.87 L 808.17 375.83 L 814.13 382.19 L 819.65 388.88 L 824.75 395.94 L 829.43 403.36 L 833.62 411.05 L 837.29 419.02 L 840.47 427.28 L 843.14 435.85 L 845.23 444.54 L 846.74 453.44 L 847.67 462.59 L 848.00 472.00 Z" fill="#000000" fill-rule="evenodd" filter="url(#filter-16)" group-id="1,4,13,25" node-id="282" stroke="none" target-height="272" target-width="272" target-x="576" target-y="336"></path></g><g node-id="331"><path d="M 848.00 472.00 L 847.67 481.41 L 846.74 490.56 L 845.23 499.46 L 843.14 508.15 L 840.47 516.72 L 837.29 524.98 L 833.62 532.95 L 829.43 540.64 L 824.75 548.06 L 819.65 555.12 L 814.13 561.81 L 808.17 568.17 L 801.81 574.13 L 795.12 579.65 L 788.06 584.75 L 780.64 589.43 L 772.95 593.62 L 764.98 597.29 L 756.72 600.47 L 748.15 603.14 L 739.46 605.23 L 730.56 606.74 L 721.41 607.67 L 712.00 608.00 L 702.59 607.67 L 693.44 606.74 L 684.54 605.23 L 675.85 603.14 L 667.28 600.47 L 659.02 597.29 L 651.05 593.62 L 643.36 589.43 L 635.94 584.75 L 628.88 579.65 L 622.19 574.13 L 615.83 568.17 L 609.87 561.81 L 604.35 555.12 L 599.25 548.06 L 594.57 540.64 L 590.38 532.95 L 586.71 524.98 L 583.53 516.72 L 580.86 508.15 L 578.77 499.46 L 577.26 490.56 L 576.33 481.41 L 576.00 472.00 L 576.33 462.59 L 577.26 453.44 L 578.77 444.54 L 580.86 435.85 L 583.53 427.28 L 586.71 419.02 L 590.38 411.05 L 594.57 403.36 L 599.25 395.94 L 604.35 388.88 L 609.87 382.19 L 615.83 375.83 L 622.19 369.87 L 628.88 364.35 L 635.94 359.25 L 643.36 354.57 L 651.05 350.38 L 659.02 346.71 L 667.28 343.53 L 675.85 340.86 L 684.54 338.77 L 693.44 337.26 L 702.59 336.33 L 712.00 336.00 L 721.41 336.33 L 730.56 337.26 L 739.46 338.77 L 748.15 340.86 L 756.72 343.53 L 764.98 346.71 L 772.95 350.38 L 780.64 354.57 L 788.06 359.25 L 795.12 364.35 L 801.81 369.87 L 808.17 375.83 L 814.13 382.19 L 819.65 388.88 L 824.75 395.94 L 829.43 403.36 L 833.62 411.05 L 837.29 419.02 L 840.47 427.28 L 843.14 435.85 L 845.23 444.54 L 846.74 453.44 L 847.67 462.59 L 848.00 472.00 Z" fill="url(#linearGradient-9)" fill-rule="evenodd" group-id="1,4,13,26" node-id="287" stroke="none" target-height="272" target-width="272" target-x="576" target-y="336"></path></g><path d="M 848.00 472.00 L 847.67 481.41 L 846.74 490.56 L 845.23 499.46 L 843.14 508.15 L 840.47 516.72 L 837.29 524.98 L 833.62 532.95 L 829.43 540.64 L 824.75 548.06 L 819.65 555.12 L 814.13 561.81 L 808.17 568.17 L 801.81 574.13 L 795.12 579.65 L 788.06 584.75 L 780.64 589.43 L 772.95 593.62 L 764.98 597.29 L 756.72 600.47 L 748.15 603.14 L 739.46 605.23 L 730.56 606.74 L 721.41 607.67 L 712.00 608.00 L 702.59 607.67 L 693.44 606.74 L 684.54 605.23 L 675.85 603.14 L 667.28 600.47 L 659.02 597.29 L 651.05 593.62 L 643.36 589.43 L 635.94 584.75 L 628.88 579.65 L 622.19 574.13 L 615.83 568.17 L 609.87 561.81 L 604.35 555.12 L 599.25 548.06 L 594.57 540.64 L 590.38 532.95 L 586.71 524.98 L 583.53 516.72 L 580.86 508.15 L 578.77 499.46 L 577.26 490.56 L 576.33 481.41 L 576.00 472.00 L 576.33 462.59 L 577.26 453.44 L 578.77 444.54 L 580.86 435.85 L 583.53 427.28 L 586.71 419.02 L 590.38 411.05 L 594.57 403.36 L 599.25 395.94 L 604.35 388.88 L 609.87 382.19 L 615.83 375.83 L 622.19 369.87 L 628.88 364.35 L 635.94 359.25 L 643.36 354.57 L 651.05 350.38 L 659.02 346.71 L 667.28 343.53 L 675.85 340.86 L 684.54 338.77 L 693.44 337.26 L 702.59 336.33 L 712.00 336.00 L 721.41 336.33 L 730.56 337.26 L 739.46 338.77 L 748.15 340.86 L 756.72 343.53 L 764.98 346.71 L 772.95 350.38 L 780.64 354.57 L 788.06 359.25 L 795.12 364.35 L 801.81 369.87 L 808.17 375.83 L 814.13 382.19 L 819.65 388.88 L 824.75 395.94 L 829.43 403.36 L 833.62 411.05 L 837.29 419.02 L 840.47 427.28 L 843.14 435.85 L 845.23 444.54 L 846.74 453.44 L 847.67 462.59 L 848.00 472.00 Z" fill="#000000" fill-rule="evenodd" filter="url(#filter-17)" group-id="1,4,13,27" node-id="292" stroke="none" target-height="272" target-width="272" target-x="576" target-y="336"></path></g><g node-id="319"><g node-id="333"><path d="M 739.20 481.07 L 739.00 484.83 L 738.45 488.43 L 737.57 491.87 L 736.35 495.18 L 734.23 499.39 L 731.65 503.22 L 728.58 506.71 L 725.09 509.78 L 721.26 512.37 L 717.05 514.48 L 713.74 515.70 L 710.29 516.59 L 706.70 517.13 L 702.93 517.33 L 699.17 517.13 L 695.57 516.59 L 692.13 515.70 L 688.82 514.48 L 684.61 512.37 L 680.78 509.78 L 677.29 506.71 L 674.22 503.22 L 671.63 499.39 L 669.52 495.18 L 668.30 491.87 L 667.41 488.43 L 666.87 484.83 L 666.67 481.07 L 666.87 477.30 L 667.41 473.71 L 668.30 470.26 L 669.52 466.95 L 671.63 462.74 L 674.22 458.91 L 677.29 455.42 L 680.78 452.35 L 684.61 449.77 L 688.82 447.65 L 692.13 446.43 L 695.57 445.55 L 699.17 445.00 L 702.93 444.80 L 706.70 445.00 L 710.29 445.55 L 713.74 446.43 L 717.05 447.65 L 721.26 449.77 L 725.09 452.35 L 728.58 455.42 L 731.65 458.91 L 734.23 462.74 L 736.35 466.95 L 737.57 470.26 L 738.45 473.71 L 739.00 477.30 L 739.20 481.07 Z" fill="#930027" fill-rule="evenodd" group-id="1,4,14,28" node-id="299" stroke="none" target-height="72.533325" target-width="72.533325" target-x="666.6667" target-y="444.8"></path></g><path d="M 739.20 481.07 L 739.00 484.83 L 738.45 488.43 L 737.57 491.87 L 736.35 495.18 L 734.23 499.39 L 731.65 503.22 L 728.58 506.71 L 725.09 509.78 L 721.26 512.37 L 717.05 514.48 L 713.74 515.70 L 710.29 516.59 L 706.70 517.13 L 702.93 517.33 L 699.17 517.13 L 695.57 516.59 L 692.13 515.70 L 688.82 514.48 L 684.61 512.37 L 680.78 509.78 L 677.29 506.71 L 674.22 503.22 L 671.63 499.39 L 669.52 495.18 L 668.30 491.87 L 667.41 488.43 L 666.87 484.83 L 666.67 481.07 L 666.87 477.30 L 667.41 473.71 L 668.30 470.26 L 669.52 466.95 L 671.63 462.74 L 674.22 458.91 L 677.29 455.42 L 680.78 452.35 L 684.61 449.77 L 688.82 447.65 L 692.13 446.43 L 695.57 445.55 L 699.17 445.00 L 702.93 444.80 L 706.70 445.00 L 710.29 445.55 L 713.74 446.43 L 717.05 447.65 L 721.26 449.77 L 725.09 452.35 L 728.58 455.42 L 731.65 458.91 L 734.23 462.74 L 736.35 466.95 L 737.57 470.26 L 738.45 473.71 L 739.00 477.30 L 739.20 481.07 Z" fill="#000000" fill-rule="evenodd" filter="url(#filter-19)" group-id="1,4,14,29" node-id="304" stroke="none" target-height="72.533325" target-width="72.533325" target-x="666.6667" target-y="444.8"></path></g></g><g node-id="310"><path d="M 235.97 260.62 L 237.62 258.45 L 239.50 256.67 L 241.62 255.24 L 243.94 254.17 L 246.35 253.49 L 248.88 253.19 L 251.42 253.29 L 253.92 253.80 L 256.41 254.75 L 258.05 255.66 L 427.70 364.74 L 430.02 366.54 L 431.90 368.58 L 433.36 370.91 L 434.40 373.45 L 434.99 376.08 L 435.14 378.83 L 434.81 381.56 L 434.00 384.21 L 432.66 386.82 L 431.01 388.99 L 429.14 390.77 L 427.02 392.20 L 424.70 393.27 L 422.28 393.95 L 419.75 394.25 L 417.21 394.15 L 414.71 393.64 L 412.22 392.69 L 410.59 391.78 L 240.93 282.70 L 238.61 280.90 L 236.74 278.86 L 235.28 276.53 L 234.23 273.99 L 233.64 271.36 L 233.50 268.61 L 233.82 265.88 L 234.64 263.23 L 235.97 260.62 Z" fill="#a05400" fill-rule="nonzero" group-id="1,5" id="路径-32" node-id="93" stroke="none" target-height="141.06754" target-width="201.63898" target-x="233.49841" target-y="253.18607"></path></g><path d="M 716.31 257.60 L 718.66 255.84 L 721.13 254.59 L 723.76 253.80 L 726.49 253.47 L 729.18 253.60 L 731.87 254.19 L 734.41 255.23 L 736.75 256.73 L 738.91 258.71 L 740.56 260.87 L 741.78 263.16 L 742.59 265.58 L 743.01 268.11 L 743.02 270.61 L 742.64 273.13 L 741.86 275.55 L 740.70 277.83 L 739.12 279.97 L 737.81 281.31 L 599.66 404.97 L 597.31 406.73 L 594.84 407.99 L 592.21 408.78 L 589.48 409.11 L 586.79 408.98 L 584.10 408.39 L 581.56 407.34 L 579.22 405.85 L 577.06 403.87 L 575.41 401.70 L 574.19 399.42 L 573.38 397.00 L 572.97 394.47 L 572.95 391.97 L 573.34 389.45 L 574.11 387.02 L 575.27 384.75 L 576.85 382.60 L 578.16 381.27 L 716.31 257.60 Z" fill="#a05400" fill-rule="nonzero" group-id="1,6" id="路径-33" node-id="94" stroke="none" target-height="155.64552" target-width="170.06903" target-x="572.9521" target-y="253.46593"></path></g></svg>