<?xml version="1.0" standalone="no"?><!DOCTYPE svg PUBLIC "-//W3C//DTD SVG 1.1//EN" "http://www.w3.org/Graphics/SVG/1.1/DTD/svg11.dtd"><svg height="1024" node-id="1" sillyvg="true" template-height="1024" template-width="1024" version="1.1" viewBox="0 0 1024 1024" width="1024" xmlns="http://www.w3.org/2000/svg" xmlns:xlink="http://www.w3.org/1999/xlink"><defs node-id="99"><radialGradient cx="0.5" cy="0.19668992" fx="0.5" fy="0.19668992" gradientTransform="matrix(0 1 -0.912281 0 0.67943655 -0.30331)" gradientUnits="objectBoundingBox" id="radialGradient-1" node-id="5" r="0.9393923" rev="4" spreadMethod="pad"><stop offset="0" stop-color="#ffe476"></stop><stop offset="0.41387266" stop-color="#fcec6c"></stop><stop offset="1" stop-color="#ffb02f"></stop></radialGradient><linearGradient gradientUnits="objectBoundingBox" id="linearGradient-12" node-id="37" spreadMethod="pad" x1="0.5" x2="0.5" y1="0.1186253" y2="1"><stop offset="0" stop-color="#ff8b9f"></stop><stop offset="1" stop-color="#ff5166"></stop></linearGradient><linearGradient gradientUnits="objectBoundingBox" id="linearGradient-13" node-id="40" spreadMethod="pad" x1="0.060048267" x2="0.95154124" y1="0.42029694" y2="0.42029694"><stop offset="0" stop-color="#eae6e1"></stop><stop offset="0.50863284" stop-color="#ffffff"></stop><stop offset="1" stop-color="#eae8e1"></stop></linearGradient><radialGradient cx="0.5" cy="0" fx="0.5" fy="0" gradientUnits="objectBoundingBox" id="radialGradient-14" node-id="44" r="0.98521996" rev="1" spreadMethod="pad"><stop offset="0" stop-color="#ffe476"></stop><stop offset="0.41387266" stop-color="#fff287"></stop><stop offset="1" stop-color="#ffb02f"></stop></radialGradient><filter height="1.173" id="filter-3" node-id="10" width="1.158" x="-0.079" y="-0.087"><feGaussianBlur color-interpolation-filters="linearRGB" in="SourceAlpha" result="shadowBlurInner1" stdDeviation="64 64"></feGaussianBlur><feOffset color-interpolation-filters="linearRGB" dx="0" dy="16" in="shadowBlurInner1" result="shadowOffsetInner1"></feOffset><feComposite color-interpolation-filters="linearRGB" in="shadowOffsetInner1" in2="SourceAlpha" k1="0" k2="-1" k3="1" k4="0" operator="arithmetic" result="shadowInnerInner1"></feComposite><feColorMatrix color-interpolation-filters="linearRGB" in="shadowInnerInner1" result="result4" type="matrix" values="0 0 0 0 0.968627451 0 0 0 0 0.68627451 0 0 0 0 0.270588235 0 0 0 0.501145583 0"></feColorMatrix></filter><filter height="2.8" id="filter-4" node-id="15" width="2.636" x="-0.818" y="-0.9"><feGaussianBlur color-interpolation-filters="linearRGB" in="SourceGraphic" result="result1" stdDeviation="48 48"></feGaussianBlur></filter><filter height="2.8" id="filter-5" node-id="17" width="2.636" x="-0.818" y="-0.9"><feGaussianBlur color-interpolation-filters="linearRGB" in="SourceGraphic" result="result1" stdDeviation="48 48"></feGaussianBlur></filter><filter height="1.244" id="filter-7" node-id="20" width="1.151" x="-0.076" y="-0.122"><feGaussianBlur color-interpolation-filters="linearRGB" in="SourceAlpha" result="shadowBlurInner1" stdDeviation="8 8"></feGaussianBlur><feOffset color-interpolation-filters="linearRGB" dx="0" dy="16" in="shadowBlurInner1" result="shadowOffsetInner1"></feOffset><feComposite color-interpolation-filters="linearRGB" in="shadowOffsetInner1" in2="SourceAlpha" k1="0" k2="-1" k3="1" k4="0" operator="arithmetic" result="shadowInnerInner1"></feComposite><feColorMatrix color-interpolation-filters="linearRGB" in="shadowInnerInner1" result="result4" type="matrix" values="0 0 0 0 0.172190791 0 0 0 0 0.070739944 0 0 0 0 0.00122732694 0 0 0 0.913061182 0"></feColorMatrix></filter><filter height="1.244" id="filter-9" node-id="26" width="1.151" x="-0.076" y="-0.122"><feGaussianBlur color-interpolation-filters="linearRGB" in="SourceAlpha" result="shadowBlurInner1" stdDeviation="8 8"></feGaussianBlur><feOffset color-interpolation-filters="linearRGB" dx="0" dy="16" in="shadowBlurInner1" result="shadowOffsetInner1"></feOffset><feComposite color-interpolation-filters="linearRGB" in="shadowOffsetInner1" in2="SourceAlpha" k1="0" k2="-1" k3="1" k4="0" operator="arithmetic" result="shadowInnerInner1"></feComposite><feColorMatrix color-interpolation-filters="linearRGB" in="shadowInnerInner1" result="result4" type="matrix" values="0 0 0 0 0.172190791 0 0 0 0 0.070739944 0 0 0 0 0.00122732694 0 0 0 0.913061182 0"></feColorMatrix></filter><filter height="1.05" id="filter-11" node-id="32" width="1.026" x="-0.013" y="-0.025"><feGaussianBlur color-interpolation-filters="linearRGB" in="SourceAlpha" result="shadowBlurInner1" stdDeviation="8 8"></feGaussianBlur><feOffset color-interpolation-filters="linearRGB" dx="0" dy="0" in="shadowBlurInner1" result="shadowOffsetInner1"></feOffset><feComposite color-interpolation-filters="linearRGB" in="shadowOffsetInner1" in2="SourceAlpha" k1="0" k2="-1" k3="1" k4="0" operator="arithmetic" result="shadowInnerInner1"></feComposite><feColorMatrix color-interpolation-filters="linearRGB" in="shadowInnerInner1" result="result4" type="matrix" values="0 0 0 0 0.661258421 0 0 0 0 0.0872254633 0 0 0 0 0.00982776113 0 0 0 1 0"></feColorMatrix></filter><filter height="1.923" id="filter-16" node-id="49" width="1.923" x="-0.462" y="-0.462"><feOffset color-interpolation-filters="linearRGB" dx="0" dy="0" in="SourceAlpha" result="shadowOffsetOuter1"></feOffset><feGaussianBlur color-interpolation-filters="linearRGB" in="shadowOffsetOuter1" result="shadowBlurOuter1" stdDeviation="32 32"></feGaussianBlur><feColorMatrix color-interpolation-filters="linearRGB" in="shadowBlurOuter1" result="result3" type="matrix" values="0 0 0 0 0.888848346 0 0 0 0 0.591702642 0 0 0 0 0.178785883 0 0 0 1 0"></feColorMatrix></filter><filter height="1.846" id="filter-17" node-id="53" width="1.846" x="-0.423" y="-0.423"><feGaussianBlur color-interpolation-filters="linearRGB" in="SourceAlpha" result="shadowBlurInner1" stdDeviation="16 16"></feGaussianBlur><feOffset color-interpolation-filters="linearRGB" dx="0" dy="16" in="shadowBlurInner1" result="shadowOffsetInner1"></feOffset><feComposite color-interpolation-filters="linearRGB" in="shadowOffsetInner1" in2="SourceAlpha" k1="0" k2="-1" k3="1" k4="0" operator="arithmetic" result="shadowInnerInner1"></feComposite><feColorMatrix color-interpolation-filters="linearRGB" in="shadowInnerInner1" result="result4" type="matrix" values="0 0 0 0 1 0 0 0 0 0.752777197 0 0 0 0 0.187696503 0 0 0 0.756594358 0"></feColorMatrix></filter><filter height="1.923" id="filter-19" node-id="59" width="1.923" x="-0.462" y="-0.462"><feOffset color-interpolation-filters="linearRGB" dx="0" dy="0" in="SourceAlpha" result="shadowOffsetOuter1"></feOffset><feGaussianBlur color-interpolation-filters="linearRGB" in="shadowOffsetOuter1" result="shadowBlurOuter1" stdDeviation="32 32"></feGaussianBlur><feColorMatrix color-interpolation-filters="linearRGB" in="shadowBlurOuter1" result="result3" type="matrix" values="0 0 0 0 0.888848346 0 0 0 0 0.591702642 0 0 0 0 0.178785883 0 0 0 1 0"></feColorMatrix></filter><filter height="1.846" id="filter-20" node-id="63" width="1.846" x="-0.423" y="-0.423"><feGaussianBlur color-interpolation-filters="linearRGB" in="SourceAlpha" result="shadowBlurInner1" stdDeviation="16 16"></feGaussianBlur><feOffset color-interpolation-filters="linearRGB" dx="0" dy="16" in="shadowBlurInner1" result="shadowOffsetInner1"></feOffset><feComposite color-interpolation-filters="linearRGB" in="shadowOffsetInner1" in2="SourceAlpha" k1="0" k2="-1" k3="1" k4="0" operator="arithmetic" result="shadowInnerInner1"></feComposite><feColorMatrix color-interpolation-filters="linearRGB" in="shadowInnerInner1" result="result4" type="matrix" values="0 0 0 0 1 0 0 0 0 0.752777197 0 0 0 0 0.187696503 0 0 0 0.756594358 0"></feColorMatrix></filter></defs><g node-id="313"><path d="M 0.00 0.00 L 1024.00 0.00 L 1024.00 1024.00 L 0.00 1024.00 Z" fill="none" group-id="1" id="矩形备份-6" node-id="70" stroke="none" target-height="1024" target-width="1024" target-x="0" target-y="0"></path><g node-id="314"><g node-id="315"><g node-id="323"><path d="M 486.86 80.38 L 501.27 80.01 L 515.38 80.26 L 529.21 81.12 L 542.78 82.56 L 556.11 84.60 L 569.45 87.25 L 582.45 90.45 L 595.14 94.18 L 607.52 98.44 L 619.62 103.24 L 631.55 108.62 L 643.10 114.48 L 654.29 120.81 L 665.13 127.63 L 675.63 134.95 L 685.80 142.75 L 695.54 150.99 L 704.88 159.66 L 713.82 168.77 L 722.36 178.34 L 730.43 188.28 L 738.02 198.61 L 745.16 209.35 L 751.83 220.49 L 758.05 232.07 L 769.36 237.33 L 780.52 242.98 L 791.54 249.01 L 802.41 255.43 L 813.15 262.25 L 826.23 271.24 L 838.93 280.74 L 851.27 290.77 L 863.26 301.34 L 872.54 310.15 L 881.50 319.23 L 890.13 328.59 L 898.46 338.24 L 906.47 348.18 L 914.14 358.40 L 921.41 368.85 L 928.28 379.53 L 934.76 390.44 L 940.86 401.61 L 946.52 412.99 L 951.71 424.56 L 956.44 436.32 L 960.70 448.28 L 964.49 460.45 L 967.77 472.74 L 970.50 485.18 L 972.70 497.79 L 974.35 510.58 L 975.46 523.55 L 975.98 536.48 L 975.88 549.54 L 975.17 562.77 L 973.83 576.16 L 971.84 589.75 L 969.02 604.58 L 965.77 618.95 L 962.10 632.88 L 958.01 646.38 L 953.51 659.47 L 948.61 672.17 L 943.16 684.86 L 937.32 697.16 L 931.10 709.06 L 924.50 720.57 L 917.52 731.73 L 910.15 742.52 L 902.33 753.08 L 894.15 763.28 L 885.61 773.13 L 876.71 782.64 L 867.44 791.81 L 857.79 800.64 L 847.85 809.09 L 837.58 817.20 L 826.95 824.98 L 815.96 832.44 L 804.61 839.57 L 792.88 846.38 L 784.16 851.78 L 774.82 857.07 L 764.83 862.22 L 754.14 867.24 L 743.49 871.78 L 732.08 876.19 L 719.87 880.45 L 706.83 884.56 L 693.95 888.20 L 680.18 891.67 L 665.47 894.97 L 649.78 898.08 L 634.38 900.75 L 617.95 903.23 L 600.46 905.49 L 581.85 907.53 L 560.70 909.39 L 539.95 910.75 L 519.60 911.61 L 499.64 911.98 L 480.05 911.87 L 460.19 911.26 L 440.81 910.15 L 421.90 908.54 L 403.44 906.45 L 385.42 903.89 L 367.22 900.75 L 349.57 897.11 L 332.44 892.98 L 315.82 888.39 L 299.69 883.32 L 286.19 878.59 L 273.10 873.51 L 260.41 868.11 L 248.10 862.37 L 236.16 856.30 L 224.58 849.90 L 213.11 843.00 L 202.06 835.76 L 191.42 828.18 L 181.17 820.25 L 171.30 811.97 L 161.82 803.34 L 152.67 794.30 L 143.95 784.89 L 135.64 775.11 L 127.74 764.93 L 120.23 754.36 L 113.12 743.39 L 106.56 732.22 L 100.43 720.64 L 94.73 708.62 L 89.45 696.15 L 84.61 683.21 L 80.21 669.77 L 76.46 656.48 L 73.16 642.70 L 70.34 628.41 L 67.99 613.58 L 66.15 598.19 L 64.82 582.22 L 64.14 567.09 L 64.03 552.57 L 64.46 538.63 L 65.41 525.24 L 66.86 512.37 L 68.90 499.28 L 71.42 486.70 L 74.40 474.60 L 77.84 462.97 L 81.72 451.78 L 86.18 440.62 L 91.06 429.89 L 96.35 419.54 L 102.05 409.58 L 108.18 399.98 L 114.77 390.63 L 121.74 381.62 L 129.10 372.93 L 136.85 364.56 L 145.01 356.50 L 153.46 348.81 L 162.28 341.41 L 171.46 334.29 L 181.02 327.45 L 190.97 320.88 L 193.90 307.41 L 197.19 294.46 L 200.84 282.03 L 204.83 270.10 L 209.16 258.63 L 213.83 247.62 L 218.81 237.05 L 224.38 226.41 L 230.26 216.20 L 236.44 206.43 L 242.94 197.08 L 249.74 188.13 L 256.85 179.57 L 264.28 171.38 L 273.46 162.18 L 283.02 153.49 L 292.99 145.29 L 303.37 137.58 L 314.17 130.34 L 325.42 123.58 L 336.87 117.40 L 348.72 111.67 L 360.96 106.40 L 373.62 101.59 L 386.72 97.23 L 400.27 93.34 L 413.70 90.05 L 427.52 87.20 L 441.72 84.79 L 456.34 82.85 L 471.38 81.37 L 486.86 80.38 Z" fill="url(#radialGradient-1)" fill-rule="evenodd" group-id="1,2,3,11" node-id="223" stroke="none" target-height="831.9669" target-width="911.9464" target-x="64.03111" target-y="80.01346"></path></g><path d="M 486.86 80.38 L 501.27 80.01 L 515.38 80.26 L 529.21 81.12 L 542.78 82.56 L 556.11 84.60 L 569.45 87.25 L 582.45 90.45 L 595.14 94.18 L 607.52 98.44 L 619.62 103.24 L 631.55 108.62 L 643.10 114.48 L 654.29 120.81 L 665.13 127.63 L 675.63 134.95 L 685.80 142.75 L 695.54 150.99 L 704.88 159.66 L 713.82 168.77 L 722.36 178.34 L 730.43 188.28 L 738.02 198.61 L 745.16 209.35 L 751.83 220.49 L 758.05 232.07 L 769.36 237.33 L 780.52 242.98 L 791.54 249.01 L 802.41 255.43 L 813.15 262.25 L 826.23 271.24 L 838.93 280.74 L 851.27 290.77 L 863.26 301.34 L 872.54 310.15 L 881.50 319.23 L 890.13 328.59 L 898.46 338.24 L 906.47 348.18 L 914.14 358.40 L 921.41 368.85 L 928.28 379.53 L 934.76 390.44 L 940.86 401.61 L 946.52 412.99 L 951.71 424.56 L 956.44 436.32 L 960.70 448.28 L 964.49 460.45 L 967.77 472.74 L 970.50 485.18 L 972.70 497.79 L 974.35 510.58 L 975.46 523.55 L 975.98 536.48 L 975.88 549.54 L 975.17 562.77 L 973.83 576.16 L 971.84 589.75 L 969.02 604.58 L 965.77 618.95 L 962.10 632.88 L 958.01 646.38 L 953.51 659.47 L 948.61 672.17 L 943.16 684.86 L 937.32 697.16 L 931.10 709.06 L 924.50 720.57 L 917.52 731.73 L 910.15 742.52 L 902.33 753.08 L 894.15 763.28 L 885.61 773.13 L 876.71 782.64 L 867.44 791.81 L 857.79 800.64 L 847.85 809.09 L 837.58 817.20 L 826.95 824.98 L 815.96 832.44 L 804.61 839.57 L 792.88 846.38 L 784.16 851.78 L 774.82 857.07 L 764.83 862.22 L 754.14 867.24 L 743.49 871.78 L 732.08 876.19 L 719.87 880.45 L 706.83 884.56 L 693.95 888.20 L 680.18 891.67 L 665.47 894.97 L 649.78 898.08 L 634.38 900.75 L 617.95 903.23 L 600.46 905.49 L 581.85 907.53 L 560.70 909.39 L 539.95 910.75 L 519.60 911.61 L 499.64 911.98 L 480.05 911.87 L 460.19 911.26 L 440.81 910.15 L 421.90 908.54 L 403.44 906.45 L 385.42 903.89 L 367.22 900.75 L 349.57 897.11 L 332.44 892.98 L 315.82 888.39 L 299.69 883.32 L 286.19 878.59 L 273.10 873.51 L 260.41 868.11 L 248.10 862.37 L 236.16 856.30 L 224.58 849.90 L 213.11 843.00 L 202.06 835.76 L 191.42 828.18 L 181.17 820.25 L 171.30 811.97 L 161.82 803.34 L 152.67 794.30 L 143.95 784.89 L 135.64 775.11 L 127.74 764.93 L 120.23 754.36 L 113.12 743.39 L 106.56 732.22 L 100.43 720.64 L 94.73 708.62 L 89.45 696.15 L 84.61 683.21 L 80.21 669.77 L 76.46 656.48 L 73.16 642.70 L 70.34 628.41 L 67.99 613.58 L 66.15 598.19 L 64.82 582.22 L 64.14 567.09 L 64.03 552.57 L 64.46 538.63 L 65.41 525.24 L 66.86 512.37 L 68.90 499.28 L 71.42 486.70 L 74.40 474.60 L 77.84 462.97 L 81.72 451.78 L 86.18 440.62 L 91.06 429.89 L 96.35 419.54 L 102.05 409.58 L 108.18 399.98 L 114.77 390.63 L 121.74 381.62 L 129.10 372.93 L 136.85 364.56 L 145.01 356.50 L 153.46 348.81 L 162.28 341.41 L 171.46 334.29 L 181.02 327.45 L 190.97 320.88 L 193.90 307.41 L 197.19 294.46 L 200.84 282.03 L 204.83 270.10 L 209.16 258.63 L 213.83 247.62 L 218.81 237.05 L 224.38 226.41 L 230.26 216.20 L 236.44 206.43 L 242.94 197.08 L 249.74 188.13 L 256.85 179.57 L 264.28 171.38 L 273.46 162.18 L 283.02 153.49 L 292.99 145.29 L 303.37 137.58 L 314.17 130.34 L 325.42 123.58 L 336.87 117.40 L 348.72 111.67 L 360.96 106.40 L 373.62 101.59 L 386.72 97.23 L 400.27 93.34 L 413.70 90.05 L 427.52 87.20 L 441.72 84.79 L 456.34 82.85 L 471.38 81.37 L 486.86 80.38 Z" fill="#000000" fill-rule="evenodd" filter="url(#filter-3)" group-id="1,2,3,12" node-id="228" stroke="none" target-height="831.9669" target-width="911.9464" target-x="64.03111" target-y="80.01346"></path></g><g node-id="316"><path d="M 800.00 568.00 L 799.69 574.63 L 798.84 581.04 L 797.44 587.25 L 795.51 593.29 L 793.07 599.15 L 790.18 604.76 L 786.84 610.12 L 783.02 615.25 L 778.82 620.06 L 774.26 624.54 L 769.31 628.71 L 763.97 632.56 L 758.38 636.00 L 752.50 639.04 L 746.32 641.68 L 739.81 643.92 L 733.20 645.67 L 726.38 646.94 L 719.32 647.72 L 712.00 648.00 L 704.68 647.72 L 697.62 646.94 L 690.80 645.67 L 684.19 643.92 L 677.68 641.68 L 671.50 639.04 L 665.62 636.00 L 660.03 632.56 L 654.69 628.71 L 649.74 624.54 L 645.18 620.06 L 640.98 615.25 L 637.16 610.12 L 633.82 604.76 L 630.93 599.15 L 628.49 593.29 L 626.56 587.25 L 625.16 581.04 L 624.31 574.63 L 624.00 568.00 L 624.31 561.37 L 625.16 554.96 L 626.56 548.75 L 628.49 542.71 L 630.93 536.85 L 633.82 531.24 L 637.16 525.88 L 640.98 520.75 L 645.18 515.94 L 649.74 511.46 L 654.69 507.29 L 660.03 503.44 L 665.62 500.00 L 671.50 496.96 L 677.68 494.32 L 684.19 492.08 L 690.80 490.33 L 697.62 489.06 L 704.68 488.28 L 712.00 488.00 L 719.32 488.28 L 726.38 489.06 L 733.20 490.33 L 739.81 492.08 L 746.32 494.32 L 752.50 496.96 L 758.38 500.00 L 763.97 503.44 L 769.31 507.29 L 774.26 511.46 L 778.82 515.94 L 783.02 520.75 L 786.84 525.88 L 790.18 531.24 L 793.07 536.85 L 795.51 542.71 L 797.44 548.75 L 798.84 554.96 L 799.69 561.37 L 800.00 568.00 Z" fill="#ff5ea4" fill-opacity="0.8" fill-rule="evenodd" filter="url(#filter-4)" group-id="1,2,4" id="椭圆形" node-id="75" stroke="none" target-height="160" target-width="176" target-x="624" target-y="488"></path></g><g node-id="317"><path d="M 368.00 568.00 L 367.69 574.63 L 366.84 581.04 L 365.44 587.25 L 363.51 593.29 L 361.07 599.15 L 358.18 604.76 L 354.84 610.12 L 351.02 615.25 L 346.82 620.06 L 342.26 624.54 L 337.31 628.71 L 331.97 632.56 L 326.38 636.00 L 320.50 639.04 L 314.32 641.68 L 307.81 643.92 L 301.20 645.67 L 294.38 646.94 L 287.32 647.72 L 280.00 648.00 L 272.68 647.72 L 265.62 646.94 L 258.80 645.67 L 252.19 643.92 L 245.68 641.68 L 239.50 639.04 L 233.62 636.00 L 228.03 632.56 L 222.69 628.71 L 217.74 624.54 L 213.18 620.06 L 208.98 615.25 L 205.16 610.12 L 201.82 604.76 L 198.93 599.15 L 196.49 593.29 L 194.56 587.25 L 193.16 581.04 L 192.31 574.63 L 192.00 568.00 L 192.31 561.37 L 193.16 554.96 L 194.56 548.75 L 196.49 542.71 L 198.93 536.85 L 201.82 531.24 L 205.16 525.88 L 208.98 520.75 L 213.18 515.94 L 217.74 511.46 L 222.69 507.29 L 228.03 503.44 L 233.62 500.00 L 239.50 496.96 L 245.68 494.32 L 252.19 492.08 L 258.80 490.33 L 265.62 489.06 L 272.68 488.28 L 280.00 488.00 L 287.32 488.28 L 294.38 489.06 L 301.20 490.33 L 307.81 492.08 L 314.32 494.32 L 320.50 496.96 L 326.38 500.00 L 331.97 503.44 L 337.31 507.29 L 342.26 511.46 L 346.82 515.94 L 351.02 520.75 L 354.84 525.88 L 358.18 531.24 L 361.07 536.85 L 363.51 542.71 L 365.44 548.75 L 366.84 554.96 L 367.69 561.37 L 368.00 568.00 Z" fill="#ff5ea4" fill-opacity="0.8" fill-rule="evenodd" filter="url(#filter-5)" group-id="1,2,5" id="椭圆形备份-6" node-id="76" stroke="none" target-height="160" target-width="176" target-x="192" target-y="488"></path></g><g node-id="318"><g node-id="325"><path d="M 728.74 287.20 L 731.89 286.53 L 734.94 286.42 L 737.93 286.84 L 740.81 287.77 L 743.44 289.15 L 745.84 290.98 L 747.90 293.19 L 749.55 295.76 L 750.79 298.74 L 751.47 301.90 L 751.58 304.94 L 751.15 307.94 L 750.22 310.82 L 748.85 313.44 L 747.01 315.85 L 744.80 317.90 L 742.23 319.55 L 739.25 320.80 L 725.91 325.27 L 713.22 330.11 L 701.14 335.31 L 689.65 340.87 L 678.72 346.77 L 668.34 353.02 L 658.48 359.61 L 649.11 366.53 L 640.23 373.80 L 631.82 381.42 L 630.82 382.40 L 767.98 382.32 L 771.19 382.62 L 774.14 383.41 L 776.86 384.71 L 779.34 386.46 L 781.43 388.55 L 783.19 391.02 L 784.49 393.74 L 785.30 396.69 L 785.60 399.90 L 785.30 403.11 L 784.51 406.06 L 783.21 408.78 L 781.46 411.26 L 779.37 413.35 L 776.90 415.11 L 774.18 416.41 L 771.23 417.22 L 768.02 417.52 L 699.93 417.59 L 591.94 417.52 L 588.38 417.15 L 585.24 416.22 L 582.44 414.74 L 579.94 412.76 L 577.89 410.46 L 576.26 407.80 L 575.11 404.89 L 574.49 401.87 L 574.41 398.69 L 574.90 395.56 L 576.04 392.49 L 577.88 389.42 L 585.71 379.40 L 593.99 369.81 L 602.71 360.64 L 611.89 351.88 L 621.55 343.52 L 631.68 335.56 L 642.32 327.99 L 653.09 321.05 L 664.35 314.47 L 676.12 308.27 L 688.43 302.43 L 701.28 296.97 L 714.71 291.89 L 728.74 287.20 Z" fill="#5b2500" fill-rule="nonzero" group-id="1,2,6,13" node-id="243" stroke="none" target-height="131.17026" target-width="211.19257" target-x="574.4075" target-y="286.41565"></path></g><path d="M 728.74 287.20 L 731.89 286.53 L 734.94 286.42 L 737.93 286.84 L 740.81 287.77 L 743.44 289.15 L 745.84 290.98 L 747.90 293.19 L 749.55 295.76 L 750.79 298.74 L 751.47 301.90 L 751.58 304.94 L 751.15 307.94 L 750.22 310.82 L 748.85 313.44 L 747.01 315.85 L 744.80 317.90 L 742.23 319.55 L 739.25 320.80 L 725.91 325.27 L 713.22 330.11 L 701.14 335.31 L 689.65 340.87 L 678.72 346.77 L 668.34 353.02 L 658.48 359.61 L 649.11 366.53 L 640.23 373.80 L 631.82 381.42 L 630.82 382.40 L 767.98 382.32 L 771.19 382.62 L 774.14 383.41 L 776.86 384.71 L 779.34 386.46 L 781.43 388.55 L 783.19 391.02 L 784.49 393.74 L 785.30 396.69 L 785.60 399.90 L 785.30 403.11 L 784.51 406.06 L 783.21 408.78 L 781.46 411.26 L 779.37 413.35 L 776.90 415.11 L 774.18 416.41 L 771.23 417.22 L 768.02 417.52 L 699.93 417.59 L 591.94 417.52 L 588.38 417.15 L 585.24 416.22 L 582.44 414.74 L 579.94 412.76 L 577.89 410.46 L 576.26 407.80 L 575.11 404.89 L 574.49 401.87 L 574.41 398.69 L 574.90 395.56 L 576.04 392.49 L 577.88 389.42 L 585.71 379.40 L 593.99 369.81 L 602.71 360.64 L 611.89 351.88 L 621.55 343.52 L 631.68 335.56 L 642.32 327.99 L 653.09 321.05 L 664.35 314.47 L 676.12 308.27 L 688.43 302.43 L 701.28 296.97 L 714.71 291.89 L 728.74 287.20 Z" fill="#000000" fill-rule="nonzero" filter="url(#filter-7)" group-id="1,2,6,14" node-id="248" stroke="none" target-height="131.17026" target-width="211.19257" target-x="574.4075" target-y="286.41565"></path></g><g node-id="319"><g node-id="327"><path d="M 311.23 287.20 L 308.08 286.53 L 305.03 286.42 L 302.04 286.84 L 299.16 287.77 L 296.53 289.15 L 294.12 290.98 L 292.07 293.19 L 290.42 295.76 L 289.18 298.74 L 288.50 301.90 L 288.39 304.94 L 288.82 307.94 L 289.75 310.82 L 291.12 313.44 L 292.95 315.85 L 295.17 317.90 L 297.74 319.55 L 300.71 320.80 L 314.05 325.27 L 326.75 330.11 L 338.83 335.31 L 350.32 340.87 L 361.25 346.77 L 371.63 353.02 L 381.49 359.61 L 390.85 366.53 L 399.74 373.80 L 408.15 381.42 L 409.14 382.40 L 271.99 382.32 L 268.78 382.62 L 265.83 383.41 L 263.10 384.71 L 260.63 386.46 L 258.53 388.55 L 256.78 391.02 L 255.48 393.74 L 254.67 396.69 L 254.37 399.90 L 254.66 403.11 L 255.46 406.06 L 256.76 408.78 L 258.51 411.26 L 260.60 413.35 L 263.07 415.11 L 265.79 416.41 L 268.73 417.22 L 271.95 417.52 L 340.04 417.59 L 448.03 417.52 L 451.59 417.15 L 454.73 416.22 L 457.53 414.74 L 460.03 412.76 L 462.07 410.46 L 463.71 407.80 L 464.86 404.89 L 465.48 401.87 L 465.56 398.69 L 465.07 395.56 L 463.93 392.49 L 462.09 389.42 L 454.26 379.40 L 445.98 369.81 L 437.26 360.64 L 428.07 351.88 L 418.42 343.52 L 408.29 335.56 L 397.65 327.99 L 386.88 321.05 L 375.62 314.47 L 363.85 308.27 L 351.54 302.43 L 338.69 296.97 L 325.26 291.89 L 311.23 287.20 Z" fill="#5b2500" fill-rule="nonzero" group-id="1,2,7,15" node-id="255" stroke="none" target-height="131.17026" target-width="211.19263" target-x="254.36859" target-y="286.41565"></path></g><path d="M 311.23 287.20 L 308.08 286.53 L 305.03 286.42 L 302.04 286.84 L 299.16 287.77 L 296.53 289.15 L 294.12 290.98 L 292.07 293.19 L 290.42 295.76 L 289.18 298.74 L 288.50 301.90 L 288.39 304.94 L 288.82 307.94 L 289.75 310.82 L 291.12 313.44 L 292.95 315.85 L 295.17 317.90 L 297.74 319.55 L 300.71 320.80 L 314.05 325.27 L 326.75 330.11 L 338.83 335.31 L 350.32 340.87 L 361.25 346.77 L 371.63 353.02 L 381.49 359.61 L 390.85 366.53 L 399.74 373.80 L 408.15 381.42 L 409.14 382.40 L 271.99 382.32 L 268.78 382.62 L 265.83 383.41 L 263.10 384.71 L 260.63 386.46 L 258.53 388.55 L 256.78 391.02 L 255.48 393.74 L 254.67 396.69 L 254.37 399.90 L 254.66 403.11 L 255.46 406.06 L 256.76 408.78 L 258.51 411.26 L 260.60 413.35 L 263.07 415.11 L 265.79 416.41 L 268.73 417.22 L 271.95 417.52 L 340.04 417.59 L 448.03 417.52 L 451.59 417.15 L 454.73 416.22 L 457.53 414.74 L 460.03 412.76 L 462.07 410.46 L 463.71 407.80 L 464.86 404.89 L 465.48 401.87 L 465.56 398.69 L 465.07 395.56 L 463.93 392.49 L 462.09 389.42 L 454.26 379.40 L 445.98 369.81 L 437.26 360.64 L 428.07 351.88 L 418.42 343.52 L 408.29 335.56 L 397.65 327.99 L 386.88 321.05 L 375.62 314.47 L 363.85 308.27 L 351.54 302.43 L 338.69 296.97 L 325.26 291.89 L 311.23 287.20 Z" fill="#000000" fill-rule="nonzero" filter="url(#filter-9)" group-id="1,2,7,16" node-id="260" stroke="none" target-height="131.17026" target-width="211.19263" target-x="254.36859" target-y="286.41565"></path></g><g node-id="320"><g node-id="329"><g node-id="336"><path d="M 460.46 509.71 L 439.57 503.69 L 420.19 498.70 L 402.25 494.67 L 385.64 491.51 L 370.30 489.18 L 356.14 487.59 L 343.08 486.70 L 331.06 486.44 L 320.00 486.76 L 309.84 487.62 L 300.50 488.97 L 291.93 490.78 L 284.07 493.02 L 276.87 495.65 L 270.26 498.67 L 264.22 502.05 L 258.69 505.79 L 253.64 509.90 L 249.04 514.37 L 244.87 519.23 L 241.11 524.50 L 237.76 530.20 L 234.80 536.37 L 232.26 543.04 L 229.89 550.85 L 227.94 558.97 L 226.43 567.43 L 225.37 576.25 L 224.80 585.04 L 224.74 594.02 L 225.19 603.23 L 226.16 612.67 L 227.65 621.96 L 229.70 631.34 L 232.35 640.82 L 235.61 650.42 L 239.37 659.73 L 243.78 669.03 L 248.87 678.32 L 254.66 687.62 L 259.61 694.71 L 265.02 701.73 L 270.93 708.68 L 277.34 715.57 L 284.29 722.39 L 291.38 728.75 L 299.01 734.97 L 307.22 741.06 L 316.02 747.02 L 325.46 752.85 L 334.85 758.11 L 344.88 763.18 L 355.58 768.04 L 366.98 772.68 L 379.12 777.10 L 391.00 780.93 L 403.62 784.48 L 417.00 787.73 L 431.20 790.67 L 446.24 793.28 L 460.80 795.32 L 476.20 796.99 L 492.47 798.26 L 509.65 799.10 L 527.78 799.49 L 545.68 799.25 L 562.76 798.58 L 579.07 797.51 L 594.63 796.06 L 609.47 794.23 L 623.62 792.05 L 637.11 789.54 L 651.33 786.39 L 664.80 782.90 L 677.57 779.09 L 689.65 774.96 L 701.08 770.54 L 711.90 765.82 L 722.12 760.81 L 732.57 755.10 L 742.39 749.10 L 751.59 742.83 L 760.22 736.28 L 768.28 729.46 L 775.81 722.37 L 782.83 715.00 L 789.54 707.12 L 795.73 698.97 L 801.41 690.54 L 806.60 681.82 L 811.30 672.80 L 815.51 663.46 L 819.24 653.79 L 822.40 644.09 L 825.09 634.08 L 827.32 623.75 L 829.07 613.09 L 830.34 602.07 L 831.11 590.66 L 831.37 578.87 L 831.10 569.64 L 830.36 561.17 L 829.20 553.40 L 827.66 546.28 L 825.75 539.76 L 823.27 533.13 L 820.47 527.06 L 817.37 521.49 L 813.96 516.41 L 810.24 511.77 L 806.11 507.38 L 801.72 503.36 L 797.07 499.72 L 792.14 496.43 L 786.93 493.49 L 780.18 490.32 L 773.11 487.60 L 765.68 485.33 L 757.88 483.53 L 750.03 482.20 L 741.97 481.25 L 733.68 480.68 L 725.15 480.50 L 713.82 480.79 L 702.37 481.62 L 690.82 482.99 L 679.31 484.83 L 668.03 487.04 L 656.94 489.62 L 645.94 492.56 L 635.50 495.69 L 625.60 498.99 L 615.78 502.60 L 606.88 506.17 L 598.85 509.71 L 588.99 513.93 L 579.30 517.49 L 569.76 520.40 L 560.34 522.69 L 551.03 524.39 L 541.83 525.50 L 532.70 526.03 L 523.63 526.01 L 514.60 525.42 L 505.60 524.26 L 496.62 522.54 L 487.62 520.24 L 478.61 517.34 L 469.56 513.84 L 460.46 509.71 Z" fill="#ed1f2a" fill-rule="evenodd" group-id="1,2,8,17,24" node-id="268" stroke="none" target-height="318.99063" target-width="606.6357" target-x="224.73927" target-y="480.49802"></path></g><path d="M 460.46 509.71 L 439.57 503.69 L 420.19 498.70 L 402.25 494.67 L 385.64 491.51 L 370.30 489.18 L 356.14 487.59 L 343.08 486.70 L 331.06 486.44 L 320.00 486.76 L 309.84 487.62 L 300.50 488.97 L 291.93 490.78 L 284.07 493.02 L 276.87 495.65 L 270.26 498.67 L 264.22 502.05 L 258.69 505.79 L 253.64 509.90 L 249.04 514.37 L 244.87 519.23 L 241.11 524.50 L 237.76 530.20 L 234.80 536.37 L 232.26 543.04 L 229.89 550.85 L 227.94 558.97 L 226.43 567.43 L 225.37 576.25 L 224.80 585.04 L 224.74 594.02 L 225.19 603.23 L 226.16 612.67 L 227.65 621.96 L 229.70 631.34 L 232.35 640.82 L 235.61 650.42 L 239.37 659.73 L 243.78 669.03 L 248.87 678.32 L 254.66 687.62 L 259.61 694.71 L 265.02 701.73 L 270.93 708.68 L 277.34 715.57 L 284.29 722.39 L 291.38 728.75 L 299.01 734.97 L 307.22 741.06 L 316.02 747.02 L 325.46 752.85 L 334.85 758.11 L 344.88 763.18 L 355.58 768.04 L 366.98 772.68 L 379.12 777.10 L 391.00 780.93 L 403.62 784.48 L 417.00 787.73 L 431.20 790.67 L 446.24 793.28 L 460.80 795.32 L 476.20 796.99 L 492.47 798.26 L 509.65 799.10 L 527.78 799.49 L 545.68 799.25 L 562.76 798.58 L 579.07 797.51 L 594.63 796.06 L 609.47 794.23 L 623.62 792.05 L 637.11 789.54 L 651.33 786.39 L 664.80 782.90 L 677.57 779.09 L 689.65 774.96 L 701.08 770.54 L 711.90 765.82 L 722.12 760.81 L 732.57 755.10 L 742.39 749.10 L 751.59 742.83 L 760.22 736.28 L 768.28 729.46 L 775.81 722.37 L 782.83 715.00 L 789.54 707.12 L 795.73 698.97 L 801.41 690.54 L 806.60 681.82 L 811.30 672.80 L 815.51 663.46 L 819.24 653.79 L 822.40 644.09 L 825.09 634.08 L 827.32 623.75 L 829.07 613.09 L 830.34 602.07 L 831.11 590.66 L 831.37 578.87 L 831.10 569.64 L 830.36 561.17 L 829.20 553.40 L 827.66 546.28 L 825.75 539.76 L 823.27 533.13 L 820.47 527.06 L 817.37 521.49 L 813.96 516.41 L 810.24 511.77 L 806.11 507.38 L 801.72 503.36 L 797.07 499.72 L 792.14 496.43 L 786.93 493.49 L 780.18 490.32 L 773.11 487.60 L 765.68 485.33 L 757.88 483.53 L 750.03 482.20 L 741.97 481.25 L 733.68 480.68 L 725.15 480.50 L 713.82 480.79 L 702.37 481.62 L 690.82 482.99 L 679.31 484.83 L 668.03 487.04 L 656.94 489.62 L 645.94 492.56 L 635.50 495.69 L 625.60 498.99 L 615.78 502.60 L 606.88 506.17 L 598.85 509.71 L 588.99 513.93 L 579.30 517.49 L 569.76 520.40 L 560.34 522.69 L 551.03 524.39 L 541.83 525.50 L 532.70 526.03 L 523.63 526.01 L 514.60 525.42 L 505.60 524.26 L 496.62 522.54 L 487.62 520.24 L 478.61 517.34 L 469.56 513.84 L 460.46 509.71 Z" fill="#000000" fill-rule="evenodd" filter="url(#filter-11)" group-id="1,2,8,17,25" node-id="273" stroke="none" target-height="318.99063" target-width="606.6357" target-x="224.73927" target-y="480.49802"></path></g><path d="M 540.66 690.57 L 550.82 690.83 L 560.75 691.57 L 570.45 692.77 L 579.95 694.43 L 589.40 696.57 L 598.56 699.11 L 607.46 702.06 L 616.09 705.42 L 624.59 709.22 L 632.75 713.36 L 640.59 717.85 L 648.11 722.69 L 655.41 727.93 L 662.31 733.45 L 668.85 739.27 L 675.02 745.38 L 680.86 751.83 L 686.27 758.52 L 691.25 765.45 L 695.81 772.63 L 684.76 776.70 L 673.13 780.49 L 660.88 783.99 L 647.99 787.18 L 634.42 790.06 L 620.16 792.61 L 606.45 794.63 L 592.10 796.33 L 577.08 797.67 L 561.37 798.66 L 544.95 799.27 L 527.78 799.49 L 510.14 799.12 L 493.40 798.32 L 477.53 797.11 L 462.48 795.53 L 448.23 793.58 L 433.51 791.10 L 419.61 788.31 L 406.47 785.22 L 394.06 781.84 L 382.36 778.19 L 382.37 778.18 L 386.77 770.55 L 391.64 763.19 L 396.96 756.07 L 402.77 749.20 L 408.95 742.68 L 415.52 736.48 L 422.50 730.59 L 429.91 724.99 L 437.58 719.82 L 445.58 715.01 L 453.94 710.58 L 462.67 706.51 L 471.56 702.91 L 480.72 699.75 L 490.18 697.01 L 499.96 694.72 L 509.78 692.93 L 519.83 691.64 L 530.12 690.85 L 540.66 690.57 Z" fill="url(#linearGradient-12)" fill-rule="evenodd" group-id="1,2,8" id="形状结合" node-id="87" stroke="none" target-height="108.91492" target-width="313.45367" target-x="382.3592" target-y="690.5737"></path><path d="M 591.87 494.72 L 582.37 498.78 L 573.06 502.15 L 563.93 504.86 L 554.95 506.94 L 546.11 508.41 L 537.39 509.28 L 528.76 509.58 L 520.05 509.29 L 511.38 508.42 L 502.72 506.95 L 494.04 504.88 L 485.34 502.20 L 476.60 498.87 L 467.79 494.89 L 465.30 493.91 L 451.36 489.83 L 434.28 485.21 L 418.15 481.27 L 405.52 478.52 L 389.92 475.54 L 375.30 473.25 L 361.61 471.60 L 348.79 470.54 L 336.79 470.04 L 325.58 470.06 L 315.09 470.55 L 305.06 471.54 L 295.72 472.98 L 287.03 474.85 L 278.93 477.13 L 271.39 479.80 L 264.37 482.84 L 257.84 486.25 L 251.77 490.02 L 245.85 494.38 L 240.39 499.16 L 235.37 504.37 L 230.78 510.04 L 226.59 516.18 L 222.81 522.83 L 219.44 530.03 L 216.49 537.81 L 213.88 546.39 L 211.74 555.11 L 210.09 563.99 L 208.91 573.03 L 208.22 582.11 L 208.00 591.25 L 208.27 600.48 L 209.02 609.80 L 210.24 619.05 L 211.94 628.29 L 214.12 637.53 L 216.81 646.79 L 219.93 655.88 L 223.55 664.88 L 227.65 673.80 L 232.27 682.66 L 237.29 691.25 L 242.81 699.67 L 248.84 707.95 L 255.39 716.07 L 263.13 724.73 L 271.41 733.05 L 280.23 741.03 L 289.62 748.68 L 299.60 756.01 L 310.18 763.01 L 321.41 769.67 L 332.52 775.60 L 344.22 781.18 L 356.52 786.41 L 369.47 791.29 L 383.08 795.79 L 397.39 799.92 L 412.42 803.65 L 426.83 806.69 L 441.87 809.33 L 457.58 811.55 L 473.99 813.35 L 491.12 814.71 L 509.00 815.60 L 527.66 816.00 L 545.74 815.76 L 563.08 815.08 L 579.72 813.99 L 595.68 812.49 L 610.98 810.61 L 625.66 808.35 L 639.74 805.74 L 654.47 802.50 L 668.49 798.89 L 681.84 794.93 L 694.54 790.62 L 706.62 785.98 L 718.10 781.02 L 729.03 775.74 L 740.13 769.74 L 750.61 763.43 L 760.47 756.80 L 769.75 749.86 L 778.47 742.61 L 786.65 735.04 L 794.31 727.15 L 801.63 718.74 L 808.39 710.02 L 814.62 700.96 L 820.33 691.56 L 825.52 681.80 L 830.20 671.67 L 834.38 661.14 L 837.90 650.62 L 840.91 639.72 L 843.41 628.43 L 845.38 616.72 L 846.81 604.58 L 847.69 591.97 L 848.00 578.87 L 847.76 569.85 L 847.11 561.37 L 846.06 553.39 L 844.65 545.89 L 842.87 538.83 L 840.76 532.18 L 838.12 525.43 L 835.15 519.12 L 831.85 513.20 L 828.22 507.66 L 824.26 502.48 L 819.96 497.64 L 815.31 493.10 L 810.35 488.89 L 805.05 485.00 L 799.42 481.42 L 793.41 478.15 L 787.03 475.20 L 779.33 472.24 L 771.15 469.70 L 762.45 467.60 L 753.20 465.96 L 743.36 464.79 L 735.01 464.23 L 726.39 464.00 L 717.47 464.12 L 708.26 464.59 L 696.07 465.70 L 683.69 467.34 L 671.09 469.52 L 658.58 472.17 L 646.19 475.26 L 633.92 478.80 L 621.77 482.76 L 610.07 487.04 L 598.80 491.64 L 591.87 494.72 Z M 593.37 512.13 L 604.03 507.39 L 609.48 505.09 L 618.15 501.69 L 624.22 499.48 L 633.71 496.27 L 640.27 494.22 L 646.99 492.26 L 653.85 490.41 L 660.84 488.67 L 667.92 487.07 L 675.09 485.61 L 682.32 484.30 L 689.60 483.16 L 696.90 482.21 L 700.55 481.81 L 707.85 481.16 L 715.13 480.72 L 722.35 480.51 L 729.52 480.55 L 737.77 480.91 L 745.77 481.64 L 753.54 482.75 L 761.09 484.22 L 768.58 486.15 L 775.71 488.53 L 782.50 491.34 L 788.97 494.60 L 793.95 497.58 L 798.66 500.90 L 803.11 504.56 L 807.30 508.58 L 811.26 512.97 L 814.80 517.58 L 818.05 522.62 L 821.01 528.11 L 823.67 534.11 L 826.03 540.63 L 827.84 547.04 L 829.31 554.02 L 830.41 561.61 L 831.11 569.88 L 831.37 578.87 L 831.11 590.66 L 830.34 602.07 L 829.07 613.09 L 827.32 623.75 L 825.09 634.08 L 822.40 644.09 L 819.24 653.79 L 815.51 663.46 L 811.30 672.80 L 806.60 681.82 L 801.41 690.54 L 795.73 698.97 L 789.54 707.12 L 782.83 715.00 L 775.81 722.37 L 768.28 729.46 L 760.22 736.28 L 751.59 742.83 L 742.39 749.10 L 732.57 755.10 L 722.12 760.81 L 711.90 765.82 L 701.08 770.54 L 689.65 774.96 L 677.57 779.09 L 664.80 782.90 L 651.33 786.39 L 637.11 789.54 L 623.62 792.05 L 609.47 794.23 L 594.63 796.06 L 579.07 797.51 L 562.76 798.58 L 545.68 799.25 L 527.78 799.49 L 510.93 799.14 L 494.92 798.41 L 479.69 797.30 L 465.21 795.85 L 451.46 794.06 L 437.29 791.79 L 423.86 789.22 L 411.14 786.37 L 399.09 783.26 L 387.68 779.90 L 376.03 776.02 L 365.03 771.94 L 354.66 767.65 L 344.87 763.18 L 335.66 758.52 L 326.37 753.36 L 317.65 748.08 L 309.46 742.66 L 301.79 737.11 L 294.61 731.44 L 285.82 723.79 L 277.78 716.03 L 270.44 708.16 L 263.78 700.17 L 257.49 691.73 L 251.85 683.27 L 246.82 674.77 L 242.38 666.22 L 239.27 659.47 L 236.45 652.64 L 233.97 645.84 L 231.81 639.07 L 229.92 632.21 L 228.34 625.41 L 227.07 618.67 L 226.06 611.92 L 225.14 602.58 L 224.73 593.48 L 224.82 584.59 L 225.40 575.90 L 226.11 569.63 L 227.66 560.36 L 229.72 551.51 L 232.26 543.04 L 234.81 536.36 L 237.76 530.19 L 241.12 524.48 L 244.88 519.21 L 249.06 514.35 L 253.66 509.87 L 258.72 505.77 L 264.26 502.02 L 270.31 498.64 L 276.92 495.63 L 284.14 493.00 L 292.01 490.76 L 300.59 488.96 L 309.94 487.61 L 320.12 486.75 L 331.19 486.44 L 343.23 486.70 L 356.30 487.61 L 370.48 489.20 L 385.84 491.55 L 402.46 494.71 L 420.43 498.76 L 439.83 503.76 L 453.48 507.63 L 460.46 509.71 L 469.85 513.96 L 479.19 517.55 L 488.49 520.48 L 497.76 522.79 L 507.04 524.48 L 516.33 525.57 L 525.65 526.06 L 535.02 525.95 L 544.46 525.24 L 553.99 523.91 L 563.63 521.96 L 573.39 519.36 L 583.30 516.09 L 593.37 512.13 Z" fill="#ac361e" fill-rule="nonzero" group-id="1,2,8" id="路径-43" node-id="88" stroke="none" target-height="351.9962" target-width="639.9994" target-x="208.00063" target-y="464.0038"></path><path d="M 598.85 509.71 L 606.88 506.17 L 615.78 502.60 L 625.60 498.99 L 635.50 495.69 L 645.94 492.56 L 656.94 489.62 L 668.03 487.04 L 679.31 484.83 L 690.82 482.99 L 702.37 481.62 L 713.82 480.79 L 725.15 480.50 L 733.68 480.68 L 741.97 481.25 L 750.03 482.20 L 757.88 483.53 L 765.68 485.33 L 773.11 487.60 L 780.18 490.32 L 786.93 493.49 L 792.14 496.43 L 797.07 499.72 L 801.72 503.36 L 806.11 507.38 L 810.24 511.77 L 813.96 516.41 L 817.37 521.49 L 820.47 527.06 L 823.27 533.13 L 825.75 539.76 L 827.66 546.28 L 829.20 553.40 L 830.36 561.17 L 831.10 569.64 L 831.37 578.87 L 831.07 591.60 L 812.35 586.41 L 792.96 581.61 L 772.87 577.20 L 752.05 573.20 L 730.50 569.62 L 708.18 566.47 L 685.06 563.76 L 661.12 561.52 L 636.34 559.76 L 610.69 558.49 L 584.14 557.73 L 556.67 557.51 L 528.24 557.84 L 498.83 558.73 L 468.41 560.22 L 436.96 562.31 L 404.43 565.04 L 370.81 568.43 L 336.06 572.49 L 300.14 577.26 L 263.04 582.75 L 224.72 588.99 L 225.02 580.81 L 225.71 572.87 L 226.79 565.14 L 228.27 557.48 L 230.09 550.12 L 232.26 543.04 L 234.80 536.37 L 237.76 530.20 L 241.11 524.50 L 244.87 519.23 L 249.04 514.37 L 253.64 509.90 L 258.69 505.79 L 264.22 502.05 L 270.26 498.67 L 276.87 495.65 L 284.07 493.02 L 291.93 490.78 L 300.50 488.97 L 309.84 487.62 L 320.00 486.76 L 331.06 486.44 L 343.08 486.70 L 356.14 487.59 L 370.30 489.18 L 385.64 491.51 L 402.25 494.67 L 420.19 498.70 L 439.57 503.69 L 460.46 509.71 L 469.56 513.84 L 478.61 517.34 L 487.62 520.24 L 496.62 522.54 L 505.60 524.26 L 514.60 525.42 L 523.63 526.01 L 532.70 526.03 L 541.83 525.50 L 551.03 524.39 L 560.34 522.69 L 569.76 520.40 L 579.30 517.49 L 588.99 513.93 L 598.85 509.71 Z" fill="url(#linearGradient-13)" fill-rule="evenodd" group-id="1,2,8" id="形状结合" node-id="89" stroke="none" target-height="111.1019" target-width="606.6554" target-x="224.71951" target-y="480.49802"></path></g><g node-id="321"><g node-id="330"><path d="M 368.00 840.00 L 367.76 846.93 L 367.10 853.67 L 366.04 860.23 L 364.57 866.63 L 362.70 872.87 L 359.80 880.53 L 356.37 887.83 L 352.42 894.78 L 347.93 901.42 L 342.94 907.70 L 337.54 913.54 L 331.70 918.94 L 325.42 923.93 L 318.78 928.42 L 311.83 932.37 L 304.53 935.80 L 296.87 938.70 L 290.63 940.57 L 284.23 942.04 L 277.67 943.10 L 270.93 943.76 L 264.00 944.00 L 257.07 943.76 L 250.33 943.10 L 243.77 942.04 L 237.37 940.57 L 231.13 938.70 L 223.47 935.80 L 216.17 932.37 L 209.22 928.42 L 202.58 923.93 L 196.30 918.94 L 190.46 913.54 L 185.06 907.70 L 180.07 901.42 L 175.58 894.78 L 171.63 887.83 L 168.20 880.53 L 165.30 872.87 L 163.43 866.63 L 161.96 860.23 L 160.90 853.67 L 160.24 846.93 L 160.00 840.00 L 160.24 833.07 L 160.90 826.33 L 161.96 819.77 L 163.43 813.37 L 165.30 807.13 L 168.20 799.47 L 171.63 792.17 L 175.58 785.22 L 180.07 778.58 L 185.06 772.30 L 190.46 766.46 L 196.30 761.06 L 202.58 756.07 L 209.22 751.58 L 216.17 747.63 L 223.47 744.20 L 231.13 741.30 L 237.37 739.43 L 243.77 737.96 L 250.33 736.90 L 257.07 736.24 L 264.00 736.00 L 270.93 736.24 L 277.67 736.90 L 284.23 737.96 L 290.63 739.43 L 296.87 741.30 L 304.53 744.20 L 311.83 747.63 L 318.78 751.58 L 325.42 756.07 L 331.70 761.06 L 337.54 766.46 L 342.94 772.30 L 347.93 778.58 L 352.42 785.22 L 356.37 792.17 L 359.80 799.47 L 362.70 807.13 L 364.57 813.37 L 366.04 819.77 L 367.10 826.33 L 367.76 833.07 L 368.00 840.00 Z" fill="#000000" fill-rule="evenodd" filter="url(#filter-16)" group-id="1,2,9,18" node-id="284" stroke="none" target-height="208" target-width="208" target-x="160" target-y="736"></path></g><g node-id="331"><path d="M 368.00 840.00 L 367.76 846.93 L 367.10 853.67 L 366.04 860.23 L 364.57 866.63 L 362.70 872.87 L 359.80 880.53 L 356.37 887.83 L 352.42 894.78 L 347.93 901.42 L 342.94 907.70 L 337.54 913.54 L 331.70 918.94 L 325.42 923.93 L 318.78 928.42 L 311.83 932.37 L 304.53 935.80 L 296.87 938.70 L 290.63 940.57 L 284.23 942.04 L 277.67 943.10 L 270.93 943.76 L 264.00 944.00 L 257.07 943.76 L 250.33 943.10 L 243.77 942.04 L 237.37 940.57 L 231.13 938.70 L 223.47 935.80 L 216.17 932.37 L 209.22 928.42 L 202.58 923.93 L 196.30 918.94 L 190.46 913.54 L 185.06 907.70 L 180.07 901.42 L 175.58 894.78 L 171.63 887.83 L 168.20 880.53 L 165.30 872.87 L 163.43 866.63 L 161.96 860.23 L 160.90 853.67 L 160.24 846.93 L 160.00 840.00 L 160.24 833.07 L 160.90 826.33 L 161.96 819.77 L 163.43 813.37 L 165.30 807.13 L 168.20 799.47 L 171.63 792.17 L 175.58 785.22 L 180.07 778.58 L 185.06 772.30 L 190.46 766.46 L 196.30 761.06 L 202.58 756.07 L 209.22 751.58 L 216.17 747.63 L 223.47 744.20 L 231.13 741.30 L 237.37 739.43 L 243.77 737.96 L 250.33 736.90 L 257.07 736.24 L 264.00 736.00 L 270.93 736.24 L 277.67 736.90 L 284.23 737.96 L 290.63 739.43 L 296.87 741.30 L 304.53 744.20 L 311.83 747.63 L 318.78 751.58 L 325.42 756.07 L 331.70 761.06 L 337.54 766.46 L 342.94 772.30 L 347.93 778.58 L 352.42 785.22 L 356.37 792.17 L 359.80 799.47 L 362.70 807.13 L 364.57 813.37 L 366.04 819.77 L 367.10 826.33 L 367.76 833.07 L 368.00 840.00 Z" fill="url(#radialGradient-14)" fill-rule="evenodd" group-id="1,2,9,19" node-id="289" stroke="none" target-height="208" target-width="208" target-x="160" target-y="736"></path></g><path d="M 368.00 840.00 L 367.76 846.93 L 367.10 853.67 L 366.04 860.23 L 364.57 866.63 L 362.70 872.87 L 359.80 880.53 L 356.37 887.83 L 352.42 894.78 L 347.93 901.42 L 342.94 907.70 L 337.54 913.54 L 331.70 918.94 L 325.42 923.93 L 318.78 928.42 L 311.83 932.37 L 304.53 935.80 L 296.87 938.70 L 290.63 940.57 L 284.23 942.04 L 277.67 943.10 L 270.93 943.76 L 264.00 944.00 L 257.07 943.76 L 250.33 943.10 L 243.77 942.04 L 237.37 940.57 L 231.13 938.70 L 223.47 935.80 L 216.17 932.37 L 209.22 928.42 L 202.58 923.93 L 196.30 918.94 L 190.46 913.54 L 185.06 907.70 L 180.07 901.42 L 175.58 894.78 L 171.63 887.83 L 168.20 880.53 L 165.30 872.87 L 163.43 866.63 L 161.96 860.23 L 160.90 853.67 L 160.24 846.93 L 160.00 840.00 L 160.24 833.07 L 160.90 826.33 L 161.96 819.77 L 163.43 813.37 L 165.30 807.13 L 168.20 799.47 L 171.63 792.17 L 175.58 785.22 L 180.07 778.58 L 185.06 772.30 L 190.46 766.46 L 196.30 761.06 L 202.58 756.07 L 209.22 751.58 L 216.17 747.63 L 223.47 744.20 L 231.13 741.30 L 237.37 739.43 L 243.77 737.96 L 250.33 736.90 L 257.07 736.24 L 264.00 736.00 L 270.93 736.24 L 277.67 736.90 L 284.23 737.96 L 290.63 739.43 L 296.87 741.30 L 304.53 744.20 L 311.83 747.63 L 318.78 751.58 L 325.42 756.07 L 331.70 761.06 L 337.54 766.46 L 342.94 772.30 L 347.93 778.58 L 352.42 785.22 L 356.37 792.17 L 359.80 799.47 L 362.70 807.13 L 364.57 813.37 L 366.04 819.77 L 367.10 826.33 L 367.76 833.07 L 368.00 840.00 Z" fill="#000000" fill-rule="evenodd" filter="url(#filter-17)" group-id="1,2,9,20" node-id="294" stroke="none" target-height="208" target-width="208" target-x="160" target-y="736"></path></g><g node-id="322"><g node-id="333"><path d="M 912.00 840.00 L 911.76 846.93 L 911.10 853.67 L 910.04 860.23 L 908.57 866.63 L 906.70 872.87 L 903.80 880.53 L 900.37 887.83 L 896.42 894.78 L 891.93 901.42 L 886.94 907.70 L 881.54 913.54 L 875.70 918.94 L 869.42 923.93 L 862.78 928.42 L 855.83 932.37 L 848.53 935.80 L 840.87 938.70 L 834.63 940.57 L 828.23 942.04 L 821.67 943.10 L 814.93 943.76 L 808.00 944.00 L 801.07 943.76 L 794.33 943.10 L 787.77 942.04 L 781.37 940.57 L 775.13 938.70 L 767.47 935.80 L 760.17 932.37 L 753.22 928.42 L 746.58 923.93 L 740.30 918.94 L 734.46 913.54 L 729.06 907.70 L 724.07 901.42 L 719.58 894.78 L 715.63 887.83 L 712.20 880.53 L 709.30 872.87 L 707.43 866.63 L 705.96 860.23 L 704.90 853.67 L 704.24 846.93 L 704.00 840.00 L 704.24 833.07 L 704.90 826.33 L 705.96 819.77 L 707.43 813.37 L 709.30 807.13 L 712.20 799.47 L 715.63 792.17 L 719.58 785.22 L 724.07 778.58 L 729.06 772.30 L 734.46 766.46 L 740.30 761.06 L 746.58 756.07 L 753.22 751.58 L 760.17 747.63 L 767.47 744.20 L 775.13 741.30 L 781.37 739.43 L 787.77 737.96 L 794.33 736.90 L 801.07 736.24 L 808.00 736.00 L 814.93 736.24 L 821.67 736.90 L 828.23 737.96 L 834.63 739.43 L 840.87 741.30 L 848.53 744.20 L 855.83 747.63 L 862.78 751.58 L 869.42 756.07 L 875.70 761.06 L 881.54 766.46 L 886.94 772.30 L 891.93 778.58 L 896.42 785.22 L 900.37 792.17 L 903.80 799.47 L 906.70 807.13 L 908.57 813.37 L 910.04 819.77 L 911.10 826.33 L 911.76 833.07 L 912.00 840.00 Z" fill="#000000" fill-rule="evenodd" filter="url(#filter-19)" group-id="1,2,10,21" node-id="301" stroke="none" target-height="208" target-width="208" target-x="704" target-y="736"></path></g><g node-id="334"><path d="M 912.00 840.00 L 911.76 846.93 L 911.10 853.67 L 910.04 860.23 L 908.57 866.63 L 906.70 872.87 L 903.80 880.53 L 900.37 887.83 L 896.42 894.78 L 891.93 901.42 L 886.94 907.70 L 881.54 913.54 L 875.70 918.94 L 869.42 923.93 L 862.78 928.42 L 855.83 932.37 L 848.53 935.80 L 840.87 938.70 L 834.63 940.57 L 828.23 942.04 L 821.67 943.10 L 814.93 943.76 L 808.00 944.00 L 801.07 943.76 L 794.33 943.10 L 787.77 942.04 L 781.37 940.57 L 775.13 938.70 L 767.47 935.80 L 760.17 932.37 L 753.22 928.42 L 746.58 923.93 L 740.30 918.94 L 734.46 913.54 L 729.06 907.70 L 724.07 901.42 L 719.58 894.78 L 715.63 887.83 L 712.20 880.53 L 709.30 872.87 L 707.43 866.63 L 705.96 860.23 L 704.90 853.67 L 704.24 846.93 L 704.00 840.00 L 704.24 833.07 L 704.90 826.33 L 705.96 819.77 L 707.43 813.37 L 709.30 807.13 L 712.20 799.47 L 715.63 792.17 L 719.58 785.22 L 724.07 778.58 L 729.06 772.30 L 734.46 766.46 L 740.30 761.06 L 746.58 756.07 L 753.22 751.58 L 760.17 747.63 L 767.47 744.20 L 775.13 741.30 L 781.37 739.43 L 787.77 737.96 L 794.33 736.90 L 801.07 736.24 L 808.00 736.00 L 814.93 736.24 L 821.67 736.90 L 828.23 737.96 L 834.63 739.43 L 840.87 741.30 L 848.53 744.20 L 855.83 747.63 L 862.78 751.58 L 869.42 756.07 L 875.70 761.06 L 881.54 766.46 L 886.94 772.30 L 891.93 778.58 L 896.42 785.22 L 900.37 792.17 L 903.80 799.47 L 906.70 807.13 L 908.57 813.37 L 910.04 819.77 L 911.10 826.33 L 911.76 833.07 L 912.00 840.00 Z" fill="url(#radialGradient-14)" fill-rule="evenodd" group-id="1,2,10,22" node-id="306" stroke="none" target-height="208" target-width="208" target-x="704" target-y="736"></path></g><path d="M 912.00 840.00 L 911.76 846.93 L 911.10 853.67 L 910.04 860.23 L 908.57 866.63 L 906.70 872.87 L 903.80 880.53 L 900.37 887.83 L 896.42 894.78 L 891.93 901.42 L 886.94 907.70 L 881.54 913.54 L 875.70 918.94 L 869.42 923.93 L 862.78 928.42 L 855.83 932.37 L 848.53 935.80 L 840.87 938.70 L 834.63 940.57 L 828.23 942.04 L 821.67 943.10 L 814.93 943.76 L 808.00 944.00 L 801.07 943.76 L 794.33 943.10 L 787.77 942.04 L 781.37 940.57 L 775.13 938.70 L 767.47 935.80 L 760.17 932.37 L 753.22 928.42 L 746.58 923.93 L 740.30 918.94 L 734.46 913.54 L 729.06 907.70 L 724.07 901.42 L 719.58 894.78 L 715.63 887.83 L 712.20 880.53 L 709.30 872.87 L 707.43 866.63 L 705.96 860.23 L 704.90 853.67 L 704.24 846.93 L 704.00 840.00 L 704.24 833.07 L 704.90 826.33 L 705.96 819.77 L 707.43 813.37 L 709.30 807.13 L 712.20 799.47 L 715.63 792.17 L 719.58 785.22 L 724.07 778.58 L 729.06 772.30 L 734.46 766.46 L 740.30 761.06 L 746.58 756.07 L 753.22 751.58 L 760.17 747.63 L 767.47 744.20 L 775.13 741.30 L 781.37 739.43 L 787.77 737.96 L 794.33 736.90 L 801.07 736.24 L 808.00 736.00 L 814.93 736.24 L 821.67 736.90 L 828.23 737.96 L 834.63 739.43 L 840.87 741.30 L 848.53 744.20 L 855.83 747.63 L 862.78 751.58 L 869.42 756.07 L 875.70 761.06 L 881.54 766.46 L 886.94 772.30 L 891.93 778.58 L 896.42 785.22 L 900.37 792.17 L 903.80 799.47 L 906.70 807.13 L 908.57 813.37 L 910.04 819.77 L 911.10 826.33 L 911.76 833.07 L 912.00 840.00 Z" fill="#000000" fill-rule="evenodd" filter="url(#filter-20)" group-id="1,2,10,23" node-id="311" stroke="none" target-height="208" target-width="208" target-x="704" target-y="736"></path></g></g></g></svg>