<svg xmlns:xlink="http://www.w3.org/1999/xlink" xmlns="http://www.w3.org/2000/svg" version="1.1" viewBox="0 0 1024 1024" height="1024px" width="1024px">
    <title>睡</title>
    <defs>
        <radialGradient id="radialGradient-1" gradientTransform="translate(0.500000,0.196690),scale(0.912281,1.000000),rotate(90.000000),translate(-0.500000,-0.196690)" r="93.9392347%" fy="19.6689915%" fx="50%" cy="19.6689915%" cx="50%">
            <stop offset="0%" stop-color="#FFE476"></stop>
            <stop offset="41.3872668%" stop-color="#FCEC6C"></stop>
            <stop offset="100%" stop-color="#FFB02F"></stop>
        </radialGradient>
        <path id="path-2" d="M422.860526,0.378695283 C542.065472,-5.36663195 644.761001,54.6787561 694.047405,152.068162 C826.943351,211.197291 934.794668,352.582382 907.841115,509.747769 C887.627441,627.613119 823.200132,713.730518 728.885037,766.375369 C682.431467,796.437155 616.2001,817.754861 517.849854,827.528265 C238.3427,855.303857 16.9816436,754.504609 0.821620894,502.216832 C-7.14599909,377.82758 43.4225884,293.954402 126.973967,240.88301 C157.596783,85.8704329 269.83599,7.75402708 422.860526,0.378695283 Z"></path>
        <filter id="filter-3" filterUnits="objectBoundingBox" height="117.3%" width="115.8%" y="-8.7%" x="-7.9%">
            <feGaussianBlur result="shadowBlurInner1" in="SourceAlpha" stdDeviation="64"></feGaussianBlur>
            <feOffset result="shadowOffsetInner1" in="shadowBlurInner1" dy="16" dx="0"></feOffset>
            <feComposite result="shadowInnerInner1" k3="1" k2="-1" operator="arithmetic" in2="SourceAlpha" in="shadowOffsetInner1"></feComposite>
            <feColorMatrix in="shadowInnerInner1" type="matrix" values="0 0 0 0 0.968627451   0 0 0 0 0.68627451   0 0 0 0 0.270588235  0 0 0 0.501145583 0"></feColorMatrix>
        </filter>
        <filter id="filter-4" filterUnits="objectBoundingBox" height="280.0%" width="263.6%" y="-90.0%" x="-81.8%">
            <feGaussianBlur in="SourceGraphic" stdDeviation="48"></feGaussianBlur>
        </filter>
        <filter id="filter-5" filterUnits="objectBoundingBox" height="280.0%" width="263.6%" y="-90.0%" x="-81.8%">
            <feGaussianBlur in="SourceGraphic" stdDeviation="48"></feGaussianBlur>
        </filter>
        <path id="path-6" d="M390.530858,412.091281 C390.530858,412.091281 390.530858,412.091281 390.530858,412.091281 C390.530858,468.973216 333.223306,512 262.530858,512 C191.83841,512 134.530858,468.973216 134.530858,412.091281 C134.530858,411.980737 134.531323,411.86936 134.532255,411.75715 L134.532289,411.757151 C134.574016,406.730046 138.683115,402.688599 143.71022,402.730326 C146.645446,402.754689 149.388798,404.192998 151.078326,406.59334 C151.078326,406.59334 151.078326,406.59334 151.078326,406.59334 C173.066379,437.832169 214.739973,462.432146 262.530858,462.432146 C306.435664,462.432146 345.177578,441.120137 368.234419,414.013634 C369.847779,412.116906 371.550125,409.784181 373.341456,407.01546 L373.341482,407.015476 C376.144771,402.682649 381.929737,401.442714 386.262564,404.246004 C388.923902,405.967859 390.530858,408.921502 390.530858,412.091281 Z"></path>
        <filter id="filter-7" filterUnits="objectBoundingBox" height="200.0%" width="150.0%" y="-75.0%" x="-25.0%">
            <feOffset result="shadowOffsetOuter1" in="SourceAlpha" dy="-32" dx="0"></feOffset>
            <feGaussianBlur result="shadowBlurOuter1" in="shadowOffsetOuter1" stdDeviation="16"></feGaussianBlur>
            <feColorMatrix in="shadowBlurOuter1" type="matrix" values="0 0 0 0 0.992130003   0 0 0 0 0.908224634   0 0 0 0 0.72790426  0 0 0 0.5 0"></feColorMatrix>
        </filter>
        <filter id="filter-8" filterUnits="objectBoundingBox" height="175.0%" width="137.5%" y="-62.5%" x="-18.8%">
            <feGaussianBlur result="shadowBlurInner1" in="SourceAlpha" stdDeviation="8"></feGaussianBlur>
            <feOffset result="shadowOffsetInner1" in="shadowBlurInner1" dy="16" dx="0"></feOffset>
            <feComposite result="shadowInnerInner1" k3="1" k2="-1" operator="arithmetic" in2="SourceAlpha" in="shadowOffsetInner1"></feComposite>
            <feColorMatrix in="shadowInnerInner1" type="matrix" values="0 0 0 0 0.356862745   0 0 0 0 0.145098039   0 0 0 0 0  0 0 0 0.913061182 0"></feColorMatrix>
        </filter>
        <path id="path-9" d="M774.530858,412.091281 C774.530858,412.091281 774.530858,412.091281 774.530858,412.091281 C774.530858,468.973216 717.223306,512 646.530858,512 C575.83841,512 518.530858,468.973216 518.530858,412.091281 C518.530858,411.980737 518.531323,411.86936 518.532255,411.75715 L518.532289,411.757151 C518.574016,406.730046 522.683115,402.688599 527.71022,402.730326 C530.645446,402.754689 533.388798,404.192998 535.078326,406.59334 C535.078326,406.59334 535.078326,406.59334 535.078326,406.59334 C557.066379,437.832169 598.739973,462.432146 646.530858,462.432146 C690.435664,462.432146 729.177578,441.120137 752.234419,414.013634 C753.847779,412.116906 755.550125,409.784181 757.341456,407.01546 L757.341482,407.015476 C760.144771,402.682649 765.929737,401.442714 770.262564,404.246004 C772.923902,405.967859 774.530858,408.921502 774.530858,412.091281 Z"></path>
        <filter id="filter-10" filterUnits="objectBoundingBox" height="200.0%" width="150.0%" y="-75.0%" x="-25.0%">
            <feOffset result="shadowOffsetOuter1" in="SourceAlpha" dy="-32" dx="0"></feOffset>
            <feGaussianBlur result="shadowBlurOuter1" in="shadowOffsetOuter1" stdDeviation="16"></feGaussianBlur>
            <feColorMatrix in="shadowBlurOuter1" type="matrix" values="0 0 0 0 0.992130003   0 0 0 0 0.908224634   0 0 0 0 0.72790426  0 0 0 0.5 0"></feColorMatrix>
        </filter>
        <filter id="filter-11" filterUnits="objectBoundingBox" height="175.0%" width="137.5%" y="-62.5%" x="-18.8%">
            <feGaussianBlur result="shadowBlurInner1" in="SourceAlpha" stdDeviation="8"></feGaussianBlur>
            <feOffset result="shadowOffsetInner1" in="shadowBlurInner1" dy="16" dx="0"></feOffset>
            <feComposite result="shadowInnerInner1" k3="1" k2="-1" operator="arithmetic" in2="SourceAlpha" in="shadowOffsetInner1"></feComposite>
            <feColorMatrix in="shadowInnerInner1" type="matrix" values="0 0 0 0 0.356862745   0 0 0 0 0.145098039   0 0 0 0 0  0 0 0 0.913061182 0"></feColorMatrix>
        </filter>
        <linearGradient id="linearGradient-12" y2="66.0819342%" x2="50%" y1="-1.42108547e-12%" x1="50%">
            <stop offset="0%" stop-color="#D4E5FF"></stop>
            <stop offset="100%" stop-color="#277DFF"></stop>
        </linearGradient>
        <path id="path-13" d="M698.644268,210.238745 L777.93682,105.411765 L719.152974,105.411765 C705.470779,104.542118 698.177498,97.6401568 697.273131,84.7058823 C698.192085,71.7578038 705.470779,64.8558431 719.152974,64 L834.022151,64 C844.962073,64.8696471 850.432034,69.6043922 850.432034,78.2318432 C850.432034,83.4083138 848.608713,88.1568628 844.962073,92.4774902 L765.640348,198.588235 L832.651014,198.588235 C846.33321,199.457882 853.626491,206.359843 854.530858,219.294118 C853.626491,232.242196 846.33321,239.144157 832.651014,240 L715.068737,240 C701.357369,239.130353 694.530858,233.525961 694.530858,223.17302 C694.530858,220.591686 695.449811,217.568627 697.273131,214.117647 C698.00941,212.928625 698.476341,211.60769 698.644268,210.238745 Z"></path>
        <filter id="filter-14" filterUnits="objectBoundingBox" height="163.6%" width="170.0%" y="-22.7%" x="-45.0%">
            <feOffset result="shadowOffsetOuter1" in="SourceAlpha" dy="16" dx="-16"></feOffset>
            <feGaussianBlur result="shadowBlurOuter1" in="shadowOffsetOuter1" stdDeviation="16"></feGaussianBlur>
            <feColorMatrix in="shadowBlurOuter1" type="matrix" values="0 0 0 0 0.796825464   0 0 0 0 0.564631529   0 0 0 0 0.0271455683  0 0 0 0.3 0"></feColorMatrix>
        </filter>
        <linearGradient id="linearGradient-15" y2="66.0819342%" x2="50%" y1="-1.42108547e-12%" x1="50%">
            <stop offset="0%" stop-color="#D4E5FF"></stop>
            <stop offset="100%" stop-color="#277DFF"></stop>
        </linearGradient>
        <path id="path-16" d="M562.468046,266.355451 L610.043577,190.117647 L574.77327,190.117647 C566.563953,189.485176 562.187984,184.465569 561.645364,175.058824 C562.196736,165.642039 566.563953,160.622431 574.77327,160 L643.694776,160 C650.258729,160.632471 653.540706,164.075922 653.540706,170.350431 C653.540706,174.115137 652.446713,177.568627 650.258729,180.710902 L602.665694,257.882353 L642.872094,257.882353 C651.081411,258.514824 655.45738,263.534431 656,272.941176 C655.45738,282.357961 651.081411,287.377569 642.872094,288 L572.322728,288 C564.095907,287.367529 560,283.291608 560,275.762196 C560,273.884863 560.551372,271.686275 561.645364,269.176471 C562.087131,268.311728 562.36729,267.351048 562.468046,266.355451 Z"></path>
        <filter id="filter-17" filterUnits="objectBoundingBox" height="187.5%" width="216.7%" y="-31.2%" x="-58.3%">
            <feOffset result="shadowOffsetOuter1" in="SourceAlpha" dy="16" dx="0"></feOffset>
            <feGaussianBlur result="shadowBlurOuter1" in="shadowOffsetOuter1" stdDeviation="16"></feGaussianBlur>
            <feColorMatrix in="shadowBlurOuter1" type="matrix" values="0 0 0 0 0.796825464   0 0 0 0 0.564631529   0 0 0 0 0.0271455683  0 0 0 0.3 0"></feColorMatrix>
        </filter>
        <path id="path-18" d="M446.530858,720 C477.526847,720 486.530858,698.509668 486.530858,672 C486.530858,645.490332 465.607665,624 446.530858,624 C427.45405,624 406.530858,645.490332 406.530858,672 C406.530858,698.509668 415.534868,720 446.530858,720 Z"></path>
        <filter id="filter-19" filterUnits="objectBoundingBox" height="200.0%" width="220.0%" y="-50.0%" x="-60.0%">
            <feOffset result="shadowOffsetOuter1" in="SourceAlpha" dy="0" dx="0"></feOffset>
            <feGaussianBlur result="shadowBlurOuter1" in="shadowOffsetOuter1" stdDeviation="16"></feGaussianBlur>
            <feColorMatrix in="shadowBlurOuter1" type="matrix" values="0 0 0 0 1   0 0 0 0 0.948503655   0 0 0 0 0.566824862  0 0 0 1 0"></feColorMatrix>
        </filter>
        <filter id="filter-20" filterUnits="objectBoundingBox" height="233.3%" width="260.0%" y="-66.7%" x="-80.0%">
            <feGaussianBlur result="shadowBlurInner1" in="SourceAlpha" stdDeviation="24"></feGaussianBlur>
            <feOffset result="shadowOffsetInner1" in="shadowBlurInner1" dy="16" dx="0"></feOffset>
            <feComposite result="shadowInnerInner1" k3="1" k2="-1" operator="arithmetic" in2="SourceAlpha" in="shadowOffsetInner1"></feComposite>
            <feColorMatrix in="shadowInnerInner1" type="matrix" values="0 0 0 0 0.389055335   0 0 0 0 0.164926276   0 0 0 0 0.00720582671  0 0 0 1 0"></feColorMatrix>
        </filter>
    </defs>
    <g fill-rule="evenodd" fill="none" stroke-width="1" stroke="none" id="上传尺寸">
        <g id="睡">
            <rect height="1024" width="1024" y="0" x="0" id="矩形备份-7"></rect>
            <g transform="translate(57.469142, 96.000000)" id="默认">
                <g id="形状结合">
                    <use xlink:href="#path-2" fill-rule="evenodd" fill="url(#radialGradient-1)"></use>
                    <use xlink:href="#path-2" filter="url(#filter-3)" fill-opacity="1" fill="black"></use>
                </g>
                <ellipse ry="80" rx="88" cy="576" cx="702.530858" filter="url(#filter-4)" fill="#FF5EA4" fill-opacity="0.6" id="椭圆形"></ellipse>
                <ellipse ry="80" rx="88" cy="576" cx="222.530858" filter="url(#filter-5)" fill="#FF5EA4" fill-opacity="0.6" id="椭圆形备份-6"></ellipse>
                <g id="路径">
                    <use xlink:href="#path-6" filter="url(#filter-7)" fill-opacity="1" fill="black"></use>
                    <use xlink:href="#path-6" fill-rule="evenodd" fill="#723004"></use>
                    <use xlink:href="#path-6" filter="url(#filter-8)" fill-opacity="1" fill="black"></use>
                </g>
                <g id="路径备份-8">
                    <use xlink:href="#path-9" filter="url(#filter-10)" fill-opacity="1" fill="black"></use>
                    <use xlink:href="#path-9" fill-rule="evenodd" fill="#723004"></use>
                    <use xlink:href="#path-9" filter="url(#filter-11)" fill-opacity="1" fill="black"></use>
                </g>
                <g transform="translate(774.530858, 152.000000) rotate(-15.000000) translate(-774.530858, -152.000000)" fill-rule="nonzero" id="路径">
                    <use xlink:href="#path-13" filter="url(#filter-14)" fill-opacity="1" fill="black"></use>
                    <use xlink:href="#path-13" fill="url(#linearGradient-12)"></use>
                </g>
                <g transform="translate(608.000000, 224.000000) rotate(-15.000000) translate(-608.000000, -224.000000)" fill-rule="nonzero" id="路径备份-9">
                    <use xlink:href="#path-16" filter="url(#filter-17)" fill-opacity="1" fill="black"></use>
                    <use xlink:href="#path-16" fill="url(#linearGradient-15)"></use>
                </g>
                <g id="椭圆形">
                    <use xlink:href="#path-18" filter="url(#filter-19)" fill-opacity="1" fill="black"></use>
                    <use xlink:href="#path-18" fill-rule="evenodd" fill="#A05400"></use>
                    <use xlink:href="#path-18" filter="url(#filter-20)" fill-opacity="1" fill="black"></use>
                </g>
            </g>
        </g>
    </g>
</svg>