<svg xmlns:xlink="http://www.w3.org/1999/xlink" xmlns="http://www.w3.org/2000/svg" version="1.1" viewBox="0 0 1025 1024" height="1024px" width="1025px">
    <title>恐惧</title>
    <defs>
        <radialGradient id="radialGradient-1" gradientTransform="translate(0.500000,0.196690),scale(0.929459,1.000000),rotate(90.000000),translate(-0.500000,-0.196690)" r="93.9392347%" fy="19.6689915%" fx="50%" cy="19.6689915%" cx="50%">
            <stop offset="0%" stop-color="#FFE476"></stop>
            <stop offset="41.3872668%" stop-color="#FCEC6C"></stop>
            <stop offset="100%" stop-color="#FFB02F"></stop>
        </radialGradient>
        <path id="path-2" d="M422.860526,0.378695283 C542.065472,-5.36663195 644.761001,54.6787561 694.047405,152.068162 C826.943351,211.197291 934.794668,352.582382 907.841115,509.747769 C888.821119,620.652814 830.47833,707.824951 744.931808,765.268912 C697.901867,804.545699 627.813662,832.667867 517.197846,843.660143 C237.690692,871.435735 16.9816436,754.504609 0.821620894,502.216832 C-7.14599909,377.82758 43.4225884,293.954402 126.973967,240.88301 C157.596783,85.8704329 269.83599,7.75402708 422.860526,0.378695283 Z"></path>
        <filter id="filter-3" filterUnits="objectBoundingBox" height="117.0%" width="115.8%" y="-8.5%" x="-7.9%">
            <feGaussianBlur result="shadowBlurInner1" in="SourceAlpha" stdDeviation="64"></feGaussianBlur>
            <feOffset result="shadowOffsetInner1" in="shadowBlurInner1" dy="16" dx="0"></feOffset>
            <feComposite result="shadowInnerInner1" k3="1" k2="-1" operator="arithmetic" in2="SourceAlpha" in="shadowOffsetInner1"></feComposite>
            <feColorMatrix in="shadowInnerInner1" type="matrix" values="0 0 0 0 0.968627451   0 0 0 0 0.68627451   0 0 0 0 0.270588235  0 0 0 0.501145583 0"></feColorMatrix>
        </filter>
        <filter id="filter-4" filterUnits="objectBoundingBox" height="325.0%" width="243.2%" y="-112.5%" x="-71.6%">
            <feGaussianBlur in="SourceGraphic" stdDeviation="48"></feGaussianBlur>
        </filter>
        <filter id="filter-5" filterUnits="objectBoundingBox" height="325.0%" width="243.2%" y="-112.5%" x="-71.6%">
            <feGaussianBlur in="SourceGraphic" stdDeviation="48"></feGaussianBlur>
        </filter>
        <linearGradient id="linearGradient-6" y2="100%" x2="50%" y1="0%" x1="50%">
            <stop offset="0%" stop-color="#FFFFFF"></stop>
            <stop offset="100%" stop-color="#FFEDBE"></stop>
        </linearGradient>
        <path id="path-7" d="M38.4731348,83.0709915 C72.027991,28.6483163 133.624857,4.1254154 176.937449,24.6338272 L180.318662,26.3413474 L183.056708,27.9035473 C224.164164,52.5717694 232.525313,115.132414 198.823448,169.791236 C164.386536,225.648954 100.419147,250.008369 56.9595447,226.52088 C13.5183184,203.015225 4.03622325,138.910545 38.4731348,83.0709915 L38.4731348,83.0709915 Z"></path>
        <path id="path-8" d="M585.521943,83.0709915 C551.967998,28.6483163 490.391181,4.1254154 447.061389,24.6338272 L443.680268,26.3413474 L440.942296,27.9035473 C399.835957,52.5717694 391.475035,115.132414 425.175985,169.791236 C459.611961,225.648954 523.577613,250.008369 567.036035,226.52088 C610.494458,203.015225 619.95792,138.910545 585.521943,83.0709915 L585.521943,83.0709915 Z"></path>
        <linearGradient id="linearGradient-9" y2="113.608226%" x2="50%" y1="19.6689915%" x1="50%">
            <stop offset="0%" stop-color="#FFE992"></stop>
            <stop offset="41.5154304%" stop-color="#FFF185"></stop>
            <stop offset="100%" stop-color="#FFB02F"></stop>
        </linearGradient>
        <path id="path-10" d="M0,390.059798 C0,412.380113 4.53070169,428.220336 16.6412836,455.45272 L21.7749298,466.74888 C32.4901245,490.477214 36.6935134,504.413411 36.6935134,521.933657 L36.6935134,633.135226 C36.6935134,663.439653 241.178022,663.439653 241.178022,633.119226 L241.178022,521.917657 C241.178022,466.07687 222.503953,428.460339 182.985211,402.843978 L172.218335,395.787878 L156.369493,385.115728 L123.035245,362.395408 L113.991069,356.443324 L106.566232,351.803258 L102.362843,349.323223 C100.581444,348.310093 98.7659568,347.349599 96.9191108,346.443182 C77.4181452,336.939048 54.4028705,333.306997 36.1077948,338.123065 C13.3336992,344.10715 0,362.027402 0,390.059798 Z"></path>
        <filter id="filter-11" filterUnits="objectBoundingBox" height="135.0%" width="146.4%" y="-22.5%" x="-16.6%">
            <feOffset result="shadowOffsetOuter1" in="SourceAlpha" dy="-16" dx="16"></feOffset>
            <feGaussianBlur result="shadowBlurOuter1" in="shadowOffsetOuter1" stdDeviation="16"></feGaussianBlur>
            <feColorMatrix in="shadowBlurOuter1" type="matrix" values="0 0 0 0 0.497746122   0 0 0 0 0.377865761   0 0 0 0 0.0524762104  0 0 0 0.462559413 0"></feColorMatrix>
        </filter>
        <filter id="filter-12" filterUnits="objectBoundingBox" height="155.0%" width="173.0%" y="-32.5%" x="-29.9%">
            <feGaussianBlur result="shadowBlurInner1" in="SourceAlpha" stdDeviation="32"></feGaussianBlur>
            <feOffset result="shadowOffsetInner1" in="shadowBlurInner1" dy="-48" dx="0"></feOffset>
            <feComposite result="shadowInnerInner1" k3="1" k2="-1" operator="arithmetic" in2="SourceAlpha" in="shadowOffsetInner1"></feComposite>
            <feColorMatrix in="shadowInnerInner1" type="matrix" values="0 0 0 0 0.898039216   0 0 0 0 0.560784314   0 0 0 0 0.0941176471  0 0 0 1 0"></feColorMatrix>
        </filter>
        <path id="path-13" d="M916.8,390.059798 C916.8,412.380113 912.269298,428.220336 900.158716,455.45272 L895.02507,466.74888 C884.309876,490.477214 880.106487,504.413411 880.106487,521.933657 L880.106487,633.135226 C880.106487,663.439653 675.621978,663.439653 675.621978,633.119226 L675.621978,521.917657 C675.621978,466.07687 694.296047,428.460339 733.814789,402.843978 L744.581665,395.787878 L760.430507,385.115728 L793.764755,362.395408 L802.808931,356.443324 L810.233768,351.803258 L814.437157,349.323223 L816.349354,348.267208 L819.880889,346.443182 C839.381855,336.939048 862.397129,333.306997 880.692205,338.123065 C903.466302,344.10715 916.8,362.027402 916.8,390.059798 Z"></path>
        <filter id="filter-14" filterUnits="objectBoundingBox" height="135.0%" width="146.4%" y="-22.5%" x="-29.9%">
            <feOffset result="shadowOffsetOuter1" in="SourceAlpha" dy="-16" dx="-16"></feOffset>
            <feGaussianBlur result="shadowBlurOuter1" in="shadowOffsetOuter1" stdDeviation="16"></feGaussianBlur>
            <feColorMatrix in="shadowBlurOuter1" type="matrix" values="0 0 0 0 0.497746122   0 0 0 0 0.377865761   0 0 0 0 0.0524762104  0 0 0 0.462559413 0"></feColorMatrix>
        </filter>
        <filter id="filter-15" filterUnits="objectBoundingBox" height="155.0%" width="173.0%" y="-32.5%" x="-43.1%">
            <feGaussianBlur result="shadowBlurInner1" in="SourceAlpha" stdDeviation="32"></feGaussianBlur>
            <feOffset result="shadowOffsetInner1" in="shadowBlurInner1" dy="-48" dx="0"></feOffset>
            <feComposite result="shadowInnerInner1" k3="1" k2="-1" operator="arithmetic" in2="SourceAlpha" in="shadowOffsetInner1"></feComposite>
            <feColorMatrix in="shadowInnerInner1" type="matrix" values="0 0 0 0 0.898039216   0 0 0 0 0.560784314   0 0 0 0 0.0941176471  0 0 0 1 0"></feColorMatrix>
        </filter>
    </defs>
    <g fill-rule="evenodd" fill="none" stroke-width="1" stroke="none" id="上传尺寸">
        <g id="恐惧">
            <rect height="1024" width="1024" y="0" x="0" id="矩形备份-7"></rect>
            <g transform="translate(57.469142, 80.000000)" id="默认">
                <g id="形状结合">
                    <use xlink:href="#path-2" fill-rule="evenodd" fill="url(#radialGradient-1)"></use>
                    <use xlink:href="#path-2" filter="url(#filter-3)" fill-opacity="1" fill="black"></use>
                </g>
                <ellipse ry="64" rx="100.571429" cy="488" cx="722.285714" filter="url(#filter-4)" fill="#FF5EA4" fill-opacity="0.8" id="椭圆形"></ellipse>
                <ellipse ry="64" rx="100.571429" cy="488" cx="228.571429" filter="url(#filter-5)" fill="#FF5EA4" fill-opacity="0.8" id="椭圆形备份-6"></ellipse>
                <g fill-rule="nonzero" transform="translate(4.130858, 208.000000)" id="编组">
                    <g transform="translate(144.000000, 0.000000)" id="编组-66">
                        <path fill="#894F04" id="路径" d="M216,401.552983 C216,447.282977 234.297496,489.539236 264,512.404234 C293.702503,535.269233 330.297497,535.269233 360,512.404234 C389.702504,489.539236 408,447.282977 408,401.552983 C408,330.860534 365.019336,273.552983 312,273.552983 C258.980664,273.552983 216,330.860534 216,401.552983 L216,401.552983 Z"></path>
                        <path fill="#894F04" id="路径" d="M23.4031256,73.8773837 C-15.4106569,136.908344 -5.22340834,212.617739 48.5973963,241.74924 C101.724445,270.465351 175.372046,241.442212 213.89372,178.898884 C251.77641,117.421121 243.067956,43.608074 192.113455,12.9956161 L189.046327,11.243753 C135.590657,-17.6890834 61.9248001,11.3521157 23.4031256,73.8773837 L23.4031256,73.8773837 Z"></path>
                        <g id="路径">
                            <use xlink:href="#path-7" fill="#FFFFFF"></use>
                            <use xlink:href="#path-7" fill="url(#linearGradient-6)"></use>
                        </g>
                        <path fill="#894F04" id="路径" d="M600.596874,73.8773837 C639.410657,136.908344 629.223408,212.617739 575.402604,241.74924 C522.275555,270.465351 448.627954,241.442212 410.10628,178.898884 C372.22359,117.421121 380.932044,43.608074 431.886545,12.9956161 L434.953673,11.243753 C488.409343,-17.6890834 562.0752,11.3521157 600.596874,73.8773837 L600.596874,73.8773837 Z"></path>
                        <g id="路径">
                            <use xlink:href="#path-8" fill="#FFFFFF"></use>
                            <use xlink:href="#path-8" fill="url(#linearGradient-6)"></use>
                        </g>
                    </g>
                    <g id="路径">
                        <use xlink:href="#path-10" filter="url(#filter-11)" fill-opacity="1" fill="black"></use>
                        <use xlink:href="#path-10" fill="url(#linearGradient-9)"></use>
                        <use xlink:href="#path-10" filter="url(#filter-12)" fill-opacity="1" fill="black"></use>
                    </g>
                    <g id="路径">
                        <use xlink:href="#path-13" filter="url(#filter-14)" fill-opacity="1" fill="black"></use>
                        <use xlink:href="#path-13" fill="#D38218"></use>
                        <use xlink:href="#path-13" fill="url(#linearGradient-9)"></use>
                        <use xlink:href="#path-13" filter="url(#filter-15)" fill-opacity="1" fill="black"></use>
                    </g>
                </g>
            </g>
        </g>
    </g>
</svg>