<?xml version="1.0" standalone="no"?><!DOCTYPE svg PUBLIC "-//W3C//DTD SVG 1.1//EN" "http://www.w3.org/Graphics/SVG/1.1/DTD/svg11.dtd"><svg height="1024" node-id="1" sillyvg="true" template-height="1024" template-width="1024" version="1.1" viewBox="0 0 1024 1024" width="1024" xmlns="http://www.w3.org/2000/svg" xmlns:xlink="http://www.w3.org/1999/xlink"><defs node-id="70"><radialGradient cx="0.5" cy="0.19668992" fx="0.5" fy="0.19668992" gradientTransform="matrix(0 1 -0.912281 0 0.67943655 -0.30331)" gradientUnits="objectBoundingBox" id="radialGradient-1" node-id="5" r="0.9393923" rev="2" spreadMethod="pad"><stop offset="0" stop-color="#ffe476"></stop><stop offset="0.41387266" stop-color="#fcec6c"></stop><stop offset="1" stop-color="#ffb02f"></stop></radialGradient><linearGradient gradientUnits="objectBoundingBox" id="linearGradient-10" node-id="29" spreadMethod="pad" x1="0.5" x2="0.5" y1="-0.000000000000014210855" y2="0.66081935"><stop offset="0" stop-color="#d4e5ff"></stop><stop offset="1" stop-color="#277dff"></stop></linearGradient><filter height="1.173" id="filter-3" node-id="10" width="1.158" x="-0.079" y="-0.087"><feGaussianBlur color-interpolation-filters="linearRGB" in="SourceAlpha" result="shadowBlurInner1" stdDeviation="64 64"></feGaussianBlur><feOffset color-interpolation-filters="linearRGB" dx="0" dy="16" in="shadowBlurInner1" result="shadowOffsetInner1"></feOffset><feComposite color-interpolation-filters="linearRGB" in="shadowOffsetInner1" in2="SourceAlpha" k1="0" k2="-1" k3="1" k4="0" operator="arithmetic" result="shadowInnerInner1"></feComposite><feColorMatrix color-interpolation-filters="linearRGB" in="shadowInnerInner1" result="result4" type="matrix" values="0 0 0 0 0.968627451 0 0 0 0 0.68627451 0 0 0 0 0.270588235 0 0 0 0.501145583 0"></feColorMatrix></filter><filter height="3.571" id="filter-6" node-id="17" width="2.636" x="-0.818" y="-1.286"><feGaussianBlur color-interpolation-filters="linearRGB" in="SourceGraphic" result="result1" stdDeviation="48 48"></feGaussianBlur></filter><filter height="4" id="filter-8" node-id="20" width="2" x="-0.5" y="-1.5"><feOffset color-interpolation-filters="linearRGB" dx="0" dy="0" in="SourceAlpha" result="shadowOffsetOuter1"></feOffset><feGaussianBlur color-interpolation-filters="linearRGB" in="shadowOffsetOuter1" result="shadowBlurOuter1" stdDeviation="16 16"></feGaussianBlur><feColorMatrix color-interpolation-filters="linearRGB" in="shadowBlurOuter1" result="result3" type="matrix" values="0 0 0 0 0.925243875 0 0 0 0 0.776569168 0 0 0 0 0.170857398 0 0 0 1 0"></feColorMatrix></filter><filter height="3.5" id="filter-9" node-id="24" width="1.833" x="-0.417" y="-1.25"><feGaussianBlur color-interpolation-filters="linearRGB" in="SourceAlpha" result="shadowBlurInner1" stdDeviation="8 8"></feGaussianBlur><feOffset color-interpolation-filters="linearRGB" dx="0" dy="0" in="shadowBlurInner1" result="shadowOffsetInner1"></feOffset><feComposite color-interpolation-filters="linearRGB" in="shadowOffsetInner1" in2="SourceAlpha" k1="0" k2="-1" k3="1" k4="0" operator="arithmetic" result="shadowInnerInner1"></feComposite><feColorMatrix color-interpolation-filters="linearRGB" in="shadowInnerInner1" result="result4" type="matrix" values="0 0 0 0 0.661258421 0 0 0 0 0.0872254633 0 0 0 0 0.00982776113 0 0 0 1 0"></feColorMatrix></filter><filter height="1.4" id="filter-12" node-id="33" width="1.571" x="-0.429" y="-0.2"><feOffset color-interpolation-filters="linearRGB" dx="-32" dy="0" in="SourceAlpha" result="shadowOffsetOuter1"></feOffset><feGaussianBlur color-interpolation-filters="linearRGB" in="shadowOffsetOuter1" result="shadowBlurOuter1" stdDeviation="16 16"></feGaussianBlur><feColorMatrix color-interpolation-filters="linearRGB" in="shadowBlurOuter1" result="result3" type="matrix" values="0 0 0 0 0.796825464 0 0 0 0 0.564631529 0 0 0 0 0.0271455683 0 0 0 0.3 0"></feColorMatrix></filter><filter height="1.35" id="filter-13" node-id="37" width="1.5" x="-0.393" y="-0.175"><feGaussianBlur color-interpolation-filters="linearRGB" in="SourceAlpha" result="shadowBlurInner1" stdDeviation="16 16"></feGaussianBlur><feOffset color-interpolation-filters="linearRGB" dx="0" dy="-16" in="shadowBlurInner1" result="shadowOffsetInner1"></feOffset><feComposite color-interpolation-filters="linearRGB" in="shadowOffsetInner1" in2="SourceAlpha" k1="0" k2="-1" k3="1" k4="0" operator="arithmetic" result="shadowInnerInner1"></feComposite><feColorMatrix color-interpolation-filters="linearRGB" in="shadowInnerInner1" result="result4" type="matrix" values="0 0 0 0 0.979451696 0 0 0 0 0.987806501 0 0 0 0 1 0 0 0 1 0"></feColorMatrix></filter><filter height="3.571" id="filter-14" node-id="42" width="2.636" x="-0.818" y="-1.286"><feGaussianBlur color-interpolation-filters="linearRGB" in="SourceGraphic" result="result1" stdDeviation="48 48"></feGaussianBlur></filter></defs><g node-id="219"><path d="M 0.00 0.00 L 1024.00 0.00 L 1024.00 1024.00 L 0.00 1024.00 Z" fill="none" group-id="1" id="矩形备份-3" node-id="46" stroke="none" target-height="1024" target-width="1024" target-x="0" target-y="0"></path><g node-id="220"><g node-id="221"><g node-id="228"><path d="M 454.86 96.38 L 469.27 96.01 L 483.38 96.26 L 497.21 97.12 L 510.78 98.56 L 524.11 100.60 L 537.45 103.25 L 550.45 106.45 L 563.14 110.18 L 575.52 114.44 L 587.62 119.24 L 599.55 124.62 L 611.10 130.48 L 622.29 136.81 L 633.13 143.63 L 643.63 150.95 L 653.80 158.75 L 663.54 166.99 L 672.88 175.66 L 681.82 184.77 L 690.36 194.34 L 698.43 204.28 L 706.02 214.61 L 713.16 225.35 L 719.83 236.49 L 726.05 248.07 L 737.36 253.33 L 748.52 258.98 L 759.54 265.01 L 770.41 271.43 L 781.15 278.25 L 794.23 287.24 L 806.93 296.74 L 819.27 306.77 L 831.26 317.34 L 840.54 326.15 L 849.50 335.23 L 858.13 344.59 L 866.46 354.24 L 874.47 364.18 L 882.14 374.40 L 889.41 384.85 L 896.28 395.53 L 902.76 406.44 L 908.86 417.61 L 914.52 428.99 L 919.71 440.56 L 924.44 452.32 L 928.70 464.28 L 932.49 476.45 L 935.77 488.74 L 938.50 501.18 L 940.70 513.79 L 942.35 526.58 L 943.46 539.55 L 943.98 552.48 L 943.88 565.54 L 943.17 578.77 L 941.83 592.16 L 939.84 605.75 L 937.02 620.58 L 933.77 634.95 L 930.10 648.88 L 926.01 662.38 L 921.51 675.47 L 916.61 688.17 L 911.16 700.86 L 905.32 713.16 L 899.10 725.06 L 892.50 736.57 L 885.52 747.73 L 878.15 758.52 L 870.33 769.08 L 862.15 779.28 L 853.61 789.13 L 844.71 798.64 L 835.44 807.81 L 825.79 816.64 L 815.85 825.09 L 805.58 833.20 L 794.95 840.98 L 783.96 848.44 L 772.61 855.57 L 760.88 862.38 L 752.16 867.78 L 742.82 873.07 L 732.83 878.22 L 722.14 883.24 L 711.49 887.78 L 700.08 892.19 L 687.87 896.45 L 674.83 900.56 L 661.95 904.20 L 648.18 907.67 L 633.47 910.97 L 617.78 914.08 L 602.38 916.75 L 585.95 919.23 L 568.46 921.49 L 549.85 923.53 L 528.70 925.39 L 507.95 926.75 L 487.60 927.61 L 467.64 927.98 L 448.05 927.87 L 428.19 927.26 L 408.81 926.15 L 389.90 924.54 L 371.44 922.45 L 353.42 919.89 L 335.22 916.75 L 317.57 913.11 L 300.44 908.98 L 283.82 904.39 L 267.69 899.32 L 254.19 894.59 L 241.10 889.51 L 228.41 884.11 L 216.10 878.37 L 204.16 872.30 L 192.58 865.90 L 181.11 859.00 L 170.06 851.76 L 159.42 844.18 L 149.17 836.25 L 139.30 827.97 L 129.82 819.34 L 120.67 810.30 L 111.95 800.89 L 103.64 791.11 L 95.74 780.93 L 88.23 770.36 L 81.12 759.39 L 74.56 748.22 L 68.43 736.64 L 62.73 724.62 L 57.45 712.15 L 52.61 699.21 L 48.21 685.77 L 44.46 672.48 L 41.16 658.70 L 38.34 644.41 L 35.99 629.58 L 34.15 614.19 L 32.82 598.22 L 32.14 583.09 L 32.03 568.57 L 32.46 554.63 L 33.41 541.24 L 34.86 528.37 L 36.90 515.28 L 39.42 502.70 L 42.40 490.60 L 45.84 478.97 L 49.72 467.78 L 54.18 456.62 L 59.06 445.89 L 64.35 435.54 L 70.05 425.58 L 76.18 415.98 L 82.77 406.63 L 89.74 397.62 L 97.10 388.93 L 104.85 380.56 L 113.01 372.50 L 121.46 364.81 L 130.28 357.41 L 139.46 350.29 L 149.02 343.45 L 158.97 336.88 L 161.90 323.41 L 165.19 310.46 L 168.84 298.03 L 172.83 286.10 L 177.16 274.63 L 181.83 263.62 L 186.81 253.05 L 192.38 242.41 L 198.26 232.20 L 204.44 222.43 L 210.94 213.08 L 217.74 204.13 L 224.85 195.57 L 232.28 187.38 L 241.46 178.18 L 251.02 169.49 L 260.99 161.29 L 271.37 153.58 L 282.17 146.34 L 293.42 139.58 L 304.87 133.40 L 316.72 127.67 L 328.96 122.40 L 341.62 117.59 L 354.72 113.23 L 368.27 109.34 L 381.70 106.05 L 395.52 103.20 L 409.72 100.79 L 424.34 98.85 L 439.38 97.37 L 454.86 96.38 Z" fill="url(#radialGradient-1)" fill-rule="evenodd" group-id="1,2,3,10" node-id="148" stroke="none" target-height="831.9669" target-width="911.9464" target-x="32.031116" target-y="96.01346"></path></g><path d="M 454.86 96.38 L 469.27 96.01 L 483.38 96.26 L 497.21 97.12 L 510.78 98.56 L 524.11 100.60 L 537.45 103.25 L 550.45 106.45 L 563.14 110.18 L 575.52 114.44 L 587.62 119.24 L 599.55 124.62 L 611.10 130.48 L 622.29 136.81 L 633.13 143.63 L 643.63 150.95 L 653.80 158.75 L 663.54 166.99 L 672.88 175.66 L 681.82 184.77 L 690.36 194.34 L 698.43 204.28 L 706.02 214.61 L 713.16 225.35 L 719.83 236.49 L 726.05 248.07 L 737.36 253.33 L 748.52 258.98 L 759.54 265.01 L 770.41 271.43 L 781.15 278.25 L 794.23 287.24 L 806.93 296.74 L 819.27 306.77 L 831.26 317.34 L 840.54 326.15 L 849.50 335.23 L 858.13 344.59 L 866.46 354.24 L 874.47 364.18 L 882.14 374.40 L 889.41 384.85 L 896.28 395.53 L 902.76 406.44 L 908.86 417.61 L 914.52 428.99 L 919.71 440.56 L 924.44 452.32 L 928.70 464.28 L 932.49 476.45 L 935.77 488.74 L 938.50 501.18 L 940.70 513.79 L 942.35 526.58 L 943.46 539.55 L 943.98 552.48 L 943.88 565.54 L 943.17 578.77 L 941.83 592.16 L 939.84 605.75 L 937.02 620.58 L 933.77 634.95 L 930.10 648.88 L 926.01 662.38 L 921.51 675.47 L 916.61 688.17 L 911.16 700.86 L 905.32 713.16 L 899.10 725.06 L 892.50 736.57 L 885.52 747.73 L 878.15 758.52 L 870.33 769.08 L 862.15 779.28 L 853.61 789.13 L 844.71 798.64 L 835.44 807.81 L 825.79 816.64 L 815.85 825.09 L 805.58 833.20 L 794.95 840.98 L 783.96 848.44 L 772.61 855.57 L 760.88 862.38 L 752.16 867.78 L 742.82 873.07 L 732.83 878.22 L 722.14 883.24 L 711.49 887.78 L 700.08 892.19 L 687.87 896.45 L 674.83 900.56 L 661.95 904.20 L 648.18 907.67 L 633.47 910.97 L 617.78 914.08 L 602.38 916.75 L 585.95 919.23 L 568.46 921.49 L 549.85 923.53 L 528.70 925.39 L 507.95 926.75 L 487.60 927.61 L 467.64 927.98 L 448.05 927.87 L 428.19 927.26 L 408.81 926.15 L 389.90 924.54 L 371.44 922.45 L 353.42 919.89 L 335.22 916.75 L 317.57 913.11 L 300.44 908.98 L 283.82 904.39 L 267.69 899.32 L 254.19 894.59 L 241.10 889.51 L 228.41 884.11 L 216.10 878.37 L 204.16 872.30 L 192.58 865.90 L 181.11 859.00 L 170.06 851.76 L 159.42 844.18 L 149.17 836.25 L 139.30 827.97 L 129.82 819.34 L 120.67 810.30 L 111.95 800.89 L 103.64 791.11 L 95.74 780.93 L 88.23 770.36 L 81.12 759.39 L 74.56 748.22 L 68.43 736.64 L 62.73 724.62 L 57.45 712.15 L 52.61 699.21 L 48.21 685.77 L 44.46 672.48 L 41.16 658.70 L 38.34 644.41 L 35.99 629.58 L 34.15 614.19 L 32.82 598.22 L 32.14 583.09 L 32.03 568.57 L 32.46 554.63 L 33.41 541.24 L 34.86 528.37 L 36.90 515.28 L 39.42 502.70 L 42.40 490.60 L 45.84 478.97 L 49.72 467.78 L 54.18 456.62 L 59.06 445.89 L 64.35 435.54 L 70.05 425.58 L 76.18 415.98 L 82.77 406.63 L 89.74 397.62 L 97.10 388.93 L 104.85 380.56 L 113.01 372.50 L 121.46 364.81 L 130.28 357.41 L 139.46 350.29 L 149.02 343.45 L 158.97 336.88 L 161.90 323.41 L 165.19 310.46 L 168.84 298.03 L 172.83 286.10 L 177.16 274.63 L 181.83 263.62 L 186.81 253.05 L 192.38 242.41 L 198.26 232.20 L 204.44 222.43 L 210.94 213.08 L 217.74 204.13 L 224.85 195.57 L 232.28 187.38 L 241.46 178.18 L 251.02 169.49 L 260.99 161.29 L 271.37 153.58 L 282.17 146.34 L 293.42 139.58 L 304.87 133.40 L 316.72 127.67 L 328.96 122.40 L 341.62 117.59 L 354.72 113.23 L 368.27 109.34 L 381.70 106.05 L 395.52 103.20 L 409.72 100.79 L 424.34 98.85 L 439.38 97.37 L 454.86 96.38 Z" fill="#000000" fill-rule="evenodd" filter="url(#filter-3)" group-id="1,2,3,11" node-id="153" stroke="none" target-height="831.9669" target-width="911.9464" target-x="32.031116" target-y="96.01346"></path></g><path d="M 416.00 400.00 L 415.73 404.98 L 415.01 409.74 L 413.84 414.30 L 412.23 418.68 L 410.18 422.91 L 407.79 426.85 L 405.05 430.52 L 401.94 433.94 L 398.52 437.05 L 394.85 439.79 L 390.91 442.18 L 386.68 444.23 L 382.30 445.84 L 377.74 447.01 L 372.98 447.73 L 368.00 448.00 L 363.02 447.73 L 358.26 447.01 L 353.70 445.84 L 349.32 444.23 L 345.09 442.18 L 341.15 439.79 L 337.48 437.05 L 334.06 433.94 L 330.95 430.52 L 328.21 426.85 L 325.82 422.91 L 323.77 418.68 L 322.16 414.30 L 320.99 409.74 L 320.27 404.98 L 320.00 400.00 L 320.27 395.02 L 320.99 390.26 L 322.16 385.70 L 323.77 381.32 L 325.82 377.09 L 328.21 373.15 L 330.95 369.48 L 334.06 366.06 L 337.48 362.95 L 341.15 360.21 L 345.09 357.82 L 349.32 355.77 L 353.70 354.16 L 358.26 352.99 L 363.02 352.27 L 368.00 352.00 L 372.98 352.27 L 377.74 352.99 L 382.30 354.16 L 386.68 355.77 L 390.91 357.82 L 394.85 360.21 L 398.52 362.95 L 401.94 366.06 L 405.05 369.48 L 407.79 373.15 L 410.18 377.09 L 412.23 381.32 L 413.84 385.70 L 415.01 390.26 L 415.73 395.02 L 416.00 400.00 Z" fill="#5b2500" fill-rule="evenodd" group-id="1,2" id="椭圆形" node-id="51" stroke="none" target-height="96" target-width="96" target-x="320" target-y="352"></path><path d="M 736.00 400.00 L 735.73 404.98 L 735.01 409.74 L 733.84 414.30 L 732.23 418.68 L 730.18 422.91 L 727.79 426.85 L 725.05 430.52 L 721.94 433.94 L 718.52 437.05 L 714.85 439.79 L 710.91 442.18 L 706.68 444.23 L 702.30 445.84 L 697.74 447.01 L 692.98 447.73 L 688.00 448.00 L 683.02 447.73 L 678.26 447.01 L 673.70 445.84 L 669.32 444.23 L 665.09 442.18 L 661.15 439.79 L 657.48 437.05 L 654.06 433.94 L 650.95 430.52 L 648.21 426.85 L 645.82 422.91 L 643.77 418.68 L 642.16 414.30 L 640.99 409.74 L 640.27 404.98 L 640.00 400.00 L 640.27 395.02 L 640.99 390.26 L 642.16 385.70 L 643.77 381.32 L 645.82 377.09 L 648.21 373.15 L 650.95 369.48 L 654.06 366.06 L 657.48 362.95 L 661.15 360.21 L 665.09 357.82 L 669.32 355.77 L 673.70 354.16 L 678.26 352.99 L 683.02 352.27 L 688.00 352.00 L 692.98 352.27 L 697.74 352.99 L 702.30 354.16 L 706.68 355.77 L 710.91 357.82 L 714.85 360.21 L 718.52 362.95 L 721.94 366.06 L 725.05 369.48 L 727.79 373.15 L 730.18 377.09 L 732.23 381.32 L 733.84 385.70 L 735.01 390.26 L 735.73 395.02 L 736.00 400.00 Z" fill="#5b2500" fill-rule="evenodd" group-id="1,2" id="椭圆形备份-9" node-id="52" stroke="none" target-height="96" target-width="96" target-x="640" target-y="352"></path><path d="M 232.00 336.00 L 408.00 336.00 L 411.30 336.23 L 414.40 336.86 L 417.34 337.89 L 420.13 339.29 L 422.66 341.00 L 424.97 343.03 L 427.00 345.34 L 428.71 347.87 L 430.11 350.66 L 431.14 353.60 L 431.77 356.70 L 432.00 360.00 L 432.00 360.00 L 431.77 363.30 L 431.14 366.40 L 430.11 369.34 L 428.71 372.13 L 427.00 374.66 L 424.97 376.97 L 422.66 379.00 L 420.13 380.71 L 417.34 382.11 L 414.40 383.14 L 411.30 383.77 L 408.00 384.00 L 232.00 384.00 L 228.70 383.77 L 225.60 383.14 L 222.66 382.11 L 219.87 380.71 L 217.34 379.00 L 215.03 376.97 L 213.00 374.66 L 211.29 372.13 L 209.89 369.34 L 208.86 366.40 L 208.23 363.30 L 208.00 360.00 L 208.00 360.00 L 208.23 356.70 L 208.86 353.60 L 209.89 350.66 L 211.29 347.87 L 213.00 345.34 L 215.03 343.03 L 217.34 341.00 L 219.87 339.29 L 222.66 337.89 L 225.60 336.86 L 228.70 336.23 L 232.00 336.00 Z" fill="#a05400" fill-rule="evenodd" group-id="1,2,4,12" node-id="162" stroke="none" target-height="48" target-width="224" target-x="208" target-y="336"></path><path d="M 232.00 336.00 L 408.00 336.00 L 411.30 336.23 L 414.40 336.86 L 417.34 337.89 L 420.13 339.29 L 422.66 341.00 L 424.97 343.03 L 427.00 345.34 L 428.71 347.87 L 430.11 350.66 L 431.14 353.60 L 431.77 356.70 L 432.00 360.00 L 432.00 360.00 L 431.77 363.30 L 431.14 366.40 L 430.11 369.34 L 428.71 372.13 L 427.00 374.66 L 424.97 376.97 L 422.66 379.00 L 420.13 380.71 L 417.34 382.11 L 414.40 383.14 L 411.30 383.77 L 408.00 384.00 L 232.00 384.00 L 228.70 383.77 L 225.60 383.14 L 222.66 382.11 L 219.87 380.71 L 217.34 379.00 L 215.03 376.97 L 213.00 374.66 L 211.29 372.13 L 209.89 369.34 L 208.86 366.40 L 208.23 363.30 L 208.00 360.00 L 208.00 360.00 L 208.23 356.70 L 208.86 353.60 L 209.89 350.66 L 211.29 347.87 L 213.00 345.34 L 215.03 343.03 L 217.34 341.00 L 219.87 339.29 L 222.66 337.89 L 225.60 336.86 L 228.70 336.23 L 232.00 336.00 Z" fill="#723004" fill-rule="evenodd" group-id="1,2,4,13" node-id="167" stroke="none" target-height="48" target-width="224" target-x="208" target-y="336"></path><path d="M 552.00 336.00 L 728.00 336.00 L 731.30 336.23 L 734.40 336.86 L 737.34 337.89 L 740.13 339.29 L 742.66 341.00 L 744.97 343.03 L 747.00 345.34 L 748.71 347.87 L 750.11 350.66 L 751.14 353.60 L 751.77 356.70 L 752.00 360.00 L 752.00 360.00 L 751.77 363.30 L 751.14 366.40 L 750.11 369.34 L 748.71 372.13 L 747.00 374.66 L 744.97 376.97 L 742.66 379.00 L 740.13 380.71 L 737.34 382.11 L 734.40 383.14 L 731.30 383.77 L 728.00 384.00 L 552.00 384.00 L 548.70 383.77 L 545.60 383.14 L 542.66 382.11 L 539.87 380.71 L 537.34 379.00 L 535.03 376.97 L 533.00 374.66 L 531.29 372.13 L 529.89 369.34 L 528.86 366.40 L 528.23 363.30 L 528.00 360.00 L 528.00 360.00 L 528.23 356.70 L 528.86 353.60 L 529.89 350.66 L 531.29 347.87 L 533.00 345.34 L 535.03 343.03 L 537.34 341.00 L 539.87 339.29 L 542.66 337.89 L 545.60 336.86 L 548.70 336.23 L 552.00 336.00 Z" fill="#a05400" fill-rule="evenodd" group-id="1,2,5,14" node-id="174" stroke="none" target-height="48" target-width="224" target-x="528" target-y="336"></path><path d="M 552.00 336.00 L 728.00 336.00 L 731.30 336.23 L 734.40 336.86 L 737.34 337.89 L 740.13 339.29 L 742.66 341.00 L 744.97 343.03 L 747.00 345.34 L 748.71 347.87 L 750.11 350.66 L 751.14 353.60 L 751.77 356.70 L 752.00 360.00 L 752.00 360.00 L 751.77 363.30 L 751.14 366.40 L 750.11 369.34 L 748.71 372.13 L 747.00 374.66 L 744.97 376.97 L 742.66 379.00 L 740.13 380.71 L 737.34 382.11 L 734.40 383.14 L 731.30 383.77 L 728.00 384.00 L 552.00 384.00 L 548.70 383.77 L 545.60 383.14 L 542.66 382.11 L 539.87 380.71 L 537.34 379.00 L 535.03 376.97 L 533.00 374.66 L 531.29 372.13 L 529.89 369.34 L 528.86 366.40 L 528.23 363.30 L 528.00 360.00 L 528.00 360.00 L 528.23 356.70 L 528.86 353.60 L 529.89 350.66 L 531.29 347.87 L 533.00 345.34 L 535.03 343.03 L 537.34 341.00 L 539.87 339.29 L 542.66 337.89 L 545.60 336.86 L 548.70 336.23 L 552.00 336.00 Z" fill="#723004" fill-rule="evenodd" group-id="1,2,5,15" node-id="179" stroke="none" target-height="48" target-width="224" target-x="528" target-y="336"></path><path d="M 816.00 560.00 L 815.70 564.60 L 814.85 569.06 L 813.47 573.42 L 811.51 577.70 L 809.13 581.72 L 806.27 585.62 L 802.91 589.40 L 799.02 593.07 L 794.91 596.38 L 790.38 599.50 L 785.41 602.44 L 779.97 605.20 L 774.45 607.57 L 768.60 609.70 L 762.40 611.56 L 755.81 613.15 L 749.24 614.36 L 742.42 615.25 L 735.34 615.80 L 728.00 616.00 L 720.66 615.80 L 713.58 615.25 L 706.76 614.36 L 700.19 613.15 L 693.60 611.56 L 687.40 609.70 L 681.55 607.57 L 676.03 605.20 L 670.59 602.44 L 665.62 599.50 L 661.09 596.38 L 656.98 593.07 L 653.09 589.40 L 649.73 585.62 L 646.87 581.72 L 644.49 577.70 L 642.53 573.42 L 641.15 569.06 L 640.30 564.60 L 640.00 560.00 L 640.30 555.40 L 641.15 550.94 L 642.54 546.58 L 644.49 542.30 L 646.87 538.28 L 649.73 534.38 L 653.09 530.60 L 656.98 526.93 L 661.09 523.62 L 665.62 520.50 L 670.59 517.56 L 676.03 514.80 L 681.55 512.43 L 687.40 510.30 L 693.60 508.44 L 700.19 506.85 L 706.76 505.64 L 713.58 504.75 L 720.66 504.20 L 728.00 504.00 L 735.34 504.20 L 742.42 504.75 L 749.24 505.64 L 755.81 506.85 L 762.40 508.44 L 768.60 510.30 L 774.45 512.43 L 779.97 514.80 L 785.41 517.56 L 790.38 520.50 L 794.91 523.62 L 799.02 526.93 L 802.91 530.60 L 806.27 534.38 L 809.13 538.28 L 811.51 542.30 L 813.47 546.58 L 814.85 550.94 L 815.70 555.40 L 816.00 560.00 Z" fill="#ff5ea4" fill-opacity="0.8" fill-rule="evenodd" filter="url(#filter-6)" group-id="1,2,6" id="椭圆形" node-id="59" stroke="none" target-height="112" target-width="176" target-x="640" target-y="504"></path><path d="M 464.00 736.00 L 528.00 736.00 L 530.92 736.27 L 533.60 737.00 L 536.08 738.18 L 538.32 739.77 L 540.23 741.68 L 541.82 743.92 L 543.00 746.40 L 543.73 749.08 L 544.00 752.00 L 544.00 752.00 L 543.73 754.92 L 543.00 757.60 L 541.82 760.08 L 540.23 762.32 L 538.32 764.23 L 536.08 765.82 L 533.60 767.00 L 530.92 767.73 L 528.00 768.00 L 464.00 768.00 L 461.08 767.73 L 458.40 767.00 L 455.92 765.82 L 453.68 764.23 L 451.77 762.32 L 450.18 760.08 L 449.00 757.60 L 448.27 754.92 L 448.00 752.00 L 448.00 752.00 L 448.27 749.08 L 449.00 746.40 L 450.18 743.92 L 451.77 741.68 L 453.68 739.77 L 455.92 738.18 L 458.40 737.00 L 461.08 736.27 L 464.00 736.00 Z" fill="#000000" fill-rule="evenodd" filter="url(#filter-8)" group-id="1,2,7,16" node-id="190" stroke="none" target-height="32" target-width="96" target-x="448" target-y="736"></path><path d="M 464.00 736.00 L 528.00 736.00 L 530.92 736.27 L 533.60 737.00 L 536.08 738.18 L 538.32 739.77 L 540.23 741.68 L 541.82 743.92 L 543.00 746.40 L 543.73 749.08 L 544.00 752.00 L 544.00 752.00 L 543.73 754.92 L 543.00 757.60 L 541.82 760.08 L 540.23 762.32 L 538.32 764.23 L 536.08 765.82 L 533.60 767.00 L 530.92 767.73 L 528.00 768.00 L 464.00 768.00 L 461.08 767.73 L 458.40 767.00 L 455.92 765.82 L 453.68 764.23 L 451.77 762.32 L 450.18 760.08 L 449.00 757.60 L 448.27 754.92 L 448.00 752.00 L 448.00 752.00 L 448.27 749.08 L 449.00 746.40 L 450.18 743.92 L 451.77 741.68 L 453.68 739.77 L 455.92 738.18 L 458.40 737.00 L 461.08 736.27 L 464.00 736.00 Z" fill="#ed1f2a" fill-rule="evenodd" group-id="1,2,7,17" node-id="195" stroke="none" target-height="32" target-width="96" target-x="448" target-y="736"></path><path d="M 464.00 736.00 L 528.00 736.00 L 530.92 736.27 L 533.60 737.00 L 536.08 738.18 L 538.32 739.77 L 540.23 741.68 L 541.82 743.92 L 543.00 746.40 L 543.73 749.08 L 544.00 752.00 L 544.00 752.00 L 543.73 754.92 L 543.00 757.60 L 541.82 760.08 L 540.23 762.32 L 538.32 764.23 L 536.08 765.82 L 533.60 767.00 L 530.92 767.73 L 528.00 768.00 L 464.00 768.00 L 461.08 767.73 L 458.40 767.00 L 455.92 765.82 L 453.68 764.23 L 451.77 762.32 L 450.18 760.08 L 449.00 757.60 L 448.27 754.92 L 448.00 752.00 L 448.00 752.00 L 448.27 749.08 L 449.00 746.40 L 450.18 743.92 L 451.77 741.68 L 453.68 739.77 L 455.92 738.18 L 458.40 737.00 L 461.08 736.27 L 464.00 736.00 Z" fill="#000000" fill-rule="evenodd" filter="url(#filter-9)" group-id="1,2,7,18" node-id="200" stroke="none" target-height="32" target-width="96" target-x="448" target-y="736"></path><path d="M 1007.99 518.15 L 1007.80 509.82 L 1007.01 501.29 L 1005.60 492.55 L 1003.68 483.89 L 1001.27 475.12 L 998.35 466.22 L 995.06 457.44 L 991.40 448.67 L 987.37 439.88 L 980.82 426.94 L 973.76 414.26 L 966.30 401.89 L 958.67 390.08 L 952.70 381.32 L 946.74 372.92 L 946.74 372.92 L 940.86 364.92 L 935.11 357.37 L 929.57 350.30 L 921.77 340.70 L 917.01 335.02 L 910.68 327.71 L 907.10 323.68 L 905.54 322.23 L 903.89 321.16 L 902.12 320.45 L 900.25 320.06 L 898.39 320.03 L 896.51 320.34 L 894.72 321.00 L 893.03 322.01 L 891.42 323.40 L 887.32 327.70 L 880.00 335.63 L 874.45 341.84 L 868.47 348.72 L 860.52 358.19 L 860.52 358.19 L 852.20 368.54 L 845.39 377.38 L 836.55 389.43 L 827.69 402.31 L 819.21 415.60 L 811.19 429.35 L 806.19 438.72 L 801.60 448.13 L 797.41 457.59 L 793.64 467.22 L 790.46 476.73 L 787.85 486.15 L 786.27 493.33 L 785.11 500.38 L 784.36 507.30 L 784.02 514.11 L 784.15 522.70 L 784.77 531.05 L 785.88 539.18 L 787.46 547.11 L 789.54 554.98 L 792.03 562.55 L 794.93 569.86 L 798.25 576.90 L 802.01 583.76 L 806.10 590.26 L 810.55 596.43 L 815.34 602.28 L 820.50 607.83 L 825.94 612.97 L 831.66 617.71 L 837.67 622.06 L 843.97 626.00 L 850.48 629.46 L 857.22 632.47 L 864.21 635.02 L 871.35 637.06 L 878.66 638.57 L 886.17 639.54 L 893.91 639.98 L 901.65 639.82 L 909.19 639.12 L 916.55 637.87 L 923.75 636.10 L 930.82 633.80 L 937.66 631.03 L 944.29 627.80 L 950.71 624.09 L 956.87 619.96 L 962.75 615.43 L 968.36 610.49 L 973.70 605.13 L 978.69 599.46 L 983.34 593.46 L 987.65 587.10 L 991.64 580.38 L 995.19 573.46 L 998.34 566.27 L 1001.09 558.79 L 1003.43 551.00 L 1005.28 543.13 L 1006.66 535.04 L 1007.57 526.72 L 1007.99 518.15 Z" fill="#000000" fill-rule="nonzero" filter="url(#filter-12)" group-id="1,2,8,19" node-id="207" stroke="none" target-height="319.95508" target-width="223.96497" target-x="784.02" target-y="320.02814"></path><path d="M 1007.99 518.15 L 1007.80 509.82 L 1007.01 501.29 L 1005.60 492.55 L 1003.68 483.89 L 1001.27 475.12 L 998.35 466.22 L 995.06 457.44 L 991.40 448.67 L 987.37 439.88 L 980.82 426.94 L 973.76 414.26 L 966.30 401.89 L 958.67 390.08 L 952.70 381.32 L 946.74 372.92 L 946.74 372.92 L 940.86 364.92 L 935.11 357.37 L 929.57 350.30 L 921.77 340.70 L 917.01 335.02 L 910.68 327.71 L 907.10 323.68 L 905.54 322.23 L 903.89 321.16 L 902.12 320.45 L 900.25 320.06 L 898.39 320.03 L 896.51 320.34 L 894.72 321.00 L 893.03 322.01 L 891.42 323.40 L 887.32 327.70 L 880.00 335.63 L 874.45 341.84 L 868.47 348.72 L 860.52 358.19 L 860.52 358.19 L 852.20 368.54 L 845.39 377.38 L 836.55 389.43 L 827.69 402.31 L 819.21 415.60 L 811.19 429.35 L 806.19 438.72 L 801.60 448.13 L 797.41 457.59 L 793.64 467.22 L 790.46 476.73 L 787.85 486.15 L 786.27 493.33 L 785.11 500.38 L 784.36 507.30 L 784.02 514.11 L 784.15 522.70 L 784.77 531.05 L 785.88 539.18 L 787.46 547.11 L 789.54 554.98 L 792.03 562.55 L 794.93 569.86 L 798.25 576.90 L 802.01 583.76 L 806.10 590.26 L 810.55 596.43 L 815.34 602.28 L 820.50 607.83 L 825.94 612.97 L 831.66 617.71 L 837.67 622.06 L 843.97 626.00 L 850.48 629.46 L 857.22 632.47 L 864.21 635.02 L 871.35 637.06 L 878.66 638.57 L 886.17 639.54 L 893.91 639.98 L 901.65 639.82 L 909.19 639.12 L 916.55 637.87 L 923.75 636.10 L 930.82 633.80 L 937.66 631.03 L 944.29 627.80 L 950.71 624.09 L 956.87 619.96 L 962.75 615.43 L 968.36 610.49 L 973.70 605.13 L 978.69 599.46 L 983.34 593.46 L 987.65 587.10 L 991.64 580.38 L 995.19 573.46 L 998.34 566.27 L 1001.09 558.79 L 1003.43 551.00 L 1005.28 543.13 L 1006.66 535.04 L 1007.57 526.72 L 1007.99 518.15 Z" fill="url(#linearGradient-10)" fill-rule="nonzero" group-id="1,2,8,20" node-id="212" stroke="none" target-height="319.95508" target-width="223.96497" target-x="784.02" target-y="320.02814"></path><path d="M 1007.99 518.15 L 1007.80 509.82 L 1007.01 501.29 L 1005.60 492.55 L 1003.68 483.89 L 1001.27 475.12 L 998.35 466.22 L 995.06 457.44 L 991.40 448.67 L 987.37 439.88 L 980.82 426.94 L 973.76 414.26 L 966.30 401.89 L 958.67 390.08 L 952.70 381.32 L 946.74 372.92 L 946.74 372.92 L 940.86 364.92 L 935.11 357.37 L 929.57 350.30 L 921.77 340.70 L 917.01 335.02 L 910.68 327.71 L 907.10 323.68 L 905.54 322.23 L 903.89 321.16 L 902.12 320.45 L 900.25 320.06 L 898.39 320.03 L 896.51 320.34 L 894.72 321.00 L 893.03 322.01 L 891.42 323.40 L 887.32 327.70 L 880.00 335.63 L 874.45 341.84 L 868.47 348.72 L 860.52 358.19 L 860.52 358.19 L 852.20 368.54 L 845.39 377.38 L 836.55 389.43 L 827.69 402.31 L 819.21 415.60 L 811.19 429.35 L 806.19 438.72 L 801.60 448.13 L 797.41 457.59 L 793.64 467.22 L 790.46 476.73 L 787.85 486.15 L 786.27 493.33 L 785.11 500.38 L 784.36 507.30 L 784.02 514.11 L 784.15 522.70 L 784.77 531.05 L 785.88 539.18 L 787.46 547.11 L 789.54 554.98 L 792.03 562.55 L 794.93 569.86 L 798.25 576.90 L 802.01 583.76 L 806.10 590.26 L 810.55 596.43 L 815.34 602.28 L 820.50 607.83 L 825.94 612.97 L 831.66 617.71 L 837.67 622.06 L 843.97 626.00 L 850.48 629.46 L 857.22 632.47 L 864.21 635.02 L 871.35 637.06 L 878.66 638.57 L 886.17 639.54 L 893.91 639.98 L 901.65 639.82 L 909.19 639.12 L 916.55 637.87 L 923.75 636.10 L 930.82 633.80 L 937.66 631.03 L 944.29 627.80 L 950.71 624.09 L 956.87 619.96 L 962.75 615.43 L 968.36 610.49 L 973.70 605.13 L 978.69 599.46 L 983.34 593.46 L 987.65 587.10 L 991.64 580.38 L 995.19 573.46 L 998.34 566.27 L 1001.09 558.79 L 1003.43 551.00 L 1005.28 543.13 L 1006.66 535.04 L 1007.57 526.72 L 1007.99 518.15 Z" fill="#000000" fill-rule="nonzero" filter="url(#filter-13)" group-id="1,2,8,21" node-id="217" stroke="none" target-height="319.95508" target-width="223.96497" target-x="784.02" target-y="320.02814"></path><path d="M 336.00 560.00 L 335.70 564.60 L 334.85 569.06 L 333.47 573.42 L 331.51 577.70 L 329.13 581.72 L 326.27 585.62 L 322.91 589.40 L 319.02 593.07 L 314.91 596.38 L 310.38 599.50 L 305.41 602.44 L 299.97 605.20 L 294.45 607.57 L 288.60 609.70 L 282.40 611.56 L 275.81 613.15 L 269.24 614.36 L 262.42 615.25 L 255.34 615.80 L 248.00 616.00 L 240.66 615.80 L 233.58 615.25 L 226.76 614.36 L 220.19 613.15 L 213.60 611.56 L 207.40 609.70 L 201.55 607.57 L 196.03 605.20 L 190.59 602.44 L 185.62 599.50 L 181.09 596.38 L 176.98 593.07 L 173.09 589.40 L 169.73 585.62 L 166.87 581.72 L 164.49 577.70 L 162.53 573.42 L 161.15 569.06 L 160.30 564.60 L 160.00 560.00 L 160.30 555.40 L 161.15 550.94 L 162.53 546.58 L 164.49 542.30 L 166.87 538.28 L 169.73 534.38 L 173.09 530.60 L 176.98 526.93 L 181.09 523.62 L 185.62 520.50 L 190.59 517.56 L 196.03 514.80 L 201.55 512.43 L 207.40 510.30 L 213.60 508.44 L 220.19 506.85 L 226.76 505.64 L 233.58 504.75 L 240.66 504.20 L 248.00 504.00 L 255.34 504.20 L 262.42 504.75 L 269.24 505.64 L 275.81 506.85 L 282.40 508.44 L 288.60 510.30 L 294.45 512.43 L 299.97 514.80 L 305.41 517.56 L 310.38 520.50 L 314.91 523.62 L 319.02 526.93 L 322.91 530.60 L 326.27 534.38 L 329.13 538.28 L 331.51 542.30 L 333.47 546.58 L 334.85 550.94 L 335.70 555.40 L 336.00 560.00 Z" fill="#ff5ea4" fill-opacity="0.8" fill-rule="evenodd" filter="url(#filter-14)" group-id="1,2,9" id="椭圆形备份-6" node-id="68" stroke="none" target-height="112" target-width="176" target-x="160" target-y="504"></path></g></g></svg>