<?xml version="1.0" standalone="no"?><!DOCTYPE svg PUBLIC "-//W3C//DTD SVG 1.1//EN" "http://www.w3.org/Graphics/SVG/1.1/DTD/svg11.dtd"><svg height="1024" node-id="1" sillyvg="true" template-height="1024" template-width="1024" version="1.1" viewBox="0 0 1024 1024" width="1024" xmlns="http://www.w3.org/2000/svg" xmlns:xlink="http://www.w3.org/1999/xlink"><defs node-id="88"><radialGradient cx="0.5" cy="0.19668992" fx="0.5" fy="0.19668992" gradientTransform="matrix(0 1 -0.912281 0 0.67943655 -0.30331)" gradientUnits="objectBoundingBox" id="radialGradient-1" node-id="5" r="0.9393923" rev="2" spreadMethod="pad"><stop offset="0" stop-color="#ffe476"></stop><stop offset="0.41387266" stop-color="#fcec6c"></stop><stop offset="1" stop-color="#ffb02f"></stop></radialGradient><linearGradient gradientUnits="objectBoundingBox" id="linearGradient-9" node-id="29" spreadMethod="pad" x1="0.5" x2="0.5" y1="0" y2="1"><stop offset="0" stop-color="#ffffff"></stop><stop offset="1" stop-color="#ffedbe"></stop></linearGradient><filter height="1.173" id="filter-3" node-id="10" width="1.158" x="-0.079" y="-0.087"><feGaussianBlur color-interpolation-filters="linearRGB" in="SourceAlpha" result="shadowBlurInner1" stdDeviation="64 64"></feGaussianBlur><feOffset color-interpolation-filters="linearRGB" dx="0" dy="16" in="shadowBlurInner1" result="shadowOffsetInner1"></feOffset><feComposite color-interpolation-filters="linearRGB" in="shadowOffsetInner1" in2="SourceAlpha" k1="0" k2="-1" k3="1" k4="0" operator="arithmetic" result="shadowInnerInner1"></feComposite><feColorMatrix color-interpolation-filters="linearRGB" in="shadowInnerInner1" result="result4" type="matrix" values="0 0 0 0 0.968627451 0 0 0 0 0.68627451 0 0 0 0 0.270588235 0 0 0 0.501145583 0"></feColorMatrix></filter><filter height="2.5" id="filter-5" node-id="16" width="1.694" x="-0.347" y="-0.75"><feOffset color-interpolation-filters="linearRGB" dx="0" dy="0" in="SourceAlpha" result="shadowOffsetOuter1"></feOffset><feGaussianBlur color-interpolation-filters="linearRGB" in="shadowOffsetOuter1" result="shadowBlurOuter1" stdDeviation="16 16"></feGaussianBlur><feColorMatrix color-interpolation-filters="linearRGB" in="shadowBlurOuter1" result="result3" type="matrix" values="0 0 0 0 1 0 0 0 0 0.948503655 0 0 0 0 0.566824862 0 0 0 1 0"></feColorMatrix></filter><filter height="3" id="filter-6" node-id="20" width="1.925" x="-0.463" y="-1"><feGaussianBlur color-interpolation-filters="linearRGB" in="SourceAlpha" result="shadowBlurInner1" stdDeviation="24 24"></feGaussianBlur><feOffset color-interpolation-filters="linearRGB" dx="0" dy="16" in="shadowBlurInner1" result="shadowOffsetInner1"></feOffset><feComposite color-interpolation-filters="linearRGB" in="shadowOffsetInner1" in2="SourceAlpha" k1="0" k2="-1" k3="1" k4="0" operator="arithmetic" result="shadowInnerInner1"></feComposite><feColorMatrix color-interpolation-filters="linearRGB" in="shadowInnerInner1" result="result4" type="matrix" values="0 0 0 0 0.389055335 0 0 0 0 0.164926276 0 0 0 0 0.00720582671 0 0 0 1 0"></feColorMatrix></filter><filter height="2.8" id="filter-7" node-id="25" width="2.636" x="-0.818" y="-0.9"><feGaussianBlur color-interpolation-filters="linearRGB" in="SourceGraphic" result="result1" stdDeviation="48 48"></feGaussianBlur></filter><filter height="2.8" id="filter-8" node-id="27" width="2.636" x="-0.818" y="-0.9"><feGaussianBlur color-interpolation-filters="linearRGB" in="SourceGraphic" result="result1" stdDeviation="48 48"></feGaussianBlur></filter><filter height="1.75" id="filter-11" node-id="33" width="1.857" x="-0.429" y="-0.375"><feOffset color-interpolation-filters="linearRGB" dx="0" dy="0" in="SourceAlpha" result="shadowOffsetOuter1"></feOffset><feGaussianBlur color-interpolation-filters="linearRGB" in="shadowOffsetOuter1" result="shadowBlurOuter1" stdDeviation="32 32"></feGaussianBlur><feColorMatrix color-interpolation-filters="linearRGB" in="shadowBlurOuter1" result="result3" type="matrix" values="0 0 0 0 0.888848346 0 0 0 0 0.591702642 0 0 0 0 0.178785883 0 0 0 1 0"></feColorMatrix></filter><filter height="1.625" id="filter-12" node-id="37" width="1.714" x="-0.357" y="-0.312"><feGaussianBlur color-interpolation-filters="linearRGB" in="SourceAlpha" result="shadowBlurInner1" stdDeviation="16 16"></feGaussianBlur><feOffset color-interpolation-filters="linearRGB" dx="0" dy="0" in="shadowBlurInner1" result="shadowOffsetInner1"></feOffset><feComposite color-interpolation-filters="linearRGB" in="shadowOffsetInner1" in2="SourceAlpha" k1="0" k2="-1" k3="1" k4="0" operator="arithmetic" result="shadowInnerInner1"></feComposite><feColorMatrix color-interpolation-filters="linearRGB" in="shadowInnerInner1" result="result4" type="matrix" values="0 0 0 0 1 0 0 0 0 0.880587925 0 0 0 0 0.537254902 0 0 0 0.500726446 0"></feColorMatrix></filter><filter height="1.75" id="filter-14" node-id="43" width="1.857" x="-0.429" y="-0.375"><feOffset color-interpolation-filters="linearRGB" dx="0" dy="0" in="SourceAlpha" result="shadowOffsetOuter1"></feOffset><feGaussianBlur color-interpolation-filters="linearRGB" in="shadowOffsetOuter1" result="shadowBlurOuter1" stdDeviation="32 32"></feGaussianBlur><feColorMatrix color-interpolation-filters="linearRGB" in="shadowBlurOuter1" result="result3" type="matrix" values="0 0 0 0 0.888848346 0 0 0 0 0.591702642 0 0 0 0 0.178785883 0 0 0 1 0"></feColorMatrix></filter><filter height="1.625" id="filter-15" node-id="47" width="1.714" x="-0.357" y="-0.312"><feGaussianBlur color-interpolation-filters="linearRGB" in="SourceAlpha" result="shadowBlurInner1" stdDeviation="16 16"></feGaussianBlur><feOffset color-interpolation-filters="linearRGB" dx="0" dy="0" in="shadowBlurInner1" result="shadowOffsetInner1"></feOffset><feComposite color-interpolation-filters="linearRGB" in="shadowOffsetInner1" in2="SourceAlpha" k1="0" k2="-1" k3="1" k4="0" operator="arithmetic" result="shadowInnerInner1"></feComposite><feColorMatrix color-interpolation-filters="linearRGB" in="shadowInnerInner1" result="result4" type="matrix" values="0 0 0 0 1 0 0 0 0 0.880587925 0 0 0 0 0.537254902 0 0 0 0.500726446 0"></feColorMatrix></filter></defs><g node-id="260"><path d="M 0.00 0.00 L 1024.00 0.00 L 1024.00 1024.00 L 0.00 1024.00 Z" fill="none" group-id="1" id="矩形备份-6" node-id="54" stroke="none" target-height="1024" target-width="1024" target-x="0" target-y="0"></path><g node-id="261"><g node-id="266"><g node-id="274"><path d="M 486.86 96.38 L 501.27 96.01 L 515.38 96.26 L 529.21 97.12 L 542.78 98.56 L 556.11 100.60 L 569.45 103.25 L 582.45 106.45 L 595.14 110.18 L 607.52 114.44 L 619.62 119.24 L 631.55 124.62 L 643.10 130.48 L 654.29 136.81 L 665.13 143.63 L 675.63 150.95 L 685.80 158.75 L 695.54 166.99 L 704.88 175.66 L 713.82 184.77 L 722.36 194.34 L 730.43 204.28 L 738.02 214.61 L 745.16 225.35 L 751.83 236.49 L 758.05 248.07 L 769.36 253.33 L 780.52 258.98 L 791.54 265.01 L 802.41 271.43 L 813.15 278.25 L 826.23 287.24 L 838.93 296.74 L 851.27 306.77 L 863.26 317.34 L 872.54 326.15 L 881.50 335.23 L 890.13 344.59 L 898.46 354.24 L 906.47 364.18 L 914.14 374.40 L 921.41 384.85 L 928.28 395.53 L 934.76 406.44 L 940.86 417.61 L 946.52 428.99 L 951.71 440.56 L 956.44 452.32 L 960.70 464.28 L 964.49 476.45 L 967.77 488.74 L 970.50 501.18 L 972.70 513.79 L 974.35 526.58 L 975.46 539.55 L 975.98 552.48 L 975.88 565.54 L 975.17 578.77 L 973.83 592.16 L 971.84 605.75 L 969.02 620.58 L 965.77 634.95 L 962.10 648.88 L 958.01 662.38 L 953.51 675.47 L 948.61 688.17 L 943.16 700.86 L 937.32 713.16 L 931.10 725.06 L 924.50 736.57 L 917.52 747.73 L 910.15 758.52 L 902.33 769.08 L 894.15 779.28 L 885.61 789.13 L 876.71 798.64 L 867.44 807.81 L 857.79 816.64 L 847.85 825.09 L 837.58 833.20 L 826.95 840.98 L 815.96 848.44 L 804.61 855.57 L 792.88 862.38 L 784.16 867.78 L 774.82 873.07 L 764.83 878.22 L 754.14 883.24 L 743.49 887.78 L 732.08 892.19 L 719.87 896.45 L 706.83 900.56 L 693.95 904.20 L 680.18 907.67 L 665.47 910.97 L 649.78 914.08 L 634.38 916.75 L 617.95 919.23 L 600.46 921.49 L 581.85 923.53 L 560.70 925.39 L 539.95 926.75 L 519.60 927.61 L 499.64 927.98 L 480.05 927.87 L 460.19 927.26 L 440.81 926.15 L 421.90 924.54 L 403.44 922.45 L 385.42 919.89 L 367.22 916.75 L 349.57 913.11 L 332.44 908.98 L 315.82 904.39 L 299.69 899.32 L 286.19 894.59 L 273.10 889.51 L 260.41 884.11 L 248.10 878.37 L 236.16 872.30 L 224.58 865.90 L 213.11 859.00 L 202.06 851.76 L 191.42 844.18 L 181.17 836.25 L 171.30 827.97 L 161.82 819.34 L 152.67 810.30 L 143.95 800.89 L 135.64 791.11 L 127.74 780.93 L 120.23 770.36 L 113.12 759.39 L 106.56 748.22 L 100.43 736.64 L 94.73 724.62 L 89.45 712.15 L 84.61 699.21 L 80.21 685.77 L 76.46 672.48 L 73.16 658.70 L 70.34 644.41 L 67.99 629.58 L 66.15 614.19 L 64.82 598.22 L 64.14 583.09 L 64.03 568.57 L 64.46 554.63 L 65.41 541.24 L 66.86 528.37 L 68.90 515.28 L 71.42 502.70 L 74.40 490.60 L 77.84 478.97 L 81.72 467.78 L 86.18 456.62 L 91.06 445.89 L 96.35 435.54 L 102.05 425.58 L 108.18 415.98 L 114.77 406.63 L 121.74 397.62 L 129.10 388.93 L 136.85 380.56 L 145.01 372.50 L 153.46 364.81 L 162.28 357.41 L 171.46 350.29 L 181.02 343.45 L 190.97 336.88 L 193.90 323.41 L 197.19 310.46 L 200.84 298.03 L 204.83 286.10 L 209.16 274.63 L 213.83 263.62 L 218.81 253.05 L 224.38 242.41 L 230.26 232.20 L 236.44 222.43 L 242.94 213.08 L 249.74 204.13 L 256.85 195.57 L 264.28 187.38 L 273.46 178.18 L 283.02 169.49 L 292.99 161.29 L 303.37 153.58 L 314.17 146.34 L 325.42 139.58 L 336.87 133.40 L 348.72 127.67 L 360.96 122.40 L 373.62 117.59 L 386.72 113.23 L 400.27 109.34 L 413.70 106.05 L 427.52 103.20 L 441.72 100.79 L 456.34 98.85 L 471.38 97.37 L 486.86 96.38 Z" fill="url(#radialGradient-1)" fill-rule="evenodd" group-id="1,2,7,15" node-id="184" stroke="none" target-height="831.9669" target-width="911.9464" target-x="64.03111" target-y="96.01346"></path></g><path d="M 486.86 96.38 L 501.27 96.01 L 515.38 96.26 L 529.21 97.12 L 542.78 98.56 L 556.11 100.60 L 569.45 103.25 L 582.45 106.45 L 595.14 110.18 L 607.52 114.44 L 619.62 119.24 L 631.55 124.62 L 643.10 130.48 L 654.29 136.81 L 665.13 143.63 L 675.63 150.95 L 685.80 158.75 L 695.54 166.99 L 704.88 175.66 L 713.82 184.77 L 722.36 194.34 L 730.43 204.28 L 738.02 214.61 L 745.16 225.35 L 751.83 236.49 L 758.05 248.07 L 769.36 253.33 L 780.52 258.98 L 791.54 265.01 L 802.41 271.43 L 813.15 278.25 L 826.23 287.24 L 838.93 296.74 L 851.27 306.77 L 863.26 317.34 L 872.54 326.15 L 881.50 335.23 L 890.13 344.59 L 898.46 354.24 L 906.47 364.18 L 914.14 374.40 L 921.41 384.85 L 928.28 395.53 L 934.76 406.44 L 940.86 417.61 L 946.52 428.99 L 951.71 440.56 L 956.44 452.32 L 960.70 464.28 L 964.49 476.45 L 967.77 488.74 L 970.50 501.18 L 972.70 513.79 L 974.35 526.58 L 975.46 539.55 L 975.98 552.48 L 975.88 565.54 L 975.17 578.77 L 973.83 592.16 L 971.84 605.75 L 969.02 620.58 L 965.77 634.95 L 962.10 648.88 L 958.01 662.38 L 953.51 675.47 L 948.61 688.17 L 943.16 700.86 L 937.32 713.16 L 931.10 725.06 L 924.50 736.57 L 917.52 747.73 L 910.15 758.52 L 902.33 769.08 L 894.15 779.28 L 885.61 789.13 L 876.71 798.64 L 867.44 807.81 L 857.79 816.64 L 847.85 825.09 L 837.58 833.20 L 826.95 840.98 L 815.96 848.44 L 804.61 855.57 L 792.88 862.38 L 784.16 867.78 L 774.82 873.07 L 764.83 878.22 L 754.14 883.24 L 743.49 887.78 L 732.08 892.19 L 719.87 896.45 L 706.83 900.56 L 693.95 904.20 L 680.18 907.67 L 665.47 910.97 L 649.78 914.08 L 634.38 916.75 L 617.95 919.23 L 600.46 921.49 L 581.85 923.53 L 560.70 925.39 L 539.95 926.75 L 519.60 927.61 L 499.64 927.98 L 480.05 927.87 L 460.19 927.26 L 440.81 926.15 L 421.90 924.54 L 403.44 922.45 L 385.42 919.89 L 367.22 916.75 L 349.57 913.11 L 332.44 908.98 L 315.82 904.39 L 299.69 899.32 L 286.19 894.59 L 273.10 889.51 L 260.41 884.11 L 248.10 878.37 L 236.16 872.30 L 224.58 865.90 L 213.11 859.00 L 202.06 851.76 L 191.42 844.18 L 181.17 836.25 L 171.30 827.97 L 161.82 819.34 L 152.67 810.30 L 143.95 800.89 L 135.64 791.11 L 127.74 780.93 L 120.23 770.36 L 113.12 759.39 L 106.56 748.22 L 100.43 736.64 L 94.73 724.62 L 89.45 712.15 L 84.61 699.21 L 80.21 685.77 L 76.46 672.48 L 73.16 658.70 L 70.34 644.41 L 67.99 629.58 L 66.15 614.19 L 64.82 598.22 L 64.14 583.09 L 64.03 568.57 L 64.46 554.63 L 65.41 541.24 L 66.86 528.37 L 68.90 515.28 L 71.42 502.70 L 74.40 490.60 L 77.84 478.97 L 81.72 467.78 L 86.18 456.62 L 91.06 445.89 L 96.35 435.54 L 102.05 425.58 L 108.18 415.98 L 114.77 406.63 L 121.74 397.62 L 129.10 388.93 L 136.85 380.56 L 145.01 372.50 L 153.46 364.81 L 162.28 357.41 L 171.46 350.29 L 181.02 343.45 L 190.97 336.88 L 193.90 323.41 L 197.19 310.46 L 200.84 298.03 L 204.83 286.10 L 209.16 274.63 L 213.83 263.62 L 218.81 253.05 L 224.38 242.41 L 230.26 232.20 L 236.44 222.43 L 242.94 213.08 L 249.74 204.13 L 256.85 195.57 L 264.28 187.38 L 273.46 178.18 L 283.02 169.49 L 292.99 161.29 L 303.37 153.58 L 314.17 146.34 L 325.42 139.58 L 336.87 133.40 L 348.72 127.67 L 360.96 122.40 L 373.62 117.59 L 386.72 113.23 L 400.27 109.34 L 413.70 106.05 L 427.52 103.20 L 441.72 100.79 L 456.34 98.85 L 471.38 97.37 L 486.86 96.38 Z" fill="#000000" fill-rule="evenodd" filter="url(#filter-3)" group-id="1,2,7,16" node-id="189" stroke="none" target-height="831.9669" target-width="911.9464" target-x="64.03111" target-y="96.01346"></path></g><g node-id="267"><g node-id="276"><path d="M 460.45 794.18 L 469.52 796.35 L 478.70 798.08 L 488.01 799.37 L 497.37 800.28 L 506.70 800.84 L 516.01 801.07 L 529.92 800.88 L 543.41 800.17 L 556.69 799.01 L 569.16 797.57 L 581.27 795.89 L 592.19 794.18 L 593.83 791.15 L 594.93 788.12 L 595.51 785.04 L 595.59 781.88 L 595.21 778.74 L 594.40 775.57 L 593.13 772.35 L 591.37 769.05 L 588.55 764.97 L 585.01 760.93 L 580.67 756.91 L 575.96 753.31 L 570.63 749.91 L 564.62 746.72 L 558.37 744.00 L 551.63 741.65 L 544.34 739.70 L 536.94 738.28 L 529.16 737.40 L 520.98 737.08 L 513.54 737.36 L 506.71 738.10 L 500.44 739.25 L 494.68 740.79 L 488.92 742.82 L 483.75 745.13 L 479.12 747.69 L 474.98 750.48 L 471.02 753.71 L 467.63 757.04 L 464.76 760.48 L 462.37 764.04 L 460.34 767.89 L 458.85 771.70 L 457.86 775.50 L 457.36 779.32 L 457.35 783.18 L 457.86 786.92 L 458.88 790.58 L 460.45 794.18 Z" fill="#000000" fill-rule="evenodd" filter="url(#filter-5)" group-id="1,2,8,17" node-id="196" stroke="none" target-height="63.9881" target-width="138.23572" target-x="457.3495" target-y="737.0796"></path></g><g node-id="277"><path d="M 460.45 794.18 L 469.52 796.35 L 478.70 798.08 L 488.01 799.37 L 497.37 800.28 L 506.70 800.84 L 516.01 801.07 L 529.92 800.88 L 543.41 800.17 L 556.69 799.01 L 569.16 797.57 L 581.27 795.89 L 592.19 794.18 L 593.83 791.15 L 594.93 788.12 L 595.51 785.04 L 595.59 781.88 L 595.21 778.74 L 594.40 775.57 L 593.13 772.35 L 591.37 769.05 L 588.55 764.97 L 585.01 760.93 L 580.67 756.91 L 575.96 753.31 L 570.63 749.91 L 564.62 746.72 L 558.37 744.00 L 551.63 741.65 L 544.34 739.70 L 536.94 738.28 L 529.16 737.40 L 520.98 737.08 L 513.54 737.36 L 506.71 738.10 L 500.44 739.25 L 494.68 740.79 L 488.92 742.82 L 483.75 745.13 L 479.12 747.69 L 474.98 750.48 L 471.02 753.71 L 467.63 757.04 L 464.76 760.48 L 462.37 764.04 L 460.34 767.89 L 458.85 771.70 L 457.86 775.50 L 457.36 779.32 L 457.35 783.18 L 457.86 786.92 L 458.88 790.58 L 460.45 794.18 Z" fill="#a05400" fill-rule="evenodd" group-id="1,2,8,18" node-id="201" stroke="none" target-height="63.9881" target-width="138.23572" target-x="457.3495" target-y="737.0796"></path></g><path d="M 460.45 794.18 L 469.52 796.35 L 478.70 798.08 L 488.01 799.37 L 497.37 800.28 L 506.70 800.84 L 516.01 801.07 L 529.92 800.88 L 543.41 800.17 L 556.69 799.01 L 569.16 797.57 L 581.27 795.89 L 592.19 794.18 L 593.83 791.15 L 594.93 788.12 L 595.51 785.04 L 595.59 781.88 L 595.21 778.74 L 594.40 775.57 L 593.13 772.35 L 591.37 769.05 L 588.55 764.97 L 585.01 760.93 L 580.67 756.91 L 575.96 753.31 L 570.63 749.91 L 564.62 746.72 L 558.37 744.00 L 551.63 741.65 L 544.34 739.70 L 536.94 738.28 L 529.16 737.40 L 520.98 737.08 L 513.54 737.36 L 506.71 738.10 L 500.44 739.25 L 494.68 740.79 L 488.92 742.82 L 483.75 745.13 L 479.12 747.69 L 474.98 750.48 L 471.02 753.71 L 467.63 757.04 L 464.76 760.48 L 462.37 764.04 L 460.34 767.89 L 458.85 771.70 L 457.86 775.50 L 457.36 779.32 L 457.35 783.18 L 457.86 786.92 L 458.88 790.58 L 460.45 794.18 Z" fill="#000000" fill-rule="evenodd" filter="url(#filter-6)" group-id="1,2,8,19" node-id="206" stroke="none" target-height="63.9881" target-width="138.23572" target-x="457.3495" target-y="737.0796"></path></g><g node-id="268"><path d="M 800.00 600.00 L 799.69 606.63 L 798.84 613.04 L 797.44 619.25 L 795.51 625.29 L 793.07 631.15 L 790.18 636.76 L 786.84 642.12 L 783.02 647.25 L 778.82 652.06 L 774.26 656.54 L 769.31 660.71 L 763.97 664.56 L 758.38 668.00 L 752.50 671.04 L 746.32 673.68 L 739.81 675.92 L 733.20 677.67 L 726.38 678.94 L 719.32 679.72 L 712.00 680.00 L 704.68 679.72 L 697.62 678.94 L 690.80 677.67 L 684.19 675.92 L 677.68 673.68 L 671.50 671.04 L 665.62 668.00 L 660.03 664.56 L 654.69 660.71 L 649.74 656.54 L 645.18 652.06 L 640.98 647.25 L 637.16 642.12 L 633.82 636.76 L 630.93 631.15 L 628.49 625.29 L 626.56 619.25 L 625.16 613.04 L 624.31 606.63 L 624.00 600.00 L 624.31 593.37 L 625.16 586.96 L 626.56 580.75 L 628.49 574.71 L 630.93 568.85 L 633.82 563.24 L 637.16 557.88 L 640.98 552.75 L 645.18 547.94 L 649.74 543.46 L 654.69 539.29 L 660.03 535.44 L 665.62 532.00 L 671.50 528.96 L 677.68 526.32 L 684.19 524.08 L 690.80 522.33 L 697.62 521.06 L 704.68 520.28 L 712.00 520.00 L 719.32 520.28 L 726.38 521.06 L 733.20 522.33 L 739.81 524.08 L 746.32 526.32 L 752.50 528.96 L 758.38 532.00 L 763.97 535.44 L 769.31 539.29 L 774.26 543.46 L 778.82 547.94 L 783.02 552.75 L 786.84 557.88 L 790.18 563.24 L 793.07 568.85 L 795.51 574.71 L 797.44 580.75 L 798.84 586.96 L 799.69 593.37 L 800.00 600.00 Z" fill="#ff5ea4" fill-opacity="0.8" fill-rule="evenodd" filter="url(#filter-7)" group-id="1,2,9" id="椭圆形" node-id="63" stroke="none" target-height="160" target-width="176" target-x="624" target-y="520"></path></g><path d="M 368.00 600.00 L 367.69 606.63 L 366.84 613.04 L 365.44 619.25 L 363.51 625.29 L 361.07 631.15 L 358.18 636.76 L 354.84 642.12 L 351.02 647.25 L 346.82 652.06 L 342.26 656.54 L 337.31 660.71 L 331.97 664.56 L 326.38 668.00 L 320.50 671.04 L 314.32 673.68 L 307.81 675.92 L 301.20 677.67 L 294.38 678.94 L 287.32 679.72 L 280.00 680.00 L 272.68 679.72 L 265.62 678.94 L 258.80 677.67 L 252.19 675.92 L 245.68 673.68 L 239.50 671.04 L 233.62 668.00 L 228.03 664.56 L 222.69 660.71 L 217.74 656.54 L 213.18 652.06 L 208.98 647.25 L 205.16 642.12 L 201.82 636.76 L 198.93 631.15 L 196.49 625.29 L 194.56 619.25 L 193.16 613.04 L 192.31 606.63 L 192.00 600.00 L 192.31 593.37 L 193.16 586.96 L 194.56 580.75 L 196.49 574.71 L 198.93 568.85 L 201.82 563.24 L 205.16 557.88 L 208.98 552.75 L 213.18 547.94 L 217.74 543.46 L 222.69 539.29 L 228.03 535.44 L 233.62 532.00 L 239.50 528.96 L 245.68 526.32 L 252.19 524.08 L 258.80 522.33 L 265.62 521.06 L 272.68 520.28 L 280.00 520.00 L 287.32 520.28 L 294.38 521.06 L 301.20 522.33 L 307.81 524.08 L 314.32 526.32 L 320.50 528.96 L 326.38 532.00 L 331.97 535.44 L 337.31 539.29 L 342.26 543.46 L 346.82 547.94 L 351.02 552.75 L 354.84 557.88 L 358.18 563.24 L 361.07 568.85 L 363.51 574.71 L 365.44 580.75 L 366.84 586.96 L 367.69 593.37 L 368.00 600.00 Z" fill="#ff5ea4" fill-opacity="0.8" fill-rule="evenodd" filter="url(#filter-8)" group-id="1,2,10" id="椭圆形备份-6" node-id="64" stroke="none" target-height="160" target-width="176" target-x="192" target-y="520"></path></g><g node-id="262"><g node-id="270"><g node-id="279"><path d="M 464.00 432.38 L 463.73 441.25 L 462.96 449.87 L 461.72 458.25 L 460.00 466.41 L 457.79 474.51 L 455.17 482.29 L 452.14 489.78 L 448.71 496.99 L 444.83 504.01 L 440.62 510.66 L 436.08 516.95 L 431.20 522.89 L 425.93 528.54 L 420.40 533.75 L 414.61 538.53 L 408.53 542.91 L 402.16 546.87 L 395.59 550.33 L 388.80 553.31 L 381.77 555.81 L 374.60 557.78 L 367.26 559.21 L 359.74 560.07 L 352.00 560.38 L 344.26 560.07 L 336.74 559.21 L 329.40 557.78 L 322.23 555.81 L 315.20 553.31 L 308.41 550.33 L 301.84 546.87 L 295.47 542.91 L 289.39 538.53 L 283.60 533.75 L 278.07 528.54 L 272.80 522.89 L 267.92 516.95 L 263.38 510.66 L 259.17 504.01 L 255.29 496.99 L 251.86 489.78 L 248.83 482.29 L 246.21 474.51 L 244.00 466.41 L 242.28 458.25 L 241.04 449.87 L 240.27 441.25 L 240.00 432.38 L 240.27 423.52 L 241.04 414.90 L 242.28 406.52 L 244.00 398.36 L 246.21 390.26 L 248.83 382.48 L 251.86 374.99 L 255.29 367.78 L 259.17 360.76 L 263.38 354.11 L 267.92 347.82 L 272.80 341.87 L 278.07 336.23 L 283.60 331.02 L 289.39 326.24 L 295.47 321.86 L 301.84 317.90 L 308.41 314.44 L 315.20 311.46 L 322.23 308.96 L 329.40 306.98 L 336.74 305.56 L 344.26 304.69 L 352.00 304.38 L 359.74 304.69 L 367.26 305.56 L 374.60 306.98 L 381.77 308.96 L 388.80 311.46 L 395.59 314.44 L 402.16 317.90 L 408.53 321.86 L 414.61 326.24 L 420.40 331.02 L 425.93 336.23 L 431.20 341.87 L 436.08 347.82 L 440.62 354.11 L 444.83 360.76 L 448.71 367.78 L 452.14 374.99 L 455.17 382.48 L 457.79 390.26 L 460.00 398.36 L 461.72 406.52 L 462.96 414.90 L 463.73 423.52 L 464.00 432.38 Z" fill="#000000" fill-rule="evenodd" filter="url(#filter-11)" group-id="1,3,11,20" node-id="223" stroke="none" target-height="256.00003" target-width="224" target-x="240" target-y="304.38364"></path></g><g node-id="280"><path d="M 464.00 432.38 L 463.73 441.25 L 462.96 449.87 L 461.72 458.25 L 460.00 466.41 L 457.79 474.51 L 455.17 482.29 L 452.14 489.78 L 448.71 496.99 L 444.83 504.01 L 440.62 510.66 L 436.08 516.95 L 431.20 522.89 L 425.93 528.54 L 420.40 533.75 L 414.61 538.53 L 408.53 542.91 L 402.16 546.87 L 395.59 550.33 L 388.80 553.31 L 381.77 555.81 L 374.60 557.78 L 367.26 559.21 L 359.74 560.07 L 352.00 560.38 L 344.26 560.07 L 336.74 559.21 L 329.40 557.78 L 322.23 555.81 L 315.20 553.31 L 308.41 550.33 L 301.84 546.87 L 295.47 542.91 L 289.39 538.53 L 283.60 533.75 L 278.07 528.54 L 272.80 522.89 L 267.92 516.95 L 263.38 510.66 L 259.17 504.01 L 255.29 496.99 L 251.86 489.78 L 248.83 482.29 L 246.21 474.51 L 244.00 466.41 L 242.28 458.25 L 241.04 449.87 L 240.27 441.25 L 240.00 432.38 L 240.27 423.52 L 241.04 414.90 L 242.28 406.52 L 244.00 398.36 L 246.21 390.26 L 248.83 382.48 L 251.86 374.99 L 255.29 367.78 L 259.17 360.76 L 263.38 354.11 L 267.92 347.82 L 272.80 341.87 L 278.07 336.23 L 283.60 331.02 L 289.39 326.24 L 295.47 321.86 L 301.84 317.90 L 308.41 314.44 L 315.20 311.46 L 322.23 308.96 L 329.40 306.98 L 336.74 305.56 L 344.26 304.69 L 352.00 304.38 L 359.74 304.69 L 367.26 305.56 L 374.60 306.98 L 381.77 308.96 L 388.80 311.46 L 395.59 314.44 L 402.16 317.90 L 408.53 321.86 L 414.61 326.24 L 420.40 331.02 L 425.93 336.23 L 431.20 341.87 L 436.08 347.82 L 440.62 354.11 L 444.83 360.76 L 448.71 367.78 L 452.14 374.99 L 455.17 382.48 L 457.79 390.26 L 460.00 398.36 L 461.72 406.52 L 462.96 414.90 L 463.73 423.52 L 464.00 432.38 Z" fill="url(#linearGradient-9)" fill-rule="evenodd" group-id="1,3,11,21" node-id="228" stroke="none" target-height="256.00003" target-width="224" target-x="240" target-y="304.38364"></path></g><path d="M 464.00 432.38 L 463.73 441.25 L 462.96 449.87 L 461.72 458.25 L 460.00 466.41 L 457.79 474.51 L 455.17 482.29 L 452.14 489.78 L 448.71 496.99 L 444.83 504.01 L 440.62 510.66 L 436.08 516.95 L 431.20 522.89 L 425.93 528.54 L 420.40 533.75 L 414.61 538.53 L 408.53 542.91 L 402.16 546.87 L 395.59 550.33 L 388.80 553.31 L 381.77 555.81 L 374.60 557.78 L 367.26 559.21 L 359.74 560.07 L 352.00 560.38 L 344.26 560.07 L 336.74 559.21 L 329.40 557.78 L 322.23 555.81 L 315.20 553.31 L 308.41 550.33 L 301.84 546.87 L 295.47 542.91 L 289.39 538.53 L 283.60 533.75 L 278.07 528.54 L 272.80 522.89 L 267.92 516.95 L 263.38 510.66 L 259.17 504.01 L 255.29 496.99 L 251.86 489.78 L 248.83 482.29 L 246.21 474.51 L 244.00 466.41 L 242.28 458.25 L 241.04 449.87 L 240.27 441.25 L 240.00 432.38 L 240.27 423.52 L 241.04 414.90 L 242.28 406.52 L 244.00 398.36 L 246.21 390.26 L 248.83 382.48 L 251.86 374.99 L 255.29 367.78 L 259.17 360.76 L 263.38 354.11 L 267.92 347.82 L 272.80 341.87 L 278.07 336.23 L 283.60 331.02 L 289.39 326.24 L 295.47 321.86 L 301.84 317.90 L 308.41 314.44 L 315.20 311.46 L 322.23 308.96 L 329.40 306.98 L 336.74 305.56 L 344.26 304.69 L 352.00 304.38 L 359.74 304.69 L 367.26 305.56 L 374.60 306.98 L 381.77 308.96 L 388.80 311.46 L 395.59 314.44 L 402.16 317.90 L 408.53 321.86 L 414.61 326.24 L 420.40 331.02 L 425.93 336.23 L 431.20 341.87 L 436.08 347.82 L 440.62 354.11 L 444.83 360.76 L 448.71 367.78 L 452.14 374.99 L 455.17 382.48 L 457.79 390.26 L 460.00 398.36 L 461.72 406.52 L 462.96 414.90 L 463.73 423.52 L 464.00 432.38 Z" fill="#000000" fill-rule="evenodd" filter="url(#filter-12)" group-id="1,3,11,22" node-id="233" stroke="none" target-height="256.00003" target-width="224" target-x="240" target-y="304.38364"></path></g><g node-id="271"><path d="M 402.11 323.83 L 407.29 324.01 L 412.35 324.53 L 418.03 328.98 L 423.45 333.81 L 428.61 339.01 L 433.52 344.61 L 438.07 350.48 L 442.31 356.66 L 446.22 363.16 L 449.82 370.00 L 453.01 377.01 L 455.82 384.27 L 458.25 391.81 L 460.30 399.62 L 461.89 407.50 L 463.04 415.57 L 463.75 423.86 L 464.00 432.38 L 463.89 438.15 L 460.38 443.05 L 456.52 447.60 L 452.32 451.83 L 447.75 455.73 L 442.89 459.26 L 437.76 462.36 L 432.37 465.05 L 426.68 467.34 L 420.85 469.13 L 414.82 470.43 L 408.59 471.23 L 402.11 471.52 L 395.98 471.26 L 390.06 470.54 L 384.33 469.37 L 378.77 467.76 L 373.33 465.70 L 368.15 463.27 L 363.21 460.46 L 358.50 457.27 L 354.04 453.73 L 349.89 449.89 L 346.06 445.75 L 342.51 441.29 L 339.33 436.57 L 336.52 431.64 L 334.09 426.46 L 332.03 421.02 L 330.41 415.46 L 329.24 409.73 L 328.52 403.81 L 328.26 397.67 L 328.52 391.54 L 329.24 385.62 L 330.41 379.89 L 332.03 374.33 L 334.09 368.89 L 336.52 363.71 L 339.33 358.77 L 342.51 354.06 L 346.06 349.60 L 349.89 345.46 L 354.04 341.62 L 358.50 338.08 L 363.21 334.89 L 368.15 332.08 L 373.33 329.65 L 378.77 327.59 L 384.33 325.98 L 390.06 324.81 L 395.98 324.09 L 402.11 323.83 Z" fill="#930027" fill-rule="evenodd" group-id="1,3,12" id="形状结合" node-id="71" stroke="none" target-height="147.69232" target-width="135.73508" target-x="328.26492" target-y="323.8286"></path><path d="M 386.11 434.60 L 389.94 434.39 L 393.60 433.84 L 397.11 432.94 L 400.48 431.70 L 404.77 429.54 L 408.67 426.91 L 412.22 423.78 L 415.35 420.23 L 417.98 416.33 L 420.13 412.05 L 421.37 408.67 L 422.27 405.17 L 422.83 401.51 L 423.03 397.67 L 422.83 393.84 L 422.27 390.18 L 421.37 386.68 L 420.13 383.30 L 417.98 379.02 L 415.35 375.12 L 412.22 371.57 L 408.67 368.44 L 404.77 365.81 L 400.48 363.65 L 397.11 362.41 L 393.60 361.51 L 389.94 360.96 L 386.11 360.75 L 382.28 360.96 L 378.62 361.51 L 375.11 362.41 L 371.74 363.65 L 367.45 365.81 L 363.55 368.44 L 360.00 371.57 L 356.88 375.12 L 354.25 379.02 L 352.09 383.30 L 350.85 386.68 L 349.95 390.18 L 349.39 393.84 L 349.19 397.67 L 349.39 401.51 L 349.95 405.17 L 350.85 408.67 L 352.09 412.05 L 354.25 416.33 L 356.88 420.23 L 360.00 423.78 L 363.55 426.91 L 367.45 429.54 L 371.74 431.70 L 375.11 432.94 L 378.62 433.84 L 382.28 434.39 L 386.11 434.60 Z" fill="#301502" fill-rule="evenodd" group-id="1,3,12" id="椭圆形" node-id="72" stroke="none" target-height="73.84616" target-width="73.84616" target-x="349.188" target-y="360.75168"></path><path d="M 410.11 397.67 L 413.41 397.45 L 416.51 396.82 L 419.45 395.79 L 422.24 394.39 L 424.77 392.68 L 427.08 390.65 L 429.11 388.34 L 430.82 385.80 L 432.23 383.02 L 433.25 380.07 L 433.88 376.97 L 434.11 373.67 L 433.88 370.38 L 433.25 367.27 L 432.23 364.33 L 430.82 361.55 L 429.11 359.01 L 427.08 356.70 L 424.77 354.67 L 422.24 352.96 L 419.45 351.56 L 416.51 350.53 L 413.41 349.90 L 410.11 349.67 L 406.81 349.90 L 403.71 350.53 L 400.77 351.56 L 397.98 352.96 L 395.45 354.67 L 393.14 356.70 L 391.11 359.01 L 389.40 361.55 L 388.00 364.33 L 386.97 367.27 L 386.34 370.38 L 386.11 373.67 L 386.34 376.97 L 386.97 380.07 L 388.00 383.02 L 389.40 385.80 L 391.11 388.34 L 393.14 390.65 L 395.45 392.68 L 397.98 394.39 L 400.77 395.79 L 403.71 396.82 L 406.81 397.45 L 410.11 397.67 Z" fill="#ffffff" fill-rule="evenodd" group-id="1,3,12" id="椭圆形" node-id="73" stroke="none" target-height="48" target-width="48" target-x="386.11108" target-y="349.67477"></path><path d="M 363.03 443.83 L 365.56 443.59 L 367.88 442.96 L 370.02 441.94 L 371.97 440.56 L 373.61 438.91 L 374.99 436.97 L 376.01 434.83 L 376.64 432.51 L 376.88 429.98 L 376.64 427.46 L 376.01 425.14 L 374.99 422.99 L 373.61 421.05 L 371.97 419.40 L 370.02 418.03 L 367.88 417.00 L 365.56 416.37 L 363.03 416.14 L 360.51 416.37 L 358.19 417.00 L 356.05 418.03 L 354.10 419.40 L 352.45 421.05 L 351.08 422.99 L 350.05 425.14 L 349.42 427.46 L 349.19 429.98 L 349.42 432.51 L 350.05 434.83 L 351.08 436.97 L 352.45 438.91 L 354.10 440.56 L 356.05 441.94 L 358.19 442.96 L 360.51 443.59 L 363.03 443.83 Z" fill="#ffffff" fill-rule="evenodd" group-id="1,3,12" id="椭圆形备份-5" node-id="74" stroke="none" target-height="27.692322" target-width="27.692322" target-x="349.188" target-y="416.1363"></path></g></g><g node-id="263"><g node-id="272"><g node-id="282"><path d="M 784.00 432.38 L 783.73 441.25 L 782.96 449.87 L 781.72 458.25 L 780.00 466.41 L 777.79 474.51 L 775.17 482.29 L 772.14 489.78 L 768.71 496.99 L 764.83 504.01 L 760.62 510.66 L 756.08 516.95 L 751.20 522.89 L 745.93 528.54 L 740.40 533.75 L 734.61 538.53 L 728.53 542.91 L 722.16 546.87 L 715.59 550.33 L 708.80 553.31 L 701.77 555.81 L 694.60 557.78 L 687.26 559.21 L 679.74 560.07 L 672.00 560.38 L 664.26 560.07 L 656.74 559.21 L 649.40 557.78 L 642.23 555.81 L 635.20 553.31 L 628.41 550.33 L 621.84 546.87 L 615.47 542.91 L 609.39 538.53 L 603.60 533.75 L 598.07 528.54 L 592.80 522.89 L 587.92 516.95 L 583.38 510.66 L 579.17 504.01 L 575.29 496.99 L 571.86 489.78 L 568.83 482.29 L 566.21 474.51 L 564.00 466.41 L 562.28 458.25 L 561.04 449.87 L 560.27 441.25 L 560.00 432.38 L 560.27 423.52 L 561.04 414.90 L 562.28 406.52 L 564.00 398.36 L 566.21 390.26 L 568.83 382.48 L 571.86 374.99 L 575.29 367.78 L 579.17 360.76 L 583.38 354.11 L 587.92 347.82 L 592.80 341.87 L 598.07 336.23 L 603.60 331.02 L 609.39 326.24 L 615.47 321.86 L 621.84 317.90 L 628.41 314.44 L 635.20 311.46 L 642.23 308.96 L 649.40 306.98 L 656.74 305.56 L 664.26 304.69 L 672.00 304.38 L 679.74 304.69 L 687.26 305.56 L 694.60 306.98 L 701.77 308.96 L 708.80 311.46 L 715.59 314.44 L 722.16 317.90 L 728.53 321.86 L 734.61 326.24 L 740.40 331.02 L 745.93 336.23 L 751.20 341.87 L 756.08 347.82 L 760.62 354.11 L 764.83 360.76 L 768.71 367.78 L 772.14 374.99 L 775.17 382.48 L 777.79 390.26 L 780.00 398.36 L 781.72 406.52 L 782.96 414.90 L 783.73 423.52 L 784.00 432.38 Z" fill="#000000" fill-rule="evenodd" filter="url(#filter-14)" group-id="1,4,13,23" node-id="248" stroke="none" target-height="256.00003" target-width="224" target-x="560" target-y="304.38364"></path></g><g node-id="283"><path d="M 784.00 432.38 L 783.73 441.25 L 782.96 449.87 L 781.72 458.25 L 780.00 466.41 L 777.79 474.51 L 775.17 482.29 L 772.14 489.78 L 768.71 496.99 L 764.83 504.01 L 760.62 510.66 L 756.08 516.95 L 751.20 522.89 L 745.93 528.54 L 740.40 533.75 L 734.61 538.53 L 728.53 542.91 L 722.16 546.87 L 715.59 550.33 L 708.80 553.31 L 701.77 555.81 L 694.60 557.78 L 687.26 559.21 L 679.74 560.07 L 672.00 560.38 L 664.26 560.07 L 656.74 559.21 L 649.40 557.78 L 642.23 555.81 L 635.20 553.31 L 628.41 550.33 L 621.84 546.87 L 615.47 542.91 L 609.39 538.53 L 603.60 533.75 L 598.07 528.54 L 592.80 522.89 L 587.92 516.95 L 583.38 510.66 L 579.17 504.01 L 575.29 496.99 L 571.86 489.78 L 568.83 482.29 L 566.21 474.51 L 564.00 466.41 L 562.28 458.25 L 561.04 449.87 L 560.27 441.25 L 560.00 432.38 L 560.27 423.52 L 561.04 414.90 L 562.28 406.52 L 564.00 398.36 L 566.21 390.26 L 568.83 382.48 L 571.86 374.99 L 575.29 367.78 L 579.17 360.76 L 583.38 354.11 L 587.92 347.82 L 592.80 341.87 L 598.07 336.23 L 603.60 331.02 L 609.39 326.24 L 615.47 321.86 L 621.84 317.90 L 628.41 314.44 L 635.20 311.46 L 642.23 308.96 L 649.40 306.98 L 656.74 305.56 L 664.26 304.69 L 672.00 304.38 L 679.74 304.69 L 687.26 305.56 L 694.60 306.98 L 701.77 308.96 L 708.80 311.46 L 715.59 314.44 L 722.16 317.90 L 728.53 321.86 L 734.61 326.24 L 740.40 331.02 L 745.93 336.23 L 751.20 341.87 L 756.08 347.82 L 760.62 354.11 L 764.83 360.76 L 768.71 367.78 L 772.14 374.99 L 775.17 382.48 L 777.79 390.26 L 780.00 398.36 L 781.72 406.52 L 782.96 414.90 L 783.73 423.52 L 784.00 432.38 Z" fill="url(#linearGradient-9)" fill-rule="evenodd" group-id="1,4,13,24" node-id="253" stroke="none" target-height="256.00003" target-width="224" target-x="560" target-y="304.38364"></path></g><path d="M 784.00 432.38 L 783.73 441.25 L 782.96 449.87 L 781.72 458.25 L 780.00 466.41 L 777.79 474.51 L 775.17 482.29 L 772.14 489.78 L 768.71 496.99 L 764.83 504.01 L 760.62 510.66 L 756.08 516.95 L 751.20 522.89 L 745.93 528.54 L 740.40 533.75 L 734.61 538.53 L 728.53 542.91 L 722.16 546.87 L 715.59 550.33 L 708.80 553.31 L 701.77 555.81 L 694.60 557.78 L 687.26 559.21 L 679.74 560.07 L 672.00 560.38 L 664.26 560.07 L 656.74 559.21 L 649.40 557.78 L 642.23 555.81 L 635.20 553.31 L 628.41 550.33 L 621.84 546.87 L 615.47 542.91 L 609.39 538.53 L 603.60 533.75 L 598.07 528.54 L 592.80 522.89 L 587.92 516.95 L 583.38 510.66 L 579.17 504.01 L 575.29 496.99 L 571.86 489.78 L 568.83 482.29 L 566.21 474.51 L 564.00 466.41 L 562.28 458.25 L 561.04 449.87 L 560.27 441.25 L 560.00 432.38 L 560.27 423.52 L 561.04 414.90 L 562.28 406.52 L 564.00 398.36 L 566.21 390.26 L 568.83 382.48 L 571.86 374.99 L 575.29 367.78 L 579.17 360.76 L 583.38 354.11 L 587.92 347.82 L 592.80 341.87 L 598.07 336.23 L 603.60 331.02 L 609.39 326.24 L 615.47 321.86 L 621.84 317.90 L 628.41 314.44 L 635.20 311.46 L 642.23 308.96 L 649.40 306.98 L 656.74 305.56 L 664.26 304.69 L 672.00 304.38 L 679.74 304.69 L 687.26 305.56 L 694.60 306.98 L 701.77 308.96 L 708.80 311.46 L 715.59 314.44 L 722.16 317.90 L 728.53 321.86 L 734.61 326.24 L 740.40 331.02 L 745.93 336.23 L 751.20 341.87 L 756.08 347.82 L 760.62 354.11 L 764.83 360.76 L 768.71 367.78 L 772.14 374.99 L 775.17 382.48 L 777.79 390.26 L 780.00 398.36 L 781.72 406.52 L 782.96 414.90 L 783.73 423.52 L 784.00 432.38 Z" fill="#000000" fill-rule="evenodd" filter="url(#filter-15)" group-id="1,4,13,25" node-id="258" stroke="none" target-height="256.00003" target-width="224" target-x="560" target-y="304.38364"></path></g><g node-id="273"><path d="M 722.11 323.83 L 727.29 324.01 L 732.35 324.53 L 738.03 328.98 L 743.45 333.81 L 748.61 339.01 L 753.52 344.61 L 758.07 350.48 L 762.31 356.66 L 766.22 363.16 L 769.82 370.00 L 773.01 377.01 L 775.82 384.27 L 778.25 391.81 L 780.30 399.62 L 781.89 407.50 L 783.04 415.57 L 783.75 423.86 L 784.00 432.38 L 783.89 438.15 L 780.38 443.05 L 776.52 447.60 L 772.32 451.83 L 767.75 455.73 L 762.89 459.26 L 757.76 462.36 L 752.37 465.05 L 746.68 467.34 L 740.85 469.13 L 734.82 470.43 L 728.59 471.23 L 722.11 471.52 L 715.98 471.26 L 710.06 470.54 L 704.33 469.37 L 698.77 467.76 L 693.33 465.70 L 688.15 463.27 L 683.21 460.46 L 678.50 457.27 L 674.04 453.73 L 669.89 449.89 L 666.06 445.75 L 662.51 441.29 L 659.33 436.57 L 656.52 431.64 L 654.09 426.46 L 652.03 421.02 L 650.41 415.46 L 649.24 409.73 L 648.52 403.81 L 648.26 397.67 L 648.52 391.54 L 649.24 385.62 L 650.41 379.89 L 652.03 374.33 L 654.09 368.89 L 656.52 363.71 L 659.33 358.77 L 662.51 354.06 L 666.06 349.60 L 669.89 345.46 L 674.04 341.62 L 678.50 338.08 L 683.21 334.89 L 688.15 332.08 L 693.33 329.65 L 698.77 327.59 L 704.33 325.98 L 710.06 324.81 L 715.98 324.09 L 722.11 323.83 Z" fill="#930027" fill-rule="evenodd" group-id="1,4,14" id="形状结合" node-id="81" stroke="none" target-height="147.69232" target-width="135.73505" target-x="648.26495" target-y="323.8286"></path><path d="M 706.11 434.60 L 709.94 434.39 L 713.60 433.84 L 717.11 432.94 L 720.48 431.70 L 724.77 429.54 L 728.67 426.91 L 732.22 423.78 L 735.35 420.23 L 737.98 416.33 L 740.13 412.05 L 741.37 408.67 L 742.27 405.17 L 742.83 401.51 L 743.03 397.67 L 742.83 393.84 L 742.27 390.18 L 741.37 386.68 L 740.13 383.30 L 737.98 379.02 L 735.35 375.12 L 732.22 371.57 L 728.67 368.44 L 724.77 365.81 L 720.48 363.65 L 717.11 362.41 L 713.60 361.51 L 709.94 360.96 L 706.11 360.75 L 702.28 360.96 L 698.62 361.51 L 695.11 362.41 L 691.74 363.65 L 687.45 365.81 L 683.55 368.44 L 680.00 371.57 L 676.88 375.12 L 674.25 379.02 L 672.09 383.30 L 670.85 386.68 L 669.95 390.18 L 669.39 393.84 L 669.19 397.67 L 669.39 401.51 L 669.95 405.17 L 670.85 408.67 L 672.09 412.05 L 674.25 416.33 L 676.88 420.23 L 680.00 423.78 L 683.55 426.91 L 687.45 429.54 L 691.74 431.70 L 695.11 432.94 L 698.62 433.84 L 702.28 434.39 L 706.11 434.60 Z" fill="#301502" fill-rule="evenodd" group-id="1,4,14" id="椭圆形" node-id="82" stroke="none" target-height="73.84616" target-width="73.84613" target-x="669.18805" target-y="360.75168"></path><path d="M 730.11 397.67 L 733.41 397.45 L 736.51 396.82 L 739.45 395.79 L 742.24 394.39 L 744.77 392.68 L 747.08 390.65 L 749.11 388.34 L 750.82 385.80 L 752.23 383.02 L 753.25 380.07 L 753.88 376.97 L 754.11 373.67 L 753.88 370.38 L 753.25 367.27 L 752.23 364.33 L 750.82 361.55 L 749.11 359.01 L 747.08 356.70 L 744.77 354.67 L 742.24 352.96 L 739.45 351.56 L 736.51 350.53 L 733.41 349.90 L 730.11 349.67 L 726.81 349.90 L 723.71 350.53 L 720.77 351.56 L 717.98 352.96 L 715.45 354.67 L 713.14 356.70 L 711.11 359.01 L 709.40 361.55 L 708.00 364.33 L 706.97 367.27 L 706.34 370.38 L 706.11 373.67 L 706.34 376.97 L 706.97 380.07 L 708.00 383.02 L 709.40 385.80 L 711.11 388.34 L 713.14 390.65 L 715.45 392.68 L 717.98 394.39 L 720.77 395.79 L 723.71 396.82 L 726.81 397.45 L 730.11 397.67 Z" fill="#ffffff" fill-rule="evenodd" group-id="1,4,14" id="椭圆形" node-id="83" stroke="none" target-height="48" target-width="48" target-x="706.1111" target-y="349.67477"></path><path d="M 683.03 443.83 L 685.56 443.59 L 687.88 442.96 L 690.02 441.94 L 691.97 440.56 L 693.61 438.91 L 694.99 436.97 L 696.01 434.83 L 696.64 432.51 L 696.88 429.98 L 696.64 427.46 L 696.01 425.14 L 694.99 422.99 L 693.61 421.05 L 691.97 419.40 L 690.02 418.03 L 687.88 417.00 L 685.56 416.37 L 683.03 416.14 L 680.51 416.37 L 678.19 417.00 L 676.05 418.03 L 674.10 419.40 L 672.45 421.05 L 671.08 422.99 L 670.05 425.14 L 669.42 427.46 L 669.19 429.98 L 669.42 432.51 L 670.05 434.83 L 671.08 436.97 L 672.45 438.91 L 674.10 440.56 L 676.05 441.94 L 678.19 442.96 L 680.51 443.59 L 683.03 443.83 Z" fill="#ffffff" fill-rule="evenodd" group-id="1,4,14" id="椭圆形备份-5" node-id="84" stroke="none" target-height="27.692322" target-width="27.69226" target-x="669.18805" target-y="416.1363"></path></g></g><g node-id="264"><path d="M 367.20 286.08 L 368.02 284.07 L 368.53 281.96 L 368.74 279.73 L 368.62 277.50 L 368.17 275.46 L 367.40 273.57 L 366.29 271.91 L 364.85 270.63 L 363.02 269.71 L 354.26 267.05 L 345.93 265.09 L 338.00 263.79 L 330.44 263.11 L 323.21 263.02 L 316.28 263.48 L 309.24 264.55 L 302.44 266.18 L 295.85 268.37 L 289.46 271.14 L 283.23 274.50 L 277.15 278.47 L 271.54 282.77 L 266.03 287.65 L 260.60 293.13 L 255.25 299.26 L 249.98 306.08 L 244.79 313.63 L 243.79 315.51 L 243.13 317.45 L 242.81 319.49 L 242.80 321.55 L 243.10 323.55 L 243.71 325.50 L 244.62 327.33 L 245.81 328.95 L 247.30 330.40 L 249.04 331.53 L 250.80 332.27 L 252.62 332.65 L 254.48 332.68 L 256.28 332.37 L 258.05 331.71 L 259.67 330.75 L 261.13 329.45 L 262.44 327.79 L 267.19 320.98 L 271.97 315.00 L 276.78 309.79 L 281.62 305.30 L 286.50 301.46 L 291.83 297.96 L 297.32 295.03 L 302.96 292.65 L 308.80 290.80 L 314.85 289.47 L 320.90 288.65 L 327.27 288.26 L 333.97 288.31 L 341.03 288.82 L 348.48 289.84 L 352.43 290.53 L 355.31 291.01 L 357.92 291.25 L 360.42 291.14 L 362.64 290.57 L 363.97 289.88 L 365.21 288.86 L 366.39 287.44 L 367.20 286.08 Z" fill="#a05400" fill-rule="nonzero" group-id="1,5" id="路径" node-id="85" stroke="none" target-height="69.660614" target-width="125.94095" target-x="242.79935" target-y="263.01886"></path></g><path d="M 612.05 294.95 L 610.60 293.25 L 609.46 291.38 L 608.62 289.31 L 608.12 287.14 L 608.02 285.05 L 608.31 283.00 L 609.02 281.09 L 610.19 279.43 L 611.89 277.98 L 620.45 272.81 L 628.76 268.44 L 636.84 264.82 L 644.71 261.89 L 652.39 259.63 L 659.91 258.00 L 667.74 256.91 L 675.47 256.44 L 683.11 256.58 L 690.70 257.33 L 698.25 258.69 L 705.79 260.66 L 713.03 263.14 L 720.31 266.19 L 727.64 269.84 L 735.05 274.12 L 742.54 279.07 L 750.13 284.73 L 751.73 286.24 L 752.97 287.91 L 753.89 289.76 L 754.47 291.73 L 754.72 293.74 L 754.61 295.80 L 754.16 297.81 L 753.35 299.73 L 752.16 301.58 L 750.65 303.17 L 748.98 304.42 L 747.13 305.33 L 745.16 305.92 L 743.15 306.16 L 741.09 306.06 L 739.08 305.61 L 737.16 304.80 L 735.31 303.61 L 728.40 298.52 L 721.65 294.23 L 715.07 290.66 L 708.62 287.78 L 702.29 285.53 L 695.67 283.79 L 689.03 282.62 L 682.34 282.01 L 675.58 281.98 L 668.74 282.51 L 662.06 283.55 L 655.17 285.08 L 648.05 287.13 L 640.68 289.74 L 633.04 292.94 L 629.01 294.79 L 626.09 296.11 L 623.37 297.13 L 620.68 297.78 L 618.16 297.88 L 616.54 297.62 L 614.92 297.01 L 613.28 296.01 L 612.05 294.95 Z" fill="#a05400" fill-rule="nonzero" group-id="1,6" id="路径" node-id="86" stroke="none" target-height="49.720642" target-width="146.69147" target-x="608.0236" target-y="256.4392"></path></g></svg>