<?xml version="1.0" standalone="no"?><!DOCTYPE svg PUBLIC "-//W3C//DTD SVG 1.1//EN" "http://www.w3.org/Graphics/SVG/1.1/DTD/svg11.dtd"><svg height="1024" node-id="1" sillyvg="true" template-height="1024" template-width="1024" version="1.1" viewBox="0 0 1024 1024" width="1024" xmlns="http://www.w3.org/2000/svg" xmlns:xlink="http://www.w3.org/1999/xlink"><defs node-id="105"><radialGradient cx="0.5" cy="0.19668992" fx="0.5" fy="0.19668992" gradientTransform="matrix(0 1 -0.912281 0 0.67943655 -0.30331)" gradientUnits="objectBoundingBox" id="radialGradient-1" node-id="5" r="0.9393923" rev="2" spreadMethod="pad"><stop offset="0" stop-color="#ffe476"></stop><stop offset="0.41387266" stop-color="#fcec6c"></stop><stop offset="1" stop-color="#ffb02f"></stop></radialGradient><linearGradient gradientUnits="objectBoundingBox" id="linearGradient-9" node-id="29" spreadMethod="pad" x1="0.5" x2="0.5" y1="0" y2="1"><stop offset="0" stop-color="#ffffff"></stop><stop offset="1" stop-color="#ffedbe"></stop></linearGradient><filter height="1.173" id="filter-3" node-id="10" width="1.158" x="-0.079" y="-0.087"><feGaussianBlur color-interpolation-filters="linearRGB" in="SourceAlpha" result="shadowBlurInner1" stdDeviation="64 64"></feGaussianBlur><feOffset color-interpolation-filters="linearRGB" dx="0" dy="16" in="shadowBlurInner1" result="shadowOffsetInner1"></feOffset><feComposite color-interpolation-filters="linearRGB" in="shadowOffsetInner1" in2="SourceAlpha" k1="0" k2="-1" k3="1" k4="0" operator="arithmetic" result="shadowInnerInner1"></feComposite><feColorMatrix color-interpolation-filters="linearRGB" in="shadowInnerInner1" result="result4" type="matrix" values="0 0 0 0 0.968627451 0 0 0 0 0.68627451 0 0 0 0 0.270588235 0 0 0 0.501145583 0"></feColorMatrix></filter><filter height="3.571" id="filter-4" node-id="15" width="2.636" x="-0.818" y="-1.286"><feGaussianBlur color-interpolation-filters="linearRGB" in="SourceGraphic" result="result1" stdDeviation="48 48"></feGaussianBlur></filter><filter height="1.679" id="filter-6" node-id="18" width="1.358" x="-0.179" y="-0.34"><feOffset color-interpolation-filters="linearRGB" dx="0" dy="0" in="SourceAlpha" result="shadowOffsetOuter1"></feOffset><feGaussianBlur color-interpolation-filters="linearRGB" in="shadowOffsetOuter1" result="shadowBlurOuter1" stdDeviation="16 16"></feGaussianBlur><feColorMatrix color-interpolation-filters="linearRGB" in="shadowBlurOuter1" result="result3" type="matrix" values="0 0 0 0 1 0 0 0 0 0.912152601 0 0 0 0 0.554255788 0 0 0 1 0"></feColorMatrix></filter><filter height="1.566" id="filter-7" node-id="22" width="1.299" x="-0.149" y="-0.283"><feGaussianBlur color-interpolation-filters="linearRGB" in="SourceAlpha" result="shadowBlurInner1" stdDeviation="8 8"></feGaussianBlur><feOffset color-interpolation-filters="linearRGB" dx="0" dy="0" in="shadowBlurInner1" result="shadowOffsetInner1"></feOffset><feComposite color-interpolation-filters="linearRGB" in="shadowOffsetInner1" in2="SourceAlpha" k1="0" k2="-1" k3="1" k4="0" operator="arithmetic" result="shadowInnerInner1"></feComposite><feColorMatrix color-interpolation-filters="linearRGB" in="shadowInnerInner1" result="result4" type="matrix" values="0 0 0 0 0.661258421 0 0 0 0 0.0872254633 0 0 0 0 0.00982776113 0 0 0 1 0"></feColorMatrix></filter><filter height="3.571" id="filter-8" node-id="27" width="2.636" x="-0.818" y="-1.286"><feGaussianBlur color-interpolation-filters="linearRGB" in="SourceGraphic" result="result1" stdDeviation="48 48"></feGaussianBlur></filter><filter height="2.2" id="filter-11" node-id="33" width="1.706" x="-0.353" y="-0.6"><feOffset color-interpolation-filters="linearRGB" dx="0" dy="0" in="SourceAlpha" result="shadowOffsetOuter1"></feOffset><feGaussianBlur color-interpolation-filters="linearRGB" in="shadowOffsetOuter1" result="shadowBlurOuter1" stdDeviation="32 32"></feGaussianBlur><feColorMatrix color-interpolation-filters="linearRGB" in="shadowBlurOuter1" result="result3" type="matrix" values="0 0 0 0 0.888848346 0 0 0 0 0.591702642 0 0 0 0 0.178785883 0 0 0 1 0"></feColorMatrix></filter><filter height="2" id="filter-12" node-id="37" width="1.588" x="-0.294" y="-0.5"><feGaussianBlur color-interpolation-filters="linearRGB" in="SourceAlpha" result="shadowBlurInner1" stdDeviation="16 16"></feGaussianBlur><feOffset color-interpolation-filters="linearRGB" dx="0" dy="0" in="shadowBlurInner1" result="shadowOffsetInner1"></feOffset><feComposite color-interpolation-filters="linearRGB" in="shadowOffsetInner1" in2="SourceAlpha" k1="0" k2="-1" k3="1" k4="0" operator="arithmetic" result="shadowInnerInner1"></feComposite><feColorMatrix color-interpolation-filters="linearRGB" in="shadowInnerInner1" result="result4" type="matrix" values="0 0 0 0 1 0 0 0 0 0.880587925 0 0 0 0 0.537254902 0 0 0 0.500726446 0"></feColorMatrix></filter><filter height="1.286" id="filter-14" node-id="43" width="1.286" x="-0.143" y="-0.143"><feGaussianBlur color-interpolation-filters="linearRGB" in="SourceAlpha" result="shadowBlurInner1" stdDeviation="16 16"></feGaussianBlur><feOffset color-interpolation-filters="linearRGB" dx="0" dy="0" in="shadowBlurInner1" result="shadowOffsetInner1"></feOffset><feComposite color-interpolation-filters="linearRGB" in="shadowOffsetInner1" in2="SourceAlpha" k1="0" k2="-1" k3="1" k4="0" operator="arithmetic" result="shadowInnerInner1"></feComposite><feColorMatrix color-interpolation-filters="linearRGB" in="shadowInnerInner1" result="result4" type="matrix" values="0 0 0 0 0.322660142 0 0 0 0 0 0 0 0 0 0.0976114716 0 0 0 1 0"></feColorMatrix></filter><filter height="2.2" id="filter-16" node-id="49" width="1.706" x="-0.353" y="-0.6"><feOffset color-interpolation-filters="linearRGB" dx="0" dy="0" in="SourceAlpha" result="shadowOffsetOuter1"></feOffset><feGaussianBlur color-interpolation-filters="linearRGB" in="shadowOffsetOuter1" result="shadowBlurOuter1" stdDeviation="32 32"></feGaussianBlur><feColorMatrix color-interpolation-filters="linearRGB" in="shadowBlurOuter1" result="result3" type="matrix" values="0 0 0 0 0.888848346 0 0 0 0 0.591702642 0 0 0 0 0.178785883 0 0 0 1 0"></feColorMatrix></filter><filter height="2" id="filter-17" node-id="53" width="1.588" x="-0.294" y="-0.5"><feGaussianBlur color-interpolation-filters="linearRGB" in="SourceAlpha" result="shadowBlurInner1" stdDeviation="16 16"></feGaussianBlur><feOffset color-interpolation-filters="linearRGB" dx="0" dy="0" in="shadowBlurInner1" result="shadowOffsetInner1"></feOffset><feComposite color-interpolation-filters="linearRGB" in="shadowOffsetInner1" in2="SourceAlpha" k1="0" k2="-1" k3="1" k4="0" operator="arithmetic" result="shadowInnerInner1"></feComposite><feColorMatrix color-interpolation-filters="linearRGB" in="shadowInnerInner1" result="result4" type="matrix" values="0 0 0 0 1 0 0 0 0 0.880587925 0 0 0 0 0.537254902 0 0 0 0.500726446 0"></feColorMatrix></filter><filter height="1.286" id="filter-19" node-id="59" width="1.286" x="-0.143" y="-0.143"><feGaussianBlur color-interpolation-filters="linearRGB" in="SourceAlpha" result="shadowBlurInner1" stdDeviation="16 16"></feGaussianBlur><feOffset color-interpolation-filters="linearRGB" dx="0" dy="0" in="shadowBlurInner1" result="shadowOffsetInner1"></feOffset><feComposite color-interpolation-filters="linearRGB" in="shadowOffsetInner1" in2="SourceAlpha" k1="0" k2="-1" k3="1" k4="0" operator="arithmetic" result="shadowInnerInner1"></feComposite><feColorMatrix color-interpolation-filters="linearRGB" in="shadowInnerInner1" result="result4" type="matrix" values="0 0 0 0 0.322660142 0 0 0 0 0 0 0 0 0 0.0976114716 0 0 0 1 0"></feColorMatrix></filter></defs><g node-id="327"><path d="M 0.00 0.00 L 1024.00 0.00 L 1024.00 1024.00 L 0.00 1024.00 Z" fill="none" group-id="1" id="矩形备份-3" node-id="66" stroke="none" target-height="1024" target-width="1024" target-x="0" target-y="0"></path><g node-id="328"><g node-id="331"><g node-id="340"><path d="M 470.86 96.38 L 485.27 96.01 L 499.38 96.26 L 513.21 97.12 L 526.78 98.56 L 540.11 100.60 L 553.45 103.25 L 566.45 106.45 L 579.14 110.18 L 591.52 114.44 L 603.62 119.24 L 615.55 124.62 L 627.10 130.48 L 638.29 136.81 L 649.13 143.63 L 659.63 150.95 L 669.80 158.75 L 679.54 166.99 L 688.88 175.66 L 697.82 184.77 L 706.36 194.34 L 714.43 204.28 L 722.02 214.61 L 729.16 225.35 L 735.83 236.49 L 742.05 248.07 L 753.36 253.33 L 764.52 258.98 L 775.54 265.01 L 786.41 271.43 L 797.15 278.25 L 810.23 287.24 L 822.93 296.74 L 835.27 306.77 L 847.26 317.34 L 856.54 326.15 L 865.50 335.23 L 874.13 344.59 L 882.46 354.24 L 890.47 364.18 L 898.14 374.40 L 905.41 384.85 L 912.28 395.53 L 918.76 406.44 L 924.86 417.61 L 930.52 428.99 L 935.71 440.56 L 940.44 452.32 L 944.70 464.28 L 948.49 476.45 L 951.77 488.74 L 954.50 501.18 L 956.70 513.79 L 958.35 526.58 L 959.46 539.55 L 959.98 552.48 L 959.88 565.54 L 959.17 578.77 L 957.83 592.16 L 955.84 605.75 L 953.02 620.58 L 949.77 634.95 L 946.10 648.88 L 942.01 662.38 L 937.51 675.47 L 932.61 688.17 L 927.16 700.86 L 921.32 713.16 L 915.10 725.06 L 908.50 736.57 L 901.52 747.73 L 894.15 758.52 L 886.33 769.08 L 878.15 779.28 L 869.61 789.13 L 860.71 798.64 L 851.44 807.81 L 841.79 816.64 L 831.85 825.09 L 821.58 833.20 L 810.95 840.98 L 799.96 848.44 L 788.61 855.57 L 776.88 862.38 L 768.16 867.78 L 758.82 873.07 L 748.83 878.22 L 738.14 883.24 L 727.49 887.78 L 716.08 892.19 L 703.87 896.45 L 690.83 900.56 L 677.95 904.20 L 664.18 907.67 L 649.47 910.97 L 633.78 914.08 L 618.38 916.75 L 601.95 919.23 L 584.46 921.49 L 565.85 923.53 L 544.70 925.39 L 523.95 926.75 L 503.60 927.61 L 483.64 927.98 L 464.05 927.87 L 444.19 927.26 L 424.81 926.15 L 405.90 924.54 L 387.44 922.45 L 369.42 919.89 L 351.22 916.75 L 333.57 913.11 L 316.44 908.98 L 299.82 904.39 L 283.69 899.32 L 270.19 894.59 L 257.10 889.51 L 244.41 884.11 L 232.10 878.37 L 220.16 872.30 L 208.58 865.90 L 197.11 859.00 L 186.06 851.76 L 175.42 844.18 L 165.17 836.25 L 155.30 827.97 L 145.82 819.34 L 136.67 810.30 L 127.95 800.89 L 119.64 791.11 L 111.74 780.93 L 104.23 770.36 L 97.12 759.39 L 90.56 748.22 L 84.43 736.64 L 78.73 724.62 L 73.45 712.15 L 68.61 699.21 L 64.21 685.77 L 60.46 672.48 L 57.16 658.70 L 54.34 644.41 L 51.99 629.58 L 50.15 614.19 L 48.82 598.22 L 48.14 583.09 L 48.03 568.57 L 48.46 554.63 L 49.41 541.24 L 50.86 528.37 L 52.90 515.28 L 55.42 502.70 L 58.40 490.60 L 61.84 478.97 L 65.72 467.78 L 70.18 456.62 L 75.06 445.89 L 80.35 435.54 L 86.05 425.58 L 92.18 415.98 L 98.77 406.63 L 105.74 397.62 L 113.10 388.93 L 120.85 380.56 L 129.01 372.50 L 137.46 364.81 L 146.28 357.41 L 155.46 350.29 L 165.02 343.45 L 174.97 336.88 L 177.90 323.41 L 181.19 310.46 L 184.84 298.03 L 188.83 286.10 L 193.16 274.63 L 197.83 263.62 L 202.81 253.05 L 208.38 242.41 L 214.26 232.20 L 220.44 222.43 L 226.94 213.08 L 233.74 204.13 L 240.85 195.57 L 248.28 187.38 L 257.46 178.18 L 267.02 169.49 L 276.99 161.29 L 287.37 153.58 L 298.17 146.34 L 309.42 139.58 L 320.87 133.40 L 332.72 127.67 L 344.96 122.40 L 357.62 117.59 L 370.72 113.23 L 384.27 109.34 L 397.70 106.05 L 411.52 103.20 L 425.72 100.79 L 440.34 98.85 L 455.38 97.37 L 470.86 96.38 Z" fill="url(#radialGradient-1)" fill-rule="evenodd" group-id="1,2,5,14" node-id="221" stroke="none" target-height="831.9669" target-width="911.9464" target-x="48.031116" target-y="96.01346"></path></g><path d="M 470.86 96.38 L 485.27 96.01 L 499.38 96.26 L 513.21 97.12 L 526.78 98.56 L 540.11 100.60 L 553.45 103.25 L 566.45 106.45 L 579.14 110.18 L 591.52 114.44 L 603.62 119.24 L 615.55 124.62 L 627.10 130.48 L 638.29 136.81 L 649.13 143.63 L 659.63 150.95 L 669.80 158.75 L 679.54 166.99 L 688.88 175.66 L 697.82 184.77 L 706.36 194.34 L 714.43 204.28 L 722.02 214.61 L 729.16 225.35 L 735.83 236.49 L 742.05 248.07 L 753.36 253.33 L 764.52 258.98 L 775.54 265.01 L 786.41 271.43 L 797.15 278.25 L 810.23 287.24 L 822.93 296.74 L 835.27 306.77 L 847.26 317.34 L 856.54 326.15 L 865.50 335.23 L 874.13 344.59 L 882.46 354.24 L 890.47 364.18 L 898.14 374.40 L 905.41 384.85 L 912.28 395.53 L 918.76 406.44 L 924.86 417.61 L 930.52 428.99 L 935.71 440.56 L 940.44 452.32 L 944.70 464.28 L 948.49 476.45 L 951.77 488.74 L 954.50 501.18 L 956.70 513.79 L 958.35 526.58 L 959.46 539.55 L 959.98 552.48 L 959.88 565.54 L 959.17 578.77 L 957.83 592.16 L 955.84 605.75 L 953.02 620.58 L 949.77 634.95 L 946.10 648.88 L 942.01 662.38 L 937.51 675.47 L 932.61 688.17 L 927.16 700.86 L 921.32 713.16 L 915.10 725.06 L 908.50 736.57 L 901.52 747.73 L 894.15 758.52 L 886.33 769.08 L 878.15 779.28 L 869.61 789.13 L 860.71 798.64 L 851.44 807.81 L 841.79 816.64 L 831.85 825.09 L 821.58 833.20 L 810.95 840.98 L 799.96 848.44 L 788.61 855.57 L 776.88 862.38 L 768.16 867.78 L 758.82 873.07 L 748.83 878.22 L 738.14 883.24 L 727.49 887.78 L 716.08 892.19 L 703.87 896.45 L 690.83 900.56 L 677.95 904.20 L 664.18 907.67 L 649.47 910.97 L 633.78 914.08 L 618.38 916.75 L 601.95 919.23 L 584.46 921.49 L 565.85 923.53 L 544.70 925.39 L 523.95 926.75 L 503.60 927.61 L 483.64 927.98 L 464.05 927.87 L 444.19 927.26 L 424.81 926.15 L 405.90 924.54 L 387.44 922.45 L 369.42 919.89 L 351.22 916.75 L 333.57 913.11 L 316.44 908.98 L 299.82 904.39 L 283.69 899.32 L 270.19 894.59 L 257.10 889.51 L 244.41 884.11 L 232.10 878.37 L 220.16 872.30 L 208.58 865.90 L 197.11 859.00 L 186.06 851.76 L 175.42 844.18 L 165.17 836.25 L 155.30 827.97 L 145.82 819.34 L 136.67 810.30 L 127.95 800.89 L 119.64 791.11 L 111.74 780.93 L 104.23 770.36 L 97.12 759.39 L 90.56 748.22 L 84.43 736.64 L 78.73 724.62 L 73.45 712.15 L 68.61 699.21 L 64.21 685.77 L 60.46 672.48 L 57.16 658.70 L 54.34 644.41 L 51.99 629.58 L 50.15 614.19 L 48.82 598.22 L 48.14 583.09 L 48.03 568.57 L 48.46 554.63 L 49.41 541.24 L 50.86 528.37 L 52.90 515.28 L 55.42 502.70 L 58.40 490.60 L 61.84 478.97 L 65.72 467.78 L 70.18 456.62 L 75.06 445.89 L 80.35 435.54 L 86.05 425.58 L 92.18 415.98 L 98.77 406.63 L 105.74 397.62 L 113.10 388.93 L 120.85 380.56 L 129.01 372.50 L 137.46 364.81 L 146.28 357.41 L 155.46 350.29 L 165.02 343.45 L 174.97 336.88 L 177.90 323.41 L 181.19 310.46 L 184.84 298.03 L 188.83 286.10 L 193.16 274.63 L 197.83 263.62 L 202.81 253.05 L 208.38 242.41 L 214.26 232.20 L 220.44 222.43 L 226.94 213.08 L 233.74 204.13 L 240.85 195.57 L 248.28 187.38 L 257.46 178.18 L 267.02 169.49 L 276.99 161.29 L 287.37 153.58 L 298.17 146.34 L 309.42 139.58 L 320.87 133.40 L 332.72 127.67 L 344.96 122.40 L 357.62 117.59 L 370.72 113.23 L 384.27 109.34 L 397.70 106.05 L 411.52 103.20 L 425.72 100.79 L 440.34 98.85 L 455.38 97.37 L 470.86 96.38 Z" fill="#000000" fill-rule="evenodd" filter="url(#filter-3)" group-id="1,2,5,15" node-id="226" stroke="none" target-height="831.9669" target-width="911.9464" target-x="48.031116" target-y="96.01346"></path></g><path d="M 590.48 384.21 L 598.18 371.72 L 605.68 360.46 L 612.97 350.35 L 620.06 341.32 L 626.97 333.29 L 633.47 326.43 L 639.79 320.41 L 645.93 315.18 L 651.92 310.67 L 657.75 306.83 L 663.46 303.63 L 669.73 300.73 L 675.85 298.55 L 681.86 297.05 L 687.79 296.18 L 693.67 295.94 L 699.52 296.31 L 705.24 297.28 L 710.98 298.89 L 716.78 301.15 L 722.66 304.13 L 728.64 307.87 L 734.75 312.44 L 736.84 314.49 L 738.46 316.74 L 739.63 319.23 L 740.37 321.88 L 740.65 324.56 L 740.46 327.30 L 739.82 329.97 L 738.69 332.51 L 737.06 334.94 L 735.01 337.04 L 732.75 338.65 L 730.27 339.83 L 727.62 340.57 L 724.94 340.84 L 722.19 340.66 L 719.52 340.01 L 716.99 338.89 L 714.55 337.26 L 710.41 334.22 L 706.29 331.91 L 702.17 330.26 L 698.02 329.23 L 693.80 328.80 L 689.48 328.96 L 685.36 329.67 L 681.05 330.99 L 676.50 332.97 L 671.67 335.71 L 666.52 339.29 L 661.02 343.83 L 655.44 349.14 L 649.42 355.65 L 642.94 363.49 L 635.95 372.82 L 628.42 383.82 L 623.26 391.89 L 618.00 400.56 L 616.27 402.93 L 614.28 404.86 L 611.99 406.38 L 609.48 407.50 L 606.87 408.17 L 604.13 408.39 L 601.39 408.14 L 598.72 407.40 L 596.07 406.14 L 593.70 404.41 L 591.77 402.42 L 590.24 400.14 L 589.12 397.62 L 588.46 395.01 L 588.24 392.27 L 588.49 389.53 L 589.23 386.86 L 590.48 384.21 Z" fill="#a05400" fill-rule="nonzero" group-id="1,2" id="路径-20" node-id="71" stroke="none" target-height="112.44458" target-width="152.40796" target-x="588.23804" target-y="295.94122"></path><path d="M 322.82 332.18 L 330.33 330.54 L 337.39 329.51 L 344.04 329.06 L 350.32 329.15 L 356.27 329.75 L 361.91 330.83 L 367.29 332.39 L 372.42 334.42 L 377.34 336.94 L 381.94 339.85 L 386.34 343.25 L 390.57 347.14 L 394.62 351.56 L 398.51 356.54 L 402.23 362.14 L 405.76 368.41 L 409.12 375.39 L 412.27 383.15 L 412.80 385.14 L 412.98 387.24 L 412.82 389.47 L 412.34 391.67 L 411.56 393.82 L 410.48 395.94 L 409.15 397.89 L 407.58 399.63 L 405.76 401.16 L 403.74 402.38 L 401.82 403.15 L 399.97 403.53 L 398.09 403.54 L 396.40 403.18 L 394.83 402.46 L 393.48 401.41 L 392.35 400.00 L 391.44 398.19 L 388.54 391.06 L 385.47 384.77 L 382.26 379.25 L 378.90 374.42 L 375.41 370.23 L 371.79 366.63 L 368.03 363.56 L 364.12 361.00 L 359.88 358.82 L 355.41 357.12 L 350.68 355.88 L 345.66 355.13 L 340.32 354.86 L 334.61 355.12 L 328.49 355.94 L 321.92 357.37 L 319.85 357.68 L 318.02 357.57 L 316.37 357.09 L 314.87 356.24 L 313.60 355.09 L 312.54 353.59 L 311.81 351.89 L 311.37 349.92 L 311.26 347.62 L 311.52 345.30 L 312.10 343.06 L 313.00 340.87 L 314.18 338.81 L 315.56 336.97 L 317.15 335.33 L 318.95 333.93 L 320.83 332.89 L 322.82 332.18 Z" fill="#a05400" fill-rule="nonzero" group-id="1,2,6" id="路径-2" node-id="72" stroke="none" target-height="74.47162" target-width="101.72635" target-x="311.25623" target-y="329.0644"></path><path d="M 832.00 560.00 L 831.70 564.60 L 830.85 569.06 L 829.47 573.42 L 827.51 577.70 L 825.13 581.72 L 822.27 585.62 L 818.91 589.40 L 815.02 593.07 L 810.91 596.38 L 806.38 599.50 L 801.41 602.44 L 795.97 605.20 L 790.45 607.57 L 784.60 609.70 L 778.40 611.56 L 771.81 613.15 L 765.24 614.36 L 758.42 615.25 L 751.34 615.80 L 744.00 616.00 L 736.66 615.80 L 729.58 615.25 L 722.76 614.36 L 716.19 613.15 L 709.60 611.56 L 703.40 609.70 L 697.55 607.57 L 692.03 605.20 L 686.59 602.44 L 681.62 599.50 L 677.09 596.38 L 672.98 593.07 L 669.09 589.40 L 665.73 585.62 L 662.87 581.72 L 660.49 577.70 L 658.53 573.42 L 657.15 569.06 L 656.30 564.60 L 656.00 560.00 L 656.30 555.40 L 657.15 550.94 L 658.54 546.58 L 660.49 542.30 L 662.87 538.28 L 665.73 534.38 L 669.09 530.60 L 672.98 526.93 L 677.09 523.62 L 681.62 520.50 L 686.59 517.56 L 692.03 514.80 L 697.55 512.43 L 703.40 510.30 L 709.60 508.44 L 716.19 506.85 L 722.76 505.64 L 729.58 504.75 L 736.66 504.20 L 744.00 504.00 L 751.34 504.20 L 758.42 504.75 L 765.24 505.64 L 771.81 506.85 L 778.40 508.44 L 784.60 510.30 L 790.45 512.43 L 795.97 514.80 L 801.41 517.56 L 806.38 520.50 L 810.91 523.62 L 815.02 526.93 L 818.91 530.60 L 822.27 534.38 L 825.13 538.28 L 827.51 542.30 L 829.47 546.58 L 830.85 550.94 L 831.70 555.40 L 832.00 560.00 Z" fill="#ff5ea4" fill-opacity="0.8" fill-rule="evenodd" filter="url(#filter-4)" group-id="1,2,7" id="椭圆形" node-id="73" stroke="none" target-height="112" target-width="176" target-x="656" target-y="504"></path><path d="M 635.54 610.73 L 638.41 611.35 L 640.97 612.40 L 643.29 613.88 L 645.33 615.73 L 646.98 617.85 L 648.29 620.28 L 649.16 622.88 L 649.56 625.63 L 649.47 628.56 L 648.04 637.87 L 646.13 646.53 L 643.75 654.58 L 640.93 662.07 L 637.67 669.04 L 634.00 675.53 L 630.37 680.91 L 626.39 685.99 L 622.03 690.78 L 617.28 695.29 L 612.13 699.53 L 606.56 703.50 L 600.54 707.21 L 593.55 710.89 L 585.93 714.29 L 577.65 717.40 L 568.65 720.20 L 558.89 722.66 L 548.30 724.77 L 536.27 726.59 L 523.14 728.01 L 508.86 728.98 L 493.33 729.46 L 476.48 729.41 L 460.53 728.91 L 443.40 727.98 L 425.02 726.59 L 405.33 724.70 L 384.27 722.29 L 381.40 721.66 L 378.83 720.61 L 376.51 719.14 L 374.47 717.30 L 372.80 715.18 L 371.49 712.77 L 370.61 710.17 L 370.21 707.42 L 370.29 704.49 L 370.90 701.62 L 371.95 699.05 L 373.42 696.73 L 375.27 694.69 L 377.38 693.02 L 379.80 691.71 L 382.40 690.83 L 385.15 690.43 L 388.08 690.51 L 411.99 693.25 L 433.75 695.31 L 453.48 696.75 L 471.33 697.63 L 486.35 697.97 L 500.06 697.87 L 512.55 697.38 L 523.90 696.54 L 534.18 695.37 L 543.36 693.93 L 551.75 692.21 L 559.39 690.24 L 566.34 688.03 L 572.65 685.60 L 578.38 682.97 L 584.21 679.76 L 589.49 676.29 L 594.24 672.54 L 598.49 668.53 L 602.29 664.24 L 605.64 659.66 L 608.56 654.82 L 611.13 649.63 L 613.34 644.05 L 615.18 638.05 L 616.64 631.60 L 617.71 624.66 L 618.34 621.79 L 619.39 619.23 L 620.86 616.91 L 622.71 614.87 L 624.84 613.22 L 627.26 611.91 L 629.86 611.04 L 632.61 610.64 L 635.54 610.73 Z" fill="#000000" fill-rule="nonzero" filter="url(#filter-6)" group-id="1,2,8,16" node-id="242" stroke="none" target-height="118.8147" target-width="279.34976" target-x="370.20853" target-y="610.6418"></path><path d="M 635.54 610.73 L 638.41 611.35 L 640.97 612.40 L 643.29 613.88 L 645.33 615.73 L 646.98 617.85 L 648.29 620.28 L 649.16 622.88 L 649.56 625.63 L 649.47 628.56 L 648.04 637.87 L 646.13 646.53 L 643.75 654.58 L 640.93 662.07 L 637.67 669.04 L 634.00 675.53 L 630.37 680.91 L 626.39 685.99 L 622.03 690.78 L 617.28 695.29 L 612.13 699.53 L 606.56 703.50 L 600.54 707.21 L 593.55 710.89 L 585.93 714.29 L 577.65 717.40 L 568.65 720.20 L 558.89 722.66 L 548.30 724.77 L 536.27 726.59 L 523.14 728.01 L 508.86 728.98 L 493.33 729.46 L 476.48 729.41 L 460.53 728.91 L 443.40 727.98 L 425.02 726.59 L 405.33 724.70 L 384.27 722.29 L 381.40 721.66 L 378.83 720.61 L 376.51 719.14 L 374.47 717.30 L 372.80 715.18 L 371.49 712.77 L 370.61 710.17 L 370.21 707.42 L 370.29 704.49 L 370.90 701.62 L 371.95 699.05 L 373.42 696.73 L 375.27 694.69 L 377.38 693.02 L 379.80 691.71 L 382.40 690.83 L 385.15 690.43 L 388.08 690.51 L 411.99 693.25 L 433.75 695.31 L 453.48 696.75 L 471.33 697.63 L 486.35 697.97 L 500.06 697.87 L 512.55 697.38 L 523.90 696.54 L 534.18 695.37 L 543.36 693.93 L 551.75 692.21 L 559.39 690.24 L 566.34 688.03 L 572.65 685.60 L 578.38 682.97 L 584.21 679.76 L 589.49 676.29 L 594.24 672.54 L 598.49 668.53 L 602.29 664.24 L 605.64 659.66 L 608.56 654.82 L 611.13 649.63 L 613.34 644.05 L 615.18 638.05 L 616.64 631.60 L 617.71 624.66 L 618.34 621.79 L 619.39 619.23 L 620.86 616.91 L 622.71 614.87 L 624.84 613.22 L 627.26 611.91 L 629.86 611.04 L 632.61 610.64 L 635.54 610.73 Z" fill="#ed1f2a" fill-rule="nonzero" group-id="1,2,8,17" node-id="247" stroke="none" target-height="118.8147" target-width="279.34976" target-x="370.20853" target-y="610.6418"></path><path d="M 635.54 610.73 L 638.41 611.35 L 640.97 612.40 L 643.29 613.88 L 645.33 615.73 L 646.98 617.85 L 648.29 620.28 L 649.16 622.88 L 649.56 625.63 L 649.47 628.56 L 648.04 637.87 L 646.13 646.53 L 643.75 654.58 L 640.93 662.07 L 637.67 669.04 L 634.00 675.53 L 630.37 680.91 L 626.39 685.99 L 622.03 690.78 L 617.28 695.29 L 612.13 699.53 L 606.56 703.50 L 600.54 707.21 L 593.55 710.89 L 585.93 714.29 L 577.65 717.40 L 568.65 720.20 L 558.89 722.66 L 548.30 724.77 L 536.27 726.59 L 523.14 728.01 L 508.86 728.98 L 493.33 729.46 L 476.48 729.41 L 460.53 728.91 L 443.40 727.98 L 425.02 726.59 L 405.33 724.70 L 384.27 722.29 L 381.40 721.66 L 378.83 720.61 L 376.51 719.14 L 374.47 717.30 L 372.80 715.18 L 371.49 712.77 L 370.61 710.17 L 370.21 707.42 L 370.29 704.49 L 370.90 701.62 L 371.95 699.05 L 373.42 696.73 L 375.27 694.69 L 377.38 693.02 L 379.80 691.71 L 382.40 690.83 L 385.15 690.43 L 388.08 690.51 L 411.99 693.25 L 433.75 695.31 L 453.48 696.75 L 471.33 697.63 L 486.35 697.97 L 500.06 697.87 L 512.55 697.38 L 523.90 696.54 L 534.18 695.37 L 543.36 693.93 L 551.75 692.21 L 559.39 690.24 L 566.34 688.03 L 572.65 685.60 L 578.38 682.97 L 584.21 679.76 L 589.49 676.29 L 594.24 672.54 L 598.49 668.53 L 602.29 664.24 L 605.64 659.66 L 608.56 654.82 L 611.13 649.63 L 613.34 644.05 L 615.18 638.05 L 616.64 631.60 L 617.71 624.66 L 618.34 621.79 L 619.39 619.23 L 620.86 616.91 L 622.71 614.87 L 624.84 613.22 L 627.26 611.91 L 629.86 611.04 L 632.61 610.64 L 635.54 610.73 Z" fill="#000000" fill-rule="nonzero" filter="url(#filter-7)" group-id="1,2,8,18" node-id="252" stroke="none" target-height="118.8147" target-width="279.34976" target-x="370.20853" target-y="610.6418"></path><path d="M 677.54 628.66 L 692.47 632.89 L 695.59 633.51 L 697.08 633.97 L 697.99 634.53 L 698.01 634.91 L 697.60 635.29 L 696.63 635.71 L 694.33 636.33 L 692.47 636.77 L 677.54 641.01 L 674.26 642.15 L 671.21 643.61 L 668.35 645.41 L 665.71 647.51 L 663.35 649.88 L 661.25 652.51 L 659.45 655.37 L 657.99 658.42 L 656.85 661.70 L 652.62 676.63 L 651.94 680.07 L 651.44 681.31 L 651.03 681.70 L 650.69 681.69 L 650.31 681.28 L 649.83 680.30 L 649.36 678.92 L 648.74 676.63 L 644.50 661.70 L 643.36 658.42 L 641.90 655.37 L 640.10 652.51 L 637.99 649.88 L 635.63 647.51 L 633.00 645.41 L 630.14 643.61 L 627.09 642.15 L 623.81 641.01 L 608.88 636.78 L 604.48 635.29 L 602.83 634.55 L 602.16 634.05 L 602.05 633.77 L 602.28 633.51 L 603.20 633.21 L 605.05 633.00 L 608.88 632.90 L 623.81 628.67 L 627.09 627.53 L 630.14 626.06 L 633.00 624.26 L 635.63 622.16 L 638.00 619.80 L 640.10 617.16 L 641.90 614.31 L 643.36 611.25 L 644.50 607.98 L 648.74 593.04 L 649.89 589.78 L 650.67 587.82 L 650.99 587.70 L 651.46 588.47 L 652.62 593.04 L 656.85 607.97 L 657.99 611.25 L 659.45 614.30 L 661.25 617.16 L 663.35 619.79 L 665.72 622.15 L 668.35 624.26 L 671.21 626.05 L 674.26 627.52 L 677.54 628.66 Z" fill="#ffffff" fill-rule="nonzero" group-id="1,2" id="路径" node-id="78" stroke="none" target-height="94.00537" target-width="95.962585" target-x="602.0489" target-y="587.697"></path><path d="M 352.00 560.00 L 351.70 564.60 L 350.85 569.06 L 349.47 573.42 L 347.51 577.70 L 345.13 581.72 L 342.27 585.62 L 338.91 589.40 L 335.02 593.07 L 330.91 596.38 L 326.38 599.50 L 321.41 602.44 L 315.97 605.20 L 310.45 607.57 L 304.60 609.70 L 298.40 611.56 L 291.81 613.15 L 285.24 614.36 L 278.42 615.25 L 271.34 615.80 L 264.00 616.00 L 256.66 615.80 L 249.58 615.25 L 242.76 614.36 L 236.19 613.15 L 229.60 611.56 L 223.40 609.70 L 217.55 607.57 L 212.03 605.20 L 206.59 602.44 L 201.62 599.50 L 197.09 596.38 L 192.98 593.07 L 189.09 589.40 L 185.73 585.62 L 182.87 581.72 L 180.49 577.70 L 178.53 573.42 L 177.15 569.06 L 176.30 564.60 L 176.00 560.00 L 176.30 555.40 L 177.15 550.94 L 178.53 546.58 L 180.49 542.30 L 182.87 538.28 L 185.73 534.38 L 189.09 530.60 L 192.98 526.93 L 197.09 523.62 L 201.62 520.50 L 206.59 517.56 L 212.03 514.80 L 217.55 512.43 L 223.40 510.30 L 229.60 508.44 L 236.19 506.85 L 242.76 505.64 L 249.58 504.75 L 256.66 504.20 L 264.00 504.00 L 271.34 504.20 L 278.42 504.75 L 285.24 505.64 L 291.81 506.85 L 298.40 508.44 L 304.60 510.30 L 310.45 512.43 L 315.97 514.80 L 321.41 517.56 L 326.38 520.50 L 330.91 523.62 L 335.02 526.93 L 338.91 530.60 L 342.27 534.38 L 345.13 538.28 L 347.51 542.30 L 349.47 546.58 L 350.85 550.94 L 351.70 555.40 L 352.00 560.00 Z" fill="#ff5ea4" fill-opacity="0.8" fill-rule="evenodd" filter="url(#filter-8)" group-id="1,2,9" id="椭圆形备份-6" node-id="79" stroke="none" target-height="112" target-width="176" target-x="176" target-y="504"></path></g><g node-id="329"><g node-id="336"><g node-id="345"><path d="M 320.00 552.38 L 332.56 552.25 L 344.60 551.80 L 356.15 551.04 L 367.68 549.87 L 378.50 548.29 L 388.64 546.31 L 396.23 544.43 L 403.33 542.27 L 409.96 539.83 L 416.17 537.13 L 422.23 533.97 L 427.77 530.47 L 432.83 526.63 L 437.43 522.46 L 440.81 518.81 L 443.86 514.88 L 446.59 510.65 L 449.02 506.11 L 451.14 501.23 L 452.81 496.32 L 454.15 491.03 L 455.14 485.30 L 455.77 479.09 L 456.00 472.38 L 455.77 465.67 L 455.14 459.47 L 454.15 453.74 L 452.81 448.44 L 451.14 443.54 L 449.02 438.66 L 446.59 434.12 L 443.86 429.89 L 440.81 425.96 L 437.43 422.31 L 432.83 418.13 L 427.77 414.30 L 422.23 410.80 L 416.17 407.63 L 409.96 404.94 L 403.33 402.50 L 396.23 400.34 L 388.64 398.46 L 378.50 396.48 L 367.68 394.90 L 356.15 393.73 L 344.60 392.97 L 332.56 392.52 L 320.00 392.38 L 307.44 392.52 L 295.40 392.97 L 283.85 393.73 L 272.32 394.90 L 261.50 396.48 L 251.36 398.46 L 243.77 400.34 L 236.67 402.50 L 230.04 404.94 L 223.83 407.63 L 217.77 410.80 L 212.23 414.30 L 207.17 418.13 L 202.57 422.31 L 199.19 425.96 L 196.14 429.89 L 193.41 434.12 L 190.98 438.66 L 188.86 443.54 L 187.19 448.44 L 185.85 453.74 L 184.86 459.47 L 184.23 465.67 L 184.00 472.38 L 184.23 479.09 L 184.86 485.30 L 185.85 491.03 L 187.19 496.32 L 188.86 501.23 L 190.98 506.11 L 193.41 510.65 L 196.14 514.88 L 199.19 518.81 L 202.57 522.46 L 207.17 526.63 L 212.23 530.47 L 217.77 533.97 L 223.83 537.13 L 230.04 539.83 L 236.67 542.27 L 243.77 544.43 L 251.36 546.31 L 261.50 548.29 L 272.32 549.87 L 283.85 551.04 L 295.40 551.80 L 307.44 552.25 L 320.00 552.38 Z" fill="#000000" fill-rule="evenodd" filter="url(#filter-11)" group-id="1,3,10,19" node-id="266" stroke="none" target-height="160.00003" target-width="272" target-x="184" target-y="392.38364"></path></g><g node-id="346"><path d="M 320.00 552.38 L 332.56 552.25 L 344.60 551.80 L 356.15 551.04 L 367.68 549.87 L 378.50 548.29 L 388.64 546.31 L 396.23 544.43 L 403.33 542.27 L 409.96 539.83 L 416.17 537.13 L 422.23 533.97 L 427.77 530.47 L 432.83 526.63 L 437.43 522.46 L 440.81 518.81 L 443.86 514.88 L 446.59 510.65 L 449.02 506.11 L 451.14 501.23 L 452.81 496.32 L 454.15 491.03 L 455.14 485.30 L 455.77 479.09 L 456.00 472.38 L 455.77 465.67 L 455.14 459.47 L 454.15 453.74 L 452.81 448.44 L 451.14 443.54 L 449.02 438.66 L 446.59 434.12 L 443.86 429.89 L 440.81 425.96 L 437.43 422.31 L 432.83 418.13 L 427.77 414.30 L 422.23 410.80 L 416.17 407.63 L 409.96 404.94 L 403.33 402.50 L 396.23 400.34 L 388.64 398.46 L 378.50 396.48 L 367.68 394.90 L 356.15 393.73 L 344.60 392.97 L 332.56 392.52 L 320.00 392.38 L 307.44 392.52 L 295.40 392.97 L 283.85 393.73 L 272.32 394.90 L 261.50 396.48 L 251.36 398.46 L 243.77 400.34 L 236.67 402.50 L 230.04 404.94 L 223.83 407.63 L 217.77 410.80 L 212.23 414.30 L 207.17 418.13 L 202.57 422.31 L 199.19 425.96 L 196.14 429.89 L 193.41 434.12 L 190.98 438.66 L 188.86 443.54 L 187.19 448.44 L 185.85 453.74 L 184.86 459.47 L 184.23 465.67 L 184.00 472.38 L 184.23 479.09 L 184.86 485.30 L 185.85 491.03 L 187.19 496.32 L 188.86 501.23 L 190.98 506.11 L 193.41 510.65 L 196.14 514.88 L 199.19 518.81 L 202.57 522.46 L 207.17 526.63 L 212.23 530.47 L 217.77 533.97 L 223.83 537.13 L 230.04 539.83 L 236.67 542.27 L 243.77 544.43 L 251.36 546.31 L 261.50 548.29 L 272.32 549.87 L 283.85 551.04 L 295.40 551.80 L 307.44 552.25 L 320.00 552.38 Z" fill="url(#linearGradient-9)" fill-rule="evenodd" group-id="1,3,10,20" node-id="271" stroke="none" target-height="160.00003" target-width="272" target-x="184" target-y="392.38364"></path></g><path d="M 320.00 552.38 L 332.56 552.25 L 344.60 551.80 L 356.15 551.04 L 367.68 549.87 L 378.50 548.29 L 388.64 546.31 L 396.23 544.43 L 403.33 542.27 L 409.96 539.83 L 416.17 537.13 L 422.23 533.97 L 427.77 530.47 L 432.83 526.63 L 437.43 522.46 L 440.81 518.81 L 443.86 514.88 L 446.59 510.65 L 449.02 506.11 L 451.14 501.23 L 452.81 496.32 L 454.15 491.03 L 455.14 485.30 L 455.77 479.09 L 456.00 472.38 L 455.77 465.67 L 455.14 459.47 L 454.15 453.74 L 452.81 448.44 L 451.14 443.54 L 449.02 438.66 L 446.59 434.12 L 443.86 429.89 L 440.81 425.96 L 437.43 422.31 L 432.83 418.13 L 427.77 414.30 L 422.23 410.80 L 416.17 407.63 L 409.96 404.94 L 403.33 402.50 L 396.23 400.34 L 388.64 398.46 L 378.50 396.48 L 367.68 394.90 L 356.15 393.73 L 344.60 392.97 L 332.56 392.52 L 320.00 392.38 L 307.44 392.52 L 295.40 392.97 L 283.85 393.73 L 272.32 394.90 L 261.50 396.48 L 251.36 398.46 L 243.77 400.34 L 236.67 402.50 L 230.04 404.94 L 223.83 407.63 L 217.77 410.80 L 212.23 414.30 L 207.17 418.13 L 202.57 422.31 L 199.19 425.96 L 196.14 429.89 L 193.41 434.12 L 190.98 438.66 L 188.86 443.54 L 187.19 448.44 L 185.85 453.74 L 184.86 459.47 L 184.23 465.67 L 184.00 472.38 L 184.23 479.09 L 184.86 485.30 L 185.85 491.03 L 187.19 496.32 L 188.86 501.23 L 190.98 506.11 L 193.41 510.65 L 196.14 514.88 L 199.19 518.81 L 202.57 522.46 L 207.17 526.63 L 212.23 530.47 L 217.77 533.97 L 223.83 537.13 L 230.04 539.83 L 236.67 542.27 L 243.77 544.43 L 251.36 546.31 L 261.50 548.29 L 272.32 549.87 L 283.85 551.04 L 295.40 551.80 L 307.44 552.25 L 320.00 552.38 Z" fill="#000000" fill-rule="evenodd" filter="url(#filter-12)" group-id="1,3,10,21" node-id="276" stroke="none" target-height="160.00003" target-width="272" target-x="184" target-y="392.38364"></path></g><g node-id="337"><g node-id="348"><g node-id="353"><path d="M 456.00 480.38 L 455.80 485.03 L 455.26 489.52 L 454.37 493.87 L 453.15 498.08 L 451.00 503.54 L 448.35 508.65 L 445.20 513.46 L 441.56 517.91 L 437.53 521.95 L 433.07 525.58 L 428.27 528.74 L 423.16 531.38 L 417.70 533.53 L 413.48 534.75 L 409.14 535.64 L 404.65 536.19 L 400.00 536.38 L 395.35 536.19 L 390.86 535.64 L 386.52 534.75 L 382.30 533.53 L 376.84 531.38 L 371.73 528.74 L 366.93 525.58 L 362.47 521.95 L 358.44 517.91 L 354.80 513.46 L 351.65 508.65 L 349.00 503.54 L 346.85 498.08 L 345.63 493.87 L 344.74 489.52 L 344.20 485.03 L 344.00 480.38 L 344.20 475.73 L 344.74 471.24 L 345.63 466.90 L 346.85 462.68 L 349.00 457.23 L 351.65 452.11 L 354.80 447.31 L 358.44 442.85 L 362.47 438.82 L 366.93 435.19 L 371.73 432.03 L 376.84 429.38 L 382.30 427.24 L 386.52 426.01 L 390.86 425.13 L 395.35 424.58 L 400.00 424.38 L 404.65 424.58 L 409.14 425.13 L 413.48 426.01 L 417.70 427.24 L 423.16 429.38 L 428.27 432.03 L 433.07 435.19 L 437.53 438.82 L 441.56 442.85 L 445.20 447.31 L 448.35 452.11 L 451.00 457.23 L 453.15 462.68 L 454.37 466.90 L 455.26 471.24 L 455.80 475.73 L 456.00 480.38 Z" fill="#930027" fill-rule="evenodd" group-id="1,3,11,22,27" node-id="284" stroke="none" target-height="112.00003" target-width="112" target-x="344" target-y="424.38364"></path></g><path d="M 456.00 480.38 L 455.80 485.03 L 455.26 489.52 L 454.37 493.87 L 453.15 498.08 L 451.00 503.54 L 448.35 508.65 L 445.20 513.46 L 441.56 517.91 L 437.53 521.95 L 433.07 525.58 L 428.27 528.74 L 423.16 531.38 L 417.70 533.53 L 413.48 534.75 L 409.14 535.64 L 404.65 536.19 L 400.00 536.38 L 395.35 536.19 L 390.86 535.64 L 386.52 534.75 L 382.30 533.53 L 376.84 531.38 L 371.73 528.74 L 366.93 525.58 L 362.47 521.95 L 358.44 517.91 L 354.80 513.46 L 351.65 508.65 L 349.00 503.54 L 346.85 498.08 L 345.63 493.87 L 344.74 489.52 L 344.20 485.03 L 344.00 480.38 L 344.20 475.73 L 344.74 471.24 L 345.63 466.90 L 346.85 462.68 L 349.00 457.23 L 351.65 452.11 L 354.80 447.31 L 358.44 442.85 L 362.47 438.82 L 366.93 435.19 L 371.73 432.03 L 376.84 429.38 L 382.30 427.24 L 386.52 426.01 L 390.86 425.13 L 395.35 424.58 L 400.00 424.38 L 404.65 424.58 L 409.14 425.13 L 413.48 426.01 L 417.70 427.24 L 423.16 429.38 L 428.27 432.03 L 433.07 435.19 L 437.53 438.82 L 441.56 442.85 L 445.20 447.31 L 448.35 452.11 L 451.00 457.23 L 453.15 462.68 L 454.37 466.90 L 455.26 471.24 L 455.80 475.73 L 456.00 480.38 Z" fill="#000000" fill-rule="evenodd" filter="url(#filter-14)" group-id="1,3,11,22,28" node-id="289" stroke="none" target-height="112.00003" target-width="112" target-x="344" target-y="424.38364"></path></g><path d="M 428.00 464.38 L 427.73 468.23 L 427.00 471.85 L 425.80 475.28 L 424.17 478.53 L 422.17 481.49 L 419.80 484.18 L 417.11 486.55 L 414.15 488.55 L 410.90 490.18 L 407.47 491.38 L 403.85 492.12 L 400.00 492.38 L 396.15 492.12 L 392.53 491.38 L 389.10 490.18 L 385.85 488.55 L 382.89 486.55 L 380.20 484.18 L 377.83 481.49 L 375.83 478.53 L 374.20 475.28 L 373.00 471.85 L 372.27 468.23 L 372.00 464.38 L 372.27 460.54 L 373.00 456.92 L 374.20 453.48 L 375.83 450.23 L 377.83 447.28 L 380.20 444.58 L 382.89 442.21 L 385.85 440.22 L 389.10 438.58 L 392.53 437.39 L 396.15 436.65 L 400.00 436.38 L 403.85 436.65 L 407.47 437.39 L 410.90 438.58 L 414.15 440.22 L 417.11 442.21 L 419.80 444.58 L 422.17 447.28 L 424.17 450.23 L 425.80 453.48 L 427.00 456.92 L 427.73 460.54 L 428.00 464.38 Z" fill="#301502" fill-rule="evenodd" group-id="1,3,11" id="椭圆形" node-id="89" stroke="none" target-height="56" target-width="56" target-x="372" target-y="436.38364"></path><path d="M 442.00 443.38 L 441.79 446.29 L 441.24 449.01 L 440.35 451.56 L 439.13 453.98 L 437.05 456.93 L 434.55 459.43 L 431.60 461.52 L 429.18 462.74 L 426.63 463.62 L 423.91 464.17 L 421.00 464.38 L 418.09 464.17 L 415.37 463.62 L 412.82 462.74 L 410.40 461.52 L 407.45 459.43 L 404.95 456.93 L 402.87 453.98 L 401.65 451.56 L 400.76 449.01 L 400.21 446.29 L 400.00 443.38 L 400.21 440.48 L 400.76 437.76 L 401.65 435.20 L 402.87 432.78 L 404.95 429.84 L 407.45 427.34 L 410.40 425.25 L 412.82 424.03 L 415.37 423.15 L 418.09 422.59 L 421.00 422.38 L 423.91 422.59 L 426.63 423.15 L 429.18 424.03 L 431.60 425.25 L 434.55 427.34 L 437.05 429.84 L 439.13 432.78 L 440.35 435.20 L 441.24 437.76 L 441.79 440.48 L 442.00 443.38 Z" fill="#ffffff" fill-rule="evenodd" group-id="1,3,11" id="椭圆形" node-id="90" stroke="none" target-height="42" target-width="42" target-x="400" target-y="422.38364"></path><path d="M 400.00 478.38 L 399.76 480.94 L 399.12 483.28 L 398.09 485.45 L 396.70 487.41 L 395.03 489.08 L 393.07 490.47 L 390.90 491.51 L 388.56 492.15 L 386.00 492.38 L 383.44 492.15 L 381.10 491.51 L 378.93 490.47 L 376.97 489.08 L 375.30 487.41 L 373.91 485.45 L 372.88 483.28 L 372.24 480.94 L 372.00 478.38 L 372.24 475.83 L 372.88 473.49 L 373.91 471.32 L 375.30 469.35 L 376.97 467.69 L 378.93 466.30 L 381.10 465.26 L 383.44 464.62 L 386.00 464.38 L 388.56 464.62 L 390.90 465.26 L 393.07 466.30 L 395.03 467.69 L 396.70 469.35 L 398.09 471.32 L 399.12 473.49 L 399.76 475.83 L 400.00 478.38 Z" fill="#ffffff" fill-rule="evenodd" group-id="1,3,11" id="椭圆形备份-5" node-id="91" stroke="none" target-height="28" target-width="28" target-x="372" target-y="464.38364"></path></g></g><g node-id="330"><g node-id="338"><g node-id="349"><path d="M 672.00 552.38 L 684.56 552.25 L 696.60 551.80 L 708.15 551.04 L 719.68 549.87 L 730.50 548.29 L 740.64 546.31 L 748.23 544.43 L 755.33 542.27 L 761.96 539.83 L 768.17 537.13 L 774.23 533.97 L 779.77 530.47 L 784.83 526.63 L 789.43 522.46 L 792.81 518.81 L 795.86 514.88 L 798.59 510.65 L 801.02 506.11 L 803.14 501.23 L 804.81 496.32 L 806.15 491.03 L 807.14 485.30 L 807.77 479.09 L 808.00 472.38 L 807.77 465.67 L 807.14 459.47 L 806.15 453.74 L 804.81 448.44 L 803.14 443.54 L 801.02 438.66 L 798.59 434.12 L 795.86 429.89 L 792.81 425.96 L 789.43 422.31 L 784.83 418.13 L 779.77 414.30 L 774.23 410.80 L 768.17 407.63 L 761.96 404.94 L 755.33 402.50 L 748.23 400.34 L 740.64 398.46 L 730.50 396.48 L 719.68 394.90 L 708.15 393.73 L 696.60 392.97 L 684.56 392.52 L 672.00 392.38 L 659.44 392.52 L 647.40 392.97 L 635.85 393.73 L 624.32 394.90 L 613.50 396.48 L 603.36 398.46 L 595.77 400.34 L 588.67 402.50 L 582.04 404.94 L 575.83 407.63 L 569.77 410.80 L 564.23 414.30 L 559.17 418.13 L 554.57 422.31 L 551.19 425.96 L 548.14 429.89 L 545.41 434.12 L 542.98 438.66 L 540.86 443.54 L 539.19 448.44 L 537.85 453.74 L 536.86 459.47 L 536.23 465.67 L 536.00 472.38 L 536.23 479.09 L 536.86 485.30 L 537.85 491.03 L 539.19 496.32 L 540.86 501.23 L 542.98 506.11 L 545.41 510.65 L 548.14 514.88 L 551.19 518.81 L 554.57 522.46 L 559.17 526.63 L 564.23 530.47 L 569.77 533.97 L 575.83 537.13 L 582.04 539.83 L 588.67 542.27 L 595.77 544.43 L 603.36 546.31 L 613.50 548.29 L 624.32 549.87 L 635.85 551.04 L 647.40 551.80 L 659.44 552.25 L 672.00 552.38 Z" fill="#000000" fill-rule="evenodd" filter="url(#filter-16)" group-id="1,4,12,23" node-id="302" stroke="none" target-height="160.00003" target-width="272" target-x="536" target-y="392.38364"></path></g><g node-id="350"><path d="M 672.00 552.38 L 684.56 552.25 L 696.60 551.80 L 708.15 551.04 L 719.68 549.87 L 730.50 548.29 L 740.64 546.31 L 748.23 544.43 L 755.33 542.27 L 761.96 539.83 L 768.17 537.13 L 774.23 533.97 L 779.77 530.47 L 784.83 526.63 L 789.43 522.46 L 792.81 518.81 L 795.86 514.88 L 798.59 510.65 L 801.02 506.11 L 803.14 501.23 L 804.81 496.32 L 806.15 491.03 L 807.14 485.30 L 807.77 479.09 L 808.00 472.38 L 807.77 465.67 L 807.14 459.47 L 806.15 453.74 L 804.81 448.44 L 803.14 443.54 L 801.02 438.66 L 798.59 434.12 L 795.86 429.89 L 792.81 425.96 L 789.43 422.31 L 784.83 418.13 L 779.77 414.30 L 774.23 410.80 L 768.17 407.63 L 761.96 404.94 L 755.33 402.50 L 748.23 400.34 L 740.64 398.46 L 730.50 396.48 L 719.68 394.90 L 708.15 393.73 L 696.60 392.97 L 684.56 392.52 L 672.00 392.38 L 659.44 392.52 L 647.40 392.97 L 635.85 393.73 L 624.32 394.90 L 613.50 396.48 L 603.36 398.46 L 595.77 400.34 L 588.67 402.50 L 582.04 404.94 L 575.83 407.63 L 569.77 410.80 L 564.23 414.30 L 559.17 418.13 L 554.57 422.31 L 551.19 425.96 L 548.14 429.89 L 545.41 434.12 L 542.98 438.66 L 540.86 443.54 L 539.19 448.44 L 537.85 453.74 L 536.86 459.47 L 536.23 465.67 L 536.00 472.38 L 536.23 479.09 L 536.86 485.30 L 537.85 491.03 L 539.19 496.32 L 540.86 501.23 L 542.98 506.11 L 545.41 510.65 L 548.14 514.88 L 551.19 518.81 L 554.57 522.46 L 559.17 526.63 L 564.23 530.47 L 569.77 533.97 L 575.83 537.13 L 582.04 539.83 L 588.67 542.27 L 595.77 544.43 L 603.36 546.31 L 613.50 548.29 L 624.32 549.87 L 635.85 551.04 L 647.40 551.80 L 659.44 552.25 L 672.00 552.38 Z" fill="url(#linearGradient-9)" fill-rule="evenodd" group-id="1,4,12,24" node-id="307" stroke="none" target-height="160.00003" target-width="272" target-x="536" target-y="392.38364"></path></g><path d="M 672.00 552.38 L 684.56 552.25 L 696.60 551.80 L 708.15 551.04 L 719.68 549.87 L 730.50 548.29 L 740.64 546.31 L 748.23 544.43 L 755.33 542.27 L 761.96 539.83 L 768.17 537.13 L 774.23 533.97 L 779.77 530.47 L 784.83 526.63 L 789.43 522.46 L 792.81 518.81 L 795.86 514.88 L 798.59 510.65 L 801.02 506.11 L 803.14 501.23 L 804.81 496.32 L 806.15 491.03 L 807.14 485.30 L 807.77 479.09 L 808.00 472.38 L 807.77 465.67 L 807.14 459.47 L 806.15 453.74 L 804.81 448.44 L 803.14 443.54 L 801.02 438.66 L 798.59 434.12 L 795.86 429.89 L 792.81 425.96 L 789.43 422.31 L 784.83 418.13 L 779.77 414.30 L 774.23 410.80 L 768.17 407.63 L 761.96 404.94 L 755.33 402.50 L 748.23 400.34 L 740.64 398.46 L 730.50 396.48 L 719.68 394.90 L 708.15 393.73 L 696.60 392.97 L 684.56 392.52 L 672.00 392.38 L 659.44 392.52 L 647.40 392.97 L 635.85 393.73 L 624.32 394.90 L 613.50 396.48 L 603.36 398.46 L 595.77 400.34 L 588.67 402.50 L 582.04 404.94 L 575.83 407.63 L 569.77 410.80 L 564.23 414.30 L 559.17 418.13 L 554.57 422.31 L 551.19 425.96 L 548.14 429.89 L 545.41 434.12 L 542.98 438.66 L 540.86 443.54 L 539.19 448.44 L 537.85 453.74 L 536.86 459.47 L 536.23 465.67 L 536.00 472.38 L 536.23 479.09 L 536.86 485.30 L 537.85 491.03 L 539.19 496.32 L 540.86 501.23 L 542.98 506.11 L 545.41 510.65 L 548.14 514.88 L 551.19 518.81 L 554.57 522.46 L 559.17 526.63 L 564.23 530.47 L 569.77 533.97 L 575.83 537.13 L 582.04 539.83 L 588.67 542.27 L 595.77 544.43 L 603.36 546.31 L 613.50 548.29 L 624.32 549.87 L 635.85 551.04 L 647.40 551.80 L 659.44 552.25 L 672.00 552.38 Z" fill="#000000" fill-rule="evenodd" filter="url(#filter-17)" group-id="1,4,12,25" node-id="312" stroke="none" target-height="160.00003" target-width="272" target-x="536" target-y="392.38364"></path></g><g node-id="339"><g node-id="352"><g node-id="355"><path d="M 808.00 480.38 L 807.80 485.03 L 807.26 489.52 L 806.37 493.87 L 805.15 498.08 L 803.00 503.54 L 800.35 508.65 L 797.20 513.46 L 793.56 517.91 L 789.53 521.95 L 785.07 525.58 L 780.27 528.74 L 775.16 531.38 L 769.70 533.53 L 765.48 534.75 L 761.14 535.64 L 756.65 536.19 L 752.00 536.38 L 747.35 536.19 L 742.86 535.64 L 738.52 534.75 L 734.30 533.53 L 728.84 531.38 L 723.73 528.74 L 718.93 525.58 L 714.47 521.95 L 710.44 517.91 L 706.80 513.46 L 703.65 508.65 L 701.00 503.54 L 698.85 498.08 L 697.63 493.87 L 696.74 489.52 L 696.20 485.03 L 696.00 480.38 L 696.20 475.73 L 696.74 471.24 L 697.63 466.90 L 698.85 462.68 L 701.00 457.23 L 703.65 452.11 L 706.80 447.31 L 710.44 442.85 L 714.47 438.82 L 718.93 435.19 L 723.73 432.03 L 728.84 429.38 L 734.30 427.24 L 738.52 426.01 L 742.86 425.13 L 747.35 424.58 L 752.00 424.38 L 756.65 424.58 L 761.14 425.13 L 765.48 426.01 L 769.70 427.24 L 775.16 429.38 L 780.27 432.03 L 785.07 435.19 L 789.53 438.82 L 793.56 442.85 L 797.20 447.31 L 800.35 452.11 L 803.00 457.23 L 805.15 462.68 L 806.37 466.90 L 807.26 471.24 L 807.80 475.73 L 808.00 480.38 Z" fill="#930027" fill-rule="evenodd" group-id="1,4,13,26,29" node-id="320" stroke="none" target-height="112.00003" target-width="112" target-x="696" target-y="424.38364"></path></g><path d="M 808.00 480.38 L 807.80 485.03 L 807.26 489.52 L 806.37 493.87 L 805.15 498.08 L 803.00 503.54 L 800.35 508.65 L 797.20 513.46 L 793.56 517.91 L 789.53 521.95 L 785.07 525.58 L 780.27 528.74 L 775.16 531.38 L 769.70 533.53 L 765.48 534.75 L 761.14 535.64 L 756.65 536.19 L 752.00 536.38 L 747.35 536.19 L 742.86 535.64 L 738.52 534.75 L 734.30 533.53 L 728.84 531.38 L 723.73 528.74 L 718.93 525.58 L 714.47 521.95 L 710.44 517.91 L 706.80 513.46 L 703.65 508.65 L 701.00 503.54 L 698.85 498.08 L 697.63 493.87 L 696.74 489.52 L 696.20 485.03 L 696.00 480.38 L 696.20 475.73 L 696.74 471.24 L 697.63 466.90 L 698.85 462.68 L 701.00 457.23 L 703.65 452.11 L 706.80 447.31 L 710.44 442.85 L 714.47 438.82 L 718.93 435.19 L 723.73 432.03 L 728.84 429.38 L 734.30 427.24 L 738.52 426.01 L 742.86 425.13 L 747.35 424.58 L 752.00 424.38 L 756.65 424.58 L 761.14 425.13 L 765.48 426.01 L 769.70 427.24 L 775.16 429.38 L 780.27 432.03 L 785.07 435.19 L 789.53 438.82 L 793.56 442.85 L 797.20 447.31 L 800.35 452.11 L 803.00 457.23 L 805.15 462.68 L 806.37 466.90 L 807.26 471.24 L 807.80 475.73 L 808.00 480.38 Z" fill="#000000" fill-rule="evenodd" filter="url(#filter-19)" group-id="1,4,13,26,30" node-id="325" stroke="none" target-height="112.00003" target-width="112" target-x="696" target-y="424.38364"></path></g><path d="M 780.00 480.38 L 779.73 484.23 L 779.00 487.85 L 777.80 491.28 L 776.17 494.53 L 774.17 497.49 L 771.80 500.18 L 769.11 502.55 L 766.15 504.55 L 762.90 506.18 L 759.47 507.38 L 755.85 508.12 L 752.00 508.38 L 748.15 508.12 L 744.53 507.38 L 741.10 506.18 L 737.85 504.55 L 734.89 502.55 L 732.20 500.18 L 729.83 497.49 L 727.83 494.53 L 726.20 491.28 L 725.00 487.85 L 724.27 484.23 L 724.00 480.38 L 724.27 476.54 L 725.00 472.92 L 726.20 469.48 L 727.83 466.23 L 729.83 463.28 L 732.20 460.58 L 734.89 458.21 L 737.85 456.22 L 741.10 454.58 L 744.53 453.39 L 748.15 452.65 L 752.00 452.38 L 755.85 452.65 L 759.47 453.39 L 762.90 454.58 L 766.15 456.22 L 769.11 458.21 L 771.80 460.58 L 774.17 463.28 L 776.17 466.23 L 777.80 469.48 L 779.00 472.92 L 779.73 476.54 L 780.00 480.38 Z" fill="#301502" fill-rule="evenodd" group-id="1,4,13" id="椭圆形" node-id="101" stroke="none" target-height="56" target-width="56" target-x="724" target-y="452.38364"></path><path d="M 794.00 459.38 L 793.79 462.29 L 793.24 465.01 L 792.35 467.56 L 791.13 469.98 L 789.05 472.93 L 786.55 475.43 L 783.60 477.52 L 781.18 478.74 L 778.63 479.62 L 775.91 480.17 L 773.00 480.38 L 770.09 480.17 L 767.37 479.62 L 764.82 478.74 L 762.40 477.52 L 759.45 475.43 L 756.95 472.93 L 754.87 469.98 L 753.65 467.56 L 752.76 465.01 L 752.21 462.29 L 752.00 459.38 L 752.21 456.48 L 752.76 453.76 L 753.65 451.20 L 754.87 448.78 L 756.95 445.84 L 759.45 443.34 L 762.40 441.25 L 764.82 440.03 L 767.37 439.15 L 770.09 438.59 L 773.00 438.38 L 775.91 438.59 L 778.63 439.15 L 781.18 440.03 L 783.60 441.25 L 786.55 443.34 L 789.05 445.84 L 791.13 448.78 L 792.35 451.20 L 793.24 453.76 L 793.79 456.48 L 794.00 459.38 Z" fill="#ffffff" fill-rule="evenodd" group-id="1,4,13" id="椭圆形" node-id="102" stroke="none" target-height="42" target-width="42" target-x="752" target-y="438.38364"></path><path d="M 752.00 494.38 L 751.76 496.94 L 751.12 499.28 L 750.09 501.45 L 748.70 503.41 L 747.03 505.08 L 745.07 506.47 L 742.90 507.51 L 740.56 508.15 L 738.00 508.38 L 735.44 508.15 L 733.10 507.51 L 730.93 506.47 L 728.97 505.08 L 727.30 503.41 L 725.91 501.45 L 724.88 499.28 L 724.24 496.94 L 724.00 494.38 L 724.24 491.83 L 724.88 489.49 L 725.91 487.32 L 727.30 485.35 L 728.97 483.69 L 730.93 482.30 L 733.10 481.26 L 735.44 480.62 L 738.00 480.38 L 740.56 480.62 L 742.90 481.26 L 745.07 482.30 L 747.03 483.69 L 748.70 485.35 L 750.09 487.32 L 751.12 489.49 L 751.76 491.83 L 752.00 494.38 Z" fill="#ffffff" fill-rule="evenodd" group-id="1,4,13" id="椭圆形备份-5" node-id="103" stroke="none" target-height="28" target-width="28" target-x="724" target-y="480.38364"></path></g></g></g></svg>