<svg xmlns:xlink="http://www.w3.org/1999/xlink" xmlns="http://www.w3.org/2000/svg" version="1.1" viewBox="0 0 1024 1024" height="1024px" width="1024px">
    <title>害羞</title>
    <defs>
        <radialGradient id="radialGradient-1" gradientTransform="translate(0.500000,0.196690),scale(0.912281,1.000000),rotate(90.000000),translate(-0.500000,-0.196690)" r="93.9392347%" fy="19.6689915%" fx="50%" cy="19.6689915%" cx="50%">
            <stop offset="0%" stop-color="#FFE476"></stop>
            <stop offset="41.3872668%" stop-color="#FCEC6C"></stop>
            <stop offset="100%" stop-color="#FFB02F"></stop>
        </radialGradient>
        <path id="path-2" d="M486.860526,96.3786953 C606.065472,90.6333681 708.761001,150.678756 758.047405,248.068162 C890.943351,307.197291 998.794668,448.582382 971.841115,605.747769 C951.627441,723.613119 887.200132,809.730518 792.885037,862.375369 C746.431467,892.437155 680.2001,913.754861 581.849854,923.528265 C302.3427,951.303857 80.9816436,850.504609 64.8216209,598.216832 C56.8540009,473.82758 107.422588,389.954402 190.973967,336.88301 C221.596783,181.870433 333.83599,103.754027 486.860526,96.3786953 Z"></path>
        <filter id="filter-3" filterUnits="objectBoundingBox" height="117.3%" width="115.8%" y="-8.7%" x="-7.9%">
            <feGaussianBlur result="shadowBlurInner1" in="SourceAlpha" stdDeviation="64"></feGaussianBlur>
            <feOffset result="shadowOffsetInner1" in="shadowBlurInner1" dy="16" dx="0"></feOffset>
            <feComposite result="shadowInnerInner1" k3="1" k2="-1" operator="arithmetic" in2="SourceAlpha" in="shadowOffsetInner1"></feComposite>
            <feColorMatrix in="shadowInnerInner1" type="matrix" values="0 0 0 0 0.968627451   0 0 0 0 0.68627451   0 0 0 0 0.270588235  0 0 0 0.501145583 0"></feColorMatrix>
        </filter>
        <filter id="filter-4" filterUnits="objectBoundingBox" height="307.9%" width="185.7%" y="-104.0%" x="-42.9%">
            <feGaussianBlur in="SourceGraphic" stdDeviation="48"></feGaussianBlur>
        </filter>
        <filter id="filter-5" filterUnits="objectBoundingBox" height="301.5%" width="178.1%" y="-100.7%" x="-39.1%">
            <feGaussianBlur in="SourceGraphic" stdDeviation="48"></feGaussianBlur>
        </filter>
        <path id="path-6" d="M5.90971489,10.3083129 C9.0555341,2.05067742 18.2998606,-2.09326842 26.5574961,1.05255079 C94.8466799,27.0679189 166.916682,29.1873041 243.288718,7.29443473 C251.783151,4.85941368 260.643224,9.77153773 263.078245,18.2659709 C265.513266,26.760404 260.601142,35.6204772 252.106709,38.0554983 C169.217161,61.8166829 90.0630119,59.488972 15.165477,30.9560941 C6.90784151,27.8102749 2.76389567,18.5659483 5.90971489,10.3083129 Z"></path>
        <filter id="filter-7" filterUnits="objectBoundingBox" height="276.9%" width="137.1%" y="-88.4%" x="-18.5%">
            <feOffset result="shadowOffsetOuter1" in="SourceAlpha" dy="0" dx="0"></feOffset>
            <feGaussianBlur result="shadowBlurOuter1" in="shadowOffsetOuter1" stdDeviation="16"></feGaussianBlur>
            <feColorMatrix in="shadowBlurOuter1" type="matrix" values="0 0 0 0 0.556497767   0 0 0 0 0.241897078   0 0 0 0 0.0263373464  0 0 0 0.301568305 0"></feColorMatrix>
        </filter>
        <path id="path-8" d="M1.05255079,10.3083129 C4.19837001,2.05067742 13.4426965,-2.09326842 21.700332,1.05255079 C89.9895158,27.0679189 162.059518,29.1873041 238.431554,7.29443473 C246.925987,4.85941368 255.78606,9.77153773 258.221081,18.2659709 C260.656102,26.760404 255.743978,35.6204772 247.249545,38.0554983 C164.359997,61.8166829 85.2058478,59.488972 10.3083129,30.9560941 C2.05067742,27.8102749 -2.09326842,18.5659483 1.05255079,10.3083129 Z"></path>
        <filter id="filter-9" filterUnits="objectBoundingBox" height="276.9%" width="137.1%" y="-88.4%" x="-18.5%">
            <feOffset result="shadowOffsetOuter1" in="SourceAlpha" dy="0" dx="0"></feOffset>
            <feGaussianBlur result="shadowBlurOuter1" in="shadowOffsetOuter1" stdDeviation="16"></feGaussianBlur>
            <feColorMatrix in="shadowBlurOuter1" type="matrix" values="0 0 0 0 0.556497767   0 0 0 0 0.241897078   0 0 0 0 0.0263373464  0 0 0 0.301568305 0"></feColorMatrix>
        </filter>
        <linearGradient id="linearGradient-10" y2="100%" x2="50%" y1="0%" x1="50%">
            <stop offset="0%" stop-color="#FFE971"></stop>
            <stop offset="100%" stop-color="#FFE058"></stop>
        </linearGradient>
        <path id="path-11" d="M155.995663,13.5492467 C148.062985,41.2937177 137.602252,42.8729553 102.525586,42.8729553 C67.0862855,42.8729553 40.8943137,42.1123152 30.9948621,13.5492467 C27.3916601,3.15286242 17.8406232,-1.56202188 9.66202413,3.01825791 C1.48342501,7.5985377 -2.22566724,19.7395228 1.3775347,30.1359071 C16.8030969,74.6435634 52.9897417,90.8166588 100.861953,90.8166588 C149.101554,90.8166588 173.460786,72.9033158 186.413187,27.6024087 C189.466024,16.9251365 185.131643,5.12358962 176.732076,1.2429161 C168.332509,-2.63775743 159.0485,2.87197448 155.995663,13.5492467 Z"></path>
        <filter id="filter-12" filterUnits="objectBoundingBox" height="258.6%" width="176.8%" y="-61.7%" x="-38.4%">
            <feGaussianBlur in="SourceGraphic" stdDeviation="8"></feGaussianBlur>
        </filter>
        <filter id="filter-13" filterUnits="objectBoundingBox" height="329.0%" width="211.0%" y="-96.9%" x="-55.5%">
            <feOffset result="shadowOffsetOuter1" in="SourceAlpha" dy="16" dx="0"></feOffset>
            <feGaussianBlur result="shadowBlurOuter1" in="shadowOffsetOuter1" stdDeviation="24"></feGaussianBlur>
            <feComposite result="shadowBlurOuter1" operator="out" in2="SourceAlpha" in="shadowBlurOuter1"></feComposite>
            <feColorMatrix in="shadowBlurOuter1" type="matrix" values="0 0 0 0 0.890992096   0 0 0 0 0.656935012   0 0 0 0 0.200722052  0 0 0 0.693379862 0"></feColorMatrix>
        </filter>
        <path id="path-14" d="M157.695072,22.2580589 C161.400575,15.4557012 169.119825,15.092114 172.255842,17.1793258 C176.633376,19.7111176 179.367214,24.4461639 177.390494,31.3667078 C165.555974,72.7996456 138.966629,82.8729553 94.4778175,82.8729553 C50.1898961,82.8729553 22.2912236,73.1417487 8.13697422,32.2609805 C5.80389204,25.5224959 7.28048993,19.525767 11.6164067,17.1793258 C15.9523234,14.8328846 23.1768175,14.8328846 27.314267,21.510228 C45.8598275,51.440521 56.2561068,51.7734132 92.8620077,51.7734132 C129.267018,51.7734132 141.616936,51.7734132 157.695072,22.2580589 Z"></path>
        <filter id="filter-15" filterUnits="objectBoundingBox" height="123.8%" width="109.4%" y="-11.9%" x="-4.7%">
            <feGaussianBlur result="shadowBlurInner1" in="SourceAlpha" stdDeviation="8"></feGaussianBlur>
            <feOffset result="shadowOffsetInner1" in="shadowBlurInner1" dy="0" dx="0"></feOffset>
            <feComposite result="shadowInnerInner1" k3="1" k2="-1" operator="arithmetic" in2="SourceAlpha" in="shadowOffsetInner1"></feComposite>
            <feColorMatrix in="shadowInnerInner1" type="matrix" values="0 0 0 0 0.661258421   0 0 0 0 0.0872254633   0 0 0 0 0.00982776113  0 0 0 1 0"></feColorMatrix>
        </filter>
    </defs>
    <g fill-rule="evenodd" fill="none" stroke-width="1" stroke="none" id="上传尺寸">
        <g id="害羞">
            <g id="默认">
                <rect height="1024" width="1024" y="0" x="0" id="矩形备份-2"></rect>
                <g id="形状结合">
                    <use xlink:href="#path-2" fill-rule="evenodd" fill="url(#radialGradient-1)"></use>
                    <use xlink:href="#path-2" filter="url(#filter-3)" fill-opacity="1" fill="black"></use>
                </g>
                <path filter="url(#filter-4)" fill="#FF5EA4" fill-opacity="0.8" id="椭圆形" d="M679.614143,587.201121 C772.397981,587.201121 832,668.39652 832,552 C832,435.60348 756.783838,488 664,488 C571.216162,488 496,516.653776 496,552 C496,587.346224 586.830305,587.201121 679.614143,587.201121 Z"></path>
                <path filter="url(#filter-5)" fill="#FF5EA4" fill-opacity="0.8" id="椭圆形备份-6" d="M359.71318,598.203961 C461.333574,598.203961 544,587.346224 544,552 C544,516.653776 461.620394,488 360,488 C258.379606,488 184.676111,435.60348 176,552 C167.323889,668.39652 258.092786,598.203961 359.71318,598.203961 Z"></path>
                <g fill-rule="nonzero" transform="translate(327.294821, 494.564982) rotate(2.000000) translate(-327.294821, -494.564982) translate(195.443901, 442.748600)" id="编组-3">
                    <g id="路径-3">
                        <use xlink:href="#path-6" filter="url(#filter-7)" fill-opacity="1" fill="black"></use>
                        <use xlink:href="#path-6" fill="#5B2500"></use>
                    </g>
                    <path fill="#5B2500" id="路径-4" d="M46.7989405,28.3319253 C51.1708685,27.6936258 55.2324603,30.7203298 55.8707597,35.0922578 C59.0883991,57.1309539 42.2897739,71.3789204 9.58353459,77.9767758 C5.25250412,78.850478 1.03323465,76.0477596 0.159532464,71.7167291 C-0.714169719,67.3856987 2.08854863,63.1664292 6.4195791,62.292727 C31.8679703,57.159003 41.7047631,48.8158027 40.038608,37.4037445 C39.4003085,33.0318165 42.4270125,28.9702247 46.7989405,28.3319253 Z"></path>
                    <path fill="#5B2500" id="路径-5" d="M100.791376,33.8936619 C105.207978,33.771971 108.886991,37.2536842 109.008682,41.6702861 C109.756427,68.8086381 106.048912,88.2958966 97.2483504,100.349582 C94.6430181,103.917975 89.6382254,104.698689 86.069833,102.093357 C82.5014406,99.4880246 81.7207262,94.4832319 84.3260585,90.9148396 C90.564948,82.369747 93.6737749,66.0292828 93.0147521,42.1109678 C92.8930612,37.694366 96.3747744,34.0153528 100.791376,33.8936619 Z"></path>
                    <path fill="#5B2500" id="路径-6" d="M154.286553,34.6591416 C158.280392,32.7695835 163.049827,34.4754403 164.939385,38.4692794 L167.122419,43.1138468 L171.127019,51.8256611 L174.651633,59.7810439 L177.698626,66.99599 C178.166788,68.1376666 178.615147,69.2491581 179.043754,70.3307977 L181.378749,76.4650793 L183.242036,81.8989114 C185.141626,87.836007 186.082972,92.3756745 186.082972,95.632211 C186.082972,100.050489 182.50125,103.632211 178.082972,103.632211 C174.155614,103.632211 170.889238,100.802208 170.211863,97.0702211 L170.082972,95.632211 C170.082972,94.2833082 169.667462,92.1756761 168.841722,89.3450272 L167.654262,85.6034861 L166.075009,81.1815626 C165.779263,80.3886386 165.467277,79.5679369 165.139093,78.7197429 L161.749232,70.3514227 L157.491522,60.5448089 L152.372805,49.3461851 C151.756479,48.0262739 151.124335,46.6814418 150.476415,45.3119745 C148.586857,41.3181354 150.292713,36.5486997 154.286553,34.6591416 Z"></path>
                </g>
                <g fill-rule="nonzero" transform="translate(679.614143, 492.180316) rotate(-4.000000) translate(-679.614143, -492.180316) translate(549.912301, 438.131727)" id="编组-3备份">
                    <g transform="translate(129.422338, 27.137701) scale(-1, 1) translate(-129.422338, -27.137701)" id="路径-3">
                        <use xlink:href="#path-8" filter="url(#filter-9)" fill-opacity="1" fill="black"></use>
                        <use xlink:href="#path-8" fill="#5B2500"></use>
                    </g>
                    <path transform="translate(231.273261, 53.191630) scale(-1, 1) translate(-231.273261, -53.191630)" fill="#5B2500" id="路径-4" d="M249.941776,28.3319253 C254.313704,27.6936258 258.375296,30.7203298 259.013596,35.0922578 C262.231235,57.1309539 245.43261,71.3789204 212.72637,77.9767758 C208.39534,78.850478 204.176071,76.0477596 203.302368,71.7167291 C202.428666,67.3856987 205.231385,63.1664292 209.562415,62.292727 C235.010806,57.159003 244.847599,48.8158027 243.181444,37.4037445 C242.543144,33.0318165 245.569848,28.9702247 249.941776,28.3319253 Z"></path>
                    <path transform="translate(154.931477, 73.226079) scale(-1, 1) translate(-154.931477, -73.226079)" fill="#5B2500" id="路径-5" d="M159.778311,38.3580762 C164.194913,38.2363853 167.873926,41.7180985 167.995617,46.1347004 C168.743362,73.2730524 165.035847,92.7603109 156.235285,104.813997 C153.629953,108.382389 148.62516,109.163104 145.056768,106.557771 C141.488376,103.952439 140.707661,98.9476463 143.312994,95.3792539 C149.551883,86.8341613 152.66071,70.4936972 152.001687,46.5753821 C151.879996,42.1587803 155.36171,38.4797671 159.778311,38.3580762 Z"></path>
                    <path transform="translate(83.232208, 63.179961) scale(-1, 1) rotate(11.000000) translate(-83.232208, -63.179961)" fill="#5B2500" id="路径-6" d="M69.6242644,29.0786237 C73.6181035,27.1890656 78.3875393,28.8949224 80.2770973,32.8887615 L84.5225769,41.9847897 L88.2868883,50.3163889 L91.5723963,57.8995539 L94.3814656,64.7502798 C94.810072,65.8319195 95.2189253,66.8837073 95.6080748,67.9059764 L97.7069203,73.6880339 L99.3352392,78.7776394 C100.729083,83.5263506 101.420684,87.2603761 101.420684,90.0516931 C101.420684,94.4699711 97.8389621,98.0516931 93.4206841,98.0516931 C89.4933259,98.0516931 86.2269502,95.2216905 85.5495749,91.4897032 L85.4206841,90.0516931 C85.4206841,88.9725709 85.1547578,87.4078618 84.6256084,85.3758509 L83.634805,81.9796436 L82.2511947,77.8961971 C81.9879716,77.1591147 81.7084662,76.3939686 81.4127204,75.6010447 L78.313663,67.7224408 L74.3444756,58.3901156 L69.512001,47.6503526 L65.8141266,39.7314566 C63.9245685,35.7376175 65.6304253,30.9681818 69.6242644,29.0786237 Z"></path>
                </g>
            </g>
            <g fill-rule="nonzero" transform="translate(402.383064, 650.603071)" id="编组-2">
                <g filter="url(#filter-12)" id="路径">
                    <use xlink:href="#path-11" filter="url(#filter-13)" fill-opacity="1" fill="black"></use>
                    <use xlink:href="#path-11" fill="url(#linearGradient-10)" fill-opacity="0.8"></use>
                </g>
                <g id="路径">
                    <use xlink:href="#path-14" fill="#ED1F2A"></use>
                    <use xlink:href="#path-14" filter="url(#filter-15)" fill-opacity="1" fill="black"></use>
                </g>
            </g>
        </g>
    </g>
</svg>