<?xml version="1.0" standalone="no"?><!DOCTYPE svg PUBLIC "-//W3C//DTD SVG 1.1//EN" "http://www.w3.org/Graphics/SVG/1.1/DTD/svg11.dtd"><svg height="1024" node-id="1" sillyvg="true" template-height="1024" template-width="1024" version="1.1" viewBox="0 0 1024 1024" width="1024" xmlns="http://www.w3.org/2000/svg" xmlns:xlink="http://www.w3.org/1999/xlink"><defs node-id="86"><radialGradient cx="0.5" cy="0.19668992" fx="0.5" fy="0.19668992" gradientTransform="matrix(0 1 -0.912281 0 0.67943655 -0.30331)" gradientUnits="objectBoundingBox" id="radialGradient-1" node-id="5" r="0.9393923" rev="2" spreadMethod="pad"><stop offset="0" stop-color="#ffe476"></stop><stop offset="0.41387266" stop-color="#fcec6c"></stop><stop offset="1" stop-color="#ffb02f"></stop></radialGradient><linearGradient gradientUnits="objectBoundingBox" id="linearGradient-9" node-id="29" spreadMethod="pad" x1="0.5" x2="0.5" y1="0" y2="1"><stop offset="0" stop-color="#ffffff"></stop><stop offset="1" stop-color="#ffedbe"></stop></linearGradient><filter height="1.173" id="filter-3" node-id="10" width="1.158" x="-0.079" y="-0.087"><feGaussianBlur color-interpolation-filters="linearRGB" in="SourceAlpha" result="shadowBlurInner1" stdDeviation="64 64"></feGaussianBlur><feOffset color-interpolation-filters="linearRGB" dx="0" dy="16" in="shadowBlurInner1" result="shadowOffsetInner1"></feOffset><feComposite color-interpolation-filters="linearRGB" in="shadowOffsetInner1" in2="SourceAlpha" k1="0" k2="-1" k3="1" k4="0" operator="arithmetic" result="shadowInnerInner1"></feComposite><feColorMatrix color-interpolation-filters="linearRGB" in="shadowInnerInner1" result="result4" type="matrix" values="0 0 0 0 0.968627451 0 0 0 0 0.68627451 0 0 0 0 0.270588235 0 0 0 0.501145583 0"></feColorMatrix></filter><filter height="2.8" id="filter-4" node-id="15" width="2.636" x="-0.818" y="-0.9"><feGaussianBlur color-interpolation-filters="linearRGB" in="SourceGraphic" result="result1" stdDeviation="48 48"></feGaussianBlur></filter><filter height="2.8" id="filter-5" node-id="17" width="2.636" x="-0.818" y="-0.9"><feGaussianBlur color-interpolation-filters="linearRGB" in="SourceGraphic" result="result1" stdDeviation="48 48"></feGaussianBlur></filter><filter height="1.76" id="filter-7" node-id="20" width="1.256" x="-0.128" y="-0.38"><feOffset color-interpolation-filters="linearRGB" dx="0" dy="0" in="SourceAlpha" result="shadowOffsetOuter1"></feOffset><feGaussianBlur color-interpolation-filters="linearRGB" in="shadowOffsetOuter1" result="shadowBlurOuter1" stdDeviation="16 16"></feGaussianBlur><feColorMatrix color-interpolation-filters="linearRGB" in="shadowBlurOuter1" result="result3" type="matrix" values="0 0 0 0 0.925243875 0 0 0 0 0.776569168 0 0 0 0 0.170857398 0 0 0 1 0"></feColorMatrix></filter><filter height="1.634" id="filter-8" node-id="24" width="1.213" x="-0.107" y="-0.317"><feGaussianBlur color-interpolation-filters="linearRGB" in="SourceAlpha" result="shadowBlurInner1" stdDeviation="8 8"></feGaussianBlur><feOffset color-interpolation-filters="linearRGB" dx="0" dy="0" in="shadowBlurInner1" result="shadowOffsetInner1"></feOffset><feComposite color-interpolation-filters="linearRGB" in="shadowOffsetInner1" in2="SourceAlpha" k1="0" k2="-1" k3="1" k4="0" operator="arithmetic" result="shadowInnerInner1"></feComposite><feColorMatrix color-interpolation-filters="linearRGB" in="shadowInnerInner1" result="result4" type="matrix" values="0 0 0 0 0.661258421 0 0 0 0 0.0872254633 0 0 0 0 0.00982776113 0 0 0 1 0"></feColorMatrix></filter><filter height="1.75" id="filter-11" node-id="33" width="1.857" x="-0.429" y="-0.375"><feOffset color-interpolation-filters="linearRGB" dx="0" dy="0" in="SourceAlpha" result="shadowOffsetOuter1"></feOffset><feGaussianBlur color-interpolation-filters="linearRGB" in="shadowOffsetOuter1" result="shadowBlurOuter1" stdDeviation="32 32"></feGaussianBlur><feColorMatrix color-interpolation-filters="linearRGB" in="shadowBlurOuter1" result="result3" type="matrix" values="0 0 0 0 0.888848346 0 0 0 0 0.591702642 0 0 0 0 0.178785883 0 0 0 1 0"></feColorMatrix></filter><filter height="1.625" id="filter-12" node-id="37" width="1.714" x="-0.357" y="-0.312"><feGaussianBlur color-interpolation-filters="linearRGB" in="SourceAlpha" result="shadowBlurInner1" stdDeviation="16 16"></feGaussianBlur><feOffset color-interpolation-filters="linearRGB" dx="0" dy="0" in="shadowBlurInner1" result="shadowOffsetInner1"></feOffset><feComposite color-interpolation-filters="linearRGB" in="shadowOffsetInner1" in2="SourceAlpha" k1="0" k2="-1" k3="1" k4="0" operator="arithmetic" result="shadowInnerInner1"></feComposite><feColorMatrix color-interpolation-filters="linearRGB" in="shadowInnerInner1" result="result4" type="matrix" values="0 0 0 0 1 0 0 0 0 0.880587925 0 0 0 0 0.537254902 0 0 0 0.500726446 0"></feColorMatrix></filter><filter height="1.75" id="filter-14" node-id="43" width="1.857" x="-0.429" y="-0.375"><feOffset color-interpolation-filters="linearRGB" dx="0" dy="0" in="SourceAlpha" result="shadowOffsetOuter1"></feOffset><feGaussianBlur color-interpolation-filters="linearRGB" in="shadowOffsetOuter1" result="shadowBlurOuter1" stdDeviation="32 32"></feGaussianBlur><feColorMatrix color-interpolation-filters="linearRGB" in="shadowBlurOuter1" result="result3" type="matrix" values="0 0 0 0 0.888848346 0 0 0 0 0.591702642 0 0 0 0 0.178785883 0 0 0 1 0"></feColorMatrix></filter><filter height="1.625" id="filter-15" node-id="47" width="1.714" x="-0.357" y="-0.312"><feGaussianBlur color-interpolation-filters="linearRGB" in="SourceAlpha" result="shadowBlurInner1" stdDeviation="16 16"></feGaussianBlur><feOffset color-interpolation-filters="linearRGB" dx="0" dy="0" in="shadowBlurInner1" result="shadowOffsetInner1"></feOffset><feComposite color-interpolation-filters="linearRGB" in="shadowOffsetInner1" in2="SourceAlpha" k1="0" k2="-1" k3="1" k4="0" operator="arithmetic" result="shadowInnerInner1"></feComposite><feColorMatrix color-interpolation-filters="linearRGB" in="shadowInnerInner1" result="result4" type="matrix" values="0 0 0 0 1 0 0 0 0 0.880587925 0 0 0 0 0.537254902 0 0 0 0.500726446 0"></feColorMatrix></filter></defs><g node-id="258"><path d="M 0.00 0.00 L 1024.00 0.00 L 1024.00 1024.00 L 0.00 1024.00 Z" fill="none" group-id="1" id="矩形备份-6" node-id="54" stroke="none" target-height="1024" target-width="1024" target-x="0" target-y="0"></path><g node-id="259"><g node-id="262"><g node-id="270"><path d="M 486.86 96.38 L 501.27 96.01 L 515.38 96.26 L 529.21 97.12 L 542.78 98.56 L 556.11 100.60 L 569.45 103.25 L 582.45 106.45 L 595.14 110.18 L 607.52 114.44 L 619.62 119.24 L 631.55 124.62 L 643.10 130.48 L 654.29 136.81 L 665.13 143.63 L 675.63 150.95 L 685.80 158.75 L 695.54 166.99 L 704.88 175.66 L 713.82 184.77 L 722.36 194.34 L 730.43 204.28 L 738.02 214.61 L 745.16 225.35 L 751.83 236.49 L 758.05 248.07 L 769.36 253.33 L 780.52 258.98 L 791.54 265.01 L 802.41 271.43 L 813.15 278.25 L 826.23 287.24 L 838.93 296.74 L 851.27 306.77 L 863.26 317.34 L 872.54 326.15 L 881.50 335.23 L 890.13 344.59 L 898.46 354.24 L 906.47 364.18 L 914.14 374.40 L 921.41 384.85 L 928.28 395.53 L 934.76 406.44 L 940.86 417.61 L 946.52 428.99 L 951.71 440.56 L 956.44 452.32 L 960.70 464.28 L 964.49 476.45 L 967.77 488.74 L 970.50 501.18 L 972.70 513.79 L 974.35 526.58 L 975.46 539.55 L 975.98 552.48 L 975.88 565.54 L 975.17 578.77 L 973.83 592.16 L 971.84 605.75 L 969.02 620.58 L 965.77 634.95 L 962.10 648.88 L 958.01 662.38 L 953.51 675.47 L 948.61 688.17 L 943.16 700.86 L 937.32 713.16 L 931.10 725.06 L 924.50 736.57 L 917.52 747.73 L 910.15 758.52 L 902.33 769.08 L 894.15 779.28 L 885.61 789.13 L 876.71 798.64 L 867.44 807.81 L 857.79 816.64 L 847.85 825.09 L 837.58 833.20 L 826.95 840.98 L 815.96 848.44 L 804.61 855.57 L 792.88 862.38 L 784.16 867.78 L 774.82 873.07 L 764.83 878.22 L 754.14 883.24 L 743.49 887.78 L 732.08 892.19 L 719.87 896.45 L 706.83 900.56 L 693.95 904.20 L 680.18 907.67 L 665.47 910.97 L 649.78 914.08 L 634.38 916.75 L 617.95 919.23 L 600.46 921.49 L 581.85 923.53 L 560.70 925.39 L 539.95 926.75 L 519.60 927.61 L 499.64 927.98 L 480.05 927.87 L 460.19 927.26 L 440.81 926.15 L 421.90 924.54 L 403.44 922.45 L 385.42 919.89 L 367.22 916.75 L 349.57 913.11 L 332.44 908.98 L 315.82 904.39 L 299.69 899.32 L 286.19 894.59 L 273.10 889.51 L 260.41 884.11 L 248.10 878.37 L 236.16 872.30 L 224.58 865.90 L 213.11 859.00 L 202.06 851.76 L 191.42 844.18 L 181.17 836.25 L 171.30 827.97 L 161.82 819.34 L 152.67 810.30 L 143.95 800.89 L 135.64 791.11 L 127.74 780.93 L 120.23 770.36 L 113.12 759.39 L 106.56 748.22 L 100.43 736.64 L 94.73 724.62 L 89.45 712.15 L 84.61 699.21 L 80.21 685.77 L 76.46 672.48 L 73.16 658.70 L 70.34 644.41 L 67.99 629.58 L 66.15 614.19 L 64.82 598.22 L 64.14 583.09 L 64.03 568.57 L 64.46 554.63 L 65.41 541.24 L 66.86 528.37 L 68.90 515.28 L 71.42 502.70 L 74.40 490.60 L 77.84 478.97 L 81.72 467.78 L 86.18 456.62 L 91.06 445.89 L 96.35 435.54 L 102.05 425.58 L 108.18 415.98 L 114.77 406.63 L 121.74 397.62 L 129.10 388.93 L 136.85 380.56 L 145.01 372.50 L 153.46 364.81 L 162.28 357.41 L 171.46 350.29 L 181.02 343.45 L 190.97 336.88 L 193.90 323.41 L 197.19 310.46 L 200.84 298.03 L 204.83 286.10 L 209.16 274.63 L 213.83 263.62 L 218.81 253.05 L 224.38 242.41 L 230.26 232.20 L 236.44 222.43 L 242.94 213.08 L 249.74 204.13 L 256.85 195.57 L 264.28 187.38 L 273.46 178.18 L 283.02 169.49 L 292.99 161.29 L 303.37 153.58 L 314.17 146.34 L 325.42 139.58 L 336.87 133.40 L 348.72 127.67 L 360.96 122.40 L 373.62 117.59 L 386.72 113.23 L 400.27 109.34 L 413.70 106.05 L 427.52 103.20 L 441.72 100.79 L 456.34 98.85 L 471.38 97.37 L 486.86 96.38 Z" fill="url(#radialGradient-1)" fill-rule="evenodd" group-id="1,2,5,13" node-id="182" stroke="none" target-height="831.9669" target-width="911.9464" target-x="64.03111" target-y="96.01346"></path></g><path d="M 486.86 96.38 L 501.27 96.01 L 515.38 96.26 L 529.21 97.12 L 542.78 98.56 L 556.11 100.60 L 569.45 103.25 L 582.45 106.45 L 595.14 110.18 L 607.52 114.44 L 619.62 119.24 L 631.55 124.62 L 643.10 130.48 L 654.29 136.81 L 665.13 143.63 L 675.63 150.95 L 685.80 158.75 L 695.54 166.99 L 704.88 175.66 L 713.82 184.77 L 722.36 194.34 L 730.43 204.28 L 738.02 214.61 L 745.16 225.35 L 751.83 236.49 L 758.05 248.07 L 769.36 253.33 L 780.52 258.98 L 791.54 265.01 L 802.41 271.43 L 813.15 278.25 L 826.23 287.24 L 838.93 296.74 L 851.27 306.77 L 863.26 317.34 L 872.54 326.15 L 881.50 335.23 L 890.13 344.59 L 898.46 354.24 L 906.47 364.18 L 914.14 374.40 L 921.41 384.85 L 928.28 395.53 L 934.76 406.44 L 940.86 417.61 L 946.52 428.99 L 951.71 440.56 L 956.44 452.32 L 960.70 464.28 L 964.49 476.45 L 967.77 488.74 L 970.50 501.18 L 972.70 513.79 L 974.35 526.58 L 975.46 539.55 L 975.98 552.48 L 975.88 565.54 L 975.17 578.77 L 973.83 592.16 L 971.84 605.75 L 969.02 620.58 L 965.77 634.95 L 962.10 648.88 L 958.01 662.38 L 953.51 675.47 L 948.61 688.17 L 943.16 700.86 L 937.32 713.16 L 931.10 725.06 L 924.50 736.57 L 917.52 747.73 L 910.15 758.52 L 902.33 769.08 L 894.15 779.28 L 885.61 789.13 L 876.71 798.64 L 867.44 807.81 L 857.79 816.64 L 847.85 825.09 L 837.58 833.20 L 826.95 840.98 L 815.96 848.44 L 804.61 855.57 L 792.88 862.38 L 784.16 867.78 L 774.82 873.07 L 764.83 878.22 L 754.14 883.24 L 743.49 887.78 L 732.08 892.19 L 719.87 896.45 L 706.83 900.56 L 693.95 904.20 L 680.18 907.67 L 665.47 910.97 L 649.78 914.08 L 634.38 916.75 L 617.95 919.23 L 600.46 921.49 L 581.85 923.53 L 560.70 925.39 L 539.95 926.75 L 519.60 927.61 L 499.64 927.98 L 480.05 927.87 L 460.19 927.26 L 440.81 926.15 L 421.90 924.54 L 403.44 922.45 L 385.42 919.89 L 367.22 916.75 L 349.57 913.11 L 332.44 908.98 L 315.82 904.39 L 299.69 899.32 L 286.19 894.59 L 273.10 889.51 L 260.41 884.11 L 248.10 878.37 L 236.16 872.30 L 224.58 865.90 L 213.11 859.00 L 202.06 851.76 L 191.42 844.18 L 181.17 836.25 L 171.30 827.97 L 161.82 819.34 L 152.67 810.30 L 143.95 800.89 L 135.64 791.11 L 127.74 780.93 L 120.23 770.36 L 113.12 759.39 L 106.56 748.22 L 100.43 736.64 L 94.73 724.62 L 89.45 712.15 L 84.61 699.21 L 80.21 685.77 L 76.46 672.48 L 73.16 658.70 L 70.34 644.41 L 67.99 629.58 L 66.15 614.19 L 64.82 598.22 L 64.14 583.09 L 64.03 568.57 L 64.46 554.63 L 65.41 541.24 L 66.86 528.37 L 68.90 515.28 L 71.42 502.70 L 74.40 490.60 L 77.84 478.97 L 81.72 467.78 L 86.18 456.62 L 91.06 445.89 L 96.35 435.54 L 102.05 425.58 L 108.18 415.98 L 114.77 406.63 L 121.74 397.62 L 129.10 388.93 L 136.85 380.56 L 145.01 372.50 L 153.46 364.81 L 162.28 357.41 L 171.46 350.29 L 181.02 343.45 L 190.97 336.88 L 193.90 323.41 L 197.19 310.46 L 200.84 298.03 L 204.83 286.10 L 209.16 274.63 L 213.83 263.62 L 218.81 253.05 L 224.38 242.41 L 230.26 232.20 L 236.44 222.43 L 242.94 213.08 L 249.74 204.13 L 256.85 195.57 L 264.28 187.38 L 273.46 178.18 L 283.02 169.49 L 292.99 161.29 L 303.37 153.58 L 314.17 146.34 L 325.42 139.58 L 336.87 133.40 L 348.72 127.67 L 360.96 122.40 L 373.62 117.59 L 386.72 113.23 L 400.27 109.34 L 413.70 106.05 L 427.52 103.20 L 441.72 100.79 L 456.34 98.85 L 471.38 97.37 L 486.86 96.38 Z" fill="#000000" fill-rule="evenodd" filter="url(#filter-3)" group-id="1,2,5,14" node-id="187" stroke="none" target-height="831.9669" target-width="911.9464" target-x="64.03111" target-y="96.01346"></path></g><g node-id="263"><path d="M 800.00 568.00 L 799.69 574.63 L 798.84 581.04 L 797.44 587.25 L 795.51 593.29 L 793.07 599.15 L 790.18 604.76 L 786.84 610.12 L 783.02 615.25 L 778.82 620.06 L 774.26 624.54 L 769.31 628.71 L 763.97 632.56 L 758.38 636.00 L 752.50 639.04 L 746.32 641.68 L 739.81 643.92 L 733.20 645.67 L 726.38 646.94 L 719.32 647.72 L 712.00 648.00 L 704.68 647.72 L 697.62 646.94 L 690.80 645.67 L 684.19 643.92 L 677.68 641.68 L 671.50 639.04 L 665.62 636.00 L 660.03 632.56 L 654.69 628.71 L 649.74 624.54 L 645.18 620.06 L 640.98 615.25 L 637.16 610.12 L 633.82 604.76 L 630.93 599.15 L 628.49 593.29 L 626.56 587.25 L 625.16 581.04 L 624.31 574.63 L 624.00 568.00 L 624.31 561.37 L 625.16 554.96 L 626.56 548.75 L 628.49 542.71 L 630.93 536.85 L 633.82 531.24 L 637.16 525.88 L 640.98 520.75 L 645.18 515.94 L 649.74 511.46 L 654.69 507.29 L 660.03 503.44 L 665.62 500.00 L 671.50 496.96 L 677.68 494.32 L 684.19 492.08 L 690.80 490.33 L 697.62 489.06 L 704.68 488.28 L 712.00 488.00 L 719.32 488.28 L 726.38 489.06 L 733.20 490.33 L 739.81 492.08 L 746.32 494.32 L 752.50 496.96 L 758.38 500.00 L 763.97 503.44 L 769.31 507.29 L 774.26 511.46 L 778.82 515.94 L 783.02 520.75 L 786.84 525.88 L 790.18 531.24 L 793.07 536.85 L 795.51 542.71 L 797.44 548.75 L 798.84 554.96 L 799.69 561.37 L 800.00 568.00 Z" fill="#ff5ea4" fill-opacity="0.8" fill-rule="evenodd" filter="url(#filter-4)" group-id="1,2,6" id="椭圆形" node-id="59" stroke="none" target-height="160" target-width="176" target-x="624" target-y="488"></path></g><g node-id="264"><path d="M 368.00 568.00 L 367.69 574.63 L 366.84 581.04 L 365.44 587.25 L 363.51 593.29 L 361.07 599.15 L 358.18 604.76 L 354.84 610.12 L 351.02 615.25 L 346.82 620.06 L 342.26 624.54 L 337.31 628.71 L 331.97 632.56 L 326.38 636.00 L 320.50 639.04 L 314.32 641.68 L 307.81 643.92 L 301.20 645.67 L 294.38 646.94 L 287.32 647.72 L 280.00 648.00 L 272.68 647.72 L 265.62 646.94 L 258.80 645.67 L 252.19 643.92 L 245.68 641.68 L 239.50 639.04 L 233.62 636.00 L 228.03 632.56 L 222.69 628.71 L 217.74 624.54 L 213.18 620.06 L 208.98 615.25 L 205.16 610.12 L 201.82 604.76 L 198.93 599.15 L 196.49 593.29 L 194.56 587.25 L 193.16 581.04 L 192.31 574.63 L 192.00 568.00 L 192.31 561.37 L 193.16 554.96 L 194.56 548.75 L 196.49 542.71 L 198.93 536.85 L 201.82 531.24 L 205.16 525.88 L 208.98 520.75 L 213.18 515.94 L 217.74 511.46 L 222.69 507.29 L 228.03 503.44 L 233.62 500.00 L 239.50 496.96 L 245.68 494.32 L 252.19 492.08 L 258.80 490.33 L 265.62 489.06 L 272.68 488.28 L 280.00 488.00 L 287.32 488.28 L 294.38 489.06 L 301.20 490.33 L 307.81 492.08 L 314.32 494.32 L 320.50 496.96 L 326.38 500.00 L 331.97 503.44 L 337.31 507.29 L 342.26 511.46 L 346.82 515.94 L 351.02 520.75 L 354.84 525.88 L 358.18 531.24 L 361.07 536.85 L 363.51 542.71 L 365.44 548.75 L 366.84 554.96 L 367.69 561.37 L 368.00 568.00 Z" fill="#ff5ea4" fill-opacity="0.8" fill-rule="evenodd" filter="url(#filter-5)" group-id="1,2,7" id="椭圆形备份-6" node-id="60" stroke="none" target-height="160" target-width="176" target-x="192" target-y="488"></path></g><g node-id="265"><g node-id="272"><path d="M 357.95 627.45 L 359.90 625.26 L 362.08 623.55 L 364.51 622.26 L 367.13 621.40 L 369.79 621.01 L 372.54 621.07 L 375.24 621.60 L 377.82 622.60 L 380.33 624.13 L 382.51 626.08 L 384.23 628.26 L 385.51 630.69 L 386.37 633.31 L 386.76 635.97 L 386.70 638.72 L 386.18 641.42 L 385.17 644.00 L 383.65 646.51 L 379.11 652.73 L 377.01 655.71 L 373.11 661.40 L 369.64 666.74 L 366.60 671.76 L 362.78 678.79 L 360.13 684.70 L 358.46 689.63 L 357.58 693.74 L 357.34 697.27 L 357.67 700.31 L 358.51 702.95 L 359.83 705.27 L 361.66 707.32 L 363.79 708.97 L 366.49 710.48 L 369.84 711.84 L 373.97 713.00 L 379.00 713.94 L 383.58 714.51 L 388.61 714.91 L 394.08 715.14 L 400.00 715.22 L 410.77 715.15 L 415.84 715.06 L 425.36 714.79 L 434.03 714.39 L 438.05 714.13 L 445.45 713.54 L 451.98 712.82 L 457.64 711.98 L 460.77 711.39 L 460.72 710.89 L 460.84 707.88 L 461.55 704.89 L 462.35 702.96 L 465.28 697.59 L 468.43 692.75 L 471.80 688.39 L 475.39 684.49 L 479.21 681.02 L 483.27 677.95 L 487.62 675.26 L 492.19 673.00 L 497.01 671.16 L 502.09 669.74 L 507.46 668.76 L 513.15 668.21 L 516.77 668.12 L 685.80 668.12 L 688.72 668.39 L 691.40 669.12 L 693.88 670.31 L 696.12 671.90 L 698.03 673.80 L 699.62 676.05 L 700.80 678.52 L 701.53 681.20 L 701.80 684.12 L 701.57 686.84 L 700.93 689.34 L 699.90 691.68 L 698.52 693.83 L 696.84 695.70 L 694.87 697.31 L 692.67 698.58 L 690.28 699.48 L 687.67 700.01 L 685.80 700.12 L 516.77 700.12 L 512.55 700.35 L 508.79 701.04 L 505.43 702.15 L 502.28 703.75 L 499.35 705.87 L 496.63 708.56 L 495.70 709.70 L 496.21 711.05 L 496.95 714.25 L 497.19 717.30 L 496.93 720.25 L 496.18 723.13 L 495.00 725.87 L 493.41 728.49 L 491.36 731.00 L 488.82 733.42 L 486.07 735.50 L 482.93 737.40 L 479.37 739.12 L 475.33 740.64 L 472.98 741.35 L 467.35 742.70 L 460.40 743.94 L 451.94 745.04 L 441.76 745.95 L 432.58 746.51 L 427.68 746.73 L 417.24 747.04 L 411.71 747.14 L 400.00 747.22 L 389.29 746.90 L 379.79 746.07 L 371.39 744.79 L 363.97 743.09 L 357.45 741.04 L 351.73 738.67 L 346.62 735.95 L 342.20 732.99 L 338.40 729.79 L 335.16 726.36 L 332.45 722.67 L 330.24 718.71 L 328.50 714.44 L 327.30 710.11 L 326.55 705.49 L 326.26 700.54 L 326.47 695.23 L 327.21 689.51 L 328.54 683.34 L 330.51 676.66 L 333.06 669.79 L 336.32 662.44 L 340.36 654.58 L 345.26 646.15 L 351.09 637.12 L 357.95 627.45 Z" fill="#000000" fill-rule="nonzero" filter="url(#filter-7)" group-id="1,2,8,15" node-id="202" stroke="none" target-height="126.206055" target-width="375.53638" target-x="326.26416" target-y="621.00977"></path></g><g node-id="273"><path d="M 357.95 627.45 L 359.90 625.26 L 362.08 623.55 L 364.51 622.26 L 367.13 621.40 L 369.79 621.01 L 372.54 621.07 L 375.24 621.60 L 377.82 622.60 L 380.33 624.13 L 382.51 626.08 L 384.23 628.26 L 385.51 630.69 L 386.37 633.31 L 386.76 635.97 L 386.70 638.72 L 386.18 641.42 L 385.17 644.00 L 383.65 646.51 L 379.11 652.73 L 377.01 655.71 L 373.11 661.40 L 369.64 666.74 L 366.60 671.76 L 362.78 678.79 L 360.13 684.70 L 358.46 689.63 L 357.58 693.74 L 357.34 697.27 L 357.67 700.31 L 358.51 702.95 L 359.83 705.27 L 361.66 707.32 L 363.79 708.97 L 366.49 710.48 L 369.84 711.84 L 373.97 713.00 L 379.00 713.94 L 383.58 714.51 L 388.61 714.91 L 394.08 715.14 L 400.00 715.22 L 410.77 715.15 L 415.84 715.06 L 425.36 714.79 L 434.03 714.39 L 438.05 714.13 L 445.45 713.54 L 451.98 712.82 L 457.64 711.98 L 460.77 711.39 L 460.72 710.89 L 460.84 707.88 L 461.55 704.89 L 462.35 702.96 L 465.28 697.59 L 468.43 692.75 L 471.80 688.39 L 475.39 684.49 L 479.21 681.02 L 483.27 677.95 L 487.62 675.26 L 492.19 673.00 L 497.01 671.16 L 502.09 669.74 L 507.46 668.76 L 513.15 668.21 L 516.77 668.12 L 685.80 668.12 L 688.72 668.39 L 691.40 669.12 L 693.88 670.31 L 696.12 671.90 L 698.03 673.80 L 699.62 676.05 L 700.80 678.52 L 701.53 681.20 L 701.80 684.12 L 701.57 686.84 L 700.93 689.34 L 699.90 691.68 L 698.52 693.83 L 696.84 695.70 L 694.87 697.31 L 692.67 698.58 L 690.28 699.48 L 687.67 700.01 L 685.80 700.12 L 516.77 700.12 L 512.55 700.35 L 508.79 701.04 L 505.43 702.15 L 502.28 703.75 L 499.35 705.87 L 496.63 708.56 L 495.70 709.70 L 496.21 711.05 L 496.95 714.25 L 497.19 717.30 L 496.93 720.25 L 496.18 723.13 L 495.00 725.87 L 493.41 728.49 L 491.36 731.00 L 488.82 733.42 L 486.07 735.50 L 482.93 737.40 L 479.37 739.12 L 475.33 740.64 L 472.98 741.35 L 467.35 742.70 L 460.40 743.94 L 451.94 745.04 L 441.76 745.95 L 432.58 746.51 L 427.68 746.73 L 417.24 747.04 L 411.71 747.14 L 400.00 747.22 L 389.29 746.90 L 379.79 746.07 L 371.39 744.79 L 363.97 743.09 L 357.45 741.04 L 351.73 738.67 L 346.62 735.95 L 342.20 732.99 L 338.40 729.79 L 335.16 726.36 L 332.45 722.67 L 330.24 718.71 L 328.50 714.44 L 327.30 710.11 L 326.55 705.49 L 326.26 700.54 L 326.47 695.23 L 327.21 689.51 L 328.54 683.34 L 330.51 676.66 L 333.06 669.79 L 336.32 662.44 L 340.36 654.58 L 345.26 646.15 L 351.09 637.12 L 357.95 627.45 Z" fill="#ed1f2a" fill-rule="nonzero" group-id="1,2,8,16" node-id="207" stroke="none" target-height="126.206055" target-width="375.53638" target-x="326.26416" target-y="621.00977"></path></g><path d="M 357.95 627.45 L 359.90 625.26 L 362.08 623.55 L 364.51 622.26 L 367.13 621.40 L 369.79 621.01 L 372.54 621.07 L 375.24 621.60 L 377.82 622.60 L 380.33 624.13 L 382.51 626.08 L 384.23 628.26 L 385.51 630.69 L 386.37 633.31 L 386.76 635.97 L 386.70 638.72 L 386.18 641.42 L 385.17 644.00 L 383.65 646.51 L 379.11 652.73 L 377.01 655.71 L 373.11 661.40 L 369.64 666.74 L 366.60 671.76 L 362.78 678.79 L 360.13 684.70 L 358.46 689.63 L 357.58 693.74 L 357.34 697.27 L 357.67 700.31 L 358.51 702.95 L 359.83 705.27 L 361.66 707.32 L 363.79 708.97 L 366.49 710.48 L 369.84 711.84 L 373.97 713.00 L 379.00 713.94 L 383.58 714.51 L 388.61 714.91 L 394.08 715.14 L 400.00 715.22 L 410.77 715.15 L 415.84 715.06 L 425.36 714.79 L 434.03 714.39 L 438.05 714.13 L 445.45 713.54 L 451.98 712.82 L 457.64 711.98 L 460.77 711.39 L 460.72 710.89 L 460.84 707.88 L 461.55 704.89 L 462.35 702.96 L 465.28 697.59 L 468.43 692.75 L 471.80 688.39 L 475.39 684.49 L 479.21 681.02 L 483.27 677.95 L 487.62 675.26 L 492.19 673.00 L 497.01 671.16 L 502.09 669.74 L 507.46 668.76 L 513.15 668.21 L 516.77 668.12 L 685.80 668.12 L 688.72 668.39 L 691.40 669.12 L 693.88 670.31 L 696.12 671.90 L 698.03 673.80 L 699.62 676.05 L 700.80 678.52 L 701.53 681.20 L 701.80 684.12 L 701.57 686.84 L 700.93 689.34 L 699.90 691.68 L 698.52 693.83 L 696.84 695.70 L 694.87 697.31 L 692.67 698.58 L 690.28 699.48 L 687.67 700.01 L 685.80 700.12 L 516.77 700.12 L 512.55 700.35 L 508.79 701.04 L 505.43 702.15 L 502.28 703.75 L 499.35 705.87 L 496.63 708.56 L 495.70 709.70 L 496.21 711.05 L 496.95 714.25 L 497.19 717.30 L 496.93 720.25 L 496.18 723.13 L 495.00 725.87 L 493.41 728.49 L 491.36 731.00 L 488.82 733.42 L 486.07 735.50 L 482.93 737.40 L 479.37 739.12 L 475.33 740.64 L 472.98 741.35 L 467.35 742.70 L 460.40 743.94 L 451.94 745.04 L 441.76 745.95 L 432.58 746.51 L 427.68 746.73 L 417.24 747.04 L 411.71 747.14 L 400.00 747.22 L 389.29 746.90 L 379.79 746.07 L 371.39 744.79 L 363.97 743.09 L 357.45 741.04 L 351.73 738.67 L 346.62 735.95 L 342.20 732.99 L 338.40 729.79 L 335.16 726.36 L 332.45 722.67 L 330.24 718.71 L 328.50 714.44 L 327.30 710.11 L 326.55 705.49 L 326.26 700.54 L 326.47 695.23 L 327.21 689.51 L 328.54 683.34 L 330.51 676.66 L 333.06 669.79 L 336.32 662.44 L 340.36 654.58 L 345.26 646.15 L 351.09 637.12 L 357.95 627.45 Z" fill="#000000" fill-rule="nonzero" filter="url(#filter-8)" group-id="1,2,8,17" node-id="212" stroke="none" target-height="126.206055" target-width="375.53638" target-x="326.26416" target-y="621.00977"></path></g></g><g node-id="260"><g node-id="266"><g node-id="275"><path d="M 480.00 384.38 L 479.73 393.25 L 478.96 401.87 L 477.72 410.25 L 476.00 418.41 L 473.79 426.51 L 471.17 434.29 L 468.14 441.78 L 464.71 448.99 L 460.83 456.01 L 456.62 462.66 L 452.08 468.95 L 447.20 474.89 L 441.93 480.54 L 436.40 485.75 L 430.61 490.53 L 424.53 494.91 L 418.16 498.87 L 411.59 502.33 L 404.80 505.31 L 397.77 507.81 L 390.60 509.78 L 383.26 511.21 L 375.74 512.07 L 368.00 512.38 L 360.26 512.07 L 352.74 511.21 L 345.40 509.78 L 338.23 507.81 L 331.20 505.31 L 324.41 502.33 L 317.84 498.87 L 311.47 494.91 L 305.39 490.53 L 299.60 485.75 L 294.07 480.54 L 288.80 474.89 L 283.92 468.95 L 279.38 462.66 L 275.17 456.01 L 271.29 448.99 L 267.86 441.78 L 264.83 434.29 L 262.21 426.51 L 260.00 418.41 L 258.28 410.25 L 257.04 401.87 L 256.27 393.25 L 256.00 384.38 L 256.27 375.52 L 257.04 366.90 L 258.28 358.52 L 260.00 350.36 L 262.21 342.26 L 264.83 334.48 L 267.86 326.99 L 271.29 319.78 L 275.17 312.76 L 279.38 306.11 L 283.92 299.82 L 288.80 293.87 L 294.07 288.23 L 299.60 283.02 L 305.39 278.24 L 311.47 273.86 L 317.84 269.90 L 324.41 266.44 L 331.20 263.46 L 338.23 260.96 L 345.40 258.98 L 352.74 257.56 L 360.26 256.69 L 368.00 256.38 L 375.74 256.69 L 383.26 257.56 L 390.60 258.98 L 397.77 260.96 L 404.80 263.46 L 411.59 266.44 L 418.16 269.90 L 424.53 273.86 L 430.61 278.24 L 436.40 283.02 L 441.93 288.23 L 447.20 293.87 L 452.08 299.82 L 456.62 306.11 L 460.83 312.76 L 464.71 319.78 L 468.14 326.99 L 471.17 334.48 L 473.79 342.26 L 476.00 350.36 L 477.72 358.52 L 478.96 366.90 L 479.73 375.52 L 480.00 384.38 Z" fill="#000000" fill-rule="evenodd" filter="url(#filter-11)" group-id="1,3,9,18" node-id="221" stroke="none" target-height="256.00003" target-width="224" target-x="256" target-y="256.38364"></path></g><g node-id="276"><path d="M 480.00 384.38 L 479.73 393.25 L 478.96 401.87 L 477.72 410.25 L 476.00 418.41 L 473.79 426.51 L 471.17 434.29 L 468.14 441.78 L 464.71 448.99 L 460.83 456.01 L 456.62 462.66 L 452.08 468.95 L 447.20 474.89 L 441.93 480.54 L 436.40 485.75 L 430.61 490.53 L 424.53 494.91 L 418.16 498.87 L 411.59 502.33 L 404.80 505.31 L 397.77 507.81 L 390.60 509.78 L 383.26 511.21 L 375.74 512.07 L 368.00 512.38 L 360.26 512.07 L 352.74 511.21 L 345.40 509.78 L 338.23 507.81 L 331.20 505.31 L 324.41 502.33 L 317.84 498.87 L 311.47 494.91 L 305.39 490.53 L 299.60 485.75 L 294.07 480.54 L 288.80 474.89 L 283.92 468.95 L 279.38 462.66 L 275.17 456.01 L 271.29 448.99 L 267.86 441.78 L 264.83 434.29 L 262.21 426.51 L 260.00 418.41 L 258.28 410.25 L 257.04 401.87 L 256.27 393.25 L 256.00 384.38 L 256.27 375.52 L 257.04 366.90 L 258.28 358.52 L 260.00 350.36 L 262.21 342.26 L 264.83 334.48 L 267.86 326.99 L 271.29 319.78 L 275.17 312.76 L 279.38 306.11 L 283.92 299.82 L 288.80 293.87 L 294.07 288.23 L 299.60 283.02 L 305.39 278.24 L 311.47 273.86 L 317.84 269.90 L 324.41 266.44 L 331.20 263.46 L 338.23 260.96 L 345.40 258.98 L 352.74 257.56 L 360.26 256.69 L 368.00 256.38 L 375.74 256.69 L 383.26 257.56 L 390.60 258.98 L 397.77 260.96 L 404.80 263.46 L 411.59 266.44 L 418.16 269.90 L 424.53 273.86 L 430.61 278.24 L 436.40 283.02 L 441.93 288.23 L 447.20 293.87 L 452.08 299.82 L 456.62 306.11 L 460.83 312.76 L 464.71 319.78 L 468.14 326.99 L 471.17 334.48 L 473.79 342.26 L 476.00 350.36 L 477.72 358.52 L 478.96 366.90 L 479.73 375.52 L 480.00 384.38 Z" fill="url(#linearGradient-9)" fill-rule="evenodd" group-id="1,3,9,19" node-id="226" stroke="none" target-height="256.00003" target-width="224" target-x="256" target-y="256.38364"></path></g><path d="M 480.00 384.38 L 479.73 393.25 L 478.96 401.87 L 477.72 410.25 L 476.00 418.41 L 473.79 426.51 L 471.17 434.29 L 468.14 441.78 L 464.71 448.99 L 460.83 456.01 L 456.62 462.66 L 452.08 468.95 L 447.20 474.89 L 441.93 480.54 L 436.40 485.75 L 430.61 490.53 L 424.53 494.91 L 418.16 498.87 L 411.59 502.33 L 404.80 505.31 L 397.77 507.81 L 390.60 509.78 L 383.26 511.21 L 375.74 512.07 L 368.00 512.38 L 360.26 512.07 L 352.74 511.21 L 345.40 509.78 L 338.23 507.81 L 331.20 505.31 L 324.41 502.33 L 317.84 498.87 L 311.47 494.91 L 305.39 490.53 L 299.60 485.75 L 294.07 480.54 L 288.80 474.89 L 283.92 468.95 L 279.38 462.66 L 275.17 456.01 L 271.29 448.99 L 267.86 441.78 L 264.83 434.29 L 262.21 426.51 L 260.00 418.41 L 258.28 410.25 L 257.04 401.87 L 256.27 393.25 L 256.00 384.38 L 256.27 375.52 L 257.04 366.90 L 258.28 358.52 L 260.00 350.36 L 262.21 342.26 L 264.83 334.48 L 267.86 326.99 L 271.29 319.78 L 275.17 312.76 L 279.38 306.11 L 283.92 299.82 L 288.80 293.87 L 294.07 288.23 L 299.60 283.02 L 305.39 278.24 L 311.47 273.86 L 317.84 269.90 L 324.41 266.44 L 331.20 263.46 L 338.23 260.96 L 345.40 258.98 L 352.74 257.56 L 360.26 256.69 L 368.00 256.38 L 375.74 256.69 L 383.26 257.56 L 390.60 258.98 L 397.77 260.96 L 404.80 263.46 L 411.59 266.44 L 418.16 269.90 L 424.53 273.86 L 430.61 278.24 L 436.40 283.02 L 441.93 288.23 L 447.20 293.87 L 452.08 299.82 L 456.62 306.11 L 460.83 312.76 L 464.71 319.78 L 468.14 326.99 L 471.17 334.48 L 473.79 342.26 L 476.00 350.36 L 477.72 358.52 L 478.96 366.90 L 479.73 375.52 L 480.00 384.38 Z" fill="#000000" fill-rule="evenodd" filter="url(#filter-12)" group-id="1,3,9,20" node-id="231" stroke="none" target-height="256.00003" target-width="224" target-x="256" target-y="256.38364"></path></g><g node-id="267"><path d="M 370.11 387.83 L 376.24 388.09 L 382.16 388.81 L 387.89 389.98 L 393.45 391.59 L 398.89 393.65 L 404.07 396.08 L 409.01 398.89 L 413.72 402.08 L 418.18 405.62 L 422.33 409.46 L 426.17 413.60 L 429.71 418.06 L 432.90 422.77 L 435.70 427.71 L 438.13 432.89 L 440.19 438.33 L 441.81 443.89 L 442.98 449.62 L 443.70 455.54 L 443.96 461.67 L 443.65 468.38 L 442.79 474.84 L 441.38 481.09 L 436.31 485.83 L 431.04 490.20 L 425.56 494.21 L 419.86 497.87 L 413.93 501.16 L 407.84 504.05 L 401.58 506.53 L 395.13 508.60 L 388.57 510.24 L 381.87 511.41 L 375.02 512.13 L 368.00 512.38 L 361.67 512.18 L 355.47 511.59 L 349.40 510.63 L 343.44 509.30 L 337.56 507.60 L 331.83 505.56 L 326.23 503.19 L 320.77 500.48 L 313.75 496.39 L 307.02 491.77 L 300.58 486.60 L 298.73 480.69 L 297.39 474.58 L 296.56 468.25 L 296.26 461.67 L 296.52 455.54 L 297.24 449.62 L 298.41 443.89 L 300.03 438.33 L 302.09 432.89 L 304.52 427.71 L 307.33 422.77 L 310.51 418.06 L 314.06 413.60 L 317.89 409.46 L 322.04 405.62 L 326.50 402.08 L 331.21 398.89 L 336.15 396.08 L 341.33 393.65 L 346.77 391.59 L 352.33 389.98 L 358.06 388.81 L 363.98 388.09 L 370.11 387.83 Z" fill="#930027" fill-rule="evenodd" group-id="1,3,10" id="形状结合" node-id="71" stroke="none" target-height="124.55499" target-width="147.69229" target-x="296.26492" target-y="387.8286"></path><path d="M 370.11 498.60 L 373.94 498.39 L 377.60 497.84 L 381.11 496.94 L 384.48 495.70 L 388.77 493.54 L 392.67 490.91 L 396.22 487.78 L 399.35 484.23 L 401.98 480.33 L 404.13 476.05 L 405.37 472.67 L 406.27 469.17 L 406.83 465.51 L 407.03 461.67 L 406.83 457.84 L 406.27 454.18 L 405.37 450.68 L 404.13 447.30 L 401.98 443.02 L 399.35 439.12 L 396.22 435.57 L 392.67 432.44 L 388.77 429.81 L 384.48 427.65 L 381.11 426.41 L 377.60 425.51 L 373.94 424.96 L 370.11 424.75 L 366.28 424.96 L 362.62 425.51 L 359.11 426.41 L 355.74 427.65 L 351.45 429.81 L 347.55 432.44 L 344.00 435.57 L 340.88 439.12 L 338.25 443.02 L 336.09 447.30 L 334.85 450.68 L 333.95 454.18 L 333.39 457.84 L 333.19 461.67 L 333.39 465.51 L 333.95 469.17 L 334.85 472.67 L 336.09 476.05 L 338.25 480.33 L 340.88 484.23 L 344.00 487.78 L 347.55 490.91 L 351.45 493.54 L 355.74 495.70 L 359.11 496.94 L 362.62 497.84 L 366.28 498.39 L 370.11 498.60 Z" fill="#301502" fill-rule="evenodd" group-id="1,3,10" id="椭圆形" node-id="72" stroke="none" target-height="73.84616" target-width="73.84616" target-x="333.188" target-y="424.75168"></path><path d="M 394.11 461.67 L 397.41 461.45 L 400.51 460.82 L 403.45 459.79 L 406.24 458.39 L 408.77 456.68 L 411.08 454.65 L 413.11 452.34 L 414.82 449.80 L 416.23 447.02 L 417.25 444.07 L 417.88 440.97 L 418.11 437.67 L 417.88 434.38 L 417.25 431.27 L 416.23 428.33 L 414.82 425.55 L 413.11 423.01 L 411.08 420.70 L 408.77 418.67 L 406.24 416.96 L 403.45 415.56 L 400.51 414.53 L 397.41 413.90 L 394.11 413.67 L 390.81 413.90 L 387.71 414.53 L 384.77 415.56 L 381.98 416.96 L 379.45 418.67 L 377.14 420.70 L 375.11 423.01 L 373.40 425.55 L 372.00 428.33 L 370.97 431.27 L 370.34 434.38 L 370.11 437.67 L 370.34 440.97 L 370.97 444.07 L 372.00 447.02 L 373.40 449.80 L 375.11 452.34 L 377.14 454.65 L 379.45 456.68 L 381.98 458.39 L 384.77 459.79 L 387.71 460.82 L 390.81 461.45 L 394.11 461.67 Z" fill="#ffffff" fill-rule="evenodd" group-id="1,3,10" id="椭圆形" node-id="73" stroke="none" target-height="48" target-width="48" target-x="370.11108" target-y="413.67477"></path><path d="M 347.03 507.83 L 349.56 507.59 L 351.88 506.96 L 354.02 505.94 L 355.97 504.56 L 357.61 502.91 L 358.99 500.97 L 360.01 498.83 L 360.64 496.51 L 360.88 493.98 L 360.64 491.46 L 360.01 489.14 L 358.99 486.99 L 357.61 485.05 L 355.97 483.40 L 354.02 482.03 L 351.88 481.00 L 349.56 480.37 L 347.03 480.14 L 344.51 480.37 L 342.19 481.00 L 340.05 482.03 L 338.10 483.40 L 336.45 485.05 L 335.08 486.99 L 334.05 489.14 L 333.42 491.46 L 333.19 493.98 L 333.42 496.51 L 334.05 498.83 L 335.08 500.97 L 336.45 502.91 L 338.10 504.56 L 340.05 505.94 L 342.19 506.96 L 344.51 507.59 L 347.03 507.83 Z" fill="#ffffff" fill-rule="evenodd" group-id="1,3,10" id="椭圆形备份-5" node-id="74" stroke="none" target-height="27.692322" target-width="27.692322" target-x="333.188" target-y="480.1363"></path></g></g><g node-id="261"><g node-id="268"><g node-id="278"><path d="M 768.00 384.38 L 767.73 393.25 L 766.96 401.87 L 765.72 410.25 L 764.00 418.41 L 761.79 426.51 L 759.17 434.29 L 756.14 441.78 L 752.71 448.99 L 748.83 456.01 L 744.62 462.66 L 740.08 468.95 L 735.20 474.89 L 729.93 480.54 L 724.40 485.75 L 718.61 490.53 L 712.53 494.91 L 706.16 498.87 L 699.59 502.33 L 692.80 505.31 L 685.77 507.81 L 678.60 509.78 L 671.26 511.21 L 663.74 512.07 L 656.00 512.38 L 648.26 512.07 L 640.74 511.21 L 633.40 509.78 L 626.23 507.81 L 619.20 505.31 L 612.41 502.33 L 605.84 498.87 L 599.47 494.91 L 593.39 490.53 L 587.60 485.75 L 582.07 480.54 L 576.80 474.89 L 571.92 468.95 L 567.38 462.66 L 563.17 456.01 L 559.29 448.99 L 555.86 441.78 L 552.83 434.29 L 550.21 426.51 L 548.00 418.41 L 546.28 410.25 L 545.04 401.87 L 544.27 393.25 L 544.00 384.38 L 544.27 375.52 L 545.04 366.90 L 546.28 358.52 L 548.00 350.36 L 550.21 342.26 L 552.83 334.48 L 555.86 326.99 L 559.29 319.78 L 563.17 312.76 L 567.38 306.11 L 571.92 299.82 L 576.80 293.87 L 582.07 288.23 L 587.60 283.02 L 593.39 278.24 L 599.47 273.86 L 605.84 269.90 L 612.41 266.44 L 619.20 263.46 L 626.23 260.96 L 633.40 258.98 L 640.74 257.56 L 648.26 256.69 L 656.00 256.38 L 663.74 256.69 L 671.26 257.56 L 678.60 258.98 L 685.77 260.96 L 692.80 263.46 L 699.59 266.44 L 706.16 269.90 L 712.53 273.86 L 718.61 278.24 L 724.40 283.02 L 729.93 288.23 L 735.20 293.87 L 740.08 299.82 L 744.62 306.11 L 748.83 312.76 L 752.71 319.78 L 756.14 326.99 L 759.17 334.48 L 761.79 342.26 L 764.00 350.36 L 765.72 358.52 L 766.96 366.90 L 767.73 375.52 L 768.00 384.38 Z" fill="#000000" fill-rule="evenodd" filter="url(#filter-14)" group-id="1,4,11,21" node-id="246" stroke="none" target-height="256.00003" target-width="224" target-x="544" target-y="256.38364"></path></g><g node-id="279"><path d="M 768.00 384.38 L 767.73 393.25 L 766.96 401.87 L 765.72 410.25 L 764.00 418.41 L 761.79 426.51 L 759.17 434.29 L 756.14 441.78 L 752.71 448.99 L 748.83 456.01 L 744.62 462.66 L 740.08 468.95 L 735.20 474.89 L 729.93 480.54 L 724.40 485.75 L 718.61 490.53 L 712.53 494.91 L 706.16 498.87 L 699.59 502.33 L 692.80 505.31 L 685.77 507.81 L 678.60 509.78 L 671.26 511.21 L 663.74 512.07 L 656.00 512.38 L 648.26 512.07 L 640.74 511.21 L 633.40 509.78 L 626.23 507.81 L 619.20 505.31 L 612.41 502.33 L 605.84 498.87 L 599.47 494.91 L 593.39 490.53 L 587.60 485.75 L 582.07 480.54 L 576.80 474.89 L 571.92 468.95 L 567.38 462.66 L 563.17 456.01 L 559.29 448.99 L 555.86 441.78 L 552.83 434.29 L 550.21 426.51 L 548.00 418.41 L 546.28 410.25 L 545.04 401.87 L 544.27 393.25 L 544.00 384.38 L 544.27 375.52 L 545.04 366.90 L 546.28 358.52 L 548.00 350.36 L 550.21 342.26 L 552.83 334.48 L 555.86 326.99 L 559.29 319.78 L 563.17 312.76 L 567.38 306.11 L 571.92 299.82 L 576.80 293.87 L 582.07 288.23 L 587.60 283.02 L 593.39 278.24 L 599.47 273.86 L 605.84 269.90 L 612.41 266.44 L 619.20 263.46 L 626.23 260.96 L 633.40 258.98 L 640.74 257.56 L 648.26 256.69 L 656.00 256.38 L 663.74 256.69 L 671.26 257.56 L 678.60 258.98 L 685.77 260.96 L 692.80 263.46 L 699.59 266.44 L 706.16 269.90 L 712.53 273.86 L 718.61 278.24 L 724.40 283.02 L 729.93 288.23 L 735.20 293.87 L 740.08 299.82 L 744.62 306.11 L 748.83 312.76 L 752.71 319.78 L 756.14 326.99 L 759.17 334.48 L 761.79 342.26 L 764.00 350.36 L 765.72 358.52 L 766.96 366.90 L 767.73 375.52 L 768.00 384.38 Z" fill="url(#linearGradient-9)" fill-rule="evenodd" group-id="1,4,11,22" node-id="251" stroke="none" target-height="256.00003" target-width="224" target-x="544" target-y="256.38364"></path></g><path d="M 768.00 384.38 L 767.73 393.25 L 766.96 401.87 L 765.72 410.25 L 764.00 418.41 L 761.79 426.51 L 759.17 434.29 L 756.14 441.78 L 752.71 448.99 L 748.83 456.01 L 744.62 462.66 L 740.08 468.95 L 735.20 474.89 L 729.93 480.54 L 724.40 485.75 L 718.61 490.53 L 712.53 494.91 L 706.16 498.87 L 699.59 502.33 L 692.80 505.31 L 685.77 507.81 L 678.60 509.78 L 671.26 511.21 L 663.74 512.07 L 656.00 512.38 L 648.26 512.07 L 640.74 511.21 L 633.40 509.78 L 626.23 507.81 L 619.20 505.31 L 612.41 502.33 L 605.84 498.87 L 599.47 494.91 L 593.39 490.53 L 587.60 485.75 L 582.07 480.54 L 576.80 474.89 L 571.92 468.95 L 567.38 462.66 L 563.17 456.01 L 559.29 448.99 L 555.86 441.78 L 552.83 434.29 L 550.21 426.51 L 548.00 418.41 L 546.28 410.25 L 545.04 401.87 L 544.27 393.25 L 544.00 384.38 L 544.27 375.52 L 545.04 366.90 L 546.28 358.52 L 548.00 350.36 L 550.21 342.26 L 552.83 334.48 L 555.86 326.99 L 559.29 319.78 L 563.17 312.76 L 567.38 306.11 L 571.92 299.82 L 576.80 293.87 L 582.07 288.23 L 587.60 283.02 L 593.39 278.24 L 599.47 273.86 L 605.84 269.90 L 612.41 266.44 L 619.20 263.46 L 626.23 260.96 L 633.40 258.98 L 640.74 257.56 L 648.26 256.69 L 656.00 256.38 L 663.74 256.69 L 671.26 257.56 L 678.60 258.98 L 685.77 260.96 L 692.80 263.46 L 699.59 266.44 L 706.16 269.90 L 712.53 273.86 L 718.61 278.24 L 724.40 283.02 L 729.93 288.23 L 735.20 293.87 L 740.08 299.82 L 744.62 306.11 L 748.83 312.76 L 752.71 319.78 L 756.14 326.99 L 759.17 334.48 L 761.79 342.26 L 764.00 350.36 L 765.72 358.52 L 766.96 366.90 L 767.73 375.52 L 768.00 384.38 Z" fill="#000000" fill-rule="evenodd" filter="url(#filter-15)" group-id="1,4,11,23" node-id="256" stroke="none" target-height="256.00003" target-width="224" target-x="544" target-y="256.38364"></path></g><g node-id="269"><path d="M 658.11 387.83 L 664.24 388.09 L 670.16 388.81 L 675.89 389.98 L 681.45 391.59 L 686.89 393.65 L 692.07 396.08 L 697.01 398.89 L 701.72 402.08 L 706.18 405.62 L 710.33 409.46 L 714.17 413.60 L 717.71 418.06 L 720.90 422.77 L 723.70 427.71 L 726.13 432.89 L 728.19 438.33 L 729.81 443.89 L 730.98 449.62 L 731.70 455.54 L 731.96 461.67 L 731.65 468.38 L 730.79 474.84 L 729.38 481.09 L 724.31 485.83 L 719.04 490.20 L 713.56 494.21 L 707.86 497.87 L 701.93 501.16 L 695.84 504.05 L 689.58 506.53 L 683.13 508.60 L 676.57 510.24 L 669.87 511.41 L 663.02 512.13 L 656.00 512.38 L 649.67 512.18 L 643.47 511.59 L 637.40 510.63 L 631.44 509.30 L 625.56 507.60 L 619.83 505.56 L 614.23 503.19 L 608.77 500.48 L 601.75 496.39 L 595.02 491.77 L 588.58 486.60 L 586.73 480.69 L 585.39 474.58 L 584.56 468.25 L 584.26 461.67 L 584.52 455.54 L 585.24 449.62 L 586.41 443.89 L 588.03 438.33 L 590.09 432.89 L 592.52 427.71 L 595.33 422.77 L 598.51 418.06 L 602.06 413.60 L 605.89 409.46 L 610.04 405.62 L 614.50 402.08 L 619.21 398.89 L 624.15 396.08 L 629.33 393.65 L 634.77 391.59 L 640.33 389.98 L 646.06 388.81 L 651.98 388.09 L 658.11 387.83 Z" fill="#930027" fill-rule="evenodd" group-id="1,4,12" id="形状结合" node-id="81" stroke="none" target-height="124.55499" target-width="147.69232" target-x="584.26495" target-y="387.8286"></path><path d="M 658.11 498.60 L 661.94 498.39 L 665.60 497.84 L 669.11 496.94 L 672.48 495.70 L 676.77 493.54 L 680.67 490.91 L 684.22 487.78 L 687.35 484.23 L 689.98 480.33 L 692.13 476.05 L 693.37 472.67 L 694.27 469.17 L 694.83 465.51 L 695.03 461.67 L 694.83 457.84 L 694.27 454.18 L 693.37 450.68 L 692.13 447.30 L 689.98 443.02 L 687.35 439.12 L 684.22 435.57 L 680.67 432.44 L 676.77 429.81 L 672.48 427.65 L 669.11 426.41 L 665.60 425.51 L 661.94 424.96 L 658.11 424.75 L 654.28 424.96 L 650.62 425.51 L 647.11 426.41 L 643.74 427.65 L 639.45 429.81 L 635.55 432.44 L 632.00 435.57 L 628.88 439.12 L 626.25 443.02 L 624.09 447.30 L 622.85 450.68 L 621.95 454.18 L 621.39 457.84 L 621.19 461.67 L 621.39 465.51 L 621.95 469.17 L 622.85 472.67 L 624.09 476.05 L 626.25 480.33 L 628.88 484.23 L 632.00 487.78 L 635.55 490.91 L 639.45 493.54 L 643.74 495.70 L 647.11 496.94 L 650.62 497.84 L 654.28 498.39 L 658.11 498.60 Z" fill="#301502" fill-rule="evenodd" group-id="1,4,12" id="椭圆形" node-id="82" stroke="none" target-height="73.84616" target-width="73.84613" target-x="621.18805" target-y="424.75168"></path><path d="M 682.11 461.67 L 685.41 461.45 L 688.51 460.82 L 691.45 459.79 L 694.24 458.39 L 696.77 456.68 L 699.08 454.65 L 701.11 452.34 L 702.82 449.80 L 704.23 447.02 L 705.25 444.07 L 705.88 440.97 L 706.11 437.67 L 705.88 434.38 L 705.25 431.27 L 704.23 428.33 L 702.82 425.55 L 701.11 423.01 L 699.08 420.70 L 696.77 418.67 L 694.24 416.96 L 691.45 415.56 L 688.51 414.53 L 685.41 413.90 L 682.11 413.67 L 678.81 413.90 L 675.71 414.53 L 672.77 415.56 L 669.98 416.96 L 667.45 418.67 L 665.14 420.70 L 663.11 423.01 L 661.40 425.55 L 660.00 428.33 L 658.97 431.27 L 658.34 434.38 L 658.11 437.67 L 658.34 440.97 L 658.97 444.07 L 660.00 447.02 L 661.40 449.80 L 663.11 452.34 L 665.14 454.65 L 667.45 456.68 L 669.98 458.39 L 672.77 459.79 L 675.71 460.82 L 678.81 461.45 L 682.11 461.67 Z" fill="#ffffff" fill-rule="evenodd" group-id="1,4,12" id="椭圆形" node-id="83" stroke="none" target-height="48" target-width="48" target-x="658.1111" target-y="413.67477"></path><path d="M 635.03 507.83 L 637.56 507.59 L 639.88 506.96 L 642.02 505.94 L 643.97 504.56 L 645.61 502.91 L 646.99 500.97 L 648.01 498.83 L 648.64 496.51 L 648.88 493.98 L 648.64 491.46 L 648.01 489.14 L 646.99 486.99 L 645.61 485.05 L 643.97 483.40 L 642.02 482.03 L 639.88 481.00 L 637.56 480.37 L 635.03 480.14 L 632.51 480.37 L 630.19 481.00 L 628.05 482.03 L 626.10 483.40 L 624.45 485.05 L 623.08 486.99 L 622.05 489.14 L 621.42 491.46 L 621.19 493.98 L 621.42 496.51 L 622.05 498.83 L 623.08 500.97 L 624.45 502.91 L 626.10 504.56 L 628.05 505.94 L 630.19 506.96 L 632.51 507.59 L 635.03 507.83 Z" fill="#ffffff" fill-rule="evenodd" group-id="1,4,12" id="椭圆形备份-5" node-id="84" stroke="none" target-height="27.692322" target-width="27.692322" target-x="621.18805" target-y="480.1363"></path></g></g></g></svg>