<?xml version="1.0" standalone="no"?><!DOCTYPE svg PUBLIC "-//W3C//DTD SVG 1.1//EN" "http://www.w3.org/Graphics/SVG/1.1/DTD/svg11.dtd"><svg height="1024" node-id="1" sillyvg="true" template-height="1024" template-width="1024" version="1.1" viewBox="0 0 1024 1024" width="1024" xmlns="http://www.w3.org/2000/svg" xmlns:xlink="http://www.w3.org/1999/xlink"><defs node-id="84"><radialGradient cx="0.5" cy="0.19668992" fx="0.5" fy="0.19668992" gradientTransform="matrix(0 1 -0.912281 0 0.67943655 -0.30331)" gradientUnits="objectBoundingBox" id="radialGradient-1" node-id="5" r="0.9393923" rev="4" spreadMethod="pad"><stop offset="0" stop-color="#ffe476"></stop><stop offset="0.41387266" stop-color="#fcec6c"></stop><stop offset="1" stop-color="#ffb02f"></stop></radialGradient><linearGradient gradientUnits="objectBoundingBox" id="linearGradient-6" node-id="19" spreadMethod="pad" x1="0.49999997" x2="0.49999997" y1="0" y2="0.99999994"><stop offset="0" stop-color="#ffe971"></stop><stop offset="1" stop-color="#ffe058"></stop></linearGradient><linearGradient gradientUnits="objectBoundingBox" id="linearGradient-12" node-id="36" spreadMethod="pad" x1="0.5" x2="0.5" y1="-0.000000000000014210855" y2="0.66081935"><stop offset="0" stop-color="#d4e5ff"></stop><stop offset="1" stop-color="#277dff"></stop></linearGradient><linearGradient gradientUnits="objectBoundingBox" id="linearGradient-15" node-id="44" spreadMethod="pad" x1="0.5" x2="0.5" y1="0.19668992" y2="1.1360823"><stop offset="0" stop-color="#ffe992"></stop><stop offset="0.4151543" stop-color="#fff185"></stop><stop offset="1" stop-color="#ffb02f"></stop></linearGradient><filter height="1.173" id="filter-3" node-id="10" width="1.158" x="-0.079" y="-0.087"><feGaussianBlur color-interpolation-filters="linearRGB" in="SourceAlpha" result="shadowBlurInner1" stdDeviation="64 64"></feGaussianBlur><feOffset color-interpolation-filters="linearRGB" dx="0" dy="16" in="shadowBlurInner1" result="shadowOffsetInner1"></feOffset><feComposite color-interpolation-filters="linearRGB" in="shadowOffsetInner1" in2="SourceAlpha" k1="0" k2="-1" k3="1" k4="0" operator="arithmetic" result="shadowInnerInner1"></feComposite><feColorMatrix color-interpolation-filters="linearRGB" in="shadowInnerInner1" result="result4" type="matrix" values="0 0 0 0 0.968627451 0 0 0 0 0.68627451 0 0 0 0 0.270588235 0 0 0 0.501145583 0"></feColorMatrix></filter><filter height="3.571" id="filter-4" node-id="15" width="2.636" x="-0.818" y="-1.286"><feGaussianBlur color-interpolation-filters="linearRGB" in="SourceGraphic" result="result1" stdDeviation="48 48"></feGaussianBlur></filter><filter height="3.571" id="filter-5" node-id="17" width="2.636" x="-0.818" y="-1.286"><feGaussianBlur color-interpolation-filters="linearRGB" in="SourceGraphic" result="result1" stdDeviation="48 48"></feGaussianBlur></filter><filter height="1.2" id="filter-7" node-id="22" width="1.086" x="-0.043" y="-0.1"><feGaussianBlur color-interpolation-filters="linearRGB" in="SourceGraphic" result="result1" stdDeviation="8 8"></feGaussianBlur></filter><filter height="1.154" id="filter-9" node-id="25" width="1.067" x="-0.033" y="-0.077"><feGaussianBlur color-interpolation-filters="linearRGB" in="SourceAlpha" result="shadowBlurInner1" stdDeviation="16 16"></feGaussianBlur><feOffset color-interpolation-filters="linearRGB" dx="0" dy="0" in="shadowBlurInner1" result="shadowOffsetInner1"></feOffset><feComposite color-interpolation-filters="linearRGB" in="shadowOffsetInner1" in2="SourceAlpha" k1="0" k2="-1" k3="1" k4="0" operator="arithmetic" result="shadowInnerInner1"></feComposite><feColorMatrix color-interpolation-filters="linearRGB" in="shadowInnerInner1" result="result4" type="matrix" values="0 0 0 0 0.661258421 0 0 0 0 0.0872254633 0 0 0 0 0.00982776113 0 0 0 1 0"></feColorMatrix></filter><filter height="1.077" id="filter-11" node-id="31" width="1.033" x="-0.017" y="-0.038"><feGaussianBlur color-interpolation-filters="linearRGB" in="SourceAlpha" result="shadowBlurInner1" stdDeviation="8 8"></feGaussianBlur><feOffset color-interpolation-filters="linearRGB" dx="0" dy="0" in="shadowBlurInner1" result="shadowOffsetInner1"></feOffset><feComposite color-interpolation-filters="linearRGB" in="shadowOffsetInner1" in2="SourceAlpha" k1="0" k2="-1" k3="1" k4="0" operator="arithmetic" result="shadowInnerInner1"></feComposite><feColorMatrix color-interpolation-filters="linearRGB" in="shadowInnerInner1" result="result4" type="matrix" values="0 0 0 0 0.661258421 0 0 0 0 0.0872254633 0 0 0 0 0.00982776113 0 0 0 1 0"></feColorMatrix></filter><filter height="1.384" id="filter-14" node-id="40" width="1.624" x="-0.198" y="-0.192"><feOffset color-interpolation-filters="linearRGB" dx="32" dy="0" in="SourceAlpha" result="shadowOffsetOuter1"></feOffset><feGaussianBlur color-interpolation-filters="linearRGB" in="shadowOffsetOuter1" result="shadowBlurOuter1" stdDeviation="24 24"></feGaussianBlur><feColorMatrix color-interpolation-filters="linearRGB" in="shadowBlurOuter1" result="result3" type="matrix" values="0 0 0 0 0.878115889 0 0 0 0 0.702527 0 0 0 0 0.225928589 0 0 0 0.634703309 0"></feColorMatrix></filter><filter height="1.308" id="filter-17" node-id="49" width="1.47" x="-0.32" y="-0.154"><feOffset color-interpolation-filters="linearRGB" dx="-32" dy="0" in="SourceAlpha" result="shadowOffsetOuter1"></feOffset><feGaussianBlur color-interpolation-filters="linearRGB" in="shadowOffsetOuter1" result="shadowBlurOuter1" stdDeviation="24 24"></feGaussianBlur><feColorMatrix color-interpolation-filters="linearRGB" in="shadowBlurOuter1" result="result3" type="matrix" values="0 0 0 0 0.758999147 0 0 0 0 0.596441707 0 0 0 0 0.155214367 0 0 0 0.634703309 0"></feColorMatrix></filter><filter height="1.308" id="filter-18" node-id="53" width="1.47" x="-0.32" y="-0.154"><feGaussianBlur color-interpolation-filters="linearRGB" in="SourceAlpha" result="shadowBlurInner1" stdDeviation="40 40"></feGaussianBlur><feOffset color-interpolation-filters="linearRGB" dx="0" dy="0" in="shadowBlurInner1" result="shadowOffsetInner1"></feOffset><feComposite color-interpolation-filters="linearRGB" in="shadowOffsetInner1" in2="SourceAlpha" k1="0" k2="-1" k3="1" k4="0" operator="arithmetic" result="shadowInnerInner1"></feComposite><feColorMatrix color-interpolation-filters="linearRGB" in="shadowInnerInner1" result="result4" type="matrix" values="0 0 0 0 0.983836741 0 0 0 0 0.722638793 0 0 0 0 0.130279163 0 0 0 1 0"></feColorMatrix></filter></defs><g node-id="264"><path d="M 0.00 0.00 L 1024.00 0.00 L 1024.00 1024.00 L 0.00 1024.00 Z" fill="none" group-id="1" id="矩形备份-7" node-id="60" stroke="none" target-height="1024" target-width="1024" target-x="0" target-y="0"></path><g node-id="265"><g node-id="266"><g node-id="273"><path d="M 523.96 95.19 L 538.32 96.33 L 552.33 98.06 L 566.00 100.35 L 579.34 103.21 L 592.38 106.63 L 605.37 110.66 L 617.97 115.20 L 630.20 120.23 L 642.07 125.77 L 653.60 131.81 L 664.90 138.40 L 675.77 145.43 L 686.24 152.90 L 696.30 160.82 L 705.99 169.19 L 715.28 178.02 L 724.12 187.23 L 732.49 196.82 L 740.43 206.82 L 747.93 217.24 L 754.91 227.97 L 761.38 239.03 L 767.36 250.45 L 772.83 262.23 L 777.80 274.40 L 788.50 280.81 L 799.01 287.59 L 809.34 294.74 L 819.48 302.27 L 829.45 310.17 L 841.51 320.48 L 853.15 331.26 L 864.38 342.53 L 875.20 354.29 L 883.51 364.01 L 891.46 373.98 L 899.08 384.19 L 906.34 394.66 L 913.28 405.39 L 919.84 416.35 L 925.97 427.50 L 931.69 438.84 L 936.99 450.38 L 941.89 462.11 L 946.33 474.03 L 950.29 486.08 L 953.75 498.27 L 956.74 510.61 L 959.24 523.11 L 961.21 535.67 L 962.63 548.33 L 963.50 561.10 L 963.81 573.99 L 963.55 587.01 L 962.72 599.92 L 961.26 612.90 L 959.17 625.98 L 956.43 639.16 L 953.04 652.46 L 948.68 666.92 L 943.94 680.88 L 938.84 694.34 L 933.36 707.34 L 927.52 719.89 L 921.32 732.00 L 914.57 744.06 L 907.47 755.68 L 900.04 766.86 L 892.28 777.63 L 884.17 787.99 L 875.71 797.95 L 866.83 807.64 L 857.63 816.93 L 848.11 825.83 L 838.27 834.35 L 828.09 842.50 L 817.57 850.28 L 806.80 857.64 L 795.73 864.63 L 784.35 871.26 L 772.64 877.53 L 760.61 883.44 L 748.24 888.98 L 739.00 893.45 L 729.15 897.73 L 718.67 901.81 L 707.53 905.68 L 696.46 909.09 L 684.65 912.28 L 672.06 915.24 L 658.66 917.96 L 645.47 920.23 L 631.41 922.25 L 616.44 923.99 L 600.51 925.44 L 584.91 926.49 L 568.32 927.24 L 550.68 927.66 L 531.96 927.74 L 510.73 927.38 L 489.96 926.56 L 469.63 925.29 L 449.74 923.57 L 430.26 921.42 L 410.58 918.73 L 391.42 915.60 L 372.78 912.03 L 354.64 908.02 L 336.99 903.59 L 319.22 898.56 L 302.05 893.10 L 285.44 887.20 L 269.39 880.90 L 253.88 874.17 L 240.95 868.05 L 228.46 861.64 L 216.41 854.93 L 204.76 847.94 L 193.52 840.65 L 182.68 833.08 L 171.99 825.02 L 161.76 816.67 L 151.96 808.01 L 142.60 799.06 L 133.66 789.79 L 125.12 780.22 L 116.98 770.27 L 109.28 760.00 L 102.04 749.40 L 95.24 738.46 L 88.88 727.16 L 82.96 715.50 L 77.60 703.71 L 72.72 691.55 L 68.30 679.01 L 64.36 666.05 L 60.90 652.67 L 57.93 638.85 L 55.58 625.24 L 53.74 611.19 L 52.43 596.68 L 51.65 581.68 L 51.43 566.19 L 51.77 550.17 L 52.68 535.05 L 54.08 520.60 L 55.97 506.78 L 58.31 493.56 L 61.10 480.91 L 64.50 468.11 L 68.32 455.86 L 72.55 444.14 L 77.18 432.93 L 82.22 422.21 L 87.81 411.58 L 93.79 401.41 L 100.13 391.68 L 106.85 382.36 L 113.94 373.45 L 121.47 364.85 L 129.35 356.61 L 137.57 348.74 L 146.16 341.23 L 155.11 334.07 L 164.33 327.31 L 173.87 320.87 L 183.75 314.74 L 193.97 308.94 L 204.55 303.45 L 208.87 290.35 L 213.50 277.82 L 218.42 265.84 L 223.64 254.39 L 229.15 243.44 L 234.93 232.98 L 241.00 222.99 L 247.65 212.98 L 254.56 203.45 L 261.73 194.38 L 269.17 185.75 L 276.87 177.56 L 284.84 169.79 L 293.09 162.43 L 303.17 154.24 L 313.59 146.60 L 324.36 139.48 L 335.49 132.90 L 346.99 126.83 L 358.88 121.28 L 370.92 116.33 L 383.30 111.87 L 396.02 107.91 L 409.12 104.45 L 422.60 101.48 L 436.48 99.03 L 450.19 97.16 L 464.22 95.77 L 478.60 94.86 L 493.34 94.46 L 508.45 94.56 L 523.96 95.19 Z" fill="url(#radialGradient-1)" fill-rule="evenodd" group-id="1,2,3,10" node-id="190" stroke="none" target-height="833.28015" target-width="912.3805" target-x="51.4252" target-y="94.45879"></path></g><path d="M 523.96 95.19 L 538.32 96.33 L 552.33 98.06 L 566.00 100.35 L 579.34 103.21 L 592.38 106.63 L 605.37 110.66 L 617.97 115.20 L 630.20 120.23 L 642.07 125.77 L 653.60 131.81 L 664.90 138.40 L 675.77 145.43 L 686.24 152.90 L 696.30 160.82 L 705.99 169.19 L 715.28 178.02 L 724.12 187.23 L 732.49 196.82 L 740.43 206.82 L 747.93 217.24 L 754.91 227.97 L 761.38 239.03 L 767.36 250.45 L 772.83 262.23 L 777.80 274.40 L 788.50 280.81 L 799.01 287.59 L 809.34 294.74 L 819.48 302.27 L 829.45 310.17 L 841.51 320.48 L 853.15 331.26 L 864.38 342.53 L 875.20 354.29 L 883.51 364.01 L 891.46 373.98 L 899.08 384.19 L 906.34 394.66 L 913.28 405.39 L 919.84 416.35 L 925.97 427.50 L 931.69 438.84 L 936.99 450.38 L 941.89 462.11 L 946.33 474.03 L 950.29 486.08 L 953.75 498.27 L 956.74 510.61 L 959.24 523.11 L 961.21 535.67 L 962.63 548.33 L 963.50 561.10 L 963.81 573.99 L 963.55 587.01 L 962.72 599.92 L 961.26 612.90 L 959.17 625.98 L 956.43 639.16 L 953.04 652.46 L 948.68 666.92 L 943.94 680.88 L 938.84 694.34 L 933.36 707.34 L 927.52 719.89 L 921.32 732.00 L 914.57 744.06 L 907.47 755.68 L 900.04 766.86 L 892.28 777.63 L 884.17 787.99 L 875.71 797.95 L 866.83 807.64 L 857.63 816.93 L 848.11 825.83 L 838.27 834.35 L 828.09 842.50 L 817.57 850.28 L 806.80 857.64 L 795.73 864.63 L 784.35 871.26 L 772.64 877.53 L 760.61 883.44 L 748.24 888.98 L 739.00 893.45 L 729.15 897.73 L 718.67 901.81 L 707.53 905.68 L 696.46 909.09 L 684.65 912.28 L 672.06 915.24 L 658.66 917.96 L 645.47 920.23 L 631.41 922.25 L 616.44 923.99 L 600.51 925.44 L 584.91 926.49 L 568.32 927.24 L 550.68 927.66 L 531.96 927.74 L 510.73 927.38 L 489.96 926.56 L 469.63 925.29 L 449.74 923.57 L 430.26 921.42 L 410.58 918.73 L 391.42 915.60 L 372.78 912.03 L 354.64 908.02 L 336.99 903.59 L 319.22 898.56 L 302.05 893.10 L 285.44 887.20 L 269.39 880.90 L 253.88 874.17 L 240.95 868.05 L 228.46 861.64 L 216.41 854.93 L 204.76 847.94 L 193.52 840.65 L 182.68 833.08 L 171.99 825.02 L 161.76 816.67 L 151.96 808.01 L 142.60 799.06 L 133.66 789.79 L 125.12 780.22 L 116.98 770.27 L 109.28 760.00 L 102.04 749.40 L 95.24 738.46 L 88.88 727.16 L 82.96 715.50 L 77.60 703.71 L 72.72 691.55 L 68.30 679.01 L 64.36 666.05 L 60.90 652.67 L 57.93 638.85 L 55.58 625.24 L 53.74 611.19 L 52.43 596.68 L 51.65 581.68 L 51.43 566.19 L 51.77 550.17 L 52.68 535.05 L 54.08 520.60 L 55.97 506.78 L 58.31 493.56 L 61.10 480.91 L 64.50 468.11 L 68.32 455.86 L 72.55 444.14 L 77.18 432.93 L 82.22 422.21 L 87.81 411.58 L 93.79 401.41 L 100.13 391.68 L 106.85 382.36 L 113.94 373.45 L 121.47 364.85 L 129.35 356.61 L 137.57 348.74 L 146.16 341.23 L 155.11 334.07 L 164.33 327.31 L 173.87 320.87 L 183.75 314.74 L 193.97 308.94 L 204.55 303.45 L 208.87 290.35 L 213.50 277.82 L 218.42 265.84 L 223.64 254.39 L 229.15 243.44 L 234.93 232.98 L 241.00 222.99 L 247.65 212.98 L 254.56 203.45 L 261.73 194.38 L 269.17 185.75 L 276.87 177.56 L 284.84 169.79 L 293.09 162.43 L 303.17 154.24 L 313.59 146.60 L 324.36 139.48 L 335.49 132.90 L 346.99 126.83 L 358.88 121.28 L 370.92 116.33 L 383.30 111.87 L 396.02 107.91 L 409.12 104.45 L 422.60 101.48 L 436.48 99.03 L 450.19 97.16 L 464.22 95.77 L 478.60 94.86 L 493.34 94.46 L 508.45 94.56 L 523.96 95.19 Z" fill="#000000" fill-rule="evenodd" filter="url(#filter-3)" group-id="1,2,3,11" node-id="195" stroke="none" target-height="833.28015" target-width="912.3805" target-x="51.4252" target-y="94.45879"></path></g><g node-id="267"><path d="M 809.47 512.00 L 809.17 516.60 L 808.32 521.06 L 806.93 525.42 L 804.98 529.70 L 802.60 533.72 L 799.74 537.62 L 796.38 541.40 L 792.49 545.07 L 788.37 548.38 L 783.85 551.50 L 778.88 554.44 L 773.44 557.20 L 767.92 559.57 L 762.07 561.70 L 755.86 563.56 L 749.28 565.15 L 742.71 566.36 L 735.89 567.25 L 728.81 567.80 L 721.47 568.00 L 714.12 567.80 L 707.05 567.25 L 700.23 566.36 L 693.65 565.15 L 687.07 563.56 L 680.87 561.70 L 675.02 559.57 L 669.50 557.20 L 664.06 554.44 L 659.09 551.50 L 654.56 548.38 L 650.45 545.07 L 646.56 541.40 L 643.20 537.62 L 640.34 533.72 L 637.96 529.70 L 636.00 525.42 L 634.62 521.06 L 633.77 516.60 L 633.47 512.00 L 633.77 507.40 L 634.62 502.94 L 636.00 498.58 L 637.96 494.30 L 640.34 490.28 L 643.20 486.38 L 646.56 482.60 L 650.45 478.93 L 654.56 475.62 L 659.09 472.50 L 664.06 469.56 L 669.50 466.80 L 675.02 464.43 L 680.87 462.30 L 687.07 460.44 L 693.65 458.85 L 700.23 457.64 L 707.05 456.75 L 714.12 456.20 L 721.47 456.00 L 728.81 456.20 L 735.89 456.75 L 742.71 457.64 L 749.28 458.85 L 755.86 460.44 L 762.07 462.30 L 767.92 464.43 L 773.44 466.80 L 778.88 469.56 L 783.85 472.50 L 788.37 475.62 L 792.49 478.93 L 796.38 482.60 L 799.74 486.38 L 802.60 490.28 L 804.98 494.30 L 806.93 498.58 L 808.32 502.94 L 809.17 507.40 L 809.47 512.00 Z" fill="#ff5ea4" fill-opacity="0.8" fill-rule="evenodd" filter="url(#filter-4)" group-id="1,2,4" id="椭圆形" node-id="65" stroke="none" target-height="112" target-width="176" target-x="633.4692" target-y="456"></path></g><g node-id="268"><path d="M 377.47 464.00 L 377.17 468.60 L 376.32 473.06 L 374.93 477.42 L 372.98 481.70 L 370.60 485.72 L 367.74 489.62 L 364.38 493.40 L 360.49 497.07 L 356.37 500.38 L 351.85 503.50 L 346.88 506.44 L 341.44 509.20 L 335.92 511.57 L 330.07 513.70 L 323.86 515.56 L 317.28 517.15 L 310.71 518.36 L 303.89 519.25 L 296.81 519.80 L 289.47 520.00 L 282.12 519.80 L 275.05 519.25 L 268.23 518.36 L 261.65 517.15 L 255.07 515.56 L 248.87 513.70 L 243.02 511.57 L 237.50 509.20 L 232.06 506.44 L 227.09 503.50 L 222.56 500.38 L 218.45 497.07 L 214.56 493.40 L 211.20 489.62 L 208.34 485.72 L 205.96 481.70 L 204.00 477.42 L 202.62 473.06 L 201.77 468.60 L 201.47 464.00 L 201.77 459.40 L 202.62 454.94 L 204.00 450.58 L 205.96 446.30 L 208.34 442.28 L 211.20 438.38 L 214.56 434.60 L 218.45 430.93 L 222.56 427.62 L 227.09 424.50 L 232.06 421.56 L 237.50 418.80 L 243.02 416.43 L 248.87 414.30 L 255.07 412.44 L 261.65 410.85 L 268.23 409.64 L 275.05 408.75 L 282.12 408.20 L 289.47 408.00 L 296.81 408.20 L 303.89 408.75 L 310.71 409.64 L 317.28 410.85 L 323.86 412.44 L 330.07 414.30 L 335.92 416.43 L 341.44 418.80 L 346.88 421.56 L 351.85 424.50 L 356.37 427.62 L 360.49 430.93 L 364.38 434.60 L 367.74 438.38 L 370.60 442.28 L 372.98 446.30 L 374.93 450.58 L 376.32 454.94 L 377.17 459.40 L 377.47 464.00 Z" fill="#ff5ea4" fill-opacity="0.8" fill-rule="evenodd" filter="url(#filter-5)" group-id="1,2,5" id="椭圆形备份-6" node-id="66" stroke="none" target-height="112" target-width="176" target-x="201.46915" target-y="408"></path></g><g node-id="269"><path d="M 229.53 366.77 L 242.24 364.91 L 254.90 363.62 L 267.52 362.90 L 280.13 362.76 L 292.73 363.19 L 305.33 364.18 L 317.95 365.76 L 330.61 367.91 L 342.96 370.56 L 355.33 373.78 L 367.74 377.55 L 380.18 381.91 L 392.68 386.85 L 405.23 392.40 L 417.86 398.57 L 430.56 405.38 L 433.86 407.51 L 436.68 409.83 L 439.05 412.35 L 441.09 415.16 L 442.64 418.04 L 443.76 421.02 L 444.43 424.12 L 444.63 427.20 L 444.35 430.29 L 443.60 433.30 L 442.33 436.23 L 440.52 439.10 L 438.27 441.66 L 435.70 443.86 L 432.79 445.71 L 429.65 447.19 L 426.31 448.30 L 422.75 449.03 L 419.12 449.37 L 415.44 449.32 L 411.67 448.86 L 407.98 448.00 L 404.38 446.72 L 400.85 445.00 L 389.20 438.79 L 377.73 433.26 L 366.41 428.41 L 355.24 424.20 L 344.21 420.61 L 333.29 417.62 L 322.49 415.22 L 311.35 413.33 L 300.25 412.03 L 289.19 411.31 L 278.14 411.17 L 267.10 411.61 L 256.04 412.63 L 244.96 414.24 L 241.07 414.66 L 237.26 414.65 L 233.50 414.22 L 229.80 413.38 L 226.31 412.19 L 222.99 410.64 L 219.86 408.74 L 217.06 406.57 L 214.56 404.12 L 212.40 401.38 L 210.67 398.43 L 209.37 395.25 L 208.57 391.92 L 208.31 388.74 L 208.56 385.64 L 209.29 382.62 L 210.45 379.78 L 212.08 377.08 L 214.08 374.64 L 216.47 372.45 L 219.29 370.49 L 222.34 368.91 L 225.74 367.66 L 229.53 366.77 Z" fill="#5b2500" fill-rule="nonzero" group-id="1,2,6" id="路径-9" node-id="67" stroke="none" target-height="86.61194" target-width="236.3179" target-x="208.30978" target-y="362.76022"></path></g><g node-id="270"><g node-id="275"><path d="M 224.63 494.08 L 223.55 494.17 L 222.44 494.79 L 221.24 496.12 L 219.91 498.48 L 218.67 501.72 L 217.47 506.18 L 216.37 512.14 L 215.65 518.11 L 215.17 525.12 L 214.99 533.30 L 215.16 541.44 L 215.73 550.39 L 216.75 560.21 L 218.16 569.94 L 220.11 580.23 L 222.64 591.11 L 225.63 601.84 L 229.29 612.88 L 233.64 624.25 L 237.25 632.59 L 241.29 640.96 L 245.79 649.39 L 250.74 657.87 L 256.01 666.06 L 261.79 674.18 L 268.09 682.23 L 274.93 690.23 L 282.08 697.81 L 289.82 705.23 L 298.18 712.48 L 307.19 719.56 L 319.18 728.06 L 331.37 735.94 L 343.74 743.22 L 356.33 749.91 L 369.21 756.10 L 382.17 761.71 L 395.21 766.76 L 408.33 771.24 L 421.66 775.24 L 434.93 778.69 L 448.15 781.61 L 461.32 784.00 L 474.65 785.92 L 487.77 787.32 L 500.70 788.23 L 513.45 788.65 L 526.30 788.59 L 538.81 788.06 L 550.99 787.07 L 562.85 785.63 L 574.75 783.70 L 586.17 781.34 L 597.13 778.58 L 607.64 775.42 L 618.11 771.71 L 627.96 767.65 L 637.24 763.22 L 645.97 758.45 L 655.89 752.29 L 665.54 745.66 L 674.93 738.54 L 684.01 731.03 L 692.72 723.27 L 701.06 715.24 L 709.11 706.93 L 716.67 698.60 L 723.75 690.25 L 730.56 681.67 L 736.75 673.34 L 742.36 665.25 L 747.71 656.96 L 752.33 649.19 L 756.28 641.93 L 759.93 634.47 L 762.77 627.84 L 764.89 621.96 L 766.57 615.91 L 767.40 611.00 L 767.55 607.04 L 767.17 604.07 L 766.37 601.81 L 765.19 600.11 L 763.65 598.85 L 762.03 598.21 L 759.49 597.68 L 755.72 597.36 L 750.35 597.35 L 739.55 597.83 L 723.98 598.86 L 706.83 599.95 L 685.15 600.99 L 670.16 601.44 L 653.32 601.58 L 634.48 601.38 L 615.68 600.76 L 595.08 599.53 L 572.57 597.65 L 555.93 595.88 L 538.32 593.60 L 519.70 590.80 L 500.02 587.43 L 480.83 583.71 L 460.70 579.32 L 439.58 574.21 L 417.44 568.34 L 395.87 562.10 L 373.37 554.99 L 349.91 546.98 L 325.44 538.02 L 306.48 530.62 L 286.93 522.55 L 266.78 513.79 L 246.03 504.31 L 224.63 494.08 Z" fill="url(#linearGradient-6)" fill-opacity="0.4" fill-rule="evenodd" filter="url(#filter-7)" group-id="1,2,7,12" id="路径-10" node-id="69" stroke="none" target-height="294.56857" target-width="552.5647" target-x="214.9855" target-y="494.07803"></path></g><g node-id="276"><g node-id="283"><path d="M 252.19 517.23 L 251.17 517.36 L 250.11 518.03 L 248.96 519.49 L 247.68 522.13 L 246.53 525.67 L 245.47 530.50 L 244.56 536.93 L 244.05 543.34 L 243.85 550.82 L 244.03 559.47 L 244.61 568.06 L 245.69 577.41 L 247.31 587.58 L 249.40 597.63 L 252.15 608.13 L 255.60 619.10 L 258.53 627.15 L 261.92 635.29 L 265.77 643.52 L 270.10 651.86 L 274.76 659.90 L 279.96 667.88 L 285.70 675.81 L 292.02 683.69 L 298.68 691.14 L 305.97 698.42 L 313.93 705.51 L 322.58 712.43 L 332.85 719.77 L 343.28 726.58 L 353.88 732.86 L 364.66 738.63 L 375.70 743.97 L 386.80 748.81 L 397.97 753.16 L 409.21 757.02 L 420.63 760.46 L 432.01 763.42 L 443.34 765.93 L 454.63 767.98 L 466.05 769.61 L 477.30 770.81 L 488.39 771.57 L 499.32 771.91 L 510.34 771.83 L 521.06 771.35 L 531.51 770.48 L 541.69 769.21 L 551.89 767.52 L 561.69 765.46 L 571.09 763.04 L 580.11 760.28 L 589.09 757.06 L 597.55 753.52 L 605.51 749.67 L 613.01 745.52 L 622.72 739.36 L 632.13 732.68 L 641.24 725.47 L 650.02 717.84 L 658.34 709.97 L 666.22 701.87 L 673.79 693.47 L 680.76 685.15 L 687.14 676.91 L 693.24 668.43 L 698.57 660.39 L 703.20 652.77 L 707.52 644.92 L 710.96 637.90 L 713.60 631.62 L 715.81 625.13 L 717.06 619.88 L 717.54 615.65 L 717.46 612.99 L 717.04 610.90 L 716.35 609.27 L 715.40 608.00 L 714.20 607.04 L 712.19 606.32 L 708.62 605.83 L 702.80 605.77 L 693.54 606.20 L 680.19 607.12 L 665.47 608.10 L 646.89 609.03 L 634.03 609.45 L 619.59 609.60 L 603.44 609.46 L 587.32 608.95 L 569.66 607.93 L 550.35 606.34 L 536.09 604.84 L 520.99 602.90 L 505.03 600.50 L 488.16 597.62 L 471.72 594.43 L 454.46 590.66 L 436.36 586.27 L 417.39 581.23 L 398.90 575.86 L 379.62 569.74 L 359.51 562.84 L 338.55 555.12 L 318.16 547.06 L 296.99 538.09 L 275.01 528.16 L 252.19 517.23 Z" fill="#ed1f2a" fill-rule="evenodd" group-id="1,2,7,13,20" node-id="219" stroke="none" target-height="254.67542" target-width="473.6817" target-x="243.85368" target-y="517.2345"></path></g><path d="M 252.19 517.23 L 251.17 517.36 L 250.11 518.03 L 248.96 519.49 L 247.68 522.13 L 246.53 525.67 L 245.47 530.50 L 244.56 536.93 L 244.05 543.34 L 243.85 550.82 L 244.03 559.47 L 244.61 568.06 L 245.69 577.41 L 247.31 587.58 L 249.40 597.63 L 252.15 608.13 L 255.60 619.10 L 258.53 627.15 L 261.92 635.29 L 265.77 643.52 L 270.10 651.86 L 274.76 659.90 L 279.96 667.88 L 285.70 675.81 L 292.02 683.69 L 298.68 691.14 L 305.97 698.42 L 313.93 705.51 L 322.58 712.43 L 332.85 719.77 L 343.28 726.58 L 353.88 732.86 L 364.66 738.63 L 375.70 743.97 L 386.80 748.81 L 397.97 753.16 L 409.21 757.02 L 420.63 760.46 L 432.01 763.42 L 443.34 765.93 L 454.63 767.98 L 466.05 769.61 L 477.30 770.81 L 488.39 771.57 L 499.32 771.91 L 510.34 771.83 L 521.06 771.35 L 531.51 770.48 L 541.69 769.21 L 551.89 767.52 L 561.69 765.46 L 571.09 763.04 L 580.11 760.28 L 589.09 757.06 L 597.55 753.52 L 605.51 749.67 L 613.01 745.52 L 622.72 739.36 L 632.13 732.68 L 641.24 725.47 L 650.02 717.84 L 658.34 709.97 L 666.22 701.87 L 673.79 693.47 L 680.76 685.15 L 687.14 676.91 L 693.24 668.43 L 698.57 660.39 L 703.20 652.77 L 707.52 644.92 L 710.96 637.90 L 713.60 631.62 L 715.81 625.13 L 717.06 619.88 L 717.54 615.65 L 717.46 612.99 L 717.04 610.90 L 716.35 609.27 L 715.40 608.00 L 714.20 607.04 L 712.19 606.32 L 708.62 605.83 L 702.80 605.77 L 693.54 606.20 L 680.19 607.12 L 665.47 608.10 L 646.89 609.03 L 634.03 609.45 L 619.59 609.60 L 603.44 609.46 L 587.32 608.95 L 569.66 607.93 L 550.35 606.34 L 536.09 604.84 L 520.99 602.90 L 505.03 600.50 L 488.16 597.62 L 471.72 594.43 L 454.46 590.66 L 436.36 586.27 L 417.39 581.23 L 398.90 575.86 L 379.62 569.74 L 359.51 562.84 L 338.55 555.12 L 318.16 547.06 L 296.99 538.09 L 275.01 528.16 L 252.19 517.23 Z" fill="#000000" fill-rule="evenodd" filter="url(#filter-9)" group-id="1,2,7,13,21" node-id="224" stroke="none" target-height="254.67542" target-width="473.6817" target-x="243.85368" target-y="517.2345"></path></g><g node-id="277"><g node-id="285"><path d="M 252.19 517.23 L 251.17 517.36 L 250.11 518.03 L 248.96 519.49 L 247.68 522.13 L 246.53 525.67 L 245.47 530.50 L 244.56 536.93 L 244.05 543.34 L 243.85 550.82 L 244.03 559.47 L 244.61 568.06 L 245.69 577.41 L 247.31 587.58 L 249.40 597.63 L 252.15 608.13 L 255.60 619.10 L 258.53 627.15 L 261.92 635.29 L 265.77 643.52 L 270.10 651.86 L 274.76 659.90 L 279.96 667.88 L 285.70 675.81 L 292.02 683.69 L 298.68 691.14 L 305.97 698.42 L 313.93 705.51 L 322.58 712.43 L 332.85 719.77 L 343.28 726.58 L 353.88 732.86 L 364.66 738.63 L 375.70 743.97 L 386.80 748.81 L 397.97 753.16 L 409.21 757.02 L 420.63 760.46 L 432.01 763.42 L 443.34 765.93 L 454.63 767.98 L 466.05 769.61 L 477.30 770.81 L 488.39 771.57 L 499.32 771.91 L 510.34 771.83 L 521.06 771.35 L 531.51 770.48 L 541.69 769.21 L 551.89 767.52 L 561.69 765.46 L 571.09 763.04 L 580.11 760.28 L 589.09 757.06 L 597.55 753.52 L 605.51 749.67 L 613.01 745.52 L 622.72 739.36 L 632.13 732.68 L 641.24 725.47 L 650.02 717.84 L 658.34 709.97 L 666.22 701.87 L 673.79 693.47 L 680.76 685.15 L 687.14 676.91 L 693.24 668.43 L 698.57 660.39 L 703.20 652.77 L 707.52 644.92 L 710.96 637.90 L 713.60 631.62 L 715.81 625.13 L 717.06 619.88 L 717.54 615.65 L 717.46 612.99 L 717.04 610.90 L 716.35 609.27 L 715.40 608.00 L 714.20 607.04 L 712.19 606.32 L 708.62 605.83 L 702.80 605.77 L 693.54 606.20 L 680.19 607.12 L 665.47 608.10 L 646.89 609.03 L 634.03 609.45 L 619.59 609.60 L 603.44 609.46 L 587.32 608.95 L 569.66 607.93 L 550.35 606.34 L 536.09 604.84 L 520.99 602.90 L 505.03 600.50 L 488.16 597.62 L 471.72 594.43 L 454.46 590.66 L 436.36 586.27 L 417.39 581.23 L 398.90 575.86 L 379.62 569.74 L 359.51 562.84 L 338.55 555.12 L 318.16 547.06 L 296.99 538.09 L 275.01 528.16 L 252.19 517.23 Z" fill="#000000" fill-rule="evenodd" filter="url(#filter-11)" group-id="1,2,7,14,22" node-id="231" stroke="none" target-height="254.67542" target-width="473.6817" target-x="243.85368" target-y="517.2345"></path></g></g><path d="M 254.58 517.68 L 254.97 517.88 L 255.48 518.28 L 286.81 532.89 L 315.77 545.91 L 334.93 554.19 L 353.34 561.81 L 371.02 568.79 L 388.85 575.43 L 406.28 581.48 L 423.30 586.95 L 440.47 591.98 L 457.59 596.46 L 474.67 600.42 L 491.86 603.86 L 509.36 606.80 L 527.18 609.23 L 545.07 611.11 L 563.63 612.51 L 582.90 613.41 L 602.17 613.77 L 622.48 613.64 L 643.89 612.99 L 665.24 611.86 L 687.99 610.21 L 712.20 608.00 L 714.19 607.96 L 715.82 608.24 L 717.15 608.80 L 718.19 609.62 L 718.96 610.66 L 719.47 611.95 L 719.56 612.66 L 719.45 613.32 L 718.83 614.54 L 717.96 615.55 L 716.96 616.42 L 714.92 617.61 L 701.31 622.94 L 687.50 627.72 L 673.47 631.95 L 659.22 635.63 L 644.85 638.76 L 630.33 641.35 L 615.65 643.41 L 600.80 644.93 L 585.93 645.92 L 570.98 646.39 L 555.93 646.33 L 540.79 645.76 L 525.69 644.67 L 510.59 643.08 L 495.46 640.97 L 480.30 638.36 L 465.17 635.24 L 450.10 631.61 L 435.08 627.49 L 420.11 622.86 L 405.31 617.76 L 390.65 612.17 L 376.12 606.10 L 361.71 599.54 L 347.54 592.52 L 333.58 585.03 L 319.83 577.07 L 306.28 568.63 L 293.02 559.76 L 280.05 550.44 L 267.36 540.66 L 254.94 530.41 L 254.17 529.63 L 253.49 528.68 L 252.95 527.62 L 252.60 526.49 L 252.54 524.99 L 252.74 524.27 L 253.14 523.58 L 253.92 522.34 L 254.43 521.03 L 254.93 518.38 L 254.68 518.05 L 254.58 517.68 Z" fill="#ffffff" fill-rule="nonzero" group-id="1,2,7" id="路径-11" node-id="75" stroke="#b51006" stroke-linecap="butt" stroke-width="4.7999997" target-height="128.70813" target-width="467.01962" target-x="252.53787" target-y="517.67926"></path></g><g node-id="271"><g node-id="278"><path d="M 243.60 411.42 L 262.91 410.95 L 280.13 411.04 L 295.43 411.63 L 308.97 412.65 L 320.88 414.06 L 331.33 415.79 L 340.45 417.81 L 348.36 420.07 L 355.19 422.54 L 361.05 425.18 L 366.05 427.97 L 349.95 442.17 L 341.11 450.10 L 331.49 459.27 L 325.17 465.68 L 318.63 472.80 L 311.87 480.67 L 305.44 488.78 L 298.92 497.80 L 292.31 507.80 L 287.70 515.38 L 283.11 523.60 L 278.54 532.47 L 274.00 542.05 L 269.89 551.55 L 265.87 561.82 L 261.95 572.90 L 258.16 584.85 L 254.83 596.60 L 251.68 609.28 L 248.73 622.92 L 245.99 637.59 L 243.73 651.96 L 241.74 667.39 L 240.06 683.95 L 238.70 701.70 L 237.80 719.03 L 237.28 737.58 L 237.17 757.41 L 237.50 778.58 L 238.25 799.24 L 239.49 821.26 L 241.27 844.71 L 243.60 869.65 L 228.71 862.35 L 214.57 854.78 L 201.17 846.94 L 188.47 838.83 L 175.97 830.13 L 164.24 821.24 L 153.26 812.16 L 143.00 802.90 L 134.99 795.05 L 127.49 787.14 L 120.48 779.15 L 113.95 771.08 L 107.88 762.94 L 102.07 754.42 L 96.78 745.88 L 91.97 737.30 L 87.65 728.69 L 83.80 720.02 L 88.81 701.45 L 94.43 682.82 L 100.66 664.12 L 107.52 645.34 L 115.01 626.48 L 123.15 607.52 L 131.96 588.47 L 141.43 569.30 L 151.60 550.03 L 162.48 530.63 L 174.08 511.11 L 186.43 491.46 L 199.53 471.67 L 213.41 451.74 L 228.09 431.66 L 243.60 411.42 Z" fill="#000000" fill-rule="evenodd" filter="url(#filter-14)" group-id="1,2,8,15" node-id="240" stroke="none" target-height="458.69717" target-width="282.2494" target-x="83.79676" target-y="410.95114"></path></g><path d="M 243.60 411.42 L 262.91 410.95 L 280.13 411.04 L 295.43 411.63 L 308.97 412.65 L 320.88 414.06 L 331.33 415.79 L 340.45 417.81 L 348.36 420.07 L 355.19 422.54 L 361.05 425.18 L 366.05 427.97 L 349.95 442.17 L 341.11 450.10 L 331.49 459.27 L 325.17 465.68 L 318.63 472.80 L 311.87 480.67 L 305.44 488.78 L 298.92 497.80 L 292.31 507.80 L 287.70 515.38 L 283.11 523.60 L 278.54 532.47 L 274.00 542.05 L 269.89 551.55 L 265.87 561.82 L 261.95 572.90 L 258.16 584.85 L 254.83 596.60 L 251.68 609.28 L 248.73 622.92 L 245.99 637.59 L 243.73 651.96 L 241.74 667.39 L 240.06 683.95 L 238.70 701.70 L 237.80 719.03 L 237.28 737.58 L 237.17 757.41 L 237.50 778.58 L 238.25 799.24 L 239.49 821.26 L 241.27 844.71 L 243.60 869.65 L 228.71 862.35 L 214.57 854.78 L 201.17 846.94 L 188.47 838.83 L 175.97 830.13 L 164.24 821.24 L 153.26 812.16 L 143.00 802.90 L 134.99 795.05 L 127.49 787.14 L 120.48 779.15 L 113.95 771.08 L 107.88 762.94 L 102.07 754.42 L 96.78 745.88 L 91.97 737.30 L 87.65 728.69 L 83.80 720.02 L 88.81 701.45 L 94.43 682.82 L 100.66 664.12 L 107.52 645.34 L 115.01 626.48 L 123.15 607.52 L 131.96 588.47 L 141.43 569.30 L 151.60 550.03 L 162.48 530.63 L 174.08 511.11 L 186.43 491.46 L 199.53 471.67 L 213.41 451.74 L 228.09 431.66 L 243.60 411.42 Z" fill="url(#linearGradient-12)" fill-rule="evenodd" group-id="1,2,8,16" node-id="245" stroke="none" target-height="458.69717" target-width="282.2494" target-x="83.79676" target-y="410.95114"></path></g><g node-id="272"><g node-id="280"><path d="M 642.79 721.23 L 647.94 730.41 L 652.71 739.91 L 657.08 749.73 L 661.05 759.73 L 664.64 769.83 L 667.86 780.03 L 670.76 790.34 L 673.31 800.51 L 675.51 810.55 L 678.29 825.56 L 680.38 839.71 L 681.90 853.54 L 682.82 865.93 L 683.26 877.78 L 683.22 887.63 L 683.21 890.32 L 683.44 894.21 L 683.98 898.39 L 685.00 903.21 L 685.95 906.43 L 687.21 909.70 L 688.79 913.01 L 690.68 916.15 L 692.98 919.15 L 695.74 922.01 L 698.81 924.50 L 702.45 926.69 L 706.74 928.59 L 710.04 929.63 L 713.77 930.42 L 717.98 930.93 L 722.72 931.14 L 730.20 930.90 L 736.92 930.28 L 742.98 929.30 L 748.96 927.90 L 754.49 926.22 L 759.61 924.26 L 764.61 921.99 L 769.41 919.49 L 774.03 916.77 L 780.81 912.35 L 787.63 907.54 L 801.80 897.31 L 806.56 893.58 L 810.49 889.80 L 813.68 885.96 L 816.47 881.80 L 818.70 877.68 L 820.40 873.57 L 821.75 869.32 L 822.74 865.22 L 823.38 861.24 L 823.92 855.32 L 824.04 850.06 L 823.81 841.09 L 822.96 814.06 L 821.94 786.89 L 819.54 733.45 L 816.92 683.02 L 814.37 637.85 L 812.18 600.20 L 810.65 572.31 L 810.19 561.90 L 810.07 556.43 L 810.16 545.39 L 810.14 529.04 L 809.96 519.59 L 809.59 509.15 L 809.00 498.50 L 808.10 487.51 L 806.86 476.54 L 805.24 465.89 L 803.89 458.85 L 802.34 452.25 L 800.60 446.05 L 798.51 439.96 L 796.22 434.55 L 793.74 429.78 L 791.55 426.34 L 789.24 423.40 L 786.82 420.92 L 784.26 418.85 L 781.45 417.15 L 778.45 415.95 L 775.23 415.24 L 771.73 415.02 L 766.35 415.42 L 761.47 416.32 L 757.02 417.69 L 752.96 419.52 L 749.24 421.80 L 745.83 424.56 L 742.71 427.82 L 739.86 431.62 L 737.29 436.04 L 735.01 441.13 L 733.05 446.98 L 731.43 453.68 L 730.21 461.32 L 729.43 470.01 L 729.15 479.86 L 715.42 463.37 L 702.29 448.48 L 689.75 435.09 L 677.75 423.09 L 666.28 412.42 L 655.32 402.96 L 644.83 394.65 L 634.80 387.41 L 625.20 381.16 L 616.00 375.83 L 607.18 371.35 L 598.71 367.67 L 590.56 364.74 L 582.71 362.50 L 575.13 360.91 L 567.80 359.94 L 560.68 359.56 L 553.75 359.75 L 546.98 360.49 L 540.35 361.78 L 533.83 363.63 L 527.40 366.04 L 521.04 369.03 L 514.74 372.63 L 508.47 376.87 L 502.23 381.79 L 496.00 387.43 L 487.78 395.79 L 480.67 403.78 L 474.56 411.42 L 469.39 418.73 L 464.53 426.57 L 460.49 434.09 L 457.21 441.33 L 454.64 448.31 L 452.53 455.60 L 451.01 462.67 L 450.05 469.53 L 449.62 476.22 L 449.66 482.98 L 450.11 489.61 L 450.96 496.10 L 452.21 502.47 L 454.41 510.87 L 457.10 519.08 L 460.27 527.11 L 463.83 534.98 L 467.63 542.66 L 471.68 550.16 L 478.01 561.17 L 484.30 571.65 L 490.47 581.96 L 496.00 591.64 L 499.22 596.97 L 502.77 602.06 L 506.67 606.91 L 510.93 611.54 L 516.99 617.34 L 523.53 622.94 L 530.57 628.34 L 541.57 636.01 L 553.30 643.62 L 577.50 658.96 L 585.60 664.34 L 593.62 670.00 L 601.56 675.96 L 609.25 682.23 L 616.68 688.97 L 623.86 696.19 L 628.93 701.86 L 633.77 707.91 L 638.39 714.37 L 642.79 721.23 Z" fill="#000000" fill-rule="evenodd" filter="url(#filter-17)" group-id="1,2,9,17" node-id="252" stroke="none" target-height="571.57947" target-width="374.41843" target-x="449.624" target-y="359.55734"></path></g><g node-id="281"><path d="M 642.79 721.23 L 647.94 730.41 L 652.71 739.91 L 657.08 749.73 L 661.05 759.73 L 664.64 769.83 L 667.86 780.03 L 670.76 790.34 L 673.31 800.51 L 675.51 810.55 L 678.29 825.56 L 680.38 839.71 L 681.90 853.54 L 682.82 865.93 L 683.26 877.78 L 683.22 887.63 L 683.21 890.32 L 683.44 894.21 L 683.98 898.39 L 685.00 903.21 L 685.95 906.43 L 687.21 909.70 L 688.79 913.01 L 690.68 916.15 L 692.98 919.15 L 695.74 922.01 L 698.81 924.50 L 702.45 926.69 L 706.74 928.59 L 710.04 929.63 L 713.77 930.42 L 717.98 930.93 L 722.72 931.14 L 730.20 930.90 L 736.92 930.28 L 742.98 929.30 L 748.96 927.90 L 754.49 926.22 L 759.61 924.26 L 764.61 921.99 L 769.41 919.49 L 774.03 916.77 L 780.81 912.35 L 787.63 907.54 L 801.80 897.31 L 806.56 893.58 L 810.49 889.80 L 813.68 885.96 L 816.47 881.80 L 818.70 877.68 L 820.40 873.57 L 821.75 869.32 L 822.74 865.22 L 823.38 861.24 L 823.92 855.32 L 824.04 850.06 L 823.81 841.09 L 822.96 814.06 L 821.94 786.89 L 819.54 733.45 L 816.92 683.02 L 814.37 637.85 L 812.18 600.20 L 810.65 572.31 L 810.19 561.90 L 810.07 556.43 L 810.16 545.39 L 810.14 529.04 L 809.96 519.59 L 809.59 509.15 L 809.00 498.50 L 808.10 487.51 L 806.86 476.54 L 805.24 465.89 L 803.89 458.85 L 802.34 452.25 L 800.60 446.05 L 798.51 439.96 L 796.22 434.55 L 793.74 429.78 L 791.55 426.34 L 789.24 423.40 L 786.82 420.92 L 784.26 418.85 L 781.45 417.15 L 778.45 415.95 L 775.23 415.24 L 771.73 415.02 L 766.35 415.42 L 761.47 416.32 L 757.02 417.69 L 752.96 419.52 L 749.24 421.80 L 745.83 424.56 L 742.71 427.82 L 739.86 431.62 L 737.29 436.04 L 735.01 441.13 L 733.05 446.98 L 731.43 453.68 L 730.21 461.32 L 729.43 470.01 L 729.15 479.86 L 715.42 463.37 L 702.29 448.48 L 689.75 435.09 L 677.75 423.09 L 666.28 412.42 L 655.32 402.96 L 644.83 394.65 L 634.80 387.41 L 625.20 381.16 L 616.00 375.83 L 607.18 371.35 L 598.71 367.67 L 590.56 364.74 L 582.71 362.50 L 575.13 360.91 L 567.80 359.94 L 560.68 359.56 L 553.75 359.75 L 546.98 360.49 L 540.35 361.78 L 533.83 363.63 L 527.40 366.04 L 521.04 369.03 L 514.74 372.63 L 508.47 376.87 L 502.23 381.79 L 496.00 387.43 L 487.78 395.79 L 480.67 403.78 L 474.56 411.42 L 469.39 418.73 L 464.53 426.57 L 460.49 434.09 L 457.21 441.33 L 454.64 448.31 L 452.53 455.60 L 451.01 462.67 L 450.05 469.53 L 449.62 476.22 L 449.66 482.98 L 450.11 489.61 L 450.96 496.10 L 452.21 502.47 L 454.41 510.87 L 457.10 519.08 L 460.27 527.11 L 463.83 534.98 L 467.63 542.66 L 471.68 550.16 L 478.01 561.17 L 484.30 571.65 L 490.47 581.96 L 496.00 591.64 L 499.22 596.97 L 502.77 602.06 L 506.67 606.91 L 510.93 611.54 L 516.99 617.34 L 523.53 622.94 L 530.57 628.34 L 541.57 636.01 L 553.30 643.62 L 577.50 658.96 L 585.60 664.34 L 593.62 670.00 L 601.56 675.96 L 609.25 682.23 L 616.68 688.97 L 623.86 696.19 L 628.93 701.86 L 633.77 707.91 L 638.39 714.37 L 642.79 721.23 Z" fill="url(#linearGradient-15)" fill-rule="evenodd" group-id="1,2,9,18" node-id="257" stroke="none" target-height="571.57947" target-width="374.41843" target-x="449.624" target-y="359.55734"></path></g><path d="M 642.79 721.23 L 647.94 730.41 L 652.71 739.91 L 657.08 749.73 L 661.05 759.73 L 664.64 769.83 L 667.86 780.03 L 670.76 790.34 L 673.31 800.51 L 675.51 810.55 L 678.29 825.56 L 680.38 839.71 L 681.90 853.54 L 682.82 865.93 L 683.26 877.78 L 683.22 887.63 L 683.21 890.32 L 683.44 894.21 L 683.98 898.39 L 685.00 903.21 L 685.95 906.43 L 687.21 909.70 L 688.79 913.01 L 690.68 916.15 L 692.98 919.15 L 695.74 922.01 L 698.81 924.50 L 702.45 926.69 L 706.74 928.59 L 710.04 929.63 L 713.77 930.42 L 717.98 930.93 L 722.72 931.14 L 730.20 930.90 L 736.92 930.28 L 742.98 929.30 L 748.96 927.90 L 754.49 926.22 L 759.61 924.26 L 764.61 921.99 L 769.41 919.49 L 774.03 916.77 L 780.81 912.35 L 787.63 907.54 L 801.80 897.31 L 806.56 893.58 L 810.49 889.80 L 813.68 885.96 L 816.47 881.80 L 818.70 877.68 L 820.40 873.57 L 821.75 869.32 L 822.74 865.22 L 823.38 861.24 L 823.92 855.32 L 824.04 850.06 L 823.81 841.09 L 822.96 814.06 L 821.94 786.89 L 819.54 733.45 L 816.92 683.02 L 814.37 637.85 L 812.18 600.20 L 810.65 572.31 L 810.19 561.90 L 810.07 556.43 L 810.16 545.39 L 810.14 529.04 L 809.96 519.59 L 809.59 509.15 L 809.00 498.50 L 808.10 487.51 L 806.86 476.54 L 805.24 465.89 L 803.89 458.85 L 802.34 452.25 L 800.60 446.05 L 798.51 439.96 L 796.22 434.55 L 793.74 429.78 L 791.55 426.34 L 789.24 423.40 L 786.82 420.92 L 784.26 418.85 L 781.45 417.15 L 778.45 415.95 L 775.23 415.24 L 771.73 415.02 L 766.35 415.42 L 761.47 416.32 L 757.02 417.69 L 752.96 419.52 L 749.24 421.80 L 745.83 424.56 L 742.71 427.82 L 739.86 431.62 L 737.29 436.04 L 735.01 441.13 L 733.05 446.98 L 731.43 453.68 L 730.21 461.32 L 729.43 470.01 L 729.15 479.86 L 715.42 463.37 L 702.29 448.48 L 689.75 435.09 L 677.75 423.09 L 666.28 412.42 L 655.32 402.96 L 644.83 394.65 L 634.80 387.41 L 625.20 381.16 L 616.00 375.83 L 607.18 371.35 L 598.71 367.67 L 590.56 364.74 L 582.71 362.50 L 575.13 360.91 L 567.80 359.94 L 560.68 359.56 L 553.75 359.75 L 546.98 360.49 L 540.35 361.78 L 533.83 363.63 L 527.40 366.04 L 521.04 369.03 L 514.74 372.63 L 508.47 376.87 L 502.23 381.79 L 496.00 387.43 L 487.78 395.79 L 480.67 403.78 L 474.56 411.42 L 469.39 418.73 L 464.53 426.57 L 460.49 434.09 L 457.21 441.33 L 454.64 448.31 L 452.53 455.60 L 451.01 462.67 L 450.05 469.53 L 449.62 476.22 L 449.66 482.98 L 450.11 489.61 L 450.96 496.10 L 452.21 502.47 L 454.41 510.87 L 457.10 519.08 L 460.27 527.11 L 463.83 534.98 L 467.63 542.66 L 471.68 550.16 L 478.01 561.17 L 484.30 571.65 L 490.47 581.96 L 496.00 591.64 L 499.22 596.97 L 502.77 602.06 L 506.67 606.91 L 510.93 611.54 L 516.99 617.34 L 523.53 622.94 L 530.57 628.34 L 541.57 636.01 L 553.30 643.62 L 577.50 658.96 L 585.60 664.34 L 593.62 670.00 L 601.56 675.96 L 609.25 682.23 L 616.68 688.97 L 623.86 696.19 L 628.93 701.86 L 633.77 707.91 L 638.39 714.37 L 642.79 721.23 Z" fill="#000000" fill-rule="evenodd" filter="url(#filter-18)" group-id="1,2,9,19" node-id="262" stroke="none" target-height="571.57947" target-width="374.41843" target-x="449.624" target-y="359.55734"></path></g></g></g></svg>