<svg xmlns:xlink="http://www.w3.org/1999/xlink" xmlns="http://www.w3.org/2000/svg" version="1.1" viewBox="0 0 1024 1024" height="1024px" width="1024px">
    <title>让我看看</title>
    <defs>
        <radialGradient id="radialGradient-1" gradientTransform="translate(0.500000,0.196690),scale(0.912281,1.000000),rotate(90.000000),translate(-0.500000,-0.196690)" r="93.9392347%" fy="19.6689915%" fx="50%" cy="19.6689915%" cx="50%">
            <stop offset="0%" stop-color="#FFE476"></stop>
            <stop offset="41.3872668%" stop-color="#FCEC6C"></stop>
            <stop offset="100%" stop-color="#FFB02F"></stop>
        </radialGradient>
        <path id="path-2" d="M422.860526,0.378695283 C542.065472,-5.36663195 644.761001,54.6787561 694.047405,152.068162 C826.943351,211.197291 934.794668,352.582382 907.841115,509.747769 C887.627441,627.613119 823.200132,713.730518 728.885037,766.375369 C682.431467,796.437155 616.2001,817.754861 517.849854,827.528265 C238.3427,855.303857 16.9816436,754.504609 0.821620894,502.216832 C-7.14599909,377.82758 43.4225884,293.954402 126.973967,240.88301 C157.596783,85.8704329 269.83599,7.75402708 422.860526,0.378695283 Z"></path>
        <filter id="filter-3" filterUnits="objectBoundingBox" height="117.3%" width="115.8%" y="-8.7%" x="-7.9%">
            <feGaussianBlur result="shadowBlurInner1" in="SourceAlpha" stdDeviation="64"></feGaussianBlur>
            <feOffset result="shadowOffsetInner1" in="shadowBlurInner1" dy="16" dx="0"></feOffset>
            <feComposite result="shadowInnerInner1" k3="1" k2="-1" operator="arithmetic" in2="SourceAlpha" in="shadowOffsetInner1"></feComposite>
            <feColorMatrix in="shadowInnerInner1" type="matrix" values="0 0 0 0 0.968627451   0 0 0 0 0.68627451   0 0 0 0 0.270588235  0 0 0 0.501145583 0"></feColorMatrix>
        </filter>
        <path id="path-4" d="M321.742881,516.193802 C329.948255,516.193802 336.710996,522.37074 337.635237,530.328159 L337.742881,532.194097 C337.742881,549.120784 359.632949,561.578164 406.771902,566.456843 L415.621593,567.259671 L425.032219,567.891323 L435.008268,568.347645 L445.554224,568.624483 C447.359625,568.655436 449.188959,568.678736 451.04232,568.694299 L462.325768,568.694016 L473.204158,568.506172 C478.502512,568.365919 483.590094,568.156676 488.469112,567.880712 L497.949714,567.240497 C499.483685,567.119192 500.994645,566.990642 502.482676,566.854931 L511.136375,565.955404 C554.432331,560.870815 575.850927,549.066088 577.82708,533.046646 L577.957708,531.483304 C578.350268,522.655472 585.824873,515.817333 594.652705,516.209893 C603.480537,516.602453 610.318676,524.077057 609.926116,532.904889 C608.154164,572.752286 570.297471,593.504765 500.207651,599.125466 L489.975963,599.825913 C484.750898,600.125097 479.362314,600.34804 473.811615,600.496187 L462.494479,600.693934 L450.953762,600.693934 L439.827367,600.502983 L429.12352,600.118697 L418.84491,599.538585 C412.134847,599.086016 405.710068,598.501237 399.574158,597.78093 L390.587393,596.598407 C335.04902,588.46008 305.742881,567.940522 305.742881,532.194097 C305.742881,523.357541 312.906325,516.193802 321.742881,516.193802 Z"></path>
        <filter id="filter-5" filterUnits="objectBoundingBox" height="118.9%" width="105.3%" y="-9.5%" x="-2.6%">
            <feGaussianBlur result="shadowBlurInner1" in="SourceAlpha" stdDeviation="8"></feGaussianBlur>
            <feOffset result="shadowOffsetInner1" in="shadowBlurInner1" dy="0" dx="0"></feOffset>
            <feComposite result="shadowInnerInner1" k3="1" k2="-1" operator="arithmetic" in2="SourceAlpha" in="shadowOffsetInner1"></feComposite>
            <feColorMatrix in="shadowInnerInner1" type="matrix" values="0 0 0 0 0.661258421   0 0 0 0 0.0872254633   0 0 0 0 0.00982776113  0 0 0 1 0"></feColorMatrix>
        </filter>
        <filter id="filter-6" filterUnits="objectBoundingBox" height="357.1%" width="263.6%" y="-128.6%" x="-81.8%">
            <feGaussianBlur in="SourceGraphic" stdDeviation="48"></feGaussianBlur>
        </filter>
        <filter id="filter-7" filterUnits="objectBoundingBox" height="357.1%" width="263.6%" y="-128.6%" x="-81.8%">
            <feGaussianBlur in="SourceGraphic" stdDeviation="48"></feGaussianBlur>
        </filter>
        <linearGradient id="linearGradient-8" y2="100%" x2="50%" y1="0%" x1="50%">
            <stop offset="0%" stop-color="#FFFFFF"></stop>
            <stop offset="100%" stop-color="#FFEDBE"></stop>
        </linearGradient>
        <path id="path-9" d="M144,176 C223.529004,176 288,160.597207 288,88 C288,15.4027929 223.529004,0 144,0 C64.470996,0 0,15.4027929 0,88 C0,160.597207 64.470996,176 144,176 Z"></path>
        <filter id="filter-10" filterUnits="objectBoundingBox" height="209.1%" width="166.7%" y="-54.5%" x="-33.3%">
            <feOffset result="shadowOffsetOuter1" in="SourceAlpha" dy="0" dx="0"></feOffset>
            <feGaussianBlur result="shadowBlurOuter1" in="shadowOffsetOuter1" stdDeviation="32"></feGaussianBlur>
            <feColorMatrix in="shadowBlurOuter1" type="matrix" values="0 0 0 0 0.888848346   0 0 0 0 0.591702642   0 0 0 0 0.178785883  0 0 0 1 0"></feColorMatrix>
        </filter>
        <filter id="filter-11" filterUnits="objectBoundingBox" height="190.9%" width="155.6%" y="-45.5%" x="-27.8%">
            <feGaussianBlur result="shadowBlurInner1" in="SourceAlpha" stdDeviation="16"></feGaussianBlur>
            <feOffset result="shadowOffsetInner1" in="shadowBlurInner1" dy="0" dx="0"></feOffset>
            <feComposite result="shadowInnerInner1" k3="1" k2="-1" operator="arithmetic" in2="SourceAlpha" in="shadowOffsetInner1"></feComposite>
            <feColorMatrix in="shadowInnerInner1" type="matrix" values="0 0 0 0 1   0 0 0 0 0.880587925   0 0 0 0 0.537254902  0 0 0 0.500726446 0"></feColorMatrix>
        </filter>
        <ellipse ry="61.6" rx="59.2941176" cy="63.8" cx="59.2941176" id="path-12"></ellipse>
        <filter id="filter-13" filterUnits="objectBoundingBox" height="126.0%" width="127.0%" y="-13.0%" x="-13.5%">
            <feGaussianBlur result="shadowBlurInner1" in="SourceAlpha" stdDeviation="16"></feGaussianBlur>
            <feOffset result="shadowOffsetInner1" in="shadowBlurInner1" dy="0" dx="0"></feOffset>
            <feComposite result="shadowInnerInner1" k3="1" k2="-1" operator="arithmetic" in2="SourceAlpha" in="shadowOffsetInner1"></feComposite>
            <feColorMatrix in="shadowInnerInner1" type="matrix" values="0 0 0 0 0.322660142   0 0 0 0 0   0 0 0 0 0.0976114716  0 0 0 1 0"></feColorMatrix>
        </filter>
        <path id="path-14" d="M144,176 C223.529004,176 288,160.597207 288,88 C288,15.4027929 223.529004,0 144,0 C64.470996,0 0,15.4027929 0,88 C0,160.597207 64.470996,176 144,176 Z"></path>
        <filter id="filter-15" filterUnits="objectBoundingBox" height="209.1%" width="166.7%" y="-54.5%" x="-33.3%">
            <feOffset result="shadowOffsetOuter1" in="SourceAlpha" dy="0" dx="0"></feOffset>
            <feGaussianBlur result="shadowBlurOuter1" in="shadowOffsetOuter1" stdDeviation="32"></feGaussianBlur>
            <feColorMatrix in="shadowBlurOuter1" type="matrix" values="0 0 0 0 0.888848346   0 0 0 0 0.591702642   0 0 0 0 0.178785883  0 0 0 1 0"></feColorMatrix>
        </filter>
        <filter id="filter-16" filterUnits="objectBoundingBox" height="190.9%" width="155.6%" y="-45.5%" x="-27.8%">
            <feGaussianBlur result="shadowBlurInner1" in="SourceAlpha" stdDeviation="16"></feGaussianBlur>
            <feOffset result="shadowOffsetInner1" in="shadowBlurInner1" dy="0" dx="0"></feOffset>
            <feComposite result="shadowInnerInner1" k3="1" k2="-1" operator="arithmetic" in2="SourceAlpha" in="shadowOffsetInner1"></feComposite>
            <feColorMatrix in="shadowInnerInner1" type="matrix" values="0 0 0 0 1   0 0 0 0 0.880587925   0 0 0 0 0.537254902  0 0 0 0.500726446 0"></feColorMatrix>
        </filter>
        <ellipse ry="61.6" rx="59.2941176" cy="61.6" cx="59.2941176" id="path-17"></ellipse>
        <filter id="filter-18" filterUnits="objectBoundingBox" height="126.0%" width="127.0%" y="-13.0%" x="-13.5%">
            <feGaussianBlur result="shadowBlurInner1" in="SourceAlpha" stdDeviation="16"></feGaussianBlur>
            <feOffset result="shadowOffsetInner1" in="shadowBlurInner1" dy="0" dx="0"></feOffset>
            <feComposite result="shadowInnerInner1" k3="1" k2="-1" operator="arithmetic" in2="SourceAlpha" in="shadowOffsetInner1"></feComposite>
            <feColorMatrix in="shadowInnerInner1" type="matrix" values="0 0 0 0 0.322660142   0 0 0 0 0   0 0 0 0 0.0976114716  0 0 0 1 0"></feColorMatrix>
        </filter>
        <linearGradient id="linearGradient-19" y2="113.608226%" x2="50%" y1="19.6689915%" x1="50%">
            <stop offset="0%" stop-color="#FFE992"></stop>
            <stop offset="41.5154304%" stop-color="#FFF185"></stop>
            <stop offset="100%" stop-color="#FFB02F"></stop>
        </linearGradient>
        <path id="path-20" d="M257.30833,302.026102 C107.979657,307.608701 40.2306334,375.999189 54.0612593,507.197567 C67.8918852,638.395944 155.732848,683.862426 317.584149,643.597012 C397.258319,699.610705 445.506797,733.810205 462.329584,746.195511 C487.563765,764.77347 564.802664,738.077894 513.566124,675.833718 C479.408431,634.337601 436.090176,593.801287 383.61136,554.224776 C462.316399,618.963038 512.166337,659.499352 533.161172,675.833718 C564.653425,700.335268 642.76656,675.833718 589.063421,613.589542 C553.261329,572.093425 506.527538,533.10728 448.862049,496.631108 C551.638007,458.122823 609.7312,432.176677 623.141627,418.792673 C643.257268,398.716666 656.526796,350.21901 595.563195,350.21901 C554.920794,350.21901 494.116123,368.755106 413.14918,405.827299 C507.706536,363.103184 566.344617,337.772053 589.063421,329.833906 C623.141627,317.926686 638.364793,235.273161 549.769788,258.493137 C490.706451,273.973121 428.030738,297.753377 361.742647,329.833906 C404.411056,246.972376 411.700626,194.233907 383.61136,171.618499 C341.477459,137.695387 302.301761,249.033344 285.428553,275.325351 C274.179748,292.853356 264.80634,301.753606 257.30833,302.026102 Z"></path>
        <filter id="filter-21" filterUnits="objectBoundingBox" height="132.2%" width="132.1%" y="-16.1%" x="-10.6%">
            <feMorphology result="shadowSpreadOuter1" in="SourceAlpha" operator="dilate" radius="6.4"></feMorphology>
            <feOffset result="shadowOffsetOuter1" in="shadowSpreadOuter1" dy="0" dx="32"></feOffset>
            <feGaussianBlur result="shadowBlurOuter1" in="shadowOffsetOuter1" stdDeviation="24"></feGaussianBlur>
            <feComposite result="shadowBlurOuter1" operator="out" in2="SourceAlpha" in="shadowBlurOuter1"></feComposite>
            <feColorMatrix result="shadowMatrixOuter1" in="shadowBlurOuter1" type="matrix" values="0 0 0 0 0.696364251   0 0 0 0 0.548689709   0 0 0 0 0.14785881  0 0 0 0.684966401 0"></feColorMatrix>
            <feMorphology result="shadowSpreadOuter2" in="SourceAlpha" operator="dilate" radius="6.4"></feMorphology>
            <feOffset result="shadowOffsetOuter2" in="shadowSpreadOuter2" dy="0" dx="32"></feOffset>
            <feGaussianBlur result="shadowBlurOuter2" in="shadowOffsetOuter2" stdDeviation="24"></feGaussianBlur>
            <feComposite result="shadowBlurOuter2" operator="out" in2="SourceAlpha" in="shadowBlurOuter2"></feComposite>
            <feColorMatrix result="shadowMatrixOuter2" in="shadowBlurOuter2" type="matrix" values="0 0 0 0 0.696364251   0 0 0 0 0.548689709   0 0 0 0 0.14785881  0 0 0 0.684966401 0"></feColorMatrix>
            <feMerge>
                <feMergeNode in="shadowMatrixOuter1"></feMergeNode>
                <feMergeNode in="shadowMatrixOuter2"></feMergeNode>
            </feMerge>
        </filter>
        <filter id="filter-22" filterUnits="objectBoundingBox" height="129.4%" width="129.4%" y="-14.7%" x="-9.3%">
            <feGaussianBlur result="shadowBlurInner1" in="SourceAlpha" stdDeviation="32"></feGaussianBlur>
            <feOffset result="shadowOffsetInner1" in="shadowBlurInner1" dy="0" dx="0"></feOffset>
            <feComposite result="shadowInnerInner1" k3="1" k2="-1" operator="arithmetic" in2="SourceAlpha" in="shadowOffsetInner1"></feComposite>
            <feColorMatrix in="shadowInnerInner1" type="matrix" values="0 0 0 0 0.989893374   0 0 0 0 0.520045047   0 0 0 0 0.018873497  0 0 0 1 0"></feColorMatrix>
        </filter>
    </defs>
    <g fill-rule="evenodd" fill="none" stroke-width="1" stroke="none" id="上传尺寸">
        <g id="让我看看">
            <rect height="1024" width="1024" y="0" x="0" id="矩形备份-3"></rect>
            <g transform="translate(48.000000, 96.000000)" id="默认">
                <g id="形状结合">
                    <use xlink:href="#path-2" fill-rule="evenodd" fill="url(#radialGradient-1)"></use>
                    <use xlink:href="#path-2" filter="url(#filter-3)" fill-opacity="1" fill="black"></use>
                </g>
                <g fill-rule="nonzero" id="路径-126备份">
                    <use xlink:href="#path-4" fill="#ED1F2A"></use>
                    <use xlink:href="#path-4" filter="url(#filter-5)" fill-opacity="1" fill="black"></use>
                </g>
                <ellipse ry="56" rx="88" cy="464" cx="696" filter="url(#filter-6)" fill="#FF5EA4" fill-opacity="0.8" id="椭圆形"></ellipse>
                <ellipse ry="56" rx="88" cy="464" cx="216" filter="url(#filter-7)" fill="#FF5EA4" fill-opacity="0.8" id="椭圆形备份-6"></ellipse>
            </g>
            <g transform="translate(112.000000, 384.000000)" id="编组-2备份-2">
                <g id="椭圆形">
                    <use xlink:href="#path-9" filter="url(#filter-10)" fill-opacity="1" fill="black"></use>
                    <use xlink:href="#path-9" fill-rule="evenodd" fill="url(#linearGradient-8)"></use>
                    <use xlink:href="#path-9" filter="url(#filter-11)" fill-opacity="1" fill="black"></use>
                </g>
                <g transform="translate(169.411765, 33.000000)" id="编组-8">
                    <g id="椭圆形">
                        <use xlink:href="#path-12" fill-rule="evenodd" fill="#930027"></use>
                        <use xlink:href="#path-12" filter="url(#filter-13)" fill-opacity="1" fill="black"></use>
                    </g>
                    <ellipse ry="30.8" rx="29.6470588" cy="46.2" cx="59.2941176" fill="#301502" id="椭圆形"></ellipse>
                    <ellipse ry="23.1" rx="22.2352941" cy="23.1" cx="81.5294118" fill="#FFFFFF" id="椭圆形"></ellipse>
                    <ellipse ry="15.4" rx="14.8235294" cy="61.6" cx="44.4705882" fill="#FFFFFF" id="椭圆形备份-5"></ellipse>
                </g>
            </g>
            <g transform="translate(496.000000, 384.000000)" id="编组-2备份-4">
                <g id="椭圆形">
                    <use xlink:href="#path-14" filter="url(#filter-15)" fill-opacity="1" fill="black"></use>
                    <use xlink:href="#path-14" fill-rule="evenodd" fill="url(#linearGradient-8)"></use>
                    <use xlink:href="#path-14" filter="url(#filter-16)" fill-opacity="1" fill="black"></use>
                </g>
                <g transform="translate(169.411765, 35.200000)" id="编组-8">
                    <g id="椭圆形">
                        <use xlink:href="#path-17" fill-rule="evenodd" fill="#930027"></use>
                        <use xlink:href="#path-17" filter="url(#filter-18)" fill-opacity="1" fill="black"></use>
                    </g>
                    <ellipse ry="30.8" rx="29.6470588" cy="61.6" cx="59.2941176" fill="#301502" id="椭圆形"></ellipse>
                    <ellipse ry="23.1" rx="22.2352941" cy="38.5" cx="81.5294118" fill="#FFFFFF" id="椭圆形"></ellipse>
                    <ellipse ry="15.4" rx="14.8235294" cy="77" cx="44.4705882" fill="#FFFFFF" id="椭圆形备份-5"></ellipse>
                </g>
            </g>
            <g id="路径-128">
                <use xlink:href="#path-20" filter="url(#filter-21)" fill-opacity="1" fill="black"></use>
                <use xlink:href="#path-20" fill-rule="evenodd" fill="url(#linearGradient-19)"></use>
                <use xlink:href="#path-20" filter="url(#filter-22)" fill-opacity="1" fill="black"></use>
                <use xlink:href="#path-20" stroke-width="12.8" stroke="#EFAA2E"></use>
            </g>
        </g>
    </g>
</svg>