<?xml version="1.0" standalone="no"?><!DOCTYPE svg PUBLIC "-//W3C//DTD SVG 1.1//EN" "http://www.w3.org/Graphics/SVG/1.1/DTD/svg11.dtd"><svg height="1024" node-id="1" sillyvg="true" template-height="1024" template-width="1028" version="1.1" viewBox="0 0 1028 1024" width="1028" xmlns="http://www.w3.org/2000/svg" xmlns:xlink="http://www.w3.org/1999/xlink"><defs node-id="75"><radialGradient cx="0.5" cy="0.19668992" fx="0.5" fy="0.19668992" gradientTransform="matrix(0 1 -0.912281 0 0.67943655 -0.30331)" gradientUnits="objectBoundingBox" id="radialGradient-1" node-id="5" r="0.9393923" rev="4" spreadMethod="pad"><stop offset="0" stop-color="#ffe476"></stop><stop offset="0.41387266" stop-color="#fcec6c"></stop><stop offset="1" stop-color="#ffb02f"></stop></radialGradient><linearGradient gradientUnits="objectBoundingBox" id="linearGradient-6" node-id="19" spreadMethod="pad" x1="0.5" x2="0.5" y1="0.19668992" y2="1.1360823"><stop offset="0" stop-color="#ffe992"></stop><stop offset="0.4151543" stop-color="#fff185"></stop><stop offset="1" stop-color="#ffb02f"></stop></linearGradient><linearGradient gradientUnits="objectBoundingBox" id="linearGradient-13" node-id="43" spreadMethod="pad" x1="0.5" x2="0.5" y1="0" y2="1"><stop offset="0" stop-color="#f1ae5d"></stop><stop offset="1" stop-color="#f0aa5d"></stop></linearGradient><linearGradient gradientUnits="objectBoundingBox" id="linearGradient-14" node-id="46" spreadMethod="pad" x1="0.5" x2="0.5" y1="0" y2="1"><stop offset="0" stop-color="#f1ae5d"></stop><stop offset="1" stop-color="#f0aa5d"></stop></linearGradient><filter height="1.173" id="filter-3" node-id="10" width="1.158" x="-0.079" y="-0.087"><feGaussianBlur color-interpolation-filters="linearRGB" in="SourceAlpha" result="shadowBlurInner1" stdDeviation="64 64"></feGaussianBlur><feOffset color-interpolation-filters="linearRGB" dx="0" dy="16" in="shadowBlurInner1" result="shadowOffsetInner1"></feOffset><feComposite color-interpolation-filters="linearRGB" in="shadowOffsetInner1" in2="SourceAlpha" k1="0" k2="-1" k3="1" k4="0" operator="arithmetic" result="shadowInnerInner1"></feComposite><feColorMatrix color-interpolation-filters="linearRGB" in="shadowInnerInner1" result="result4" type="matrix" values="0 0 0 0 0.968627451 0 0 0 0 0.68627451 0 0 0 0 0.270588235 0 0 0 0.501145583 0"></feColorMatrix></filter><filter height="2.8" id="filter-4" node-id="15" width="2.636" x="-0.818" y="-0.9"><feGaussianBlur color-interpolation-filters="linearRGB" in="SourceGraphic" result="result1" stdDeviation="48 48"></feGaussianBlur></filter><filter height="2.8" id="filter-5" node-id="17" width="2.636" x="-0.818" y="-0.9"><feGaussianBlur color-interpolation-filters="linearRGB" in="SourceGraphic" result="result1" stdDeviation="48 48"></feGaussianBlur></filter><filter height="1.455" id="filter-8" node-id="24" width="1.897" x="-0.538" y="-0.182"><feOffset color-interpolation-filters="linearRGB" dx="-16" dy="16" in="SourceAlpha" result="shadowOffsetOuter1"></feOffset><feGaussianBlur color-interpolation-filters="linearRGB" in="shadowOffsetOuter1" result="shadowBlurOuter1" stdDeviation="24 24"></feGaussianBlur><feColorMatrix color-interpolation-filters="linearRGB" in="shadowBlurOuter1" result="result3" type="matrix" values="0 0 0 0 0.620342752 0 0 0 0 0.46654971 0 0 0 0 0.0491114529 0 0 0 0.694875437 0"></feColorMatrix></filter><filter height="1.774" id="filter-9" node-id="28" width="2.525" x="-0.852" y="-0.342"><feGaussianBlur color-interpolation-filters="linearRGB" in="SourceAlpha" result="shadowBlurInner1" stdDeviation="56 56"></feGaussianBlur><feOffset color-interpolation-filters="linearRGB" dx="64" dy="0" in="shadowBlurInner1" result="shadowOffsetInner1"></feOffset><feComposite color-interpolation-filters="linearRGB" in="shadowOffsetInner1" in2="SourceAlpha" k1="0" k2="-1" k3="1" k4="0" operator="arithmetic" result="shadowInnerInner1"></feComposite><feColorMatrix color-interpolation-filters="linearRGB" in="shadowInnerInner1" result="result4" type="matrix" values="0 0 0 0 0.968547434 0 0 0 0 0.738693956 0 0 0 0 0.217419105 0 0 0 0.5084459 0"></feColorMatrix></filter><filter height="1.455" id="filter-11" node-id="34" width="1.897" x="-0.538" y="-0.182"><feOffset color-interpolation-filters="linearRGB" dx="-16" dy="16" in="SourceAlpha" result="shadowOffsetOuter1"></feOffset><feGaussianBlur color-interpolation-filters="linearRGB" in="shadowOffsetOuter1" result="shadowBlurOuter1" stdDeviation="24 24"></feGaussianBlur><feColorMatrix color-interpolation-filters="linearRGB" in="shadowBlurOuter1" result="result3" type="matrix" values="0 0 0 0 0.620342752 0 0 0 0 0.46654971 0 0 0 0 0.0491114529 0 0 0 0.694875437 0"></feColorMatrix></filter><filter height="1.683" id="filter-12" node-id="38" width="2.346" x="-0.763" y="-0.296"><feGaussianBlur color-interpolation-filters="linearRGB" in="SourceAlpha" result="shadowBlurInner1" stdDeviation="56 56"></feGaussianBlur><feOffset color-interpolation-filters="linearRGB" dx="32" dy="0" in="shadowBlurInner1" result="shadowOffsetInner1"></feOffset><feComposite color-interpolation-filters="linearRGB" in="shadowOffsetInner1" in2="SourceAlpha" k1="0" k2="-1" k3="1" k4="0" operator="arithmetic" result="shadowInnerInner1"></feComposite><feColorMatrix color-interpolation-filters="linearRGB" in="shadowInnerInner1" result="result4" type="matrix" values="0 0 0 0 0.903337119 0 0 0 0 0.682875899 0 0 0 0 0.182901346 0 0 0 0.5084459 0"></feColorMatrix></filter></defs><g node-id="225"><path d="M 4.00 0.00 L 1028.00 0.00 L 1028.00 1024.00 L 4.00 1024.00 Z" fill="none" group-id="1" id="矩形备份-7" node-id="51" stroke="none" target-height="1024" target-width="1024" target-x="4" target-y="0"></path><g node-id="226"><g node-id="227"><g node-id="232"><path d="M 484.33 96.38 L 498.74 96.01 L 512.85 96.26 L 526.68 97.12 L 540.25 98.56 L 553.58 100.60 L 566.92 103.25 L 579.92 106.45 L 592.61 110.18 L 604.99 114.44 L 617.09 119.24 L 629.02 124.62 L 640.57 130.48 L 651.76 136.81 L 662.59 143.63 L 673.10 150.95 L 683.27 158.75 L 693.01 166.99 L 702.35 175.66 L 711.29 184.77 L 719.83 194.34 L 727.90 204.28 L 735.49 214.61 L 742.63 225.35 L 749.30 236.49 L 755.52 248.07 L 766.83 253.33 L 777.99 258.98 L 789.01 265.01 L 799.88 271.43 L 810.62 278.25 L 823.69 287.24 L 836.40 296.74 L 848.74 306.77 L 860.73 317.34 L 870.01 326.15 L 878.97 335.23 L 887.60 344.59 L 895.93 354.24 L 903.94 364.18 L 911.61 374.40 L 918.88 384.85 L 925.75 395.53 L 932.23 406.44 L 938.32 417.61 L 943.99 428.99 L 949.18 440.56 L 953.91 452.32 L 958.16 464.28 L 961.96 476.45 L 965.23 488.74 L 967.97 501.18 L 970.16 513.79 L 971.82 526.58 L 972.93 539.55 L 973.45 552.48 L 973.35 565.54 L 972.64 578.77 L 971.30 592.16 L 969.31 605.75 L 966.49 620.58 L 963.24 634.95 L 959.57 648.88 L 955.48 662.38 L 950.98 675.47 L 946.08 688.17 L 940.63 700.86 L 934.79 713.16 L 928.57 725.06 L 921.97 736.57 L 914.98 747.73 L 907.62 758.52 L 899.80 769.08 L 891.62 779.28 L 883.08 789.13 L 874.18 798.64 L 864.91 807.81 L 855.26 816.64 L 845.32 825.09 L 835.04 833.20 L 824.42 840.98 L 813.43 848.44 L 802.08 855.57 L 790.35 862.38 L 781.63 867.78 L 772.29 873.07 L 762.29 878.22 L 751.61 883.24 L 740.96 887.78 L 729.55 892.19 L 717.34 896.45 L 704.30 900.56 L 691.42 904.20 L 677.65 907.67 L 662.94 910.97 L 647.25 914.08 L 631.85 916.75 L 615.42 919.23 L 597.93 921.49 L 579.32 923.53 L 558.17 925.39 L 537.42 926.75 L 517.07 927.61 L 497.11 927.98 L 477.52 927.87 L 457.66 927.26 L 438.28 926.15 L 419.37 924.54 L 400.91 922.45 L 382.89 919.89 L 364.69 916.75 L 347.04 913.11 L 329.91 908.98 L 313.29 904.39 L 297.16 899.32 L 283.66 894.59 L 270.57 889.51 L 257.88 884.11 L 245.57 878.37 L 233.63 872.30 L 222.05 865.90 L 210.58 859.00 L 199.53 851.76 L 188.89 844.18 L 178.64 836.25 L 168.77 827.97 L 159.29 819.34 L 150.14 810.30 L 141.42 800.89 L 133.11 791.11 L 125.21 780.93 L 117.70 770.36 L 110.59 759.39 L 104.03 748.22 L 97.90 736.64 L 92.20 724.62 L 86.92 712.15 L 82.08 699.21 L 77.68 685.77 L 73.93 672.48 L 70.63 658.70 L 67.81 644.41 L 65.46 629.58 L 63.62 614.19 L 62.29 598.22 L 61.61 583.09 L 61.50 568.57 L 61.93 554.63 L 62.88 541.24 L 64.33 528.37 L 66.37 515.28 L 68.89 502.70 L 71.87 490.60 L 75.31 478.97 L 79.19 467.78 L 83.65 456.62 L 88.53 445.89 L 93.82 435.54 L 99.52 425.58 L 105.65 415.98 L 112.24 406.63 L 119.21 397.62 L 126.56 388.93 L 134.32 380.56 L 142.47 372.50 L 150.93 364.81 L 159.75 357.41 L 168.93 350.29 L 178.49 343.45 L 188.44 336.88 L 191.37 323.41 L 194.66 310.46 L 198.31 298.03 L 202.30 286.10 L 206.63 274.63 L 211.29 263.62 L 216.28 253.05 L 221.85 242.41 L 227.73 232.20 L 233.91 222.43 L 240.41 213.08 L 247.21 204.13 L 254.32 195.57 L 261.75 187.38 L 270.93 178.18 L 280.49 169.49 L 290.45 161.29 L 300.83 153.58 L 311.64 146.34 L 322.89 139.58 L 334.34 133.40 L 346.18 127.67 L 358.43 122.40 L 371.09 117.59 L 384.18 113.23 L 397.74 109.34 L 411.17 106.05 L 424.98 103.20 L 439.19 100.79 L 453.81 98.85 L 468.85 97.37 L 484.33 96.38 Z" fill="url(#radialGradient-1)" fill-rule="evenodd" group-id="1,2,3,8" node-id="167" stroke="none" target-height="831.9669" target-width="911.9464" target-x="61.50026" target-y="96.01346"></path></g><path d="M 484.33 96.38 L 498.74 96.01 L 512.85 96.26 L 526.68 97.12 L 540.25 98.56 L 553.58 100.60 L 566.92 103.25 L 579.92 106.45 L 592.61 110.18 L 604.99 114.44 L 617.09 119.24 L 629.02 124.62 L 640.57 130.48 L 651.76 136.81 L 662.59 143.63 L 673.10 150.95 L 683.27 158.75 L 693.01 166.99 L 702.35 175.66 L 711.29 184.77 L 719.83 194.34 L 727.90 204.28 L 735.49 214.61 L 742.63 225.35 L 749.30 236.49 L 755.52 248.07 L 766.83 253.33 L 777.99 258.98 L 789.01 265.01 L 799.88 271.43 L 810.62 278.25 L 823.69 287.24 L 836.40 296.74 L 848.74 306.77 L 860.73 317.34 L 870.01 326.15 L 878.97 335.23 L 887.60 344.59 L 895.93 354.24 L 903.94 364.18 L 911.61 374.40 L 918.88 384.85 L 925.75 395.53 L 932.23 406.44 L 938.32 417.61 L 943.99 428.99 L 949.18 440.56 L 953.91 452.32 L 958.16 464.28 L 961.96 476.45 L 965.23 488.74 L 967.97 501.18 L 970.16 513.79 L 971.82 526.58 L 972.93 539.55 L 973.45 552.48 L 973.35 565.54 L 972.64 578.77 L 971.30 592.16 L 969.31 605.75 L 966.49 620.58 L 963.24 634.95 L 959.57 648.88 L 955.48 662.38 L 950.98 675.47 L 946.08 688.17 L 940.63 700.86 L 934.79 713.16 L 928.57 725.06 L 921.97 736.57 L 914.98 747.73 L 907.62 758.52 L 899.80 769.08 L 891.62 779.28 L 883.08 789.13 L 874.18 798.64 L 864.91 807.81 L 855.26 816.64 L 845.32 825.09 L 835.04 833.20 L 824.42 840.98 L 813.43 848.44 L 802.08 855.57 L 790.35 862.38 L 781.63 867.78 L 772.29 873.07 L 762.29 878.22 L 751.61 883.24 L 740.96 887.78 L 729.55 892.19 L 717.34 896.45 L 704.30 900.56 L 691.42 904.20 L 677.65 907.67 L 662.94 910.97 L 647.25 914.08 L 631.85 916.75 L 615.42 919.23 L 597.93 921.49 L 579.32 923.53 L 558.17 925.39 L 537.42 926.75 L 517.07 927.61 L 497.11 927.98 L 477.52 927.87 L 457.66 927.26 L 438.28 926.15 L 419.37 924.54 L 400.91 922.45 L 382.89 919.89 L 364.69 916.75 L 347.04 913.11 L 329.91 908.98 L 313.29 904.39 L 297.16 899.32 L 283.66 894.59 L 270.57 889.51 L 257.88 884.11 L 245.57 878.37 L 233.63 872.30 L 222.05 865.90 L 210.58 859.00 L 199.53 851.76 L 188.89 844.18 L 178.64 836.25 L 168.77 827.97 L 159.29 819.34 L 150.14 810.30 L 141.42 800.89 L 133.11 791.11 L 125.21 780.93 L 117.70 770.36 L 110.59 759.39 L 104.03 748.22 L 97.90 736.64 L 92.20 724.62 L 86.92 712.15 L 82.08 699.21 L 77.68 685.77 L 73.93 672.48 L 70.63 658.70 L 67.81 644.41 L 65.46 629.58 L 63.62 614.19 L 62.29 598.22 L 61.61 583.09 L 61.50 568.57 L 61.93 554.63 L 62.88 541.24 L 64.33 528.37 L 66.37 515.28 L 68.89 502.70 L 71.87 490.60 L 75.31 478.97 L 79.19 467.78 L 83.65 456.62 L 88.53 445.89 L 93.82 435.54 L 99.52 425.58 L 105.65 415.98 L 112.24 406.63 L 119.21 397.62 L 126.56 388.93 L 134.32 380.56 L 142.47 372.50 L 150.93 364.81 L 159.75 357.41 L 168.93 350.29 L 178.49 343.45 L 188.44 336.88 L 191.37 323.41 L 194.66 310.46 L 198.31 298.03 L 202.30 286.10 L 206.63 274.63 L 211.29 263.62 L 216.28 253.05 L 221.85 242.41 L 227.73 232.20 L 233.91 222.43 L 240.41 213.08 L 247.21 204.13 L 254.32 195.57 L 261.75 187.38 L 270.93 178.18 L 280.49 169.49 L 290.45 161.29 L 300.83 153.58 L 311.64 146.34 L 322.89 139.58 L 334.34 133.40 L 346.18 127.67 L 358.43 122.40 L 371.09 117.59 L 384.18 113.23 L 397.74 109.34 L 411.17 106.05 L 424.98 103.20 L 439.19 100.79 L 453.81 98.85 L 468.85 97.37 L 484.33 96.38 Z" fill="#000000" fill-rule="evenodd" filter="url(#filter-3)" group-id="1,2,3,9" node-id="172" stroke="none" target-height="831.9669" target-width="911.9464" target-x="61.50026" target-y="96.01346"></path></g><g node-id="228"><path d="M 836.00 512.00 L 835.69 518.63 L 834.84 525.04 L 833.44 531.25 L 831.51 537.29 L 829.07 543.15 L 826.18 548.76 L 822.84 554.12 L 819.02 559.25 L 814.82 564.06 L 810.26 568.54 L 805.31 572.71 L 799.97 576.56 L 794.38 580.00 L 788.50 583.04 L 782.32 585.68 L 775.81 587.92 L 769.20 589.67 L 762.38 590.94 L 755.32 591.72 L 748.00 592.00 L 740.68 591.72 L 733.62 590.94 L 726.80 589.67 L 720.19 587.92 L 713.68 585.68 L 707.50 583.04 L 701.62 580.00 L 696.03 576.56 L 690.69 572.71 L 685.74 568.54 L 681.18 564.06 L 676.98 559.25 L 673.16 554.12 L 669.82 548.76 L 666.93 543.15 L 664.49 537.29 L 662.56 531.25 L 661.16 525.04 L 660.31 518.63 L 660.00 512.00 L 660.31 505.37 L 661.16 498.96 L 662.56 492.75 L 664.49 486.71 L 666.93 480.85 L 669.82 475.24 L 673.16 469.88 L 676.98 464.75 L 681.18 459.94 L 685.74 455.46 L 690.69 451.29 L 696.03 447.44 L 701.62 444.00 L 707.50 440.96 L 713.68 438.32 L 720.19 436.08 L 726.80 434.33 L 733.62 433.06 L 740.68 432.28 L 748.00 432.00 L 755.32 432.28 L 762.38 433.06 L 769.20 434.33 L 775.81 436.08 L 782.32 438.32 L 788.50 440.96 L 794.38 444.00 L 799.97 447.44 L 805.31 451.29 L 810.26 455.46 L 814.82 459.94 L 819.02 464.75 L 822.84 469.88 L 826.18 475.24 L 829.07 480.85 L 831.51 486.71 L 833.44 492.75 L 834.84 498.96 L 835.69 505.37 L 836.00 512.00 Z" fill="#ff5ea4" fill-opacity="0.8" fill-rule="evenodd" filter="url(#filter-4)" group-id="1,2,4" id="椭圆形" node-id="56" stroke="none" target-height="160" target-width="176" target-x="660" target-y="432"></path></g><g node-id="229"><path d="M 356.00 512.00 L 355.69 518.63 L 354.84 525.04 L 353.44 531.25 L 351.51 537.29 L 349.07 543.15 L 346.18 548.76 L 342.84 554.12 L 339.02 559.25 L 334.82 564.06 L 330.26 568.54 L 325.31 572.71 L 319.97 576.56 L 314.38 580.00 L 308.50 583.04 L 302.32 585.68 L 295.81 587.92 L 289.20 589.67 L 282.38 590.94 L 275.32 591.72 L 268.00 592.00 L 260.68 591.72 L 253.62 590.94 L 246.80 589.67 L 240.19 587.92 L 233.68 585.68 L 227.50 583.04 L 221.62 580.00 L 216.03 576.56 L 210.69 572.71 L 205.74 568.54 L 201.18 564.06 L 196.98 559.25 L 193.16 554.12 L 189.82 548.76 L 186.93 543.15 L 184.49 537.29 L 182.56 531.25 L 181.16 525.04 L 180.31 518.63 L 180.00 512.00 L 180.31 505.37 L 181.16 498.96 L 182.56 492.75 L 184.49 486.71 L 186.93 480.85 L 189.82 475.24 L 193.16 469.88 L 196.98 464.75 L 201.18 459.94 L 205.74 455.46 L 210.69 451.29 L 216.03 447.44 L 221.62 444.00 L 227.50 440.96 L 233.68 438.32 L 240.19 436.08 L 246.80 434.33 L 253.62 433.06 L 260.68 432.28 L 268.00 432.00 L 275.32 432.28 L 282.38 433.06 L 289.20 434.33 L 295.81 436.08 L 302.32 438.32 L 308.50 440.96 L 314.38 444.00 L 319.97 447.44 L 325.31 451.29 L 330.26 455.46 L 334.82 459.94 L 339.02 464.75 L 342.84 469.88 L 346.18 475.24 L 349.07 480.85 L 351.51 486.71 L 353.44 492.75 L 354.84 498.96 L 355.69 505.37 L 356.00 512.00 Z" fill="#ff5ea4" fill-opacity="0.8" fill-rule="evenodd" filter="url(#filter-5)" group-id="1,2,5" id="椭圆形备份-6" node-id="57" stroke="none" target-height="160" target-width="176" target-x="180" target-y="432"></path></g><path d="M 379.16 228.88 L 387.27 229.21 L 394.85 230.12 L 401.94 231.58 L 408.59 233.59 L 414.83 236.11 L 420.70 239.16 L 426.23 242.74 L 431.38 246.80 L 436.18 251.39 L 440.65 256.52 L 444.80 262.23 L 448.62 268.56 L 452.10 275.57 L 455.25 283.31 L 455.88 285.75 L 456.08 288.13 L 455.85 290.48 L 455.22 292.76 L 454.24 294.86 L 452.89 296.80 L 451.23 298.48 L 449.28 299.86 L 447.00 300.93 L 444.56 301.57 L 442.19 301.76 L 439.84 301.53 L 437.55 300.91 L 435.46 299.93 L 433.51 298.58 L 431.83 296.92 L 430.46 294.97 L 429.38 292.69 L 426.83 286.40 L 424.02 280.88 L 420.96 276.07 L 417.67 271.89 L 414.14 268.29 L 410.37 265.22 L 406.25 262.60 L 401.75 260.42 L 396.84 258.70 L 391.48 257.43 L 385.60 256.65 L 379.16 256.39 L 372.71 256.65 L 366.84 257.43 L 361.47 258.70 L 356.56 260.42 L 352.07 262.60 L 347.94 265.22 L 344.17 268.29 L 340.64 271.89 L 337.35 276.07 L 334.29 280.88 L 331.48 286.40 L 328.93 292.69 L 327.86 294.97 L 326.48 296.92 L 324.80 298.58 L 322.86 299.93 L 320.76 300.91 L 318.48 301.53 L 316.13 301.76 L 313.75 301.57 L 311.31 300.93 L 309.03 299.86 L 307.08 298.48 L 305.42 296.80 L 304.07 294.86 L 303.09 292.76 L 302.47 290.48 L 302.24 288.13 L 302.43 285.75 L 303.07 283.31 L 306.21 275.57 L 309.70 268.56 L 313.52 262.23 L 317.66 256.52 L 322.13 251.39 L 326.94 246.80 L 332.08 242.74 L 337.61 239.16 L 343.48 236.11 L 349.72 233.59 L 356.37 231.58 L 363.46 230.12 L 371.04 229.21 L 379.16 228.88 Z" fill="#a05400" fill-rule="nonzero" group-id="1,2" id="路径-71" node-id="58" stroke="none" target-height="72.88182" target-width="153.83994" target-x="302.2365" target-y="228.88148"></path><path d="M 635.16 228.88 L 643.27 229.21 L 650.85 230.12 L 657.94 231.58 L 664.59 233.59 L 670.83 236.11 L 676.70 239.16 L 682.23 242.74 L 687.38 246.80 L 692.18 251.39 L 696.65 256.52 L 700.79 262.23 L 704.62 268.56 L 708.10 275.57 L 711.25 283.31 L 711.88 285.75 L 712.08 288.13 L 711.85 290.48 L 711.22 292.76 L 710.24 294.86 L 708.89 296.80 L 707.23 298.48 L 705.28 299.86 L 703.00 300.93 L 700.56 301.57 L 698.19 301.76 L 695.84 301.53 L 693.55 300.91 L 691.46 299.93 L 689.51 298.58 L 687.83 296.92 L 686.46 294.97 L 685.38 292.69 L 682.83 286.40 L 680.02 280.88 L 676.96 276.07 L 673.67 271.89 L 670.14 268.29 L 666.37 265.22 L 662.25 262.60 L 657.75 260.42 L 652.84 258.70 L 647.48 257.43 L 641.60 256.65 L 635.16 256.39 L 628.71 256.65 L 622.84 257.43 L 617.47 258.70 L 612.56 260.42 L 608.07 262.60 L 603.94 265.22 L 600.17 268.29 L 596.64 271.89 L 593.35 276.07 L 590.29 280.88 L 587.48 286.40 L 584.93 292.69 L 583.86 294.97 L 582.48 296.92 L 580.80 298.58 L 578.86 299.93 L 576.76 300.91 L 574.48 301.53 L 572.13 301.76 L 569.75 301.57 L 567.31 300.93 L 565.03 299.86 L 563.08 298.48 L 561.42 296.80 L 560.07 294.86 L 559.09 292.76 L 558.47 290.48 L 558.24 288.13 L 558.43 285.75 L 559.07 283.31 L 562.21 275.57 L 565.70 268.56 L 569.52 262.23 L 573.66 256.52 L 578.13 251.39 L 582.94 246.80 L 588.08 242.74 L 593.61 239.16 L 599.48 236.11 L 605.72 233.59 L 612.37 231.58 L 619.46 230.12 L 627.04 229.21 L 635.16 228.88 Z" fill="#a05400" fill-rule="nonzero" group-id="1,2" id="路径-71备份" node-id="59" stroke="none" target-height="72.88182" target-width="153.83984" target-x="558.2365" target-y="228.88148"></path><path d="M 162.16 499.54 L 170.47 488.22 L 179.07 477.53 L 187.99 467.45 L 197.21 457.96 L 206.75 449.04 L 216.60 440.68 L 226.79 432.86 L 237.31 425.57 L 248.19 418.80 L 259.43 412.54 L 271.04 406.80 L 283.06 401.56 L 294.90 397.04 L 307.11 392.98 L 319.72 389.40 L 332.73 386.30 L 346.16 383.68 L 360.04 381.56 L 374.39 379.95 L 389.22 378.86 L 404.56 378.32 L 420.44 378.33 L 436.86 378.91 L 453.87 380.10 L 456.85 380.57 L 459.61 381.38 L 462.17 382.52 L 464.55 384.00 L 467.41 386.41 L 469.77 389.22 L 471.66 392.44 L 472.70 395.05 L 473.39 397.77 L 473.72 400.62 L 473.68 403.64 L 473.20 406.62 L 472.39 409.38 L 471.25 411.94 L 469.77 414.33 L 467.36 417.18 L 464.55 419.54 L 461.33 421.43 L 458.72 422.48 L 456.01 423.16 L 453.15 423.49 L 450.13 423.45 L 433.64 422.31 L 417.81 421.79 L 402.63 421.86 L 388.06 422.49 L 374.08 423.67 L 360.65 425.38 L 347.76 427.59 L 335.37 430.29 L 323.46 433.47 L 312.01 437.12 L 301.00 441.24 L 290.69 445.68 L 280.72 450.55 L 271.10 455.86 L 261.79 461.61 L 252.80 467.80 L 244.10 474.44 L 235.70 481.55 L 227.58 489.12 L 219.74 497.18 L 212.17 505.75 L 204.87 514.83 L 197.84 524.46 L 195.93 526.80 L 193.85 528.78 L 191.59 530.43 L 189.11 531.76 L 185.59 533.02 L 181.99 533.66 L 178.25 533.69 L 175.47 533.29 L 172.77 532.53 L 170.14 531.38 L 167.54 529.84 L 165.20 527.93 L 163.22 525.85 L 161.57 523.59 L 160.24 521.11 L 158.98 517.59 L 158.34 513.99 L 158.31 510.25 L 158.71 507.47 L 159.47 504.77 L 160.62 502.14 L 162.16 499.54 Z" fill="#763109" fill-rule="nonzero" group-id="1,2" id="路径-72" node-id="60" stroke="none" target-height="155.37204" target-width="315.40652" target-x="158.31097" target-y="378.317"></path><path d="M 588.14 385.22 L 601.94 382.60 L 615.52 380.66 L 628.91 379.36 L 642.13 378.71 L 655.19 378.70 L 668.10 379.30 L 680.88 380.53 L 693.55 382.37 L 706.12 384.84 L 718.61 387.93 L 731.02 391.65 L 743.38 396.01 L 755.13 400.78 L 766.83 406.15 L 778.49 412.12 L 790.12 418.72 L 801.73 425.97 L 813.33 433.89 L 824.92 442.50 L 836.50 451.82 L 848.10 461.88 L 859.70 472.71 L 871.32 484.34 L 882.94 496.81 L 884.80 499.19 L 886.26 501.66 L 887.36 504.24 L 888.10 506.95 L 888.54 510.66 L 888.35 514.32 L 887.53 517.97 L 886.52 520.59 L 885.17 523.04 L 883.46 525.35 L 881.37 527.54 L 878.99 529.39 L 876.52 530.85 L 873.94 531.95 L 871.23 532.69 L 867.52 533.13 L 863.86 532.94 L 860.21 532.12 L 857.59 531.11 L 855.14 529.76 L 852.83 528.05 L 850.65 525.96 L 839.36 513.88 L 828.14 502.71 L 816.99 492.41 L 805.90 482.94 L 794.87 474.26 L 783.89 466.35 L 772.95 459.17 L 762.05 452.70 L 751.17 446.91 L 740.31 441.77 L 729.44 437.27 L 718.87 433.48 L 708.26 430.25 L 697.60 427.57 L 686.88 425.42 L 676.08 423.82 L 665.19 422.75 L 654.20 422.21 L 643.09 422.22 L 631.86 422.76 L 620.48 423.87 L 608.95 425.53 L 597.24 427.77 L 594.25 428.19 L 591.38 428.22 L 588.59 427.88 L 585.88 427.16 L 582.44 425.69 L 579.37 423.70 L 576.62 421.16 L 574.86 418.98 L 573.41 416.58 L 572.26 413.95 L 571.42 411.05 L 571.00 408.06 L 570.97 405.18 L 571.31 402.40 L 572.02 399.69 L 573.50 396.25 L 575.49 393.18 L 578.02 390.42 L 580.21 388.66 L 582.61 387.21 L 585.24 386.07 L 588.14 385.22 Z" fill="#763109" fill-rule="nonzero" group-id="1,2,6" id="路径-72备份" node-id="61" stroke="none" target-height="154.4332" target-width="317.56958" target-x="570.9686" target-y="378.69583"></path><path d="M 524.00 560.00 L 524.00 560.00 L 527.30 560.23 L 530.40 560.86 L 533.34 561.89 L 536.13 563.29 L 538.66 565.00 L 540.97 567.03 L 543.00 569.34 L 544.71 571.87 L 546.11 574.66 L 547.14 577.60 L 547.77 580.70 L 548.00 584.00 L 548.00 696.00 L 547.77 699.30 L 547.14 702.40 L 546.11 705.34 L 544.71 708.13 L 543.00 710.66 L 540.97 712.97 L 538.66 715.00 L 536.13 716.71 L 533.34 718.11 L 530.40 719.14 L 527.30 719.77 L 524.00 720.00 L 524.00 720.00 L 520.70 719.77 L 517.60 719.14 L 514.66 718.11 L 511.87 716.71 L 509.34 715.00 L 507.03 712.97 L 505.00 710.66 L 503.29 708.13 L 501.89 705.34 L 500.86 702.40 L 500.23 699.30 L 500.00 696.00 L 500.00 584.00 L 500.23 580.70 L 500.86 577.60 L 501.89 574.66 L 503.29 571.87 L 505.00 569.34 L 507.03 567.03 L 509.34 565.00 L 511.87 563.29 L 514.66 561.89 L 517.60 560.86 L 520.70 560.23 L 524.00 560.00 Z" fill="#9f4a05" fill-rule="evenodd" group-id="1,2" id="矩形" node-id="62" stroke="none" target-height="160" target-width="48" target-x="500" target-y="560"></path><path d="M 87.84 960.00 L 201.93 960.00 L 207.65 959.23 L 212.73 957.99 L 217.25 956.30 L 221.27 954.20 L 224.85 951.67 L 228.03 948.73 L 230.83 945.32 L 233.26 941.41 L 235.33 936.95 L 237.02 931.86 L 238.28 926.06 L 239.09 919.48 L 239.37 912.00 L 239.65 892.38 L 240.35 864.91 L 241.25 831.85 L 242.16 795.46 L 242.85 758.01 L 243.13 721.75 L 243.05 704.49 L 242.78 688.94 L 242.29 674.12 L 241.60 661.85 L 240.56 650.60 L 239.37 642.73 L 237.99 637.38 L 236.22 632.66 L 234.07 628.49 L 231.56 624.81 L 228.60 621.40 L 225.38 618.44 L 221.90 615.91 L 218.13 613.77 L 214.16 612.03 L 210.05 610.65 L 205.79 609.65 L 201.36 609.01 L 195.41 608.72 L 189.47 609.02 L 183.52 609.92 L 177.68 611.39 L 172.15 613.38 L 166.90 615.88 L 163.14 618.13 L 159.71 620.61 L 156.60 623.33 L 153.78 626.30 L 150.92 630.05 L 147.77 634.96 L 144.30 641.23 L 139.52 651.13 L 134.40 663.08 L 129.51 675.67 L 124.56 689.46 L 119.83 703.56 L 115.27 717.98 L 110.96 732.39 L 107.04 746.22 L 103.41 759.74 L 100.35 771.80 L 97.65 783.23 L 95.70 792.31 L 91.89 792.59 L 88.31 793.33 L 84.91 794.52 L 81.69 796.15 L 78.77 798.13 L 76.11 800.49 L 73.76 803.16 L 71.79 806.09 L 70.17 809.31 L 68.99 812.71 L 68.26 816.30 L 68.00 820.11 L 68.00 940.16 L 68.34 943.78 L 69.24 947.10 L 70.71 950.17 L 72.68 952.96 L 75.04 955.32 L 77.83 957.29 L 80.90 958.76 L 84.22 959.66 L 87.84 960.00 Z" fill="#000000" fill-rule="evenodd" filter="url(#filter-8)" group-id="1,2,7,10,13" node-id="196" stroke="none" target-height="351.28198" target-width="175.13303" target-x="68" target-y="608.718"></path><path d="M 87.84 960.00 L 201.93 960.00 L 207.65 959.23 L 212.73 957.99 L 217.25 956.30 L 221.27 954.20 L 224.85 951.67 L 228.03 948.73 L 230.83 945.32 L 233.26 941.41 L 235.33 936.95 L 237.02 931.86 L 238.28 926.06 L 239.09 919.48 L 239.37 912.00 L 239.65 892.38 L 240.35 864.91 L 241.25 831.85 L 242.16 795.46 L 242.85 758.01 L 243.13 721.75 L 243.05 704.49 L 242.78 688.94 L 242.29 674.12 L 241.60 661.85 L 240.56 650.60 L 239.37 642.73 L 237.99 637.38 L 236.22 632.66 L 234.07 628.49 L 231.56 624.81 L 228.60 621.40 L 225.38 618.44 L 221.90 615.91 L 218.13 613.77 L 214.16 612.03 L 210.05 610.65 L 205.79 609.65 L 201.36 609.01 L 195.41 608.72 L 189.47 609.02 L 183.52 609.92 L 177.68 611.39 L 172.15 613.38 L 166.90 615.88 L 163.14 618.13 L 159.71 620.61 L 156.60 623.33 L 153.78 626.30 L 150.92 630.05 L 147.77 634.96 L 144.30 641.23 L 139.52 651.13 L 134.40 663.08 L 129.51 675.67 L 124.56 689.46 L 119.83 703.56 L 115.27 717.98 L 110.96 732.39 L 107.04 746.22 L 103.41 759.74 L 100.35 771.80 L 97.65 783.23 L 95.70 792.31 L 91.89 792.59 L 88.31 793.33 L 84.91 794.52 L 81.69 796.15 L 78.77 798.13 L 76.11 800.49 L 73.76 803.16 L 71.79 806.09 L 70.17 809.31 L 68.99 812.71 L 68.26 816.30 L 68.00 820.11 L 68.00 940.16 L 68.34 943.78 L 69.24 947.10 L 70.71 950.17 L 72.68 952.96 L 75.04 955.32 L 77.83 957.29 L 80.90 958.76 L 84.22 959.66 L 87.84 960.00 Z" fill="url(#linearGradient-6)" fill-rule="evenodd" group-id="1,2,7,10,14" node-id="201" stroke="none" target-height="351.28198" target-width="175.13303" target-x="68" target-y="608.718"></path><path d="M 87.84 960.00 L 201.93 960.00 L 207.65 959.23 L 212.73 957.99 L 217.25 956.30 L 221.27 954.20 L 224.85 951.67 L 228.03 948.73 L 230.83 945.32 L 233.26 941.41 L 235.33 936.95 L 237.02 931.86 L 238.28 926.06 L 239.09 919.48 L 239.37 912.00 L 239.65 892.38 L 240.35 864.91 L 241.25 831.85 L 242.16 795.46 L 242.85 758.01 L 243.13 721.75 L 243.05 704.49 L 242.78 688.94 L 242.29 674.12 L 241.60 661.85 L 240.56 650.60 L 239.37 642.73 L 237.99 637.38 L 236.22 632.66 L 234.07 628.49 L 231.56 624.81 L 228.60 621.40 L 225.38 618.44 L 221.90 615.91 L 218.13 613.77 L 214.16 612.03 L 210.05 610.65 L 205.79 609.65 L 201.36 609.01 L 195.41 608.72 L 189.47 609.02 L 183.52 609.92 L 177.68 611.39 L 172.15 613.38 L 166.90 615.88 L 163.14 618.13 L 159.71 620.61 L 156.60 623.33 L 153.78 626.30 L 150.92 630.05 L 147.77 634.96 L 144.30 641.23 L 139.52 651.13 L 134.40 663.08 L 129.51 675.67 L 124.56 689.46 L 119.83 703.56 L 115.27 717.98 L 110.96 732.39 L 107.04 746.22 L 103.41 759.74 L 100.35 771.80 L 97.65 783.23 L 95.70 792.31 L 91.89 792.59 L 88.31 793.33 L 84.91 794.52 L 81.69 796.15 L 78.77 798.13 L 76.11 800.49 L 73.76 803.16 L 71.79 806.09 L 70.17 809.31 L 68.99 812.71 L 68.26 816.30 L 68.00 820.11 L 68.00 940.16 L 68.34 943.78 L 69.24 947.10 L 70.71 950.17 L 72.68 952.96 L 75.04 955.32 L 77.83 957.29 L 80.90 958.76 L 84.22 959.66 L 87.84 960.00 Z" fill="#000000" fill-rule="evenodd" filter="url(#filter-9)" group-id="1,2,7,10,15" node-id="206" stroke="none" target-height="351.28198" target-width="175.13303" target-x="68" target-y="608.718"></path><path d="M 428.11 960.00 L 314.02 960.00 L 308.31 959.23 L 303.23 957.99 L 298.71 956.30 L 294.68 954.20 L 291.10 951.67 L 287.93 948.73 L 285.13 945.32 L 282.69 941.41 L 280.62 936.95 L 278.94 931.86 L 277.67 926.06 L 276.87 919.48 L 276.59 912.00 L 276.31 892.38 L 275.61 864.91 L 274.71 831.85 L 273.80 795.46 L 273.10 758.01 L 272.82 721.75 L 272.91 704.49 L 273.17 688.94 L 273.67 674.12 L 274.36 661.85 L 275.39 650.60 L 276.59 642.73 L 277.96 637.38 L 279.74 632.66 L 281.88 628.49 L 284.39 624.81 L 287.36 621.40 L 290.58 618.44 L 294.06 615.91 L 297.82 613.77 L 301.80 612.03 L 305.91 610.65 L 310.17 609.65 L 314.60 609.01 L 320.55 608.72 L 326.48 609.02 L 332.43 609.92 L 338.27 611.39 L 343.80 613.38 L 349.05 615.88 L 352.82 618.13 L 356.24 620.61 L 359.36 623.33 L 362.18 626.30 L 365.04 630.05 L 368.19 634.96 L 371.65 641.23 L 376.44 651.13 L 381.56 663.08 L 386.45 675.67 L 391.40 689.46 L 396.13 703.56 L 400.68 717.98 L 404.99 732.39 L 408.92 746.22 L 412.55 759.74 L 415.61 771.80 L 418.31 783.23 L 420.26 792.31 L 424.07 792.59 L 427.65 793.33 L 431.05 794.52 L 434.26 796.15 L 437.19 798.13 L 439.85 800.49 L 442.19 803.16 L 444.17 806.09 L 445.78 809.31 L 446.97 812.71 L 447.69 816.30 L 447.96 820.11 L 447.96 940.16 L 447.62 943.78 L 446.71 947.10 L 445.25 950.17 L 443.28 952.96 L 440.91 955.32 L 438.13 957.29 L 435.05 958.76 L 431.74 959.66 L 428.11 960.00 Z" fill="#000000" fill-rule="evenodd" filter="url(#filter-11)" group-id="1,2,7,11,16" node-id="213" stroke="none" target-height="351.28198" target-width="175.133" target-x="272.82355" target-y="608.718"></path><path d="M 428.11 960.00 L 314.02 960.00 L 308.31 959.23 L 303.23 957.99 L 298.71 956.30 L 294.68 954.20 L 291.10 951.67 L 287.93 948.73 L 285.13 945.32 L 282.69 941.41 L 280.62 936.95 L 278.94 931.86 L 277.67 926.06 L 276.87 919.48 L 276.59 912.00 L 276.31 892.38 L 275.61 864.91 L 274.71 831.85 L 273.80 795.46 L 273.10 758.01 L 272.82 721.75 L 272.91 704.49 L 273.17 688.94 L 273.67 674.12 L 274.36 661.85 L 275.39 650.60 L 276.59 642.73 L 277.96 637.38 L 279.74 632.66 L 281.88 628.49 L 284.39 624.81 L 287.36 621.40 L 290.58 618.44 L 294.06 615.91 L 297.82 613.77 L 301.80 612.03 L 305.91 610.65 L 310.17 609.65 L 314.60 609.01 L 320.55 608.72 L 326.48 609.02 L 332.43 609.92 L 338.27 611.39 L 343.80 613.38 L 349.05 615.88 L 352.82 618.13 L 356.24 620.61 L 359.36 623.33 L 362.18 626.30 L 365.04 630.05 L 368.19 634.96 L 371.65 641.23 L 376.44 651.13 L 381.56 663.08 L 386.45 675.67 L 391.40 689.46 L 396.13 703.56 L 400.68 717.98 L 404.99 732.39 L 408.92 746.22 L 412.55 759.74 L 415.61 771.80 L 418.31 783.23 L 420.26 792.31 L 424.07 792.59 L 427.65 793.33 L 431.05 794.52 L 434.26 796.15 L 437.19 798.13 L 439.85 800.49 L 442.19 803.16 L 444.17 806.09 L 445.78 809.31 L 446.97 812.71 L 447.69 816.30 L 447.96 820.11 L 447.96 940.16 L 447.62 943.78 L 446.71 947.10 L 445.25 950.17 L 443.28 952.96 L 440.91 955.32 L 438.13 957.29 L 435.05 958.76 L 431.74 959.66 L 428.11 960.00 Z" fill="url(#linearGradient-6)" fill-rule="evenodd" group-id="1,2,7,11,17" node-id="218" stroke="none" target-height="351.28198" target-width="175.133" target-x="272.82355" target-y="608.718"></path><path d="M 428.11 960.00 L 314.02 960.00 L 308.31 959.23 L 303.23 957.99 L 298.71 956.30 L 294.68 954.20 L 291.10 951.67 L 287.93 948.73 L 285.13 945.32 L 282.69 941.41 L 280.62 936.95 L 278.94 931.86 L 277.67 926.06 L 276.87 919.48 L 276.59 912.00 L 276.31 892.38 L 275.61 864.91 L 274.71 831.85 L 273.80 795.46 L 273.10 758.01 L 272.82 721.75 L 272.91 704.49 L 273.17 688.94 L 273.67 674.12 L 274.36 661.85 L 275.39 650.60 L 276.59 642.73 L 277.96 637.38 L 279.74 632.66 L 281.88 628.49 L 284.39 624.81 L 287.36 621.40 L 290.58 618.44 L 294.06 615.91 L 297.82 613.77 L 301.80 612.03 L 305.91 610.65 L 310.17 609.65 L 314.60 609.01 L 320.55 608.72 L 326.48 609.02 L 332.43 609.92 L 338.27 611.39 L 343.80 613.38 L 349.05 615.88 L 352.82 618.13 L 356.24 620.61 L 359.36 623.33 L 362.18 626.30 L 365.04 630.05 L 368.19 634.96 L 371.65 641.23 L 376.44 651.13 L 381.56 663.08 L 386.45 675.67 L 391.40 689.46 L 396.13 703.56 L 400.68 717.98 L 404.99 732.39 L 408.92 746.22 L 412.55 759.74 L 415.61 771.80 L 418.31 783.23 L 420.26 792.31 L 424.07 792.59 L 427.65 793.33 L 431.05 794.52 L 434.26 796.15 L 437.19 798.13 L 439.85 800.49 L 442.19 803.16 L 444.17 806.09 L 445.78 809.31 L 446.97 812.71 L 447.69 816.30 L 447.96 820.11 L 447.96 940.16 L 447.62 943.78 L 446.71 947.10 L 445.25 950.17 L 443.28 952.96 L 440.91 955.32 L 438.13 957.29 L 435.05 958.76 L 431.74 959.66 L 428.11 960.00 Z" fill="#000000" fill-rule="evenodd" filter="url(#filter-12)" group-id="1,2,7,11,18" node-id="223" stroke="none" target-height="351.28198" target-width="175.133" target-x="272.82355" target-y="608.718"></path><path d="M 87.84 960.00 L 201.93 960.00 L 207.65 959.23 L 212.73 957.99 L 217.25 956.30 L 221.27 954.20 L 224.85 951.67 L 228.03 948.73 L 230.83 945.32 L 233.26 941.41 L 235.33 936.95 L 237.02 931.86 L 238.28 926.06 L 239.09 919.48 L 239.37 912.00 L 239.65 892.38 L 240.35 864.91 L 241.25 831.85 L 242.16 795.46 L 242.85 758.01 L 243.13 721.75 L 243.05 704.49 L 242.78 688.94 L 242.29 674.12 L 241.60 661.85 L 240.56 650.60 L 239.37 642.73 L 237.99 637.38 L 236.22 632.66 L 234.07 628.49 L 231.56 624.81 L 228.60 621.40 L 225.38 618.44 L 221.90 615.91 L 218.13 613.77 L 214.16 612.03 L 210.05 610.65 L 205.79 609.65 L 201.36 609.01 L 195.41 608.72 L 189.47 609.02 L 183.52 609.92 L 177.68 611.39 L 172.15 613.38 L 166.90 615.88 L 163.14 618.13 L 159.71 620.61 L 156.60 623.33 L 153.78 626.30 L 150.92 630.05 L 147.77 634.96 L 144.30 641.23 L 139.52 651.13 L 134.40 663.08 L 129.51 675.67 L 124.56 689.46 L 119.83 703.56 L 115.27 717.98 L 110.96 732.39 L 107.04 746.22 L 103.41 759.74 L 100.35 771.80 L 97.65 783.23 L 95.70 792.31 L 91.89 792.59 L 88.31 793.33 L 84.91 794.52 L 81.69 796.15 L 78.77 798.13 L 76.11 800.49 L 73.76 803.16 L 71.79 806.09 L 70.17 809.31 L 68.99 812.71 L 68.26 816.30 L 68.00 820.11 L 68.00 940.16 L 68.34 943.78 L 69.24 947.10 L 70.71 950.17 L 72.68 952.96 L 75.04 955.32 L 77.83 957.29 L 80.90 958.76 L 84.22 959.66 L 87.84 960.00 Z" fill="none" group-id="1,2,7" id="路径-73" node-id="72" stroke="url(#linearGradient-13)" stroke-linecap="butt" stroke-width="8" target-height="351.28198" target-width="175.13303" target-x="68" target-y="608.718"></path><path d="M 368.39 623.70 L 369.96 625.67 L 372.83 629.83 L 376.01 635.20 L 379.56 641.96 L 384.53 652.61 L 389.91 665.46 L 393.74 675.36 L 397.56 685.82 L 401.34 696.73 L 403.20 702.33 L 406.87 713.73 L 410.42 725.32 L 412.14 731.15 L 415.46 742.83 L 418.60 754.44 L 421.51 765.87 L 424.18 777.02 L 425.42 782.46 L 426.72 788.51 L 428.13 788.67 L 431.91 789.48 L 435.45 790.70 L 438.80 792.32 L 441.94 794.32 L 444.79 796.64 L 447.37 799.28 L 449.62 802.21 L 451.52 805.38 L 453.06 808.80 L 454.19 812.38 L 454.88 816.14 L 455.13 820.11 L 455.13 940.16 L 454.90 943.43 L 454.28 946.52 L 453.26 949.44 L 451.87 952.21 L 450.17 954.72 L 448.15 957.02 L 445.86 959.03 L 443.34 960.73 L 440.57 962.13 L 437.65 963.15 L 434.56 963.77 L 431.29 964.00 L 317.20 964.00 L 311.38 963.24 L 306.15 962.03 L 301.45 960.41 L 297.23 958.40 L 293.43 956.01 L 290.02 953.24 L 286.97 950.06 L 284.36 946.60 L 282.07 942.73 L 280.11 938.41 L 278.47 933.60 L 277.19 928.23 L 276.30 922.26 L 275.82 915.61 L 275.53 894.45 L 273.04 798.48 L 272.66 780.56 L 272.29 758.83 L 272.03 733.64 L 272.00 716.50 L 272.06 705.92 L 272.19 696.03 L 272.39 686.82 L 272.81 674.30 L 273.41 663.35 L 273.90 656.94 L 274.46 651.23 L 275.11 646.23 L 275.84 641.96 L 277.20 636.64 L 279.00 631.84 L 281.20 627.50 L 283.80 623.57 L 286.86 619.91 L 290.19 616.66 L 293.82 613.81 L 297.77 611.33 L 301.94 609.23 L 306.26 607.52 L 310.77 606.19 L 315.47 605.23 L 320.22 604.66 L 324.99 604.48 L 329.79 604.68 L 334.64 605.26 L 339.42 606.23 L 344.07 607.58 L 348.61 609.31 L 353.04 611.43 L 357.26 613.91 L 361.21 616.78 L 364.92 620.04 L 368.39 623.70 Z M 283.69 643.50 L 283.33 645.47 L 282.67 649.95 L 282.37 652.46 L 281.83 658.04 L 281.36 664.34 L 280.96 671.35 L 280.49 683.19 L 280.27 691.96 L 280.11 701.41 L 280.00 716.87 L 280.03 733.84 L 280.29 758.77 L 281.18 804.53 L 283.59 897.45 L 283.76 912.00 L 284.04 919.35 L 284.83 925.73 L 286.08 931.27 L 287.73 936.06 L 289.75 940.20 L 292.12 943.76 L 294.61 946.58 L 297.42 949.04 L 300.58 951.15 L 304.12 952.91 L 308.09 954.32 L 312.54 955.37 L 317.54 956.01 L 431.29 956.00 L 434.18 955.73 L 436.83 955.01 L 439.28 953.84 L 441.51 952.26 L 443.39 950.38 L 444.97 948.15 L 446.14 945.70 L 446.86 943.05 L 447.13 940.16 L 447.13 820.11 L 446.91 816.85 L 446.28 813.77 L 445.27 810.86 L 443.89 808.11 L 442.20 805.60 L 440.19 803.31 L 437.91 801.30 L 435.41 799.60 L 432.66 798.21 L 429.75 797.18 L 426.68 796.55 L 423.42 796.31 L 420.18 796.30 L 418.75 789.43 L 416.48 779.23 L 415.25 773.98 L 412.60 763.24 L 411.19 757.78 L 408.22 746.73 L 406.67 741.16 L 403.45 730.02 L 400.09 718.94 L 396.63 708.01 L 393.08 697.34 L 391.29 692.14 L 387.68 682.03 L 383.08 669.90 L 378.69 659.17 L 374.17 649.09 L 370.09 640.95 L 367.17 635.82 L 364.59 631.87 L 362.31 628.90 L 359.36 625.78 L 356.20 623.01 L 352.84 620.57 L 349.25 618.46 L 344.20 616.12 L 338.99 614.37 L 333.59 613.19 L 328.10 612.58 L 322.67 612.55 L 317.28 613.08 L 311.98 614.20 L 306.98 615.87 L 302.23 618.11 L 298.88 620.17 L 295.80 622.54 L 292.97 625.23 L 290.39 628.26 L 288.18 631.52 L 286.33 635.12 L 284.82 639.10 L 283.69 643.50 Z" fill="url(#linearGradient-14)" fill-rule="nonzero" group-id="1,2,7,12" id="路径-73备份" node-id="73" stroke="none" target-height="359.51953" target-width="183.13141" target-x="272" target-y="604.48047"></path></g></g></svg>