<svg xmlns:xlink="http://www.w3.org/1999/xlink" xmlns="http://www.w3.org/2000/svg" version="1.1" viewBox="0 0 1024 1024" height="1024px" width="1024px">
    <title>悠闲</title>
    <defs>
        <radialGradient id="radialGradient-1" gradientTransform="translate(0.500000,0.196690),scale(0.912281,1.000000),rotate(90.000000),translate(-0.500000,-0.196690)" r="93.9392347%" fy="19.6689915%" fx="50%" cy="19.6689915%" cx="50%">
            <stop offset="0%" stop-color="#FFE476"></stop>
            <stop offset="41.3872668%" stop-color="#FCEC6C"></stop>
            <stop offset="100%" stop-color="#FFB02F"></stop>
        </radialGradient>
        <path id="path-2" d="M470.860526,96.3786953 C590.065472,90.6333681 692.761001,150.678756 742.047405,248.068162 C874.943351,307.197291 982.794668,448.582382 955.841115,605.747769 C935.627441,723.613119 871.200132,809.730518 776.885037,862.375369 C730.431467,892.437155 664.2001,913.754861 565.849854,923.528265 C286.3427,951.303857 64.9816436,850.504609 48.8216209,598.216832 C40.8540009,473.82758 91.4225884,389.954402 174.973967,336.88301 C205.596783,181.870433 317.83599,103.754027 470.860526,96.3786953 Z"></path>
        <filter id="filter-3" filterUnits="objectBoundingBox" height="117.3%" width="115.8%" y="-8.7%" x="-7.9%">
            <feGaussianBlur result="shadowBlurInner1" in="SourceAlpha" stdDeviation="64"></feGaussianBlur>
            <feOffset result="shadowOffsetInner1" in="shadowBlurInner1" dy="16" dx="0"></feOffset>
            <feComposite result="shadowInnerInner1" k3="1" k2="-1" operator="arithmetic" in2="SourceAlpha" in="shadowOffsetInner1"></feComposite>
            <feColorMatrix in="shadowInnerInner1" type="matrix" values="0 0 0 0 0.968627451   0 0 0 0 0.68627451   0 0 0 0 0.270588235  0 0 0 0.501145583 0"></feColorMatrix>
        </filter>
        <filter id="filter-4" filterUnits="objectBoundingBox" height="357.1%" width="263.6%" y="-128.6%" x="-81.8%">
            <feGaussianBlur in="SourceGraphic" stdDeviation="48"></feGaussianBlur>
        </filter>
        <filter id="filter-5" filterUnits="objectBoundingBox" height="357.1%" width="263.6%" y="-128.6%" x="-81.8%">
            <feGaussianBlur in="SourceGraphic" stdDeviation="48"></feGaussianBlur>
        </filter>
        <path id="path-6" d="M605.61825,625.800957 C614.454806,625.800957 622.407277,632.975266 621.61825,641.800957 C613.172455,736.271715 505.774518,796.947206 369.810887,767.149346 C361.617742,765.353732 353.791458,760.029456 353.766113,751.192932 C353.743379,742.356409 361.587774,733.251368 369.723832,735.149464 C497.817402,765.03296 577.092223,711.62991 589.61825,641.800957 C591.19555,633.007969 596.781694,625.800957 605.61825,625.800957 Z"></path>
        <filter id="filter-7" filterUnits="objectBoundingBox" height="164.4%" width="135.8%" y="-32.2%" x="-17.9%">
            <feOffset result="shadowOffsetOuter1" in="SourceAlpha" dy="0" dx="0"></feOffset>
            <feGaussianBlur result="shadowBlurOuter1" in="shadowOffsetOuter1" stdDeviation="16"></feGaussianBlur>
            <feColorMatrix in="shadowBlurOuter1" type="matrix" values="0 0 0 0 1   0 0 0 0 0.912152601   0 0 0 0 0.554255788  0 0 0 1 0"></feColorMatrix>
        </filter>
        <filter id="filter-8" filterUnits="objectBoundingBox" height="153.7%" width="129.9%" y="-26.8%" x="-14.9%">
            <feGaussianBlur result="shadowBlurInner1" in="SourceAlpha" stdDeviation="8"></feGaussianBlur>
            <feOffset result="shadowOffsetInner1" in="shadowBlurInner1" dy="0" dx="0"></feOffset>
            <feComposite result="shadowInnerInner1" k3="1" k2="-1" operator="arithmetic" in2="SourceAlpha" in="shadowOffsetInner1"></feComposite>
            <feColorMatrix in="shadowInnerInner1" type="matrix" values="0 0 0 0 0.661258421   0 0 0 0 0.0872254633   0 0 0 0 0.00982776113  0 0 0 1 0"></feColorMatrix>
        </filter>
    </defs>
    <g fill-rule="evenodd" fill="none" stroke-width="1" stroke="none" id="上传尺寸">
        <g transform="translate(0.000000, 0.000000)" id="悠闲">
            <rect height="1024" width="1024" y="0" x="0" id="矩形备份-3"></rect>
            <g transform="translate(16.000000, 48.000000)" id="默认">
                <g id="形状结合">
                    <use xlink:href="#path-2" fill-rule="evenodd" fill="url(#radialGradient-1)"></use>
                    <use xlink:href="#path-2" filter="url(#filter-3)" fill-opacity="1" fill="black"></use>
                </g>
                <ellipse ry="56" rx="88" cy="576" cx="744" filter="url(#filter-4)" fill="#FF5EA4" fill-opacity="0.8" id="椭圆形"></ellipse>
                <ellipse ry="56" rx="88" cy="576" cx="264" filter="url(#filter-5)" fill="#FF5EA4" fill-opacity="0.8" id="椭圆形备份-6"></ellipse>
                <path fill-rule="nonzero" fill="#443C25" id="形状" d="M420.574779,345.713458 C362.849104,334.668155 251.544955,330.986387 185.566771,345.713458 C119.609533,360.482131 115.504224,375.209201 94.8729507,415.750247 C74.2626228,456.270492 71.0579681,553.577325 111.37797,592.641504 C160.851135,640.566887 319.994703,629.833598 394.183505,585.610784 C468.393253,541.387969 420.951797,521.751875 445.290416,489.448004 C469.629035,457.144132 478.279508,356.779561 420.574779,345.713458 Z M571.425221,345.606353 C629.150896,334.68284 740.455045,331.041669 806.433229,345.606353 C856.388139,356.653295 870.882395,367.700238 883.931413,389.835265 L887.03134,395.389594 L897.127049,414.870888 C917.737377,454.94434 920.942032,551.178227 880.62203,589.811668 C831.148865,637.208605 689.536643,633.546863 615.326895,589.811668 C574.525148,565.74291 565.20442,546.961051 561.036275,529.57806 L559.989003,524.887738 L558.229585,515.630523 L557.266093,511.022487 C555.707019,503.571137 552.706424,496.482889 548.427112,490.142327 L546.709584,487.756022 C522.370965,455.808346 513.720492,356.550437 571.425221,345.606353 L571.425221,345.606353 Z"></path>
                <g fill-rule="nonzero" id="编组">
                    <path fill="#009E3E" id="路径" d="M496,304 C502.158666,304 508.276,304.038 514.393334,304.095 L532.600666,304.399 L550.642666,304.912 L568.498666,305.615 L586.127334,306.508 C589.062,306.66 591.976,306.831 594.869334,307.021 L612.188,308.199 L629.279334,309.548 L646.102,311.068 L654.430666,311.923 L670.881334,313.709 L687.063334,315.685 L702.956,317.832 L710.809334,318.953 L726.247334,321.328 L741.375334,323.874 L756.172666,326.572 L770.639334,329.422 L784.754666,332.405 L798.518666,335.54 L811.910666,338.808 L824.930666,342.228 L837.537334,345.781 C839.604,346.369999 841.670667,346.978 843.696,347.605 L855.682666,351.329 L867.256,355.205 C944.88,382.033 992,417.335 992,456 C992,494.664999 944.88,529.967 867.256,556.794999 L855.682666,560.670999 L843.696,564.395 C841.65,565.022 839.604,565.63 837.537334,566.219 L824.930666,569.772 L811.910666,573.192 L798.518666,576.459999 L784.754666,579.594999 L770.639334,582.597 L756.172666,585.447 L741.375334,588.126 L726.247334,590.672 L710.788666,593.046999 L695.040666,595.269999 L679.003334,597.321999 L670.881334,598.272 L654.430666,600.077 L646.102,600.912999 L629.279334,602.433 L612.188,603.801 L594.869334,604.979 C591.976,605.169 589.062,605.34 586.127334,605.492 L568.498666,606.384999 L550.642666,607.088 L532.600666,607.601 L514.393334,607.905 L496,608 L477.606666,607.905 L459.399334,607.601 L441.357334,607.088 L423.501334,606.384999 L405.872666,605.492 C402.958096,605.329319 400.044082,605.158318 397.130666,604.979 L379.812,603.801 L362.720666,602.451999 L345.898,600.932 C343.120778,600.65529 340.344542,600.370288 337.569334,600.077 L321.118666,598.290999 L304.936666,596.315 L289.044,594.168 C286.424811,593.802738 283.807017,593.429069 281.190666,593.046999 L265.752666,590.672 L250.624666,588.126 L235.827334,585.428 L221.360666,582.578 L207.245334,579.594999 L193.481334,576.459999 L180.089334,573.192 L167.069334,569.772 L154.462666,566.219 C152.396,565.63 150.329333,565.022 148.304,564.395 L136.317334,560.670999 L124.744,556.794999 C47.12,529.967 0,494.664999 0,456 C0,417.335 47.12,382.033 124.744,355.205 L136.317334,351.329 L148.304,347.605 C150.35,346.978 152.396,346.369999 154.462666,345.781 L167.069334,342.228 L180.089334,338.808 L193.481334,335.54 L207.245334,332.405 L221.360666,329.403 L235.827334,326.553 L250.624666,323.874 L265.752666,321.328 L281.211334,318.953 L296.959334,316.73 L312.996666,314.678 L321.118666,313.728 L337.569334,311.923 L345.898,311.087 L362.720666,309.567 L379.812,308.199 L397.130666,307.021 C400.024,306.831 402.938,306.66 405.872666,306.508 L423.501334,305.615 L441.357334,304.912 L459.399334,304.399 L477.606666,304.095 L486.782666,304.019 L496,304 Z"></path>
                    <path fill="#21C55F" id="路径" d="M496,323 C489.965334,323 483.951334,323.038 477.978666,323.095 L460.122666,323.399 L442.432,323.912 C439.518,324.007 436.583334,324.102 433.669334,324.235 L416.309334,325.033 L399.114666,325.983 L382.168,327.161 C379.378,327.351 376.588,327.579 373.798,327.807 L357.202666,329.232 L340.876,330.828 C338.168666,331.094 335.482,331.398 332.795334,331.683 L316.861334,333.507 L301.216666,335.521 L285.840666,337.668 L270.795334,339.967 C265.835334,340.765 260.916667,341.581999 256.06,342.418 L241.655334,345.002 C239.297562,345.437337 236.941546,345.880673 234.587334,346.332 L220.699334,349.144 L213.879334,350.588 L200.549334,353.571 L187.591334,356.668 C185.473962,357.191623 183.359053,357.723628 181.246666,358.264 L168.888,361.551 L156.901334,364.933 L145.369334,368.429 L134.250666,372.039 L123.586666,375.725 L118.42,377.606 L108.417334,381.444 L98.9106663,385.358 C94.2813327,387.334 89.8173327,389.348 85.56,391.381 L77.2726663,395.504 C41.168,414.162 20.6666663,434.967 20.6666663,456 C20.6666663,477.033 41.168,497.838 77.2726663,516.495999 L85.5393337,520.619 C89.8173337,522.652 94.2813337,524.666 98.9106663,526.641999 L108.417334,530.556 L118.42,534.393999 L123.586666,536.294 L134.250666,539.979999 L145.369334,543.570999 L156.922,547.067 L168.888,550.449 L181.246666,553.736 L187.591334,555.332 L200.549334,558.429 L213.9,561.411999 L220.72,562.856 L234.587334,565.649 L248.826666,568.308999 C253.621333,569.163999 258.478,570.018999 263.396666,570.816999 L278.276666,573.192 L285.840666,574.332 L301.216666,576.479 L316.861334,578.493 L332.774666,580.317 L348.998,582.008 L357.202666,582.768 L373.798,584.193 L382.168,584.838999 L399.114666,585.998 L416.288666,586.967 L433.669334,587.765 L442.432,588.087999 L460.122666,588.600999 L477.978666,588.905 L496,589 L514.021334,588.905 L531.877334,588.600999 L549.568,588.087999 C552.482,587.992999 555.416666,587.898 558.330666,587.765 L575.690666,586.967 L592.885334,586.017 L609.832,584.838999 C612.622,584.649 615.412,584.421 618.202,584.193 L634.797334,582.768 L651.124,581.172 C653.831334,580.905999 656.518,580.602 659.204666,580.317 L675.138666,578.493 L690.783334,576.479 L706.159334,574.332 L721.204666,572.033 C726.164666,571.235 731.083333,570.418 735.94,569.582 L750.344666,566.997999 L757.412666,565.668 L771.300666,562.856 L778.120666,561.411999 L791.450666,558.429 L804.408666,555.332 L810.753334,553.736 L823.112,550.449 L835.098666,547.067 L846.630666,543.570999 L857.749334,539.961 L868.413334,536.274999 L873.58,534.393999 L883.582666,530.556 L893.089334,526.641999 C897.718667,524.665999 902.182667,522.651999 906.44,520.619 L914.727334,516.495999 C950.832,497.838 971.333334,477.033 971.333334,456 C971.333334,434.967 950.832,414.162 914.727334,395.504 L906.460666,391.381 C902.052591,389.2826 897.594381,387.274439 893.089334,385.358 L883.582666,381.444 L873.58,377.606 C871.861845,376.963358 870.139593,376.330013 868.413334,375.706 L857.749334,372.02 L846.630666,368.429 L835.078,364.933 L823.112,361.551 L810.753334,358.264 C808.640947,357.723628 806.526038,357.191623 804.408666,356.668 L791.450666,353.571 L778.1,350.588 L771.28,349.144 L757.412666,346.351 L743.173334,343.691 C738.378667,342.836 733.522,341.981 728.603334,341.183 L713.723334,338.808 C711.203418,338.42009 708.68207,338.040088 706.159334,337.668 L690.783334,335.521 L675.138666,333.507 L659.225334,331.683 L643.002,329.992 C640.267992,329.730692 637.53309,329.477357 634.797334,329.232 L618.202,327.807 L609.832,327.161 L592.885334,326.002 L575.711334,325.033 L558.330666,324.235 C555.410146,324.119054 552.489243,324.011388 549.568,323.912 L531.877334,323.399 L514.021334,323.095 L505.031334,323.019 L496,323 Z"></path>
                    <path fill="#07B54B" id="路径" d="M496,323 L514.021334,323.095 L531.877334,323.399 L549.568,323.912 L558.330666,324.235 L575.690666,325.033 L592.885334,325.983 L609.832,327.161 L618.202,327.807 L638.91,329.612 L659.204666,331.683 L675.138666,333.507 L690.783334,335.521 L706.159334,337.668 L713.723334,338.808 L728.603334,341.183 L735.94,342.418 L743.173334,343.691 L757.412666,346.351 L774.710666,349.847 L778.1,350.588 L791.450666,353.571 L804.408666,356.668 L810.753334,358.264 L823.112,361.551 L835.098666,364.933 L846.630666,368.429 L857.749334,372.039 L868.413334,375.725 L873.58,377.606 L883.582666,381.444 L893.089334,385.358 L899.909334,388.341 L906.44,391.381 L914.727334,395.504 C941.656,409.412 959.884,424.517 967.427334,440.001999 L968.502,448.286 L967.882,449.634999 C955.668,473.004999 914.458666,495.102 853.967334,512.658 L847.168,514.596 L834.065334,518.091999 L820.446,521.454999 L806.31,524.685 L791.698666,527.724999 L776.612,530.631999 C769.812666,531.885999 762.889334,533.101999 755.821334,534.242 L745.157334,535.952 L728.789334,538.326999 L720.460666,539.466999 L703.514,541.557 L694.937334,542.544999 L677.474,544.35 L668.608,545.186 L650.669334,546.705999 L632.420666,547.979 L613.882666,549.042999 L604.520666,549.498999 L585.610666,550.221 L566.452666,550.715 L551.944666,550.923999 L537.333334,551 L527.868,550.962 L513.318666,550.809999 L498.872666,550.506 L479.838666,549.897999 L461.032,549.062 L451.732,548.549 L433.318,547.371 L415.193334,545.984 L397.399334,544.368999 L388.616,543.495 L371.318,541.595 L362.803334,540.549999 L346.063334,538.346 L337.796666,537.186999 L321.635334,534.717 L313.72,533.387 L294.355334,529.967 L290.573334,529.226 L275.714,526.242999 L268.480666,524.703999 L254.324,521.474 L240.684,518.111 L227.044,514.500999 L213.734666,510.738999 L200.859334,506.844 C150.226,490.998 110.752667,472.074 98.0633337,452.124 L96.6166663,449.654 L106.144,448.305 L107.384,439.260999 C110.566666,417.885999 115.464666,396.834 121.974666,376.295 L134.250666,372.02 L145.369334,368.429 L156.922,364.933 L168.888,361.551 L181.246666,358.264 L187.591334,356.668 L200.549334,353.571 L213.9,350.588 L220.72,349.144 L234.587334,346.351 L241.655334,345.002 L256.06,342.418 L270.795334,339.967 L285.840666,337.668 L301.216666,335.521 L316.861334,333.507 L336.825334,331.227 L357.202666,329.232 L373.798,327.807 L382.168,327.161 L399.114666,326.002 L416.288666,325.033 L433.669334,324.235 L442.432,323.912 L460.122666,323.399 L477.978666,323.095 C483.972,323.038 489.965333,323 496,323 L496,323 Z"></path>
                    <path fill="#009E3E" id="路径" d="M496,0 C757.144,0 950.666666,183.16 948.269334,418 C937.316,452.788999 889.493334,484.024999 817.738666,507.471 L804.822,511.518 L798.208666,513.494 L784.568666,517.293999 C782.274666,517.920999 779.939333,518.529 777.583334,519.137 L763.282,522.671 C751.192,525.54 738.647334,528.219 725.668666,530.708 L709.920666,533.577 L693.800666,536.256 C688.310952,537.121769 682.813425,537.945132 677.308666,538.725999 L660.486,541.005999 C654.802666,541.708999 649.078,542.392999 643.312,543.039 L625.828,544.863 L616.982666,545.699 L599.064666,547.181 C590.033333,547.865 580.878,548.454 571.660666,548.948 L553.081334,549.840999 L534.274666,550.487 L524.768,550.715 L505.651334,550.962 L496,551 L486.348666,550.962 L467.211334,550.715 C464.049039,550.649758 460.887017,550.573758 457.725334,550.487 L438.918666,549.840999 L420.318666,548.948 C411.18392,548.454135 402.055556,547.865097 392.935334,547.181 L375.017334,545.699 C372.067725,545.430843 369.119258,545.152174 366.172,544.863 L348.688,543.039 L340.07,542.051 L323.061334,539.885 C317.460667,539.125 311.901334,538.365 306.404,537.528999 L290.077334,534.945 C287.390667,534.507999 284.724667,534.051999 282.079334,533.577 L266.331334,530.708 C253.726043,528.303441 241.184722,525.623684 228.718,522.671 L214.416666,519.137 C212.084687,518.534048 209.75621,517.919706 207.431334,517.293999 L193.791334,513.494 C191.5828,512.846956 189.37832,512.188278 187.178,511.518 L174.261334,507.471 C102.506667,484.025 54.684,452.789 43.7306663,417.981 C41.3333337,183.16 234.856,0 496,0 Z"></path>
                    <path fill="#21C55F" id="路径" d="M496,18.9999997 C367.04,18.9999997 254.861334,65.7969997 177.216666,142.443 L168.412666,151.43 C103.54,219.735 65.038,309.928 64.3766663,411.046 L64.3973337,414.979 L64.5626663,415.473 C74.4826663,440.363 112.922666,466.278999 174.054666,487.197999 L180.936666,489.477999 L193.626,493.467999 L199.826,495.311 L213.218,499.053999 L219.79,500.783 L233.884666,504.279 C241.738,506.141 249.798,507.927 258.002666,509.598999 L270.361334,512.069 L285.840666,514.919 L293.590666,516.23 L309.710666,518.775999 L317.832666,519.954 L325.892666,521.075 L342.715334,523.203 L351.023334,524.153 L372.661334,526.376 L394.63,528.237999 L408.022,529.188 L421.414,529.986 L439.683334,530.859999 L458.345334,531.486999 L467.521334,531.714999 L486.431334,531.962 L495.938,532 L505.341334,531.962 L528.984,531.600999 L533.51,531.486999 L552.006666,530.859999 L570.441334,529.986 L583.936666,529.188 L597.204666,528.237999 L614.978,526.775 L623.513334,525.977 L640.811334,524.172 L649.243334,523.221999 L657.51,522.195999 L674.146666,519.954 L682.248,518.775999 L690.122,517.56 L705.890666,514.956999 L721.473334,512.106999 C729.884667,510.492 738.11,508.800999 746.108,507.033999 L757.908666,504.317 L772.003334,500.84 L778.575334,499.13 L791.967334,495.368 L798.146666,493.544 L810.815334,489.554 C876.184,468.217 917.124667,441.294 927.416666,415.454 L927.582,414.979 L927.602666,411.046 C926.197333,190.836 745.260666,22.4389994 503.419334,19.0569997 L496,18.9999997 Z"></path>
                    <path fill="#009E3E" fill-opacity="0.28" id="形状" d="M629.796,36.9170003 C803.168666,85.3670003 922.994,227.164 927.478666,403.37 L927.602666,411.046 L927.582,414.979 L927.416666,415.473 C917.496666,440.363 879.056666,466.298 817.718,487.254999 L810.815334,489.573 L798.146666,493.563 L791.967334,495.368 L778.575334,499.110999 L772.003334,500.820999 L757.908666,504.317 L746.128666,507.033999 C740.776,508.212 735.340666,509.352 729.802,510.453999 L721.473334,512.106999 L705.890666,514.956999 L690.122,517.56 L682.248,518.775999 L674.146666,519.954 L657.489334,522.195999 L649.243334,523.203 L640.811334,524.172 L623.513334,525.977 L614.978,526.775 L597.204666,528.257 L583.936666,529.188 L570.441334,529.986 L552.006666,530.859999 L540.970666,531.24 C635.913333,456.608 689.626,389.804 702.088,330.828 C713.31,277.78 691.651334,251.598 660.837334,228.798 L653.831334,223.801 L646.598,218.842 L627.832666,206.302 L620.186,201.077 C597.287334,185.155001 574.574666,166.497 559.095334,138.187 C529.438667,83.8659997 573.458667,52.0599997 625.27,38.076 L629.816666,36.936 L629.796,36.9170003 Z M70.432,344.774 C103.085334,345.971 138.198,349.923 175.708,356.63 C258.85,371.488 340.793334,429.267 421.558666,529.967 L421.414,529.967 L408.022,529.188 L394.63,528.237999 L372.661334,526.376 L351.023334,524.153 L342.715334,523.203 L325.892666,521.075 L317.832666,519.954 L309.731334,518.775999 L293.590666,516.23 L285.840666,514.899999 L270.340666,512.069 L258.002666,509.598999 L245.809334,507.015 L233.884666,504.279 L219.79,500.783 L213.218,499.073 L199.805334,495.311 L193.605334,493.467999 L180.936666,489.477999 L174.054666,487.197999 C115.196,467.058 77.376,442.263 65.782,418.227999 L64.5626663,415.473 L64.3973337,414.979 L64.3973337,411.046 C64.5213337,389.595 66.3606673,368.638 69.7913337,348.289 L70.4113337,344.774 L70.432,344.774 Z"></path>
                    <path fill="#63D68E" id="路径" d="M351.333334,95.0000003 C351.333334,108.585 378.902667,121.125 423.666666,127.908 C468.430665,134.691 523.569333,134.691 568.333334,127.908 C613.097334,121.125 640.666666,108.585 640.666666,95.0000003 C640.666666,81.4150006 613.097333,68.8750006 568.333334,62.0919997 C523.569335,55.3089988 468.430667,55.3089997 423.666666,62.0919997 C378.902666,68.8749997 351.333334,81.4149997 351.333334,95.0000003 Z"></path>
                </g>
                <g transform="translate(487.719237, 700.292931) rotate(14.000000) translate(-487.719237, -700.292931)" fill-rule="nonzero" id="路径-21">
                    <use xlink:href="#path-6" filter="url(#filter-7)" fill-opacity="1" fill="black"></use>
                    <use xlink:href="#path-6" fill="#ED1F2A"></use>
                    <use xlink:href="#path-6" filter="url(#filter-8)" fill-opacity="1" fill="black"></use>
                </g>
            </g>
        </g>
    </g>
</svg>