<?xml version="1.0" standalone="no"?><!DOCTYPE svg PUBLIC "-//W3C//DTD SVG 1.1//EN" "http://www.w3.org/Graphics/SVG/1.1/DTD/svg11.dtd"><svg height="1024" node-id="1" sillyvg="true" template-height="1024" template-width="1024" version="1.1" viewBox="0 0 1024 1024" width="1024" xmlns="http://www.w3.org/2000/svg" xmlns:xlink="http://www.w3.org/1999/xlink"><defs node-id="78"><radialGradient cx="0.5" cy="0.19668992" fx="0.5" fy="0.19668992" gradientTransform="matrix(0 1 -0.912281 0 0.67943655 -0.30331)" gradientUnits="objectBoundingBox" id="radialGradient-1" node-id="5" r="0.9393923" rev="3" spreadMethod="pad"><stop offset="0" stop-color="#ffe476"></stop><stop offset="0.41387266" stop-color="#fcec6c"></stop><stop offset="1" stop-color="#ffb02f"></stop></radialGradient><linearGradient gradientUnits="objectBoundingBox" id="linearGradient-12" node-id="37" spreadMethod="pad" x1="0.5" x2="0.5" y1="0.19668992" y2="1.1360823"><stop offset="0" stop-color="#ffe992"></stop><stop offset="0.4151543" stop-color="#fff185"></stop><stop offset="1" stop-color="#ffb02f"></stop></linearGradient><linearGradient gradientUnits="objectBoundingBox" id="linearGradient-16" node-id="51" spreadMethod="pad" x1="0.42934394" x2="0.6501949" y1="0.099625126" y2="0.9582793"><stop offset="0" stop-color="#ecc45a"></stop><stop offset="1" stop-color="#d18913"></stop></linearGradient><filter height="1.173" id="filter-3" node-id="10" width="1.158" x="-0.079" y="-0.087"><feGaussianBlur color-interpolation-filters="linearRGB" in="SourceAlpha" result="shadowBlurInner1" stdDeviation="64 64"></feGaussianBlur><feOffset color-interpolation-filters="linearRGB" dx="0" dy="16" in="shadowBlurInner1" result="shadowOffsetInner1"></feOffset><feComposite color-interpolation-filters="linearRGB" in="shadowOffsetInner1" in2="SourceAlpha" k1="0" k2="-1" k3="1" k4="0" operator="arithmetic" result="shadowInnerInner1"></feComposite><feColorMatrix color-interpolation-filters="linearRGB" in="shadowInnerInner1" result="result4" type="matrix" values="0 0 0 0 0.968627451 0 0 0 0 0.68627451 0 0 0 0 0.270588235 0 0 0 0.501145583 0"></feColorMatrix></filter><filter height="2.8" id="filter-4" node-id="15" width="2.636" x="-0.818" y="-0.9"><feGaussianBlur color-interpolation-filters="linearRGB" in="SourceGraphic" result="result1" stdDeviation="48 48"></feGaussianBlur></filter><filter height="2.8" id="filter-5" node-id="17" width="2.636" x="-0.818" y="-0.9"><feGaussianBlur color-interpolation-filters="linearRGB" in="SourceGraphic" result="result1" stdDeviation="48 48"></feGaussianBlur></filter><filter height="1.444" id="filter-7" node-id="20" width="1.635" x="-0.317" y="-0.222"><feGaussianBlur color-interpolation-filters="linearRGB" in="SourceAlpha" result="shadowBlurInner1" stdDeviation="24 24"></feGaussianBlur><feOffset color-interpolation-filters="linearRGB" dx="0" dy="16" in="shadowBlurInner1" result="shadowOffsetInner1"></feOffset><feComposite color-interpolation-filters="linearRGB" in="shadowOffsetInner1" in2="SourceAlpha" k1="0" k2="-1" k3="1" k4="0" operator="arithmetic" result="shadowInnerInner1"></feComposite><feColorMatrix color-interpolation-filters="linearRGB" in="shadowInnerInner1" result="result4" type="matrix" values="0 0 0 0 0.188235294 0 0 0 0 0.0823529412 0 0 0 0 0.00784313725 0 0 0 1 0"></feColorMatrix></filter><filter height="1.444" id="filter-9" node-id="26" width="1.635" x="-0.317" y="-0.222"><feGaussianBlur color-interpolation-filters="linearRGB" in="SourceAlpha" result="shadowBlurInner1" stdDeviation="24 24"></feGaussianBlur><feOffset color-interpolation-filters="linearRGB" dx="0" dy="16" in="shadowBlurInner1" result="shadowOffsetInner1"></feOffset><feComposite color-interpolation-filters="linearRGB" in="shadowOffsetInner1" in2="SourceAlpha" k1="0" k2="-1" k3="1" k4="0" operator="arithmetic" result="shadowInnerInner1"></feComposite><feColorMatrix color-interpolation-filters="linearRGB" in="shadowInnerInner1" result="result4" type="matrix" values="0 0 0 0 0.188235294 0 0 0 0 0.0823529412 0 0 0 0 0.00784313725 0 0 0 1 0"></feColorMatrix></filter><filter height="1.099" id="filter-11" node-id="32" width="1.034" x="-0.017" y="-0.05"><feGaussianBlur color-interpolation-filters="linearRGB" in="SourceAlpha" result="shadowBlurInner1" stdDeviation="8 8"></feGaussianBlur><feOffset color-interpolation-filters="linearRGB" dx="0" dy="0" in="shadowBlurInner1" result="shadowOffsetInner1"></feOffset><feComposite color-interpolation-filters="linearRGB" in="shadowOffsetInner1" in2="SourceAlpha" k1="0" k2="-1" k3="1" k4="0" operator="arithmetic" result="shadowInnerInner1"></feComposite><feColorMatrix color-interpolation-filters="linearRGB" in="shadowInnerInner1" result="result4" type="matrix" values="0 0 0 0 0.463498765 0 0 0 0 0.0657767692 0 0 0 0 0.0121513315 0 0 0 1 0"></feColorMatrix></filter><filter height="1.196" id="filter-14" node-id="42" width="1.246" x="-0.158" y="-0.098"><feOffset color-interpolation-filters="linearRGB" dx="-16" dy="0" in="SourceAlpha" result="shadowOffsetOuter1"></feOffset><feGaussianBlur color-interpolation-filters="linearRGB" in="shadowOffsetOuter1" result="shadowBlurOuter1" stdDeviation="16 16"></feGaussianBlur><feColorMatrix color-interpolation-filters="linearRGB" in="shadowBlurOuter1" result="result3" type="matrix" values="0 0 0 0 0.497746122 0 0 0 0 0.377865761 0 0 0 0 0.0524762104 0 0 0 0.694875437 0"></feColorMatrix></filter><filter height="1.365" id="filter-15" node-id="46" width="1.457" x="-0.264" y="-0.182"><feGaussianBlur color-interpolation-filters="linearRGB" in="SourceAlpha" result="shadowBlurInner1" stdDeviation="56 56"></feGaussianBlur><feOffset color-interpolation-filters="linearRGB" dx="-32" dy="0" in="shadowBlurInner1" result="shadowOffsetInner1"></feOffset><feComposite color-interpolation-filters="linearRGB" in="shadowOffsetInner1" in2="SourceAlpha" k1="0" k2="-1" k3="1" k4="0" operator="arithmetic" result="shadowInnerInner1"></feComposite><feColorMatrix color-interpolation-filters="linearRGB" in="shadowInnerInner1" result="result4" type="matrix" values="0 0 0 0 0.870881454 0 0 0 0 0.663921629 0 0 0 0 0.194566313 0 0 0 1 0"></feColorMatrix></filter></defs><g node-id="244"><path d="M 0.00 0.00 L 1024.00 0.00 L 1024.00 1024.00 L 0.00 1024.00 Z" fill="none" group-id="1" id="矩形备份-7" node-id="56" stroke="none" target-height="1024" target-width="1024" target-x="0" target-y="0"></path><g node-id="245"><g node-id="246"><g node-id="253"><path d="M 448.33 96.38 L 462.74 96.01 L 476.85 96.26 L 490.68 97.12 L 504.25 98.56 L 517.58 100.60 L 530.92 103.25 L 543.92 106.45 L 556.61 110.18 L 568.99 114.44 L 581.09 119.24 L 593.02 124.62 L 604.57 130.48 L 615.76 136.81 L 626.59 143.63 L 637.10 150.95 L 647.27 158.75 L 657.01 166.99 L 666.35 175.66 L 675.29 184.77 L 683.83 194.34 L 691.90 204.28 L 699.49 214.61 L 706.63 225.35 L 713.30 236.49 L 719.52 248.07 L 730.83 253.33 L 741.99 258.98 L 753.01 265.01 L 763.88 271.43 L 774.62 278.25 L 787.69 287.24 L 800.40 296.74 L 812.74 306.77 L 824.73 317.34 L 834.01 326.15 L 842.97 335.23 L 851.60 344.59 L 859.93 354.24 L 867.94 364.18 L 875.61 374.40 L 882.88 384.85 L 889.75 395.53 L 896.23 406.44 L 902.32 417.61 L 907.99 428.99 L 913.18 440.56 L 917.91 452.32 L 922.16 464.28 L 925.96 476.45 L 929.23 488.74 L 931.97 501.18 L 934.16 513.79 L 935.82 526.58 L 936.93 539.55 L 937.45 552.48 L 937.35 565.54 L 936.64 578.77 L 935.30 592.16 L 933.31 605.75 L 930.49 620.58 L 927.24 634.95 L 923.57 648.88 L 919.48 662.38 L 914.98 675.47 L 910.08 688.17 L 904.63 700.86 L 898.79 713.16 L 892.57 725.06 L 885.97 736.57 L 878.98 747.73 L 871.62 758.52 L 863.80 769.08 L 855.62 779.28 L 847.08 789.13 L 838.18 798.64 L 828.91 807.81 L 819.26 816.64 L 809.32 825.09 L 799.04 833.20 L 788.42 840.98 L 777.43 848.44 L 766.08 855.57 L 754.35 862.38 L 745.63 867.78 L 736.29 873.07 L 726.29 878.22 L 715.61 883.24 L 704.96 887.78 L 693.55 892.19 L 681.34 896.45 L 668.30 900.56 L 655.42 904.20 L 641.65 907.67 L 626.94 910.97 L 611.25 914.08 L 595.85 916.75 L 579.42 919.23 L 561.93 921.49 L 543.32 923.53 L 522.17 925.39 L 501.42 926.75 L 481.07 927.61 L 461.11 927.98 L 441.52 927.87 L 421.66 927.26 L 402.28 926.15 L 383.37 924.54 L 364.91 922.45 L 346.89 919.89 L 328.69 916.75 L 311.04 913.11 L 293.91 908.98 L 277.29 904.39 L 261.16 899.32 L 247.66 894.59 L 234.57 889.51 L 221.88 884.11 L 209.57 878.37 L 197.63 872.30 L 186.05 865.90 L 174.58 859.00 L 163.53 851.76 L 152.89 844.18 L 142.64 836.25 L 132.77 827.97 L 123.29 819.34 L 114.14 810.30 L 105.42 800.89 L 97.11 791.11 L 89.21 780.93 L 81.70 770.36 L 74.59 759.39 L 68.03 748.22 L 61.90 736.64 L 56.20 724.62 L 50.92 712.15 L 46.08 699.21 L 41.68 685.77 L 37.93 672.48 L 34.63 658.70 L 31.81 644.41 L 29.46 629.58 L 27.62 614.19 L 26.29 598.22 L 25.61 583.09 L 25.50 568.57 L 25.93 554.63 L 26.88 541.24 L 28.33 528.37 L 30.37 515.28 L 32.89 502.70 L 35.87 490.60 L 39.31 478.97 L 43.19 467.78 L 47.65 456.62 L 52.53 445.89 L 57.82 435.54 L 63.52 425.58 L 69.65 415.98 L 76.24 406.63 L 83.21 397.62 L 90.56 388.93 L 98.32 380.56 L 106.47 372.50 L 114.93 364.81 L 123.75 357.41 L 132.93 350.29 L 142.49 343.45 L 152.44 336.88 L 155.37 323.41 L 158.66 310.46 L 162.31 298.03 L 166.30 286.10 L 170.63 274.63 L 175.29 263.62 L 180.28 253.05 L 185.85 242.41 L 191.73 232.20 L 197.91 222.43 L 204.41 213.08 L 211.21 204.13 L 218.32 195.57 L 225.75 187.38 L 234.93 178.18 L 244.49 169.49 L 254.45 161.29 L 264.83 153.58 L 275.64 146.34 L 286.89 139.58 L 298.34 133.40 L 310.18 127.67 L 322.43 122.40 L 335.09 117.59 L 348.18 113.23 L 361.74 109.34 L 375.17 106.05 L 388.98 103.20 L 403.19 100.79 L 417.81 98.85 L 432.85 97.37 L 448.33 96.38 Z" fill="url(#radialGradient-1)" fill-rule="evenodd" group-id="1,2,3,10" node-id="176" stroke="none" target-height="831.9669" target-width="911.9464" target-x="25.500257" target-y="96.01346"></path></g><path d="M 448.33 96.38 L 462.74 96.01 L 476.85 96.26 L 490.68 97.12 L 504.25 98.56 L 517.58 100.60 L 530.92 103.25 L 543.92 106.45 L 556.61 110.18 L 568.99 114.44 L 581.09 119.24 L 593.02 124.62 L 604.57 130.48 L 615.76 136.81 L 626.59 143.63 L 637.10 150.95 L 647.27 158.75 L 657.01 166.99 L 666.35 175.66 L 675.29 184.77 L 683.83 194.34 L 691.90 204.28 L 699.49 214.61 L 706.63 225.35 L 713.30 236.49 L 719.52 248.07 L 730.83 253.33 L 741.99 258.98 L 753.01 265.01 L 763.88 271.43 L 774.62 278.25 L 787.69 287.24 L 800.40 296.74 L 812.74 306.77 L 824.73 317.34 L 834.01 326.15 L 842.97 335.23 L 851.60 344.59 L 859.93 354.24 L 867.94 364.18 L 875.61 374.40 L 882.88 384.85 L 889.75 395.53 L 896.23 406.44 L 902.32 417.61 L 907.99 428.99 L 913.18 440.56 L 917.91 452.32 L 922.16 464.28 L 925.96 476.45 L 929.23 488.74 L 931.97 501.18 L 934.16 513.79 L 935.82 526.58 L 936.93 539.55 L 937.45 552.48 L 937.35 565.54 L 936.64 578.77 L 935.30 592.16 L 933.31 605.75 L 930.49 620.58 L 927.24 634.95 L 923.57 648.88 L 919.48 662.38 L 914.98 675.47 L 910.08 688.17 L 904.63 700.86 L 898.79 713.16 L 892.57 725.06 L 885.97 736.57 L 878.98 747.73 L 871.62 758.52 L 863.80 769.08 L 855.62 779.28 L 847.08 789.13 L 838.18 798.64 L 828.91 807.81 L 819.26 816.64 L 809.32 825.09 L 799.04 833.20 L 788.42 840.98 L 777.43 848.44 L 766.08 855.57 L 754.35 862.38 L 745.63 867.78 L 736.29 873.07 L 726.29 878.22 L 715.61 883.24 L 704.96 887.78 L 693.55 892.19 L 681.34 896.45 L 668.30 900.56 L 655.42 904.20 L 641.65 907.67 L 626.94 910.97 L 611.25 914.08 L 595.85 916.75 L 579.42 919.23 L 561.93 921.49 L 543.32 923.53 L 522.17 925.39 L 501.42 926.75 L 481.07 927.61 L 461.11 927.98 L 441.52 927.87 L 421.66 927.26 L 402.28 926.15 L 383.37 924.54 L 364.91 922.45 L 346.89 919.89 L 328.69 916.75 L 311.04 913.11 L 293.91 908.98 L 277.29 904.39 L 261.16 899.32 L 247.66 894.59 L 234.57 889.51 L 221.88 884.11 L 209.57 878.37 L 197.63 872.30 L 186.05 865.90 L 174.58 859.00 L 163.53 851.76 L 152.89 844.18 L 142.64 836.25 L 132.77 827.97 L 123.29 819.34 L 114.14 810.30 L 105.42 800.89 L 97.11 791.11 L 89.21 780.93 L 81.70 770.36 L 74.59 759.39 L 68.03 748.22 L 61.90 736.64 L 56.20 724.62 L 50.92 712.15 L 46.08 699.21 L 41.68 685.77 L 37.93 672.48 L 34.63 658.70 L 31.81 644.41 L 29.46 629.58 L 27.62 614.19 L 26.29 598.22 L 25.61 583.09 L 25.50 568.57 L 25.93 554.63 L 26.88 541.24 L 28.33 528.37 L 30.37 515.28 L 32.89 502.70 L 35.87 490.60 L 39.31 478.97 L 43.19 467.78 L 47.65 456.62 L 52.53 445.89 L 57.82 435.54 L 63.52 425.58 L 69.65 415.98 L 76.24 406.63 L 83.21 397.62 L 90.56 388.93 L 98.32 380.56 L 106.47 372.50 L 114.93 364.81 L 123.75 357.41 L 132.93 350.29 L 142.49 343.45 L 152.44 336.88 L 155.37 323.41 L 158.66 310.46 L 162.31 298.03 L 166.30 286.10 L 170.63 274.63 L 175.29 263.62 L 180.28 253.05 L 185.85 242.41 L 191.73 232.20 L 197.91 222.43 L 204.41 213.08 L 211.21 204.13 L 218.32 195.57 L 225.75 187.38 L 234.93 178.18 L 244.49 169.49 L 254.45 161.29 L 264.83 153.58 L 275.64 146.34 L 286.89 139.58 L 298.34 133.40 L 310.18 127.67 L 322.43 122.40 L 335.09 117.59 L 348.18 113.23 L 361.74 109.34 L 375.17 106.05 L 388.98 103.20 L 403.19 100.79 L 417.81 98.85 L 432.85 97.37 L 448.33 96.38 Z" fill="#000000" fill-rule="evenodd" filter="url(#filter-3)" group-id="1,2,3,11" node-id="181" stroke="none" target-height="831.9669" target-width="911.9464" target-x="25.500257" target-y="96.01346"></path></g><g node-id="247"><path d="M 800.00 512.00 L 799.69 518.63 L 798.84 525.04 L 797.44 531.25 L 795.51 537.29 L 793.07 543.15 L 790.18 548.76 L 786.84 554.12 L 783.02 559.25 L 778.82 564.06 L 774.26 568.54 L 769.31 572.71 L 763.97 576.56 L 758.38 580.00 L 752.50 583.04 L 746.32 585.68 L 739.81 587.92 L 733.20 589.67 L 726.38 590.94 L 719.32 591.72 L 712.00 592.00 L 704.68 591.72 L 697.62 590.94 L 690.80 589.67 L 684.19 587.92 L 677.68 585.68 L 671.50 583.04 L 665.62 580.00 L 660.03 576.56 L 654.69 572.71 L 649.74 568.54 L 645.18 564.06 L 640.98 559.25 L 637.16 554.12 L 633.82 548.76 L 630.93 543.15 L 628.49 537.29 L 626.56 531.25 L 625.16 525.04 L 624.31 518.63 L 624.00 512.00 L 624.31 505.37 L 625.16 498.96 L 626.56 492.75 L 628.49 486.71 L 630.93 480.85 L 633.82 475.24 L 637.16 469.88 L 640.98 464.75 L 645.18 459.94 L 649.74 455.46 L 654.69 451.29 L 660.03 447.44 L 665.62 444.00 L 671.50 440.96 L 677.68 438.32 L 684.19 436.08 L 690.80 434.33 L 697.62 433.06 L 704.68 432.28 L 712.00 432.00 L 719.32 432.28 L 726.38 433.06 L 733.20 434.33 L 739.81 436.08 L 746.32 438.32 L 752.50 440.96 L 758.38 444.00 L 763.97 447.44 L 769.31 451.29 L 774.26 455.46 L 778.82 459.94 L 783.02 464.75 L 786.84 469.88 L 790.18 475.24 L 793.07 480.85 L 795.51 486.71 L 797.44 492.75 L 798.84 498.96 L 799.69 505.37 L 800.00 512.00 Z" fill="#ff5ea4" fill-opacity="0.8" fill-rule="evenodd" filter="url(#filter-4)" group-id="1,2,4" id="椭圆形" node-id="61" stroke="none" target-height="160" target-width="176" target-x="624" target-y="432"></path></g><g node-id="248"><path d="M 320.00 512.00 L 319.69 518.63 L 318.84 525.04 L 317.44 531.25 L 315.51 537.29 L 313.07 543.15 L 310.18 548.76 L 306.84 554.12 L 303.02 559.25 L 298.82 564.06 L 294.26 568.54 L 289.31 572.71 L 283.97 576.56 L 278.38 580.00 L 272.50 583.04 L 266.32 585.68 L 259.81 587.92 L 253.20 589.67 L 246.38 590.94 L 239.32 591.72 L 232.00 592.00 L 224.68 591.72 L 217.62 590.94 L 210.80 589.67 L 204.19 587.92 L 197.68 585.68 L 191.50 583.04 L 185.62 580.00 L 180.03 576.56 L 174.69 572.71 L 169.74 568.54 L 165.18 564.06 L 160.98 559.25 L 157.16 554.12 L 153.82 548.76 L 150.93 543.15 L 148.49 537.29 L 146.56 531.25 L 145.16 525.04 L 144.31 518.63 L 144.00 512.00 L 144.31 505.37 L 145.16 498.96 L 146.56 492.75 L 148.49 486.71 L 150.93 480.85 L 153.82 475.24 L 157.16 469.88 L 160.98 464.75 L 165.18 459.94 L 169.74 455.46 L 174.69 451.29 L 180.03 447.44 L 185.62 444.00 L 191.50 440.96 L 197.68 438.32 L 204.19 436.08 L 210.80 434.33 L 217.62 433.06 L 224.68 432.28 L 232.00 432.00 L 239.32 432.28 L 246.38 433.06 L 253.20 434.33 L 259.81 436.08 L 266.32 438.32 L 272.50 440.96 L 278.38 444.00 L 283.97 447.44 L 289.31 451.29 L 294.26 455.46 L 298.82 459.94 L 303.02 464.75 L 306.84 469.88 L 310.18 475.24 L 313.07 480.85 L 315.51 486.71 L 317.44 492.75 L 318.84 498.96 L 319.69 505.37 L 320.00 512.00 Z" fill="#ff5ea4" fill-opacity="0.8" fill-rule="evenodd" filter="url(#filter-5)" group-id="1,2,5" id="椭圆形备份-6" node-id="62" stroke="none" target-height="160" target-width="176" target-x="144" target-y="432"></path></g><g node-id="249"><g node-id="255"><path d="M 404.80 408.00 L 404.49 415.96 L 403.63 423.53 L 402.23 430.76 L 400.28 437.85 L 397.89 444.43 L 395.08 450.52 L 391.75 456.34 L 388.11 461.52 L 384.17 466.11 L 380.88 469.27 L 377.49 472.02 L 373.97 474.36 L 370.33 476.33 L 366.50 477.92 L 362.58 479.06 L 358.55 479.75 L 354.40 480.00 L 350.25 479.75 L 346.22 479.06 L 342.30 477.92 L 338.47 476.33 L 334.83 474.36 L 331.31 472.02 L 327.92 469.27 L 324.63 466.11 L 320.69 461.52 L 317.05 456.34 L 313.72 450.52 L 310.91 444.43 L 308.52 437.85 L 306.57 430.76 L 305.17 423.53 L 304.31 415.96 L 304.00 408.00 L 304.31 400.04 L 305.17 392.47 L 306.57 385.24 L 308.52 378.15 L 310.91 371.57 L 313.72 365.48 L 317.05 359.66 L 320.69 354.48 L 324.63 349.89 L 327.92 346.73 L 331.31 343.98 L 334.83 341.64 L 338.47 339.67 L 342.30 338.08 L 346.22 336.94 L 350.25 336.25 L 354.40 336.00 L 358.55 336.25 L 362.58 336.94 L 366.50 338.08 L 370.33 339.67 L 373.97 341.64 L 377.49 343.98 L 380.88 346.73 L 384.17 349.89 L 388.11 354.48 L 391.75 359.66 L 395.08 365.48 L 397.89 371.57 L 400.28 378.15 L 402.23 385.24 L 403.63 392.47 L 404.49 400.04 L 404.80 408.00 Z" fill="#723004" fill-rule="evenodd" group-id="1,2,6,12" node-id="196" stroke="none" target-height="144" target-width="100.80002" target-x="304" target-y="336"></path></g><path d="M 404.80 408.00 L 404.49 415.96 L 403.63 423.53 L 402.23 430.76 L 400.28 437.85 L 397.89 444.43 L 395.08 450.52 L 391.75 456.34 L 388.11 461.52 L 384.17 466.11 L 380.88 469.27 L 377.49 472.02 L 373.97 474.36 L 370.33 476.33 L 366.50 477.92 L 362.58 479.06 L 358.55 479.75 L 354.40 480.00 L 350.25 479.75 L 346.22 479.06 L 342.30 477.92 L 338.47 476.33 L 334.83 474.36 L 331.31 472.02 L 327.92 469.27 L 324.63 466.11 L 320.69 461.52 L 317.05 456.34 L 313.72 450.52 L 310.91 444.43 L 308.52 437.85 L 306.57 430.76 L 305.17 423.53 L 304.31 415.96 L 304.00 408.00 L 304.31 400.04 L 305.17 392.47 L 306.57 385.24 L 308.52 378.15 L 310.91 371.57 L 313.72 365.48 L 317.05 359.66 L 320.69 354.48 L 324.63 349.89 L 327.92 346.73 L 331.31 343.98 L 334.83 341.64 L 338.47 339.67 L 342.30 338.08 L 346.22 336.94 L 350.25 336.25 L 354.40 336.00 L 358.55 336.25 L 362.58 336.94 L 366.50 338.08 L 370.33 339.67 L 373.97 341.64 L 377.49 343.98 L 380.88 346.73 L 384.17 349.89 L 388.11 354.48 L 391.75 359.66 L 395.08 365.48 L 397.89 371.57 L 400.28 378.15 L 402.23 385.24 L 403.63 392.47 L 404.49 400.04 L 404.80 408.00 Z" fill="#000000" fill-rule="evenodd" filter="url(#filter-7)" group-id="1,2,6,13" node-id="201" stroke="none" target-height="144" target-width="100.80002" target-x="304" target-y="336"></path></g><g node-id="250"><g node-id="257"><path d="M 649.60 408.00 L 649.29 415.96 L 648.43 423.53 L 647.03 430.76 L 645.08 437.85 L 642.69 444.43 L 639.88 450.52 L 636.55 456.34 L 632.91 461.52 L 628.97 466.11 L 625.68 469.27 L 622.29 472.02 L 618.77 474.36 L 615.13 476.33 L 611.29 477.92 L 607.38 479.06 L 603.35 479.75 L 599.20 480.00 L 595.05 479.75 L 591.02 479.06 L 587.10 477.92 L 583.27 476.33 L 579.63 474.36 L 576.11 472.02 L 572.72 469.27 L 569.43 466.11 L 565.49 461.52 L 561.85 456.34 L 558.52 450.52 L 555.71 444.43 L 553.32 437.85 L 551.37 430.76 L 549.97 423.53 L 549.11 415.96 L 548.80 408.00 L 549.11 400.04 L 549.97 392.47 L 551.37 385.24 L 553.32 378.15 L 555.71 371.57 L 558.52 365.48 L 561.85 359.66 L 565.49 354.48 L 569.43 349.89 L 572.72 346.73 L 576.11 343.98 L 579.63 341.64 L 583.27 339.67 L 587.10 338.08 L 591.02 336.94 L 595.05 336.25 L 599.20 336.00 L 603.35 336.25 L 607.38 336.94 L 611.30 338.08 L 615.13 339.67 L 618.77 341.64 L 622.29 343.98 L 625.68 346.73 L 628.97 349.89 L 632.91 354.48 L 636.55 359.66 L 639.88 365.48 L 642.69 371.57 L 645.08 378.15 L 647.03 385.24 L 648.43 392.47 L 649.29 400.04 L 649.60 408.00 Z" fill="#723004" fill-rule="evenodd" group-id="1,2,7,14" node-id="208" stroke="none" target-height="144" target-width="100.79999" target-x="548.8" target-y="336"></path></g><path d="M 649.60 408.00 L 649.29 415.96 L 648.43 423.53 L 647.03 430.76 L 645.08 437.85 L 642.69 444.43 L 639.88 450.52 L 636.55 456.34 L 632.91 461.52 L 628.97 466.11 L 625.68 469.27 L 622.29 472.02 L 618.77 474.36 L 615.13 476.33 L 611.29 477.92 L 607.38 479.06 L 603.35 479.75 L 599.20 480.00 L 595.05 479.75 L 591.02 479.06 L 587.10 477.92 L 583.27 476.33 L 579.63 474.36 L 576.11 472.02 L 572.72 469.27 L 569.43 466.11 L 565.49 461.52 L 561.85 456.34 L 558.52 450.52 L 555.71 444.43 L 553.32 437.85 L 551.37 430.76 L 549.97 423.53 L 549.11 415.96 L 548.80 408.00 L 549.11 400.04 L 549.97 392.47 L 551.37 385.24 L 553.32 378.15 L 555.71 371.57 L 558.52 365.48 L 561.85 359.66 L 565.49 354.48 L 569.43 349.89 L 572.72 346.73 L 576.11 343.98 L 579.63 341.64 L 583.27 339.67 L 587.10 338.08 L 591.02 336.94 L 595.05 336.25 L 599.20 336.00 L 603.35 336.25 L 607.38 336.94 L 611.30 338.08 L 615.13 339.67 L 618.77 341.64 L 622.29 343.98 L 625.68 346.73 L 628.97 349.89 L 632.91 354.48 L 636.55 359.66 L 639.88 365.48 L 642.69 371.57 L 645.08 378.15 L 647.03 385.24 L 648.43 392.47 L 649.29 400.04 L 649.60 408.00 Z" fill="#000000" fill-rule="evenodd" filter="url(#filter-9)" group-id="1,2,7,15" node-id="213" stroke="none" target-height="144" target-width="100.79999" target-x="548.8" target-y="336"></path></g><g node-id="251"><g node-id="259"><path d="M 277.43 613.30 L 284.70 620.40 L 292.33 627.33 L 300.31 634.09 L 308.67 640.69 L 317.21 646.96 L 326.04 652.97 L 335.15 658.72 L 344.56 664.20 L 354.15 669.32 L 363.94 674.09 L 373.96 678.50 L 384.20 682.56 L 394.58 686.21 L 405.12 689.41 L 415.81 692.18 L 426.67 694.51 L 437.60 696.35 L 448.63 697.68 L 459.77 698.49 L 471.04 698.77 L 485.16 698.43 L 498.72 697.52 L 511.74 696.07 L 524.24 694.09 L 536.80 691.54 L 548.82 688.59 L 560.34 685.26 L 571.37 681.56 L 582.37 677.39 L 592.86 672.98 L 602.85 668.35 L 612.36 663.51 L 624.87 656.52 L 636.45 649.42 L 647.16 642.22 L 657.62 634.61 L 667.11 627.21 L 675.70 620.02 L 684.10 612.55 L 691.48 605.62 L 697.94 599.20 L 699.13 598.29 L 700.41 597.75 L 701.81 597.57 L 703.21 597.73 L 704.49 598.25 L 705.70 599.14 L 706.61 600.32 L 707.16 601.66 L 707.34 603.09 L 707.13 604.56 L 705.66 609.39 L 704.29 613.30 L 700.74 621.78 L 696.66 630.05 L 692.04 638.12 L 686.86 646.01 L 681.10 653.72 L 674.96 661.00 L 668.32 668.05 L 661.13 674.87 L 653.39 681.46 L 645.07 687.83 L 636.58 693.66 L 627.59 699.20 L 618.06 704.46 L 607.98 709.42 L 597.31 714.08 L 586.68 718.19 L 575.55 721.93 L 563.90 725.32 L 551.70 728.34 L 538.93 730.96 L 526.37 733.05 L 513.32 734.70 L 499.76 735.91 L 485.67 736.66 L 471.04 736.93 L 458.48 736.66 L 445.55 735.82 L 432.21 734.38 L 418.95 732.35 L 405.64 729.69 L 392.27 726.37 L 382.35 723.45 L 372.57 720.15 L 362.94 716.45 L 353.44 712.36 L 344.12 707.86 L 335.12 702.94 L 326.40 697.60 L 317.96 691.84 L 309.86 685.63 L 302.18 678.97 L 294.93 671.85 L 288.08 664.26 L 282.99 657.90 L 278.24 651.22 L 273.84 644.21 L 269.76 636.84 L 266.03 629.10 L 263.29 622.47 L 263.29 622.47 L 262.74 620.21 L 262.81 618.00 L 263.43 615.89 L 264.56 614.00 L 266.15 612.46 L 268.19 611.33 L 269.84 610.87 L 271.46 610.74 L 273.10 610.93 L 274.67 611.43 L 276.11 612.21 L 277.43 613.30 Z" fill="#ed1f2a" fill-rule="evenodd" group-id="1,2,8,16" node-id="220" stroke="none" target-height="139.36572" target-width="444.5991" target-x="262.74368" target-y="597.5657"></path></g><path d="M 277.43 613.30 L 284.70 620.40 L 292.33 627.33 L 300.31 634.09 L 308.67 640.69 L 317.21 646.96 L 326.04 652.97 L 335.15 658.72 L 344.56 664.20 L 354.15 669.32 L 363.94 674.09 L 373.96 678.50 L 384.20 682.56 L 394.58 686.21 L 405.12 689.41 L 415.81 692.18 L 426.67 694.51 L 437.60 696.35 L 448.63 697.68 L 459.77 698.49 L 471.04 698.77 L 485.16 698.43 L 498.72 697.52 L 511.74 696.07 L 524.24 694.09 L 536.80 691.54 L 548.82 688.59 L 560.34 685.26 L 571.37 681.56 L 582.37 677.39 L 592.86 672.98 L 602.85 668.35 L 612.36 663.51 L 624.87 656.52 L 636.45 649.42 L 647.16 642.22 L 657.62 634.61 L 667.11 627.21 L 675.70 620.02 L 684.10 612.55 L 691.48 605.62 L 697.94 599.20 L 699.13 598.29 L 700.41 597.75 L 701.81 597.57 L 703.21 597.73 L 704.49 598.25 L 705.70 599.14 L 706.61 600.32 L 707.16 601.66 L 707.34 603.09 L 707.13 604.56 L 705.66 609.39 L 704.29 613.30 L 700.74 621.78 L 696.66 630.05 L 692.04 638.12 L 686.86 646.01 L 681.10 653.72 L 674.96 661.00 L 668.32 668.05 L 661.13 674.87 L 653.39 681.46 L 645.07 687.83 L 636.58 693.66 L 627.59 699.20 L 618.06 704.46 L 607.98 709.42 L 597.31 714.08 L 586.68 718.19 L 575.55 721.93 L 563.90 725.32 L 551.70 728.34 L 538.93 730.96 L 526.37 733.05 L 513.32 734.70 L 499.76 735.91 L 485.67 736.66 L 471.04 736.93 L 458.48 736.66 L 445.55 735.82 L 432.21 734.38 L 418.95 732.35 L 405.64 729.69 L 392.27 726.37 L 382.35 723.45 L 372.57 720.15 L 362.94 716.45 L 353.44 712.36 L 344.12 707.86 L 335.12 702.94 L 326.40 697.60 L 317.96 691.84 L 309.86 685.63 L 302.18 678.97 L 294.93 671.85 L 288.08 664.26 L 282.99 657.90 L 278.24 651.22 L 273.84 644.21 L 269.76 636.84 L 266.03 629.10 L 263.29 622.47 L 263.29 622.47 L 262.74 620.21 L 262.81 618.00 L 263.43 615.89 L 264.56 614.00 L 266.15 612.46 L 268.19 611.33 L 269.84 610.87 L 271.46 610.74 L 273.10 610.93 L 274.67 611.43 L 276.11 612.21 L 277.43 613.30 Z" fill="#000000" fill-rule="evenodd" filter="url(#filter-11)" group-id="1,2,8,17" node-id="225" stroke="none" target-height="139.36572" target-width="444.5991" target-x="262.74368" target-y="597.5657"></path></g><g node-id="252"><g node-id="261"><path d="M 605.30 870.11 L 614.58 881.28 L 623.81 891.51 L 633.00 900.84 L 642.15 909.31 L 651.26 916.97 L 660.34 923.86 L 669.40 930.01 L 678.45 935.46 L 687.49 940.24 L 696.55 944.37 L 705.63 947.88 L 714.75 950.79 L 723.93 953.10 L 733.17 954.83 L 742.51 955.98 L 751.95 956.56 L 761.51 956.55 L 771.22 955.96 L 781.09 954.76 L 791.15 952.95 L 801.40 950.50 L 811.88 947.38 L 822.60 943.58 L 833.57 939.04 L 844.83 933.75 L 856.37 927.66 L 864.65 922.72 L 872.67 917.32 L 880.46 911.45 L 888.02 905.08 L 895.35 898.20 L 902.29 891.04 L 908.98 883.48 L 915.44 875.51 L 921.67 867.12 L 927.66 858.28 L 934.60 847.02 L 941.13 835.26 L 947.27 822.97 L 953.00 810.15 L 958.19 797.17 L 962.94 783.83 L 967.24 770.14 L 971.11 756.06 L 974.46 741.90 L 977.34 727.55 L 979.74 713.01 L 981.67 698.27 L 983.11 683.48 L 984.04 668.69 L 984.48 653.87 L 984.42 639.03 L 983.85 624.19 L 982.77 609.51 L 981.17 594.99 L 979.07 580.61 L 976.41 566.28 L 973.23 552.29 L 969.53 538.62 L 965.32 525.26 L 961.50 514.64 L 957.35 504.34 L 952.86 494.35 L 948.04 484.65 L 942.89 475.22 L 937.30 465.98 L 931.37 457.12 L 925.09 448.64 L 918.47 440.53 L 911.49 432.77 L 907.81 428.99 L 907.81 428.99 L 901.91 423.42 L 895.85 418.27 L 889.63 413.53 L 883.23 409.18 L 876.66 405.22 L 868.12 400.74 L 859.44 396.88 L 850.59 393.62 L 841.57 390.95 L 832.38 388.87 L 823.15 387.39 L 813.86 386.50 L 804.51 386.20 L 795.15 386.50 L 785.87 387.39 L 776.64 388.87 L 767.45 390.95 L 758.42 393.62 L 749.58 396.88 L 740.89 400.74 L 732.35 405.22 L 725.78 409.18 L 719.38 413.53 L 713.16 418.27 L 707.10 423.42 L 701.20 428.99 L 695.09 435.50 L 689.43 442.28 L 684.23 449.36 L 679.46 456.74 L 675.14 464.40 L 671.31 472.27 L 667.96 480.35 L 665.08 488.65 L 662.71 497.11 L 660.85 505.70 L 659.51 514.43 L 658.69 523.32 L 648.00 688.80 L 648.00 688.80 L 643.88 672.84 L 639.71 658.88 L 635.52 646.75 L 631.33 636.29 L 627.16 627.32 L 623.01 619.69 L 618.91 613.27 L 614.86 607.93 L 610.86 603.54 L 606.89 599.99 L 602.96 597.19 L 599.04 595.08 L 595.11 593.57 L 591.13 592.65 L 587.06 592.28 L 582.88 592.47 L 578.53 593.24 L 573.97 594.64 L 569.17 596.72 L 563.29 599.99 L 558.02 603.53 L 553.32 607.33 L 549.15 611.42 L 545.47 615.78 L 542.18 620.50 L 539.28 625.50 L 536.78 630.79 L 534.68 636.40 L 532.97 642.35 L 531.42 649.82 L 530.36 657.76 L 529.81 666.19 L 529.80 675.16 L 530.25 683.97 L 531.10 693.19 L 532.39 702.85 L 534.12 712.96 L 535.86 721.66 L 536.82 726.07 L 538.92 735.01 L 538.92 735.01 L 541.23 744.09 L 541.23 744.09 L 543.75 753.29 L 545.07 757.94 L 549.40 771.99 L 553.99 785.15 L 558.83 797.46 L 563.90 808.97 L 569.20 819.71 L 574.71 829.72 L 580.43 839.05 L 586.35 847.72 L 592.47 855.76 L 598.78 863.22 L 605.30 870.11 Z" fill="#000000" fill-rule="evenodd" filter="url(#filter-14)" group-id="1,2,9,18" node-id="232" stroke="none" target-height="570.3552" target-width="454.68054" target-x="529.801" target-y="386.20035"></path></g><g node-id="262"><path d="M 605.30 870.11 L 614.58 881.28 L 623.81 891.51 L 633.00 900.84 L 642.15 909.31 L 651.26 916.97 L 660.34 923.86 L 669.40 930.01 L 678.45 935.46 L 687.49 940.24 L 696.55 944.37 L 705.63 947.88 L 714.75 950.79 L 723.93 953.10 L 733.17 954.83 L 742.51 955.98 L 751.95 956.56 L 761.51 956.55 L 771.22 955.96 L 781.09 954.76 L 791.15 952.95 L 801.40 950.50 L 811.88 947.38 L 822.60 943.58 L 833.57 939.04 L 844.83 933.75 L 856.37 927.66 L 864.65 922.72 L 872.67 917.32 L 880.46 911.45 L 888.02 905.08 L 895.35 898.20 L 902.29 891.04 L 908.98 883.48 L 915.44 875.51 L 921.67 867.12 L 927.66 858.28 L 934.60 847.02 L 941.13 835.26 L 947.27 822.97 L 953.00 810.15 L 958.19 797.17 L 962.94 783.83 L 967.24 770.14 L 971.11 756.06 L 974.46 741.90 L 977.34 727.55 L 979.74 713.01 L 981.67 698.27 L 983.11 683.48 L 984.04 668.69 L 984.48 653.87 L 984.42 639.03 L 983.85 624.19 L 982.77 609.51 L 981.17 594.99 L 979.07 580.61 L 976.41 566.28 L 973.23 552.29 L 969.53 538.62 L 965.32 525.26 L 961.50 514.64 L 957.35 504.34 L 952.86 494.35 L 948.04 484.65 L 942.89 475.22 L 937.30 465.98 L 931.37 457.12 L 925.09 448.64 L 918.47 440.53 L 911.49 432.77 L 907.81 428.99 L 907.81 428.99 L 901.91 423.42 L 895.85 418.27 L 889.63 413.53 L 883.23 409.18 L 876.66 405.22 L 868.12 400.74 L 859.44 396.88 L 850.59 393.62 L 841.57 390.95 L 832.38 388.87 L 823.15 387.39 L 813.86 386.50 L 804.51 386.20 L 795.15 386.50 L 785.87 387.39 L 776.64 388.87 L 767.45 390.95 L 758.42 393.62 L 749.58 396.88 L 740.89 400.74 L 732.35 405.22 L 725.78 409.18 L 719.38 413.53 L 713.16 418.27 L 707.10 423.42 L 701.20 428.99 L 695.09 435.50 L 689.43 442.28 L 684.23 449.36 L 679.46 456.74 L 675.14 464.40 L 671.31 472.27 L 667.96 480.35 L 665.08 488.65 L 662.71 497.11 L 660.85 505.70 L 659.51 514.43 L 658.69 523.32 L 648.00 688.80 L 648.00 688.80 L 643.88 672.84 L 639.71 658.88 L 635.52 646.75 L 631.33 636.29 L 627.16 627.32 L 623.01 619.69 L 618.91 613.27 L 614.86 607.93 L 610.86 603.54 L 606.89 599.99 L 602.96 597.19 L 599.04 595.08 L 595.11 593.57 L 591.13 592.65 L 587.06 592.28 L 582.88 592.47 L 578.53 593.24 L 573.97 594.64 L 569.17 596.72 L 563.29 599.99 L 558.02 603.53 L 553.32 607.33 L 549.15 611.42 L 545.47 615.78 L 542.18 620.50 L 539.28 625.50 L 536.78 630.79 L 534.68 636.40 L 532.97 642.35 L 531.42 649.82 L 530.36 657.76 L 529.81 666.19 L 529.80 675.16 L 530.25 683.97 L 531.10 693.19 L 532.39 702.85 L 534.12 712.96 L 535.86 721.66 L 536.82 726.07 L 538.92 735.01 L 538.92 735.01 L 541.23 744.09 L 541.23 744.09 L 543.75 753.29 L 545.07 757.94 L 549.40 771.99 L 553.99 785.15 L 558.83 797.46 L 563.90 808.97 L 569.20 819.71 L 574.71 829.72 L 580.43 839.05 L 586.35 847.72 L 592.47 855.76 L 598.78 863.22 L 605.30 870.11 Z" fill="url(#linearGradient-12)" fill-rule="evenodd" group-id="1,2,9,19" node-id="237" stroke="none" target-height="570.3552" target-width="454.68054" target-x="529.801" target-y="386.20035"></path></g><path d="M 605.30 870.11 L 614.58 881.28 L 623.81 891.51 L 633.00 900.84 L 642.15 909.31 L 651.26 916.97 L 660.34 923.86 L 669.40 930.01 L 678.45 935.46 L 687.49 940.24 L 696.55 944.37 L 705.63 947.88 L 714.75 950.79 L 723.93 953.10 L 733.17 954.83 L 742.51 955.98 L 751.95 956.56 L 761.51 956.55 L 771.22 955.96 L 781.09 954.76 L 791.15 952.95 L 801.40 950.50 L 811.88 947.38 L 822.60 943.58 L 833.57 939.04 L 844.83 933.75 L 856.37 927.66 L 864.65 922.72 L 872.67 917.32 L 880.46 911.45 L 888.02 905.08 L 895.35 898.20 L 902.29 891.04 L 908.98 883.48 L 915.44 875.51 L 921.67 867.12 L 927.66 858.28 L 934.60 847.02 L 941.13 835.26 L 947.27 822.97 L 953.00 810.15 L 958.19 797.17 L 962.94 783.83 L 967.24 770.14 L 971.11 756.06 L 974.46 741.90 L 977.34 727.55 L 979.74 713.01 L 981.67 698.27 L 983.11 683.48 L 984.04 668.69 L 984.48 653.87 L 984.42 639.03 L 983.85 624.19 L 982.77 609.51 L 981.17 594.99 L 979.07 580.61 L 976.41 566.28 L 973.23 552.29 L 969.53 538.62 L 965.32 525.26 L 961.50 514.64 L 957.35 504.34 L 952.86 494.35 L 948.04 484.65 L 942.89 475.22 L 937.30 465.98 L 931.37 457.12 L 925.09 448.64 L 918.47 440.53 L 911.49 432.77 L 907.81 428.99 L 907.81 428.99 L 901.91 423.42 L 895.85 418.27 L 889.63 413.53 L 883.23 409.18 L 876.66 405.22 L 868.12 400.74 L 859.44 396.88 L 850.59 393.62 L 841.57 390.95 L 832.38 388.87 L 823.15 387.39 L 813.86 386.50 L 804.51 386.20 L 795.15 386.50 L 785.87 387.39 L 776.64 388.87 L 767.45 390.95 L 758.42 393.62 L 749.58 396.88 L 740.89 400.74 L 732.35 405.22 L 725.78 409.18 L 719.38 413.53 L 713.16 418.27 L 707.10 423.42 L 701.20 428.99 L 695.09 435.50 L 689.43 442.28 L 684.23 449.36 L 679.46 456.74 L 675.14 464.40 L 671.31 472.27 L 667.96 480.35 L 665.08 488.65 L 662.71 497.11 L 660.85 505.70 L 659.51 514.43 L 658.69 523.32 L 648.00 688.80 L 648.00 688.80 L 643.88 672.84 L 639.71 658.88 L 635.52 646.75 L 631.33 636.29 L 627.16 627.32 L 623.01 619.69 L 618.91 613.27 L 614.86 607.93 L 610.86 603.54 L 606.89 599.99 L 602.96 597.19 L 599.04 595.08 L 595.11 593.57 L 591.13 592.65 L 587.06 592.28 L 582.88 592.47 L 578.53 593.24 L 573.97 594.64 L 569.17 596.72 L 563.29 599.99 L 558.02 603.53 L 553.32 607.33 L 549.15 611.42 L 545.47 615.78 L 542.18 620.50 L 539.28 625.50 L 536.78 630.79 L 534.68 636.40 L 532.97 642.35 L 531.42 649.82 L 530.36 657.76 L 529.81 666.19 L 529.80 675.16 L 530.25 683.97 L 531.10 693.19 L 532.39 702.85 L 534.12 712.96 L 535.86 721.66 L 536.82 726.07 L 538.92 735.01 L 538.92 735.01 L 541.23 744.09 L 541.23 744.09 L 543.75 753.29 L 545.07 757.94 L 549.40 771.99 L 553.99 785.15 L 558.83 797.46 L 563.90 808.97 L 569.20 819.71 L 574.71 829.72 L 580.43 839.05 L 586.35 847.72 L 592.47 855.76 L 598.78 863.22 L 605.30 870.11 Z" fill="#000000" fill-rule="evenodd" filter="url(#filter-15)" group-id="1,2,9,20" node-id="242" stroke="none" target-height="570.3552" target-width="454.68054" target-x="529.801" target-y="386.20035"></path></g><path d="M 804.51 390.20 L 813.60 390.49 L 822.63 391.35 L 831.61 392.80 L 840.55 394.82 L 849.32 397.41 L 857.92 400.58 L 866.37 404.34 L 874.67 408.69 L 881.06 412.54 L 887.28 416.77 L 893.34 421.38 L 899.23 426.38 L 904.97 431.80 L 904.97 431.80 L 908.61 435.54 L 915.47 443.18 L 921.99 451.16 L 928.17 459.51 L 934.00 468.22 L 939.50 477.32 L 944.57 486.59 L 949.31 496.14 L 953.72 505.97 L 957.81 516.10 L 961.56 526.54 L 965.70 539.69 L 969.35 553.13 L 972.48 566.90 L 975.10 580.99 L 977.18 595.13 L 978.76 609.42 L 979.84 623.86 L 980.42 638.46 L 980.50 653.06 L 980.09 667.63 L 979.20 682.19 L 977.82 696.73 L 975.95 711.32 L 973.61 725.72 L 970.80 739.92 L 967.52 753.96 L 963.75 767.91 L 959.53 781.49 L 954.87 794.71 L 949.78 807.58 L 944.15 820.31 L 938.12 832.50 L 931.68 844.17 L 924.85 855.34 L 918.95 864.11 L 912.81 872.44 L 906.44 880.35 L 899.83 887.85 L 892.98 894.96 L 885.73 901.78 L 878.26 908.09 L 870.56 913.92 L 862.62 919.27 L 854.43 924.16 L 843.00 930.20 L 831.87 935.44 L 821.01 939.92 L 810.41 943.67 L 800.04 946.73 L 789.90 949.12 L 779.96 950.88 L 770.20 952.02 L 760.59 952.56 L 751.14 952.51 L 741.80 951.88 L 732.57 950.67 L 723.42 948.89 L 714.53 946.55 L 705.70 943.64 L 696.89 940.16 L 688.11 936.07 L 679.34 931.36 L 670.57 926.00 L 661.79 919.97 L 652.98 913.24 L 644.15 905.76 L 635.28 897.50 L 626.37 888.42 L 617.42 878.47 L 608.42 867.61 L 602.22 861.06 L 596.21 854.01 L 590.39 846.45 L 584.77 838.35 L 579.34 829.69 L 574.11 820.43 L 568.56 809.45 L 563.24 797.64 L 558.19 784.97 L 553.41 771.38 L 548.91 756.83 L 547.60 752.23 L 547.60 752.23 L 545.10 743.07 L 542.80 734.06 L 540.72 725.18 L 539.78 720.85 L 539.78 720.85 L 538.05 712.20 L 536.46 702.96 L 535.24 694.11 L 534.36 685.60 L 533.85 677.07 L 533.75 668.97 L 534.07 661.27 L 534.86 653.61 L 536.13 646.42 L 537.86 639.64 L 539.58 634.56 L 541.62 629.77 L 544.00 625.23 L 546.70 620.92 L 549.75 616.85 L 553.11 613.09 L 556.87 609.55 L 561.08 606.25 L 565.76 603.16 L 570.95 600.31 L 575.61 598.28 L 580.02 596.99 L 584.22 596.36 L 588.26 596.35 L 592.19 596.93 L 596.00 598.14 L 599.78 599.96 L 603.55 602.45 L 607.34 605.68 L 611.16 609.75 L 614.68 614.22 L 618.23 619.49 L 621.81 625.67 L 625.42 632.84 L 629.06 641.12 L 632.70 650.62 L 636.23 661.10 L 639.75 672.93 L 643.26 686.22 L 646.73 701.11 L 650.15 717.72 L 650.15 717.72 L 662.68 523.57 L 663.48 514.93 L 664.78 506.43 L 666.59 498.08 L 668.90 489.85 L 671.70 481.77 L 674.96 473.91 L 678.69 466.26 L 682.89 458.81 L 687.52 451.63 L 692.58 444.75 L 698.08 438.15 L 704.03 431.82 L 709.77 426.40 L 715.66 421.39 L 721.71 416.78 L 727.93 412.55 L 734.33 408.70 L 742.63 404.34 L 751.08 400.59 L 759.68 397.42 L 768.46 394.82 L 777.40 392.80 L 786.38 391.35 L 795.41 390.49 L 804.51 390.20 Z" fill="none" group-id="1,2" id="路径-45" node-id="76" stroke="url(#linearGradient-16)" stroke-linecap="butt" stroke-width="8" target-height="562.36" target-width="446.74115" target-x="533.7548" target-y="390.20035"></path></g></g></svg>