<?xml version="1.0" standalone="no"?><!DOCTYPE svg PUBLIC "-//W3C//DTD SVG 1.1//EN" "http://www.w3.org/Graphics/SVG/1.1/DTD/svg11.dtd"><svg t="1693469314712" class="icon" viewBox="0 0 1024 1024" version="1.1" xmlns="http://www.w3.org/2000/svg" p-id="929" width="128" height="128" xmlns:xlink="http://www.w3.org/1999/xlink"><path d="M510.987439 550.676881" p-id="930" ></path><path d="M514.362302 519.000438c-41.970904 0-76.117608 34.146705-76.117608 76.116585 0 34.842553 23.539112 64.270792 55.54506 73.27077l0 122.680087c0 11.361769 9.209756 20.572548 20.572548 20.572548 11.362792 0 20.572548-9.211802 20.572548-20.572548L534.93485 668.38677c32.002878-8.999978 55.54506-38.428218 55.54506-73.27077C590.480934 553.147142 556.334229 519.000438 514.362302 519.000438zM514.362302 630.088512c-19.283182 0-34.971489-15.687284-34.971489-34.971489 0-19.283182 15.688307-34.970466 34.971489-34.970466s34.972513 15.687284 34.972513 34.970466C549.334815 614.400205 533.645484 630.088512 514.362302 630.088512z" p-id="931" ></path><path d="M799.342846 396.082944l-498.401284 0 0-80.231299c0-117.120464 95.284133-212.405621 212.404598-212.405621 117.121488 0 212.404598 95.285157 212.404598 212.405621 0 11.361769 9.210779 20.572548 20.572548 20.572548s20.572548-9.210779 20.572548-20.572548c0-67.726497-26.373671-131.398656-74.262354-179.288362C644.744815 88.674599 581.071633 62.300928 513.345136 62.300928c-67.725474 0-131.397632 26.373671-179.287339 74.263377s-74.263377 111.561865-74.263377 179.288362l0 80.231299-32.44597 0c-32.207539 0-58.317197 26.109658-58.317197 58.317197l0 445.901583c0 32.208563 26.109658 58.31822 58.317197 58.31822l571.993372 0c32.207539 0 58.317197-26.110681 58.317197-58.31822L857.659019 454.400141C857.660042 422.192601 831.549362 396.082944 799.342846 396.082944zM814.995337 888.426255c0 16.102746-13.056364 29.15911-29.15911 29.15911L239.849158 917.585365c-16.10377 0-29.15911-13.056364-29.15911-29.15911L210.690048 465.357703c0-16.10377 13.054317-29.15911 29.15911-29.15911l545.987069 0c16.102746 0 29.15911 13.05534 29.15911 29.15911L814.995337 888.426255z" p-id="932" ></path></svg>