<?xml version="1.0" standalone="no"?><!DOCTYPE svg PUBLIC "-//W3C//DTD SVG 1.1//EN" "http://www.w3.org/Graphics/SVG/1.1/DTD/svg11.dtd"><svg t="1693532866927" class="icon" viewBox="0 0 1024 1024" version="1.1" xmlns="http://www.w3.org/2000/svg" p-id="991" xmlns:xlink="http://www.w3.org/1999/xlink" width="128" height="128"><path d="M271.685818 26.205091l479.232 0.139636c15.825455 0 30.626909 6.144 41.751273 17.314909 11.170909 11.170909 17.314909 25.972364 17.314909 41.751273l-0.232727 853.364364c0 32.535273-26.530909 59.019636-59.112728 59.019636l-479.232-0.139636c-32.535273 0-59.019636-26.530909-59.019636-59.066182L212.619636 85.224727c0-32.535273 26.530909-59.019636 59.066182-59.019636z m0-26.205091C224.581818 0 186.414545 38.167273 186.414545 85.224727L186.181818 938.589091c0 47.104 38.167273 85.271273 85.224727 85.271273L750.685091 1024c47.104 0 85.271273-38.167273 85.271273-85.224727l0.232727-853.364364c0-47.104-38.167273-85.271273-85.271273-85.271273L271.685818 0z m22.155637 109.893818l429.986909 0.139637-0.186182 695.761454-429.986909-0.093091 0.186182-695.808z m-26.205091-26.205091l-0.186182 748.218182 482.397091 0.139636 0.186182-748.218181L267.636364 83.688727z m240.965818 806.586182a25.320727 25.320727 0 0 1 25.460363 25.460364 25.506909 25.506909 0 1 1-25.460363-25.460364z m0-26.205091a51.665455 51.665455 0 0 0 0 103.330909 51.665455 51.665455 0 0 0 0-103.330909z"  p-id="992"></path></svg>